<?xml version="1.0" encoding="utf-8"?>
<!-- Generator: Adobe Illustrator 16.0.0, SVG Export Plug-In . SVG Version: 6.00 Build 0)  -->
<!DOCTYPE svg PUBLIC "-//W3C//DTD SVG 1.1//EN" "http://www.w3.org/Graphics/SVG/1.1/DTD/svg11.dtd">
<svg version="1.1" id="Capa_1" xmlns="http://www.w3.org/2000/svg" xmlns:xlink="http://www.w3.org/1999/xlink" x="0px" y="0px"
	 width="332.057px" height="438.355px" viewBox="0 0 332.057 438.355" enable-background="new 0 0 332.057 438.355"
	 xml:space="preserve">
<g>
	<defs>
		<rect id="SVGID_1_" width="332.057" height="438.355"/>
	</defs>
	<clipPath id="SVGID_2_">
		<use xlink:href="#SVGID_1_"  overflow="visible"/>
	</clipPath>
	<g clip-path="url(#SVGID_2_)">
		<g>
			<path fill="#FFC691" d="M71.283,242.592c0,0-3.898,26.271-4.286,29.61c-0.395,3.342-2.36,55.434-3.147,59.561
				c-0.788,4.13-12.78,44.037-14.351,48.163c-1.571,4.129-10.416,65.07-9.437,75.092c0.984,10.027-1.375,27.912-1.375,30.86
				c0,2.949-0.193,23.004,1.968,26.738c2.159,3.732,19.853,23.781,22.608,25.16c2.749,1.375,5.105-1.967,2.158-7.861l-2.948-5.896
				c0,0,5.306,5.503,7.668,2.357c2.355-3.148-4.72-9.829-4.72-9.829s1.77,1.771,3.539-2.16c1.77-3.937-13.27-12.584-13.27-12.584
				s1.674-0.982,2.063-2.947c0.396-1.969-5.504-6.885-5.896-8.258c-0.395-1.377-2.359-8.65-2.359-8.65s2.952-2.752,4.327,0.198
				c1.379,2.948,3.929,11.005,5.698,12.778c1.771,1.768,6.882,6.684,9.437,4.914c2.554-1.771,1.574-4.523-0.194-6.88
				c-1.77-2.36-2.95-4.915-2.754-6.687c0.197-1.763,0.787-11.992-0.789-14.545c-1.569-2.555-9.833-10.423-9.532-13.365
				c0.298-2.95-0.685-8.26,1.084-12.783c1.764-4.519,21.229-46.585,23.394-69.192c2.162-22.604,4.126-32.435,6.088-40.689
				c1.972-8.256,13.762-68.214,13.762-68.214l1.576-20.445v-9.24L71.283,242.592z"/>
			<path fill="none" stroke="#F1B486" stroke-miterlimit="10" d="M71.283,242.592c0,0-3.898,26.271-4.286,29.61
				c-0.395,3.342-2.36,55.434-3.147,59.561c-0.788,4.13-12.78,44.037-14.351,48.163c-1.571,4.129-10.416,65.07-9.437,75.092
				c0.984,10.027-1.375,27.912-1.375,30.86c0,2.949-0.193,23.004,1.968,26.738c2.159,3.732,19.853,23.781,22.608,25.16
				c2.749,1.375,5.105-1.967,2.158-7.861l-2.948-5.896c0,0,5.306,5.503,7.668,2.357c2.355-3.148-4.72-9.829-4.72-9.829
				s1.77,1.771,3.539-2.16c1.77-3.937-13.27-12.584-13.27-12.584s1.674-0.982,2.063-2.947c0.396-1.969-5.504-6.885-5.896-8.258
				c-0.395-1.377-2.359-8.65-2.359-8.65s2.952-2.752,4.327,0.198c1.379,2.948,3.929,11.005,5.698,12.778
				c1.771,1.768,6.882,6.684,9.437,4.914c2.554-1.771,1.574-4.523-0.194-6.88c-1.77-2.36-2.95-4.915-2.754-6.687
				c0.197-1.763,0.787-11.992-0.789-14.545c-1.569-2.555-9.833-10.423-9.532-13.365c0.298-2.95-0.685-8.26,1.084-12.783
				c1.764-4.519,21.229-46.585,23.394-69.192c2.162-22.604,4.126-32.435,6.088-40.689c1.972-8.256,13.762-68.214,13.762-68.214
				l1.576-20.445v-9.24L71.283,242.592z"/>
			<path fill="#FFC691" d="M48.123,484.704v23.192c0,0,11.023,12.873,13.482,14.957"/>
			<path fill="none" stroke="#F1B486" stroke-linecap="round" stroke-linejoin="round" stroke-miterlimit="10" d="M48.123,484.704
				v23.192c0,0,11.023,12.873,13.482,14.957"/>
			<path fill="#FFC691" d="M49.892,504.951c0,0,12.805,8.923,15.53,11.598"/>
			<path fill="none" stroke="#F1B486" stroke-linecap="round" stroke-linejoin="round" stroke-miterlimit="10" d="M49.892,504.951
				c0,0,12.805,8.923,15.53,11.598"/>
			<path fill="#F1B486" d="M100.243,267.484c0,0-11.791,59.958-13.754,68.214c-1.969,8.254-3.933,18.085-6.095,40.692
				C78.227,398.995,58.77,441.061,57,445.58c-1.768,4.523-0.787,9.833-1.081,12.783c-0.3,2.944,7.963,10.809,9.53,13.367
				c1.578,2.551,0.985,12.78,0.789,14.543c-0.146,1.324,0.479,3.084,1.538,4.875c-1.671-2.587-4.479-7.295-4.479-9.824
				c0-3.596-2.854-9.852-5.417-13.518c-2.551-3.667-8.028-10.189-7.76-15.486c0.272-5.297,12.768-44.415,17.101-53.786
				c4.338-9.369,11.15-49.304,11.561-53.694c0.405-4.391,5.293-42.064,6.924-46.011c1.365-3.301,6.45-19.145,7.612-31.422
				c0.051-0.592-25.004-4.376-24.961-4.844c0.137-1.45,3.023-20.634,3.023-20.634l30.439,5.11L100.243,267.484z"/>
			<path fill="#E5865C" d="M70.308,496.111c-0.606,0.538-0.649,0.811-1.692,0.621c-1.043-0.202-2.379-3.203-2.379-3.203l1.358-0.536
				C67.807,493.021,70.967,495.446,70.308,496.111"/>
			<path fill="none" stroke="#F1B486" stroke-miterlimit="10" d="M70.308,496.111c-0.606,0.538-0.649,0.811-1.692,0.621
				c-1.043-0.202-2.379-3.203-2.379-3.203l1.358-0.536C67.807,493.021,70.967,495.446,70.308,496.111z"/>
			<path fill="#E5865C" d="M65.335,537.4c-0.608,0.539-0.656,0.817-1.701,0.625c-1.041-0.201-2.375-3.203-2.375-3.203l1.359-0.535
				C62.833,534.316,65.991,536.739,65.335,537.4"/>
			<path fill="none" stroke="#F1B486" stroke-miterlimit="10" d="M65.335,537.4c-0.608,0.539-0.656,0.817-1.701,0.625
				c-1.041-0.201-2.375-3.203-2.375-3.203l1.359-0.535C62.833,534.316,65.991,536.739,65.335,537.4z"/>
			<path fill="#2D304F" d="M68.164,254.997c0,0-0.33,2.423-1.551,3.866s9.203,0.995,12.973,1.219
				c3.766,0.225,22.001,3.681,22.658,3.953c0.557-0.554,0.361-3.278,0.855-4.221C103.324,259.337,72.266,253.679,68.164,254.997"/>
			<path fill="#FFC691" d="M248.507,254.833c0,0,5.31,35.839,5.701,39.178c0.395,3.343,2.361,55.433,3.147,59.563
				c0.786,4.129,12.774,44.035,14.346,48.16c1.574,4.127,10.418,65.07,9.436,75.09c-0.979,10.028,1.378,27.916,1.378,30.863
				c0,2.95,0.193,23.001-1.968,26.734c-2.162,3.736-19.853,23.788-22.605,25.164c-2.752,1.375-5.109-1.967-2.159-7.864l2.947-5.898
				c0,0-5.31,5.507-7.665,2.363c-2.362-3.146,4.718-9.829,4.718-9.829s-1.771,1.768-3.54-2.164
				c-1.77-3.936,13.271-12.577,13.271-12.577s-1.676-0.989-2.065-2.955c-0.393-1.964,5.507-6.878,5.898-8.251
				c0.395-1.381,2.355-8.652,2.355-8.652s-2.951-2.754-4.326,0.199c-1.373,2.945-3.928,11.007-5.696,12.776
				c-1.769,1.768-6.879,6.684-9.437,4.911c-2.555-1.768-1.576-4.521,0.197-6.877c1.767-2.357,2.95-4.914,2.75-6.684
				c-0.197-1.768-0.784-11.997,0.784-14.547c1.574-2.556,9.837-10.423,9.539-13.365c-0.297-2.95,0.688-8.256-1.085-12.78
				c-1.768-4.522-21.23-46.588-23.393-69.192c-2.16-22.607-4.128-32.438-6.089-40.692c-1.966-8.255-13.765-68.211-13.765-68.211
				l-1.576-20.446v-9.237L248.507,254.833z"/>
			<path fill="none" stroke="#F1B486" stroke-miterlimit="10" d="M248.507,254.833c0,0,5.31,35.839,5.701,39.178
				c0.395,3.343,2.361,55.433,3.147,59.563c0.786,4.129,12.774,44.035,14.346,48.16c1.574,4.127,10.418,65.07,9.436,75.09
				c-0.979,10.028,1.378,27.916,1.378,30.863c0,2.95,0.193,23.001-1.968,26.734c-2.162,3.736-19.853,23.788-22.605,25.164
				c-2.752,1.375-5.109-1.967-2.159-7.864l2.947-5.898c0,0-5.31,5.507-7.665,2.363c-2.362-3.146,4.718-9.829,4.718-9.829
				s-1.771,1.768-3.54-2.164c-1.77-3.936,13.271-12.577,13.271-12.577s-1.676-0.989-2.065-2.955
				c-0.393-1.964,5.507-6.878,5.898-8.251c0.395-1.381,2.355-8.652,2.355-8.652s-2.951-2.754-4.326,0.199
				c-1.373,2.945-3.928,11.007-5.696,12.776c-1.769,1.768-6.879,6.684-9.437,4.911c-2.555-1.768-1.576-4.521,0.197-6.877
				c1.767-2.357,2.95-4.914,2.75-6.684c-0.197-1.768-0.784-11.997,0.784-14.547c1.574-2.556,9.837-10.423,9.539-13.365
				c-0.297-2.95,0.688-8.256-1.085-12.78c-1.768-4.522-21.23-46.588-23.393-69.192c-2.16-22.607-4.128-32.438-6.089-40.692
				c-1.966-8.255-13.765-68.211-13.765-68.211l-1.576-20.446v-9.237L248.507,254.833z"/>
			<path fill="#FFC691" d="M273.077,506.51v23.195c0,0-11.025,12.87-13.481,14.957"/>
			<path fill="none" stroke="#F1B486" stroke-linecap="round" stroke-linejoin="round" stroke-miterlimit="10" d="M273.077,506.51
				v23.195c0,0-11.025,12.87-13.481,14.957"/>
			<path fill="#FFC691" d="M271.307,526.757c0,0-12.8,8.923-15.524,11.601"/>
			<path fill="none" stroke="#F1B486" stroke-linecap="round" stroke-linejoin="round" stroke-miterlimit="10" d="M271.307,526.757
				c0,0-12.8,8.923-15.524,11.601"/>
			<path fill="#F1B486" d="M220.957,289.292c0,0,11.793,59.957,13.759,68.214c1.966,8.254,3.929,18.085,6.093,40.692
				c2.162,22.604,21.625,64.67,23.395,69.195c1.768,4.52,0.786,9.827,1.08,12.777c0.298,2.942-7.961,10.81-9.531,13.365
				c-1.573,2.55-0.983,12.777-0.787,14.547c0.145,1.322-0.479,3.082-1.545,4.87c1.678-2.585,4.488-7.292,4.488-9.819
				c0-3.598,2.855-9.855,5.411-13.52c2.557-3.67,8.034-10.188,7.762-15.486c-0.271-5.3-12.769-44.413-17.1-53.787
				c-4.337-9.371-11.151-49.309-11.56-53.697c-0.406-4.385-5.298-42.063-6.927-46.008c-1.36-3.301-2.788-23.2-3.954-35.475
				c-0.051-0.592,21.351-0.325,21.308-0.793c-0.141-1.449-3.028-20.634-3.028-20.634l-30.44,5.114L220.957,289.292z"/>
			<path fill="#E5865C" d="M250.891,517.917c0.605,0.543,0.65,0.813,1.697,0.625c1.043-0.2,2.381-3.205,2.381-3.205l-1.359-0.534
				C253.395,514.827,250.235,517.254,250.891,517.917"/>
			<path fill="none" stroke="#F1B486" stroke-miterlimit="10" d="M250.891,517.917c0.605,0.543,0.65,0.813,1.697,0.625
				c1.043-0.2,2.381-3.205,2.381-3.205l-1.359-0.534C253.395,514.827,250.235,517.254,250.891,517.917z"/>
			<path fill="#E5865C" d="M255.867,559.212c0.605,0.538,0.655,0.817,1.696,0.622c1.044-0.199,2.378-3.204,2.378-3.204l-1.356-0.532
				C258.372,556.12,255.214,558.547,255.867,559.212"/>
			<path fill="none" stroke="#F1B486" stroke-miterlimit="10" d="M255.867,559.212c0.605,0.538,0.655,0.817,1.696,0.622
				c1.044-0.199,2.378-3.204,2.378-3.204l-1.356-0.532C258.372,556.12,255.214,558.547,255.867,559.212z"/>
			<path fill="#C1716B" d="M217.277,187.369c0,2.113-1.803,3.824-4.023,3.824c-2.223,0-4.021-1.711-4.021-3.824
				c0-2.11,1.798-3.823,4.021-3.823C215.475,183.546,217.277,185.259,217.277,187.369"/>
			<ellipse fill="none" stroke="#BA645D" stroke-miterlimit="10" cx="213.255" cy="187.369" rx="4.022" ry="3.824"/>
			<path fill="#C1716B" d="M201.355,193.26c0,2.107-1.799,3.821-4.015,3.821c-2.225,0-4.026-1.714-4.026-3.821
				c0-2.113,1.802-3.827,4.026-3.827C199.557,189.434,201.355,191.147,201.355,193.26"/>
			<path fill="none" stroke="#BA645D" stroke-miterlimit="10" d="M201.355,193.26c0,2.107-1.799,3.821-4.015,3.821
				c-2.225,0-4.026-1.714-4.026-3.821c0-2.113,1.802-3.827,4.026-3.827C199.557,189.434,201.355,191.147,201.355,193.26z"/>
			<path fill="#58595B" d="M165.908,818.48c0,0,0.607,12.053-0.487,17.288c-1.094,5.233-4.625,14.975-4.142,19.722
				c0.487,4.75,1.707,9.5,9.501,12.053c7.789,2.557,13.146,7.427,14.488,8.887c1.337,1.463,11.928,12.668,28.122,11.08
				c16.193-1.583,29.953-8.033,30.801-14.117c0.854-6.096-6.694-9.014-12.781-11.088c-6.082-2.064-15.098-8.273-18.387-11.927
				c-3.285-3.653-6.938-13.638-8.521-22.038c-1.583-8.399-2.07-13.391-2.555-13.514C201.46,814.705,165.74,811.053,165.908,818.48"
				/>
			<path fill="none" stroke="#231F20" stroke-miterlimit="10" d="M165.908,818.48c0,0,0.607,12.053-0.487,17.288
				c-1.094,5.233-4.625,14.975-4.142,19.722c0.487,4.75,1.707,9.5,9.501,12.053c7.789,2.557,13.146,7.427,14.488,8.887
				c1.337,1.463,11.928,12.668,28.122,11.08c16.193-1.583,29.953-8.033,30.801-14.117c0.854-6.096-6.694-9.014-12.781-11.088
				c-6.082-2.064-15.098-8.273-18.387-11.927c-3.285-3.653-6.938-13.638-8.521-22.038c-1.583-8.399-2.07-13.391-2.555-13.514
				C201.46,814.705,165.74,811.053,165.908,818.48z"/>
			<path fill="#383133" d="M161.587,852.891c0.014-0.269,2.606-8.912,2.733-9.897c0.12-0.994,1.791-7.176,1.854-7.735
				c0.063-0.554,0.805-6.179,0.494-8.966c-0.309-2.78,0.522-5.504,0.077-6.988c-0.447-1.481,3.265-1.481,3.265-1.481
				s1.172,9.893,0.367,12.427c-0.803,2.536-0.679,10.013-2.411,13.854c-1.729,3.832-2.631,12.374-2.714,13.914
				c-0.091,1.541-0.812,2.592-0.812,2.592S161.484,855.327,161.587,852.891"/>
			<path fill="#58595B" d="M98.232,804.809c0,0-7.936,18.404-7.43,23.81c0.507,5.403,2.362,14.354,2.362,14.354
				s6.924,7.431,6.245,14.862c-0.67,7.431-5.907,12.71-11.985,12.941c-6.081,0.232-9.797-1.241-11.822,0
				c-2.024,1.245-8.275,13.575-20.271,16.104c-11.984,2.533-33.264,2.197-43.907-2.867c-10.633-5.068-15.531-10.814-7.258-17.227
				c8.276-6.418,21.957-7.433,29.724-12.668c7.766-5.232,19.925-16.887,21.109-20.941c1.181-4.055,7.884-19.282,8.275-23.643
				c0.394-4.363,2.534-10.976,2.534-10.976S94.854,800.245,98.232,804.809"/>
			<path fill="none" stroke="#231F20" stroke-miterlimit="10" d="M98.232,804.809c0,0-7.936,18.404-7.43,23.81
				c0.507,5.403,2.362,14.354,2.362,14.354s6.924,7.431,6.245,14.862c-0.67,7.431-5.907,12.71-11.985,12.941
				c-6.081,0.232-9.797-1.241-11.822,0c-2.024,1.245-8.275,13.575-20.271,16.104c-11.984,2.533-33.264,2.197-43.907-2.867
				c-10.633-5.068-15.531-10.814-7.258-17.227c8.276-6.418,21.957-7.433,29.724-12.668c7.766-5.232,19.925-16.887,21.109-20.941
				c1.181-4.055,7.884-19.282,8.275-23.643c0.394-4.363,2.534-10.976,2.534-10.976S94.854,800.245,98.232,804.809z"/>
			<path fill="#444444" stroke="#050A0C" stroke-miterlimit="10" d="M235.06,402.252c0,0,16.455,35.864,16.005,60.818
				c-0.447,24.96-4.928,103.852-5.377,132.465c-0.442,28.608-3.009,52.784-2.623,60.842c0.385,8.059-7.445,17.015-8.005,26.861
				c-0.563,9.854-9.521,33.295-9.069,42.169c0,0,0.898,32.767-3.136,37.613c-4.028,4.844-7.165,9.007-8.062,16.101
				c-0.891,7.097-0.891,11.846-1.787,16.411c-0.894,4.569-6.272,16.204-8.956,20.011c-2.686,3.807-14.775,9.375-21.042,5.25
				c0,0-16.118,2.258-20.148-3.848c-4.029-6.102-4.029-16.844-4.924-23.56c-0.896-6.718-4.48-5.946,0-15.515
				c4.479-9.564,13.427-20.754,10.743-25.229c-2.685-4.48-11.121-5.375-12.946-14.776c-1.83-9.402,9.366-41.193,8.021-52.383
				c-1.34-11.195,1.345-30.449,0.896-34.927c0,0,1.344-73.429,1.344-83.276c0-9.853,4.028-35.822,4.028-40.522
				s-3.133-17.505-3.133-17.505s-3.265,30.648-5.664,37.623c-2.396,6.969-1.5,19.955-3.29,28.459
				c-1.793,8.508-7.437,20.154-7.078,27.313c0.361,7.168-0.09,16.119-1.878,20.6c-1.791,4.478-11.195,13.416-9.85,19.693
				c1.343,6.274,2.244,17.47,2.244,21.945c0,4.475-5.379,16.119-5.379,19.701c0,3.578,2.235,11.64,0,14.774
				c-2.235,3.132-12.534,12.534-14.327,23.729c-1.791,11.195-2.239,19.701-4.029,26.416c0,0-7.162,14.218-7.162,20.765
				c0,6.545,1.791,15.503,0,21.768c-1.797,6.271,0.446,9.788-7.165,12.729c-7.609,2.942-14.326,3.839-20.597-1.981
				c0,0-12.533,5.305-20.146,1.981c-7.614-3.327-9.856,0.704-7.614-11.832c2.24-12.534,7.614-21.595,7.614-22.664
				c0-1.063-6.273-26.14-5.374-42.702c0.893-16.57,8.057-23.732,8.057-28.208c0,0,1.316-21.048,2.676-44.327
				c1.356-23.281,0.419-48.818,0-54.175c-0.422-5.36,3.593-50.942,3.593-59.052c0-8.108,9.905-53.235,11.671-62.236
				c1.762-9.004,7.707-30.078,7.707-30.078l15.112-47.24l13.966-1.161l75.574,6.275L235.06,402.252"/>
			<path fill="none" stroke="#050A0C" stroke-miterlimit="10" d="M235.06,402.252c0,0,16.455,35.864,16.005,60.818
				c-0.447,24.96-4.928,103.852-5.377,132.465c-0.442,28.608-3.009,52.784-2.623,60.842c0.385,8.059-7.445,17.015-8.005,26.861
				c-0.563,9.854-9.521,33.295-9.069,42.169c0,0,0.898,32.767-3.136,37.613c-4.028,4.844-7.165,9.007-8.062,16.101
				c-0.891,7.097-0.891,11.846-1.787,16.411c-0.894,4.569-6.272,16.204-8.956,20.011c-2.686,3.807-14.775,9.375-21.042,5.25
				c0,0-16.118,2.258-20.148-3.848c-4.029-6.102-4.029-16.844-4.924-23.56c-0.896-6.718-4.48-5.946,0-15.515
				c4.479-9.564,13.427-20.754,10.743-25.229c-2.685-4.48-11.121-5.375-12.946-14.776c-1.83-9.402,9.366-41.193,8.021-52.383
				c-1.34-11.195,1.345-30.449,0.896-34.927c0,0,1.344-73.429,1.344-83.276c0-9.853,4.028-35.822,4.028-40.522
				s-3.133-17.505-3.133-17.505s-3.265,30.648-5.664,37.623c-2.396,6.969-1.5,19.955-3.29,28.459
				c-1.793,8.508-7.437,20.154-7.078,27.313c0.361,7.168-0.09,16.119-1.878,20.6c-1.791,4.478-11.195,13.416-9.85,19.693
				c1.343,6.274,2.244,17.47,2.244,21.945c0,4.475-5.379,16.119-5.379,19.701c0,3.578,2.235,11.64,0,14.774
				c-2.235,3.132-12.534,12.534-14.327,23.729c-1.791,11.195-2.239,19.701-4.029,26.416c0,0-7.162,14.218-7.162,20.765
				c0,6.545,1.791,15.503,0,21.768c-1.797,6.271,0.446,9.788-7.165,12.729c-7.609,2.942-14.326,3.839-20.597-1.981
				c0,0-12.533,5.305-20.146,1.981c-7.614-3.327-9.856,0.704-7.614-11.832c2.24-12.534,7.614-21.595,7.614-22.664
				c0-1.063-6.273-26.14-5.374-42.702c0.893-16.57,8.057-23.732,8.057-28.208c0,0,1.316-21.048,2.676-44.327
				c1.356-23.281,0.419-48.818,0-54.175c-0.422-5.36,3.593-50.942,3.593-59.052c0-8.108,9.905-53.235,11.671-62.236
				c1.762-9.004,7.707-30.078,7.707-30.078l15.112-47.24l13.966-1.161l75.574,6.275L235.06,402.252"/>
			<path fill="#1C1C1C" d="M67.902,598.973c0,0,6.148,1.641,6.615-5.557c0.463-7.195,3.249-28.311,3.482-37.594
				c0.227-9.287,2.49-42.469,5.191-51.522c2.699-9.05,9.544-36.435,10.53-38.753c0.983-2.321,8.912-4.414,14.993-14.107
				c6.072-9.698-5.24-35.019-5.94-35.478c-0.698-0.456-18.589,59.049-18.589,59.049s-11.986,56.91-12.454,57.606
				c-0.464,0.693-1.853,39.914-1.853,39.914S65.002,595.017,67.902,598.973"/>
			<path fill="#FFC691" d="M270.13,519.117c0,0-0.879,3.383-3.974,4.295"/>
			<path fill="none" stroke="#F1B486" stroke-linecap="round" stroke-linejoin="round" stroke-miterlimit="10" d="M270.13,519.117
				c0,0-0.879,3.383-3.974,4.295"/>
			<path fill="none" stroke="#050A0C" stroke-miterlimit="10" d="M198.803,473.408c0,0-42.086,7.846-72.317-5.738
				c0,0,9.947,16.452,42.474,13.197l3.25-2.293c0,0,12.437,17.217,27.358,17.41c0,0-12.995-3.13-27.358-7.844"/>
			<path fill="#3C2415" d="M161.231,197.627c9.812,10.987,30.901-23.107,37.23-25.035c6.335-1.924,13.281-1.28,13.281-1.28
				s12.007-3.927,21.194-17.099c9.185-13.174,1.591-63.385-0.059-65.588c-1.651-2.2-34.138-23.674-34.138-23.674
				s-46.804-7.712-47.631-7.434c-0.825,0.272-38.817,20.095-38.817,20.095l-1.649,55.065l9.784,21.474
				c0,0,18.847,25.188,32.921,29.6C160.978,188.439,151.417,186.637,161.231,197.627"/>
			<path fill="#FFC691" d="M150.2,155.115c-0.151,0.331-1.832,36.975-2.066,38.825c-0.175,1.407-16.577,3.51-18.078,3.762
				c-1.501,0.248-2.501,14.244-2.501,14.244l19.775,32.497l30.457,1.502c0,0,23.006-15.001,23.256-15.751
				c0.249-0.75,7.382-20.495,8.19-21.248c0.804-0.747-10.372-9.311-18.284-14.314l-3.055-39.093
				C187.895,155.538,153.455,148.259,150.2,155.115"/>
			<path fill="none" stroke="#F1B486" stroke-miterlimit="10" d="M150.2,155.115c-0.151,0.331-1.832,36.975-2.066,38.825
				c-0.175,1.407-16.577,3.51-18.078,3.762c-1.501,0.248-2.501,14.244-2.501,14.244l19.775,32.497l30.457,1.502
				c0,0,23.006-15.001,23.256-15.751c0.249-0.75,7.382-20.495,8.19-21.248c0.804-0.747-10.372-9.311-18.284-14.314l-3.055-39.093
				C187.895,155.538,153.455,148.259,150.2,155.115z"/>
			<path fill="#F1B486" d="M204.793,221.175c2.076-5.604,4.45-11.814,4.899-12.229c0.809-0.747-10.831-9.316-18.743-14.314
				l-2.6-39.093c0,0-8.883-1.871-18.054-2.824c-2.36,0.201-4.02,0.332-4.163,0.294c-0.389-0.095-8.844,0.443-14.213,0.798
				c-0.568,0.364-1.011,0.794-1.258,1.312c-0.047,0.101-0.401,3.604-0.846,8.469c0,0,13.509,6.2,18.847,6.339
				c5.345,0.141,15.025-3.41,16.017-2.987c0.98,0.42,1.562,24.743,2.266,27.696c0.701,2.956-1.685,11.812-2.111,13.074
				c-0.42,1.27-8.081,16.74-10.861,18.711c-2.545,1.803-6.166,7.675-6.766,8.66c0.303,1.53,0.658,3.355,1.092,5.542
				c0.405,2.092,0.996,3.694,1.716,4.911l8.233,0.404c0,0,7.572-4.933,14.077-9.289c5.028-5.424,8.825-10.651,8.825-10.651
				L204.793,221.175z"/>
			<path fill="#3C2415" d="M108.563,106.088c-1.604,0.269-3.222,0.513-4.84,0.664c-0.052,0.325-0.105,0.655-0.15,0.963
				c-7.403,52.276,35.175,82.327,54.03,70.634c-10.693-11.82-33.82-39.9-37.617-68.668
				C118.043,109.35,110.729,105.728,108.563,106.088"/>
			<path fill="#603913" d="M102.837,115.24c0,0-1.289-8.905-0.563-13.583c1.374-8.967,5.604-17.202,8.68-21.098
				c4.678-5.926,16.602-5.102,16.602-5.102s-1.269,6.682-6.514,10.34c-5.244,3.665-18.323,23.659-0.946,48.247
				C113.584,132.534,103.889,125.281,102.837,115.24"/>
			<path fill="none" stroke="#3C2415" stroke-miterlimit="10" d="M102.837,115.24c0,0-1.289-8.905-0.563-13.583
				c1.374-8.967,5.604-17.202,8.68-21.098c4.678-5.926,16.602-5.102,16.602-5.102s-1.269,6.682-6.514,10.34
				c-5.244,3.665-18.323,23.659-0.946,48.247C113.584,132.534,103.889,125.281,102.837,115.24z"/>
			<path fill="#FFC691" d="M127.068,121.439c0,0-3.695,2.733-5.765,1.695c-2.071-1.034-3.995-7.831-6.207-10.492
				c-2.219-2.659-7.832-9.601-5.913-12.85c1.922-3.254,7.256-9.509,9.91-5.423c2.65,4.087,10.338,19.016,10.484,20.345
				C129.726,116.042,127.068,121.439,127.068,121.439"/>
			<path fill="none" stroke="#F1B486" stroke-miterlimit="10" d="M127.068,121.439c0,0-3.695,2.733-5.765,1.695
				c-2.071-1.034-3.995-7.831-6.207-10.492c-2.219-2.659-7.832-9.601-5.913-12.85c1.922-3.254,7.256-9.509,9.91-5.423
				c2.65,4.087,10.338,19.016,10.484,20.345C129.726,116.042,127.068,121.439,127.068,121.439z"/>
			<path fill="#F1B486" d="M119.188,111.462c0,0-1.284-3.398-3.203-5.023c-1.924-1.624-5.381-5.468-1.656-7.094
				c0,0,1.6,0,2.242,1.476"/>
			<path fill="#FFC691" d="M215.019,121.439c0,0,3.69,2.733,5.762,1.695c2.068-1.034,3.988-7.831,6.206-10.492
				c2.216-2.659,7.832-9.601,5.912-12.85c-1.921-3.254-7.253-9.509-9.907-5.423c-2.661,4.087-10.341,19.016-10.487,20.345
				C212.357,116.042,215.019,121.439,215.019,121.439"/>
			<path fill="none" stroke="#F1B486" stroke-miterlimit="10" d="M215.019,121.439c0,0,3.69,2.733,5.762,1.695
				c2.068-1.034,3.988-7.831,6.206-10.492c2.216-2.659,7.832-9.601,5.912-12.85c-1.921-3.254-7.253-9.509-9.907-5.423
				c-2.661,4.087-10.341,19.016-10.487,20.345C212.357,116.042,215.019,121.439,215.019,121.439z"/>
			<path fill="#F1B486" d="M222.895,111.462c0,0,1.283-3.398,3.205-5.023c1.92-1.624,5.379-5.468,1.656-7.094
				c0,0-1.604,0-2.247,1.476"/>
			<path fill="#FFC691" d="M214.91,66.431c-0.564-14.425-12.554-28.463-12.554-28.463c-4.538-3.196-9.945-3.987-15.479-3.405
				c-5.081-0.577-10.526,0.433-15.692,2.163c-8.541-2.863-17.85-3.788-24.988,1.242c0,0-29.606,38.465-27.259,54.334
				c2.365,38.514,31.625,71.76,52.048,70.806c18.885,0,52.449-37.016,52.449-70.806C224.371,85.979,220.225,76.067,214.91,66.431"/>
			<path fill="none" stroke="#F1B486" stroke-width="1.032" stroke-miterlimit="10" d="M214.91,66.431
				c-0.564-14.425-12.554-28.463-12.554-28.463c-4.538-3.196-9.945-3.987-15.479-3.405c-5.081-0.577-10.526,0.433-15.692,2.163
				c-8.541-2.863-17.85-3.788-24.988,1.242c0,0-29.606,38.465-27.259,54.334c2.365,38.514,31.625,71.76,52.048,70.806
				c18.885,0,52.449-37.016,52.449-70.806C224.371,85.979,220.225,76.067,214.91,66.431z"/>
			<path fill="#F1B486" d="M138.119,67.116c0,0,4.928,8.817,11.37,11.013c6.444,2.197,17.096,1.229,21.6,1.342
				c4.501,0.118,24.198,4.989,27.019,4.927c5.898-0.129,6.055-1.782,13.693,0c7.637,1.783,10.362,13.251,11.282,6.391
				c0.915-6.854-3.703-38.011-3.703-38.011s-44.646-9.539-46.845-11.899c-2.205-2.354-38.085,7.323-38.56,8.696
				C133.497,50.948,132.37,56.896,138.119,67.116"/>
			<path fill="#E2AC7F" d="M158.887,92.617c0,0-2.118-7.395-13.384-7.261c-11.263,0.126-11.835,5.287-12.265,5.792
				c-0.424,0.495,7.499-3.761,10.459-3.633c2.965,0.134,15.057,5.82,15.057,5.82L158.887,92.617z"/>
			<path fill="#3C2415" d="M161.372,86.758c0.388-0.624-1.13-9.745-16.234-10.194c0,0-5.117-0.538-13.196,4.644l1.514,0.619
				c0,0,7.98-4.07,13.913-2.958c5.933,1.108,11.557,6.982,12.498,7.905C160.803,87.693,160.571,88.044,161.372,86.758"/>
			<path fill="#FFFFFF" d="M158.701,93.347c0,0-1.025,10.762-11.456,10.639c-10.437-0.13-12.872-8.885-12.909-12.554
				c-0.032-3.669,11.395-4.483,16.667-1.604C156.276,92.704,158.701,93.347,158.701,93.347"/>
			<path fill="#178EC3" d="M152.828,93.632c0.502,2.824-1.613,6.138-4.835,6.705c-3.224,0.571-6.245-1.249-6.743-4.072
				c-0.498-2.819,0.154-5.091,3.383-5.663C149.48,89.706,152.059,91.968,152.828,93.632"/>
			<path fill="#3C2415" d="M129.281,92.599c0,0,3.402,1.098,5.23,0.639c0,0-0.794-2.698,1.165-3.521
				c1.958-0.82,9.921-1.568,13.804-0.011c3.887,1.562,7.412,4.192,9.221,3.641l1.309-0.229c0,0-2.221-0.915-4.733-2.368
				c-2.51-1.453-7.044-4.053-13.438-3.991c-6.394,0.067-9.063,4.009-9.063,4.009S131.53,92.935,129.281,92.599"/>
			<path fill="#001523" d="M143.737,94.807c0.032,1.882,1.313,3.386,2.853,3.355c1.54-0.031,2.759-1.582,2.72-3.468
				c-0.04-1.881-1.316-3.384-2.855-3.355C144.911,91.371,143.691,92.921,143.737,94.807"/>
			<path fill="#FFFFFF" d="M151.14,95.24c0.02,0.784-0.394,1.419-0.925,1.428c-0.523,0.013-0.97-0.608-0.983-1.389
				c-0.013-0.78,0.399-1.42,0.928-1.43C150.688,93.839,151.129,94.461,151.14,95.24"/>
			<path fill="#FFFFFF" d="M142.144,95.937c0.022,1.227,0.818,2.205,1.769,2.186c0.958-0.018,1.707-1.027,1.684-2.254
				c-0.022-1.224-0.818-2.206-1.77-2.182C142.869,93.705,142.121,94.71,142.144,95.937"/>
			<path fill="#E2AC7F" d="M182.246,92.612c0,0,2.531-7.261,13.772-6.496c11.236,0.765,11.515,5.954,11.914,6.48
				c0.399,0.521-7.269-4.185-10.24-4.215c-2.957-0.036-15.355,4.954-15.355,4.954L182.246,92.612z"/>
			<path fill="#3C2415" d="M182.016,84.104c-0.236-0.69,3.339-9.224,18.139-6.189c0,0,5.104,0.652,11.777,7.552l-1.613,0.251
				c0,0-6.83-5.791-12.861-6.072c-6.027-0.286-12.854,4.138-13.976,4.821C182.357,85.15,182.496,85.541,182.016,84.104"/>
			<path fill="#FFFFFF" d="M182.391,93.349c0,0,0.408,10.812,10.834,11.275c10.428,0.461,13.357-8.143,13.598-11.801
				c0.241-3.665-11.121-5.125-16.548-2.55C184.846,92.849,182.391,93.349,182.391,93.349"/>
			<path fill="#178EC3" d="M188.344,93.612c-0.657,2.788,1.264,6.212,4.453,6.962c3.189,0.754,6.305-0.897,6.963-3.68
				c0.657-2.789,0.131-5.094-3.059-5.85C191.803,90.241,189.211,91.988,188.344,93.612"/>
			<path fill="#3C2415" d="M211.806,94.271c0,0-3.46,0.906-5.257,0.342c0,0,0.94-2.651-0.968-3.581
				c-1.905-0.937-9.815-2.129-13.784-0.792c-3.96,1.335-7.634,3.768-9.406,3.108L181.1,93.05c0,0,2.265-0.789,4.859-2.097
				c2.584-1.312,7.259-3.646,13.64-3.221c6.381,0.422,8.815,4.515,8.815,4.515S209.538,94.475,211.806,94.271"/>
			<path fill="#001523" d="M197.359,95.297c-0.141,1.875-1.507,3.303-3.041,3.185c-1.536-0.119-2.664-1.737-2.521-3.612
				c0.148-1.881,1.505-3.309,3.044-3.191C196.379,91.798,197.502,93.416,197.359,95.297"/>
			<path fill="#FFFFFF" d="M189.935,95.31c-0.06,0.775,0.323,1.435,0.843,1.48c0.528,0.04,1.001-0.559,1.064-1.333
				c0.059-0.778-0.319-1.443-0.844-1.479C190.472,93.936,189.996,94.534,189.935,95.31"/>
			<path fill="#FFFFFF" d="M198.883,96.513c-0.096,1.222-0.938,2.154-1.892,2.082c-0.951-0.072-1.643-1.122-1.55-2.344
				c0.094-1.222,0.939-2.154,1.895-2.083C198.282,94.24,198.976,95.292,198.883,96.513"/>
			<polygon fill="#F1B486" points="163.429,130.817 166.261,128.674 169.15,129.365 167.502,130.817 			"/>
			<polygon fill="#F1B486" points="173.646,129.159 176.887,130.055 176.511,131.092 173.646,131.092 			"/>
			<path fill="#591E1E" d="M186.882,134.994c0,0-0.074,0.172-0.209,0.395v0.058c-0.142,0.277-0.344,0.618-0.691,1.01
				c0,0.061-0.063,0.171-0.2,0.288c-0.277,0.334-0.557,0.729-0.829,1.118c-0.479,0.677-1.103,1.355-1.864,2.082
				c-2.48,2.309-6.123,4.561-11.221,4.448c-0.626,0-1.246-0.057-1.863-0.173c-0.418,0.064-0.826,0.116-1.241,0.116
				c-5.035,0.112-8.679-2.082-11.159-4.391c-0.758-0.727-1.386-1.461-1.931-2.139c-0.282-0.392-0.554-0.783-0.827-1.124
				c-0.136-0.113-0.202-0.226-0.202-0.278c-0.345-0.4-0.558-0.732-0.691-1.016v-0.051c-0.136-0.229-0.204-0.4-0.204-0.4
				c0.068,0,0.068,0,0.136,0.056h0.068c0.481,0.115,1.583,0.344,3.164,0.622h0.143c0.683,0.108,1.511,0.278,2.339,0.389
				c1.584,0.287,3.241,0.565,4.824,0.741c1.589,0.222,3.1,0.389,4.211,0.389c0.611,0,1.298,0,1.988-0.055v0.055
				c0.486,0.057,0.968,0.057,1.38,0.057c1.239-0.057,2.964-0.224,4.752-0.446c1.449-0.175,2.891-0.454,4.271-0.681
				c0.825-0.113,1.65-0.283,2.344-0.392h0.136c1.585-0.284,2.69-0.507,3.17-0.624h0.072
				C186.808,134.994,186.808,134.994,186.882,134.994"/>
			<path fill="#AF3C3D" d="M183.088,139.944c-2.48,2.309-6.123,4.561-11.221,4.448c-0.626,0-1.246-0.057-1.863-0.171
				c-0.418,0.062-0.826,0.114-1.239,0.114c-5.037,0.112-8.681-2.082-11.161-4.391c1.927-1.515,4.204-2.694,6.818-3.2
				c0.35-0.063,0.626-0.119,0.96-0.171c1.791-0.345,3.251-0.396,4.549-0.345v-0.052c1.456-0.113,3.1-0.059,5.31,0.279
				c0.478,0.061,1.033,0.169,1.513,0.288C179.167,137.301,181.303,138.483,183.088,139.944"/>
			<path fill="#FFFFFF" d="M183.488,135.672h-0.134c-2.34,0.113-6.06,0.279-9.369,0.279c-1.239,0-2.396-0.058-3.394-0.104v-0.069
				h-0.412c-1.035,0.059-2.275,0.11-3.583,0.11c-3.304,0-7.025-0.163-9.367-0.278h-0.14c-1.445-0.113-2.343-0.17-2.343-0.17
				c0.28,0.17,0.548,0.285,0.828,0.338c2.263,0.924,8.877,3.463,14.423,3.439c5.642,0.222,12.663-2.422,15.01-3.375
				c0.276-0.057,0.546-0.17,0.822-0.345C185.83,135.497,184.936,135.561,183.488,135.672"/>
			<path fill="#F3573F" d="M186.799,134.66c-1.312,0-5.238-2.095-11.092-2.373c-0.637-0.021-1.315,0.298-2.025,0.706
				c-2.053,1.201-4.597,1.148-6.666-0.03c-0.744-0.428-1.473-0.759-2.144-0.74c-5.854,0.284-9.778,2.378-11.082,2.378
				c-0.217,0-0.351,0-0.418-0.057c0,0,0,0.057,0.067,0.109c0.066,0.056,0.208,0.171,0.278,0.278c0.072,0,0.072,0,0.138,0.057h0.063
				c0.208,0.229,0.48,0.396,0.828,0.453c0.28,0.17,0.548,0.283,0.828,0.338c1.245,0.28,2.618,0.28,3.996,0.226
				c2.07,0,4.065-0.167,5.381,0.282c1.23,0.406,3.197,0.598,5.046,0.62c1.986,0,4.266-0.111,5.642-0.559
				c1.306-0.455,3.3-0.284,5.375-0.284c1.376,0.055,2.749,0.055,3.993-0.222c0.276-0.057,0.546-0.17,0.822-0.345
				c0.346-0.051,0.627-0.221,0.827-0.449h0.073c0.068-0.055,0.068-0.055,0.143-0.055c0.065-0.11,0.204-0.225,0.268-0.28
				c0.066-0.054,0.066-0.113,0.066-0.113C187.141,134.66,187.002,134.66,186.799,134.66"/>
			<path fill="#EF967B" d="M187.207,134.605c0,0,0,0.055-0.066,0.108c0,0.002,0,0.005,0,0.008l-0.259,0.271
				c-0.021,0.115-1.587,2.369-1.587,2.369c-0.117,0.167-0.238,0.335-0.359,0.5c-2.545,2.93-10.81,5.828-14.938,5.797
				c-3.83-0.025-11.08-2.662-13.957-5.447c-0.164-0.207-2.195-2.736-2.213-3.275l-0.456-0.395l0.017,0.051
				c-0.017-0.027-0.017-0.051-0.017-0.051c-0.348-0.286,3.622,12.732,14.675,12.886c1.123,0.013,3.377,0.198,4.495,0.059
				C185.207,145.912,187.554,134.32,187.207,134.605"/>
			<path fill="#EF967B" d="M159.777,135.131c0,0,3.731-1.131,5.389-1.139c1.651-0.011,3.105,1.085,3.105,1.085
				s-2.349-0.796-3.344-0.673C163.723,134.555,159.716,135.533,159.777,135.131"/>
			<path fill="#EF967B" d="M173.232,134.91c0,0,1.159-0.954,1.745-0.858c0.588,0.093,3.125,0.296,3.96,0.784
				c0,0-2.461-0.207-3.475-0.178c-0.652,0.013-1.216,0.623-1.669,0.559C173.346,135.144,172.909,135.159,173.232,134.91"/>
			<path fill="#F4D5CE" d="M171.908,144.778c0,0,3.628-0.458,4.716-1.021c1.047-0.53,1.18,0.325,0.759,0.505
				c-0.322,0.139-3.364,1.552-4.926,1.343C170.892,145.396,170.901,144.984,171.908,144.778"/>
			<path fill="#BA7261" d="M161.34,145.495c0,0,5.672,1.926,8.302,1.944c3.07,0.021,4.67,0.028,9.397-1.963
				c0,0-3.474,2.697-9.498,2.381C163.514,147.536,161.34,145.495,161.34,145.495"/>
			<g opacity="0.7">
				<g>
					<defs>
						<rect id="SVGID_3_" x="173.387" y="120.996" width="3.758" height="1.624"/>
					</defs>
					<clipPath id="SVGID_4_">
						<use xlink:href="#SVGID_3_"  overflow="visible"/>
					</clipPath>
					<path clip-path="url(#SVGID_4_)" fill="#E6ABA3" d="M173.387,122.567c0,0,1.24-1.829,2.824-1.54c1.58,0.288,0.85,0.71,0,0.757
						C175.355,121.826,173.537,122.871,173.387,122.567"/>
				</g>
			</g>
			<g opacity="0.7">
				<g>
					<defs>
						<rect id="SVGID_5_" x="163.079" y="121.197" width="3.761" height="1.628"/>
					</defs>
					<clipPath id="SVGID_6_">
						<use xlink:href="#SVGID_5_"  overflow="visible"/>
					</clipPath>
					<path clip-path="url(#SVGID_6_)" fill="#E6ABA3" d="M166.834,122.773c0,0-1.24-1.828-2.819-1.545
						c-1.58,0.294-0.853,0.71,0,0.757C164.867,122.031,166.691,123.072,166.834,122.773"/>
				</g>
			</g>
			<path fill="#96AA00" d="M123.695,120.471c0,0.757-0.618,1.375-1.376,1.375c-0.76,0-1.379-0.618-1.379-1.375
				c0-0.758,0.619-1.376,1.379-1.376C123.077,119.094,123.695,119.713,123.695,120.471"/>
			<path fill="#96AA00" d="M220.925,120.513c0,0.741-0.604,1.343-1.339,1.343c-0.741,0-1.344-0.603-1.344-1.343
				c0-0.742,0.603-1.342,1.344-1.342C220.321,119.171,220.925,119.771,220.925,120.513"/>
			<path fill="#603913" d="M237.396,59.873c-6.683-20.561-7.484-5.057-18.42-27.196c-10.935-22.141-44.905-28.451-63.181-18.105
				c-10.32,3.524-10.639,7.76-13.018,8.518c-46.928,14.883-40.298,71.708-40.063,77.649c0.723-0.14,6.951-12.796,7.613-12.889
				c2.625-0.386,5.207-0.567,7.729-0.363c13.021-3.818,16.858-22.178,19.648-33.845c2.837-11.857,18.912-3.561,18.912-3.561
				s12.616-11.832,13.712-11.559c1.104,0.273,39.971,24.223,39.971,24.223s9.939,9.735,17.923,44.969
				c7.984,35.24-38.302,68.608-35.546,70.535c2.75,1.926,5.23,2.479,5.23,2.479c24.501-0.278,41.989-18.224,44.475-48.507
				c1.256-15.413,0.112-17.42,0-31.483C242.267,87.175,242.383,75.204,237.396,59.873"/>
			<path fill="none" stroke="#3C2415" stroke-miterlimit="10" d="M237.396,59.873c-6.683-20.561-7.484-5.057-18.42-27.196
				c-10.935-22.141-44.905-28.451-63.181-18.105c-10.32,3.524-10.639,7.76-13.018,8.518c-46.928,14.883-40.298,71.708-40.063,77.649
				c0.723-0.14,6.951-12.796,7.613-12.889c2.625-0.386,5.207-0.567,7.729-0.363c13.021-3.818,16.858-22.178,19.648-33.845
				c2.837-11.857,18.912-3.561,18.912-3.561s12.616-11.832,13.712-11.559c1.104,0.273,39.971,24.223,39.971,24.223
				s9.939,9.735,17.923,44.969c7.984,35.24-38.302,68.608-35.546,70.535c2.75,1.926,5.23,2.479,5.23,2.479
				c24.501-0.278,41.989-18.224,44.475-48.507c1.256-15.413,0.112-17.42,0-31.483C242.267,87.175,242.383,75.204,237.396,59.873z"/>
			<path fill="#603913" d="M154.968,30.809c0,0-14.046,10.739-11.835,27.807c2.198,17.072,11.835,18.998,11.835,18.998h12.664
				c0,0-9.085-22.301,0-34.411c0,0-3.854,27.441,8.537,36.846l21.468,2.795c0,0-16.527-16.359-14.586-30.834
				c0,0,14.852,41.512,44.035,39.613c0,0,4.142-34.655-19.537-46.492"/>
			<path fill="none" stroke="#3C2415" stroke-miterlimit="10" d="M154.968,30.809c0,0-14.046,10.739-11.835,27.807
				c2.198,17.072,11.835,18.998,11.835,18.998h12.664c0,0-9.085-22.301,0-34.411c0,0-3.854,27.441,8.537,36.846l21.468,2.795
				c0,0-16.527-16.359-14.586-30.834c0,0,14.852,41.512,44.035,39.613c0,0,4.142-34.655-19.537-46.492"/>
			<path fill="none" stroke="#F1B486" stroke-linecap="round" stroke-linejoin="round" stroke-miterlimit="10" d="M168.271,97.028
				l-1.877,17.157c0,0-7.049,1.301-7.324,4.224"/>
			<path fill="none" stroke="#F1B486" stroke-linecap="round" stroke-linejoin="round" stroke-miterlimit="10" d="M181.738,118.409
				c0,0,3.678,3.486,0.224,4.962c-3.453,1.479-3.8-2.741-5.771-3.114c-1.974-0.369-3.206,3.203-6.538,2.959
				c-3.328-0.246-3.79-4.428-7.292-1.903c0,0-2.676,0.43-2.676-0.866"/>
			<path fill="#1C1C1C" d="M103.128,415.767c0,0,36.668,10.505,50.52,9.938c13.849-0.572,38.224-2.569,50.303-4.589
				c12.081-2.025,25.239-5.323,28.046-6.583c2.797-1.262,7.504-4.22,7.504-4.22s-7.077-15.378-8.586-15.378h-74.631
				c0,0-34.939,7.551-35.587,7.334c-0.647-0.216-12.253,0.098-13.263,0.96C106.428,404.086,103.128,415.767,103.128,415.767"/>
			<path fill="none" stroke="#F1B486" stroke-linecap="round" stroke-linejoin="round" stroke-miterlimit="10" d="M159.548,152.977
				c0,0,13.93-2.463,16.395,0c2.468,2.471,1.746,3.329,1.746,3.329"/>
			<path fill="#09547A" d="M68.255,241.53c-0.079,0.304-4.227,12.363-1.74,12.889c8.379,1.777,33.632,2.908,34.392,6.379
				c0,0,1.631,21.881,12.734,46.04c0,0,5.553,62.699-19.269,87.19c0,0,20.902,25.856,81.312,20.274
				c60.411-5.583,64.007-14.071,65.962-19.951c0,0-21.88-19.128-29.393-51.032c-7.507-31.908,16.655-45.949,15.676-59.989
				c-0.173-2.514-0.403-4.755-0.658-6.741c0.846,0,19.28-2.424,25.202-2.262c6.858,1.956-0.703-64.145-30.746-62.183l-18.451-9.54
				c0,0-11.396,37.259-36.251,37.259c-24.864,0-35.784-44.011-35.784-44.011s-20.597,0.004-37.597,7.623
				C78.561,210.235,68.255,241.53,68.255,241.53"/>
			<path fill="none" stroke="#52586D" stroke-miterlimit="10" d="M68.255,241.53c-0.079,0.304-4.227,12.363-1.74,12.889
				c8.379,1.777,33.632,2.908,34.392,6.379c0,0,1.631,21.881,12.734,46.04c0,0,5.553,62.699-19.269,87.19
				c0,0,20.902,25.856,81.312,20.274c60.411-5.583,64.007-14.071,65.962-19.951c0,0-21.88-19.128-29.393-51.032
				c-7.507-31.908,16.655-45.949,15.676-59.989c-0.173-2.514-0.403-4.755-0.658-6.741c0.846,0,19.28-2.424,25.202-2.262
				c6.858,1.956-0.703-64.145-30.746-62.183l-18.451-9.54c0,0-11.396,37.259-36.251,37.259c-24.864,0-35.784-44.011-35.784-44.011
				s-20.597,0.004-37.597,7.623C78.561,210.235,68.255,241.53,68.255,241.53z"/>
			<path fill="#4C3617" d="M39.409,448.484c0,0-0.722,4.107,5.127,5.99c5.847,1.889,8.732,0.181,10.601-3.992
				c0,0,2.253-4.139,2.979-6.18c0.766,0.118-0.29,6.799-0.64,8.698c-0.608,3.272-4.517,9.804-10.093,8.421
				c-5.581-1.379-9.507-7.334-9.507-7.334S35.951,449.689,39.409,448.484"/>
			<path fill="none" stroke="#231F20" stroke-linecap="round" stroke-linejoin="round" stroke-miterlimit="10" d="M62.429,806.493
				c0,0,9.461,6.925,14.358,7.431c4.893,0.508-12.669,0.678-15.202,0c-2.529-0.678,14.356,6.18,15.202,8.331
				c0.841,2.142-13.473-0.245-17.209-1.163c-3.736-0.916,16.024,7.021,19.566,12.592c0,0-17.495-7.802-21.833-6.774
				c0,0,17.443,10.009,19.643,16.584c0,0-18.458-11.159-22.823-10.483c0,0,14.378,10.978,14.55,14.521c0,0-17.06-9.287-20.608-8.271
				c0,0,14.021,13.216,14.529,16.992c0.499,3.781-17.732-10.744-22.97-10.07c0,0,14.474,10.47,14.499,13.852
				c0,0-16.863-6.927-20.578-8.109c0,0,14.184,12.161,13.846,15.196c-0.34,3.044-11.313-13.169-24.823-9.623
				c0,0,15.707,8.075,17.393,13.751c1.688,5.672-11.821-13.1-25.331-9.204"/>
			<path fill="none" stroke="#231F20" stroke-linecap="round" stroke-linejoin="round" stroke-miterlimit="10" d="M208.886,822.255
				c-0.728-0.491-20.942-7.062-30.56,6.085c0,0,20.547-0.266,26.95,3.579c0,0-25.853-0.413-29.629,7.624
				c0,0,38.276-3.602,32.757-2.68c-0.736,0.121-22.774,2.557-27.154,10.717c0,0,23.374-8.037,28.608-5.848
				c0,0-26.903,7.793-29.097,15.222c0,0,28.124-11.201,32.629-8.89c0,0-23.252,6.088-24.836,13.272c0,0,21.304-11.201,26.299-9.864
				c4.991,1.34,0-0.729,0-0.729s-22.285,12.422-21.554,18.261c0,0,18.146-13.754,28.616-13.27"/>
			<path fill="none" stroke="#231F20" stroke-linecap="round" stroke-linejoin="round" stroke-miterlimit="10" d="M226.677,860.215
				c-0.499,0.39-17.549,10.011-18.765,22.67"/>
			<path d="M222.641,254.833l22.597-2.78l0.691,4.975l-23.288,3.174C222.641,260.202,219.705,255.199,222.641,254.833"/>
			<path fill="none" stroke="#52586D" stroke-linecap="round" stroke-linejoin="round" stroke-miterlimit="10" d="M221.709,243.821
				c0,0-1.453,8.583,0.479,15.353c0.484,1.688,4.337,10.186,5.082,17.415"/>
			<path fill="#603913" d="M104.239,80.492c0-0.029-0.937,7.328-1.25,12.873c-0.31,5.475,0.038,9.137,0.038,9.137
				s9.918-12.44,10.209-13.829c0.294-1.386,7.531-6.619,9.191-7.183c1.661-0.557,4.89-1.534,6.16-4.227
				c1.27-2.689,1.601-6.8,0.994-6.995c-0.605-0.196-15.662,0.401-15.662,0.401l-6.841,7.658L104.239,80.492z"/>
			<path fill="#383133" d="M88.982,802.257c0,0,1.161,9.165,0,13.167c-1.169,3.996-4.669,10.829-3.002,14.498
				c1.668,3.659,2.707,6.161,3.518,10.496c0.814,4.33,2.299,7.156,4.224,10.325c1.921,3.17,3.313,7.927,3.32,10.9
				c0.005,2.973,2.95-0.931,1.613-7.369c-0.95-4.601-4.909-10.023-6.169-10.938c-0.469-3.244-2.117-12.771-2.286-15.604
				c-0.167-2.836,5.262-17.532,6.046-20.606C97.036,804.053,89.313,797.258,88.982,802.257"/>
			<path fill="#1C1C1C" d="M173.062,811.125c-2.47-14.297-4.516-14.297,0.204-29.098c4.724-14.791,12.615-28.604,8.179-36.5
				c-4.437-7.882-11.342-19.239-8.879-27.124c2.466-7.887,6.411-27.121,6.411-32.542c0-5.433-4.932-20.593-5.424-32.736
				c-0.491-12.146,2.826-42.695-1.975-53.573c0,0,2.99-41.378,3.219-55.704c0.234-14.326-1.222-29.219,0-34.596
				c1.219-5.375,4.18-13.484,4.18-13.484s-2.955-4.707-1.72-6.088c0.934-1.044,5.613,1.063,8.136,1.422
				c-6.707-4.223-9.367-10.307-12.138-11.672c-1.53,1.006-10.107,6.293-12.923,7.129c0,0,7.902,7.976,6.613,14.123
				c-1.283,6.15-14.434,32.834-13.283,43.166c1.15,10.33-1.3,21.93-3.284,32.406c-1.976,10.477-11.592,20.337-12.702,31.682
				c-1.115,11.345-18.803,22.193-14.15,39.453c4.652,17.262,10.713,25.156,7.19,32.551c-3.521,7.398-10.47,12.329-11.683,20.219
				c0,0-21.014,43.894-18.51,58.691c2.504,14.794,2.427,21.205,0,27.123s-6.014,15.421-5.742,18.248
				c0.092,0.947,3.61,1.258,8.255,1.043c0.443-0.158,0.89-0.322,1.335-0.497c7.615-2.938,5.375-6.457,7.162-12.729
				c1.797-6.267,0-15.221,0-21.768s7.163-20.765,7.163-20.765c1.793-6.715,2.244-15.221,4.034-26.416
				c1.789-11.195,12.091-20.6,14.326-23.729c2.24-3.135,0-11.196,0-14.774c0-3.582,5.375-15.227,5.375-19.699
				c0-4.478-0.896-15.673-2.244-21.95c-1.339-6.274,8.063-15.213,9.856-19.69c1.788-4.48,2.235-13.432,1.872-20.6
				c-0.353-7.162,5.289-18.805,7.08-27.313c1.794-8.5,0.895-21.486,3.295-28.457c2.4-6.975,5.656-37.625,5.656-37.625
				s3.14,12.805,3.14,17.505c0,4.702-4.036,30.672-4.036,40.522c0,9.848-1.339,83.276-1.339,83.276
				c0.447,4.478-2.237,23.731-0.897,34.924c1.345,11.192-9.847,42.979-8.023,52.386c1.824,9.401,10.26,10.296,12.947,14.776
				c2.691,4.473-6.264,15.663-10.742,25.229c-4.477,9.568-0.896,8.795,0,15.515c0.895,6.712,0.895,17.458,4.922,23.56
				c0.781,1.178,2.013,2.041,3.487,2.676C171.328,819.231,174.06,816.921,173.062,811.125"/>
			<path fill="#1C1C1C" d="M64.842,701.462c1.481-0.093,17.398-1.595,21.601-12.104c0,0,3.301-8.707-3.6-2.402
				c-6.909,6.305-17.415,9.588-17.415,9.588L64.842,701.462z"/>
			<path fill="#1C1C1C" d="M79.145,778.828c0,0-14.967,4.586-19.445-1.763l0.889-2.093l1.981-4.702
				C62.569,770.271,68.85,777.027,79.145,778.828"/>
			<path fill="#1C1C1C" d="M56.396,789.652c-0.184,0.304-3.697,8.24,2.422,10.059c6.122,1.818,10.115,2.481,11.695,1.695
				c1.576-0.786,4.241-2.847,5.933-3.754c1.702-0.91,3.763-2.063,5.642-0.608c1.882,1.456,5.029,1.157,7.028,2.366
				c2,1.21,4.91,2.605,6.969,2.543c2.061-0.057,4.119,1.149,4.119,1.334c0,0.181-1.322,4-4.663,3.877
				c-3.344-0.117-10.689-2.317-11.799-3.49l-1.11-1.177c0,0-4.671,2.203-9.7,3.012c-5.022,0.804-9.949-1.306-11.446-1.497
				c-1.495-0.183-6.292-1.624-6.292-1.624s-1.586-2.38-0.887-5.286C54.999,794.194,56.396,789.652,56.396,789.652"/>
			<path fill="#1C1C1C" d="M166.359,819.621c0,0,12.449,3.179,16.648,1.172c0,0,8.524,3.151,16.16-1.479
				c5.962-3.61,7.723-8.684,8.083-9.404c0.356-0.73,4.95-11.534,4.95-11.534s-6.514,11.593-16.902,15.698
				c-10.387,4.109-12.803,2.298-16.302,1.573c-3.506-0.727-9.665-0.36-10.63-0.966C167.403,814.074,164.229,817.676,166.359,819.621
				"/>
			<path fill="#1C1C1C" d="M242.795,659.767c0,0-3.9,15.103-7.155,17.487c-3.257,2.379-15.142,5.552-15.142,5.552
				s11.146-5.677,13.039-8.622C235.433,671.24,242.52,663.155,242.795,659.767"/>
			<path fill="#231F20" d="M74.844,868.062c0,0,13.424-0.16,17.17-2.438c3.741-2.277,7.17-6.049,7.255-6.645
				c0.086-0.596-1.772,8.088-6.552,10.214c-4.773,2.128-12.943,1.461-13.983,1.107c-1.046-0.362-3.186,0.235-4.58,2.023
				c-1.393,1.788-5.935,7.552-8.663,9.514c-2.724,1.968-8.957,5.516-15.76,5.944c-4.729,0.301-18.555,0.436-19.891,0.318
				c-1.326-0.113,0.166-1.971-0.565-3.517c0,0,11.696,1.546,20.456-1.302c8.756-2.848,15.429-5.125,18.767-8.545
				C71.83,871.32,74.844,868.062,74.844,868.062"/>
			<path fill="#231F20" d="M161.406,856.543c0,0,0.703,4.853,2.455,6.598c1.75,1.749,5.452,4.66,6.821,4.756
				c1.37,0.1,7.959,2.365,9.169,3.655c1.213,1.29,5.072,4.695,6.543,6.037c1.481,1.348,5.957,4.832,7.957,5.858
				c2.004,1.025,5.529,2.635,7.789,3.152c2.265,0.514,4.081,0.814,4.764,0.881c0.686,0.065-2.557-1.789-4.156-3.032
				c-1.604-1.241-10.693-4.586-14.658-9.092c-3.963-4.507-5.359-4.698-9.399-6.353c-4.046-1.652-9.255-3.982-11.659-6.861
				c-2.409-2.869-4.682-7.351-4.977-9.711C161.767,850.071,161.216,855.294,161.406,856.543"/>
			<path fill="#7F532E" d="M126.971,35.269c0,0-0.006,13.772-2.817,19.894c-2.815,6.117-4.988,8.513-10.692,15.207
				c-5.699,6.689-9.052,20.667-9.052,20.667c-0.386-8.891,5.783-25.637,10.541-32.011C119.704,52.653,126.971,35.269,126.971,35.269
				"/>
			<path fill="#7F532E" d="M162.238,28.454c0,0-7.778,2.507-10.288,9.389c-2.509,6.884,0,0,0,0s4.153-5.45,10.622-3.165
				c6.471,2.284,11.838,5.738,13.591,4.381c1.76-1.356-2.286,4.188-1.745,7.886c0,0,2.814-5.846,7.965-6.433
				c0,0,9.964,34.319,34.006,43.311c0,0-28.816-23.059-28.182-40.531c0.067-1.895,11.04-11.714,20.161-5.878
				c0,0-15.415-14.14-20.161-10.813c-4.739,3.332-8.42,6.202-13.237,4.207C170.156,28.825,162.238,28.454,162.238,28.454"/>
			<path fill="#7F532E" d="M232.12,132.854c-0.243-1.232-1.48,28.018-18.866,39.484c0,0,15.537-2.899,18.866-14.765
				C235.443,145.708,233.228,138.496,232.12,132.854"/>
			<polygon fill="#D39C76" points="199.818,199.799 201.723,204.795 202.771,201.911 			"/>
			<path fill="#603913" d="M196.085,194.265c0,0.305,13.646,16.139,23.521,17.558c12.14,1.741,11.712,9.466,9.988,11.125
				c-1.73,1.667,4.067,1.36,5.645-1.129c1.581-2.481,1.056-11.44-1.808-13.475c-2.86-2.031-7.248-7.151-12.249-8.54
				c-4.989-1.396-8.457-6.292-9.807-6.517C210.019,193.064,196.085,194.265,196.085,194.265"/>
			<path fill="none" stroke="#3C2415" stroke-miterlimit="10" d="M196.085,194.265c0,0.305,13.646,16.139,23.521,17.558
				c12.14,1.741,11.712,9.466,9.988,11.125c-1.73,1.667,4.067,1.36,5.645-1.129c1.581-2.481,1.056-11.44-1.808-13.475
				c-2.86-2.031-7.248-7.151-12.249-8.54c-4.989-1.396-8.457-6.292-9.807-6.517C210.019,193.064,196.085,194.265,196.085,194.265z"
				/>
			<path fill="#3C2415" d="M195.521,166.205c0,0,16.646,6.204,18.863,12.719c2.221,6.518-4.857,11.471,0.833,15.168
				s26.063,12.242,26.773,26.28c1.252,8.86-7.893,13.325-7.893,13.325l-7.029-2.612c0,0,2.709-0.711,3.067-1.103
				c-5.503,0.139-10.53-3.505-10.53-3.505s12.995-0.355,14.586-8.372c0.172-1.038-0.196-3.691-1.992-6.366
				c-1.541-2.294-4.378-4.643-6.027-5.581c-8.272-4.718-21.862-8.188-30.685-11.03c-8.83-2.847-4.705-12.02-4.705-12.02
				l-0.269-3.324l-0.541-11.167L195.521,166.205z"/>
			<path fill="#603913" d="M235.885,231.697c0,0,6.733-5.728,4.777-13.439c-1.949-7.715-9.121-13.442-18.021-16.527
				c0,0,12.812,6.39,13.463,14.986c0.651,8.59-11.508,10.574-11.508,10.574l6.08,1.32c0,0,6.516-3.303,6.949-9.256
				c0,0,1.519,7.055-6.301,11.681L235.885,231.697z"/>
			<g>
				<defs>
					<path id="SVGID_7_" d="M199.994,173.42c0.818,6.22,2.603,11.829,6.385,16.889c3.988,5.339,8.992,9.183,14.53,12.721
						c4.46,2.855,10.546,5.905,12.647,11.156c3.495,8.756-7.436,11.896-13.852,11.913c-0.198,0-0.258,0.27-0.096,0.372
						c1.389,0.9,2.785,2.081,4.331,2.655c1.66,0.611,3.548,0.804,5.35,0.93l-2.463,0.687c-0.154,0.041-0.193,0.271-0.048,0.349
						c1.364,0.737,2.81,1.296,4.287,1.769c0.914,0.291,2.068,0.812,3.031,0.836c1.729,0.044,4.1-2.36,5.205-3.625
						c6.493-7.475,1.662-18.167-4.877-23.697c-9.715-8.208-26.94-12.497-28.613-27.446c-0.006-0.072-0.119-0.072-0.111,0
						c0.695,6.725,5.285,12.049,10.475,15.898c9.423,6.999,24.596,11.682,25.814,25.545c0.225,2.52-0.214,5.085-1.434,7.309
						c-0.684,1.24-1.588,2.351-2.63,3.288c-0.783,0.698-2.458,2.288-3.534,2.422c-0.678,0.082-1.794-0.453-2.429-0.645
						c-1.435-0.424-2.779-1.136-4.193-1.566c-0.489-0.151-1.077-0.016-0.392-0.191c0.448-0.115,0.893-0.249,1.34-0.373
						c0.597-0.162,1.196-0.327,1.793-0.49c0.219-0.062,0.157-0.371-0.058-0.386c-2.102-0.134-4.411-0.258-6.402-1.001
						c-1.317-0.495-2.524-1.439-3.703-2.255c2.936-0.077,6.001-0.646,8.68-1.814c3.8-1.661,6.329-5.013,5.31-9.353
						c-1.209-5.114-6.506-8.313-10.561-10.927c-6.149-3.974-12.028-7.811-16.615-13.697c-4.03-5.18-5.853-10.892-6.83-17.318
						c-0.01-0.088-0.084-0.121-0.158-0.121C200.076,173.252,199.979,173.312,199.994,173.42"/>
				</defs>
				<clipPath id="SVGID_8_">
					<use xlink:href="#SVGID_7_"  overflow="visible"/>
				</clipPath>
				
					<linearGradient id="SVGID_9_" gradientUnits="userSpaceOnUse" x1="-1472.1201" y1="1298.752" x2="-1470.9158" y2="1298.752" gradientTransform="matrix(0 69.8422 -69.8422 0 90930.6172 103007.0469)">
					<stop  offset="0" style="stop-color:#180403"/>
					<stop  offset="0.0159" style="stop-color:#180403"/>
					<stop  offset="0.508" style="stop-color:#401611"/>
					<stop  offset="1" style="stop-color:#63261D"/>
				</linearGradient>
				<rect x="199.979" y="173.252" clip-path="url(#SVGID_8_)" fill="url(#SVGID_9_)" width="45.817" height="60.489"/>
			</g>
			<path fill="#E78277" d="M189.107,185.316c0,0,12.755-9.351,24.797-6.452c0,0,6.051,3.687,3.342,8.421
				c0,0-22.034-0.674-22.965,8.118C194.281,195.403,186.15,193.662,189.107,185.316"/>
			<path fill="none" stroke="#BA645D" stroke-miterlimit="10" d="M189.107,185.316c0,0,12.755-9.351,24.797-6.452
				c0,0,6.051,3.687,3.342,8.421c0,0-22.034-0.674-22.965,8.118C194.281,195.403,186.15,193.662,189.107,185.316z"/>
			<path fill="#FFC691" d="M155.638,184.451c0.181,0.059-6.914-0.602-6.914-0.602l0.985-19.442l4.429,2.824
				c0,0,7.682,11.022,7.501,11.119C161.458,178.449,155.638,184.451,155.638,184.451"/>
			<line fill="#FFC691" x1="149.719" y1="163.62" x2="148.729" y2="185.01"/>
			<line fill="none" stroke="#F1B486" stroke-miterlimit="10" x1="149.719" y1="163.62" x2="148.729" y2="185.01"/>
			<path fill="#603913" d="M105.283,139.226c0,0,9.363,0.334,16.7,6.402c7.338,6.063,15.088,25.032,22.292,21.431
				c0,0-1.318,6.091-16.721-7.476C112.154,146.016,115.574,141.439,105.283,139.226"/>
			<path fill="#2D304F" d="M253.036,274.454c0,0,0.334,2.427,1.555,3.871c1.218,1.442-9.201,0.997-12.97,1.22
				c-3.771,0.222-12.268,1.567-12.928,1.848c-0.554-0.561-0.356-3.283-0.856-4.228C227.613,276.69,248.936,273.142,253.036,274.454"
				/>
			<path fill="none" stroke="#272A3F" stroke-width="1.228" stroke-linejoin="round" d="M182.999,265.145
				c0.009-0.201,0.02-0.402,0.031-0.603c0,0,0.208,0.046,0.587,0.121"/>
			<path fill="none" stroke="#272A3F" stroke-width="1.228" stroke-linejoin="round" stroke-dasharray="1.002,1.002" d="
				M184.797,264.89c5.059,0.942,19.783,3.265,28.081,0.122"/>
			<path fill="none" stroke="#272A3F" stroke-width="1.228" stroke-linejoin="round" d="M213.438,264.792
				c0.187-0.08,0.368-0.162,0.549-0.25c0.169,0.083,0.332,0.198,0.488,0.343"/>
			<path fill="none" stroke="#272A3F" stroke-width="1.228" stroke-linejoin="round" stroke-dasharray="0.986,0.986" d="
				M215.176,265.838c3.311,6.122,1.356,29.59-14.303,30.569c-16.9,1.053-18.843-12.916-17.904-30.664"/>
			<polygon fill-rule="evenodd" clip-rule="evenodd" fill="#FFFFFF" points="192.741,279.068 199.072,279.068 195.356,285.533 
				194.567,284.795 196.937,280.688 196.993,280.571 197.023,280.46 197.014,280.332 196.969,280.26 196.915,280.2 196.789,280.141 
				196.624,280.107 192.741,280.107 			"/>
			<path fill-rule="evenodd" clip-rule="evenodd" fill="#FFFFFF" d="M199.668,273.102c0.817,0,1.482,0.669,1.482,1.489
				c0,0.822-0.665,1.493-1.482,1.493c-0.813,0-1.479-0.671-1.479-1.493C198.188,273.771,198.855,273.102,199.668,273.102"/>
			<polygon fill-rule="evenodd" clip-rule="evenodd" fill="#FFFFFF" points="199.637,280.156 196.146,286.085 197.072,286.546 
				199.358,282.686 199.427,282.596 199.525,282.547 199.656,282.524 199.801,282.547 199.885,282.608 199.953,282.686 
				202.255,286.546 203.204,286.052 			"/>
			<polygon fill-rule="evenodd" clip-rule="evenodd" fill="#FFFFFF" points="200.169,279.056 206.575,279.056 206.575,280.083 
				202.657,280.083 202.537,280.121 202.424,280.174 202.332,280.277 202.287,280.401 202.287,280.507 202.319,280.626 
				204.738,284.781 203.977,285.503 			"/>
			<path fill-rule="evenodd" clip-rule="evenodd" fill="#FFFFFF" d="M194.269,277.915v0.004c-0.005,0.027-0.007,0.041-0.007,0.055
				c0,0.074,0.043,0.133,0.134,0.174c0.091,0.033,0.221,0.051,0.407,0.051c0.138,0,0.249-0.012,0.328-0.042
				c0.076-0.032,0.12-0.076,0.12-0.127c0-0.082-0.154-0.151-0.47-0.201c-0.039-0.005-0.064-0.01-0.082-0.016
				c-0.024,0-0.052-0.007-0.088-0.016c-0.503-0.082-0.822-0.167-0.964-0.26c-0.07-0.049-0.122-0.101-0.157-0.165
				c-0.035-0.064-0.055-0.135-0.055-0.216c0-0.196,0.119-0.345,0.35-0.447c0.231-0.097,0.562-0.148,1.003-0.148
				c0.435,0,0.759,0.046,0.965,0.142c0.211,0.095,0.316,0.241,0.316,0.438v0.025h-0.822v-0.01c0-0.068-0.045-0.118-0.129-0.153
				c-0.081-0.038-0.205-0.054-0.365-0.054c-0.126,0-0.225,0.011-0.29,0.036c-0.067,0.026-0.102,0.062-0.102,0.106
				c0,0.085,0.178,0.154,0.541,0.214c0.069,0.009,0.124,0.02,0.159,0.025c0.262,0.041,0.445,0.081,0.552,0.111
				c0.109,0.033,0.199,0.061,0.278,0.105c0.089,0.046,0.158,0.108,0.203,0.183c0.051,0.074,0.075,0.151,0.075,0.243
				c0,0.201-0.127,0.355-0.376,0.461c-0.247,0.11-0.61,0.164-1.075,0.164c-0.463,0-0.799-0.054-1.001-0.157
				c-0.215-0.102-0.314-0.27-0.314-0.5v-0.028H194.269z M196.531,278.566v-1.977h2.354v0.429h-1.469v0.314h1.354v0.417h-1.354v0.385
				h1.525v0.432H196.531z M199.306,278.566v-1.977h1.12l1.195,1.329v-1.329h0.852v1.977h-1.159l-1.159-1.329v1.329H199.306z
				 M204.758,277.781l-0.427-0.722l-0.447,0.722H204.758z M203.408,278.566h-0.883l1.367-1.977h0.982l1.301,1.977h-0.987
				l-0.196-0.355h-1.37L203.408,278.566z"/>
			<path fill="#808285" d="M245.179,230.394c-0.449-0.742-7.374,1.413-6.688,3.303c0.687,1.897,5.486,13.383,6.688,23.332
				c1.2,9.943,0,11.484,3.083,10.8c3.088-0.686,5.806-1.544,5.806-1.544s-0.237-7.081-2.034-15.999
				C250.718,243.726,248.521,235.962,245.179,230.394"/>
			<path fill="#FFFFFF" d="M241.023,235.251c0,0,4.303,10.358,5.23,17.322c0.927,6.971,1.547,13.994,1.547,13.994
				s-0.247,0.498,1.051,0c1.292-0.494,5.156-1.479,5.156-1.479s-1.093-11.427-2.299-16.372c-1.363-7.379-4.541-14.719-5.455-16.376
				c-0.906-1.657-5.606,1.989-5.606,1.989S240.59,234.885,241.023,235.251"/>
			<path fill="#414042" d="M242.815,236.134l0.54,1.515c0,0,3.241-1.491,3.971-1.381l-0.746-1.646L242.815,236.134z"/>
			<path fill="#414042" d="M244.093,239.601l0.441,1.45c0,0,1.815-0.577,2.422-0.726l-0.702-1.43L244.093,239.601z"/>
			<path fill="#414042" d="M245.525,243.504l0.729,2.221c0,0,4.439-0.879,4.368-1.211c-0.036-0.17-0.771-2.355-0.771-2.355
				L245.525,243.504z"/>
			<polygon fill="#414042" points="248.332,256.555 248.635,258.646 253.238,258.165 252.975,256.129 			"/>
			<path fill="#414042" d="M249.213,262.144l0.234,2.084l4.474-0.706l-0.296-2.052C253.625,261.471,249.213,262.311,249.213,262.144
				"/>
			<path fill="none" stroke="#050A0C" stroke-miterlimit="10" d="M91.689,469.033c0,0,25.221-0.964,33.088-32.272"/>
			<path fill="none" stroke="#1C1C1C" stroke-miterlimit="10" d="M251.074,464.234c0,0-25.188-1.594-32.259-33.096"/>
			<g>
				<path fill="#052F3F" d="M68.164,254.997c0,0-0.33,2.423-1.551,3.866s9.203,0.995,12.973,1.219
					c3.766,0.225,22.001,3.681,22.658,3.953c0.557-0.554,0.361-3.278,0.855-4.221C103.324,259.337,72.266,253.679,68.164,254.997z"
					/>
				<path fill="#052F3F" d="M100.465,258.713c5.462,40.363,8.277,30.495,13.176,48.125c1.609,5.787,1.438,13.64,1.177,20.473
					c-0.529,13.999-3.064,26.18-2.831,24.756c0.217-1.306,2.588-18.4,13.75-30.263c6.86-7.287,18.848-10.244,30.328-13.315
					c-15.434,4.914-39.16,0.312-40.465-5.388c-17.976-38.559-3.918-61.455-3.918-61.455c-3.265,1.744-9.47,13.115-9.47,13.115
					L100.465,258.713z"/>
				<path fill="#052F3F" d="M221.625,298.232c0,0-4.669,5.611-12.912,7.905c-6.291,1.749-14.913,0.483-18.203,0.022
					c0,0,8.036,2.378,9.615,11.459c1.577,9.073,12.77,52.645,16.365,59.041c3.599,6.396,13.193,27.296,13.193,27.296
					s4.533-1.91,6.924-3.624c2.752-1.741,4.334-5.769,4.334-5.769s-19.799-16.831-28.688-51.244
					c-2.938-11.381-1.853-15.135-0.479-21.353C213.605,313.683,219.271,302.029,221.625,298.232"/>
				<path fill="#052F3F" d="M202.888,206.169c0,0,5.726,6.76,10.366,7.426c4.642,0.66,14.287,1.432,15.053,5.23
					c0.027,1.983-1.634,3.229-1.799,4.856c-2.12,1.592-5.629,2.137-5.629,2.137s1.32,1.01,1.762,1.01
					c0.44,0,9.116,2.355,10.587-1.324c1.467-3.68-0.036-10.426-1.396-11.776c-1.362-1.35-5.686-7.798-7.493-8.05
					c-1.809-0.246-9.087-1.623-9.971-2.205c-0.888-0.58-5.851-2.231-5.851-2.231s-4.253,0.917-4.418,1.34
					C203.93,203.003,202.888,206.169,202.888,206.169"/>
				<path fill="#052F3F" d="M253.036,274.454c0,0,0.334,2.427,1.555,3.871c1.218,1.442-9.201,0.997-12.97,1.22
					c-3.771,0.222-12.268,1.567-12.928,1.848c-0.554-0.561-0.356-3.283-0.856-4.228C227.613,276.69,248.936,273.142,253.036,274.454
					z"/>
				<path fill="#052F3F" d="M72.967,240.366c0.433-0.284,9.004-25.431,16.418-29.936c7.413-4.506,22.963-10.289,30.812-11.1
					c7.849-0.816,10.897-1.252,10.897-1.252l-0.934-2.205c0,0-28.565,2.271-37.866,8.925c-9.307,6.647-15.34,16.243-22.92,33.61
					C69.374,238.408,68.748,243.128,72.967,240.366"/>
			</g>
		</g>
	</g>
</g>
</svg>
