<?xml version="1.0" encoding="utf-8"?>
<!-- Generator: Adobe Illustrator 16.0.0, SVG Export Plug-In . SVG Version: 6.00 Build 0)  -->
<!DOCTYPE svg PUBLIC "-//W3C//DTD SVG 1.1//EN" "http://www.w3.org/Graphics/SVG/1.1/DTD/svg11.dtd">
<svg version="1.1" id="Capa_1" xmlns="http://www.w3.org/2000/svg" xmlns:xlink="http://www.w3.org/1999/xlink" x="0px" y="0px"
	 width="319.33px" height="45.646px" viewBox="0 0 319.33 45.646" enable-background="new 0 0 319.33 45.646" xml:space="preserve">
<g>
	<g>
		<polygon fill="#FCB63A" points="299.646,0 319.33,22.822 299.646,45.646 281.729,45.646 301.413,22.822 281.729,0 		"/>
		<polygon fill="#FCB63A" points="19.686,45.646 0,22.822 19.686,0 37.602,0 17.918,22.822 37.602,45.646 		"/>
		<polygon fill="#FFDF99" points="42.585,0 276.994,0 296.678,22.822 276.994,45.646 42.585,45.646 22.9,22.822 		"/>
		<g opacity="0.8">
			<path fill="#2D0F01" d="M46.922,7.901h2.305v7.25c0,0.947-0.083,1.677-0.25,2.188c-0.224,0.666-0.63,1.201-1.219,1.605
				c-0.589,0.403-1.364,0.605-2.328,0.605c-1.13,0-2-0.316-2.609-0.949s-0.917-1.562-0.922-2.785l2.18-0.25
				c0.026,0.656,0.122,1.119,0.289,1.391c0.25,0.411,0.63,0.617,1.141,0.617c0.516,0,0.88-0.147,1.094-0.441
				c0.214-0.295,0.32-0.905,0.32-1.832V7.901z"/>
			<path fill="#2D0F01" d="M51.164,15.089c0-0.729,0.18-1.436,0.539-2.117c0.359-0.683,0.868-1.203,1.527-1.563
				s1.395-0.539,2.207-0.539c1.255,0,2.284,0.407,3.086,1.223c0.802,0.814,1.203,1.845,1.203,3.09c0,1.255-0.405,2.295-1.215,3.121
				c-0.81,0.825-1.829,1.238-3.059,1.238c-0.761,0-1.485-0.172-2.176-0.516s-1.215-0.848-1.574-1.512S51.164,16.042,51.164,15.089z
				 M53.414,15.206c0,0.822,0.195,1.453,0.586,1.891s0.872,0.656,1.445,0.656s1.054-0.219,1.441-0.656s0.582-1.073,0.582-1.906
				c0-0.813-0.194-1.438-0.582-1.875s-0.868-0.656-1.441-0.656S54.391,12.878,54,13.315S53.414,14.383,53.414,15.206z"/>
			<path fill="#2D0F01" d="M61.352,19.354V7.901h2.195v4.125c0.677-0.771,1.479-1.156,2.406-1.156c1.011,0,1.847,0.365,2.508,1.098
				c0.661,0.731,0.992,1.782,0.992,3.152c0,1.416-0.337,2.508-1.012,3.273s-1.493,1.148-2.457,1.148
				c-0.474,0-0.941-0.119-1.402-0.355c-0.461-0.237-0.858-0.588-1.191-1.051v1.219H61.352z M63.531,15.026
				c0,0.859,0.136,1.494,0.406,1.906c0.38,0.583,0.886,0.875,1.516,0.875c0.484,0,0.897-0.207,1.238-0.621s0.512-1.066,0.512-1.957
				c0-0.948-0.172-1.632-0.516-2.051c-0.344-0.42-0.784-0.629-1.32-0.629c-0.526,0-0.964,0.204-1.313,0.613
				C63.706,13.571,63.531,14.192,63.531,15.026z"/>
			<path fill="#2D0F01" d="M74.891,16.987l2.203-0.336c0.094,0.427,0.284,0.751,0.57,0.973c0.286,0.221,0.688,0.332,1.203,0.332
				c0.567,0,0.995-0.104,1.281-0.313c0.192-0.146,0.289-0.342,0.289-0.586c0-0.167-0.052-0.305-0.156-0.414
				c-0.109-0.104-0.354-0.201-0.734-0.289c-1.771-0.391-2.894-0.748-3.367-1.07c-0.656-0.448-0.984-1.07-0.984-1.867
				c0-0.719,0.284-1.323,0.852-1.813c0.567-0.49,1.448-0.734,2.641-0.734c1.136,0,1.979,0.185,2.531,0.555
				c0.552,0.369,0.933,0.916,1.141,1.641l-2.07,0.383c-0.089-0.323-0.257-0.57-0.504-0.742s-0.601-0.258-1.059-0.258
				c-0.578,0-0.992,0.08-1.242,0.242c-0.167,0.114-0.25,0.263-0.25,0.445c0,0.156,0.073,0.289,0.219,0.398
				c0.198,0.146,0.882,0.352,2.051,0.617s1.985,0.591,2.449,0.977c0.458,0.391,0.688,0.935,0.688,1.633
				c0,0.76-0.317,1.414-0.953,1.961s-1.575,0.82-2.82,0.82c-1.13,0-2.024-0.229-2.684-0.688
				C75.524,18.396,75.094,17.773,74.891,16.987z"/>
			<path fill="#2D0F01" d="M89.367,16.714l2.188,0.367c-0.281,0.802-0.726,1.412-1.332,1.832c-0.606,0.419-1.366,0.629-2.277,0.629
				c-1.442,0-2.511-0.472-3.203-1.414c-0.547-0.756-0.82-1.709-0.82-2.859c0-1.375,0.359-2.452,1.078-3.23
				c0.719-0.779,1.628-1.168,2.727-1.168c1.234,0,2.208,0.407,2.922,1.223c0.714,0.814,1.055,2.063,1.023,3.746h-5.5
				c0.016,0.65,0.192,1.157,0.531,1.52c0.339,0.361,0.761,0.543,1.266,0.543c0.344,0,0.633-0.094,0.867-0.281
				S89.247,17.13,89.367,16.714z M89.492,14.495c-0.016-0.636-0.18-1.119-0.492-1.449c-0.313-0.331-0.692-0.496-1.141-0.496
				c-0.479,0-0.875,0.174-1.188,0.523c-0.313,0.349-0.466,0.822-0.461,1.422H89.492z"/>
			<path fill="#2D0F01" d="M95.102,13.589l-1.992-0.359c0.224-0.803,0.609-1.396,1.156-1.781c0.547-0.386,1.359-0.578,2.438-0.578
				c0.979,0,1.708,0.115,2.188,0.348c0.479,0.231,0.816,0.525,1.012,0.883c0.195,0.356,0.293,1.012,0.293,1.965l-0.023,2.563
				c0,0.729,0.035,1.267,0.105,1.613c0.07,0.346,0.202,0.717,0.395,1.113H98.5c-0.058-0.146-0.128-0.362-0.211-0.648
				c-0.036-0.131-0.063-0.217-0.078-0.258c-0.375,0.364-0.776,0.638-1.203,0.82c-0.427,0.182-0.883,0.273-1.367,0.273
				c-0.854,0-1.527-0.232-2.02-0.695c-0.492-0.464-0.738-1.05-0.738-1.758c0-0.469,0.112-0.887,0.336-1.254s0.538-0.648,0.941-0.844
				s0.985-0.366,1.746-0.512c1.026-0.193,1.737-0.373,2.133-0.539v-0.219c0-0.422-0.104-0.723-0.313-0.902s-0.602-0.27-1.18-0.27
				c-0.391,0-0.695,0.076-0.914,0.23C95.414,12.934,95.237,13.203,95.102,13.589z M98.039,15.37
				c-0.281,0.094-0.727,0.205-1.336,0.336c-0.609,0.13-1.008,0.258-1.195,0.383c-0.286,0.203-0.43,0.461-0.43,0.773
				c0,0.307,0.114,0.572,0.344,0.797c0.229,0.224,0.521,0.336,0.875,0.336c0.396,0,0.773-0.131,1.133-0.391
				c0.266-0.198,0.44-0.44,0.523-0.727c0.058-0.188,0.086-0.545,0.086-1.07V15.37z"/>
			<path fill="#2D0F01" d="M104.461,19.354h-2.195v-8.297h2.039v1.18c0.349-0.558,0.663-0.925,0.941-1.102
				c0.278-0.178,0.595-0.266,0.949-0.266c0.5,0,0.981,0.138,1.445,0.414l-0.68,1.914c-0.37-0.24-0.714-0.359-1.031-0.359
				c-0.308,0-0.567,0.084-0.781,0.254c-0.214,0.169-0.382,0.475-0.504,0.918c-0.122,0.442-0.184,1.369-0.184,2.781V19.354z"/>
			<path fill="#2D0F01" d="M115.82,13.511l-2.164,0.391c-0.073-0.433-0.238-0.758-0.496-0.977s-0.593-0.328-1.004-0.328
				c-0.547,0-0.983,0.188-1.309,0.566c-0.325,0.377-0.488,1.009-0.488,1.895c0,0.984,0.165,1.68,0.496,2.086
				s0.774,0.609,1.332,0.609c0.417,0,0.758-0.119,1.023-0.355c0.266-0.237,0.453-0.645,0.563-1.223l2.156,0.367
				c-0.224,0.989-0.653,1.736-1.289,2.242c-0.636,0.505-1.487,0.758-2.555,0.758c-1.214,0-2.181-0.383-2.902-1.148
				s-1.082-1.826-1.082-3.18c0-1.37,0.362-2.437,1.086-3.199c0.724-0.764,1.703-1.145,2.938-1.145c1.011,0,1.813,0.217,2.41,0.652
				C115.132,11.957,115.56,12.62,115.82,13.511z"/>
			<path fill="#2D0F01" d="M119.672,7.901v4.211c0.708-0.828,1.555-1.242,2.539-1.242c0.505,0,0.961,0.094,1.367,0.281
				s0.712,0.427,0.918,0.719c0.206,0.291,0.347,0.614,0.422,0.969c0.075,0.354,0.113,0.903,0.113,1.648v4.867h-2.195v-4.383
				c0-0.87-0.042-1.422-0.125-1.656s-0.23-0.421-0.441-0.559c-0.211-0.139-0.476-0.207-0.793-0.207c-0.364,0-0.69,0.088-0.977,0.266
				c-0.286,0.177-0.496,0.443-0.629,0.801c-0.133,0.356-0.199,0.884-0.199,1.582v4.156h-2.195V7.901H119.672z"/>
			<path fill="#2D0F01" d="M133.805,19.354h-2.195v-8.297h2.039v1.18c0.349-0.558,0.663-0.925,0.941-1.102
				c0.278-0.178,0.595-0.266,0.949-0.266c0.5,0,0.981,0.138,1.445,0.414l-0.68,1.914c-0.37-0.24-0.714-0.359-1.031-0.359
				c-0.308,0-0.567,0.084-0.781,0.254c-0.214,0.169-0.382,0.475-0.504,0.918c-0.122,0.442-0.184,1.369-0.184,2.781V19.354z"/>
			<path fill="#2D0F01" d="M142.734,16.714l2.188,0.367c-0.281,0.802-0.726,1.412-1.332,1.832c-0.606,0.419-1.366,0.629-2.277,0.629
				c-1.442,0-2.511-0.472-3.203-1.414c-0.547-0.756-0.82-1.709-0.82-2.859c0-1.375,0.359-2.452,1.078-3.23
				c0.719-0.779,1.628-1.168,2.727-1.168c1.234,0,2.208,0.407,2.922,1.223c0.714,0.814,1.055,2.063,1.023,3.746h-5.5
				c0.016,0.65,0.192,1.157,0.531,1.52c0.339,0.361,0.761,0.543,1.266,0.543c0.344,0,0.633-0.094,0.867-0.281
				S142.614,17.13,142.734,16.714z M142.859,14.495c-0.016-0.636-0.18-1.119-0.492-1.449c-0.313-0.331-0.692-0.496-1.141-0.496
				c-0.479,0-0.875,0.174-1.188,0.523c-0.313,0.349-0.466,0.822-0.461,1.422H142.859z"/>
			<path fill="#2D0F01" d="M146.828,19.354V7.901h2.195v11.453H146.828z"/>
			<path fill="#2D0F01" d="M152.914,13.589l-1.992-0.359c0.224-0.803,0.609-1.396,1.156-1.781c0.547-0.386,1.359-0.578,2.438-0.578
				c0.979,0,1.708,0.115,2.188,0.348c0.479,0.231,0.816,0.525,1.012,0.883c0.195,0.356,0.293,1.012,0.293,1.965l-0.023,2.563
				c0,0.729,0.035,1.267,0.105,1.613c0.07,0.346,0.202,0.717,0.395,1.113h-2.172c-0.058-0.146-0.128-0.362-0.211-0.648
				c-0.036-0.131-0.063-0.217-0.078-0.258c-0.375,0.364-0.776,0.638-1.203,0.82c-0.427,0.182-0.883,0.273-1.367,0.273
				c-0.854,0-1.527-0.232-2.02-0.695c-0.492-0.464-0.738-1.05-0.738-1.758c0-0.469,0.112-0.887,0.336-1.254s0.538-0.648,0.941-0.844
				s0.985-0.366,1.746-0.512c1.026-0.193,1.737-0.373,2.133-0.539v-0.219c0-0.422-0.104-0.723-0.313-0.902s-0.602-0.27-1.18-0.27
				c-0.391,0-0.695,0.076-0.914,0.23C153.227,12.934,153.05,13.203,152.914,13.589z M155.852,15.37
				c-0.281,0.094-0.727,0.205-1.336,0.336c-0.609,0.13-1.008,0.258-1.195,0.383c-0.286,0.203-0.43,0.461-0.43,0.773
				c0,0.307,0.114,0.572,0.344,0.797c0.229,0.224,0.521,0.336,0.875,0.336c0.396,0,0.773-0.131,1.133-0.391
				c0.266-0.198,0.44-0.44,0.523-0.727c0.058-0.188,0.086-0.545,0.086-1.07V15.37z"/>
			<path fill="#2D0F01" d="M163.977,11.058v1.75h-1.5v3.344c0,0.677,0.015,1.071,0.043,1.184c0.028,0.111,0.094,0.204,0.195,0.277
				c0.102,0.072,0.226,0.109,0.371,0.109c0.203,0,0.497-0.07,0.883-0.211l0.188,1.703c-0.511,0.219-1.089,0.328-1.734,0.328
				c-0.396,0-0.753-0.066-1.07-0.199s-0.551-0.305-0.699-0.516s-0.251-0.496-0.309-0.855c-0.047-0.256-0.07-0.771-0.07-1.547v-3.617
				h-1.008v-1.75h1.008V9.409l2.203-1.281v2.93H163.977z"/>
			<path fill="#2D0F01" d="M170.305,16.714l2.188,0.367c-0.281,0.802-0.726,1.412-1.332,1.832c-0.606,0.419-1.366,0.629-2.277,0.629
				c-1.442,0-2.511-0.472-3.203-1.414c-0.547-0.756-0.82-1.709-0.82-2.859c0-1.375,0.359-2.452,1.078-3.23
				c0.719-0.779,1.628-1.168,2.727-1.168c1.234,0,2.208,0.407,2.922,1.223c0.714,0.814,1.055,2.063,1.023,3.746h-5.5
				c0.016,0.65,0.192,1.157,0.531,1.52c0.339,0.361,0.761,0.543,1.266,0.543c0.344,0,0.633-0.094,0.867-0.281
				S170.185,17.13,170.305,16.714z M170.43,14.495c-0.016-0.636-0.18-1.119-0.492-1.449c-0.313-0.331-0.692-0.496-1.141-0.496
				c-0.479,0-0.875,0.174-1.188,0.523c-0.313,0.349-0.466,0.822-0.461,1.422H170.43z"/>
			<path fill="#2D0F01" d="M182.008,19.354h-2.039v-1.219c-0.339,0.474-0.738,0.826-1.199,1.059
				c-0.461,0.23-0.926,0.348-1.395,0.348c-0.953,0-1.77-0.385-2.449-1.152c-0.68-0.769-1.02-1.84-1.02-3.215
				c0-1.406,0.331-2.476,0.992-3.207c0.661-0.732,1.497-1.098,2.508-1.098c0.927,0,1.729,0.385,2.406,1.156V7.901h2.195V19.354z
				 M176.148,15.026c0,0.885,0.122,1.525,0.367,1.922c0.354,0.572,0.849,0.859,1.484,0.859c0.505,0,0.935-0.215,1.289-0.645
				s0.531-1.072,0.531-1.926c0-0.953-0.172-1.64-0.516-2.059c-0.344-0.42-0.784-0.629-1.32-0.629c-0.521,0-0.957,0.207-1.309,0.621
				S176.148,14.203,176.148,15.026z"/>
			<path fill="#2D0F01" d="M190.898,19.354l-3.344-8.297h2.305l1.563,4.234l0.453,1.414c0.12-0.359,0.195-0.597,0.227-0.711
				c0.073-0.234,0.151-0.469,0.234-0.703l1.578-4.234h2.258l-3.297,8.297H190.898z"/>
			<path fill="#2D0F01" d="M197.008,15.089c0-0.729,0.18-1.436,0.539-2.117c0.359-0.683,0.868-1.203,1.527-1.563
				s1.395-0.539,2.207-0.539c1.255,0,2.284,0.407,3.086,1.223c0.802,0.814,1.203,1.845,1.203,3.09c0,1.255-0.405,2.295-1.215,3.121
				c-0.81,0.825-1.829,1.238-3.059,1.238c-0.761,0-1.485-0.172-2.176-0.516s-1.215-0.848-1.574-1.512S197.008,16.042,197.008,15.089
				z M199.258,15.206c0,0.822,0.195,1.453,0.586,1.891s0.872,0.656,1.445,0.656s1.054-0.219,1.441-0.656s0.582-1.073,0.582-1.906
				c0-0.813-0.194-1.438-0.582-1.875s-0.868-0.656-1.441-0.656s-1.055,0.219-1.445,0.656S199.258,14.383,199.258,15.206z"/>
			<path fill="#2D0F01" d="M214.523,13.511l-2.164,0.391c-0.073-0.433-0.238-0.758-0.496-0.977s-0.593-0.328-1.004-0.328
				c-0.547,0-0.983,0.188-1.309,0.566c-0.325,0.377-0.488,1.009-0.488,1.895c0,0.984,0.165,1.68,0.496,2.086
				s0.774,0.609,1.332,0.609c0.417,0,0.758-0.119,1.023-0.355c0.266-0.237,0.453-0.645,0.563-1.223l2.156,0.367
				c-0.224,0.989-0.653,1.736-1.289,2.242c-0.636,0.505-1.487,0.758-2.555,0.758c-1.214,0-2.181-0.383-2.902-1.148
				s-1.082-1.826-1.082-3.18c0-1.37,0.362-2.437,1.086-3.199c0.724-0.764,1.703-1.145,2.938-1.145c1.011,0,1.813,0.217,2.41,0.652
				C213.835,11.957,214.263,12.62,214.523,13.511z"/>
			<path fill="#2D0F01" d="M217.828,13.589l-1.992-0.359c0.224-0.803,0.609-1.396,1.156-1.781c0.547-0.386,1.359-0.578,2.438-0.578
				c0.979,0,1.708,0.115,2.188,0.348c0.479,0.231,0.816,0.525,1.012,0.883c0.195,0.356,0.293,1.012,0.293,1.965l-0.023,2.563
				c0,0.729,0.035,1.267,0.105,1.613c0.07,0.346,0.202,0.717,0.395,1.113h-2.172c-0.058-0.146-0.128-0.362-0.211-0.648
				c-0.036-0.131-0.063-0.217-0.078-0.258c-0.375,0.364-0.776,0.638-1.203,0.82c-0.427,0.182-0.883,0.273-1.367,0.273
				c-0.854,0-1.527-0.232-2.02-0.695c-0.492-0.464-0.738-1.05-0.738-1.758c0-0.469,0.112-0.887,0.336-1.254s0.538-0.648,0.941-0.844
				s0.985-0.366,1.746-0.512c1.026-0.193,1.737-0.373,2.133-0.539v-0.219c0-0.422-0.104-0.723-0.313-0.902s-0.602-0.27-1.18-0.27
				c-0.391,0-0.695,0.076-0.914,0.23C218.141,12.934,217.964,13.203,217.828,13.589z M220.766,15.37
				c-0.281,0.094-0.727,0.205-1.336,0.336c-0.609,0.13-1.008,0.258-1.195,0.383c-0.286,0.203-0.43,0.461-0.43,0.773
				c0,0.307,0.114,0.572,0.344,0.797c0.229,0.224,0.521,0.336,0.875,0.336c0.396,0,0.773-0.131,1.133-0.391
				c0.266-0.198,0.44-0.44,0.523-0.727c0.058-0.188,0.086-0.545,0.086-1.07V15.37z"/>
			<path fill="#2D0F01" d="M224.992,19.354V7.901h2.195v4.125c0.677-0.771,1.479-1.156,2.406-1.156c1.011,0,1.847,0.365,2.508,1.098
				c0.661,0.731,0.992,1.782,0.992,3.152c0,1.416-0.337,2.508-1.012,3.273s-1.493,1.148-2.457,1.148
				c-0.474,0-0.941-0.119-1.402-0.355c-0.461-0.237-0.858-0.588-1.191-1.051v1.219H224.992z M227.172,15.026
				c0,0.859,0.136,1.494,0.406,1.906c0.38,0.583,0.886,0.875,1.516,0.875c0.484,0,0.897-0.207,1.238-0.621s0.512-1.066,0.512-1.957
				c0-0.948-0.172-1.632-0.516-2.051c-0.344-0.42-0.784-0.629-1.32-0.629c-0.526,0-0.964,0.204-1.313,0.613
				C227.347,13.571,227.172,14.192,227.172,15.026z"/>
			<path fill="#2D0F01" d="M240.32,19.354v-1.242c-0.302,0.442-0.699,0.791-1.191,1.047c-0.492,0.254-1.012,0.383-1.559,0.383
				c-0.558,0-1.058-0.123-1.5-0.367c-0.442-0.245-0.763-0.589-0.961-1.031c-0.198-0.443-0.297-1.055-0.297-1.836v-5.25h2.195v3.813
				c0,1.166,0.04,1.881,0.121,2.145c0.081,0.263,0.228,0.471,0.441,0.625c0.214,0.153,0.484,0.23,0.813,0.23
				c0.375,0,0.711-0.104,1.008-0.309c0.297-0.206,0.5-0.461,0.609-0.766s0.164-1.051,0.164-2.238v-3.5h2.195v8.297H240.32z"/>
			<path fill="#2D0F01" d="M244.633,19.354V7.901h2.195v11.453H244.633z"/>
			<path fill="#2D0F01" d="M250.719,13.589l-1.992-0.359c0.224-0.803,0.609-1.396,1.156-1.781c0.547-0.386,1.359-0.578,2.438-0.578
				c0.979,0,1.708,0.115,2.188,0.348c0.479,0.231,0.816,0.525,1.012,0.883c0.195,0.356,0.293,1.012,0.293,1.965l-0.023,2.563
				c0,0.729,0.035,1.267,0.105,1.613c0.07,0.346,0.202,0.717,0.395,1.113h-2.172c-0.058-0.146-0.128-0.362-0.211-0.648
				c-0.036-0.131-0.063-0.217-0.078-0.258c-0.375,0.364-0.776,0.638-1.203,0.82c-0.427,0.182-0.883,0.273-1.367,0.273
				c-0.854,0-1.527-0.232-2.02-0.695c-0.492-0.464-0.738-1.05-0.738-1.758c0-0.469,0.112-0.887,0.336-1.254s0.538-0.648,0.941-0.844
				s0.985-0.366,1.746-0.512c1.026-0.193,1.737-0.373,2.133-0.539v-0.219c0-0.422-0.104-0.723-0.313-0.902s-0.602-0.27-1.18-0.27
				c-0.391,0-0.695,0.076-0.914,0.23C251.031,12.934,250.854,13.203,250.719,13.589z M253.656,15.37
				c-0.281,0.094-0.727,0.205-1.336,0.336c-0.609,0.13-1.008,0.258-1.195,0.383c-0.286,0.203-0.43,0.461-0.43,0.773
				c0,0.307,0.114,0.572,0.344,0.797c0.229,0.224,0.521,0.336,0.875,0.336c0.396,0,0.773-0.131,1.133-0.391
				c0.266-0.198,0.44-0.44,0.523-0.727c0.058-0.188,0.086-0.545,0.086-1.07V15.37z"/>
			<path fill="#2D0F01" d="M260.078,19.354h-2.195v-8.297h2.039v1.18c0.349-0.558,0.663-0.925,0.941-1.102
				c0.278-0.178,0.595-0.266,0.949-0.266c0.5,0,0.981,0.138,1.445,0.414l-0.68,1.914c-0.37-0.24-0.714-0.359-1.031-0.359
				c-0.308,0-0.567,0.084-0.781,0.254c-0.214,0.169-0.382,0.475-0.504,0.918c-0.122,0.442-0.184,1.369-0.184,2.781V19.354z"/>
			<path fill="#2D0F01" d="M263.164,11.058h2.336l1.984,5.891l1.938-5.891h2.273l-2.93,7.984l-0.523,1.445
				c-0.192,0.484-0.376,0.854-0.551,1.109c-0.175,0.254-0.375,0.461-0.602,0.621c-0.227,0.158-0.505,0.281-0.836,0.371
				c-0.331,0.088-0.704,0.133-1.121,0.133c-0.422,0-0.836-0.045-1.242-0.133l-0.195-1.719c0.344,0.066,0.653,0.102,0.93,0.102
				c0.511,0,0.888-0.15,1.133-0.449c0.245-0.301,0.433-0.682,0.563-1.145L263.164,11.058z"/>
			<path fill="#2D0F01" d="M98.664,32.788l-1.992-0.359c0.224-0.801,0.609-1.395,1.156-1.781c0.547-0.385,1.359-0.578,2.438-0.578
				c0.979,0,1.708,0.117,2.188,0.348c0.479,0.232,0.816,0.527,1.012,0.883c0.195,0.357,0.293,1.012,0.293,1.965l-0.023,2.563
				c0,0.73,0.035,1.268,0.105,1.613c0.07,0.348,0.202,0.719,0.395,1.113h-2.172c-0.058-0.145-0.128-0.361-0.211-0.648
				c-0.036-0.129-0.063-0.215-0.078-0.258c-0.375,0.365-0.776,0.639-1.203,0.82c-0.427,0.183-0.883,0.273-1.367,0.273
				c-0.854,0-1.527-0.23-2.02-0.695c-0.492-0.463-0.738-1.049-0.738-1.758c0-0.469,0.112-0.887,0.336-1.254s0.538-0.648,0.941-0.844
				s0.985-0.365,1.746-0.512c1.026-0.191,1.737-0.371,2.133-0.539v-0.219c0-0.422-0.104-0.723-0.313-0.902s-0.602-0.27-1.18-0.27
				c-0.391,0-0.695,0.078-0.914,0.23C98.977,32.134,98.8,32.403,98.664,32.788z M101.602,34.569
				c-0.281,0.094-0.727,0.207-1.336,0.336c-0.609,0.131-1.008,0.258-1.195,0.383c-0.286,0.203-0.43,0.461-0.43,0.773
				c0,0.309,0.114,0.574,0.344,0.797c0.229,0.225,0.521,0.336,0.875,0.336c0.396,0,0.773-0.129,1.133-0.391
				c0.266-0.197,0.44-0.439,0.523-0.727c0.058-0.188,0.086-0.543,0.086-1.07V34.569z"/>
			<path fill="#2D0F01" d="M113.469,38.554h-2.195v-4.234c0-0.895-0.047-1.475-0.141-1.738c-0.094-0.262-0.246-0.467-0.457-0.613
				c-0.211-0.145-0.465-0.219-0.762-0.219c-0.38,0-0.722,0.105-1.023,0.313c-0.302,0.209-0.509,0.484-0.621,0.828
				s-0.168,0.98-0.168,1.906v3.758h-2.195v-8.297h2.039v1.219c0.724-0.938,1.636-1.406,2.734-1.406c0.484,0,0.927,0.088,1.328,0.262
				c0.401,0.176,0.704,0.398,0.91,0.668c0.206,0.271,0.349,0.578,0.43,0.922s0.121,0.836,0.121,1.477V38.554z"/>
			<path fill="#2D0F01" d="M123.305,38.554h-2.039v-1.219c-0.339,0.475-0.738,0.828-1.199,1.059
				c-0.461,0.232-0.926,0.348-1.395,0.348c-0.953,0-1.77-0.383-2.449-1.152c-0.68-0.768-1.02-1.84-1.02-3.215
				c0-1.406,0.331-2.475,0.992-3.207c0.661-0.73,1.497-1.098,2.508-1.098c0.927,0,1.729,0.387,2.406,1.156v-4.125h2.195V38.554z
				 M117.445,34.226c0,0.887,0.122,1.527,0.367,1.922c0.354,0.574,0.849,0.859,1.484,0.859c0.505,0,0.935-0.215,1.289-0.645
				s0.531-1.07,0.531-1.926c0-0.953-0.172-1.639-0.516-2.059c-0.344-0.418-0.784-0.629-1.32-0.629c-0.521,0-0.957,0.207-1.309,0.621
				S117.445,33.403,117.445,34.226z"/>
			<path fill="#2D0F01" d="M134.719,35.913l2.188,0.367c-0.281,0.803-0.726,1.414-1.332,1.832c-0.606,0.42-1.366,0.629-2.277,0.629
				c-1.442,0-2.511-0.471-3.203-1.414c-0.547-0.754-0.82-1.707-0.82-2.859c0-1.375,0.359-2.451,1.078-3.23
				c0.719-0.777,1.628-1.168,2.727-1.168c1.234,0,2.208,0.408,2.922,1.223c0.714,0.816,1.055,2.064,1.023,3.746h-5.5
				c0.016,0.652,0.192,1.158,0.531,1.52c0.339,0.363,0.761,0.543,1.266,0.543c0.344,0,0.633-0.094,0.867-0.281
				S134.599,36.331,134.719,35.913z M134.844,33.694c-0.016-0.635-0.18-1.117-0.492-1.449c-0.313-0.33-0.692-0.496-1.141-0.496
				c-0.479,0-0.875,0.176-1.188,0.523c-0.313,0.35-0.466,0.824-0.461,1.422H134.844z"/>
			<path fill="#2D0F01" d="M137.758,38.554l2.992-4.273l-2.867-4.023h2.68l1.469,2.281l1.547-2.281h2.578l-2.813,3.93l3.07,4.367
				h-2.695l-1.688-2.57l-1.703,2.57H137.758z"/>
			<path fill="#2D0F01" d="M147.648,30.257h2.047v1.219c0.266-0.416,0.625-0.754,1.078-1.016c0.453-0.26,0.956-0.391,1.508-0.391
				c0.964,0,1.781,0.379,2.453,1.133c0.672,0.756,1.008,1.809,1.008,3.156c0,1.387-0.339,2.463-1.016,3.23
				c-0.677,0.77-1.497,1.152-2.461,1.152c-0.458,0-0.874-0.091-1.246-0.273c-0.372-0.182-0.765-0.494-1.176-0.938v4.18h-2.195
				V30.257z M149.82,34.265c0,0.934,0.185,1.621,0.555,2.066s0.82,0.668,1.352,0.668c0.511,0,0.935-0.203,1.273-0.613
				c0.339-0.408,0.508-1.078,0.508-2.012c0-0.869-0.175-1.516-0.523-1.938s-0.781-0.633-1.297-0.633
				c-0.536,0-0.981,0.207-1.336,0.621S149.82,33.452,149.82,34.265z"/>
			<path fill="#2D0F01" d="M159.586,38.554h-2.195v-8.297h2.039v1.18c0.349-0.557,0.663-0.924,0.941-1.102
				c0.278-0.176,0.595-0.266,0.949-0.266c0.5,0,0.981,0.139,1.445,0.414l-0.68,1.914c-0.37-0.238-0.714-0.359-1.031-0.359
				c-0.308,0-0.567,0.086-0.781,0.254c-0.214,0.17-0.382,0.477-0.504,0.918c-0.122,0.443-0.184,1.371-0.184,2.781V38.554z"/>
			<path fill="#2D0F01" d="M168.516,35.913l2.188,0.367c-0.281,0.803-0.726,1.414-1.332,1.832c-0.606,0.42-1.366,0.629-2.277,0.629
				c-1.442,0-2.511-0.471-3.203-1.414c-0.547-0.754-0.82-1.707-0.82-2.859c0-1.375,0.359-2.451,1.078-3.23
				c0.719-0.777,1.628-1.168,2.727-1.168c1.234,0,2.208,0.408,2.922,1.223c0.714,0.816,1.055,2.064,1.023,3.746h-5.5
				c0.016,0.652,0.192,1.158,0.531,1.52c0.339,0.363,0.761,0.543,1.266,0.543c0.344,0,0.633-0.094,0.867-0.281
				S168.396,36.331,168.516,35.913z M168.641,33.694c-0.016-0.635-0.18-1.117-0.492-1.449c-0.313-0.33-0.692-0.496-1.141-0.496
				c-0.479,0-0.875,0.176-1.188,0.523c-0.313,0.35-0.466,0.824-0.461,1.422H168.641z"/>
			<path fill="#2D0F01" d="M171.836,36.187l2.203-0.336c0.094,0.428,0.284,0.752,0.57,0.973c0.286,0.223,0.688,0.332,1.203,0.332
				c0.567,0,0.995-0.104,1.281-0.313c0.192-0.145,0.289-0.34,0.289-0.586c0-0.166-0.052-0.305-0.156-0.414
				c-0.109-0.104-0.354-0.199-0.734-0.289c-1.771-0.391-2.894-0.746-3.367-1.07c-0.656-0.447-0.984-1.07-0.984-1.867
				c0-0.719,0.284-1.322,0.852-1.813c0.567-0.488,1.448-0.734,2.641-0.734c1.136,0,1.979,0.186,2.531,0.555
				c0.552,0.371,0.933,0.918,1.141,1.641l-2.07,0.383c-0.089-0.322-0.257-0.57-0.504-0.742s-0.601-0.258-1.059-0.258
				c-0.578,0-0.992,0.082-1.242,0.242c-0.167,0.115-0.25,0.264-0.25,0.445c0,0.156,0.073,0.289,0.219,0.398
				c0.198,0.146,0.882,0.352,2.051,0.617s1.985,0.592,2.449,0.977c0.458,0.391,0.688,0.936,0.688,1.633
				c0,0.762-0.317,1.414-0.953,1.961s-1.575,0.82-2.82,0.82c-1.13,0-2.024-0.229-2.684-0.688
				C172.47,37.597,172.039,36.974,171.836,36.187z"/>
			<path fill="#2D0F01" d="M180.734,36.187l2.203-0.336c0.094,0.428,0.284,0.752,0.57,0.973c0.286,0.223,0.688,0.332,1.203,0.332
				c0.567,0,0.995-0.104,1.281-0.313c0.192-0.145,0.289-0.34,0.289-0.586c0-0.166-0.052-0.305-0.156-0.414
				c-0.109-0.104-0.354-0.199-0.734-0.289c-1.771-0.391-2.894-0.746-3.367-1.07c-0.656-0.447-0.984-1.07-0.984-1.867
				c0-0.719,0.284-1.322,0.852-1.813c0.567-0.488,1.448-0.734,2.641-0.734c1.136,0,1.979,0.186,2.531,0.555
				c0.552,0.371,0.933,0.918,1.141,1.641l-2.07,0.383c-0.089-0.322-0.257-0.57-0.504-0.742s-0.601-0.258-1.059-0.258
				c-0.578,0-0.992,0.082-1.242,0.242c-0.167,0.115-0.25,0.264-0.25,0.445c0,0.156,0.073,0.289,0.219,0.398
				c0.198,0.146,0.882,0.352,2.051,0.617s1.985,0.592,2.449,0.977c0.458,0.391,0.688,0.936,0.688,1.633
				c0,0.762-0.317,1.414-0.953,1.961s-1.575,0.82-2.82,0.82c-1.13,0-2.024-0.229-2.684-0.688
				C181.368,37.597,180.938,36.974,180.734,36.187z"/>
			<path fill="#2D0F01" d="M190.406,29.132v-2.031h2.195v2.031H190.406z M190.406,38.554v-8.297h2.195v8.297H190.406z"/>
			<path fill="#2D0F01" d="M194.344,34.288c0-0.729,0.18-1.434,0.539-2.117c0.359-0.682,0.868-1.203,1.527-1.563
				s1.395-0.539,2.207-0.539c1.255,0,2.284,0.408,3.086,1.223c0.802,0.816,1.203,1.846,1.203,3.09c0,1.256-0.405,2.297-1.215,3.121
				c-0.81,0.826-1.829,1.238-3.059,1.238c-0.761,0-1.485-0.172-2.176-0.516s-1.215-0.848-1.574-1.512S194.344,35.241,194.344,34.288
				z M196.594,34.405c0,0.824,0.195,1.453,0.586,1.891s0.872,0.656,1.445,0.656s1.054-0.219,1.441-0.656s0.582-1.072,0.582-1.906
				c0-0.813-0.194-1.438-0.582-1.875s-0.868-0.656-1.441-0.656s-1.055,0.219-1.445,0.656S196.594,33.583,196.594,34.405z"/>
			<path fill="#2D0F01" d="M212.172,38.554h-2.195v-4.234c0-0.895-0.047-1.475-0.141-1.738c-0.094-0.262-0.246-0.467-0.457-0.613
				c-0.211-0.145-0.465-0.219-0.762-0.219c-0.38,0-0.722,0.105-1.023,0.313c-0.302,0.209-0.509,0.484-0.621,0.828
				s-0.168,0.98-0.168,1.906v3.758h-2.195v-8.297h2.039v1.219c0.724-0.938,1.636-1.406,2.734-1.406c0.484,0,0.927,0.088,1.328,0.262
				c0.401,0.176,0.704,0.398,0.91,0.668c0.206,0.271,0.349,0.578,0.43,0.922s0.121,0.836,0.121,1.477V38.554z"/>
			<path fill="#2D0F01" d="M213.625,36.187l2.203-0.336c0.094,0.428,0.284,0.752,0.57,0.973c0.286,0.223,0.688,0.332,1.203,0.332
				c0.567,0,0.995-0.104,1.281-0.313c0.192-0.145,0.289-0.34,0.289-0.586c0-0.166-0.052-0.305-0.156-0.414
				c-0.109-0.104-0.354-0.199-0.734-0.289c-1.771-0.391-2.894-0.746-3.367-1.07c-0.656-0.447-0.984-1.07-0.984-1.867
				c0-0.719,0.284-1.322,0.852-1.813c0.567-0.488,1.448-0.734,2.641-0.734c1.136,0,1.979,0.186,2.531,0.555
				c0.552,0.371,0.933,0.918,1.141,1.641l-2.07,0.383c-0.089-0.322-0.257-0.57-0.504-0.742s-0.601-0.258-1.059-0.258
				c-0.578,0-0.992,0.082-1.242,0.242c-0.167,0.115-0.25,0.264-0.25,0.445c0,0.156,0.073,0.289,0.219,0.398
				c0.198,0.146,0.882,0.352,2.051,0.617s1.985,0.592,2.449,0.977c0.458,0.391,0.688,0.936,0.688,1.633
				c0,0.762-0.317,1.414-0.953,1.961s-1.575,0.82-2.82,0.82c-1.13,0-2.024-0.229-2.684-0.688
				C214.259,37.597,213.828,36.974,213.625,36.187z"/>
		</g>
	</g>
</g>
</svg>
