<?xml version="1.0" encoding="utf-8"?>
<!-- Generator: Adobe Illustrator 16.0.0, SVG Export Plug-In . SVG Version: 6.00 Build 0)  -->
<!DOCTYPE svg PUBLIC "-//W3C//DTD SVG 1.1//EN" "http://www.w3.org/Graphics/SVG/1.1/DTD/svg11.dtd">
<svg version="1.1" id="Capa_1" xmlns="http://www.w3.org/2000/svg" xmlns:xlink="http://www.w3.org/1999/xlink" x="0px" y="0px"
	 width="198.553px" height="45.646px" viewBox="0 0 198.553 45.646" enable-background="new 0 0 198.553 45.646"
	 xml:space="preserve">
<g>
	<polygon fill="#FCB63A" points="178.869,0 198.553,22.822 178.869,45.646 160.952,45.646 180.636,22.822 160.952,0 	"/>
	<polygon fill="#FCB63A" points="19.685,45.646 0,22.822 19.685,0 37.602,0 17.918,22.822 37.602,45.646 	"/>
	<polygon fill="#FFDF99" points="43.024,0 155.529,0 175.213,22.822 155.529,45.646 43.024,45.646 23.34,22.822 	"/>
	<g opacity="0.8">
		<path fill="#2D0F01" d="M45.167,29.029V15.447h2.742v13.582H45.167z"/>
		<path fill="#2D0F01" d="M59.453,29.029H56.85v-5.021c0-1.063-0.056-1.75-0.167-2.063c-0.11-0.311-0.291-0.554-0.542-0.727
			c-0.25-0.173-0.551-0.26-0.903-0.26c-0.45,0-0.855,0.124-1.213,0.371c-0.358,0.247-0.604,0.574-0.737,0.982
			c-0.133,0.407-0.199,1.16-0.199,2.26v4.457h-2.603v-9.84h2.418v1.445c0.858-1.111,1.939-1.668,3.242-1.668
			c0.574,0,1.1,0.104,1.575,0.311s0.835,0.471,1.079,0.793c0.244,0.32,0.414,0.686,0.51,1.093s0.144,0.991,0.144,1.751V29.029z"/>
		<path fill="#2D0F01" d="M66.605,19.189v2.076h-1.779v3.965c0,0.803,0.018,1.271,0.051,1.403c0.034,0.133,0.111,0.243,0.232,0.329
			c0.12,0.086,0.267,0.129,0.439,0.129c0.241,0,0.59-0.082,1.047-0.25l0.223,2.02c-0.605,0.26-1.291,0.39-2.057,0.39
			c-0.47,0-0.893-0.079-1.27-0.235c-0.377-0.158-0.653-0.361-0.829-0.612c-0.176-0.25-0.298-0.589-0.366-1.015
			c-0.056-0.303-0.083-0.914-0.083-1.834v-4.289h-1.195v-2.076h1.195v-1.955l2.612-1.52v3.475H66.605z"/>
		<path fill="#2D0F01" d="M70.905,29.029h-2.604v-9.84h2.418v1.398c0.414-0.66,0.786-1.096,1.116-1.306s0.706-0.315,1.126-0.315
			c0.593,0,1.164,0.164,1.714,0.492l-0.807,2.27c-0.438-0.284-0.846-0.426-1.223-0.426c-0.364,0-0.673,0.1-0.927,0.301
			c-0.253,0.2-0.452,0.563-0.597,1.088c-0.146,0.525-0.218,1.625-0.218,3.299V29.029z"/>
		<path fill="#2D0F01" d="M75.194,23.971c0-0.865,0.213-1.702,0.64-2.512c0.426-0.809,1.029-1.426,1.811-1.853
			s1.654-0.64,2.617-0.64c1.489,0,2.709,0.484,3.66,1.45c0.951,0.967,1.427,2.188,1.427,3.665c0,1.488-0.48,2.722-1.44,3.701
			c-0.961,0.979-2.17,1.468-3.628,1.468c-0.901,0-1.762-0.204-2.58-0.611s-1.44-1.005-1.866-1.792
			C75.407,26.06,75.194,25.101,75.194,23.971z M77.862,24.109c0,0.977,0.231,1.723,0.695,2.242c0.463,0.519,1.034,0.777,1.714,0.777
			s1.249-0.259,1.709-0.777c0.46-0.52,0.69-1.272,0.69-2.261c0-0.964-0.23-1.705-0.69-2.224c-0.46-0.52-1.029-0.778-1.709-0.778
			s-1.251,0.259-1.714,0.778C78.094,22.386,77.862,23.133,77.862,24.109z"/>
		<path fill="#2D0F01" d="M96.41,29.029h-2.418v-1.445c-0.401,0.562-0.876,0.98-1.422,1.255c-0.547,0.274-1.099,0.412-1.654,0.412
			c-1.13,0-2.099-0.455-2.904-1.366s-1.209-2.182-1.209-3.813c0-1.668,0.392-2.936,1.177-3.803c0.784-0.868,1.775-1.303,2.974-1.303
			c1.1,0,2.051,0.457,2.854,1.371v-4.891h2.604V29.029z M89.462,23.896c0,1.05,0.145,1.81,0.436,2.279
			c0.42,0.68,1.006,1.019,1.76,1.019c0.6,0,1.108-0.255,1.529-0.765c0.42-0.51,0.63-1.271,0.63-2.283
			c0-1.131-0.204-1.944-0.612-2.441c-0.407-0.497-0.929-0.746-1.565-0.746c-0.617,0-1.135,0.246-1.552,0.736
			C89.67,22.188,89.462,22.92,89.462,23.896z"/>
		<path fill="#2D0F01" d="M105.452,29.029v-1.474c-0.358,0.524-0.829,0.938-1.413,1.241c-0.583,0.303-1.199,0.454-1.848,0.454
			c-0.661,0-1.254-0.146-1.779-0.435c-0.525-0.291-0.905-0.699-1.14-1.224s-0.352-1.251-0.352-2.177v-6.227h2.604v4.521
			c0,1.383,0.047,2.231,0.144,2.543c0.096,0.313,0.27,0.559,0.523,0.741c0.253,0.183,0.574,0.273,0.963,0.273
			c0.445,0,0.844-0.122,1.195-0.366c0.353-0.244,0.593-0.547,0.723-0.908s0.194-1.246,0.194-2.654v-4.15h2.604v9.84H105.452z"/>
		<path fill="#2D0F01" d="M119.146,22.099l-2.566,0.464c-0.087-0.514-0.283-0.898-0.589-1.158s-0.702-0.39-1.19-0.39
			c-0.648,0-1.166,0.224-1.552,0.672s-0.579,1.196-0.579,2.247c0,1.167,0.196,1.992,0.589,2.473
			c0.392,0.482,0.918,0.723,1.579,0.723c0.494,0,0.898-0.14,1.214-0.421c0.315-0.28,0.537-0.765,0.667-1.45l2.557,0.436
			c-0.266,1.174-0.774,2.061-1.528,2.659s-1.764,0.898-3.029,0.898c-1.439,0-2.587-0.454-3.442-1.362
			c-0.855-0.907-1.283-2.164-1.283-3.77c0-1.625,0.43-2.89,1.288-3.795c0.858-0.904,2.02-1.357,3.483-1.357
			c1.198,0,2.151,0.258,2.858,0.773C118.329,20.257,118.837,21.043,119.146,22.099z"/>
		<path fill="#2D0F01" d="M125.632,19.189v2.076h-1.779v3.965c0,0.803,0.018,1.271,0.051,1.403c0.034,0.133,0.111,0.243,0.232,0.329
			c0.12,0.086,0.267,0.129,0.439,0.129c0.241,0,0.59-0.082,1.047-0.25l0.223,2.02c-0.605,0.26-1.291,0.39-2.057,0.39
			c-0.47,0-0.893-0.079-1.27-0.235c-0.377-0.158-0.653-0.361-0.829-0.612c-0.176-0.25-0.298-0.589-0.366-1.015
			c-0.056-0.303-0.083-0.914-0.083-1.834v-4.289h-1.195v-2.076h1.195v-1.955l2.612-1.52v3.475H125.632z"/>
		<path fill="#2D0F01" d="M127.438,17.855v-2.408h2.603v2.408H127.438z M127.438,29.029v-9.84h2.603v9.84H127.438z"/>
		<path fill="#2D0F01" d="M132.107,23.971c0-0.865,0.213-1.702,0.64-2.512c0.426-0.809,1.029-1.426,1.811-1.853
			s1.654-0.64,2.617-0.64c1.489,0,2.709,0.484,3.66,1.45c0.951,0.967,1.427,2.188,1.427,3.665c0,1.488-0.48,2.722-1.44,3.701
			c-0.961,0.979-2.17,1.468-3.628,1.468c-0.901,0-1.762-0.204-2.58-0.611s-1.44-1.005-1.866-1.792
			C132.32,26.06,132.107,25.101,132.107,23.971z M134.775,24.109c0,0.977,0.231,1.723,0.695,2.242
			c0.463,0.519,1.034,0.777,1.714,0.777s1.249-0.259,1.709-0.777c0.46-0.52,0.69-1.272,0.69-2.261c0-0.964-0.23-1.705-0.69-2.224
			c-0.46-0.52-1.029-0.778-1.709-0.778s-1.251,0.259-1.714,0.778C135.007,22.386,134.775,23.133,134.775,24.109z"/>
		<path fill="#2D0F01" d="M153.249,29.029h-2.604v-5.021c0-1.063-0.056-1.75-0.167-2.063c-0.11-0.311-0.291-0.554-0.542-0.727
			c-0.25-0.173-0.551-0.26-0.903-0.26c-0.45,0-0.855,0.124-1.213,0.371c-0.358,0.247-0.604,0.574-0.737,0.982
			c-0.133,0.407-0.199,1.16-0.199,2.26v4.457h-2.603v-9.84h2.418v1.445c0.858-1.111,1.939-1.668,3.242-1.668
			c0.574,0,1.1,0.104,1.575,0.311s0.835,0.471,1.079,0.793c0.244,0.32,0.414,0.686,0.51,1.093s0.144,0.991,0.144,1.751V29.029z"/>
	</g>
</g>
</svg>
