<?xml version="1.0" encoding="utf-8"?>
<!-- Generator: Adobe Illustrator 16.0.0, SVG Export Plug-In . SVG Version: 6.00 Build 0)  -->
<!DOCTYPE svg PUBLIC "-//W3C//DTD SVG 1.1//EN" "http://www.w3.org/Graphics/SVG/1.1/DTD/svg11.dtd">
<svg version="1.1" id="Capa_1" xmlns="http://www.w3.org/2000/svg" xmlns:xlink="http://www.w3.org/1999/xlink" x="0px" y="0px"
	 width="288.938px" height="45.646px" viewBox="0 0 288.938 45.646" enable-background="new 0 0 288.938 45.646"
	 xml:space="preserve">
<g>
	<g>
		<polygon fill="#FCB63A" points="269.255,0 288.938,22.822 269.255,45.646 251.338,45.646 271.021,22.822 251.338,0 		"/>
		<polygon fill="#FCB63A" points="19.686,45.646 0,22.822 19.686,0 37.602,0 17.918,22.822 37.602,45.646 		"/>
		<polygon fill="#FFDF99" points="43.024,0 246.011,0 265.694,22.822 246.011,45.646 43.024,45.646 23.34,22.822 		"/>
		<g opacity="0.8" enable-background="new    ">
			<path fill="#2D0F01" d="M46.126,27.307h-2.83l-1.125-2.927h-5.15l-1.063,2.927h-2.76l5.019-12.885h2.751L46.126,27.307z
				 M41.336,22.21l-1.775-4.781l-1.74,4.781H41.336z"/>
			<path fill="#2D0F01" d="M47.418,17.973h2.303v1.371c0.299-0.469,0.703-0.85,1.213-1.143s1.075-0.439,1.696-0.439
				c1.084,0,2.004,0.425,2.76,1.274s1.134,2.033,1.134,3.551c0,1.559-0.381,2.771-1.143,3.634c-0.762,0.865-1.685,1.297-2.769,1.297
				c-0.516,0-0.983-0.103-1.402-0.308s-0.86-0.557-1.323-1.055v4.702h-2.47V17.973z M49.862,22.482c0,1.049,0.208,1.823,0.624,2.325
				c0.416,0.5,0.923,0.751,1.521,0.751c0.574,0,1.052-0.229,1.433-0.69c0.381-0.459,0.571-1.214,0.571-2.263
				c0-0.979-0.196-1.705-0.589-2.18s-0.879-0.712-1.459-0.712c-0.604,0-1.104,0.232-1.503,0.699
				C50.061,20.878,49.862,21.568,49.862,22.482z"/>
			<path fill="#2D0F01" d="M58.413,17.973h2.303v1.371c0.299-0.469,0.703-0.85,1.213-1.143s1.075-0.439,1.696-0.439
				c1.084,0,2.004,0.425,2.76,1.274s1.134,2.033,1.134,3.551c0,1.559-0.381,2.771-1.143,3.634c-0.762,0.865-1.685,1.297-2.769,1.297
				c-0.516,0-0.983-0.103-1.402-0.308s-0.86-0.557-1.323-1.055v4.702h-2.47V17.973z M60.857,22.482c0,1.049,0.208,1.823,0.624,2.325
				c0.416,0.5,0.923,0.751,1.521,0.751c0.574,0,1.052-0.229,1.433-0.69c0.381-0.459,0.571-1.214,0.571-2.263
				c0-0.979-0.196-1.705-0.589-2.18s-0.879-0.712-1.459-0.712c-0.604,0-1.104,0.232-1.503,0.699
				C61.056,20.878,60.857,21.568,60.857,22.482z"/>
			<path fill="#2D0F01" d="M69.479,27.307V14.423h2.47v12.885H69.479z"/>
			<path fill="#2D0F01" d="M73.311,17.973h2.628l2.232,6.627l2.18-6.627h2.558l-3.296,8.982l-0.589,1.626
				c-0.217,0.545-0.423,0.961-0.62,1.248s-0.422,0.52-0.677,0.698s-0.568,0.318-0.94,0.418s-0.792,0.149-1.261,0.149
				c-0.475,0-0.94-0.05-1.397-0.149l-0.22-1.934c0.387,0.076,0.735,0.114,1.046,0.114c0.574,0,0.999-0.169,1.274-0.505
				c0.275-0.338,0.486-0.767,0.633-1.288L73.311,17.973z"/>
			<path fill="#2D0F01" d="M84.49,16.708v-2.285h2.47v2.285H84.49z M84.49,27.307v-9.334h2.47v9.334H84.49z"/>
			<path fill="#2D0F01" d="M97.982,27.307h-2.47v-4.764c0-1.008-0.053-1.659-0.158-1.955s-0.277-0.526-0.514-0.69
				s-0.523-0.246-0.857-0.246c-0.428,0-0.812,0.117-1.151,0.352s-0.573,0.545-0.699,0.932s-0.189,1.102-0.189,2.145v4.228h-2.47
				v-9.334h2.294v1.371c0.814-1.055,1.84-1.582,3.076-1.582c0.545,0,1.043,0.099,1.494,0.295s0.792,0.446,1.024,0.751
				s0.393,0.65,0.483,1.037s0.136,0.94,0.136,1.661V27.307z"/>
			<path fill="#2D0F01" d="M100.258,27.923l2.821,0.343c0.047,0.328,0.155,0.554,0.325,0.677c0.234,0.176,0.604,0.264,1.107,0.264
				c0.645,0,1.128-0.097,1.45-0.29c0.217-0.129,0.381-0.337,0.492-0.624c0.076-0.205,0.114-0.583,0.114-1.134v-1.362
				c-0.738,1.008-1.67,1.512-2.795,1.512c-1.254,0-2.247-0.53-2.979-1.591c-0.574-0.838-0.861-1.881-0.861-3.129
				c0-1.564,0.376-2.76,1.129-3.586s1.689-1.239,2.808-1.239c1.154,0,2.106,0.507,2.856,1.521v-1.31h2.312v8.376
				c0,1.102-0.091,1.925-0.272,2.47s-0.437,0.973-0.765,1.283s-0.766,0.554-1.314,0.729s-1.241,0.264-2.079,0.264
				c-1.582,0-2.704-0.271-3.366-0.813s-0.993-1.229-0.993-2.061C100.249,28.139,100.252,28.04,100.258,27.923z M102.464,22.447
				c0,0.99,0.192,1.716,0.576,2.175c0.384,0.461,0.857,0.69,1.419,0.69c0.604,0,1.113-0.235,1.529-0.708
				c0.416-0.471,0.624-1.17,0.624-2.096c0-0.967-0.199-1.685-0.598-2.153s-0.902-0.703-1.512-0.703c-0.592,0-1.08,0.23-1.463,0.69
				S102.464,21.504,102.464,22.447z"/>
			<path fill="#2D0F01" d="M115.402,17.973h1.371V17.27c0-0.785,0.083-1.371,0.25-1.758s0.475-0.701,0.923-0.945
				c0.448-0.242,1.015-0.364,1.701-0.364c0.703,0,1.392,0.105,2.065,0.316l-0.334,1.723c-0.393-0.094-0.771-0.141-1.134-0.141
				c-0.357,0-0.614,0.083-0.769,0.251c-0.155,0.166-0.233,0.487-0.233,0.962v0.659h1.846v1.942h-1.846v7.392h-2.47v-7.392h-1.371
				V17.973z"/>
			<path fill="#2D0F01" d="M121.906,22.509c0-0.82,0.202-1.614,0.606-2.382s0.977-1.354,1.718-1.758s1.569-0.606,2.483-0.606
				c1.412,0,2.569,0.459,3.472,1.375c0.902,0.918,1.354,2.076,1.354,3.477c0,1.412-0.456,2.583-1.367,3.512
				s-2.058,1.393-3.441,1.393c-0.855,0-1.671-0.193-2.448-0.58s-1.367-0.953-1.771-1.701
				C122.108,24.491,121.906,23.581,121.906,22.509z M124.437,22.64c0,0.926,0.22,1.635,0.659,2.127s0.981,0.738,1.626,0.738
				s1.185-0.246,1.622-0.738s0.655-1.207,0.655-2.145c0-0.914-0.218-1.617-0.655-2.109s-0.977-0.738-1.622-0.738
				s-1.187,0.246-1.626,0.738S124.437,21.715,124.437,22.64z"/>
			<path fill="#2D0F01" d="M135.836,27.307h-2.47v-9.334h2.294v1.327c0.393-0.627,0.746-1.04,1.059-1.239s0.669-0.299,1.068-0.299
				c0.563,0,1.104,0.155,1.626,0.466l-0.765,2.153c-0.416-0.27-0.803-0.404-1.16-0.404c-0.346,0-0.639,0.096-0.879,0.285
				c-0.24,0.191-0.429,0.535-0.567,1.033s-0.207,1.541-0.207,3.129V27.307z"/>
			<path fill="#2D0F01" d="M147.323,20.821l-2.241-0.404c0.252-0.902,0.686-1.57,1.301-2.004s1.529-0.65,2.742-0.65
				c1.102,0,1.922,0.131,2.461,0.391c0.539,0.262,0.918,0.593,1.139,0.994c0.219,0.401,0.329,1.138,0.329,2.21l-0.026,2.883
				c0,0.82,0.039,1.426,0.119,1.815c0.078,0.39,0.227,0.807,0.443,1.252h-2.443c-0.064-0.164-0.144-0.407-0.237-0.729
				c-0.041-0.146-0.07-0.243-0.088-0.29c-0.422,0.41-0.873,0.718-1.354,0.923s-0.993,0.308-1.538,0.308
				c-0.961,0-1.719-0.261-2.271-0.782c-0.555-0.521-0.831-1.181-0.831-1.978c0-0.527,0.126-0.998,0.378-1.41
				c0.252-0.414,0.605-0.73,1.059-0.949c0.455-0.221,1.109-0.412,1.965-0.576c1.154-0.217,1.954-0.419,2.399-0.606V20.97
				c0-0.475-0.117-0.813-0.352-1.015c-0.234-0.203-0.677-0.304-1.327-0.304c-0.439,0-0.782,0.087-1.028,0.259
				C147.675,20.085,147.476,20.387,147.323,20.821z M150.628,22.825c-0.316,0.105-0.817,0.231-1.503,0.378s-1.134,0.29-1.345,0.431
				c-0.322,0.229-0.483,0.519-0.483,0.87c0,0.346,0.129,0.645,0.387,0.896s0.586,0.378,0.984,0.378c0.445,0,0.87-0.146,1.274-0.439
				c0.299-0.223,0.495-0.495,0.589-0.817c0.064-0.211,0.097-0.612,0.097-1.204V22.825z"/>
			<path fill="#2D0F01" d="M163.979,27.307h-2.47v-4.764c0-1.008-0.053-1.659-0.158-1.955s-0.276-0.526-0.515-0.69
				c-0.236-0.164-0.522-0.246-0.856-0.246c-0.428,0-0.812,0.117-1.151,0.352s-0.572,0.545-0.699,0.932
				c-0.125,0.387-0.188,1.102-0.188,2.145v4.228h-2.47v-9.334h2.294v1.371c0.814-1.055,1.84-1.582,3.076-1.582
				c0.545,0,1.043,0.099,1.494,0.295s0.792,0.446,1.024,0.751c0.23,0.305,0.393,0.65,0.482,1.037
				c0.092,0.387,0.137,0.94,0.137,1.661V27.307z"/>
			<path fill="#2D0F01" d="M171.485,16.708v-2.285h2.47v2.285H171.485z M171.485,27.307v-9.334h2.47v9.334H171.485z"/>
			<path fill="#2D0F01" d="M184.976,27.307h-2.47v-4.764c0-1.008-0.053-1.659-0.158-1.955s-0.277-0.526-0.514-0.69
				c-0.238-0.164-0.523-0.246-0.857-0.246c-0.428,0-0.812,0.117-1.151,0.352s-0.573,0.545-0.698,0.932
				c-0.127,0.387-0.189,1.102-0.189,2.145v4.228h-2.47v-9.334h2.294v1.371c0.814-1.055,1.84-1.582,3.076-1.582
				c0.545,0,1.043,0.099,1.494,0.295s0.793,0.446,1.023,0.751c0.232,0.305,0.393,0.65,0.484,1.037
				c0.09,0.387,0.136,0.94,0.136,1.661V27.307z"/>
			<path fill="#2D0F01" d="M191.761,17.973v1.969h-1.688v3.762c0,0.762,0.017,1.206,0.048,1.332
				c0.033,0.126,0.105,0.229,0.221,0.312c0.113,0.082,0.253,0.123,0.417,0.123c0.229,0,0.56-0.079,0.993-0.237l0.211,1.916
				c-0.574,0.246-1.225,0.369-1.951,0.369c-0.445,0-0.847-0.074-1.204-0.225c-0.357-0.148-0.62-0.342-0.786-0.58
				c-0.168-0.236-0.283-0.558-0.348-0.962c-0.053-0.287-0.079-0.867-0.079-1.74v-4.069h-1.134v-1.969h1.134v-1.854l2.479-1.441
				v3.296H191.761z"/>
			<path fill="#2D0F01" d="M198.88,24.337l2.461,0.413c-0.316,0.902-0.815,1.59-1.499,2.062c-0.682,0.472-1.536,0.707-2.562,0.707
				c-1.623,0-2.824-0.53-3.604-1.591c-0.615-0.85-0.923-1.922-0.923-3.217c0-1.547,0.404-2.758,1.213-3.634s1.831-1.314,3.067-1.314
				c1.389,0,2.484,0.459,3.287,1.375c0.803,0.918,1.187,2.322,1.151,4.215h-6.188c0.018,0.732,0.217,1.303,0.598,1.709
				c0.381,0.408,0.855,0.611,1.424,0.611c0.387,0,0.712-0.105,0.976-0.316S198.745,24.805,198.88,24.337z M199.021,21.841
				c-0.018-0.715-0.202-1.258-0.554-1.631c-0.352-0.371-0.779-0.558-1.283-0.558c-0.539,0-0.984,0.196-1.336,0.589
				s-0.524,0.926-0.519,1.6H199.021z"/>
			<path fill="#2D0F01" d="M205.85,27.307h-2.47v-9.334h2.294v1.327c0.393-0.627,0.746-1.04,1.059-1.239
				c0.314-0.199,0.67-0.299,1.068-0.299c0.563,0,1.104,0.155,1.626,0.466l-0.765,2.153c-0.416-0.27-0.803-0.404-1.16-0.404
				c-0.346,0-0.639,0.096-0.879,0.285c-0.24,0.191-0.43,0.535-0.566,1.033c-0.139,0.498-0.207,1.541-0.207,3.129V27.307z"/>
			<path fill="#2D0F01" d="M218.981,27.307h-2.47v-4.764c0-1.008-0.053-1.659-0.158-1.955s-0.276-0.526-0.515-0.69
				c-0.236-0.164-0.522-0.246-0.856-0.246c-0.428,0-0.812,0.117-1.151,0.352s-0.572,0.545-0.699,0.932
				c-0.125,0.387-0.188,1.102-0.188,2.145v4.228h-2.47v-9.334h2.294v1.371c0.814-1.055,1.84-1.582,3.076-1.582
				c0.545,0,1.043,0.099,1.494,0.295s0.792,0.446,1.024,0.751c0.23,0.305,0.393,0.65,0.482,1.037
				c0.092,0.387,0.137,0.94,0.137,1.661V27.307z"/>
			<path fill="#2D0F01" d="M220.615,24.644l2.479-0.378c0.105,0.48,0.319,0.846,0.642,1.094c0.322,0.25,0.773,0.374,1.354,0.374
				c0.639,0,1.119-0.117,1.441-0.352c0.217-0.164,0.325-0.384,0.325-0.659c0-0.188-0.059-0.343-0.176-0.466
				c-0.123-0.117-0.398-0.226-0.826-0.325c-1.992-0.439-3.255-0.841-3.788-1.204c-0.738-0.504-1.107-1.204-1.107-2.101
				c0-0.809,0.319-1.488,0.958-2.039s1.629-0.826,2.971-0.826c1.277,0,2.227,0.208,2.848,0.624s1.049,1.031,1.283,1.846
				l-2.329,0.431c-0.1-0.363-0.288-0.642-0.567-0.835c-0.277-0.193-0.675-0.29-1.19-0.29c-0.65,0-1.116,0.091-1.397,0.272
				c-0.188,0.129-0.281,0.296-0.281,0.501c0,0.176,0.082,0.325,0.246,0.448c0.223,0.164,0.992,0.396,2.307,0.694
				c1.316,0.299,2.234,0.665,2.756,1.099c0.516,0.439,0.773,1.052,0.773,1.837c0,0.855-0.357,1.591-1.072,2.206
				s-1.772,0.923-3.173,0.923c-1.271,0-2.278-0.258-3.019-0.773C221.328,26.229,220.844,25.529,220.615,24.644z"/>
			<path fill="#2D0F01" d="M233.957,14.423v4.737c0.797-0.932,1.749-1.397,2.856-1.397c0.568,0,1.081,0.105,1.538,0.316
				s0.801,0.48,1.033,0.809c0.23,0.328,0.389,0.691,0.475,1.09c0.084,0.398,0.127,1.017,0.127,1.854v5.476h-2.47v-4.931
				c0-0.979-0.047-1.6-0.141-1.863s-0.259-0.473-0.497-0.628c-0.236-0.155-0.534-0.233-0.892-0.233c-0.41,0-0.776,0.1-1.099,0.299
				s-0.559,0.5-0.707,0.901c-0.15,0.401-0.225,0.994-0.225,1.779v4.676h-2.47V14.423H233.957z"/>
			<path fill="#2D0F01" d="M242.491,16.708v-2.285h2.47v2.285H242.491z M242.491,27.307v-9.334h2.47v9.334H242.491z"/>
			<path fill="#2D0F01" d="M247.422,17.973h2.303v1.371c0.299-0.469,0.703-0.85,1.213-1.143s1.075-0.439,1.696-0.439
				c1.084,0,2.004,0.425,2.76,1.274s1.134,2.033,1.134,3.551c0,1.559-0.381,2.771-1.143,3.634c-0.762,0.865-1.685,1.297-2.769,1.297
				c-0.516,0-0.983-0.103-1.401-0.308c-0.42-0.205-0.86-0.557-1.323-1.055v4.702h-2.47V17.973z M249.865,22.482
				c0,1.049,0.208,1.823,0.624,2.325c0.416,0.5,0.923,0.751,1.521,0.751c0.574,0,1.052-0.229,1.433-0.69
				c0.381-0.459,0.571-1.214,0.571-2.263c0-0.979-0.196-1.705-0.589-2.18s-0.879-0.712-1.459-0.712
				c-0.604,0-1.104,0.232-1.503,0.699C250.065,20.878,249.865,21.568,249.865,22.482z"/>
		</g>
	</g>
</g>
</svg>
