<?xml version="1.0" encoding="utf-8"?>
<!-- Generator: Adobe Illustrator 16.0.0, SVG Export Plug-In . SVG Version: 6.00 Build 0)  -->
<!DOCTYPE svg PUBLIC "-//W3C//DTD SVG 1.1//EN" "http://www.w3.org/Graphics/SVG/1.1/DTD/svg11.dtd">
<svg version="1.1" id="Capa_1" xmlns="http://www.w3.org/2000/svg" xmlns:xlink="http://www.w3.org/1999/xlink" x="0px" y="0px"
	 width="148.078px" height="103.982px" viewBox="0 0 148.078 103.982" enable-background="new 0 0 148.078 103.982"
	 xml:space="preserve">
<g>
	<g>
		<g>
			<polygon fill-rule="evenodd" clip-rule="evenodd" fill="#2D3944" points="0,94.947 17.42,103.982 38.287,95.941 38.285,94.947 
							"/>
			<rect x="17.42" fill-rule="evenodd" clip-rule="evenodd" fill="#87BA4C" width="130.658" height="103.982"/>
			<polygon fill="#162302" points="10.188,94.947 17.42,0.33 17.42,94.947 			"/>
		</g>
	</g>
	<g>
		<path fill="#FFFFFF" d="M50.39,90.039V78.752h2.299v9.371h5.713v1.916H50.39z"/>
		<path fill="#FFFFFF" d="M63.621,87.416l2.174,0.365c-0.28,0.797-0.721,1.402-1.323,1.82c-0.604,0.416-1.357,0.625-2.264,0.625
			c-1.434,0-2.494-0.469-3.182-1.406c-0.544-0.75-0.816-1.697-0.816-2.84c0-1.367,0.357-2.438,1.072-3.211
			c0.714-0.773,1.617-1.16,2.709-1.16c1.227,0,2.193,0.404,2.903,1.215c0.709,0.811,1.048,2.051,1.017,3.723h-5.465
			c0.016,0.646,0.191,1.15,0.527,1.51c0.337,0.359,0.756,0.539,1.258,0.539c0.342,0,0.629-0.094,0.861-0.279
			C63.326,88.131,63.502,87.83,63.621,87.416z M63.745,85.211c-0.016-0.631-0.178-1.111-0.488-1.439s-0.689-0.494-1.134-0.494
			c-0.476,0-0.87,0.174-1.181,0.521c-0.31,0.346-0.463,0.816-0.457,1.412H63.745z"/>
		<path fill="#FFFFFF" d="M70.292,81.795v1.74h-1.49v3.322c0,0.672,0.015,1.064,0.043,1.176c0.029,0.111,0.094,0.203,0.194,0.275
			s0.224,0.109,0.368,0.109c0.202,0,0.494-0.07,0.877-0.211l0.188,1.693c-0.508,0.217-1.082,0.326-1.724,0.326
			c-0.394,0-0.748-0.066-1.063-0.199c-0.316-0.131-0.547-0.303-0.695-0.512c-0.146-0.209-0.25-0.492-0.307-0.85
			c-0.047-0.254-0.069-0.766-0.069-1.537v-3.594h-1.001v-1.74h1.001v-1.637l2.188-1.273v2.91H70.292z"/>
		<path fill="#FFFFFF" d="M70.575,78.691h2.182v1.559c0,0.633-0.055,1.131-0.163,1.494c-0.108,0.365-0.314,0.693-0.617,0.982
			c-0.303,0.291-0.687,0.518-1.153,0.684l-0.426-0.9c0.439-0.145,0.752-0.344,0.939-0.598c0.186-0.254,0.283-0.6,0.295-1.041h-1.057
			V78.691z"/>
		<path fill="#FFFFFF" d="M73.102,87.688l2.188-0.334c0.094,0.424,0.283,0.746,0.567,0.967s0.683,0.33,1.195,0.33
			c0.563,0,0.988-0.104,1.272-0.311c0.191-0.145,0.288-0.34,0.288-0.582c0-0.166-0.052-0.303-0.155-0.412
			c-0.109-0.104-0.352-0.199-0.73-0.287c-1.759-0.389-2.874-0.742-3.346-1.063c-0.651-0.445-0.978-1.064-0.978-1.855
			c0-0.715,0.282-1.314,0.847-1.801c0.563-0.486,1.438-0.73,2.623-0.73c1.129,0,1.967,0.184,2.516,0.551s0.926,0.912,1.133,1.631
			l-2.057,0.381c-0.088-0.322-0.255-0.568-0.501-0.738c-0.245-0.17-0.597-0.256-1.052-0.256c-0.574,0-0.986,0.08-1.234,0.24
			c-0.166,0.113-0.248,0.262-0.248,0.443c0,0.154,0.072,0.287,0.217,0.395c0.197,0.145,0.876,0.35,2.038,0.613
			c1.161,0.264,1.973,0.588,2.434,0.971c0.455,0.389,0.683,0.93,0.683,1.623c0,0.756-0.315,1.404-0.947,1.947
			c-0.631,0.545-1.564,0.816-2.802,0.816c-1.123,0-2.012-0.229-2.667-0.684C73.731,89.088,73.304,88.469,73.102,87.688z"/>
		<path fill="#FFFFFF" d="M84.776,90.039V78.66h2.182v11.379H84.776z"/>
		<path fill="#FFFFFF" d="M88.017,80.678V78.66h2.182v2.018H88.017z M88.017,90.039v-8.244h2.182v8.244H88.017z"/>
		<path fill="#FFFFFF" d="M90.489,87.688l2.188-0.334c0.093,0.424,0.282,0.746,0.567,0.967c0.284,0.221,0.683,0.33,1.195,0.33
			c0.563,0,0.988-0.104,1.272-0.311c0.191-0.145,0.288-0.34,0.288-0.582c0-0.166-0.053-0.303-0.156-0.412
			c-0.108-0.104-0.352-0.199-0.729-0.287c-1.759-0.389-2.874-0.742-3.346-1.063c-0.651-0.445-0.978-1.064-0.978-1.855
			c0-0.715,0.281-1.314,0.846-1.801s1.438-0.73,2.624-0.73c1.128,0,1.966,0.184,2.515,0.551s0.927,0.912,1.134,1.631l-2.058,0.381
			c-0.088-0.322-0.254-0.568-0.5-0.738s-0.597-0.256-1.053-0.256c-0.574,0-0.985,0.08-1.234,0.24
			c-0.165,0.113-0.248,0.262-0.248,0.443c0,0.154,0.072,0.287,0.218,0.395c0.196,0.145,0.876,0.35,2.038,0.613
			c1.161,0.264,1.973,0.588,2.434,0.971c0.455,0.389,0.683,0.93,0.683,1.623c0,0.756-0.315,1.404-0.947,1.947
			c-0.632,0.545-1.565,0.816-2.802,0.816c-1.123,0-2.012-0.229-2.667-0.684S90.69,88.469,90.489,87.688z"/>
		<path fill="#FFFFFF" d="M102.702,81.795v1.74h-1.49v3.322c0,0.672,0.015,1.064,0.043,1.176c0.029,0.111,0.094,0.203,0.194,0.275
			s0.224,0.109,0.368,0.109c0.202,0,0.494-0.07,0.877-0.211l0.188,1.693c-0.508,0.217-1.082,0.326-1.724,0.326
			c-0.394,0-0.748-0.066-1.063-0.199c-0.316-0.131-0.547-0.303-0.695-0.512c-0.146-0.209-0.25-0.492-0.307-0.85
			c-0.047-0.254-0.069-0.766-0.069-1.537v-3.594h-1.001v-1.74h1.001v-1.637l2.188-1.273v2.91H102.702z"/>
		<path fill="#FFFFFF" d="M107.813,87.416l2.174,0.365c-0.279,0.797-0.721,1.402-1.323,1.82c-0.603,0.416-1.357,0.625-2.263,0.625
			c-1.434,0-2.494-0.469-3.183-1.406c-0.544-0.75-0.815-1.697-0.815-2.84c0-1.367,0.357-2.438,1.071-3.211s1.617-1.16,2.71-1.16
			c1.227,0,2.193,0.404,2.902,1.215s1.049,2.051,1.018,3.723h-5.465c0.016,0.646,0.191,1.15,0.527,1.51s0.756,0.539,1.258,0.539
			c0.342,0,0.629-0.094,0.861-0.279S107.694,87.83,107.813,87.416z M107.938,85.211c-0.016-0.631-0.179-1.111-0.489-1.439
			s-0.688-0.494-1.134-0.494c-0.476,0-0.869,0.174-1.18,0.521c-0.311,0.346-0.463,0.816-0.457,1.412H107.938z"/>
		<path fill="#FFFFFF" d="M118.204,90.039h-2.182v-4.207c0-0.891-0.046-1.465-0.139-1.727c-0.094-0.262-0.245-0.465-0.455-0.609
			c-0.209-0.145-0.461-0.219-0.756-0.219c-0.379,0-0.717,0.104-1.018,0.311s-0.506,0.482-0.617,0.824s-0.166,0.973-0.166,1.895
			v3.732h-2.182v-8.244h2.025v1.211c0.72-0.932,1.625-1.396,2.717-1.396c0.482,0,0.922,0.086,1.32,0.26s0.699,0.395,0.904,0.664
			c0.204,0.27,0.347,0.574,0.427,0.916s0.12,0.83,0.12,1.467V90.039z"/>
	</g>
	<g>
		<path fill-rule="evenodd" clip-rule="evenodd" fill="#EC6421" stroke="#000000" stroke-miterlimit="10" d="M70.254,45.124
			c-1.187,0-2.31,0.056-3.426-0.014c-1.547-0.094-2.801-1.431-2.813-2.981c-0.025-3.205-0.025-6.41,0-9.614
			c0.013-1.632,1.237-2.803,3.113-3.026c0-0.818,0.012-1.643-0.002-2.468c-0.03-1.769,0.174-3.502,0.684-5.2
			c1.801-5.997,7.266-10.454,13.474-10.973c8.021-0.671,15.046,4.499,16.757,12.332c0.404,1.846,0.325,3.72,0.329,5.59
			c0.001,0.226,0,0.452,0,0.697c0.316,0.063,0.619,0.101,0.907,0.185c1.256,0.366,2.197,1.548,2.206,2.857
			c0.021,3.204,0.024,6.409,0,9.614c-0.012,1.571-1.289,2.911-2.855,2.992c-1.103,0.058-2.208,0.012-3.383,0.012
			c0-0.203,0-0.391,0-0.579c-0.003-6.165,0.034-12.331-0.019-18.497c-0.053-6.169-4.998-11.481-11.138-12.074
			c-6.776-0.655-12.685,3.899-13.692,10.615c-0.17,1.134-0.135,2.303-0.137,3.457c-0.013,5.515-0.006,11.029-0.006,16.544
			C70.254,44.753,70.254,44.913,70.254,45.124z"/>
		<path fill-rule="evenodd" clip-rule="evenodd" fill="#FFFFFF" stroke="#000000" stroke-miterlimit="10" d="M71.85,29.536
			c1.035,0,2.038,0,3.066,0c0,5.188,0,10.354,0,15.561c-1.004,0-2.018,0-3.066,0C71.85,39.932,71.85,34.756,71.85,29.536z"/>
		<path fill-rule="evenodd" clip-rule="evenodd" fill="#FFFFFF" stroke="#000000" stroke-miterlimit="10" d="M90.566,45.105
			c0-5.203,0-10.357,0-15.552c1.021,0,2.035,0,3.084,0c0,5.167,0,10.344,0,15.552C92.637,45.105,91.623,45.105,90.566,45.105z"/>
	</g>
	<g opacity="0.8">
		<path fill-rule="evenodd" clip-rule="evenodd" d="M87.386,46.097c4.706,2.697,7.005,6.916,7.921,11.992
			c0.619,3.435-0.168,4.875-3.348,6.389c-4.181,1.99-8.626,1.944-13.092,1.489c-2.51-0.256-4.869-1-6.971-2.471
			c-1.281-0.896-2.004-2.152-1.871-3.636c0.477-5.273,2.439-9.815,6.896-13c0.287-0.207,0.604-0.377,0.916-0.548
			c0.15-0.083,0.32-0.131,0.467-0.188C82.748,50.414,82.748,50.414,87.386,46.097z"/>
		<path fill-rule="evenodd" clip-rule="evenodd" d="M88.998,40.372c0.107,3.823-3.174,6.191-5.93,6.263
			c-3.745,0.096-6.441-2.535-6.57-6.508c-0.098-3.012,2.854-5.971,6.082-6.062C85.824,33.974,89.07,36.473,88.998,40.372z"/>
	</g>
</g>
</svg>
