<?xml version="1.0" encoding="utf-8"?>
<!-- Generator: Adobe Illustrator 16.0.0, SVG Export Plug-In . SVG Version: 6.00 Build 0)  -->
<!DOCTYPE svg PUBLIC "-//W3C//DTD SVG 1.1//EN" "http://www.w3.org/Graphics/SVG/1.1/DTD/svg11.dtd">
<svg version="1.1" id="Capa_1" xmlns="http://www.w3.org/2000/svg" xmlns:xlink="http://www.w3.org/1999/xlink" x="0px" y="0px"
	 width="148.078px" height="103.982px" viewBox="0 0 148.078 103.982" enable-background="new 0 0 148.078 103.982"
	 xml:space="preserve">
<g>
	<g>
		<g>
			<polygon fill-rule="evenodd" clip-rule="evenodd" fill="#2D3944" points="0.14,95.365 17.56,104.4 38.428,96.359 38.426,95.365 
							"/>
			<rect x="17.56" y="0.418" fill-rule="evenodd" clip-rule="evenodd" fill="#87BA4C" width="130.658" height="103.982"/>
			<polygon fill="#162302" points="10.327,95.365 17.56,0.748 17.56,95.365 			"/>
		</g>
	</g>
	<g>
		<path fill="#FFFFFF" d="M51.886,93.457V82.17h2.298v9.371h5.713v1.916H51.886z"/>
		<path fill="#FFFFFF" d="M65.117,90.834l2.174,0.365c-0.28,0.797-0.721,1.402-1.324,1.82c-0.604,0.416-1.357,0.625-2.263,0.625
			c-1.434,0-2.495-0.469-3.183-1.406c-0.543-0.75-0.815-1.697-0.815-2.84c0-1.367,0.357-2.438,1.071-3.211
			c0.715-0.773,1.617-1.16,2.709-1.16c1.227,0,2.194,0.404,2.904,1.215c0.709,0.811,1.047,2.051,1.016,3.723h-5.465
			c0.016,0.646,0.191,1.15,0.528,1.51s0.755,0.539,1.258,0.539c0.341,0,0.628-0.094,0.861-0.279S64.998,91.248,65.117,90.834z
			 M65.241,88.629c-0.016-0.631-0.179-1.111-0.489-1.439s-0.688-0.494-1.133-0.494c-0.477,0-0.87,0.174-1.181,0.521
			c-0.31,0.346-0.463,0.816-0.458,1.412H65.241z"/>
		<path fill="#FFFFFF" d="M71.789,85.213v1.74h-1.49v3.322c0,0.672,0.014,1.064,0.042,1.176s0.093,0.203,0.194,0.275
			s0.224,0.109,0.369,0.109c0.201,0,0.494-0.07,0.877-0.211l0.186,1.693c-0.507,0.217-1.081,0.326-1.723,0.326
			c-0.394,0-0.748-0.066-1.063-0.199c-0.315-0.131-0.548-0.303-0.694-0.512c-0.148-0.209-0.25-0.492-0.307-0.85
			c-0.047-0.254-0.07-0.766-0.07-1.537v-3.594h-1.002v-1.74h1.002v-1.637l2.189-1.273v2.91H71.789z"/>
		<path fill="#FFFFFF" d="M72.072,82.109h2.181v1.559c0,0.633-0.054,1.131-0.163,1.494c-0.108,0.365-0.314,0.693-0.617,0.982
			c-0.303,0.291-0.688,0.518-1.152,0.684l-0.428-0.9c0.44-0.145,0.754-0.344,0.939-0.598c0.187-0.254,0.285-0.6,0.295-1.041h-1.055
			V82.109z"/>
		<path fill="#FFFFFF" d="M74.598,91.105l2.189-0.334c0.093,0.424,0.281,0.746,0.566,0.967s0.684,0.33,1.195,0.33
			c0.564,0,0.988-0.104,1.273-0.311c0.191-0.145,0.287-0.34,0.287-0.582c0-0.166-0.052-0.303-0.155-0.412
			c-0.108-0.104-0.353-0.199-0.729-0.287c-1.76-0.389-2.875-0.742-3.346-1.063c-0.652-0.445-0.979-1.064-0.979-1.855
			c0-0.715,0.282-1.314,0.846-1.801c0.564-0.486,1.439-0.73,2.625-0.73c1.127,0,1.966,0.184,2.515,0.551
			c0.548,0.367,0.927,0.912,1.134,1.631l-2.058,0.381c-0.089-0.322-0.255-0.568-0.501-0.738s-0.596-0.256-1.052-0.256
			c-0.574,0-0.985,0.08-1.234,0.24c-0.165,0.113-0.248,0.262-0.248,0.443c0,0.154,0.072,0.287,0.218,0.395
			c0.195,0.145,0.875,0.35,2.037,0.613s1.973,0.588,2.434,0.971c0.455,0.389,0.684,0.93,0.684,1.623
			c0,0.756-0.316,1.404-0.947,1.947c-0.632,0.545-1.566,0.816-2.803,0.816c-1.123,0-2.012-0.229-2.666-0.684
			C75.228,92.506,74.799,91.887,74.598,91.105z"/>
		<path fill="#FFFFFF" d="M90.053,85.213v1.74h-1.49v3.322c0,0.672,0.014,1.064,0.042,1.176s0.093,0.203,0.194,0.275
			s0.224,0.109,0.369,0.109c0.201,0,0.494-0.07,0.877-0.211l0.186,1.693c-0.507,0.217-1.081,0.326-1.723,0.326
			c-0.394,0-0.748-0.066-1.063-0.199c-0.315-0.131-0.548-0.303-0.694-0.512c-0.148-0.209-0.25-0.492-0.307-0.85
			c-0.047-0.254-0.07-0.766-0.07-1.537v-3.594h-1.002v-1.74h1.002v-1.637l2.189-1.273v2.91H90.053z"/>
		<path fill="#FFFFFF" d="M92.02,87.729l-1.979-0.357c0.222-0.797,0.605-1.387,1.148-1.77s1.351-0.574,2.422-0.574
			c0.973,0,1.697,0.115,2.174,0.346c0.476,0.23,0.811,0.521,1.005,0.877c0.194,0.354,0.291,1.006,0.291,1.953l-0.023,2.545
			c0,0.725,0.035,1.26,0.104,1.604c0.07,0.344,0.201,0.713,0.393,1.105h-2.158c-0.057-0.145-0.127-0.359-0.209-0.645
			c-0.037-0.129-0.063-0.215-0.078-0.256c-0.373,0.363-0.771,0.635-1.195,0.816c-0.424,0.18-0.877,0.271-1.358,0.271
			c-0.849,0-1.518-0.23-2.007-0.691s-0.733-1.043-0.733-1.746c0-0.467,0.11-0.881,0.333-1.246s0.535-0.645,0.936-0.84
			c0.401-0.193,0.98-0.363,1.735-0.508c1.02-0.191,1.726-0.369,2.119-0.535v-0.217c0-0.42-0.104-0.719-0.311-0.896
			c-0.207-0.18-0.598-0.27-1.172-0.27c-0.388,0-0.69,0.078-0.908,0.23S92.154,87.346,92.02,87.729z M94.938,89.498
			c-0.279,0.094-0.722,0.205-1.327,0.334s-1.002,0.256-1.188,0.381c-0.285,0.201-0.428,0.457-0.428,0.768
			c0,0.307,0.114,0.57,0.342,0.793c0.229,0.223,0.518,0.334,0.869,0.334c0.394,0,0.77-0.131,1.126-0.389
			c0.265-0.197,0.438-0.438,0.521-0.723c0.057-0.186,0.085-0.541,0.085-1.063V89.498z"/>
		<path fill="#FFFFFF" d="M98.055,93.457V82.078h2.182v11.379H98.055z"/>
		<path fill="#FFFFFF" d="M101.219,93.457V82.078h2.181v6.039l2.554-2.904h2.687l-2.817,3.012l3.02,5.232h-2.353l-2.073-3.703
			l-1.017,1.064v2.639H101.219z"/>
	</g>
	<g>
		<path opacity="0.8" fill-rule="evenodd" clip-rule="evenodd" d="M85.525,51.47c4.165,2.388,6.2,6.122,7.011,10.613
			c0.549,3.04-0.148,4.314-2.963,5.654c-3.699,1.761-7.635,1.72-11.586,1.316c-2.223-0.226-4.311-0.884-6.17-2.186
			c-1.133-0.793-1.773-1.904-1.654-3.218c0.421-4.667,2.158-8.686,6.102-11.505c0.256-0.183,0.535-0.334,0.811-0.484
			c0.134-0.074,0.284-0.116,0.414-0.166C81.421,55.292,81.421,55.292,85.525,51.47z"/>
		<path fill-rule="evenodd" clip-rule="evenodd" fill="#EC6421" d="M74.997,12.692c5.704-5.566,15.802-5.444,21.143,0.039
			c4.641,4.765,3.616,11.56-2.33,14.943c-1.001,0.569-1.416,1.161-1.336,2.272c0.078,1.091,0.018,2.189,0.018,3.284
			c-0.105,0.051-0.213,0.101-0.318,0.15c-0.759-0.692-1.57-1.337-2.265-2.092c-1.077-1.167-2.2-2.121-4.281-1.461
			c0.447-0.542,0.63-0.773,0.823-0.996c2.916-3.359,3.026-7.92,0.221-11.376c-2.674-3.292-6.287-4.598-10.406-4.763
			C75.926,12.68,75.585,12.692,74.997,12.692z"/>
		<path opacity="0.8" fill-rule="evenodd" clip-rule="evenodd" d="M66.31,44.602c1.187,1.047,1.844,2.77,3.714,2.688
			c1.74-0.075,2.442-1.694,3.612-2.666c0.77,0.225,1.047,0.66,1.18,1.498c0.251,1.585,0.768,3.13,1.224,4.882
			c-3.239,2.021-5.28,5.325-6.418,9.272c-0.067,0.233-0.484,0.532-0.728,0.521c-2.74-0.115-5.408-0.519-7.735-2.146
			c-0.896-0.626-1.457-1.445-1.507-2.542C59.479,52.431,62.04,46.49,66.31,44.602z"/>
		<path opacity="0.8" fill-rule="evenodd" clip-rule="evenodd" d="M86.517,50.7c1.107-1.462,1.629-3.092,1.594-4.938
			c-0.007-0.355,0.544-0.838,0.947-1.037c0.195-0.095,0.752,0.256,0.964,0.541c0.927,1.245,1.87,2.444,3.669,1.846
			c0.563-0.187,1.082-0.589,1.541-0.985c0.5-0.432,0.908-0.973,1.576-1.711c1.145,1.045,2.377,1.945,3.329,3.08
			c1.87,2.228,2.812,4.894,3.101,7.782c0.156,1.563-0.459,2.734-1.798,3.577c-2.283,1.436-4.827,1.86-7.448,1.924
			c-0.293,0.007-0.758-0.563-0.877-0.947c-0.839-2.721-2.117-5.173-4.199-7.148C88.206,52.01,87.407,51.43,86.517,50.7z"/>
		<path opacity="0.8" fill-rule="evenodd" clip-rule="evenodd" d="M86.952,46.401c0.096,3.387-2.809,5.481-5.248,5.545
			c-3.313,0.085-5.701-2.243-5.813-5.76c-0.087-2.664,2.525-5.284,5.384-5.364C84.144,40.741,87.017,42.952,86.952,46.401z"/>
		<path opacity="0.8" fill-rule="evenodd" clip-rule="evenodd" d="M64.853,39.896c0.01-2.854,2.279-5.084,5.137-5.046
			c2.797,0.037,4.987,2.269,4.974,5.092c-0.016,3.232-2.339,4.921-4.716,5.06C67.142,45.182,64.841,42.875,64.853,39.896z"/>
		<path opacity="0.8" fill-rule="evenodd" clip-rule="evenodd" d="M98.03,39.918c0.006,2.921-2.221,5.146-5.294,5.086
			c-2.625-0.053-4.841-2.236-4.845-5.087c-0.004-2.795,2.24-5.037,5.02-5.065C95.765,34.826,98.026,37.063,98.03,39.918z"/>
		<path fill-rule="evenodd" clip-rule="evenodd" d="M69.716,33.868c0.094-1.2,0.084-2.101,0.256-2.963
			c0.184-0.925-0.066-1.461-0.844-2.046c-3.969-2.991-4.512-7.923-1.296-11.331c1.415-1.5,3.181-2.447,5.19-2.888
			c4.254-0.932,8.172-0.245,11.475,2.725c3.782,3.402,3.494,8.699-0.582,11.735c-2.711,2.018-5.809,2.563-9.08,2.101
			c-0.904-0.129-1.574-0.018-2.264,0.557C71.759,32.436,70.87,33.022,69.716,33.868z M70.946,31.255
			c0.106,0.002,0.213,0.005,0.318,0.007c0.191-0.124,0.41-0.22,0.569-0.376c0.917-0.898,1.914-1.03,3.21-0.825
			c2.836,0.45,5.574-0.018,7.983-1.736c3.719-2.653,3.987-7.129,0.62-10.202c-3.551-3.244-9.798-3.641-13.725-0.872
			c-3.848,2.712-4.104,7.451-0.434,10.403C70.704,28.634,71.8,29.417,70.946,31.255z"/>
		<path fill-rule="evenodd" clip-rule="evenodd" fill="#FFFFFF" d="M70.946,31.255c0.854-1.838-0.242-2.621-1.457-3.602
			c-3.67-2.952-3.414-7.691,0.434-10.403c3.927-2.769,10.174-2.372,13.725,0.872c3.367,3.073,3.099,7.549-0.62,10.202
			c-2.409,1.719-5.147,2.187-7.983,1.736c-1.296-0.205-2.293-0.073-3.21,0.825c-0.159,0.156-0.378,0.252-0.569,0.376
			C71.159,31.26,71.053,31.257,70.946,31.255z"/>
	</g>
</g>
</svg>
