<?xml version="1.0" encoding="utf-8"?>
<!-- Generator: Adobe Illustrator 16.0.0, SVG Export Plug-In . SVG Version: 6.00 Build 0)  -->
<!DOCTYPE svg PUBLIC "-//W3C//DTD SVG 1.1//EN" "http://www.w3.org/Graphics/SVG/1.1/DTD/svg11.dtd">
<svg version="1.1" id="Capa_1" xmlns="http://www.w3.org/2000/svg" xmlns:xlink="http://www.w3.org/1999/xlink" x="0px" y="0px"
	 width="148.078px" height="103.982px" viewBox="0 0 148.078 103.982" enable-background="new 0 0 148.078 103.982"
	 xml:space="preserve">
<g>
	<g>
		<g>
			<polygon fill-rule="evenodd" clip-rule="evenodd" fill="#2D3944" points="0,94.947 17.421,103.982 38.289,95.941 38.287,94.947 
							"/>
			<rect x="17.421" fill-rule="evenodd" clip-rule="evenodd" fill="#87BA4C" width="130.657" height="103.982"/>
			<polygon fill="#162302" points="10.188,94.947 17.42,0.33 17.42,94.947 			"/>
		</g>
	</g>
	<g>
		<path fill="#FFFFFF" d="M46.653,81.039V69.752h2.297v9.371h5.714v1.916H46.653z"/>
		<path fill="#FFFFFF" d="M59.884,78.416l2.174,0.365c-0.279,0.797-0.721,1.402-1.324,1.82c-0.603,0.416-1.357,0.625-2.262,0.625
			c-1.434,0-2.495-0.469-3.184-1.406c-0.543-0.75-0.814-1.697-0.814-2.84c0-1.367,0.357-2.438,1.07-3.211
			c0.715-0.773,1.617-1.16,2.71-1.16c1.227,0,2.194,0.404,2.903,1.215s1.048,2.051,1.017,3.723h-5.465
			c0.016,0.646,0.191,1.15,0.528,1.51c0.336,0.359,0.755,0.539,1.258,0.539c0.341,0,0.628-0.094,0.861-0.279
			C59.589,79.131,59.765,78.83,59.884,78.416z M60.009,76.211c-0.016-0.631-0.18-1.111-0.49-1.439s-0.688-0.494-1.133-0.494
			c-0.477,0-0.869,0.174-1.18,0.521c-0.311,0.346-0.463,0.816-0.458,1.412H60.009z"/>
		<path fill="#FFFFFF" d="M66.556,72.795v1.74h-1.49v3.322c0,0.672,0.014,1.064,0.042,1.176s0.093,0.203,0.194,0.275
			s0.224,0.109,0.369,0.109c0.201,0,0.494-0.07,0.877-0.211l0.186,1.693c-0.507,0.217-1.081,0.326-1.723,0.326
			c-0.394,0-0.748-0.066-1.063-0.199c-0.315-0.131-0.548-0.303-0.694-0.512c-0.148-0.209-0.25-0.492-0.307-0.85
			c-0.047-0.254-0.07-0.766-0.07-1.537v-3.594h-1.002v-1.74h1.002v-1.637l2.189-1.273v2.91H66.556z"/>
		<path fill="#FFFFFF" d="M66.839,69.691h2.181v1.559c0,0.633-0.054,1.131-0.163,1.494c-0.108,0.365-0.314,0.693-0.617,0.982
			c-0.303,0.291-0.688,0.518-1.152,0.684l-0.428-0.9c0.44-0.145,0.754-0.344,0.939-0.598c0.187-0.254,0.285-0.6,0.295-1.041h-1.055
			V69.691z"/>
		<path fill="#FFFFFF" d="M69.364,78.688l2.189-0.334c0.093,0.424,0.281,0.746,0.566,0.967s0.684,0.33,1.195,0.33
			c0.564,0,0.988-0.104,1.273-0.311c0.191-0.145,0.287-0.34,0.287-0.582c0-0.166-0.052-0.303-0.155-0.412
			c-0.108-0.104-0.353-0.199-0.729-0.287c-1.76-0.389-2.875-0.742-3.346-1.063c-0.652-0.445-0.979-1.064-0.979-1.855
			c0-0.715,0.282-1.314,0.846-1.801c0.564-0.486,1.439-0.73,2.625-0.73c1.127,0,1.966,0.184,2.515,0.551
			c0.548,0.367,0.927,0.912,1.134,1.631l-2.058,0.381c-0.089-0.322-0.255-0.568-0.501-0.738s-0.596-0.256-1.052-0.256
			c-0.574,0-0.985,0.08-1.234,0.24c-0.165,0.113-0.248,0.262-0.248,0.443c0,0.154,0.072,0.287,0.218,0.395
			c0.195,0.145,0.875,0.35,2.037,0.613s1.973,0.588,2.434,0.971c0.455,0.389,0.684,0.93,0.684,1.623
			c0,0.756-0.316,1.404-0.947,1.947c-0.632,0.545-1.566,0.816-2.803,0.816c-1.123,0-2.012-0.229-2.666-0.684
			C69.994,80.088,69.565,79.469,69.364,78.688z"/>
		<path fill="#FFFFFF" d="M83.128,81.039h-2.182v-8.244h2.025v1.172c0.348-0.553,0.658-0.918,0.936-1.094s0.592-0.264,0.943-0.264
			c0.496,0,0.976,0.137,1.436,0.412l-0.675,1.9c-0.368-0.238-0.709-0.355-1.024-0.355c-0.306,0-0.564,0.084-0.776,0.252
			s-0.38,0.473-0.501,0.912s-0.182,1.361-0.182,2.764V81.039z"/>
		<path fill="#FFFFFF" d="M90.823,78.416l2.174,0.365c-0.279,0.797-0.721,1.402-1.324,1.82c-0.603,0.416-1.357,0.625-2.262,0.625
			c-1.434,0-2.495-0.469-3.184-1.406c-0.543-0.75-0.814-1.697-0.814-2.84c0-1.367,0.357-2.438,1.07-3.211
			c0.715-0.773,1.617-1.16,2.71-1.16c1.227,0,2.194,0.404,2.903,1.215s1.048,2.051,1.017,3.723h-5.465
			c0.016,0.646,0.191,1.15,0.528,1.51c0.336,0.359,0.755,0.539,1.258,0.539c0.341,0,0.628-0.094,0.861-0.279
			C90.528,79.131,90.704,78.83,90.823,78.416z M90.948,76.211c-0.016-0.631-0.18-1.111-0.49-1.439s-0.688-0.494-1.133-0.494
			c-0.477,0-0.869,0.174-1.18,0.521c-0.311,0.346-0.463,0.816-0.458,1.412H90.948z"/>
		<path fill="#FFFFFF" d="M95.345,75.311l-1.979-0.357c0.222-0.797,0.605-1.387,1.148-1.77s1.351-0.574,2.422-0.574
			c0.973,0,1.697,0.115,2.174,0.346c0.476,0.23,0.811,0.521,1.005,0.877c0.194,0.354,0.291,1.006,0.291,1.953l-0.023,2.545
			c0,0.725,0.035,1.26,0.104,1.604c0.07,0.344,0.201,0.713,0.393,1.105h-2.158c-0.057-0.145-0.127-0.359-0.209-0.645
			c-0.037-0.129-0.063-0.215-0.078-0.256c-0.373,0.363-0.771,0.635-1.195,0.816c-0.424,0.18-0.877,0.271-1.358,0.271
			c-0.849,0-1.518-0.23-2.007-0.691s-0.733-1.043-0.733-1.746c0-0.467,0.11-0.881,0.333-1.246s0.535-0.645,0.936-0.84
			c0.401-0.193,0.98-0.363,1.735-0.508c1.02-0.191,1.726-0.369,2.119-0.535v-0.217c0-0.42-0.104-0.719-0.311-0.896
			c-0.207-0.18-0.598-0.27-1.172-0.27c-0.388,0-0.69,0.078-0.908,0.23S95.479,74.928,95.345,75.311z M98.264,77.08
			c-0.279,0.094-0.722,0.205-1.327,0.334s-1.002,0.256-1.188,0.381c-0.285,0.201-0.428,0.457-0.428,0.768
			c0,0.307,0.114,0.57,0.342,0.793c0.229,0.223,0.518,0.334,0.869,0.334c0.394,0,0.77-0.131,1.126-0.389
			c0.265-0.197,0.438-0.438,0.521-0.723c0.057-0.186,0.085-0.541,0.085-1.063V77.08z"/>
		<path fill="#FFFFFF" d="M108.94,81.039h-2.025v-1.211c-0.337,0.471-0.734,0.822-1.191,1.053c-0.459,0.23-0.92,0.346-1.387,0.346
			c-0.946,0-1.758-0.383-2.434-1.146c-0.675-0.762-1.013-1.828-1.013-3.193c0-1.398,0.329-2.459,0.985-3.188
			c0.658-0.727,1.488-1.09,2.492-1.09c0.922,0,1.719,0.383,2.391,1.148V69.66h2.182V81.039z M103.118,76.738
			c0,0.881,0.122,1.518,0.365,1.91c0.352,0.57,0.844,0.854,1.475,0.854c0.502,0,0.93-0.213,1.281-0.641
			c0.352-0.426,0.527-1.064,0.527-1.912c0-0.947-0.17-1.629-0.512-2.047c-0.342-0.416-0.779-0.625-1.313-0.625
			c-0.518,0-0.95,0.207-1.3,0.617C103.294,75.307,103.118,75.922,103.118,76.738z"/>
		<path fill="#FFFFFF" d="M51.896,92.402l-1.979-0.357c0.223-0.797,0.605-1.387,1.148-1.77c0.543-0.385,1.352-0.576,2.422-0.576
			c0.973,0,1.697,0.115,2.174,0.346s0.812,0.523,1.006,0.877c0.193,0.355,0.291,1.006,0.291,1.953l-0.023,2.547
			c0,0.725,0.035,1.258,0.104,1.602c0.069,0.346,0.2,0.713,0.392,1.107h-2.158c-0.057-0.145-0.127-0.359-0.209-0.645
			c-0.036-0.129-0.063-0.215-0.078-0.256c-0.372,0.361-0.771,0.633-1.195,0.814c-0.424,0.182-0.877,0.271-1.357,0.271
			c-0.85,0-1.518-0.23-2.008-0.691c-0.488-0.459-0.732-1.041-0.732-1.746c0-0.465,0.11-0.881,0.333-1.246s0.534-0.645,0.936-0.838
			s0.979-0.363,1.735-0.508c1.02-0.191,1.726-0.371,2.119-0.537v-0.217c0-0.418-0.104-0.719-0.311-0.896s-0.598-0.268-1.172-0.268
			c-0.389,0-0.691,0.076-0.908,0.229C52.207,91.75,52.03,92.02,51.896,92.402z M54.815,94.172c-0.279,0.092-0.723,0.203-1.328,0.334
			c-0.605,0.129-1.001,0.256-1.188,0.379c-0.285,0.203-0.427,0.459-0.427,0.77c0,0.305,0.114,0.568,0.341,0.791
			c0.229,0.223,0.518,0.334,0.87,0.334c0.394,0,0.769-0.129,1.126-0.389c0.264-0.195,0.438-0.436,0.52-0.721
			c0.057-0.188,0.086-0.541,0.086-1.064V94.172z"/>
		<path fill="#FFFFFF" d="M65.431,98.131h-2.182v-4.207c0-0.891-0.047-1.467-0.14-1.729s-0.245-0.465-0.454-0.609
			s-0.462-0.217-0.757-0.217c-0.378,0-0.717,0.104-1.017,0.311c-0.301,0.207-0.506,0.48-0.617,0.822s-0.167,0.973-0.167,1.895v3.734
			h-2.182v-8.244h2.026v1.211c0.719-0.932,1.625-1.398,2.717-1.398c0.481,0,0.921,0.088,1.32,0.262
			c0.398,0.172,0.699,0.395,0.904,0.662c0.203,0.27,0.346,0.576,0.426,0.916c0.08,0.342,0.121,0.832,0.121,1.469V98.131z"/>
		<path fill="#FFFFFF" d="M74.026,98.131h-2.025V96.92c-0.337,0.471-0.734,0.82-1.191,1.051c-0.459,0.23-0.92,0.346-1.387,0.346
			c-0.946,0-1.758-0.381-2.434-1.145c-0.675-0.764-1.013-1.828-1.013-3.195c0-1.396,0.329-2.459,0.985-3.186
			c0.658-0.727,1.488-1.092,2.492-1.092c0.922,0,1.719,0.385,2.391,1.15v-4.1h2.182V98.131z M68.204,93.83
			c0,0.879,0.122,1.516,0.365,1.91c0.352,0.568,0.844,0.854,1.475,0.854c0.502,0,0.93-0.215,1.281-0.641
			c0.352-0.428,0.527-1.064,0.527-1.914c0-0.947-0.17-1.629-0.512-2.045s-0.779-0.625-1.313-0.625c-0.518,0-0.95,0.205-1.3,0.617
			C68.38,92.398,68.204,93.012,68.204,93.83z"/>
		<path fill="#FFFFFF" d="M79.778,98.131l-2.609-8.244h2.119l1.545,5.402l1.421-5.402h2.104l1.373,5.402l1.576-5.402h2.15
			l-2.647,8.244h-2.096l-1.421-5.303l-1.396,5.303H79.778z"/>
		<path fill="#FFFFFF" d="M91.519,98.131h-2.182v-8.244h2.027v1.172c0.346-0.555,0.658-0.918,0.935-1.094s0.591-0.266,0.943-0.266
			c0.497,0,0.976,0.139,1.437,0.412l-0.676,1.902c-0.367-0.238-0.709-0.357-1.025-0.357c-0.305,0-0.563,0.084-0.775,0.252
			c-0.213,0.168-0.379,0.473-0.501,0.912s-0.183,1.361-0.183,2.764V98.131z"/>
		<path fill="#FFFFFF" d="M94.441,88.768V86.75h2.181v2.018H94.441z M94.441,98.131v-8.244h2.181v8.244H94.441z"/>
		<path fill="#FFFFFF" d="M101.462,89.887v1.738h-1.49v3.322c0,0.674,0.014,1.064,0.043,1.176c0.028,0.111,0.093,0.203,0.193,0.275
			c0.102,0.074,0.225,0.109,0.369,0.109c0.201,0,0.494-0.07,0.877-0.209l0.187,1.691c-0.507,0.217-1.081,0.326-1.724,0.326
			c-0.393,0-0.748-0.066-1.063-0.197c-0.316-0.133-0.548-0.303-0.695-0.514c-0.147-0.209-0.25-0.492-0.307-0.85
			c-0.047-0.254-0.07-0.766-0.07-1.537v-3.594h-1.001v-1.738h1.001v-1.639l2.189-1.273v2.912H101.462z"/>
		<path fill="#FFFFFF" d="M106.573,95.506l2.174,0.365c-0.279,0.797-0.721,1.404-1.324,1.82c-0.603,0.418-1.357,0.625-2.262,0.625
			c-1.434,0-2.495-0.469-3.184-1.404c-0.543-0.75-0.814-1.697-0.814-2.842c0-1.365,0.357-2.436,1.07-3.209
			c0.715-0.773,1.617-1.162,2.71-1.162c1.227,0,2.194,0.406,2.903,1.215c0.709,0.811,1.048,2.051,1.017,3.723h-5.465
			c0.016,0.646,0.191,1.15,0.528,1.51c0.336,0.359,0.755,0.539,1.258,0.539c0.341,0,0.628-0.092,0.861-0.279
			C106.278,96.221,106.454,95.92,106.573,95.506z M106.698,93.303c-0.016-0.633-0.18-1.111-0.49-1.441
			c-0.311-0.328-0.688-0.492-1.133-0.492c-0.477,0-0.869,0.174-1.18,0.52c-0.311,0.348-0.463,0.818-0.458,1.414H106.698z"/>
	</g>
	<g>
		<path fill="#FFFFFF" stroke="#1C1C1C" stroke-miterlimit="10" d="M99.516,11.727l1.787-2.478c0,0,1.217-0.786,2.148,0l4.006,2.791
			c0,0,1.359,1,0,2.575l-1.002,1.574L99.516,11.727z"/>
		<path fill="#EC6421" d="M98.443,13.185l-8.449,13.674L88.35,37.582l8.518-6.153l8.73-14.022L98.443,13.185z M92.436,33.029
			c-0.334-0.447-1.791-0.935-1.791-0.935l0.359-4.265l4.418,2.388C95.422,30.218,92.773,33.479,92.436,33.029z"/>
		<path opacity="0.8" d="M98.848,31.998c-0.975,1.215-2.143,2.644-3.248,3.987v16.828c0,0-5.781-3.025-8.451-2.758
			c-2.668,0.265-4.98,0.443-6.047,1.69V32.621c0,0,2.225-2.957,5.166-3.022c0.092-1.015,0.234-1.96,0.377-2.731
			c-5.086-0.185-7.502,3.351-7.502,3.351s-5.16-7.562-16.277,0H59.84v1.78h-2.402V58.95h6.406c0,0,3.961-2.844,6.938-3.022
			c2.936-0.18,7.293,3.291,8.361,3.38c1.068-0.089,5.426-3.56,8.363-3.38c2.977,0.179,6.938,3.022,6.938,3.022h6.404V31.998H98.848z
			 M77.186,51.746c-1.066-1.247-3.379-1.426-6.049-1.69c-2.668-0.268-8.451,2.758-8.451,2.758V32.621
			c2.225-0.09,5.871-2.848,8.984-3.026c3.115-0.177,5.516,3.026,5.516,3.026V51.746z"/>
		<path opacity="0.8" fill-rule="evenodd" clip-rule="evenodd" d="M72.287,18.446c-0.281,0.229-0.51,0.509-0.801,0.632
			c-0.836,0.351-1.668-0.268-1.67-1.212c-0.006-2.912-0.002-5.825-0.002-8.736c0-0.413-0.006-0.823,0-1.234
			c0.012-0.748,0.523-1.275,1.236-1.275c0.717,0,1.229,0.516,1.238,1.271c0.01,0.87,0.004,1.742,0.004,2.611c0,0.114,0,0.23,0,0.411
			c0.563-0.419,1.121-0.655,1.771-0.691c1.152-0.065,2.109,0.324,2.893,1.148c1.783,1.879,1.689,5.217-0.189,6.989
			c-0.891,0.839-1.945,1.121-3.145,0.891C73.066,19.141,72.627,18.837,72.287,18.446z M75.805,14.805
			c-0.078-0.569-0.186-1.08-0.512-1.53c-0.623-0.857-1.924-0.862-2.551-0.01c-0.59,0.803-0.59,2.206,0,3.003
			c0.686,0.928,2.084,0.871,2.633-0.143C75.592,15.725,75.666,15.247,75.805,14.805z"/>
		<path fill-rule="evenodd" clip-rule="evenodd" fill="#EC6421" d="M65.424,24.963c-1.1,1.327-3.23,1.12-4.361,0.119
			c-1.311-1.159-1.762-2.647-1.598-4.343c0.123-1.261,0.631-2.349,1.629-3.168c0.902-0.736,1.945-0.978,3.061-0.671
			c0.465,0.128,0.875,0.459,1.336,0.711c0.238-0.367,0.594-0.692,1.178-0.664c0.633,0.032,1.168,0.513,1.172,1.15
			c0.014,2.154,0.01,4.307,0.002,6.459c-0.002,0.499-0.355,0.947-0.807,1.102c-0.504,0.176-0.994,0.051-1.348-0.35
			C65.6,25.209,65.525,25.099,65.424,24.963z M61.875,21.367c0.096,0.353,0.16,0.788,0.332,1.176
			c0.27,0.614,0.777,0.947,1.461,0.937c0.668-0.009,1.146-0.338,1.426-0.941c0.328-0.71,0.352-1.447,0.096-2.182
			c-0.268-0.767-0.814-1.154-1.572-1.151c-0.725,0.004-1.27,0.403-1.525,1.162C61.992,20.659,61.959,20.975,61.875,21.367z"/>
		<path fill-rule="evenodd" clip-rule="evenodd" fill="#EC6421" d="M83.332,16.777c0.84,0.033,1.631,0.111,2.332,0.551
			c0.543,0.341,0.746,0.844,0.602,1.463c-0.15,0.656-0.752,0.965-1.438,0.739c-0.34-0.111-0.682-0.27-1.033-0.309
			c-1.248-0.136-2.078,0.589-2.154,1.873c-0.02,0.329,0.012,0.679,0.094,1.001c0.295,1.146,1.145,1.599,2.379,1.289
			c0.244-0.063,0.48-0.155,0.721-0.237c0.596-0.206,0.988-0.09,1.285,0.383c0.297,0.475,0.26,1.092-0.178,1.45
			c-0.338,0.277-0.734,0.525-1.146,0.661c-2.877,0.932-5.514-0.936-5.645-3.96c-0.041-0.921,0.082-1.805,0.512-2.631
			C80.439,17.553,81.682,16.799,83.332,16.777z"/>
	</g>
</g>
</svg>
