<?xml version="1.0" encoding="utf-8"?>
<!-- Generator: Adobe Illustrator 16.0.0, SVG Export Plug-In . SVG Version: 6.00 Build 0)  -->
<!DOCTYPE svg PUBLIC "-//W3C//DTD SVG 1.1//EN" "http://www.w3.org/Graphics/SVG/1.1/DTD/svg11.dtd">
<svg version="1.1" id="Capa_1" xmlns="http://www.w3.org/2000/svg" xmlns:xlink="http://www.w3.org/1999/xlink" x="0px" y="0px"
	 width="148.078px" height="103.982px" viewBox="0 0 148.078 103.982" enable-background="new 0 0 148.078 103.982"
	 xml:space="preserve">
<g>
	<g>
		<g>
			<polygon fill-rule="evenodd" clip-rule="evenodd" fill="#2D3944" points="0,94.947 17.42,103.982 38.289,95.941 38.287,94.947 
							"/>
			<rect x="17.42" fill-rule="evenodd" clip-rule="evenodd" fill="#FAF19D" width="130.658" height="103.982"/>
			<polygon fill="#2D0F01" points="10.188,94.947 17.42,0.33 17.42,94.947 			"/>
		</g>
	</g>
	<g>
		<path fill="#222323" d="M52.324,76.855v-1.918h4.952v4.533c-0.48,0.467-1.178,0.877-2.092,1.23
			c-0.913,0.355-1.838,0.533-2.775,0.533c-1.189,0-2.228-0.25-3.112-0.75s-1.55-1.213-1.995-2.143
			c-0.445-0.928-0.668-1.939-0.668-3.031c0-1.186,0.249-2.238,0.746-3.16c0.496-0.92,1.224-1.627,2.182-2.119
			c0.729-0.377,1.637-0.566,2.725-0.566c1.412,0,2.516,0.297,3.311,0.889c0.794,0.594,1.305,1.412,1.533,2.457l-2.283,0.428
			c-0.16-0.559-0.461-1-0.904-1.324c-0.441-0.322-0.994-0.484-1.656-0.484c-1.005,0-1.803,0.318-2.396,0.955
			s-0.889,1.58-0.889,2.832c0,1.352,0.3,2.365,0.9,3.039c0.601,0.676,1.387,1.014,2.36,1.014c0.48,0,0.963-0.094,1.447-0.283
			s0.899-0.418,1.246-0.688v-1.443H52.324z"/>
		<path fill="#222323" d="M60.293,81.039h-2.182v-8.244h2.026v1.172c0.347-0.553,0.658-0.918,0.936-1.094
			c0.276-0.176,0.591-0.264,0.943-0.264c0.496,0,0.975,0.137,1.436,0.412l-0.676,1.9c-0.367-0.238-0.709-0.355-1.024-0.355
			c-0.306,0-0.563,0.084-0.776,0.252c-0.212,0.168-0.379,0.473-0.5,0.912c-0.122,0.439-0.183,1.361-0.183,2.764V81.039z"/>
		<path fill="#222323" d="M64.845,75.311l-1.979-0.357c0.222-0.797,0.605-1.387,1.148-1.77s1.351-0.574,2.422-0.574
			c0.973,0,1.697,0.115,2.174,0.346c0.476,0.23,0.811,0.521,1.005,0.877c0.194,0.354,0.291,1.006,0.291,1.953l-0.023,2.545
			c0,0.725,0.035,1.26,0.104,1.604c0.07,0.344,0.201,0.713,0.393,1.105h-2.158c-0.057-0.145-0.127-0.359-0.209-0.645
			c-0.037-0.129-0.063-0.215-0.078-0.256c-0.373,0.363-0.771,0.635-1.195,0.816c-0.424,0.18-0.877,0.271-1.358,0.271
			c-0.849,0-1.518-0.23-2.007-0.691s-0.733-1.043-0.733-1.746c0-0.467,0.11-0.881,0.333-1.246s0.535-0.645,0.936-0.84
			c0.401-0.193,0.98-0.363,1.735-0.508c1.02-0.191,1.726-0.369,2.119-0.535v-0.217c0-0.42-0.104-0.719-0.311-0.896
			c-0.207-0.18-0.598-0.27-1.172-0.27c-0.388,0-0.69,0.078-0.908,0.23S64.979,74.928,64.845,75.311z M67.764,77.08
			c-0.279,0.094-0.722,0.205-1.327,0.334s-1.002,0.256-1.188,0.381c-0.285,0.201-0.428,0.457-0.428,0.768
			c0,0.307,0.114,0.57,0.342,0.793c0.229,0.223,0.518,0.334,0.869,0.334c0.394,0,0.77-0.131,1.126-0.389
			c0.265-0.197,0.438-0.438,0.521-0.723c0.057-0.186,0.085-0.541,0.085-1.063V77.08z"/>
		<path fill="#222323" d="M70.718,72.795h2.01v1.127c0.72-0.875,1.576-1.313,2.57-1.313c0.527,0,0.985,0.109,1.373,0.326
			c0.389,0.217,0.707,0.545,0.955,0.986c0.362-0.441,0.754-0.77,1.172-0.986c0.42-0.217,0.867-0.326,1.344-0.326
			c0.605,0,1.117,0.123,1.537,0.369c0.419,0.246,0.732,0.605,0.939,1.082c0.149,0.352,0.225,0.922,0.225,1.709v5.27h-2.182v-4.711
			c0-0.818-0.074-1.346-0.225-1.584c-0.202-0.311-0.513-0.467-0.932-0.467c-0.306,0-0.593,0.094-0.861,0.281
			c-0.27,0.186-0.464,0.459-0.582,0.818c-0.119,0.359-0.18,0.928-0.18,1.703v3.959h-2.181v-4.518c0-0.803-0.039-1.32-0.116-1.553
			c-0.078-0.232-0.198-0.406-0.361-0.52s-0.385-0.172-0.664-0.172c-0.336,0-0.639,0.092-0.908,0.273
			c-0.27,0.18-0.461,0.441-0.578,0.783c-0.116,0.342-0.174,0.908-0.174,1.699v4.006h-2.182V72.795z"/>
		<path fill="#222323" d="M83.677,72.795h2.01v1.127c0.72-0.875,1.576-1.313,2.57-1.313c0.527,0,0.985,0.109,1.373,0.326
			c0.389,0.217,0.707,0.545,0.955,0.986c0.362-0.441,0.754-0.77,1.172-0.986c0.42-0.217,0.867-0.326,1.344-0.326
			c0.605,0,1.117,0.123,1.537,0.369c0.419,0.246,0.732,0.605,0.939,1.082c0.149,0.352,0.225,0.922,0.225,1.709v5.27H93.62v-4.711
			c0-0.818-0.074-1.346-0.225-1.584c-0.202-0.311-0.513-0.467-0.932-0.467c-0.306,0-0.593,0.094-0.861,0.281
			c-0.27,0.186-0.464,0.459-0.582,0.818c-0.119,0.359-0.18,0.928-0.18,1.703v3.959H88.66v-4.518c0-0.803-0.039-1.32-0.116-1.553
			c-0.078-0.232-0.198-0.406-0.361-0.52s-0.385-0.172-0.664-0.172c-0.336,0-0.639,0.092-0.908,0.273
			c-0.27,0.18-0.461,0.441-0.578,0.783c-0.116,0.342-0.174,0.908-0.174,1.699v4.006h-2.182V72.795z"/>
		<path fill="#222323" d="M98.429,75.311l-1.979-0.357c0.222-0.797,0.605-1.387,1.148-1.77s1.351-0.574,2.422-0.574
			c0.973,0,1.697,0.115,2.174,0.346c0.476,0.23,0.811,0.521,1.005,0.877c0.194,0.354,0.291,1.006,0.291,1.953l-0.023,2.545
			c0,0.725,0.035,1.26,0.104,1.604c0.07,0.344,0.201,0.713,0.393,1.105h-2.158c-0.057-0.145-0.127-0.359-0.209-0.645
			c-0.037-0.129-0.063-0.215-0.078-0.256c-0.373,0.363-0.771,0.635-1.195,0.816c-0.424,0.18-0.877,0.271-1.358,0.271
			c-0.849,0-1.518-0.23-2.007-0.691s-0.733-1.043-0.733-1.746c0-0.467,0.11-0.881,0.333-1.246s0.535-0.645,0.936-0.84
			c0.401-0.193,0.98-0.363,1.735-0.508c1.02-0.191,1.726-0.369,2.119-0.535v-0.217c0-0.42-0.104-0.719-0.311-0.896
			c-0.207-0.18-0.598-0.27-1.172-0.27c-0.388,0-0.69,0.078-0.908,0.23S98.563,74.928,98.429,75.311z M101.348,77.08
			c-0.279,0.094-0.722,0.205-1.327,0.334s-1.002,0.256-1.188,0.381c-0.285,0.201-0.428,0.457-0.428,0.768
			c0,0.307,0.114,0.57,0.342,0.793c0.229,0.223,0.518,0.334,0.869,0.334c0.394,0,0.77-0.131,1.126-0.389
			c0.265-0.197,0.438-0.438,0.521-0.723c0.057-0.186,0.085-0.541,0.085-1.063V77.08z"/>
		<path fill="#222323" d="M106.553,81.039h-2.182v-8.244h2.026v1.172c0.347-0.553,0.658-0.918,0.936-1.094
			c0.276-0.176,0.591-0.264,0.943-0.264c0.496,0,0.975,0.137,1.436,0.412l-0.676,1.9c-0.367-0.238-0.709-0.355-1.024-0.355
			c-0.306,0-0.563,0.084-0.776,0.252c-0.212,0.168-0.379,0.473-0.5,0.912c-0.122,0.439-0.183,1.361-0.183,2.764V81.039z"/>
		<path fill="#222323" d="M59.489,89.887h2.033v1.211c0.265-0.414,0.621-0.75,1.072-1.01c0.449-0.258,0.949-0.389,1.498-0.389
			c0.957,0,1.77,0.377,2.438,1.127s1.001,1.795,1.001,3.135c0,1.377-0.337,2.447-1.009,3.211c-0.673,0.764-1.488,1.145-2.445,1.145
			c-0.455,0-0.869-0.09-1.238-0.271c-0.37-0.182-0.76-0.492-1.168-0.932v4.152h-2.182V89.887z M61.647,93.869
			c0,0.926,0.184,1.609,0.551,2.053s0.815,0.664,1.344,0.664c0.506,0,0.928-0.203,1.265-0.609s0.505-1.072,0.505-2
			c0-0.863-0.174-1.506-0.521-1.924c-0.347-0.42-0.776-0.629-1.288-0.629c-0.533,0-0.977,0.205-1.328,0.617
			C61.823,92.451,61.647,93.061,61.647,93.869z"/>
		<path fill="#222323" d="M67.581,93.893c0-0.725,0.179-1.426,0.536-2.104c0.356-0.68,0.862-1.197,1.518-1.553
			c0.654-0.357,1.386-0.537,2.192-0.537c1.248,0,2.27,0.406,3.066,1.215c0.797,0.811,1.195,1.834,1.195,3.07
			c0,1.248-0.402,2.281-1.207,3.102s-1.817,1.23-3.039,1.23c-0.756,0-1.477-0.17-2.162-0.512s-1.207-0.842-1.563-1.502
			C67.76,95.643,67.581,94.84,67.581,93.893z M69.817,94.008c0,0.818,0.193,1.445,0.582,1.879c0.389,0.436,0.867,0.652,1.436,0.652
			c0.57,0,1.047-0.217,1.433-0.652c0.386-0.434,0.578-1.066,0.578-1.895c0-0.807-0.192-1.428-0.578-1.863
			c-0.386-0.434-0.862-0.65-1.433-0.65c-0.568,0-1.047,0.217-1.436,0.65C70.011,92.564,69.817,93.191,69.817,94.008z"/>
		<path fill="#222323" d="M76.62,88.768V86.75h2.182v2.018H76.62z M76.62,98.131v-8.244h2.182v8.244H76.62z"/>
		<path fill="#222323" d="M87.36,98.131h-2.182v-4.207c0-0.891-0.047-1.467-0.141-1.729c-0.093-0.262-0.244-0.465-0.453-0.609
			c-0.21-0.145-0.463-0.217-0.758-0.217c-0.377,0-0.717,0.104-1.017,0.311s-0.506,0.48-0.617,0.822s-0.167,0.973-0.167,1.895v3.734
			h-2.182v-8.244h2.027v1.211c0.719-0.932,1.625-1.398,2.717-1.398c0.48,0,0.92,0.088,1.319,0.262
			c0.398,0.172,0.7,0.395,0.904,0.662c0.204,0.27,0.347,0.576,0.427,0.916c0.08,0.342,0.121,0.832,0.121,1.469V98.131z"/>
		<path fill="#222323" d="M92.175,89.887v1.738h-1.49v3.322c0,0.674,0.015,1.064,0.043,1.176c0.029,0.111,0.094,0.203,0.194,0.275
			c0.101,0.074,0.224,0.109,0.368,0.109c0.202,0,0.494-0.07,0.877-0.209l0.188,1.691c-0.508,0.217-1.082,0.326-1.724,0.326
			c-0.394,0-0.748-0.066-1.063-0.197c-0.316-0.133-0.547-0.303-0.695-0.514c-0.146-0.209-0.25-0.492-0.307-0.85
			c-0.047-0.254-0.069-0.766-0.069-1.537v-3.594h-1.001v-1.738h1.001v-1.639l2.188-1.273v2.912H92.175z"/>
		<path fill="#222323" d="M91.744,95.777l2.188-0.332c0.094,0.424,0.283,0.746,0.567,0.965c0.284,0.221,0.683,0.33,1.195,0.33
			c0.563,0,0.988-0.104,1.272-0.311c0.191-0.145,0.288-0.338,0.288-0.582c0-0.166-0.052-0.303-0.155-0.41
			c-0.109-0.104-0.352-0.199-0.73-0.287c-1.759-0.389-2.874-0.744-3.346-1.064c-0.651-0.445-0.978-1.063-0.978-1.855
			c0-0.715,0.282-1.314,0.847-1.801c0.563-0.486,1.438-0.73,2.623-0.73c1.129,0,1.967,0.186,2.516,0.553s0.926,0.91,1.133,1.629
			l-2.057,0.381c-0.088-0.32-0.255-0.566-0.501-0.738c-0.245-0.17-0.597-0.256-1.052-0.256c-0.574,0-0.986,0.08-1.234,0.24
			c-0.166,0.115-0.248,0.262-0.248,0.443c0,0.156,0.072,0.287,0.217,0.396c0.197,0.145,0.876,0.35,2.038,0.613
			c1.161,0.264,1.973,0.586,2.434,0.971c0.455,0.387,0.683,0.928,0.683,1.621c0,0.756-0.315,1.406-0.947,1.949
			c-0.631,0.543-1.564,0.814-2.802,0.814c-1.123,0-2.012-0.227-2.667-0.684C92.374,97.178,91.946,96.561,91.744,95.777z"/>
	</g>
	<g>
		<path opacity="0.8" fill-rule="evenodd" clip-rule="evenodd" d="M92.6,37.177c0-8.059,0-15.991,0-23.955
			c-10.365,0-20.713,0-31.08,0c0,10.341,0,20.67,0,31.044c4.818,0,9.635,0,14.467,0c-0.211,1.071-0.123,2.05,0.518,2.981
			c-0.145,0.011-0.246,0.025-0.348,0.025c-4.871,0.002-9.744,0.003-14.615-0.002c-1.822,0-3.035-1.208-3.037-3.024
			c-0.002-10.346-0.002-20.693,0.002-31.04c0-1.773,1.174-2.96,2.941-3.005c0.072-0.002,0.146-0.001,0.221-0.001
			c10.248,0,20.496-0.001,30.744,0.006c0.4,0,0.818,0.03,1.199,0.143c1.141,0.337,1.93,1.393,1.947,2.589
			c0.021,1.316,0.01,2.633,0.01,3.95c0,5.635-0.002,11.271,0.006,16.904c0.002,0.298-0.094,0.495-0.303,0.699
			C94.396,35.35,93.541,36.228,92.6,37.177z"/>
		<path fill-rule="evenodd" clip-rule="evenodd" fill="#EC6421" d="M87.619,46.063c0.967-1.098,1.896-2.179,2.852-3.237
			c2.916-3.236,5.887-6.424,9.221-9.241c0.99-0.839,2.064-1.589,3.146-2.312c0.756-0.507,1.604-0.866,2.561-0.799
			c0.623,0.044,1.154,0.268,1.449,0.856c0.293,0.589,0.117,1.145-0.266,1.613c-0.398,0.482-0.834,0.94-1.291,1.366
			c-3.527,3.283-6.66,6.897-9.293,10.94c-2.576,3.959-4.688,8.155-6.438,12.537c-0.297,0.743-0.922,1.075-1.527,0.761
			c-0.234-0.121-0.436-0.356-0.58-0.585c-1.309-2.081-2.555-4.201-3.91-6.25c-1.328-2.007-2.914-3.827-4.768-5.359
			c-1.029-0.851-0.527-2.531,0.652-2.885c0.74-0.222,1.463-0.135,2.182,0.047c1.896,0.477,3.633,1.345,5.365,2.22
			C87.184,45.842,87.391,45.948,87.619,46.063z"/>
		<path fill-rule="evenodd" clip-rule="evenodd" fill="#EC6421" d="M76.215,34.304c-0.287,0.233-0.518,0.519-0.816,0.644
			c-0.852,0.356-1.697-0.272-1.697-1.234c-0.008-2.963-0.004-5.926-0.004-8.89c0-0.417-0.004-0.836,0.002-1.254
			c0.01-0.762,0.533-1.299,1.258-1.299c0.729,0,1.25,0.525,1.26,1.295c0.012,0.885,0.004,1.771,0.004,2.656c0,0.117,0,0.235,0,0.418
			c0.572-0.427,1.141-0.666,1.803-0.703c1.172-0.066,2.146,0.33,2.943,1.17c1.813,1.909,1.719,5.307-0.195,7.111
			c-0.904,0.853-1.979,1.14-3.197,0.903C77.008,35.011,76.561,34.701,76.215,34.304z M79.793,30.599
			c-0.08-0.579-0.188-1.099-0.52-1.556c-0.635-0.874-1.957-0.879-2.596-0.011c-0.6,0.815-0.6,2.244,0,3.056
			c0.699,0.943,2.119,0.886,2.68-0.147C79.578,31.534,79.652,31.048,79.793,30.599z"/>
		<path opacity="0.8" fill-rule="evenodd" clip-rule="evenodd" d="M70.133,34.257c-1.119,1.35-3.287,1.141-4.439,0.12
			c-1.334-1.18-1.791-2.695-1.625-4.418c0.125-1.283,0.643-2.393,1.658-3.224c0.918-0.751,1.979-0.996,3.113-0.683
			c0.475,0.131,0.893,0.467,1.361,0.723c0.24-0.373,0.604-0.704,1.197-0.675c0.645,0.032,1.188,0.521,1.193,1.172
			c0.012,2.189,0.01,4.38,0,6.569c-0.002,0.508-0.361,0.965-0.82,1.122c-0.512,0.178-1.012,0.05-1.373-0.357
			C70.311,34.506,70.236,34.394,70.133,34.257z M66.521,30.598c0.098,0.358,0.164,0.801,0.336,1.196
			c0.275,0.625,0.793,0.963,1.488,0.953c0.678-0.009,1.166-0.347,1.449-0.959c0.336-0.723,0.359-1.472,0.1-2.22
			c-0.273-0.781-0.828-1.175-1.6-1.17c-0.738,0.004-1.293,0.409-1.553,1.181C66.641,29.877,66.605,30.198,66.521,30.598z"/>
		<path opacity="0.8" fill-rule="evenodd" clip-rule="evenodd" d="M87.025,25.926c0.855,0.034,1.66,0.114,2.375,0.561
			c0.551,0.347,0.76,0.859,0.613,1.489c-0.154,0.669-0.766,0.98-1.463,0.753c-0.348-0.114-0.693-0.275-1.053-0.315
			c-1.27-0.138-2.113,0.601-2.191,1.904c-0.021,0.338,0.012,0.693,0.096,1.021c0.299,1.164,1.164,1.625,2.42,1.311
			c0.248-0.062,0.49-0.157,0.732-0.241c0.607-0.209,1.008-0.091,1.309,0.391c0.303,0.481,0.264,1.109-0.18,1.475
			c-0.344,0.282-0.748,0.536-1.168,0.672c-2.928,0.949-5.609-0.949-5.744-4.026c-0.039-0.939,0.086-1.839,0.521-2.679
			C84.086,26.715,85.348,25.948,87.025,25.926z"/>
	</g>
</g>
</svg>
