<?xml version="1.0" encoding="utf-8"?>
<!-- Generator: Adobe Illustrator 16.0.0, SVG Export Plug-In . SVG Version: 6.00 Build 0)  -->
<!DOCTYPE svg PUBLIC "-//W3C//DTD SVG 1.1//EN" "http://www.w3.org/Graphics/SVG/1.1/DTD/svg11.dtd">
<svg version="1.1" id="Capa_1" xmlns="http://www.w3.org/2000/svg" xmlns:xlink="http://www.w3.org/1999/xlink" x="0px" y="0px"
	 width="148.078px" height="103.982px" viewBox="0 0 148.078 103.982" enable-background="new 0 0 148.078 103.982"
	 xml:space="preserve">
<g>
	<g>
		<g>
			<polygon fill-rule="evenodd" clip-rule="evenodd" fill="#2D3944" points="0,94.947 17.422,103.982 38.289,95.941 38.287,94.947 
							"/>
			<rect x="17.422" fill-rule="evenodd" clip-rule="evenodd" fill="#87BA4C" width="130.656" height="103.982"/>
			<polygon fill="#162302" points="10.188,94.947 17.42,0.33 17.42,94.947 			"/>
		</g>
	</g>
	<g>
		<path fill="#FFFFFF" d="M45.813,81.039L41.745,69.66h2.492l2.881,8.422l2.786-8.422h2.438l-4.075,11.379H45.813z"/>
		<path fill="#FFFFFF" d="M51.817,76.801c0-0.725,0.179-1.426,0.536-2.104c0.356-0.678,0.862-1.195,1.518-1.553
			c0.654-0.357,1.386-0.535,2.192-0.535c1.248,0,2.27,0.404,3.066,1.215s1.195,1.834,1.195,3.07c0,1.246-0.402,2.281-1.207,3.102
			s-1.817,1.23-3.039,1.23c-0.756,0-1.477-0.172-2.162-0.514s-1.207-0.842-1.563-1.502C51.996,78.551,51.817,77.748,51.817,76.801z
			 M54.054,76.918c0,0.816,0.193,1.443,0.582,1.879c0.389,0.434,0.867,0.65,1.436,0.65c0.57,0,1.047-0.217,1.433-0.65
			c0.386-0.436,0.578-1.066,0.578-1.895c0-0.809-0.192-1.428-0.578-1.863s-0.862-0.652-1.433-0.652
			c-0.568,0-1.047,0.217-1.436,0.652S54.054,76.1,54.054,76.918z"/>
		<path fill="#FFFFFF" d="M68.045,75.232l-2.15,0.389c-0.073-0.43-0.237-0.752-0.493-0.971c-0.256-0.217-0.588-0.326-0.998-0.326
			c-0.543,0-0.977,0.188-1.3,0.563c-0.323,0.377-0.485,1.004-0.485,1.883c0,0.979,0.164,1.67,0.493,2.072
			c0.329,0.404,0.771,0.605,1.323,0.605c0.414,0,0.754-0.117,1.018-0.352c0.264-0.236,0.45-0.641,0.559-1.215l2.143,0.363
			c-0.223,0.984-0.649,1.727-1.281,2.229c-0.631,0.502-1.477,0.754-2.538,0.754c-1.206,0-2.167-0.381-2.884-1.143
			c-0.717-0.76-1.075-1.813-1.075-3.158c0-1.361,0.36-2.422,1.079-3.18s1.692-1.137,2.919-1.137c1.004,0,1.802,0.217,2.395,0.648
			S67.786,74.348,68.045,75.232z"/>
		<path fill="#FFFFFF" d="M70.152,75.311l-1.979-0.357c0.223-0.797,0.605-1.387,1.148-1.77s1.352-0.574,2.422-0.574
			c0.973,0,1.697,0.115,2.174,0.346s0.812,0.521,1.006,0.877c0.193,0.354,0.291,1.006,0.291,1.953L75.19,78.33
			c0,0.725,0.035,1.26,0.104,1.604s0.2,0.713,0.392,1.105h-2.158c-0.057-0.145-0.127-0.359-0.209-0.645
			c-0.036-0.129-0.063-0.215-0.078-0.256c-0.372,0.363-0.771,0.635-1.195,0.816c-0.424,0.18-0.877,0.271-1.357,0.271
			c-0.85,0-1.518-0.23-2.008-0.691c-0.488-0.461-0.732-1.043-0.732-1.746c0-0.467,0.11-0.881,0.333-1.246s0.534-0.645,0.936-0.84
			c0.401-0.193,0.979-0.363,1.735-0.508c1.02-0.191,1.726-0.369,2.119-0.535v-0.217c0-0.42-0.104-0.719-0.311-0.896
			c-0.207-0.18-0.598-0.27-1.172-0.27c-0.389,0-0.691,0.078-0.908,0.23C70.463,74.66,70.286,74.928,70.152,75.311z M73.071,77.08
			c-0.279,0.094-0.723,0.205-1.328,0.334s-1.001,0.256-1.188,0.381c-0.285,0.201-0.427,0.457-0.427,0.768
			c0,0.307,0.114,0.57,0.341,0.793c0.229,0.223,0.518,0.334,0.87,0.334c0.394,0,0.769-0.131,1.126-0.389
			c0.264-0.197,0.438-0.438,0.52-0.723c0.057-0.186,0.086-0.541,0.086-1.063V77.08z"/>
		<path fill="#FFFFFF" d="M76.094,81.039V69.66h2.182v4.098c0.673-0.766,1.47-1.148,2.391-1.148c1.004,0,1.835,0.363,2.491,1.09
			c0.658,0.729,0.986,1.771,0.986,3.133c0,1.408-0.335,2.492-1.005,3.252c-0.671,0.762-1.484,1.143-2.441,1.143
			c-0.472,0-0.936-0.119-1.394-0.354c-0.458-0.236-0.853-0.584-1.184-1.045v1.211H76.094z M78.26,76.738
			c0,0.855,0.134,1.486,0.403,1.895c0.378,0.58,0.88,0.869,1.506,0.869c0.481,0,0.892-0.205,1.23-0.617
			c0.34-0.41,0.509-1.059,0.509-1.943c0-0.943-0.171-1.621-0.513-2.039c-0.342-0.416-0.779-0.625-1.312-0.625
			c-0.522,0-0.958,0.203-1.304,0.609C78.433,75.293,78.26,75.91,78.26,76.738z"/>
		<path fill="#FFFFFF" d="M90.147,81.039v-1.234c-0.3,0.441-0.694,0.787-1.184,1.041c-0.488,0.254-1.006,0.381-1.549,0.381
			c-0.554,0-1.051-0.123-1.49-0.365c-0.439-0.244-0.758-0.586-0.955-1.025c-0.196-0.439-0.295-1.047-0.295-1.824v-5.217h2.182v3.789
			c0,1.158,0.04,1.869,0.12,2.131c0.081,0.262,0.227,0.469,0.438,0.621c0.213,0.152,0.481,0.229,0.808,0.229
			c0.372,0,0.706-0.102,1.001-0.307s0.497-0.457,0.605-0.76c0.109-0.303,0.164-1.045,0.164-2.225v-3.479h2.181v8.244H90.147z"/>
		<path fill="#FFFFFF" d="M93.257,81.039V69.66h2.181v11.379H93.257z"/>
		<path fill="#FFFFFF" d="M98.127,75.311l-1.979-0.357c0.223-0.797,0.605-1.387,1.148-1.77s1.352-0.574,2.422-0.574
			c0.973,0,1.697,0.115,2.174,0.346s0.812,0.521,1.006,0.877c0.193,0.354,0.291,1.006,0.291,1.953l-0.023,2.545
			c0,0.725,0.035,1.26,0.104,1.604s0.2,0.713,0.392,1.105h-2.158c-0.057-0.145-0.127-0.359-0.209-0.645
			c-0.036-0.129-0.063-0.215-0.078-0.256c-0.372,0.363-0.771,0.635-1.195,0.816c-0.424,0.18-0.877,0.271-1.357,0.271
			c-0.85,0-1.518-0.23-2.008-0.691c-0.488-0.461-0.732-1.043-0.732-1.746c0-0.467,0.11-0.881,0.333-1.246s0.534-0.645,0.936-0.84
			c0.401-0.193,0.979-0.363,1.735-0.508c1.02-0.191,1.726-0.369,2.119-0.535v-0.217c0-0.42-0.104-0.719-0.311-0.896
			c-0.207-0.18-0.598-0.27-1.172-0.27c-0.389,0-0.691,0.078-0.908,0.23C98.438,74.66,98.261,74.928,98.127,75.311z M101.046,77.08
			c-0.279,0.094-0.723,0.205-1.328,0.334s-1.001,0.256-1.188,0.381c-0.285,0.201-0.427,0.457-0.427,0.768
			c0,0.307,0.114,0.57,0.341,0.793c0.229,0.223,0.518,0.334,0.87,0.334c0.394,0,0.769-0.131,1.126-0.389
			c0.264-0.197,0.438-0.438,0.52-0.723c0.057-0.186,0.086-0.541,0.086-1.063V77.08z"/>
		<path fill="#FFFFFF" d="M106.251,81.039h-2.182v-8.244h2.025v1.172c0.348-0.553,0.658-0.918,0.936-1.094s0.592-0.264,0.943-0.264
			c0.496,0,0.976,0.137,1.436,0.412l-0.675,1.9c-0.368-0.238-0.709-0.355-1.024-0.355c-0.306,0-0.564,0.084-0.776,0.252
			s-0.38,0.473-0.501,0.912s-0.182,1.361-0.182,2.764V81.039z"/>
		<path fill="#FFFFFF" d="M108.14,72.795h2.321l1.972,5.854l1.926-5.854h2.258l-2.91,7.934l-0.521,1.438
			c-0.191,0.48-0.374,0.848-0.548,1.102c-0.173,0.254-0.372,0.459-0.598,0.617c-0.225,0.158-0.502,0.281-0.83,0.369
			s-0.699,0.131-1.113,0.131c-0.42,0-0.831-0.043-1.234-0.131l-0.194-1.709c0.341,0.068,0.649,0.102,0.924,0.102
			c0.507,0,0.882-0.148,1.126-0.447c0.242-0.297,0.429-0.676,0.559-1.137L108.14,72.795z"/>
		<path fill="#FFFFFF" d="M59.013,98.131V86.75h2.182v4.1c0.673-0.766,1.471-1.15,2.391-1.15c1.004,0,1.835,0.365,2.492,1.092
			s0.986,1.771,0.986,3.133c0,1.406-0.336,2.49-1.006,3.252c-0.67,0.76-1.484,1.141-2.441,1.141c-0.471,0-0.936-0.117-1.393-0.354
			c-0.459-0.234-0.854-0.582-1.184-1.043v1.211H59.013z M61.179,93.83c0,0.854,0.135,1.484,0.404,1.895
			c0.377,0.578,0.879,0.869,1.506,0.869c0.48,0,0.891-0.207,1.23-0.617c0.339-0.412,0.508-1.061,0.508-1.945
			c0-0.941-0.17-1.621-0.512-2.037s-0.779-0.625-1.313-0.625c-0.522,0-0.957,0.203-1.304,0.609S61.179,93.002,61.179,93.83z"/>
		<path fill="#FFFFFF" d="M73.067,98.131v-1.234c-0.301,0.439-0.695,0.787-1.185,1.039c-0.489,0.254-1.005,0.381-1.548,0.381
			c-0.555,0-1.051-0.121-1.491-0.365c-0.44-0.242-0.759-0.584-0.954-1.023c-0.197-0.439-0.295-1.049-0.295-1.824v-5.217h2.181v3.787
			c0,1.16,0.04,1.871,0.12,2.131c0.08,0.262,0.227,0.469,0.439,0.621c0.211,0.154,0.48,0.23,0.807,0.23
			c0.373,0,0.707-0.104,1.002-0.307c0.295-0.205,0.496-0.459,0.605-0.762c0.108-0.303,0.162-1.043,0.162-2.225v-3.477h2.182v8.244
			H73.067z"/>
		<path fill="#FFFFFF" d="M76.175,88.768V86.75h2.182v2.018H76.175z M76.175,98.131v-8.244h2.182v8.244H76.175z"/>
		<path fill="#FFFFFF" d="M79.415,98.131V86.75h2.182v11.381H79.415z"/>
		<path fill="#FFFFFF" d="M90.218,98.131H88.19V96.92c-0.336,0.471-0.732,0.82-1.191,1.051c-0.457,0.23-0.92,0.346-1.385,0.346
			c-0.947,0-1.759-0.381-2.434-1.145c-0.676-0.764-1.014-1.828-1.014-3.195c0-1.396,0.328-2.459,0.986-3.186
			c0.656-0.727,1.487-1.092,2.492-1.092c0.92,0,1.717,0.385,2.391,1.15v-4.1h2.182V98.131z M84.396,93.83
			c0,0.879,0.121,1.516,0.364,1.91c0.353,0.568,0.844,0.854,1.476,0.854c0.502,0,0.928-0.215,1.28-0.641
			c0.353-0.428,0.528-1.064,0.528-1.914c0-0.947-0.171-1.629-0.513-2.045s-0.778-0.625-1.312-0.625
			c-0.518,0-0.951,0.205-1.301,0.617S84.396,93.012,84.396,93.83z"/>
		<path fill="#FFFFFF" d="M95.965,95.506l2.174,0.365c-0.28,0.797-0.721,1.404-1.323,1.82c-0.604,0.418-1.357,0.625-2.264,0.625
			c-1.434,0-2.494-0.469-3.182-1.404c-0.544-0.75-0.816-1.697-0.816-2.842c0-1.365,0.357-2.436,1.072-3.209
			c0.714-0.773,1.617-1.162,2.709-1.162c1.227,0,2.193,0.406,2.903,1.215c0.709,0.811,1.048,2.051,1.017,3.723H92.79
			c0.016,0.646,0.191,1.15,0.527,1.51c0.337,0.359,0.756,0.539,1.258,0.539c0.342,0,0.629-0.092,0.861-0.279
			C95.67,96.221,95.846,95.92,95.965,95.506z M96.089,93.303c-0.016-0.633-0.178-1.111-0.488-1.441
			c-0.311-0.328-0.689-0.492-1.134-0.492c-0.476,0-0.87,0.174-1.181,0.52c-0.31,0.348-0.463,0.818-0.457,1.414H96.089z"/>
		<path fill="#FFFFFF" d="M100.944,98.131h-2.182v-8.244h2.026v1.172c0.347-0.555,0.658-0.918,0.935-1.094
			c0.277-0.176,0.592-0.266,0.943-0.266c0.497,0,0.977,0.139,1.437,0.412l-0.675,1.902c-0.368-0.238-0.709-0.357-1.025-0.357
			c-0.305,0-0.564,0.084-0.775,0.252c-0.213,0.168-0.38,0.473-0.502,0.912c-0.121,0.439-0.182,1.361-0.182,2.764V98.131z"/>
	</g>
	<g>
		<path opacity="0.8" fill-rule="evenodd" clip-rule="evenodd" d="M95.609,11.273c0,0.397,0,0.801,0,1.396c-0.492,0-0.979,0-1.465,0
			c-7.973-0.001-15.945-0.008-23.916,0.003c-2.141,0.004-3.395,1.321-3.289,3.384c0.088,1.74,1.424,2.848,3.461,2.85
			c7.467,0.001,14.938-0.003,22.406-0.004c2.393-0.001,4.781-0.001,7.309-0.001c0,12.69,0,25.314,0,38.016
			c-0.342,0.033-0.666,0.092-0.988,0.092c-9.65,0.004-19.303,0.008-28.955-0.005c-2.303-0.004-3.988-1.189-4.598-3.362
			c-0.242-0.859-0.17-1.815-0.172-2.728c-0.014-11.663-0.021-23.326-0.016-34.991c0.002-2.667,1.813-4.739,4.502-4.763
			c8.434-0.083,16.867-0.029,25.303-0.021C95.309,11.14,95.424,11.213,95.609,11.273z M82.219,46.517
			c1.566-0.028,2.303-0.805,1.992-1.83c-1.471-4.845-2.977-9.676-4.459-14.516c-0.33-1.078-1.193-1.195-2.102-1.191
			c-0.883,0.004-1.627,0.219-1.934,1.236c-1.428,4.724-2.904,9.435-4.326,14.161c-0.221,0.733-0.5,1.625,0.646,1.956
			c1.311,0.38,1.82,0.088,2.191-1.216c0.695-2.458,0.695-2.458,3.219-2.456c2.926,0.002,2.902,0.011,3.918,2.853
			C81.529,45.972,82.031,46.307,82.219,46.517z M91.703,40.142c-0.553,0-1.135-0.063-1.701,0.014
			c-0.988,0.136-2.008,0.237-2.938,0.57c-1.416,0.509-1.957,1.686-1.768,3.367c0.172,1.508,0.803,2.157,2.369,2.487
			c1.656,0.352,2.918-0.417,4.135-1.505c0.098,0.264,0.158,0.456,0.238,0.642c0.412,0.932,1.168,0.764,1.93,0.607
			c0.777-0.158,0.918-0.612,0.873-1.373c-0.088-1.545-0.047-3.098-0.027-4.646c0.023-1.912-0.398-3.656-2.238-4.578
			c-1.949-0.978-3.973-0.888-5.926,0.112c-0.633,0.323-0.926,0.81-0.637,1.551c0.389,0.997,0.975,0.868,1.789,0.483
			C89.625,37.013,92.031,37.483,91.703,40.142z"/>
		<path fill-rule="evenodd" clip-rule="evenodd" fill="#EC6421" d="M95.631,15.079c0,0.479,0,0.885,0,1.403
			c-8.463,0-16.891,0-25.311,0c-0.324-1.027-0.143-1.533,1.039-1.53c7.752,0.03,15.5,0.016,23.25,0.021
			C94.936,14.973,95.26,15.038,95.631,15.079z"/>
		<path fill-rule="evenodd" clip-rule="evenodd" fill="#EC6421" d="M82.219,46.517c-0.188-0.21-0.689-0.545-0.854-1.003
			c-1.016-2.842-0.992-2.851-3.918-2.853c-2.523-0.002-2.523-0.002-3.219,2.456c-0.371,1.304-0.881,1.596-2.191,1.216
			c-1.146-0.331-0.867-1.223-0.646-1.956c1.422-4.727,2.898-9.438,4.326-14.161c0.307-1.018,1.051-1.232,1.934-1.236
			c0.908-0.004,1.771,0.113,2.102,1.191c1.482,4.84,2.988,9.671,4.459,14.516C84.521,45.712,83.785,46.488,82.219,46.517z
			 M79.887,40.321c-0.719-2.484-1.379-4.78-2.041-7.075c-0.1,0.021-0.201,0.04-0.303,0.062c-0.637,2.3-1.273,4.601-1.943,7.014
			C77.107,40.321,78.389,40.321,79.887,40.321z"/>
		<path fill-rule="evenodd" clip-rule="evenodd" fill="#FFFFFF" d="M91.703,40.142c0.328-2.658-2.078-3.129-3.9-2.269
			c-0.814,0.385-1.4,0.514-1.789-0.483c-0.289-0.741,0.004-1.228,0.637-1.551c1.953-1,3.977-1.09,5.926-0.112
			c1.84,0.922,2.262,2.666,2.238,4.578c-0.02,1.549-0.061,3.102,0.027,4.646c0.045,0.761-0.096,1.215-0.873,1.373
			c-0.762,0.156-1.518,0.324-1.93-0.607c-0.08-0.186-0.141-0.378-0.238-0.642c-1.217,1.088-2.479,1.856-4.135,1.505
			c-1.566-0.33-2.197-0.979-2.369-2.487c-0.189-1.682,0.352-2.858,1.768-3.367c0.93-0.333,1.949-0.435,2.938-0.57
			C90.568,40.078,91.15,40.142,91.703,40.142z M89.207,44.511c1.398,0.013,2.666-1.228,2.584-2.282
			c-0.02-0.225-0.381-0.614-0.559-0.6c-0.779,0.065-1.637,0.092-2.291,0.453c-0.385,0.211-0.621,1.042-0.572,1.559
			C88.402,44.014,89.021,44.331,89.207,44.511z"/>
		<path opacity="0.8" fill-rule="evenodd" clip-rule="evenodd" d="M79.887,40.321c-1.498,0-2.779,0-4.287,0
			c0.67-2.413,1.307-4.714,1.943-7.014c0.102-0.021,0.203-0.041,0.303-0.062C78.508,35.541,79.168,37.837,79.887,40.321z"/>
		<path opacity="0.8" fill-rule="evenodd" clip-rule="evenodd" d="M89.207,44.511c-0.186-0.18-0.805-0.497-0.838-0.87
			c-0.049-0.517,0.188-1.348,0.572-1.559c0.654-0.361,1.512-0.388,2.291-0.453c0.178-0.015,0.539,0.375,0.559,0.6
			C91.873,43.283,90.605,44.523,89.207,44.511z"/>
	</g>
</g>
</svg>
