<?xml version="1.0" encoding="utf-8"?>
<!-- Generator: Adobe Illustrator 16.0.0, SVG Export Plug-In . SVG Version: 6.00 Build 0)  -->
<!DOCTYPE svg PUBLIC "-//W3C//DTD SVG 1.1//EN" "http://www.w3.org/Graphics/SVG/1.1/DTD/svg11.dtd">
<svg version="1.1" id="Capa_1" xmlns="http://www.w3.org/2000/svg" xmlns:xlink="http://www.w3.org/1999/xlink" x="0px" y="0px"
	 width="338.658px" height="112.285px" viewBox="0 0 338.658 112.285" enable-background="new 0 0 338.658 112.285"
	 xml:space="preserve">
<rect fill-rule="evenodd" clip-rule="evenodd" fill="#FAF19D" width="338.658" height="112.285"/>
<g opacity="0.8">
	<path d="M45.552,104.007V91.122h4.438c1.002,0,1.767,0.063,2.294,0.186c0.738,0.17,1.368,0.477,1.89,0.922
		c0.68,0.574,1.188,1.309,1.524,2.202s0.506,1.915,0.506,3.063c0,0.979-0.114,1.846-0.343,2.602s-0.521,1.381-0.879,1.876
		s-0.749,0.885-1.173,1.169c-0.426,0.284-0.938,0.5-1.539,0.646s-1.29,0.219-2.069,0.219H45.552z M47.257,102.487h2.751
		c0.85,0,1.517-0.08,1.999-0.238c0.484-0.158,0.869-0.381,1.156-0.668c0.404-0.404,0.719-0.947,0.945-1.63
		c0.225-0.683,0.338-1.511,0.338-2.483c0-1.348-0.222-2.383-0.664-3.106s-0.979-1.208-1.612-1.454
		c-0.457-0.176-1.192-0.264-2.206-0.264h-2.707V102.487z"/>
	<path d="M64.738,101.001l1.635,0.203c-0.258,0.955-0.735,1.695-1.433,2.223s-1.588,0.791-2.672,0.791
		c-1.365,0-2.447-0.42-3.248-1.261c-0.799-0.841-1.199-2.021-1.199-3.538c0-1.57,0.404-2.789,1.213-3.656s1.857-1.301,3.146-1.301
		c1.248,0,2.268,0.426,3.059,1.275s1.187,2.045,1.187,3.586c0,0.094-0.003,0.234-0.009,0.422h-6.961
		c0.059,1.025,0.349,1.811,0.87,2.355s1.172,0.816,1.951,0.816c0.58,0,1.075-0.152,1.485-0.457S64.498,101.669,64.738,101.001z
		 M59.544,98.444h5.212c-0.07-0.785-0.27-1.375-0.598-1.768c-0.504-0.609-1.157-0.914-1.96-0.914c-0.727,0-1.338,0.244-1.832,0.73
		C59.87,96.979,59.597,97.63,59.544,98.444z"/>
	<path d="M67.727,101.222l1.564-0.246c0.088,0.627,0.332,1.107,0.733,1.441s0.963,0.5,1.684,0.5c0.727,0,1.266-0.147,1.617-0.443
		s0.527-0.643,0.527-1.041c0-0.357-0.155-0.639-0.466-0.844c-0.217-0.141-0.756-0.32-1.617-0.537
		c-1.16-0.293-1.964-0.546-2.413-0.76c-0.447-0.214-0.788-0.51-1.02-0.888s-0.347-0.796-0.347-1.253
		c0-0.416,0.095-0.801,0.286-1.155c0.189-0.354,0.449-0.649,0.777-0.884c0.246-0.182,0.581-0.335,1.006-0.461
		s0.881-0.189,1.367-0.189c0.732,0,1.375,0.105,1.93,0.316c0.553,0.211,0.962,0.497,1.226,0.857s0.445,0.842,0.545,1.445
		l-1.547,0.211c-0.07-0.48-0.274-0.855-0.61-1.125c-0.338-0.27-0.813-0.404-1.429-0.404c-0.727,0-1.245,0.121-1.556,0.361
		s-0.466,0.521-0.466,0.844c0,0.205,0.064,0.389,0.193,0.553c0.129,0.17,0.331,0.311,0.606,0.422
		c0.158,0.059,0.624,0.193,1.397,0.404c1.119,0.299,1.899,0.544,2.343,0.734c0.441,0.19,0.789,0.467,1.041,0.83
		s0.378,0.814,0.378,1.354c0,0.527-0.153,1.024-0.462,1.49c-0.307,0.466-0.751,0.826-1.331,1.081s-1.236,0.382-1.969,0.382
		c-1.213,0-2.138-0.252-2.772-0.756C68.308,102.958,67.902,102.212,67.727,101.222z"/>
	<path d="M83.45,100.589l1.556,0.201c-0.17,1.072-0.605,1.912-1.306,2.519s-1.56,0.909-2.579,0.909
		c-1.277,0-2.305-0.417-3.081-1.252s-1.164-2.031-1.164-3.59c0-1.008,0.167-1.891,0.501-2.646s0.842-1.322,1.524-1.7
		s1.426-0.567,2.229-0.567c1.014,0,1.843,0.257,2.487,0.77s1.058,1.24,1.239,2.184l-1.538,0.238c-0.146-0.627-0.406-1.1-0.778-1.416
		s-0.821-0.475-1.349-0.475c-0.797,0-1.444,0.286-1.942,0.857s-0.747,1.475-0.747,2.711c0,1.254,0.24,2.166,0.721,2.734
		s1.107,0.852,1.881,0.852c0.621,0,1.14-0.189,1.556-0.57S83.339,101.38,83.45,100.589z"/>
	<path d="M86.342,104.007v-9.334h1.424v1.416c0.363-0.662,0.698-1.1,1.007-1.311c0.307-0.211,0.646-0.316,1.015-0.316
		c0.533,0,1.075,0.17,1.626,0.51l-0.545,1.469c-0.387-0.229-0.773-0.344-1.16-0.344c-0.346,0-0.656,0.104-0.932,0.313
		s-0.472,0.496-0.589,0.865c-0.176,0.563-0.264,1.178-0.264,1.846v4.887H86.342z"/>
	<path d="M92.362,92.942v-1.82h1.582v1.82H92.362z M92.362,104.007v-9.334h1.582v9.334H92.362z"/>
	<path d="M97.812,104.007h-1.468V91.122h1.582v4.598c0.668-0.838,1.521-1.258,2.558-1.258c0.574,0,1.117,0.116,1.631,0.348
		c0.512,0.231,0.934,0.557,1.266,0.976c0.33,0.419,0.59,0.925,0.777,1.517s0.281,1.225,0.281,1.898c0,1.6-0.396,2.836-1.187,3.709
		s-1.74,1.309-2.848,1.309c-1.102,0-1.966-0.459-2.593-1.379V104.007z M97.794,99.271c0,1.119,0.152,1.928,0.457,2.426
		c0.498,0.814,1.172,1.221,2.021,1.221c0.691,0,1.289-0.3,1.793-0.9s0.756-1.496,0.756-2.686c0-1.219-0.242-2.117-0.725-2.697
		c-0.484-0.58-1.068-0.871-1.754-0.871c-0.691,0-1.289,0.301-1.793,0.901S97.794,98.134,97.794,99.271z"/>
	<path d="M106.372,92.942v-1.82h1.582v1.82H106.372z M106.372,104.007v-9.334h1.582v9.334H106.372z"/>
	<path d="M110.362,104.007v-9.334h1.424v1.328c0.686-1.025,1.676-1.539,2.971-1.539c0.563,0,1.079,0.102,1.551,0.304
		s0.825,0.468,1.06,0.796s0.398,0.717,0.492,1.168c0.059,0.293,0.088,0.807,0.088,1.539v5.738h-1.582v-5.678
		c0-0.645-0.062-1.126-0.185-1.445s-0.342-0.574-0.654-0.765c-0.314-0.19-0.682-0.286-1.104-0.286c-0.674,0-1.256,0.215-1.744,0.643
		c-0.49,0.428-0.734,1.238-0.734,2.434v5.098H110.362z"/>
	<path d="M120.083,104.78l1.538,0.229c0.064,0.475,0.243,0.82,0.536,1.037c0.393,0.293,0.929,0.439,1.608,0.439
		c0.732,0,1.298-0.146,1.696-0.439s0.668-0.703,0.809-1.23c0.082-0.322,0.12-0.998,0.114-2.029
		c-0.691,0.814-1.553,1.221-2.584,1.221c-1.283,0-2.276-0.463-2.979-1.389s-1.055-2.035-1.055-3.33c0-0.891,0.161-1.713,0.483-2.466
		s0.789-1.335,1.401-1.745s1.332-0.615,2.158-0.615c1.102,0,2.01,0.445,2.725,1.336v-1.125h1.459v8.068
		c0,1.453-0.148,2.483-0.443,3.09c-0.297,0.606-0.766,1.086-1.406,1.438c-0.643,0.352-1.432,0.527-2.369,0.527
		c-1.113,0-2.013-0.251-2.698-0.752S120.06,105.788,120.083,104.78z M121.393,99.173c0,1.225,0.243,2.119,0.729,2.682
		s1.096,0.844,1.828,0.844c0.727,0,1.336-0.28,1.828-0.84s0.738-1.438,0.738-2.633c0-1.143-0.254-2.004-0.76-2.584
		c-0.508-0.58-1.118-0.869-1.833-0.869c-0.703,0-1.301,0.285-1.793,0.856S121.393,98.048,121.393,99.173z"/>
	<path d="M141.476,100.589l1.556,0.201c-0.17,1.072-0.605,1.912-1.306,2.519s-1.56,0.909-2.579,0.909
		c-1.277,0-2.305-0.417-3.081-1.252s-1.164-2.031-1.164-3.59c0-1.008,0.167-1.891,0.501-2.646s0.842-1.322,1.524-1.7
		s1.426-0.567,2.229-0.567c1.014,0,1.843,0.257,2.487,0.77s1.058,1.24,1.239,2.184l-1.538,0.238c-0.146-0.627-0.406-1.1-0.778-1.416
		s-0.821-0.475-1.349-0.475c-0.797,0-1.444,0.286-1.942,0.857s-0.747,1.475-0.747,2.711c0,1.254,0.24,2.166,0.721,2.734
		s1.107,0.852,1.881,0.852c0.621,0,1.14-0.189,1.556-0.57S141.364,101.38,141.476,100.589z"/>
	<path d="M150.502,104.007v-1.371c-0.727,1.055-1.714,1.582-2.962,1.582c-0.551,0-1.065-0.105-1.543-0.316s-0.832-0.476-1.063-0.795
		c-0.232-0.319-0.395-0.711-0.488-1.174c-0.064-0.311-0.097-0.803-0.097-1.477v-5.783h1.582v5.178c0,0.826,0.032,1.383,0.097,1.67
		c0.1,0.416,0.311,0.742,0.633,0.979s0.721,0.356,1.195,0.356s0.92-0.122,1.336-0.365s0.71-0.574,0.883-0.993s0.26-1.026,0.26-1.823
		v-5.002h1.582v9.334H150.502z"/>
	<path d="M154.378,104.007v-9.334h1.424v1.416c0.363-0.662,0.699-1.1,1.006-1.311c0.309-0.211,0.646-0.316,1.016-0.316
		c0.533,0,1.075,0.17,1.626,0.51l-0.545,1.469c-0.387-0.229-0.773-0.344-1.16-0.344c-0.346,0-0.656,0.104-0.932,0.313
		s-0.472,0.496-0.589,0.865c-0.176,0.563-0.264,1.178-0.264,1.846v4.887H154.378z"/>
	<path d="M160.372,104.007v-9.334h1.424v1.416c0.363-0.662,0.699-1.1,1.006-1.311c0.309-0.211,0.646-0.316,1.016-0.316
		c0.533,0,1.075,0.17,1.626,0.51l-0.545,1.469c-0.387-0.229-0.773-0.344-1.16-0.344c-0.346,0-0.656,0.104-0.932,0.313
		s-0.472,0.496-0.589,0.865c-0.176,0.563-0.264,1.178-0.264,1.846v4.887H160.372z"/>
	<path d="M172.773,101.001l1.635,0.203c-0.258,0.955-0.735,1.695-1.433,2.223s-1.588,0.791-2.672,0.791
		c-1.365,0-2.447-0.42-3.248-1.261c-0.799-0.841-1.199-2.021-1.199-3.538c0-1.57,0.404-2.789,1.213-3.656s1.857-1.301,3.146-1.301
		c1.248,0,2.268,0.426,3.059,1.275s1.187,2.045,1.187,3.586c0,0.094-0.003,0.234-0.009,0.422h-6.961
		c0.059,1.025,0.349,1.811,0.87,2.355s1.172,0.816,1.951,0.816c0.58,0,1.075-0.152,1.485-0.457S172.533,101.669,172.773,101.001z
		 M167.579,98.444h5.212c-0.07-0.785-0.27-1.375-0.598-1.768c-0.504-0.609-1.157-0.914-1.96-0.914c-0.727,0-1.338,0.244-1.832,0.73
		C167.905,96.979,167.632,97.63,167.579,98.444z"/>
	<path d="M176.395,104.007v-9.334h1.424v1.328c0.686-1.025,1.676-1.539,2.971-1.539c0.563,0,1.079,0.102,1.552,0.304
		c0.471,0.202,0.824,0.468,1.059,0.796s0.398,0.717,0.492,1.168c0.059,0.293,0.088,0.807,0.088,1.539v5.738h-1.582v-5.678
		c0-0.645-0.062-1.126-0.185-1.445s-0.342-0.574-0.655-0.765s-0.681-0.286-1.103-0.286c-0.674,0-1.256,0.215-1.745,0.643
		s-0.733,1.238-0.733,2.434v5.098H176.395z"/>
	<path d="M189.859,102.593l0.229,1.396c-0.445,0.094-0.844,0.141-1.195,0.141c-0.574,0-1.02-0.09-1.336-0.271
		s-0.539-0.421-0.668-0.717s-0.193-0.918-0.193-1.867v-5.371h-1.16v-1.23h1.16v-2.311l1.573-0.949v3.26h1.591v1.23h-1.591v5.459
		c0,0.451,0.027,0.74,0.084,0.869c0.055,0.129,0.146,0.232,0.271,0.309s0.307,0.113,0.541,0.113
		C189.341,102.653,189.572,102.634,189.859,102.593z"/>
	<path d="M194.395,107.628l0.299-1.344c0.316,0.082,0.565,0.123,0.747,0.123c0.322,0,0.563-0.107,0.721-0.321
		s0.237-0.749,0.237-1.604v-9.809h1.582v9.844c0,1.148-0.149,1.949-0.448,2.4c-0.381,0.586-1.014,0.879-1.898,0.879
		C195.206,107.796,194.793,107.739,194.395,107.628z M196.398,92.96v-1.838h1.582v1.838H196.398z"/>
	<path d="M199.817,99.341c0-1.729,0.48-3.01,1.441-3.842c0.803-0.691,1.781-1.037,2.936-1.037c1.283,0,2.332,0.421,3.146,1.262
		s1.222,2.002,1.222,3.484c0,1.201-0.181,2.146-0.54,2.835c-0.361,0.688-0.886,1.224-1.574,1.604s-1.439,0.57-2.254,0.57
		c-1.307,0-2.363-0.418-3.168-1.256C200.22,102.124,199.817,100.917,199.817,99.341z M201.443,99.341
		c0,1.195,0.261,2.09,0.782,2.685s1.178,0.892,1.969,0.892c0.785,0,1.438-0.299,1.96-0.896s0.782-1.508,0.782-2.732
		c0-1.154-0.263-2.029-0.787-2.624s-1.176-0.892-1.955-0.892c-0.791,0-1.447,0.295-1.969,0.887S201.443,98.146,201.443,99.341z"/>
	<path d="M211.876,104.007h-1.468V91.122h1.582v4.598c0.668-0.838,1.521-1.258,2.558-1.258c0.574,0,1.117,0.116,1.631,0.348
		c0.512,0.231,0.934,0.557,1.266,0.976c0.33,0.419,0.59,0.925,0.777,1.517s0.281,1.225,0.281,1.898c0,1.6-0.396,2.836-1.187,3.709
		s-1.74,1.309-2.848,1.309c-1.102,0-1.966-0.459-2.593-1.379V104.007z M211.858,99.271c0,1.119,0.152,1.928,0.457,2.426
		c0.498,0.814,1.172,1.221,2.021,1.221c0.691,0,1.289-0.3,1.793-0.9s0.756-1.496,0.756-2.686c0-1.219-0.242-2.117-0.725-2.697
		c-0.484-0.58-1.068-0.871-1.754-0.871c-0.691,0-1.289,0.301-1.793,0.901S211.858,98.134,211.858,99.271z"/>
	<path d="M224.796,101.222l1.564-0.246c0.088,0.627,0.332,1.107,0.734,1.441c0.4,0.334,0.962,0.5,1.683,0.5
		c0.727,0,1.266-0.147,1.617-0.443s0.527-0.643,0.527-1.041c0-0.357-0.155-0.639-0.466-0.844c-0.217-0.141-0.756-0.32-1.617-0.537
		c-1.16-0.293-1.965-0.546-2.412-0.76c-0.449-0.214-0.789-0.51-1.02-0.888c-0.232-0.378-0.348-0.796-0.348-1.253
		c0-0.416,0.095-0.801,0.285-1.155s0.45-0.649,0.778-0.884c0.246-0.182,0.581-0.335,1.007-0.461c0.424-0.126,0.88-0.189,1.366-0.189
		c0.732,0,1.376,0.105,1.929,0.316c0.555,0.211,0.963,0.497,1.227,0.857s0.445,0.842,0.545,1.445l-1.547,0.211
		c-0.07-0.48-0.274-0.855-0.611-1.125s-0.813-0.404-1.428-0.404c-0.727,0-1.245,0.121-1.556,0.361s-0.466,0.521-0.466,0.844
		c0,0.205,0.064,0.389,0.193,0.553c0.129,0.17,0.331,0.311,0.606,0.422c0.158,0.059,0.624,0.193,1.397,0.404
		c1.119,0.299,1.899,0.544,2.342,0.734s0.79,0.467,1.042,0.83s0.378,0.814,0.378,1.354c0,0.527-0.154,1.024-0.461,1.49
		c-0.309,0.466-0.752,0.826-1.332,1.081s-1.236,0.382-1.969,0.382c-1.213,0-2.138-0.252-2.773-0.756
		S224.972,102.212,224.796,101.222z"/>
	<path d="M234.438,92.942v-1.82h1.582v1.82H234.438z M234.438,104.007v-9.334h1.582v9.334H234.438z"/>
	<path d="M241.882,102.593l0.229,1.396c-0.445,0.094-0.844,0.141-1.195,0.141c-0.574,0-1.02-0.09-1.336-0.271
		s-0.539-0.421-0.668-0.717s-0.193-0.918-0.193-1.867v-5.371h-1.16v-1.23h1.16v-2.311l1.573-0.949v3.26h1.591v1.23h-1.591v5.459
		c0,0.451,0.027,0.74,0.083,0.869s0.146,0.232,0.273,0.309c0.125,0.076,0.306,0.113,0.54,0.113
		C241.363,102.653,241.595,102.634,241.882,102.593z"/>
	<path d="M249.546,104.007v-1.371c-0.727,1.055-1.714,1.582-2.962,1.582c-0.551,0-1.065-0.105-1.542-0.316
		c-0.479-0.211-0.833-0.476-1.064-0.795s-0.394-0.711-0.487-1.174c-0.064-0.311-0.097-0.803-0.097-1.477v-5.783h1.582v5.178
		c0,0.826,0.032,1.383,0.097,1.67c0.1,0.416,0.311,0.742,0.633,0.979s0.721,0.356,1.195,0.356s0.92-0.122,1.336-0.365
		s0.71-0.574,0.884-0.993c0.172-0.419,0.259-1.026,0.259-1.823v-5.002h1.582v9.334H249.546z"/>
	<path d="M259.53,102.856c-0.586,0.498-1.15,0.85-1.691,1.055c-0.543,0.205-1.124,0.307-1.745,0.307
		c-1.025,0-1.813-0.25-2.364-0.751s-0.826-1.142-0.826-1.921c0-0.457,0.104-0.874,0.313-1.252c0.207-0.378,0.479-0.682,0.816-0.91
		s0.717-0.4,1.139-0.518c0.311-0.082,0.779-0.162,1.406-0.238c1.277-0.152,2.218-0.334,2.821-0.545
		c0.006-0.217,0.009-0.354,0.009-0.412c0-0.645-0.149-1.1-0.448-1.363c-0.404-0.357-1.005-0.535-1.802-0.535
		c-0.744,0-1.294,0.13-1.648,0.391s-0.616,0.723-0.786,1.385l-1.547-0.211c0.141-0.662,0.372-1.197,0.694-1.604
		s0.788-0.721,1.397-0.94s1.315-0.33,2.118-0.33c0.797,0,1.444,0.094,1.942,0.281s0.864,0.424,1.099,0.708s0.398,0.644,0.492,1.077
		c0.053,0.27,0.079,0.756,0.079,1.459v2.109c0,1.471,0.033,2.4,0.101,2.79s0.201,0.763,0.4,1.12h-1.652
		C259.683,103.679,259.577,103.296,259.53,102.856z M259.398,99.323c-0.574,0.234-1.436,0.434-2.584,0.598
		c-0.65,0.094-1.11,0.199-1.38,0.316s-0.478,0.288-0.624,0.514s-0.22,0.477-0.22,0.752c0,0.422,0.159,0.773,0.479,1.055
		s0.787,0.422,1.402,0.422c0.609,0,1.151-0.134,1.626-0.4s0.823-0.631,1.046-1.094c0.17-0.357,0.255-0.885,0.255-1.582V99.323z"/>
	<path d="M266.904,102.593l0.229,1.396c-0.445,0.094-0.844,0.141-1.195,0.141c-0.574,0-1.02-0.09-1.336-0.271
		s-0.539-0.421-0.668-0.717s-0.193-0.918-0.193-1.867v-5.371h-1.16v-1.23h1.16v-2.311l1.573-0.949v3.26h1.591v1.23h-1.591v5.459
		c0,0.451,0.027,0.74,0.084,0.869c0.055,0.129,0.146,0.232,0.271,0.309s0.307,0.113,0.541,0.113
		C266.386,102.653,266.617,102.634,266.904,102.593z"/>
	<path d="M268.46,92.942v-1.82h1.582v1.82H268.46z M268.46,104.007v-9.334h1.582v9.334H268.46z"/>
	<path d="M271.861,99.341c0-1.729,0.48-3.01,1.441-3.842c0.803-0.691,1.781-1.037,2.936-1.037c1.283,0,2.332,0.421,3.146,1.262
		s1.222,2.002,1.222,3.484c0,1.201-0.18,2.146-0.541,2.835c-0.359,0.688-0.885,1.224-1.572,1.604c-0.689,0.381-1.44,0.57-2.255,0.57
		c-1.307,0-2.363-0.418-3.169-1.256S271.861,100.917,271.861,99.341z M273.487,99.341c0,1.195,0.261,2.09,0.782,2.685
		s1.178,0.892,1.969,0.892c0.785,0,1.438-0.299,1.96-0.896s0.782-1.508,0.782-2.732c0-1.154-0.263-2.029-0.786-2.624
		c-0.525-0.595-1.177-0.892-1.956-0.892c-0.791,0-1.447,0.295-1.969,0.887S273.487,98.146,273.487,99.341z"/>
	<path d="M282.461,104.007v-9.334h1.424v1.328c0.686-1.025,1.676-1.539,2.971-1.539c0.563,0,1.079,0.102,1.552,0.304
		c0.471,0.202,0.824,0.468,1.059,0.796s0.398,0.717,0.492,1.168c0.059,0.293,0.088,0.807,0.088,1.539v5.738h-1.582v-5.678
		c0-0.645-0.062-1.126-0.185-1.445s-0.342-0.574-0.655-0.765s-0.681-0.286-1.103-0.286c-0.674,0-1.256,0.215-1.745,0.643
		s-0.733,1.238-0.733,2.434v5.098H282.461z"/>
</g>
<g>
	<path opacity="0.8" fill-rule="evenodd" clip-rule="evenodd" d="M123.31,43.11c4.394-1.164,8.701-2.306,13.126-3.479
		c-0.878-2.927-1.735-5.787-2.614-8.723c2.18-0.465,4.277-0.916,6.376-1.36c13.943-2.956,27.886-5.91,41.828-8.866
		c2.374-0.503,4.751-0.985,7.114-1.532c0.685-0.159,0.788,0.207,0.938,0.685c3.146,10.052,6.296,20.102,9.446,30.151
		c0.338,1.078,0.674,2.158,1.013,3.236c0.936,2.986,0.018,5.826-2.629,7.511c-1.314,0.836-2.794,1.431-4.238,2.04
		c-15.298,6.448-30.605,12.87-45.9,19.324c-1.601,0.675-3.132,1.478-4.915,1.622c-3.005,0.246-5.417-0.857-7.036-3.325
		c-1-1.522-1.815-3.233-2.372-4.97c-3.366-10.502-6.633-21.035-9.933-31.558C123.448,43.66,123.4,43.447,123.31,43.11z
		 M139.461,34.478c4.438,14.159,8.827,28.16,13.237,42.229c1.856-0.896,3.577-1.727,5.317-2.566
		c-2.229-7.121-4.427-14.133-6.645-21.217c6.575-2.053,13.058-4.076,19.596-6.117c2.024,6.447,4.018,12.795,6.021,19.172
		c0.389-0.141,0.65-0.227,0.905-0.328c5.401-2.162,10.8-4.323,16.2-6.486c3.309-1.324,4.526-3.906,3.454-7.327
		c-2.875-9.181-5.75-18.361-8.628-27.54c-0.113-0.36-0.254-0.71-0.398-1.109C172.157,26.954,155.862,30.703,139.461,34.478z
		 M148.097,78.618c-3.363-11.279-6.729-22.566-10.119-33.932c-2.887,0.668-5.689,1.316-8.543,1.976
		c0.08,0.328,0.124,0.566,0.196,0.796c2.708,8.651,5.4,17.307,8.155,25.943c0.337,1.056,0.895,2.087,1.548,2.987
		C141.425,79.261,145.183,79.806,148.097,78.618z"/>
	<path fill-rule="evenodd" clip-rule="evenodd" fill="#FFFFFF" d="M139.461,34.478c16.401-3.774,32.696-7.524,49.06-11.291
		c0.145,0.398,0.285,0.749,0.398,1.109c2.878,9.179,5.753,18.359,8.628,27.54c1.072,3.421-0.146,6.003-3.454,7.327
		c-5.4,2.163-10.799,4.324-16.2,6.486c-0.255,0.102-0.517,0.188-0.905,0.328c-2.003-6.377-3.996-12.725-6.021-19.172
		c-6.538,2.041-13.021,4.064-19.596,6.117c2.218,7.084,4.415,14.096,6.645,21.217c-1.74,0.84-3.461,1.67-5.317,2.566
		C148.288,62.638,143.899,48.637,139.461,34.478z M157.083,42.465c-1.467-1.366-3.365-2.908-4.977-4.706
		c-1.242-1.385-2.451-1.642-4.098-1.002c-0.603,0.234-0.684,0.411-0.501,0.982c1.084,3.387,2.132,6.785,3.197,10.179
		c0.055,0.175,0.153,0.336,0.254,0.548c0.766-0.227,1.494-0.441,2.313-0.683c-0.915-2.829-1.805-5.58-2.744-8.485
		c0.216,0.157,0.285,0.194,0.338,0.248c2.154,2.141,4.301,4.289,6.47,6.415c0.207,0.203,0.582,0.413,0.828,0.364
		c0.75-0.148,1.477-0.422,2.262-0.663c-1.122-3.573-2.223-7.096-3.35-10.611c-0.052-0.16-0.363-0.367-0.52-0.342
		c-0.61,0.099-1.207,0.281-1.902,0.456C155.537,37.82,156.38,40.351,157.083,42.465z M178.678,37.303
		c-0.047,0.014-0.093,0.028-0.14,0.043c-0.104-0.18-0.217-0.356-0.311-0.542c-1.02-2.019-2.031-4.042-3.065-6.053
		c-0.108-0.21-0.378-0.513-0.536-0.492c-0.597,0.078-1.187,0.248-1.758,0.441c-0.119,0.041-0.23,0.339-0.215,0.506
		c0.102,1.099,0.236,2.194,0.363,3.29c0.17,1.47,0.341,2.938,0.513,4.408c-0.221-0.134-0.337-0.306-0.431-0.489
		c-1.078-2.113-2.144-4.233-3.246-6.333c-0.121-0.231-0.478-0.515-0.689-0.488c-0.637,0.081-1.258,0.303-1.968,0.493
		c1.876,3.247,3.693,6.398,5.525,9.542c0.078,0.135,0.319,0.292,0.444,0.263c0.644-0.147,1.282-0.328,1.9-0.558
		c0.12-0.045,0.216-0.365,0.197-0.545c-0.229-2.222-0.485-4.442-0.728-6.663c-0.022-0.211-0.003-0.428-0.003-0.844
		c1.299,2.517,2.484,4.814,3.682,7.135c0.519-0.147,0.957-0.323,1.412-0.388c0.754-0.108,0.878-0.529,0.82-1.209
		c-0.197-2.337-0.34-4.68-0.514-7.019c-0.068-0.917-0.165-1.832-0.252-2.792c-0.491,0.106-0.836,0.208-1.188,0.25
		c-0.715,0.085-0.864,0.464-0.746,1.132c0.183,1.031,0.277,2.077,0.416,3.116C178.33,34.773,178.506,36.038,178.678,37.303z
		 M194.539,51.456c-0.412-1.292-0.786-2.465-1.173-3.679c-1.796,0.627-3.51,1.227-5.224,1.825c-3.382,1.18-6.765,2.356-10.143,3.543
		c-0.312,0.109-0.768,0.145-0.596,0.691c0.363,1.149,0.728,2.298,1.118,3.531C183.888,55.385,189.174,53.435,194.539,51.456z
		 M176.419,50.68c5.446-1.836,10.784-3.635,16.161-5.448c-0.397-1.267-0.765-2.434-1.155-3.681
		c-5.473,1.739-10.833,3.441-16.247,5.161C175.601,48.063,175.993,49.317,176.419,50.68z M163.648,39.671
		c1.343-0.385,2.602-0.745,3.92-1.123c-0.215-0.65-0.407-1.233-0.606-1.839c-1.166,0.307-2.225,0.607-3.297,0.849
		c-0.223,0.05-0.653-0.056-0.718-0.206c-0.264-0.619-0.426-1.283-0.646-1.997c1.429-0.38,2.748-0.73,4.161-1.107
		c-0.212-0.673-0.396-1.26-0.585-1.867c-2.239,0.554-4.369,1.081-6.572,1.626c1.157,3.694,2.287,7.301,3.443,10.989
		c2.284-0.677,4.457-1.32,6.7-1.985c-0.216-0.685-0.395-1.252-0.589-1.868c-1.322,0.373-2.558,0.742-3.808,1.053
		c-0.196,0.049-0.601-0.108-0.666-0.269C164.1,41.222,163.902,40.48,163.648,39.671z M183.536,38.326
		c1.212,0.244,2.275,0.128,3.358-0.349c1.457-0.64,2.161-1.75,2.013-3.167c-0.15-1.418-1.083-2.44-2.562-2.771
		c-0.671-0.15-1.39-0.164-2.013-0.42c-0.381-0.157-0.855-0.657-0.855-1.003c-0.001-0.354,0.463-0.885,0.839-1.022
		c0.621-0.229,1.335-0.204,2.034-0.288c0.258-1.604-0.064-1.944-1.684-1.661c-0.379,0.066-0.76,0.14-1.124,0.261
		c-1.398,0.465-2.2,1.491-2.195,2.771c0.006,1.392,0.821,2.484,2.256,2.911c0.629,0.188,1.294,0.254,1.943,0.37
		c0.729,0.13,1.386,0.406,1.403,1.252c0.019,0.811-0.633,1.144-1.303,1.264c-0.738,0.133-1.501,0.125-2.317,0.183
		C183.399,37.217,183.469,37.781,183.536,38.326z"/>
	<path fill-rule="evenodd" clip-rule="evenodd" fill="#FFFFFF" d="M148.097,78.618c-2.914,1.188-6.672,0.643-8.763-2.23
		c-0.653-0.9-1.211-1.932-1.548-2.987c-2.755-8.636-5.447-17.292-8.155-25.943c-0.072-0.229-0.116-0.468-0.196-0.796
		c2.854-0.659,5.656-1.308,8.543-1.976C141.367,56.052,144.733,67.339,148.097,78.618z"/>
	<path opacity="0.8" fill-rule="evenodd" clip-rule="evenodd" d="M157.083,42.465c-0.703-2.114-1.546-4.645-2.43-7.299
		c0.695-0.175,1.292-0.357,1.902-0.456c0.156-0.025,0.468,0.182,0.52,0.342c1.127,3.515,2.228,7.038,3.35,10.611
		c-0.785,0.241-1.512,0.515-2.262,0.663c-0.246,0.049-0.621-0.161-0.828-0.364c-2.169-2.126-4.315-4.274-6.47-6.415
		c-0.053-0.054-0.122-0.091-0.338-0.248c0.939,2.906,1.829,5.656,2.744,8.485c-0.818,0.241-1.547,0.456-2.313,0.683
		c-0.101-0.212-0.199-0.373-0.254-0.548c-1.065-3.394-2.113-6.792-3.197-10.179c-0.183-0.571-0.102-0.748,0.501-0.982
		c1.646-0.64,2.855-0.383,4.098,1.002C153.718,39.557,155.616,41.099,157.083,42.465z"/>
	<path opacity="0.8" fill-rule="evenodd" clip-rule="evenodd" d="M178.678,37.303c-0.172-1.266-0.348-2.53-0.516-3.796
		c-0.139-1.039-0.233-2.085-0.416-3.116c-0.118-0.667,0.031-1.046,0.746-1.132c0.353-0.042,0.697-0.144,1.188-0.25
		c0.087,0.96,0.184,1.875,0.252,2.792c0.174,2.339,0.316,4.682,0.514,7.019c0.058,0.68-0.066,1.102-0.82,1.209
		c-0.455,0.065-0.894,0.241-1.412,0.388c-1.197-2.321-2.383-4.619-3.682-7.135c0,0.416-0.02,0.632,0.003,0.844
		c0.242,2.221,0.498,4.44,0.728,6.663c0.019,0.18-0.077,0.5-0.197,0.545c-0.618,0.23-1.257,0.411-1.9,0.558
		c-0.125,0.028-0.366-0.128-0.444-0.263c-1.832-3.143-3.649-6.294-5.525-9.542c0.71-0.19,1.331-0.412,1.968-0.493
		c0.212-0.027,0.568,0.257,0.689,0.488c1.103,2.1,2.168,4.22,3.246,6.333c0.094,0.183,0.21,0.355,0.431,0.489
		c-0.172-1.47-0.343-2.938-0.513-4.408c-0.127-1.096-0.262-2.191-0.363-3.29c-0.016-0.167,0.096-0.466,0.215-0.506
		c0.571-0.194,1.161-0.363,1.758-0.441c0.158-0.021,0.428,0.281,0.536,0.492c1.034,2.011,2.046,4.034,3.065,6.053
		c0.094,0.186,0.207,0.362,0.311,0.542C178.585,37.332,178.631,37.317,178.678,37.303z"/>
	<path opacity="0.8" fill-rule="evenodd" clip-rule="evenodd" d="M194.539,51.456c-5.365,1.979-10.651,3.93-16.017,5.911
		c-0.391-1.232-0.755-2.381-1.118-3.531c-0.172-0.546,0.284-0.582,0.596-0.691c3.378-1.187,6.761-2.363,10.143-3.543
		c1.714-0.598,3.428-1.198,5.224-1.825C193.753,48.991,194.127,50.164,194.539,51.456z"/>
	<path opacity="0.8" fill-rule="evenodd" clip-rule="evenodd" d="M176.419,50.68c-0.426-1.363-0.818-2.617-1.241-3.968
		c5.414-1.72,10.774-3.422,16.247-5.161c0.391,1.247,0.758,2.414,1.155,3.681C187.203,47.044,181.865,48.843,176.419,50.68z"/>
	<path opacity="0.8" fill-rule="evenodd" clip-rule="evenodd" d="M163.648,39.671c0.254,0.809,0.451,1.551,0.738,2.256
		c0.065,0.161,0.47,0.318,0.666,0.269c1.25-0.311,2.485-0.68,3.808-1.053c0.194,0.616,0.373,1.183,0.589,1.868
		c-2.243,0.665-4.416,1.309-6.7,1.985c-1.156-3.688-2.286-7.294-3.443-10.989c2.203-0.545,4.333-1.072,6.572-1.626
		c0.189,0.607,0.373,1.193,0.585,1.867c-1.413,0.376-2.732,0.727-4.161,1.107c0.22,0.714,0.382,1.378,0.646,1.997
		c0.064,0.15,0.495,0.256,0.718,0.206c1.072-0.241,2.131-0.542,3.297-0.849c0.199,0.605,0.392,1.188,0.606,1.839
		C166.25,38.926,164.991,39.287,163.648,39.671z"/>
	<path opacity="0.8" fill-rule="evenodd" clip-rule="evenodd" d="M183.536,38.326c-0.067-0.544-0.137-1.108-0.206-1.669
		c0.816-0.058,1.579-0.05,2.317-0.183c0.67-0.12,1.321-0.453,1.303-1.264c-0.018-0.846-0.674-1.122-1.403-1.252
		c-0.649-0.116-1.314-0.183-1.943-0.37c-1.435-0.427-2.25-1.519-2.256-2.911c-0.005-1.281,0.797-2.306,2.195-2.771
		c0.364-0.121,0.745-0.195,1.124-0.261c1.619-0.283,1.941,0.057,1.684,1.661c-0.699,0.084-1.413,0.06-2.034,0.288
		c-0.376,0.138-0.84,0.668-0.839,1.022c0,0.347,0.475,0.847,0.855,1.003c0.623,0.256,1.342,0.27,2.013,0.42
		c1.479,0.332,2.411,1.354,2.562,2.771c0.148,1.417-0.556,2.527-2.013,3.167C185.812,38.454,184.748,38.57,183.536,38.326z"/>
</g>
</svg>
