<?xml version="1.0" encoding="utf-8"?>
<!-- Generator: Adobe Illustrator 16.0.0, SVG Export Plug-In . SVG Version: 6.00 Build 0)  -->
<!DOCTYPE svg PUBLIC "-//W3C//DTD SVG 1.1//EN" "http://www.w3.org/Graphics/SVG/1.1/DTD/svg11.dtd">
<svg version="1.1" id="Capa_1" xmlns="http://www.w3.org/2000/svg" xmlns:xlink="http://www.w3.org/1999/xlink" x="0px" y="0px"
	 width="339.658px" height="119.731px" viewBox="0 0 339.658 119.731" enable-background="new 0 0 339.658 119.731"
	 xml:space="preserve">
<rect x="0.5" y="0.5" fill-rule="evenodd" clip-rule="evenodd" fill="#FAF19D" width="338.658" height="118.731"/>
<g opacity="0.8">
	<path d="M63.094,104.534l-3.419-12.885h1.749l1.96,8.445c0.211,0.885,0.393,1.764,0.545,2.637c0.328-1.377,0.521-2.17,0.58-2.381
		l2.452-8.701h2.057l1.846,6.521c0.463,1.617,0.797,3.137,1.002,4.561c0.164-0.814,0.378-1.748,0.642-2.803l2.021-8.279h1.714
		l-3.533,12.885h-1.644l-2.716-9.818c-0.229-0.82-0.363-1.324-0.404-1.512c-0.135,0.592-0.261,1.096-0.378,1.512l-2.733,9.818
		H63.094z"/>
	<path d="M77.631,104.534V91.649h1.582v4.623c0.738-0.855,1.67-1.283,2.795-1.283c0.691,0,1.292,0.136,1.802,0.408
		s0.874,0.648,1.095,1.129c0.219,0.48,0.329,1.178,0.329,2.092v5.916h-1.582v-5.916c0-0.791-0.171-1.366-0.515-1.727
		c-0.342-0.36-0.827-0.541-1.454-0.541c-0.469,0-0.909,0.122-1.323,0.365c-0.412,0.243-0.707,0.572-0.883,0.988
		s-0.264,0.99-0.264,1.723v5.107H77.631z"/>
	<path d="M94.031,101.528l1.635,0.201c-0.258,0.955-0.735,1.697-1.433,2.225s-1.588,0.791-2.672,0.791
		c-1.365,0-2.448-0.421-3.247-1.262c-0.801-0.841-1.2-2.02-1.2-3.537c0-1.57,0.404-2.789,1.213-3.656s1.857-1.301,3.146-1.301
		c1.248,0,2.268,0.424,3.059,1.273s1.187,2.045,1.187,3.586c0,0.094-0.003,0.234-0.009,0.422h-6.961
		c0.059,1.025,0.349,1.811,0.87,2.355s1.172,0.818,1.951,0.818c0.58,0,1.075-0.152,1.485-0.457S93.791,102.196,94.031,101.528z
		 M88.837,98.97h5.212c-0.07-0.785-0.27-1.373-0.598-1.766c-0.504-0.609-1.157-0.914-1.96-0.914c-0.727,0-1.338,0.242-1.833,0.729
		S88.89,98.155,88.837,98.97z"/>
	<path d="M97.635,104.534V95.2h1.424v1.414c0.363-0.662,0.699-1.098,1.006-1.309c0.309-0.211,0.646-0.316,1.016-0.316
		c0.533,0,1.075,0.17,1.626,0.51l-0.545,1.467c-0.387-0.229-0.773-0.342-1.16-0.342c-0.346,0-0.656,0.104-0.932,0.312
		s-0.472,0.497-0.589,0.866c-0.176,0.563-0.264,1.178-0.264,1.846v4.887H97.635z"/>
	<path d="M110.036,101.528l1.635,0.201c-0.258,0.955-0.735,1.697-1.433,2.225s-1.588,0.791-2.672,0.791
		c-1.365,0-2.447-0.421-3.248-1.262c-0.799-0.841-1.199-2.02-1.199-3.537c0-1.57,0.404-2.789,1.213-3.656s1.857-1.301,3.146-1.301
		c1.248,0,2.268,0.424,3.059,1.273s1.187,2.045,1.187,3.586c0,0.094-0.003,0.234-0.009,0.422h-6.961
		c0.059,1.025,0.349,1.811,0.87,2.355s1.172,0.818,1.951,0.818c0.58,0,1.075-0.152,1.485-0.457S109.796,102.196,110.036,101.528z
		 M104.842,98.97h5.212c-0.07-0.785-0.27-1.373-0.598-1.766c-0.504-0.609-1.157-0.914-1.96-0.914c-0.727,0-1.338,0.242-1.832,0.729
		C105.168,97.505,104.895,98.155,104.842,98.97z"/>
	<path d="M122.112,103.118l0.229,1.398c-0.445,0.094-0.844,0.141-1.195,0.141c-0.574,0-1.02-0.092-1.336-0.273
		s-0.539-0.42-0.668-0.716s-0.193-0.919-0.193-1.868v-5.369h-1.16V95.2h1.16v-2.313l1.573-0.949V95.2h1.591v1.23h-1.591v5.457
		c0,0.451,0.027,0.742,0.084,0.871c0.055,0.129,0.146,0.23,0.271,0.307s0.307,0.115,0.541,0.115
		C121.594,103.181,121.825,103.159,122.112,103.118z"/>
	<path d="M123.07,99.866c0-1.729,0.48-3.008,1.441-3.84c0.803-0.691,1.781-1.037,2.936-1.037c1.283,0,2.332,0.42,3.146,1.261
		s1.222,2.003,1.222,3.485c0,1.201-0.181,2.146-0.54,2.834c-0.361,0.688-0.886,1.223-1.574,1.604s-1.439,0.572-2.254,0.572
		c-1.307,0-2.363-0.42-3.168-1.258C123.473,102.649,123.07,101.442,123.07,99.866z M124.696,99.866c0,1.195,0.261,2.091,0.782,2.686
		s1.178,0.893,1.969,0.893c0.785,0,1.438-0.299,1.96-0.896s0.782-1.51,0.782-2.734c0-1.154-0.263-2.028-0.787-2.623
		s-1.176-0.893-1.955-0.893c-0.791,0-1.447,0.297-1.969,0.889S124.696,98.671,124.696,99.866z"/>
	<path d="M138.636,104.534V91.649h1.582v12.885H138.636z"/>
	<path d="M142.081,99.866c0-1.729,0.48-3.008,1.441-3.84c0.803-0.691,1.781-1.037,2.936-1.037c1.283,0,2.332,0.42,3.146,1.261
		s1.222,2.003,1.222,3.485c0,1.201-0.18,2.146-0.541,2.834c-0.359,0.688-0.885,1.223-1.572,1.604
		c-0.689,0.381-1.44,0.572-2.255,0.572c-1.307,0-2.363-0.42-3.169-1.258S142.081,101.442,142.081,99.866z M143.707,99.866
		c0,1.195,0.261,2.091,0.782,2.686s1.178,0.893,1.969,0.893c0.785,0,1.438-0.299,1.96-0.896s0.782-1.51,0.782-2.734
		c0-1.154-0.263-2.028-0.786-2.623c-0.525-0.595-1.177-0.893-1.956-0.893c-0.791,0-1.447,0.297-1.969,0.889
		S143.707,98.671,143.707,99.866z"/>
	<path d="M152.092,99.866c0-1.729,0.48-3.008,1.441-3.84c0.803-0.691,1.781-1.037,2.936-1.037c1.283,0,2.332,0.42,3.146,1.261
		s1.222,2.003,1.222,3.485c0,1.201-0.181,2.146-0.54,2.834c-0.361,0.688-0.886,1.223-1.574,1.604s-1.439,0.572-2.254,0.572
		c-1.307,0-2.363-0.42-3.168-1.258C152.494,102.649,152.092,101.442,152.092,99.866z M153.718,99.866
		c0,1.195,0.261,2.091,0.782,2.686s1.178,0.893,1.969,0.893c0.785,0,1.438-0.299,1.96-0.896s0.782-1.51,0.782-2.734
		c0-1.154-0.263-2.028-0.787-2.623s-1.176-0.893-1.955-0.893c-0.791,0-1.447,0.297-1.969,0.889S153.718,98.671,153.718,99.866z"/>
	<path d="M162.7,104.534V91.649h1.582v7.348l3.744-3.797h2.048l-3.568,3.463l3.929,5.871h-1.951l-3.085-4.773l-1.116,1.072v3.701
		H162.7z"/>
	<path d="M177.07,104.534v-8.104h-1.397V95.2h1.397v-0.994c0-0.627,0.056-1.092,0.167-1.396c0.152-0.41,0.42-0.743,0.804-0.998
		s0.922-0.383,1.613-0.383c0.445,0,0.938,0.053,1.477,0.158l-0.237,1.381c-0.328-0.059-0.639-0.088-0.932-0.088
		c-0.48,0-0.82,0.102-1.02,0.307s-0.299,0.59-0.299,1.152V95.2h1.819v1.23h-1.819v8.104H177.07z"/>
	<path d="M181.104,99.866c0-1.729,0.48-3.008,1.441-3.84c0.803-0.691,1.781-1.037,2.936-1.037c1.283,0,2.332,0.42,3.146,1.261
		s1.222,2.003,1.222,3.485c0,1.201-0.18,2.146-0.541,2.834c-0.359,0.688-0.885,1.223-1.572,1.604
		c-0.689,0.381-1.44,0.572-2.255,0.572c-1.307,0-2.363-0.42-3.169-1.258S181.104,101.442,181.104,99.866z M182.73,99.866
		c0,1.195,0.261,2.091,0.782,2.686s1.178,0.893,1.969,0.893c0.785,0,1.438-0.299,1.96-0.896s0.782-1.51,0.782-2.734
		c0-1.154-0.263-2.028-0.786-2.623c-0.525-0.595-1.177-0.893-1.956-0.893c-0.791,0-1.447,0.297-1.969,0.889
		S182.73,98.671,182.73,99.866z"/>
	<path d="M191.687,104.534V95.2h1.424v1.414c0.363-0.662,0.698-1.098,1.007-1.309c0.307-0.211,0.646-0.316,1.015-0.316
		c0.533,0,1.075,0.17,1.626,0.51l-0.545,1.467c-0.387-0.229-0.773-0.342-1.16-0.342c-0.346,0-0.656,0.104-0.932,0.312
		s-0.472,0.497-0.589,0.866c-0.176,0.563-0.264,1.178-0.264,1.846v4.887H191.687z"/>
	<path d="M200.687,108.155l0.299-1.346c0.316,0.082,0.565,0.123,0.747,0.123c0.322,0,0.563-0.106,0.721-0.32
		s0.237-0.748,0.237-1.604V95.2h1.582v9.844c0,1.148-0.149,1.947-0.448,2.398c-0.381,0.586-1.014,0.879-1.898,0.879
		C201.498,108.321,201.085,108.267,200.687,108.155z M202.69,93.485v-1.836h1.582v1.836H202.69z"/>
	<path d="M206.109,99.866c0-1.729,0.48-3.008,1.441-3.84c0.803-0.691,1.781-1.037,2.936-1.037c1.283,0,2.332,0.42,3.146,1.261
		s1.222,2.003,1.222,3.485c0,1.201-0.181,2.146-0.54,2.834c-0.361,0.688-0.886,1.223-1.574,1.604s-1.439,0.572-2.254,0.572
		c-1.307,0-2.363-0.42-3.168-1.258C206.512,102.649,206.109,101.442,206.109,99.866z M207.735,99.866
		c0,1.195,0.261,2.091,0.782,2.686s1.178,0.893,1.969,0.893c0.785,0,1.438-0.299,1.96-0.896s0.782-1.51,0.782-2.734
		c0-1.154-0.263-2.028-0.787-2.623s-1.176-0.893-1.955-0.893c-0.791,0-1.447,0.297-1.969,0.889S207.735,98.671,207.735,99.866z"/>
	<path d="M218.168,104.534H216.7V91.649h1.582v4.596c0.668-0.838,1.521-1.256,2.558-1.256c0.574,0,1.117,0.115,1.631,0.347
		c0.512,0.231,0.934,0.557,1.266,0.976c0.33,0.419,0.59,0.924,0.777,1.516s0.281,1.225,0.281,1.898c0,1.6-0.396,2.836-1.187,3.709
		s-1.74,1.311-2.848,1.311c-1.102,0-1.966-0.461-2.593-1.381V104.534z M218.15,99.796c0,1.119,0.152,1.928,0.457,2.426
		c0.498,0.814,1.172,1.223,2.021,1.223c0.691,0,1.289-0.301,1.793-0.901s0.756-1.495,0.756-2.685c0-1.219-0.242-2.119-0.725-2.699
		c-0.484-0.58-1.068-0.869-1.754-0.869c-0.691,0-1.289,0.3-1.793,0.9S218.15,98.659,218.15,99.796z"/>
	<path d="M231.132,99.866c0-1.729,0.48-3.008,1.441-3.84c0.803-0.691,1.781-1.037,2.936-1.037c1.283,0,2.332,0.42,3.146,1.261
		s1.222,2.003,1.222,3.485c0,1.201-0.18,2.146-0.541,2.834c-0.359,0.688-0.885,1.223-1.572,1.604
		c-0.689,0.381-1.44,0.572-2.255,0.572c-1.307,0-2.363-0.42-3.169-1.258S231.132,101.442,231.132,99.866z M232.758,99.866
		c0,1.195,0.261,2.091,0.782,2.686s1.178,0.893,1.969,0.893c0.785,0,1.438-0.299,1.96-0.896s0.782-1.51,0.782-2.734
		c0-1.154-0.263-2.028-0.786-2.623c-0.525-0.595-1.177-0.893-1.956-0.893c-0.791,0-1.447,0.297-1.969,0.889
		S232.758,98.671,232.758,99.866z"/>
	<path d="M242.109,104.534v-8.104h-1.397V95.2h1.397v-0.994c0-0.627,0.056-1.092,0.167-1.396c0.152-0.41,0.42-0.743,0.804-0.998
		s0.922-0.383,1.613-0.383c0.445,0,0.938,0.053,1.477,0.158l-0.237,1.381c-0.328-0.059-0.639-0.088-0.932-0.088
		c-0.48,0-0.82,0.102-1.02,0.307s-0.299,0.59-0.299,1.152V95.2h1.819v1.23h-1.819v8.104H242.109z"/>
	<path d="M246.785,104.534v-8.104h-1.397V95.2h1.397v-0.994c0-0.627,0.056-1.092,0.167-1.396c0.152-0.41,0.42-0.743,0.804-0.998
		s0.922-0.383,1.613-0.383c0.445,0,0.938,0.053,1.477,0.158l-0.237,1.381c-0.328-0.059-0.639-0.088-0.932-0.088
		c-0.48,0-0.82,0.102-1.02,0.307s-0.299,0.59-0.299,1.152V95.2h1.819v1.23h-1.819v8.104H246.785z"/>
	<path d="M257.798,101.528l1.635,0.201c-0.258,0.955-0.735,1.697-1.433,2.225s-1.588,0.791-2.672,0.791
		c-1.365,0-2.447-0.421-3.248-1.262c-0.799-0.841-1.199-2.02-1.199-3.537c0-1.57,0.404-2.789,1.213-3.656s1.857-1.301,3.146-1.301
		c1.248,0,2.268,0.424,3.059,1.273s1.187,2.045,1.187,3.586c0,0.094-0.003,0.234-0.009,0.422h-6.961
		c0.059,1.025,0.349,1.811,0.87,2.355s1.172,0.818,1.951,0.818c0.58,0,1.075-0.152,1.485-0.457S257.558,102.196,257.798,101.528z
		 M252.604,98.97h5.212c-0.07-0.785-0.27-1.373-0.598-1.766c-0.504-0.609-1.157-0.914-1.96-0.914c-0.727,0-1.338,0.242-1.832,0.729
		C252.93,97.505,252.656,98.155,252.604,98.97z"/>
	<path d="M261.401,104.534V95.2h1.424v1.414c0.363-0.662,0.698-1.098,1.007-1.309c0.307-0.211,0.646-0.316,1.015-0.316
		c0.533,0,1.075,0.17,1.626,0.51l-0.545,1.467c-0.387-0.229-0.773-0.342-1.16-0.342c-0.346,0-0.656,0.104-0.932,0.312
		s-0.472,0.497-0.589,0.866c-0.176,0.563-0.264,1.178-0.264,1.846v4.887H261.401z"/>
	<path d="M266.78,101.747l1.564-0.246c0.088,0.627,0.332,1.107,0.733,1.441s0.963,0.502,1.684,0.502
		c0.727,0,1.266-0.148,1.617-0.444s0.527-0.644,0.527-1.042c0-0.357-0.155-0.639-0.466-0.844c-0.217-0.141-0.756-0.318-1.617-0.535
		c-1.16-0.293-1.964-0.547-2.413-0.761c-0.447-0.214-0.788-0.51-1.02-0.888s-0.347-0.795-0.347-1.252
		c0-0.416,0.095-0.802,0.286-1.156c0.189-0.354,0.449-0.648,0.777-0.883c0.246-0.182,0.581-0.336,1.006-0.462
		s0.881-0.188,1.367-0.188c0.732,0,1.375,0.105,1.93,0.316c0.553,0.211,0.962,0.496,1.226,0.856s0.445,0.843,0.545,1.446
		l-1.547,0.211c-0.07-0.48-0.274-0.855-0.61-1.125c-0.338-0.27-0.813-0.404-1.429-0.404c-0.727,0-1.245,0.119-1.556,0.359
		s-0.466,0.521-0.466,0.844c0,0.205,0.064,0.391,0.193,0.555c0.129,0.17,0.331,0.311,0.606,0.422
		c0.158,0.059,0.624,0.193,1.397,0.404c1.119,0.299,1.899,0.543,2.343,0.733c0.441,0.19,0.789,0.468,1.041,0.831
		s0.378,0.814,0.378,1.354c0,0.527-0.153,1.023-0.462,1.489c-0.307,0.466-0.751,0.826-1.331,1.081s-1.236,0.383-1.969,0.383
		c-1.213,0-2.138-0.252-2.772-0.756C267.361,103.485,266.956,102.737,266.78,101.747z"/>
</g>
<g>
	<path opacity="0.8" fill-rule="evenodd" clip-rule="evenodd" d="M175.785,26.062c3.196,0,6.3-0.016,9.404,0.007
		c1.301,0.01,2.629-0.049,3.896,0.188c2.849,0.532,5.017,2.97,5.108,5.861c0.121,3.833,0.048,7.672,0.053,11.509
		c0,0.07-0.046,0.141-0.047,0.143c-1.528-0.381-3.018-0.855-4.544-1.117c-9.712-1.664-19.365,5.236-21.017,14.961
		c-0.69,4.068-0.153,7.95,1.705,11.635c0.216,0.428,0.175,0.674-0.161,1.002c-1.713,1.683-3.391,3.401-5.11,5.076
		c-0.229,0.223-0.626,0.385-0.945,0.385c-9.944,0.02-19.889,0.031-29.833,0.008c-3.752-0.009-6.647-2.916-6.649-6.68
		c-0.006-12.085,0.006-24.169,0.046-36.253c0.013-3.958,2.842-6.707,6.813-6.721c3.549-0.011,7.099-0.002,10.648-0.002
		c0.283,0,0.567,0,0.938,0c0.019-0.323,0.048-0.597,0.049-0.871c0.003-1.696,0.068-3.396-0.012-5.088
		c-0.198-4.269,3.337-6.671,6.066-7.157c0.536-0.095,1.089-0.141,1.635-0.142c4.75-0.011,9.5-0.005,14.251-0.007
		c2.008-0.001,3.8,0.613,5.328,1.924c1.546,1.328,2.392,2.982,2.346,5.07c-0.041,1.8-0.01,3.601-0.007,5.402
		C175.747,25.469,175.771,25.745,175.785,26.062z M168.319,20.262c-4.941,0-9.805,0-14.71,0c0,1.937,0,3.824,0,5.741
		c4.929,0,9.81,0,14.71,0C168.319,24.074,168.319,22.205,168.319,20.262z"/>
	<path opacity="0.8" fill-rule="evenodd" clip-rule="evenodd" d="M177.453,72.638c-0.178,0.532-0.468,0.988-0.449,1.431
		c0.036,0.827-0.24,1.396-0.826,1.972c-3.426,3.366-6.813,6.771-10.213,10.164c-0.183,0.182-0.373,0.357-0.498,0.477
		c-1.152-1.161-2.283-2.3-3.464-3.489c1.075-1.067,2.264-2.237,3.442-3.416c2.437-2.436,4.885-4.862,7.291-7.327
		c0.535-0.547,1.07-0.8,1.839-0.771c0.453,0.017,0.918-0.229,1.529-0.396c-3.217-3.963-4.39-8.244-3.474-13.009
		c0.73-3.794,2.717-6.859,5.812-9.174c6.178-4.621,14.889-3.795,20.129,1.886c5.225,5.665,5.361,14.334,0.328,20.158
		C193.716,77.14,184.382,78.37,177.453,72.638z M187.443,50.783c-5.793,0.008-10.466,4.676-10.467,10.453
		c0,5.813,4.699,10.483,10.532,10.465c5.784-0.018,10.434-4.698,10.421-10.491C197.917,55.427,193.238,50.775,187.443,50.783z"/>
	<path fill-rule="evenodd" clip-rule="evenodd" fill="#FFFFFF" d="M187.443,50.783c5.795-0.008,10.474,4.644,10.486,10.427
		c0.013,5.793-4.637,10.474-10.421,10.491c-5.833,0.019-10.532-4.651-10.532-10.465C176.978,55.459,181.65,50.792,187.443,50.783z"
		/>
</g>
</svg>
