<?xml version="1.0" encoding="utf-8"?>
<!-- Generator: Adobe Illustrator 16.0.0, SVG Export Plug-In . SVG Version: 6.00 Build 0)  -->
<!DOCTYPE svg PUBLIC "-//W3C//DTD SVG 1.1//EN" "http://www.w3.org/Graphics/SVG/1.1/DTD/svg11.dtd">
<svg version="1.1" id="Capa_1" xmlns="http://www.w3.org/2000/svg" xmlns:xlink="http://www.w3.org/1999/xlink" x="0px" y="0px"
	 width="338.658px" height="118.732px" viewBox="0 0 338.658 118.732" enable-background="new 0 0 338.658 118.732"
	 xml:space="preserve">
<rect fill-rule="evenodd" clip-rule="evenodd" fill="#FAF19D" width="338.658" height="118.732"/>
<g opacity="0.8">
	<path d="M62.594,104.034l-3.419-12.885h1.749l1.96,8.446c0.211,0.885,0.393,1.764,0.545,2.637c0.328-1.377,0.521-2.171,0.58-2.382
		l2.452-8.701h2.057l1.846,6.521c0.463,1.617,0.797,3.138,1.002,4.562c0.164-0.814,0.378-1.749,0.642-2.804l2.021-8.279h1.714
		l-3.533,12.885h-1.644l-2.716-9.817c-0.229-0.82-0.363-1.324-0.404-1.512c-0.135,0.592-0.261,1.096-0.378,1.512l-2.733,9.817
		H62.594z"/>
	<path d="M77.131,104.034V91.149h1.582v4.623c0.738-0.855,1.67-1.283,2.795-1.283c0.691,0,1.292,0.136,1.802,0.409
		c0.51,0.271,0.874,0.648,1.095,1.129c0.219,0.48,0.329,1.178,0.329,2.092v5.915h-1.582v-5.915c0-0.791-0.171-1.367-0.515-1.727
		c-0.342-0.361-0.827-0.541-1.454-0.541c-0.469,0-0.909,0.121-1.323,0.365c-0.412,0.242-0.707,0.572-0.883,0.988
		s-0.264,0.99-0.264,1.723v5.106H77.131z"/>
	<path d="M93.531,101.028l1.635,0.202c-0.258,0.955-0.735,1.696-1.433,2.224s-1.588,0.791-2.672,0.791
		c-1.365,0-2.448-0.421-3.247-1.261c-0.801-0.842-1.2-2.021-1.2-3.538c0-1.57,0.404-2.789,1.213-3.656s1.857-1.301,3.146-1.301
		c1.248,0,2.268,0.425,3.059,1.274s1.187,2.045,1.187,3.586c0,0.094-0.003,0.234-0.009,0.422h-6.961
		c0.059,1.025,0.349,1.811,0.87,2.355s1.172,0.817,1.951,0.817c0.58,0,1.075-0.152,1.485-0.457S93.291,101.696,93.531,101.028z
		 M88.337,98.47h5.212c-0.07-0.785-0.27-1.374-0.598-1.767c-0.504-0.609-1.157-0.914-1.96-0.914c-0.727,0-1.338,0.243-1.833,0.729
		S88.39,97.656,88.337,98.47z"/>
	<path d="M97.135,104.034V94.7h1.424v1.415c0.363-0.662,0.699-1.099,1.006-1.31c0.309-0.211,0.646-0.316,1.016-0.316
		c0.533,0,1.075,0.17,1.626,0.51l-0.545,1.468c-0.387-0.229-0.773-0.343-1.16-0.343c-0.346,0-0.656,0.104-0.932,0.312
		c-0.275,0.209-0.472,0.497-0.589,0.866c-0.176,0.563-0.264,1.178-0.264,1.846v4.887H97.135z"/>
	<path d="M109.536,101.028l1.635,0.202c-0.258,0.955-0.735,1.696-1.433,2.224s-1.588,0.791-2.672,0.791
		c-1.365,0-2.447-0.421-3.248-1.261c-0.799-0.842-1.199-2.021-1.199-3.538c0-1.57,0.404-2.789,1.213-3.656s1.857-1.301,3.146-1.301
		c1.248,0,2.268,0.425,3.059,1.274s1.187,2.045,1.187,3.586c0,0.094-0.003,0.234-0.009,0.422h-6.961
		c0.059,1.025,0.349,1.811,0.87,2.355s1.172,0.817,1.951,0.817c0.58,0,1.075-0.152,1.485-0.457S109.296,101.696,109.536,101.028z
		 M104.342,98.47h5.212c-0.07-0.785-0.27-1.374-0.598-1.767c-0.504-0.609-1.157-0.914-1.96-0.914c-0.727,0-1.338,0.243-1.832,0.729
		C104.668,97.005,104.395,97.656,104.342,98.47z"/>
	<path d="M121.612,102.619l0.229,1.397c-0.445,0.094-0.844,0.141-1.195,0.141c-0.574,0-1.02-0.091-1.336-0.272
		s-0.539-0.42-0.668-0.717c-0.129-0.295-0.193-0.918-0.193-1.867v-5.37h-1.16V94.7h1.16v-2.312l1.573-0.949V94.7h1.591v1.23h-1.591
		v5.458c0,0.451,0.027,0.741,0.084,0.87c0.055,0.129,0.146,0.231,0.271,0.308s0.307,0.114,0.541,0.114
		C121.094,102.68,121.325,102.66,121.612,102.619z"/>
	<path d="M122.57,99.367c0-1.729,0.48-3.009,1.441-3.841c0.803-0.691,1.781-1.037,2.936-1.037c1.283,0,2.332,0.421,3.146,1.261
		c0.814,0.842,1.222,2.003,1.222,3.485c0,1.201-0.181,2.146-0.54,2.835c-0.361,0.688-0.886,1.223-1.574,1.604
		s-1.439,0.571-2.254,0.571c-1.307,0-2.363-0.419-3.168-1.257C122.973,102.15,122.57,100.943,122.57,99.367z M124.196,99.367
		c0,1.195,0.261,2.09,0.782,2.686c0.521,0.594,1.178,0.892,1.969,0.892c0.785,0,1.438-0.299,1.96-0.896s0.782-1.509,0.782-2.733
		c0-1.154-0.263-2.029-0.787-2.623c-0.524-0.596-1.176-0.893-1.955-0.893c-0.791,0-1.447,0.296-1.969,0.888
		S124.196,98.171,124.196,99.367z"/>
	<path d="M138.136,104.034V91.149h1.582v12.885H138.136z"/>
	<path d="M141.581,99.367c0-1.729,0.48-3.009,1.441-3.841c0.803-0.691,1.781-1.037,2.936-1.037c1.283,0,2.332,0.421,3.146,1.261
		c0.814,0.842,1.222,2.003,1.222,3.485c0,1.201-0.18,2.146-0.541,2.835c-0.359,0.688-0.885,1.223-1.572,1.604
		c-0.689,0.381-1.44,0.571-2.255,0.571c-1.307,0-2.363-0.419-3.169-1.257S141.581,100.943,141.581,99.367z M143.207,99.367
		c0,1.195,0.261,2.09,0.782,2.686c0.521,0.594,1.178,0.892,1.969,0.892c0.785,0,1.438-0.299,1.96-0.896s0.782-1.509,0.782-2.733
		c0-1.154-0.263-2.029-0.786-2.623c-0.525-0.596-1.177-0.893-1.956-0.893c-0.791,0-1.447,0.296-1.969,0.888
		S143.207,98.171,143.207,99.367z"/>
	<path d="M151.592,99.367c0-1.729,0.48-3.009,1.441-3.841c0.803-0.691,1.781-1.037,2.936-1.037c1.283,0,2.332,0.421,3.146,1.261
		c0.814,0.842,1.222,2.003,1.222,3.485c0,1.201-0.181,2.146-0.54,2.835c-0.361,0.688-0.886,1.223-1.574,1.604
		s-1.439,0.571-2.254,0.571c-1.307,0-2.363-0.419-3.168-1.257C151.994,102.15,151.592,100.943,151.592,99.367z M153.218,99.367
		c0,1.195,0.261,2.09,0.782,2.686c0.521,0.594,1.178,0.892,1.969,0.892c0.785,0,1.438-0.299,1.96-0.896s0.782-1.509,0.782-2.733
		c0-1.154-0.263-2.029-0.787-2.623c-0.524-0.596-1.176-0.893-1.955-0.893c-0.791,0-1.447,0.296-1.969,0.888
		S153.218,98.171,153.218,99.367z"/>
	<path d="M162.2,104.034V91.149h1.582v7.348l3.744-3.797h2.048l-3.568,3.463l3.929,5.871h-1.951l-3.085-4.772l-1.116,1.072v3.7
		H162.2z"/>
	<path d="M176.57,104.034V95.93h-1.397V94.7h1.397v-0.993c0-0.627,0.056-1.093,0.167-1.397c0.152-0.41,0.42-0.743,0.804-0.997
		c0.384-0.256,0.922-0.383,1.613-0.383c0.445,0,0.938,0.053,1.477,0.158l-0.237,1.38c-0.328-0.059-0.639-0.088-0.932-0.088
		c-0.48,0-0.82,0.103-1.02,0.308s-0.299,0.589-0.299,1.151V94.7h1.819v1.23h-1.819v8.104H176.57z"/>
	<path d="M180.604,99.367c0-1.729,0.48-3.009,1.441-3.841c0.803-0.691,1.781-1.037,2.936-1.037c1.283,0,2.332,0.421,3.146,1.261
		c0.814,0.842,1.222,2.003,1.222,3.485c0,1.201-0.18,2.146-0.541,2.835c-0.359,0.688-0.885,1.223-1.572,1.604
		c-0.689,0.381-1.44,0.571-2.255,0.571c-1.307,0-2.363-0.419-3.169-1.257S180.604,100.943,180.604,99.367z M182.23,99.367
		c0,1.195,0.261,2.09,0.782,2.686c0.521,0.594,1.178,0.892,1.969,0.892c0.785,0,1.438-0.299,1.96-0.896s0.782-1.509,0.782-2.733
		c0-1.154-0.263-2.029-0.786-2.623c-0.525-0.596-1.177-0.893-1.956-0.893c-0.791,0-1.447,0.296-1.969,0.888
		S182.23,98.171,182.23,99.367z"/>
	<path d="M191.187,104.034V94.7h1.424v1.415c0.363-0.662,0.698-1.099,1.007-1.31c0.307-0.211,0.646-0.316,1.015-0.316
		c0.533,0,1.075,0.17,1.626,0.51l-0.545,1.468c-0.387-0.229-0.773-0.343-1.16-0.343c-0.346,0-0.656,0.104-0.932,0.312
		c-0.275,0.209-0.472,0.497-0.589,0.866c-0.176,0.563-0.264,1.178-0.264,1.846v4.887H191.187z"/>
	<path d="M200.187,107.655l0.299-1.345c0.316,0.082,0.565,0.123,0.747,0.123c0.322,0,0.563-0.107,0.721-0.32
		c0.158-0.215,0.237-0.749,0.237-1.604V94.7h1.582v9.844c0,1.148-0.149,1.948-0.448,2.399c-0.381,0.586-1.014,0.879-1.898,0.879
		C200.998,107.822,200.585,107.766,200.187,107.655z M202.19,92.986v-1.837h1.582v1.837H202.19z"/>
	<path d="M205.609,99.367c0-1.729,0.48-3.009,1.441-3.841c0.803-0.691,1.781-1.037,2.936-1.037c1.283,0,2.332,0.421,3.146,1.261
		c0.814,0.842,1.222,2.003,1.222,3.485c0,1.201-0.181,2.146-0.54,2.835c-0.361,0.688-0.886,1.223-1.574,1.604
		s-1.439,0.571-2.254,0.571c-1.307,0-2.363-0.419-3.168-1.257C206.012,102.15,205.609,100.943,205.609,99.367z M207.235,99.367
		c0,1.195,0.261,2.09,0.782,2.686c0.521,0.594,1.178,0.892,1.969,0.892c0.785,0,1.438-0.299,1.96-0.896s0.782-1.509,0.782-2.733
		c0-1.154-0.263-2.029-0.787-2.623c-0.524-0.596-1.176-0.893-1.955-0.893c-0.791,0-1.447,0.296-1.969,0.888
		S207.235,98.171,207.235,99.367z"/>
	<path d="M217.668,104.034H216.2V91.149h1.582v4.597c0.668-0.838,1.521-1.257,2.558-1.257c0.574,0,1.117,0.116,1.631,0.347
		c0.512,0.232,0.934,0.557,1.266,0.977c0.33,0.418,0.59,0.924,0.777,1.516s0.281,1.225,0.281,1.898c0,1.6-0.396,2.836-1.187,3.709
		s-1.74,1.31-2.848,1.31c-1.102,0-1.966-0.46-2.593-1.38V104.034z M217.65,99.296c0,1.119,0.152,1.928,0.457,2.426
		c0.498,0.814,1.172,1.222,2.021,1.222c0.691,0,1.289-0.3,1.793-0.901c0.504-0.6,0.756-1.495,0.756-2.685
		c0-1.219-0.242-2.118-0.725-2.698c-0.484-0.58-1.068-0.87-1.754-0.87c-0.691,0-1.289,0.3-1.793,0.901
		C217.902,97.291,217.65,98.16,217.65,99.296z"/>
	<path d="M230.632,99.367c0-1.729,0.48-3.009,1.441-3.841c0.803-0.691,1.781-1.037,2.936-1.037c1.283,0,2.332,0.421,3.146,1.261
		c0.814,0.842,1.222,2.003,1.222,3.485c0,1.201-0.18,2.146-0.541,2.835c-0.359,0.688-0.885,1.223-1.572,1.604
		c-0.689,0.381-1.44,0.571-2.255,0.571c-1.307,0-2.363-0.419-3.169-1.257S230.632,100.943,230.632,99.367z M232.258,99.367
		c0,1.195,0.261,2.09,0.782,2.686c0.521,0.594,1.178,0.892,1.969,0.892c0.785,0,1.438-0.299,1.96-0.896s0.782-1.509,0.782-2.733
		c0-1.154-0.263-2.029-0.786-2.623c-0.525-0.596-1.177-0.893-1.956-0.893c-0.791,0-1.447,0.296-1.969,0.888
		S232.258,98.171,232.258,99.367z"/>
	<path d="M241.609,104.034V95.93h-1.397V94.7h1.397v-0.993c0-0.627,0.056-1.093,0.167-1.397c0.152-0.41,0.42-0.743,0.804-0.997
		c0.384-0.256,0.922-0.383,1.613-0.383c0.445,0,0.938,0.053,1.477,0.158l-0.237,1.38c-0.328-0.059-0.639-0.088-0.932-0.088
		c-0.48,0-0.82,0.103-1.02,0.308s-0.299,0.589-0.299,1.151V94.7h1.819v1.23h-1.819v8.104H241.609z"/>
	<path d="M246.285,104.034V95.93h-1.397V94.7h1.397v-0.993c0-0.627,0.056-1.093,0.167-1.397c0.152-0.41,0.42-0.743,0.804-0.997
		c0.384-0.256,0.922-0.383,1.613-0.383c0.445,0,0.938,0.053,1.477,0.158l-0.237,1.38c-0.328-0.059-0.639-0.088-0.932-0.088
		c-0.48,0-0.82,0.103-1.02,0.308s-0.299,0.589-0.299,1.151V94.7h1.819v1.23h-1.819v8.104H246.285z"/>
	<path d="M257.298,101.028l1.635,0.202c-0.258,0.955-0.735,1.696-1.433,2.224s-1.588,0.791-2.672,0.791
		c-1.365,0-2.447-0.421-3.248-1.261c-0.799-0.842-1.199-2.021-1.199-3.538c0-1.57,0.404-2.789,1.213-3.656s1.857-1.301,3.146-1.301
		c1.248,0,2.268,0.425,3.059,1.274s1.187,2.045,1.187,3.586c0,0.094-0.003,0.234-0.009,0.422h-6.961
		c0.059,1.025,0.349,1.811,0.87,2.355s1.172,0.817,1.951,0.817c0.58,0,1.075-0.152,1.485-0.457S257.058,101.696,257.298,101.028z
		 M252.104,98.47h5.212c-0.07-0.785-0.27-1.374-0.598-1.767c-0.504-0.609-1.157-0.914-1.96-0.914c-0.727,0-1.338,0.243-1.832,0.729
		C252.43,97.005,252.156,97.656,252.104,98.47z"/>
	<path d="M260.901,104.034V94.7h1.424v1.415c0.363-0.662,0.698-1.099,1.007-1.31c0.307-0.211,0.646-0.316,1.015-0.316
		c0.533,0,1.075,0.17,1.626,0.51l-0.545,1.468c-0.387-0.229-0.773-0.343-1.16-0.343c-0.346,0-0.656,0.104-0.932,0.312
		c-0.275,0.209-0.472,0.497-0.589,0.866c-0.176,0.563-0.264,1.178-0.264,1.846v4.887H260.901z"/>
	<path d="M266.28,101.248l1.564-0.246c0.088,0.627,0.332,1.107,0.733,1.441s0.963,0.501,1.684,0.501
		c0.727,0,1.266-0.147,1.617-0.444c0.352-0.295,0.527-0.643,0.527-1.041c0-0.357-0.155-0.639-0.466-0.844
		c-0.217-0.141-0.756-0.319-1.617-0.536c-1.16-0.293-1.964-0.546-2.413-0.761c-0.447-0.213-0.788-0.51-1.02-0.887
		c-0.231-0.379-0.347-0.796-0.347-1.253c0-0.416,0.095-0.802,0.286-1.155c0.189-0.355,0.449-0.649,0.777-0.884
		c0.246-0.182,0.581-0.335,1.006-0.462c0.425-0.125,0.881-0.188,1.367-0.188c0.732,0,1.375,0.105,1.93,0.316
		c0.553,0.211,0.962,0.497,1.226,0.856c0.264,0.361,0.445,0.843,0.545,1.446l-1.547,0.211c-0.07-0.48-0.274-0.855-0.61-1.125
		c-0.338-0.27-0.813-0.404-1.429-0.404c-0.727,0-1.245,0.12-1.556,0.36s-0.466,0.521-0.466,0.844c0,0.205,0.064,0.39,0.193,0.554
		c0.129,0.17,0.331,0.311,0.606,0.422c0.158,0.059,0.624,0.193,1.397,0.404c1.119,0.299,1.899,0.544,2.343,0.733
		c0.441,0.191,0.789,0.468,1.041,0.831s0.378,0.814,0.378,1.354c0,0.527-0.153,1.024-0.462,1.489
		c-0.307,0.467-0.751,0.826-1.331,1.082c-0.58,0.254-1.236,0.382-1.969,0.382c-1.213,0-2.138-0.252-2.772-0.756
		C266.861,102.985,266.456,102.238,266.28,101.248z"/>
</g>
<g>
	<path opacity="0.8" fill-rule="evenodd" clip-rule="evenodd" d="M175.285,25.562c3.196,0,6.3-0.016,9.404,0.007
		c1.301,0.01,2.629-0.049,3.896,0.188c2.849,0.532,5.017,2.97,5.108,5.861c0.121,3.833,0.048,7.672,0.053,11.509
		c0,0.07-0.046,0.141-0.047,0.143c-1.528-0.381-3.018-0.855-4.544-1.117c-9.712-1.664-19.365,5.236-21.017,14.961
		c-0.69,4.069-0.153,7.95,1.705,11.635c0.216,0.428,0.175,0.673-0.161,1.002c-1.713,1.682-3.391,3.4-5.11,5.076
		c-0.229,0.223-0.626,0.384-0.945,0.385c-9.944,0.02-19.889,0.03-29.833,0.008c-3.752-0.01-6.647-2.917-6.649-6.68
		c-0.006-12.085,0.006-24.169,0.046-36.254c0.013-3.958,2.842-6.707,6.813-6.721c3.549-0.011,7.099-0.002,10.648-0.002
		c0.283,0,0.567,0,0.938,0c0.019-0.323,0.048-0.597,0.049-0.871c0.003-1.696,0.068-3.396-0.012-5.088
		c-0.198-4.269,3.337-6.671,6.066-7.157c0.536-0.095,1.089-0.141,1.635-0.142c4.75-0.011,9.5-0.005,14.251-0.007
		c2.008-0.001,3.8,0.613,5.328,1.924c1.546,1.328,2.392,2.982,2.346,5.07c-0.041,1.8-0.01,3.601-0.007,5.402
		C175.247,24.969,175.271,25.245,175.285,25.562z M167.819,19.762c-4.941,0-9.805,0-14.71,0c0,1.937,0,3.824,0,5.741
		c4.929,0,9.81,0,14.71,0C167.819,23.574,167.819,21.705,167.819,19.762z"/>
	<path opacity="0.8" fill-rule="evenodd" clip-rule="evenodd" d="M176.953,72.138c-0.178,0.531-0.468,0.988-0.449,1.43
		c0.036,0.827-0.24,1.396-0.826,1.973c-3.426,3.365-6.813,6.771-10.213,10.164c-0.183,0.182-0.373,0.356-0.498,0.477
		c-1.152-1.162-2.283-2.301-3.464-3.49c1.075-1.066,2.264-2.236,3.442-3.416c2.437-2.436,4.885-4.861,7.291-7.326
		c0.535-0.548,1.07-0.801,1.839-0.771c0.453,0.016,0.918-0.229,1.529-0.396c-3.217-3.964-4.39-8.244-3.474-13.009
		c0.73-3.794,2.717-6.859,5.812-9.174c6.178-4.621,14.889-3.795,20.129,1.886c5.225,5.665,5.361,14.333,0.328,20.158
		C193.216,76.64,183.882,77.871,176.953,72.138z M186.943,50.283c-5.793,0.008-10.466,4.676-10.467,10.453
		c0,5.814,4.699,10.484,10.532,10.465c5.784-0.018,10.434-4.697,10.421-10.49C197.417,54.927,192.738,50.275,186.943,50.283z"/>
	<path fill-rule="evenodd" clip-rule="evenodd" fill="#FFFFFF" d="M186.943,50.283c5.795-0.008,10.474,4.644,10.486,10.427
		c0.013,5.793-4.637,10.473-10.421,10.49c-5.833,0.02-10.532-4.65-10.532-10.465C176.478,54.959,181.15,50.292,186.943,50.283z"/>
</g>
</svg>
