<?xml version="1.0" encoding="utf-8"?>
<!-- Generator: Adobe Illustrator 16.0.0, SVG Export Plug-In . SVG Version: 6.00 Build 0)  -->
<!DOCTYPE svg PUBLIC "-//W3C//DTD SVG 1.1//EN" "http://www.w3.org/Graphics/SVG/1.1/DTD/svg11.dtd">
<svg version="1.1" id="Capa_1" xmlns="http://www.w3.org/2000/svg" xmlns:xlink="http://www.w3.org/1999/xlink" x="0px" y="0px"
	 width="339.658px" height="119.73px" viewBox="0 0 339.658 119.73" enable-background="new 0 0 339.658 119.73"
	 xml:space="preserve">
<g opacity="0.8">
	<path fill="#FFFFFF" d="M63.094,104.534l-3.419-12.886h1.749l1.96,8.445c0.211,0.885,0.393,1.764,0.545,2.637
		c0.328-1.377,0.521-2.17,0.58-2.381l2.452-8.701h2.057l1.846,6.521c0.463,1.617,0.797,3.137,1.002,4.561
		c0.164-0.813,0.378-1.748,0.642-2.803l2.021-8.279h1.714l-3.533,12.886h-1.644l-2.716-9.818c-0.229-0.82-0.363-1.324-0.404-1.512
		c-0.135,0.592-0.261,1.096-0.378,1.512l-2.733,9.818H63.094z"/>
	<path fill="#FFFFFF" d="M77.631,104.534V91.649h1.582v4.623c0.738-0.854,1.67-1.282,2.795-1.282c0.691,0,1.292,0.136,1.802,0.407
		c0.51,0.272,0.874,0.648,1.095,1.129c0.219,0.48,0.329,1.179,0.329,2.093v5.916h-1.582v-5.916c0-0.791-0.171-1.366-0.515-1.728
		c-0.342-0.359-0.827-0.541-1.454-0.541c-0.469,0-0.909,0.122-1.323,0.365c-0.412,0.243-0.707,0.572-0.883,0.988
		c-0.176,0.416-0.264,0.989-0.264,1.723v5.107L77.631,104.534L77.631,104.534z"/>
	<path fill="#FFFFFF" d="M94.031,101.528l1.635,0.201c-0.258,0.955-0.735,1.697-1.433,2.226c-0.698,0.527-1.588,0.791-2.672,0.791
		c-1.365,0-2.448-0.421-3.247-1.263c-0.801-0.841-1.2-2.02-1.2-3.537c0-1.569,0.404-2.788,1.213-3.655s1.857-1.302,3.146-1.302
		c1.248,0,2.268,0.425,3.059,1.273s1.187,2.045,1.187,3.586c0,0.094-0.003,0.234-0.009,0.422h-6.961
		c0.059,1.025,0.349,1.812,0.87,2.355s1.172,0.817,1.951,0.817c0.58,0,1.075-0.151,1.485-0.457
		C93.465,102.681,93.791,102.196,94.031,101.528z M88.837,98.97h5.212c-0.07-0.785-0.27-1.373-0.598-1.766
		c-0.504-0.609-1.157-0.914-1.96-0.914c-0.727,0-1.338,0.242-1.833,0.729C89.163,97.506,88.89,98.155,88.837,98.97z"/>
	<path fill="#FFFFFF" d="M97.635,104.534V95.2h1.424v1.414c0.363-0.662,0.699-1.099,1.006-1.31c0.309-0.211,0.646-0.315,1.016-0.315
		c0.533,0,1.075,0.17,1.626,0.51l-0.545,1.467c-0.387-0.229-0.773-0.342-1.16-0.342c-0.346,0-0.656,0.104-0.932,0.312
		c-0.276,0.208-0.472,0.497-0.589,0.866c-0.176,0.563-0.264,1.178-0.264,1.846v4.888L97.635,104.534L97.635,104.534z"/>
	<path fill="#FFFFFF" d="M110.036,101.528l1.635,0.201c-0.258,0.955-0.735,1.697-1.433,2.226c-0.698,0.527-1.588,0.791-2.672,0.791
		c-1.365,0-2.447-0.421-3.248-1.263c-0.799-0.841-1.199-2.02-1.199-3.537c0-1.569,0.404-2.788,1.213-3.655s1.857-1.302,3.146-1.302
		c1.248,0,2.268,0.425,3.059,1.273s1.187,2.045,1.187,3.586c0,0.094-0.003,0.234-0.009,0.422h-6.961
		c0.059,1.025,0.349,1.812,0.87,2.355s1.172,0.817,1.951,0.817c0.58,0,1.075-0.151,1.485-0.457
		C109.47,102.681,109.796,102.196,110.036,101.528z M104.842,98.97h5.212c-0.07-0.785-0.27-1.373-0.598-1.766
		c-0.504-0.609-1.157-0.914-1.96-0.914c-0.727,0-1.338,0.242-1.832,0.729C105.168,97.505,104.895,98.155,104.842,98.97z"/>
	<path fill="#FFFFFF" d="M122.112,103.118l0.229,1.397c-0.445,0.094-0.844,0.142-1.195,0.142c-0.574,0-1.02-0.093-1.336-0.273
		s-0.539-0.42-0.668-0.716s-0.193-0.919-0.193-1.868v-5.369h-1.16V95.2h1.16v-2.313l1.573-0.949V95.2h1.591v1.229h-1.591v5.457
		c0,0.451,0.027,0.742,0.084,0.871c0.055,0.129,0.146,0.229,0.271,0.307s0.307,0.115,0.541,0.115
		C121.594,103.181,121.825,103.159,122.112,103.118z"/>
	<path fill="#FFFFFF" d="M123.07,99.866c0-1.729,0.48-3.009,1.441-3.841c0.803-0.69,1.781-1.036,2.936-1.036
		c1.283,0,2.332,0.42,3.146,1.261c0.814,0.841,1.222,2.003,1.222,3.484c0,1.201-0.181,2.146-0.54,2.834
		c-0.361,0.688-0.886,1.224-1.574,1.604s-1.439,0.572-2.254,0.572c-1.307,0-2.363-0.42-3.168-1.259
		C123.473,102.649,123.07,101.442,123.07,99.866z M124.696,99.866c0,1.194,0.261,2.091,0.782,2.686s1.178,0.893,1.969,0.893
		c0.785,0,1.438-0.299,1.96-0.896c0.522-0.597,0.782-1.51,0.782-2.734c0-1.153-0.263-2.027-0.787-2.623
		c-0.524-0.595-1.176-0.893-1.955-0.893c-0.791,0-1.447,0.297-1.969,0.889S124.696,98.671,124.696,99.866z"/>
	<path fill="#FFFFFF" d="M138.636,104.534V91.649h1.582v12.886H138.636z"/>
	<path fill="#FFFFFF" d="M142.081,99.866c0-1.729,0.48-3.009,1.441-3.841c0.803-0.69,1.781-1.036,2.936-1.036
		c1.283,0,2.332,0.42,3.146,1.261s1.222,2.003,1.222,3.484c0,1.201-0.18,2.146-0.541,2.834c-0.359,0.688-0.885,1.224-1.572,1.604
		c-0.689,0.381-1.44,0.572-2.255,0.572c-1.307,0-2.363-0.42-3.169-1.259C142.483,102.649,142.081,101.442,142.081,99.866z
		 M143.707,99.866c0,1.194,0.261,2.091,0.782,2.686s1.178,0.893,1.969,0.893c0.785,0,1.438-0.299,1.96-0.896s0.782-1.51,0.782-2.734
		c0-1.153-0.263-2.027-0.786-2.623c-0.525-0.595-1.177-0.893-1.956-0.893c-0.791,0-1.447,0.297-1.969,0.889
		C143.967,97.78,143.707,98.671,143.707,99.866z"/>
	<path fill="#FFFFFF" d="M152.092,99.866c0-1.729,0.48-3.009,1.441-3.841c0.803-0.69,1.781-1.036,2.936-1.036
		c1.283,0,2.332,0.42,3.146,1.261c0.814,0.841,1.222,2.003,1.222,3.484c0,1.201-0.181,2.146-0.54,2.834
		c-0.361,0.688-0.886,1.224-1.574,1.604s-1.439,0.572-2.254,0.572c-1.307,0-2.363-0.42-3.168-1.259
		C152.494,102.649,152.092,101.442,152.092,99.866z M153.718,99.866c0,1.194,0.261,2.091,0.782,2.686s1.178,0.893,1.969,0.893
		c0.785,0,1.438-0.299,1.96-0.896s0.782-1.51,0.782-2.734c0-1.153-0.263-2.027-0.787-2.623c-0.524-0.595-1.176-0.893-1.955-0.893
		c-0.791,0-1.447,0.297-1.969,0.889S153.718,98.671,153.718,99.866z"/>
	<path fill="#FFFFFF" d="M162.7,104.534V91.649h1.582v7.349l3.744-3.797h2.048l-3.568,3.463l3.929,5.871h-1.951l-3.085-4.773
		l-1.116,1.072v3.701H162.7z"/>
	<path fill="#FFFFFF" d="M177.069,104.534V96.43h-1.396V95.2h1.396v-0.994c0-0.627,0.057-1.093,0.168-1.396
		c0.152-0.41,0.42-0.743,0.804-0.998s0.922-0.383,1.612-0.383c0.445,0,0.938,0.053,1.478,0.158l-0.237,1.381
		c-0.328-0.059-0.639-0.088-0.932-0.088c-0.48,0-0.82,0.102-1.02,0.307c-0.2,0.205-0.299,0.59-0.299,1.152V95.2h1.818v1.229h-1.818
		v8.104H177.069z"/>
	<path fill="#FFFFFF" d="M181.104,99.866c0-1.729,0.479-3.009,1.44-3.841c0.804-0.69,1.781-1.036,2.937-1.036
		c1.283,0,2.332,0.42,3.146,1.261s1.222,2.003,1.222,3.484c0,1.201-0.18,2.146-0.541,2.834c-0.358,0.688-0.885,1.224-1.572,1.604
		c-0.688,0.381-1.439,0.572-2.254,0.572c-1.308,0-2.363-0.42-3.17-1.259C181.506,102.649,181.104,101.442,181.104,99.866z
		 M182.729,99.866c0,1.194,0.262,2.091,0.783,2.686c0.521,0.595,1.178,0.893,1.969,0.893c0.785,0,1.438-0.299,1.959-0.896
		c0.522-0.597,0.783-1.51,0.783-2.734c0-1.153-0.264-2.027-0.787-2.623c-0.524-0.595-1.177-0.893-1.955-0.893
		c-0.791,0-1.447,0.297-1.969,0.889C182.99,97.78,182.729,98.671,182.729,99.866z"/>
	<path fill="#FFFFFF" d="M191.687,104.534V95.2h1.424v1.414c0.363-0.662,0.699-1.099,1.008-1.31
		c0.307-0.211,0.646-0.315,1.015-0.315c0.533,0,1.075,0.17,1.626,0.51l-0.545,1.467c-0.387-0.229-0.773-0.342-1.16-0.342
		c-0.346,0-0.656,0.104-0.932,0.312s-0.473,0.497-0.589,0.866c-0.177,0.563-0.265,1.178-0.265,1.846v4.888L191.687,104.534
		L191.687,104.534z"/>
	<path fill="#FFFFFF" d="M200.687,108.155l0.299-1.346c0.316,0.082,0.565,0.123,0.748,0.123c0.322,0,0.563-0.105,0.721-0.32
		c0.158-0.214,0.236-0.747,0.236-1.604V95.2h1.582v9.844c0,1.147-0.148,1.947-0.447,2.397c-0.381,0.586-1.014,0.879-1.898,0.879
		C201.498,108.321,201.085,108.267,200.687,108.155z M202.69,93.485v-1.836h1.582v1.836H202.69z"/>
	<path fill="#FFFFFF" d="M206.108,99.866c0-1.729,0.48-3.009,1.441-3.841c0.803-0.69,1.781-1.036,2.936-1.036
		c1.283,0,2.332,0.42,3.146,1.261s1.223,2.003,1.223,3.484c0,1.201-0.182,2.146-0.541,2.834c-0.36,0.688-0.886,1.224-1.573,1.604
		c-0.688,0.381-1.439,0.572-2.255,0.572c-1.307,0-2.362-0.42-3.168-1.259C206.513,102.649,206.108,101.442,206.108,99.866z
		 M207.735,99.866c0,1.194,0.261,2.091,0.781,2.686c0.521,0.595,1.178,0.893,1.969,0.893c0.785,0,1.438-0.299,1.961-0.896
		c0.521-0.597,0.781-1.51,0.781-2.734c0-1.153-0.263-2.027-0.787-2.623c-0.523-0.595-1.176-0.893-1.955-0.893
		c-0.791,0-1.446,0.297-1.969,0.889C207.995,97.78,207.735,98.671,207.735,99.866z"/>
	<path fill="#FFFFFF" d="M218.168,104.534H216.7V91.649h1.582v4.597c0.668-0.838,1.521-1.256,2.558-1.256
		c0.574,0,1.117,0.114,1.632,0.347c0.512,0.23,0.934,0.557,1.266,0.976c0.33,0.419,0.59,0.924,0.777,1.517
		c0.187,0.592,0.28,1.225,0.28,1.897c0,1.601-0.396,2.836-1.187,3.709s-1.74,1.312-2.849,1.312c-1.102,0-1.966-0.461-2.593-1.381
		L218.168,104.534L218.168,104.534z M218.149,99.796c0,1.119,0.152,1.928,0.457,2.426c0.498,0.814,1.172,1.223,2.021,1.223
		c0.691,0,1.289-0.301,1.793-0.9c0.504-0.601,0.756-1.495,0.756-2.686c0-1.219-0.242-2.118-0.725-2.698
		c-0.484-0.58-1.068-0.869-1.754-0.869c-0.691,0-1.289,0.3-1.793,0.899C218.401,97.791,218.149,98.659,218.149,99.796z"/>
	<path fill="#FFFFFF" d="M231.132,99.866c0-1.729,0.48-3.009,1.441-3.841c0.803-0.69,1.781-1.036,2.936-1.036
		c1.283,0,2.332,0.42,3.146,1.261c0.813,0.841,1.222,2.003,1.222,3.484c0,1.201-0.18,2.146-0.541,2.834
		c-0.358,0.688-0.885,1.224-1.571,1.604c-0.689,0.381-1.44,0.572-2.256,0.572c-1.307,0-2.363-0.42-3.169-1.259
		C231.534,102.649,231.132,101.442,231.132,99.866z M232.758,99.866c0,1.194,0.261,2.091,0.782,2.686s1.178,0.893,1.969,0.893
		c0.785,0,1.438-0.299,1.96-0.896s0.782-1.51,0.782-2.734c0-1.153-0.264-2.027-0.786-2.623c-0.524-0.595-1.177-0.893-1.956-0.893
		c-0.791,0-1.447,0.297-1.969,0.889S232.758,98.671,232.758,99.866z"/>
	<path fill="#FFFFFF" d="M242.108,104.534V96.43h-1.396V95.2h1.396v-0.994c0-0.627,0.057-1.093,0.168-1.396
		c0.151-0.41,0.42-0.743,0.804-0.998s0.922-0.383,1.612-0.383c0.445,0,0.938,0.053,1.478,0.158l-0.237,1.381
		c-0.328-0.059-0.639-0.088-0.932-0.088c-0.48,0-0.82,0.102-1.02,0.307c-0.2,0.205-0.299,0.59-0.299,1.152V95.2h1.818v1.229h-1.818
		v8.104H242.108z"/>
	<path fill="#FFFFFF" d="M246.785,104.534V96.43h-1.397V95.2h1.397v-0.994c0-0.627,0.056-1.093,0.167-1.396
		c0.152-0.41,0.42-0.743,0.804-0.998s0.923-0.383,1.613-0.383c0.444,0,0.938,0.053,1.478,0.158l-0.238,1.381
		c-0.327-0.059-0.639-0.088-0.932-0.088c-0.479,0-0.82,0.102-1.02,0.307c-0.2,0.205-0.299,0.59-0.299,1.152V95.2h1.818v1.229h-1.818
		v8.104H246.785z"/>
	<path fill="#FFFFFF" d="M257.798,101.528l1.635,0.201c-0.258,0.955-0.734,1.697-1.433,2.226c-0.698,0.527-1.588,0.791-2.672,0.791
		c-1.365,0-2.447-0.421-3.248-1.263c-0.799-0.841-1.199-2.02-1.199-3.537c0-1.569,0.404-2.788,1.213-3.655
		c0.81-0.867,1.857-1.302,3.146-1.302c1.247,0,2.268,0.425,3.059,1.273s1.187,2.045,1.187,3.586c0,0.094-0.002,0.234-0.008,0.422
		h-6.961c0.059,1.025,0.349,1.812,0.869,2.355c0.521,0.544,1.172,0.817,1.951,0.817c0.58,0,1.075-0.151,1.484-0.457
		C257.231,102.681,257.558,102.196,257.798,101.528z M252.604,98.97h5.211c-0.069-0.785-0.27-1.373-0.598-1.766
		c-0.504-0.609-1.156-0.914-1.96-0.914c-0.727,0-1.338,0.242-1.832,0.729C252.931,97.505,252.656,98.155,252.604,98.97z"/>
	<path fill="#FFFFFF" d="M261.401,104.534V95.2h1.424v1.414c0.363-0.662,0.697-1.099,1.007-1.31
		c0.308-0.211,0.646-0.315,1.015-0.315c0.533,0,1.075,0.17,1.627,0.51l-0.545,1.467c-0.388-0.229-0.773-0.342-1.16-0.342
		c-0.347,0-0.656,0.104-0.933,0.312s-0.472,0.497-0.589,0.866c-0.176,0.563-0.264,1.178-0.264,1.846v4.888L261.401,104.534
		L261.401,104.534z"/>
	<path fill="#FFFFFF" d="M266.78,101.747l1.563-0.246c0.089,0.627,0.332,1.106,0.733,1.44c0.4,0.334,0.963,0.502,1.684,0.502
		c0.727,0,1.266-0.147,1.617-0.443s0.527-0.645,0.527-1.042c0-0.357-0.155-0.64-0.467-0.844c-0.217-0.142-0.756-0.318-1.617-0.535
		c-1.159-0.293-1.963-0.547-2.412-0.762c-0.447-0.214-0.788-0.51-1.02-0.888c-0.232-0.378-0.348-0.795-0.348-1.252
		c0-0.416,0.096-0.802,0.286-1.156c0.188-0.354,0.448-0.647,0.776-0.883c0.246-0.182,0.582-0.336,1.006-0.462
		c0.426-0.126,0.882-0.188,1.367-0.188c0.732,0,1.375,0.105,1.931,0.316c0.553,0.211,0.962,0.496,1.226,0.856
		c0.264,0.359,0.445,0.843,0.545,1.445l-1.547,0.211c-0.07-0.479-0.273-0.854-0.609-1.125c-0.338-0.27-0.813-0.403-1.43-0.403
		c-0.727,0-1.244,0.119-1.556,0.358c-0.312,0.24-0.466,0.521-0.466,0.845c0,0.204,0.064,0.391,0.193,0.555
		c0.129,0.17,0.33,0.311,0.605,0.422c0.158,0.059,0.624,0.193,1.396,0.404c1.119,0.299,1.899,0.543,2.344,0.732
		c0.441,0.19,0.789,0.469,1.041,0.831c0.252,0.363,0.378,0.814,0.378,1.354c0,0.526-0.153,1.022-0.462,1.488
		c-0.307,0.467-0.752,0.826-1.332,1.081c-0.579,0.256-1.235,0.384-1.969,0.384c-1.213,0-2.138-0.252-2.771-0.757
		C267.36,103.485,266.956,102.737,266.78,101.747z"/>
</g>
<g>
	<path opacity="0.8" enable-background="new    " d="M175.785,26.062c3.196,0,6.3-0.016,9.403,0.007
		c1.302,0.011,2.629-0.049,3.896,0.188c2.85,0.532,5.018,2.97,5.107,5.861c0.121,3.833,0.049,7.672,0.054,11.509
		c0,0.069-0.046,0.141-0.047,0.143c-1.528-0.381-3.019-0.854-4.544-1.117c-9.713-1.663-19.365,5.236-21.017,14.962
		c-0.69,4.067-0.153,7.949,1.705,11.635c0.217,0.428,0.176,0.674-0.161,1.002c-1.713,1.683-3.391,3.4-5.11,5.076
		c-0.229,0.223-0.626,0.385-0.945,0.385c-9.944,0.02-19.889,0.031-29.833,0.008c-3.752-0.009-6.647-2.916-6.649-6.68
		c-0.006-12.085,0.006-24.169,0.046-36.253c0.013-3.958,2.842-6.707,6.813-6.722c3.549-0.011,7.099-0.002,10.648-0.002
		c0.283,0,0.567,0,0.938,0c0.019-0.322,0.048-0.597,0.049-0.871c0.003-1.695,0.068-3.396-0.012-5.088
		c-0.198-4.269,3.337-6.671,6.066-7.156c0.536-0.096,1.089-0.142,1.635-0.143c4.75-0.011,9.5-0.005,14.251-0.007
		c2.008-0.001,3.8,0.613,5.328,1.924c1.546,1.328,2.392,2.982,2.346,5.07c-0.041,1.8-0.01,3.601-0.007,5.401
		C175.747,25.469,175.771,25.745,175.785,26.062z M168.319,20.262c-4.941,0-9.805,0-14.71,0c0,1.938,0,3.824,0,5.741
		c4.929,0,9.81,0,14.71,0C168.319,24.074,168.319,22.205,168.319,20.262z"/>
	<path opacity="0.8" enable-background="new    " d="M177.453,72.638c-0.179,0.532-0.468,0.988-0.449,1.431
		c0.036,0.827-0.239,1.396-0.825,1.973c-3.427,3.366-6.813,6.771-10.214,10.164c-0.183,0.182-0.373,0.356-0.498,0.477
		c-1.152-1.161-2.283-2.3-3.464-3.489c1.075-1.066,2.264-2.236,3.442-3.416c2.437-2.436,4.885-4.861,7.291-7.326
		c0.535-0.548,1.07-0.801,1.84-0.771c0.453,0.017,0.918-0.229,1.529-0.396c-3.217-3.964-4.391-8.244-3.475-13.01
		c0.73-3.794,2.717-6.858,5.813-9.174c6.178-4.621,14.889-3.795,20.129,1.886c5.225,5.665,5.361,14.334,0.328,20.158
		C193.716,77.14,184.382,78.37,177.453,72.638z M187.442,50.783c-5.793,0.008-10.465,4.676-10.467,10.452
		c0,5.813,4.699,10.483,10.532,10.466c5.784-0.019,10.435-4.698,10.421-10.491C197.917,55.427,193.237,50.775,187.442,50.783z"/>
	<path fill="#FFFFFF" d="M187.442,50.783c5.795-0.009,10.475,4.644,10.486,10.427c0.014,5.793-4.637,10.474-10.421,10.491
		c-5.833,0.019-10.532-4.651-10.532-10.466C176.978,55.459,181.649,50.792,187.442,50.783z"/>
</g>
</svg>
