<?xml version="1.0" encoding="utf-8"?>
<!-- Generator: Adobe Illustrator 16.0.0, SVG Export Plug-In . SVG Version: 6.00 Build 0)  -->
<!DOCTYPE svg PUBLIC "-//W3C//DTD SVG 1.1//EN" "http://www.w3.org/Graphics/SVG/1.1/DTD/svg11.dtd">
<svg version="1.1" id="Capa_1" xmlns="http://www.w3.org/2000/svg" xmlns:xlink="http://www.w3.org/1999/xlink" x="0px" y="0px"
	 width="338.658px" height="117.575px" viewBox="0 0 338.658 117.575" enable-background="new 0 0 338.658 117.575"
	 xml:space="preserve">
<rect fill-rule="evenodd" clip-rule="evenodd" fill="#FAF19D" width="338.658" height="117.575"/>
<g opacity="0.8">
	<path d="M40.429,101.905l-3.42-12.885h1.75l1.959,8.447c0.211,0.885,0.393,1.764,0.545,2.637c0.328-1.377,0.521-2.172,0.58-2.383
		l2.453-8.701h2.057l1.846,6.521c0.463,1.617,0.797,3.139,1.002,4.563c0.164-0.814,0.377-1.75,0.641-2.805l2.021-8.279h1.715
		l-3.533,12.885h-1.645l-2.715-9.816c-0.229-0.82-0.363-1.324-0.404-1.512c-0.135,0.592-0.262,1.096-0.379,1.512l-2.732,9.816
		H40.429z"/>
	<path d="M54.966,101.905V89.02h1.582v4.623c0.738-0.855,1.67-1.283,2.795-1.283c0.691,0,1.291,0.137,1.801,0.409
		s0.875,0.649,1.096,1.13c0.219,0.48,0.328,1.178,0.328,2.092v5.914h-1.582v-5.914c0-0.791-0.17-1.367-0.514-1.728
		c-0.342-0.36-0.828-0.54-1.455-0.54c-0.469,0-0.908,0.121-1.322,0.364c-0.412,0.243-0.707,0.573-0.883,0.989
		s-0.264,0.99-0.264,1.723v5.105H54.966z"/>
	<path d="M71.065,100.754c-0.586,0.498-1.15,0.85-1.691,1.055c-0.543,0.205-1.123,0.307-1.744,0.307
		c-1.025,0-1.814-0.25-2.365-0.751c-0.549-0.501-0.824-1.142-0.824-1.921c0-0.457,0.104-0.874,0.313-1.252
		c0.207-0.378,0.479-0.682,0.814-0.91c0.338-0.229,0.717-0.4,1.139-0.518c0.311-0.082,0.779-0.162,1.406-0.238
		c1.277-0.152,2.219-0.334,2.822-0.545c0.006-0.217,0.008-0.354,0.008-0.412c0-0.645-0.148-1.1-0.447-1.363
		c-0.404-0.357-1.006-0.535-1.803-0.535c-0.744,0-1.293,0.13-1.648,0.391c-0.354,0.261-0.615,0.723-0.785,1.385l-1.547-0.211
		c0.141-0.662,0.371-1.197,0.693-1.604s0.789-0.721,1.398-0.94s1.314-0.33,2.117-0.33c0.797,0,1.445,0.094,1.943,0.281
		s0.863,0.424,1.098,0.708s0.398,0.644,0.492,1.077c0.053,0.27,0.08,0.756,0.08,1.459v2.109c0,1.471,0.033,2.4,0.1,2.79
		c0.068,0.39,0.201,0.763,0.4,1.12h-1.652C71.218,101.577,71.112,101.194,71.065,100.754z M70.935,97.221
		c-0.574,0.234-1.436,0.434-2.584,0.598c-0.65,0.094-1.111,0.199-1.381,0.316s-0.477,0.288-0.623,0.514s-0.221,0.477-0.221,0.752
		c0,0.422,0.16,0.773,0.479,1.055c0.32,0.281,0.787,0.422,1.402,0.422c0.609,0,1.152-0.134,1.627-0.4s0.822-0.631,1.045-1.094
		c0.17-0.357,0.256-0.885,0.256-1.582V97.221z"/>
	<path d="M78.44,100.491l0.229,1.396c-0.445,0.094-0.844,0.141-1.195,0.141c-0.574,0-1.02-0.09-1.336-0.271
		s-0.539-0.421-0.668-0.717s-0.193-0.918-0.193-1.867v-5.371h-1.16v-1.23h1.16V90.26l1.572-0.949v3.26h1.592v1.23h-1.592v5.459
		c0,0.451,0.027,0.74,0.084,0.869c0.055,0.129,0.146,0.232,0.271,0.309c0.127,0.076,0.307,0.113,0.541,0.113
		C77.921,100.551,78.153,100.532,78.44,100.491z"/>
	<path d="M88.442,100.491l0.229,1.396c-0.445,0.094-0.844,0.141-1.195,0.141c-0.574,0-1.02-0.09-1.336-0.271
		s-0.539-0.421-0.668-0.717s-0.193-0.918-0.193-1.867v-5.371h-1.16v-1.23h1.16V90.26l1.572-0.949v3.26h1.592v1.23h-1.592v5.459
		c0,0.451,0.027,0.74,0.084,0.869c0.055,0.129,0.146,0.232,0.271,0.309c0.127,0.076,0.307,0.113,0.541,0.113
		C87.923,100.551,88.155,100.532,88.442,100.491z"/>
	<path d="M89.399,97.239c0-1.729,0.48-3.01,1.441-3.842c0.803-0.691,1.781-1.037,2.936-1.037c1.283,0,2.332,0.421,3.146,1.262
		s1.223,2.002,1.223,3.484c0,1.201-0.182,2.146-0.541,2.835c-0.361,0.688-0.885,1.224-1.574,1.604
		c-0.688,0.381-1.439,0.57-2.254,0.57c-1.307,0-2.363-0.418-3.168-1.256C89.802,100.022,89.399,98.815,89.399,97.239z
		 M91.026,97.239c0,1.195,0.26,2.09,0.781,2.685s1.178,0.892,1.969,0.892c0.785,0,1.439-0.299,1.961-0.896s0.781-1.508,0.781-2.732
		c0-1.154-0.262-2.029-0.787-2.624c-0.523-0.595-1.176-0.892-1.955-0.892c-0.791,0-1.447,0.295-1.969,0.887
		S91.026,96.043,91.026,97.239z"/>
	<path d="M111.056,101.905v-1.178c-0.592,0.926-1.461,1.389-2.609,1.389c-0.744,0-1.43-0.205-2.053-0.615
		c-0.625-0.41-1.107-0.982-1.451-1.718c-0.342-0.735-0.514-1.581-0.514-2.536c0-0.932,0.156-1.776,0.467-2.535
		s0.775-1.34,1.396-1.744s1.316-0.607,2.084-0.607c0.563,0,1.063,0.119,1.502,0.356s0.797,0.546,1.072,0.927V89.02h1.574v12.885
		H111.056z M106.056,97.247c0,1.195,0.252,2.09,0.756,2.682s1.098,0.887,1.783,0.887c0.691,0,1.279-0.282,1.762-0.848
		c0.484-0.565,0.727-1.428,0.727-2.588c0-1.277-0.246-2.215-0.738-2.813s-1.1-0.896-1.82-0.896c-0.703,0-1.291,0.287-1.762,0.861
		C106.29,95.106,106.056,96.01,106.056,97.247z"/>
	<path d="M114.423,97.239c0-1.729,0.48-3.01,1.441-3.842c0.803-0.691,1.781-1.037,2.936-1.037c1.283,0,2.332,0.421,3.146,1.262
		s1.221,2.002,1.221,3.484c0,1.201-0.18,2.146-0.541,2.835c-0.359,0.688-0.885,1.224-1.572,1.604
		c-0.689,0.381-1.439,0.57-2.254,0.57c-1.307,0-2.363-0.418-3.17-1.256C114.825,100.022,114.423,98.815,114.423,97.239z
		 M116.048,97.239c0,1.195,0.262,2.09,0.783,2.685s1.178,0.892,1.969,0.892c0.785,0,1.438-0.299,1.959-0.896
		s0.783-1.508,0.783-2.732c0-1.154-0.264-2.029-0.787-2.624c-0.525-0.595-1.176-0.892-1.955-0.892c-0.791,0-1.447,0.295-1.969,0.887
		S116.048,96.043,116.048,97.239z"/>
	<path d="M131.745,101.905l-2.855-9.334h1.635l1.484,5.389l0.555,2.004c0.023-0.1,0.184-0.742,0.482-1.926l1.486-5.467h1.625
		l1.398,5.414l0.465,1.785l0.537-1.803l1.6-5.396h1.537l-2.918,9.334h-1.643l-1.486-5.59l-0.359-1.59l-1.891,7.18H131.745z"/>
	<path d="M143.022,101.905V89.02h1.582v4.623c0.738-0.855,1.67-1.283,2.795-1.283c0.691,0,1.291,0.137,1.801,0.409
		s0.875,0.649,1.094,1.13c0.221,0.48,0.33,1.178,0.33,2.092v5.914h-1.582v-5.914c0-0.791-0.172-1.367-0.514-1.728
		c-0.344-0.36-0.828-0.54-1.455-0.54c-0.469,0-0.91,0.121-1.322,0.364c-0.414,0.243-0.707,0.573-0.883,0.989
		s-0.264,0.99-0.264,1.723v5.105H143.022z"/>
	<path d="M159.423,98.899l1.635,0.203c-0.258,0.955-0.736,1.695-1.434,2.223s-1.588,0.791-2.672,0.791
		c-1.365,0-2.447-0.42-3.248-1.261c-0.799-0.841-1.199-2.021-1.199-3.538c0-1.57,0.404-2.789,1.213-3.656s1.857-1.301,3.146-1.301
		c1.248,0,2.268,0.426,3.059,1.275s1.188,2.045,1.188,3.586c0,0.094-0.004,0.234-0.01,0.422h-6.961
		c0.059,1.025,0.35,1.811,0.871,2.355s1.172,0.816,1.951,0.816c0.58,0,1.074-0.152,1.484-0.457S159.183,99.567,159.423,98.899z
		 M154.228,96.342h5.213c-0.07-0.785-0.27-1.375-0.598-1.768c-0.504-0.609-1.158-0.914-1.961-0.914c-0.727,0-1.338,0.244-1.832,0.73
		C154.554,94.877,154.28,95.528,154.228,96.342z"/>
	<path d="M163.042,101.905v-9.334h1.424v1.328c0.686-1.025,1.676-1.539,2.971-1.539c0.563,0,1.08,0.102,1.553,0.304
		c0.471,0.202,0.824,0.468,1.059,0.796s0.398,0.717,0.492,1.168c0.059,0.293,0.088,0.807,0.088,1.539v5.738h-1.582v-5.678
		c0-0.645-0.063-1.126-0.186-1.445s-0.342-0.574-0.654-0.765c-0.314-0.19-0.682-0.286-1.104-0.286c-0.674,0-1.256,0.215-1.744,0.643
		c-0.49,0.428-0.734,1.238-0.734,2.434v5.098H163.042z"/>
	<path d="M178.019,101.905V89.02h1.582v12.885H178.019z"/>
	<path d="M181.464,97.239c0-1.729,0.48-3.01,1.441-3.842c0.803-0.691,1.781-1.037,2.936-1.037c1.283,0,2.332,0.421,3.146,1.262
		s1.223,2.002,1.223,3.484c0,1.201-0.18,2.146-0.541,2.835c-0.359,0.688-0.885,1.224-1.572,1.604
		c-0.689,0.381-1.441,0.57-2.256,0.57c-1.307,0-2.363-0.418-3.168-1.256C181.866,100.022,181.464,98.815,181.464,97.239z
		 M183.091,97.239c0,1.195,0.26,2.09,0.781,2.685s1.178,0.892,1.969,0.892c0.785,0,1.439-0.299,1.961-0.896s0.781-1.508,0.781-2.732
		c0-1.154-0.262-2.029-0.785-2.624c-0.525-0.595-1.178-0.892-1.957-0.892c-0.791,0-1.447,0.295-1.969,0.887
		S183.091,96.043,183.091,97.239z"/>
	<path d="M191.476,97.239c0-1.729,0.48-3.01,1.441-3.842c0.803-0.691,1.781-1.037,2.936-1.037c1.283,0,2.332,0.421,3.146,1.262
		s1.221,2.002,1.221,3.484c0,1.201-0.18,2.146-0.539,2.835c-0.361,0.688-0.887,1.224-1.574,1.604
		c-0.689,0.381-1.439,0.57-2.254,0.57c-1.307,0-2.363-0.418-3.168-1.256C191.878,100.022,191.476,98.815,191.476,97.239z
		 M193.101,97.239c0,1.195,0.262,2.09,0.783,2.685s1.178,0.892,1.969,0.892c0.785,0,1.438-0.299,1.959-0.896
		s0.783-1.508,0.783-2.732c0-1.154-0.264-2.029-0.787-2.624c-0.525-0.595-1.176-0.892-1.955-0.892c-0.791,0-1.447,0.295-1.969,0.887
		S193.101,96.043,193.101,97.239z"/>
	<path d="M202.083,101.905V89.02h1.582v7.348l3.744-3.797h2.049l-3.568,3.463l3.928,5.871h-1.951l-3.084-4.771l-1.117,1.072v3.699
		H202.083z"/>
	<path d="M211.083,90.84v-1.82h1.582v1.82H211.083z M211.083,101.905v-9.334h1.582v9.334H211.083z"/>
	<path d="M215.073,101.905v-9.334h1.424v1.328c0.686-1.025,1.676-1.539,2.971-1.539c0.563,0,1.08,0.102,1.553,0.304
		c0.471,0.202,0.824,0.468,1.059,0.796s0.398,0.717,0.492,1.168c0.059,0.293,0.088,0.807,0.088,1.539v5.738h-1.582v-5.678
		c0-0.645-0.063-1.126-0.186-1.445s-0.342-0.574-0.654-0.765c-0.314-0.19-0.682-0.286-1.104-0.286c-0.674,0-1.256,0.215-1.744,0.643
		c-0.49,0.428-0.734,1.238-0.734,2.434v5.098H215.073z"/>
	<path d="M224.794,102.678l1.539,0.229c0.064,0.475,0.242,0.82,0.535,1.037c0.393,0.293,0.93,0.439,1.609,0.439
		c0.732,0,1.297-0.146,1.695-0.439s0.668-0.703,0.809-1.23c0.082-0.322,0.121-0.998,0.115-2.029
		c-0.691,0.814-1.553,1.221-2.584,1.221c-1.283,0-2.277-0.463-2.98-1.389s-1.055-2.035-1.055-3.33c0-0.891,0.162-1.713,0.484-2.466
		s0.789-1.335,1.402-1.745c0.611-0.41,1.33-0.615,2.156-0.615c1.102,0,2.01,0.445,2.725,1.336v-1.125h1.459v8.068
		c0,1.453-0.148,2.483-0.443,3.09c-0.297,0.606-0.764,1.086-1.406,1.438c-0.641,0.352-1.432,0.527-2.369,0.527
		c-1.113,0-2.012-0.251-2.697-0.752S224.771,103.686,224.794,102.678z M226.104,97.071c0,1.225,0.242,2.119,0.729,2.682
		s1.096,0.844,1.828,0.844c0.727,0,1.336-0.28,1.828-0.84s0.738-1.438,0.738-2.633c0-1.143-0.254-2.004-0.76-2.584
		c-0.508-0.58-1.117-0.869-1.832-0.869c-0.703,0-1.301,0.285-1.793,0.856S226.104,95.946,226.104,97.071z"/>
	<path d="M240.474,101.905v-8.104h-1.396v-1.23h1.396v-0.992c0-0.627,0.057-1.094,0.168-1.398c0.152-0.41,0.42-0.742,0.805-0.997
		c0.383-0.255,0.92-0.382,1.611-0.382c0.445,0,0.938,0.053,1.477,0.158l-0.236,1.379c-0.328-0.059-0.639-0.088-0.932-0.088
		c-0.48,0-0.82,0.104-1.02,0.309s-0.299,0.588-0.299,1.15v0.861h1.818v1.23h-1.818v8.104H240.474z"/>
	<path d="M244.509,97.239c0-1.729,0.48-3.01,1.441-3.842c0.803-0.691,1.781-1.037,2.936-1.037c1.283,0,2.332,0.421,3.146,1.262
		s1.221,2.002,1.221,3.484c0,1.201-0.18,2.146-0.539,2.835c-0.361,0.688-0.887,1.224-1.574,1.604
		c-0.689,0.381-1.439,0.57-2.254,0.57c-1.307,0-2.363-0.418-3.168-1.256C244.911,100.022,244.509,98.815,244.509,97.239z
		 M246.134,97.239c0,1.195,0.262,2.09,0.783,2.685s1.178,0.892,1.969,0.892c0.785,0,1.438-0.299,1.959-0.896
		s0.783-1.508,0.783-2.732c0-1.154-0.264-2.029-0.787-2.624c-0.525-0.595-1.176-0.892-1.955-0.892c-0.791,0-1.447,0.295-1.969,0.887
		S246.134,96.043,246.134,97.239z"/>
	<path d="M255.091,101.905v-9.334h1.424v1.416c0.363-0.662,0.699-1.1,1.006-1.311c0.309-0.211,0.646-0.316,1.016-0.316
		c0.533,0,1.074,0.17,1.625,0.51l-0.545,1.469c-0.387-0.229-0.773-0.344-1.16-0.344c-0.346,0-0.656,0.104-0.932,0.313
		s-0.471,0.496-0.588,0.865c-0.176,0.563-0.264,1.178-0.264,1.846v4.887H255.091z"/>
	<path d="M272.192,100.754c-0.586,0.498-1.15,0.85-1.691,1.055c-0.543,0.205-1.123,0.307-1.744,0.307
		c-1.025,0-1.814-0.25-2.365-0.751s-0.826-1.142-0.826-1.921c0-0.457,0.104-0.874,0.313-1.252c0.207-0.378,0.48-0.682,0.816-0.91
		c0.338-0.229,0.717-0.4,1.139-0.518c0.311-0.082,0.779-0.162,1.406-0.238c1.277-0.152,2.219-0.334,2.822-0.545
		c0.006-0.217,0.008-0.354,0.008-0.412c0-0.645-0.148-1.1-0.447-1.363c-0.404-0.357-1.006-0.535-1.803-0.535
		c-0.744,0-1.293,0.13-1.648,0.391c-0.354,0.261-0.615,0.723-0.785,1.385l-1.547-0.211c0.141-0.662,0.371-1.197,0.693-1.604
		s0.789-0.721,1.398-0.94s1.314-0.33,2.117-0.33c0.797,0,1.445,0.094,1.943,0.281s0.863,0.424,1.098,0.708s0.398,0.644,0.492,1.077
		c0.053,0.27,0.08,0.756,0.08,1.459v2.109c0,1.471,0.033,2.4,0.1,2.79c0.068,0.39,0.201,0.763,0.4,1.12h-1.652
		C272.345,101.577,272.239,101.194,272.192,100.754z M272.062,97.221c-0.574,0.234-1.436,0.434-2.584,0.598
		c-0.65,0.094-1.111,0.199-1.381,0.316s-0.477,0.288-0.623,0.514s-0.221,0.477-0.221,0.752c0,0.422,0.16,0.773,0.479,1.055
		c0.32,0.281,0.787,0.422,1.402,0.422c0.609,0,1.152-0.134,1.627-0.4s0.822-0.631,1.045-1.094c0.17-0.357,0.256-0.885,0.256-1.582
		V97.221z"/>
	<path d="M279.101,105.526l0.299-1.344c0.316,0.082,0.566,0.123,0.748,0.123c0.322,0,0.563-0.107,0.721-0.321
		s0.236-0.749,0.236-1.604v-9.809h1.582v9.844c0,1.148-0.148,1.949-0.447,2.4c-0.381,0.586-1.014,0.879-1.898,0.879
		C279.913,105.694,279.499,105.637,279.101,105.526z M281.104,90.858V89.02h1.582v1.838H281.104z"/>
	<path d="M284.524,97.239c0-1.729,0.48-3.01,1.441-3.842c0.803-0.691,1.781-1.037,2.936-1.037c1.283,0,2.332,0.421,3.146,1.262
		s1.221,2.002,1.221,3.484c0,1.201-0.18,2.146-0.541,2.835c-0.359,0.688-0.885,1.224-1.572,1.604
		c-0.689,0.381-1.439,0.57-2.254,0.57c-1.307,0-2.363-0.418-3.17-1.256C284.927,100.022,284.524,98.815,284.524,97.239z
		 M286.149,97.239c0,1.195,0.262,2.09,0.783,2.685s1.178,0.892,1.969,0.892c0.785,0,1.438-0.299,1.959-0.896
		s0.783-1.508,0.783-2.732c0-1.154-0.264-2.029-0.787-2.624c-0.525-0.595-1.176-0.892-1.955-0.892c-0.791,0-1.447,0.295-1.969,0.887
		S286.149,96.043,286.149,97.239z"/>
	<path d="M296.583,101.905h-1.469V89.02h1.582v4.598c0.668-0.838,1.521-1.258,2.559-1.258c0.574,0,1.117,0.116,1.629,0.348
		c0.514,0.231,0.936,0.557,1.266,0.976c0.332,0.419,0.592,0.925,0.779,1.517s0.281,1.225,0.281,1.898c0,1.6-0.396,2.836-1.188,3.709
		s-1.74,1.309-2.848,1.309c-1.102,0-1.965-0.459-2.592-1.379V101.905z M296.565,97.168c0,1.119,0.152,1.928,0.457,2.426
		c0.498,0.814,1.172,1.221,2.021,1.221c0.691,0,1.289-0.3,1.793-0.9s0.756-1.496,0.756-2.686c0-1.219-0.242-2.117-0.727-2.697
		c-0.482-0.58-1.066-0.871-1.752-0.871c-0.691,0-1.289,0.301-1.793,0.901S296.565,96.032,296.565,97.168z"/>
</g>
<g id="Capa_8_2_">
	<g>
		<g>
			<polygon fill="#E1EFFA" points="195.78,76.024 197.271,73.046 191.313,73.046 192.802,76.024 			"/>
			<polygon fill="#E1EFFA" points="193.021,76.463 194.291,79.002 195.562,76.463 			"/>
		</g>
		<path opacity="0.8" d="M184.089,16.099h-13.264v-1.892h-4.166c0-1.818-1.471-3.294-3.288-3.294s-3.289,1.477-3.289,3.294h-4.165
			v1.892h-13.264c-0.837,0-1.521,0.685-1.521,1.521v59.861c0,0.838,0.685,1.521,1.521,1.521h41.436c0.836,0,1.521-0.684,1.521-1.521
			V17.62C185.61,16.784,184.925,16.099,184.089,16.099z M163.371,13.089c0.615,0,1.12,0.501,1.12,1.119
			c0,0.616-0.505,1.115-1.12,1.115c-0.619,0-1.119-0.499-1.119-1.115C162.252,13.589,162.752,13.089,163.371,13.089z"/>
		<path fill="#FFFFFF" d="M144.172,20.397v54.306h31.611v-6.787h6.786V20.397H144.172z M151.126,67.042l-3.578-3.582l0.785-0.785
			l2.793,2.797l4.49-4.492l0.788,0.787L151.126,67.042z M151.126,56.587l-3.578-3.584l0.785-0.784l2.793,2.798l4.49-4.491
			l0.788,0.786L151.126,56.587z M151.126,46.132l-3.578-3.582l0.785-0.784l2.793,2.795l4.49-4.488l0.788,0.784L151.126,46.132z
			 M151.126,35.679l-3.578-3.583l0.785-0.784l2.793,2.794l4.49-4.488l0.788,0.786L151.126,35.679z M179.127,65.635h-19.063v-1.999
			h19.063V65.635z M179.127,55.185h-19.063v-2h19.063V55.185z M179.127,44.73h-19.063v-1.999h19.063V44.73z M179.127,34.277h-19.063
			v-2h19.063V34.277z"/>
		<polygon opacity="0.8" points="192.671,39.146 191.051,39.146 191.051,72.524 192.671,72.524 197.532,72.524 197.532,39.146 		"/>
		<path opacity="0.8" d="M194.291,34.825c-1.788,0-3.24,1.451-3.24,3.24h6.481C197.532,36.276,196.081,34.825,194.291,34.825z"/>
	</g>
</g>
</svg>
