<?xml version="1.0" encoding="utf-8"?>
<!-- Generator: Adobe Illustrator 16.0.0, SVG Export Plug-In . SVG Version: 6.00 Build 0)  -->
<!DOCTYPE svg PUBLIC "-//W3C//DTD SVG 1.1//EN" "http://www.w3.org/Graphics/SVG/1.1/DTD/svg11.dtd">
<svg version="1.1" id="Capa_1" xmlns="http://www.w3.org/2000/svg" xmlns:xlink="http://www.w3.org/1999/xlink" x="0px" y="0px"
	 width="339.658px" height="118.575px" viewBox="0 0 339.658 118.575" enable-background="new 0 0 339.658 118.575"
	 xml:space="preserve">
<rect x="0.5" y="0.5" fill-rule="evenodd" clip-rule="evenodd" fill="#FAF19D" width="338.658" height="117.575"/>
<g opacity="0.8">
	<path d="M40.929,102.405l-3.42-12.885h1.75l1.959,8.446c0.211,0.885,0.393,1.764,0.545,2.637c0.328-1.377,0.521-2.171,0.58-2.382
		l2.453-8.701h2.057l1.846,6.521c0.463,1.617,0.797,3.138,1.002,4.562c0.164-0.814,0.377-1.749,0.641-2.804l2.021-8.279h1.715
		l-3.533,12.885h-1.645l-2.715-9.817c-0.229-0.82-0.363-1.324-0.404-1.512c-0.135,0.592-0.262,1.096-0.379,1.512l-2.732,9.817
		H40.929z"/>
	<path d="M55.466,102.405V89.521h1.582v4.623c0.738-0.855,1.67-1.283,2.795-1.283c0.691,0,1.291,0.136,1.801,0.409
		c0.51,0.271,0.875,0.648,1.096,1.129c0.219,0.48,0.328,1.178,0.328,2.092v5.915h-1.582V96.49c0-0.791-0.17-1.367-0.514-1.727
		c-0.342-0.361-0.828-0.541-1.455-0.541c-0.469,0-0.908,0.121-1.322,0.365c-0.412,0.242-0.707,0.572-0.883,0.988
		s-0.264,0.99-0.264,1.723v5.106H55.466z"/>
	<path d="M71.565,101.254c-0.586,0.498-1.15,0.85-1.691,1.055c-0.543,0.205-1.123,0.308-1.744,0.308
		c-1.025,0-1.814-0.251-2.365-0.751c-0.549-0.502-0.824-1.142-0.824-1.921c0-0.457,0.104-0.874,0.313-1.253
		c0.207-0.377,0.479-0.681,0.814-0.909c0.338-0.229,0.717-0.401,1.139-0.519c0.311-0.082,0.779-0.161,1.406-0.237
		c1.277-0.152,2.219-0.334,2.822-0.545c0.006-0.217,0.008-0.354,0.008-0.413c0-0.645-0.148-1.099-0.447-1.362
		c-0.404-0.357-1.006-0.536-1.803-0.536c-0.744,0-1.293,0.131-1.648,0.391c-0.354,0.262-0.615,0.723-0.785,1.385l-1.547-0.211
		c0.141-0.662,0.371-1.197,0.693-1.604c0.322-0.408,0.789-0.721,1.398-0.941c0.609-0.219,1.314-0.329,2.117-0.329
		c0.797,0,1.445,0.094,1.943,0.281s0.863,0.423,1.098,0.708c0.234,0.283,0.398,0.643,0.492,1.076c0.053,0.27,0.08,0.756,0.08,1.459
		v2.109c0,1.471,0.033,2.4,0.1,2.791c0.068,0.389,0.201,0.763,0.4,1.12h-1.652C71.718,102.077,71.612,101.693,71.565,101.254z
		 M71.435,97.721c-0.574,0.234-1.436,0.434-2.584,0.598c-0.65,0.094-1.111,0.199-1.381,0.316s-0.477,0.289-0.623,0.514
		c-0.146,0.227-0.221,0.477-0.221,0.752c0,0.422,0.16,0.773,0.479,1.055c0.32,0.281,0.787,0.422,1.402,0.422
		c0.609,0,1.152-0.133,1.627-0.4c0.475-0.266,0.822-0.631,1.045-1.094c0.17-0.357,0.256-0.885,0.256-1.582V97.721z"/>
	<path d="M78.94,100.99l0.229,1.397c-0.445,0.094-0.844,0.141-1.195,0.141c-0.574,0-1.02-0.091-1.336-0.272s-0.539-0.42-0.668-0.717
		c-0.129-0.295-0.193-0.918-0.193-1.867v-5.37h-1.16v-1.23h1.16V90.76l1.572-0.949v3.261h1.592v1.23h-1.592v5.458
		c0,0.451,0.027,0.741,0.084,0.87c0.055,0.129,0.146,0.231,0.271,0.308c0.127,0.076,0.307,0.114,0.541,0.114
		C78.421,101.052,78.653,101.031,78.94,100.99z"/>
	<path d="M88.942,100.99l0.229,1.397c-0.445,0.094-0.844,0.141-1.195,0.141c-0.574,0-1.02-0.091-1.336-0.272
		s-0.539-0.42-0.668-0.717c-0.129-0.295-0.193-0.918-0.193-1.867v-5.37h-1.16v-1.23h1.16V90.76l1.572-0.949v3.261h1.592v1.23h-1.592
		v5.458c0,0.451,0.027,0.741,0.084,0.87c0.055,0.129,0.146,0.231,0.271,0.308c0.127,0.076,0.307,0.114,0.541,0.114
		C88.423,101.052,88.655,101.031,88.942,100.99z"/>
	<path d="M89.899,97.738c0-1.729,0.48-3.009,1.441-3.841c0.803-0.691,1.781-1.037,2.936-1.037c1.283,0,2.332,0.421,3.146,1.261
		c0.814,0.842,1.223,2.003,1.223,3.485c0,1.201-0.182,2.146-0.541,2.835c-0.361,0.688-0.885,1.223-1.574,1.604
		c-0.688,0.381-1.439,0.571-2.254,0.571c-1.307,0-2.363-0.419-3.168-1.257C90.302,100.521,89.899,99.314,89.899,97.738z
		 M91.526,97.738c0,1.195,0.26,2.09,0.781,2.686c0.521,0.594,1.178,0.892,1.969,0.892c0.785,0,1.439-0.299,1.961-0.896
		s0.781-1.509,0.781-2.733c0-1.154-0.262-2.029-0.787-2.623c-0.523-0.596-1.176-0.893-1.955-0.893c-0.791,0-1.447,0.296-1.969,0.888
		S91.526,96.543,91.526,97.738z"/>
	<path d="M111.556,102.405v-1.178c-0.592,0.926-1.461,1.389-2.609,1.389c-0.744,0-1.43-0.205-2.053-0.615
		c-0.625-0.41-1.107-0.983-1.451-1.718c-0.342-0.736-0.514-1.581-0.514-2.536c0-0.932,0.156-1.776,0.467-2.536
		c0.311-0.758,0.775-1.34,1.396-1.744s1.316-0.606,2.084-0.606c0.563,0,1.063,0.118,1.502,0.356
		c0.439,0.236,0.797,0.546,1.072,0.927v-4.623h1.574v12.885H111.556z M106.556,97.747c0,1.195,0.252,2.089,0.756,2.681
		s1.098,0.888,1.783,0.888c0.691,0,1.279-0.282,1.762-0.849c0.484-0.564,0.727-1.428,0.727-2.588c0-1.277-0.246-2.215-0.738-2.813
		s-1.1-0.896-1.82-0.896c-0.703,0-1.291,0.287-1.762,0.861C106.79,95.605,106.556,96.511,106.556,97.747z"/>
	<path d="M114.923,97.738c0-1.729,0.48-3.009,1.441-3.841c0.803-0.691,1.781-1.037,2.936-1.037c1.283,0,2.332,0.421,3.146,1.261
		c0.814,0.842,1.221,2.003,1.221,3.485c0,1.201-0.18,2.146-0.541,2.835c-0.359,0.688-0.885,1.223-1.572,1.604
		c-0.689,0.381-1.439,0.571-2.254,0.571c-1.307,0-2.363-0.419-3.17-1.257C115.325,100.521,114.923,99.314,114.923,97.738z
		 M116.548,97.738c0,1.195,0.262,2.09,0.783,2.686c0.521,0.594,1.178,0.892,1.969,0.892c0.785,0,1.438-0.299,1.959-0.896
		s0.783-1.509,0.783-2.733c0-1.154-0.264-2.029-0.787-2.623c-0.525-0.596-1.176-0.893-1.955-0.893c-0.791,0-1.447,0.296-1.969,0.888
		S116.548,96.543,116.548,97.738z"/>
	<path d="M132.245,102.405l-2.855-9.334h1.635l1.484,5.388l0.555,2.004c0.023-0.1,0.184-0.741,0.482-1.925l1.486-5.467h1.625
		l1.398,5.414l0.465,1.784l0.537-1.802l1.6-5.396h1.537l-2.918,9.334h-1.643l-1.486-5.59l-0.359-1.591l-1.891,7.181H132.245z"/>
	<path d="M143.522,102.405V89.521h1.582v4.623c0.738-0.855,1.67-1.283,2.795-1.283c0.691,0,1.291,0.136,1.801,0.409
		c0.51,0.271,0.875,0.648,1.094,1.129c0.221,0.48,0.33,1.178,0.33,2.092v5.915h-1.582V96.49c0-0.791-0.172-1.367-0.514-1.727
		c-0.344-0.361-0.828-0.541-1.455-0.541c-0.469,0-0.91,0.121-1.322,0.365c-0.414,0.242-0.707,0.572-0.883,0.988
		s-0.264,0.99-0.264,1.723v5.106H143.522z"/>
	<path d="M159.923,99.399l1.635,0.202c-0.258,0.955-0.736,1.696-1.434,2.224s-1.588,0.791-2.672,0.791
		c-1.365,0-2.447-0.421-3.248-1.261c-0.799-0.842-1.199-2.021-1.199-3.538c0-1.57,0.404-2.789,1.213-3.656s1.857-1.301,3.146-1.301
		c1.248,0,2.268,0.425,3.059,1.274s1.188,2.045,1.188,3.586c0,0.094-0.004,0.234-0.01,0.422h-6.961
		c0.059,1.025,0.35,1.811,0.871,2.355s1.172,0.817,1.951,0.817c0.58,0,1.074-0.152,1.484-0.457S159.683,100.067,159.923,99.399z
		 M154.728,96.842h5.213c-0.07-0.785-0.27-1.374-0.598-1.767c-0.504-0.609-1.158-0.914-1.961-0.914
		c-0.727,0-1.338,0.243-1.832,0.729C155.054,95.377,154.78,96.027,154.728,96.842z"/>
	<path d="M163.542,102.405v-9.334h1.424v1.327c0.686-1.025,1.676-1.538,2.971-1.538c0.563,0,1.08,0.101,1.553,0.304
		c0.471,0.201,0.824,0.467,1.059,0.795s0.398,0.718,0.492,1.169c0.059,0.293,0.088,0.806,0.088,1.538v5.739h-1.582v-5.678
		c0-0.645-0.063-1.126-0.186-1.446c-0.123-0.318-0.342-0.574-0.654-0.764c-0.314-0.191-0.682-0.286-1.104-0.286
		c-0.674,0-1.256,0.214-1.744,0.642c-0.49,0.428-0.734,1.239-0.734,2.435v5.098H163.542z"/>
	<path d="M178.519,102.405V89.521h1.582v12.885H178.519z"/>
	<path d="M181.964,97.738c0-1.729,0.48-3.009,1.441-3.841c0.803-0.691,1.781-1.037,2.936-1.037c1.283,0,2.332,0.421,3.146,1.261
		c0.814,0.842,1.223,2.003,1.223,3.485c0,1.201-0.18,2.146-0.541,2.835c-0.359,0.688-0.885,1.223-1.572,1.604
		c-0.689,0.381-1.441,0.571-2.256,0.571c-1.307,0-2.363-0.419-3.168-1.257C182.366,100.521,181.964,99.314,181.964,97.738z
		 M183.591,97.738c0,1.195,0.26,2.09,0.781,2.686c0.521,0.594,1.178,0.892,1.969,0.892c0.785,0,1.439-0.299,1.961-0.896
		s0.781-1.509,0.781-2.733c0-1.154-0.262-2.029-0.785-2.623c-0.525-0.596-1.178-0.893-1.957-0.893c-0.791,0-1.447,0.296-1.969,0.888
		S183.591,96.543,183.591,97.738z"/>
	<path d="M191.976,97.738c0-1.729,0.48-3.009,1.441-3.841c0.803-0.691,1.781-1.037,2.936-1.037c1.283,0,2.332,0.421,3.146,1.261
		c0.814,0.842,1.221,2.003,1.221,3.485c0,1.201-0.18,2.146-0.539,2.835c-0.361,0.688-0.887,1.223-1.574,1.604
		c-0.689,0.381-1.439,0.571-2.254,0.571c-1.307,0-2.363-0.419-3.168-1.257C192.378,100.521,191.976,99.314,191.976,97.738z
		 M193.601,97.738c0,1.195,0.262,2.09,0.783,2.686c0.521,0.594,1.178,0.892,1.969,0.892c0.785,0,1.438-0.299,1.959-0.896
		s0.783-1.509,0.783-2.733c0-1.154-0.264-2.029-0.787-2.623c-0.525-0.596-1.176-0.893-1.955-0.893c-0.791,0-1.447,0.296-1.969,0.888
		S193.601,96.543,193.601,97.738z"/>
	<path d="M202.583,102.405V89.521h1.582v7.348l3.744-3.797h2.049l-3.568,3.463l3.928,5.871h-1.951l-3.084-4.772l-1.117,1.072v3.7
		H202.583z"/>
	<path d="M211.583,91.34v-1.819h1.582v1.819H211.583z M211.583,102.405v-9.334h1.582v9.334H211.583z"/>
	<path d="M215.573,102.405v-9.334h1.424v1.327c0.686-1.025,1.676-1.538,2.971-1.538c0.563,0,1.08,0.101,1.553,0.304
		c0.471,0.201,0.824,0.467,1.059,0.795s0.398,0.718,0.492,1.169c0.059,0.293,0.088,0.806,0.088,1.538v5.739h-1.582v-5.678
		c0-0.645-0.063-1.126-0.186-1.446c-0.123-0.318-0.342-0.574-0.654-0.764c-0.314-0.191-0.682-0.286-1.104-0.286
		c-0.674,0-1.256,0.214-1.744,0.642c-0.49,0.428-0.734,1.239-0.734,2.435v5.098H215.573z"/>
	<path d="M225.294,103.179l1.539,0.229c0.064,0.475,0.242,0.82,0.535,1.037c0.393,0.293,0.93,0.439,1.609,0.439
		c0.732,0,1.297-0.146,1.695-0.439s0.668-0.703,0.809-1.23c0.082-0.322,0.121-0.999,0.115-2.03
		c-0.691,0.814-1.553,1.222-2.584,1.222c-1.283,0-2.277-0.463-2.98-1.389s-1.055-2.036-1.055-3.331c0-0.891,0.162-1.713,0.484-2.465
		c0.322-0.754,0.789-1.335,1.402-1.745c0.611-0.41,1.33-0.615,2.156-0.615c1.102,0,2.01,0.445,2.725,1.336v-1.125h1.459v8.068
		c0,1.453-0.148,2.483-0.443,3.089c-0.297,0.607-0.764,1.086-1.406,1.438c-0.641,0.352-1.432,0.527-2.369,0.527
		c-1.113,0-2.012-0.25-2.697-0.752C225.603,104.941,225.271,104.187,225.294,103.179z M226.604,97.571
		c0,1.225,0.242,2.118,0.729,2.681s1.096,0.844,1.828,0.844c0.727,0,1.336-0.279,1.828-0.84c0.492-0.559,0.738-1.437,0.738-2.632
		c0-1.143-0.254-2.004-0.76-2.584c-0.508-0.58-1.117-0.87-1.832-0.87c-0.703,0-1.301,0.285-1.793,0.857
		C226.851,95.598,226.604,96.446,226.604,97.571z"/>
	<path d="M240.974,102.405v-8.104h-1.396v-1.23h1.396v-0.993c0-0.627,0.057-1.093,0.168-1.397c0.152-0.41,0.42-0.743,0.805-0.997
		c0.383-0.256,0.92-0.383,1.611-0.383c0.445,0,0.938,0.053,1.477,0.158l-0.236,1.38c-0.328-0.059-0.639-0.088-0.932-0.088
		c-0.48,0-0.82,0.103-1.02,0.308s-0.299,0.589-0.299,1.151v0.861h1.818v1.23h-1.818v8.104H240.974z"/>
	<path d="M245.009,97.738c0-1.729,0.48-3.009,1.441-3.841c0.803-0.691,1.781-1.037,2.936-1.037c1.283,0,2.332,0.421,3.146,1.261
		c0.814,0.842,1.221,2.003,1.221,3.485c0,1.201-0.18,2.146-0.539,2.835c-0.361,0.688-0.887,1.223-1.574,1.604
		c-0.689,0.381-1.439,0.571-2.254,0.571c-1.307,0-2.363-0.419-3.168-1.257C245.411,100.521,245.009,99.314,245.009,97.738z
		 M246.634,97.738c0,1.195,0.262,2.09,0.783,2.686c0.521,0.594,1.178,0.892,1.969,0.892c0.785,0,1.438-0.299,1.959-0.896
		s0.783-1.509,0.783-2.733c0-1.154-0.264-2.029-0.787-2.623c-0.525-0.596-1.176-0.893-1.955-0.893c-0.791,0-1.447,0.296-1.969,0.888
		S246.634,96.543,246.634,97.738z"/>
	<path d="M255.591,102.405v-9.334h1.424v1.415c0.363-0.662,0.699-1.099,1.006-1.31c0.309-0.211,0.646-0.316,1.016-0.316
		c0.533,0,1.074,0.17,1.625,0.51l-0.545,1.468c-0.387-0.229-0.773-0.343-1.16-0.343c-0.346,0-0.656,0.104-0.932,0.312
		c-0.275,0.209-0.471,0.497-0.588,0.866c-0.176,0.563-0.264,1.178-0.264,1.846v4.887H255.591z"/>
	<path d="M272.692,101.254c-0.586,0.498-1.15,0.85-1.691,1.055c-0.543,0.205-1.123,0.308-1.744,0.308
		c-1.025,0-1.814-0.251-2.365-0.751c-0.551-0.502-0.826-1.142-0.826-1.921c0-0.457,0.104-0.874,0.313-1.253
		c0.207-0.377,0.48-0.681,0.816-0.909c0.338-0.229,0.717-0.401,1.139-0.519c0.311-0.082,0.779-0.161,1.406-0.237
		c1.277-0.152,2.219-0.334,2.822-0.545c0.006-0.217,0.008-0.354,0.008-0.413c0-0.645-0.148-1.099-0.447-1.362
		c-0.404-0.357-1.006-0.536-1.803-0.536c-0.744,0-1.293,0.131-1.648,0.391c-0.354,0.262-0.615,0.723-0.785,1.385l-1.547-0.211
		c0.141-0.662,0.371-1.197,0.693-1.604c0.322-0.408,0.789-0.721,1.398-0.941c0.609-0.219,1.314-0.329,2.117-0.329
		c0.797,0,1.445,0.094,1.943,0.281s0.863,0.423,1.098,0.708c0.234,0.283,0.398,0.643,0.492,1.076c0.053,0.27,0.08,0.756,0.08,1.459
		v2.109c0,1.471,0.033,2.4,0.1,2.791c0.068,0.389,0.201,0.763,0.4,1.12h-1.652C272.845,102.077,272.739,101.693,272.692,101.254z
		 M272.562,97.721c-0.574,0.234-1.436,0.434-2.584,0.598c-0.65,0.094-1.111,0.199-1.381,0.316s-0.477,0.289-0.623,0.514
		c-0.146,0.227-0.221,0.477-0.221,0.752c0,0.422,0.16,0.773,0.479,1.055c0.32,0.281,0.787,0.422,1.402,0.422
		c0.609,0,1.152-0.133,1.627-0.4c0.475-0.266,0.822-0.631,1.045-1.094c0.17-0.357,0.256-0.885,0.256-1.582V97.721z"/>
	<path d="M279.601,106.026l0.299-1.345c0.316,0.082,0.566,0.123,0.748,0.123c0.322,0,0.563-0.107,0.721-0.32
		c0.158-0.215,0.236-0.749,0.236-1.604v-9.809h1.582v9.844c0,1.148-0.148,1.948-0.447,2.399c-0.381,0.586-1.014,0.879-1.898,0.879
		C280.413,106.193,279.999,106.138,279.601,106.026z M281.604,91.357v-1.837h1.582v1.837H281.604z"/>
	<path d="M285.024,97.738c0-1.729,0.48-3.009,1.441-3.841c0.803-0.691,1.781-1.037,2.936-1.037c1.283,0,2.332,0.421,3.146,1.261
		c0.814,0.842,1.221,2.003,1.221,3.485c0,1.201-0.18,2.146-0.541,2.835c-0.359,0.688-0.885,1.223-1.572,1.604
		c-0.689,0.381-1.439,0.571-2.254,0.571c-1.307,0-2.363-0.419-3.17-1.257C285.427,100.521,285.024,99.314,285.024,97.738z
		 M286.649,97.738c0,1.195,0.262,2.09,0.783,2.686c0.521,0.594,1.178,0.892,1.969,0.892c0.785,0,1.438-0.299,1.959-0.896
		s0.783-1.509,0.783-2.733c0-1.154-0.264-2.029-0.787-2.623c-0.525-0.596-1.176-0.893-1.955-0.893c-0.791,0-1.447,0.296-1.969,0.888
		S286.649,96.543,286.649,97.738z"/>
	<path d="M297.083,102.405h-1.469V89.521h1.582v4.597c0.668-0.838,1.521-1.257,2.559-1.257c0.574,0,1.117,0.116,1.629,0.347
		c0.514,0.232,0.936,0.557,1.266,0.977c0.332,0.418,0.592,0.924,0.779,1.516s0.281,1.225,0.281,1.898c0,1.6-0.396,2.836-1.188,3.709
		s-1.74,1.31-2.848,1.31c-1.102,0-1.965-0.46-2.592-1.38V102.405z M297.065,97.668c0,1.119,0.152,1.928,0.457,2.426
		c0.498,0.814,1.172,1.222,2.021,1.222c0.691,0,1.289-0.3,1.793-0.901c0.504-0.6,0.756-1.495,0.756-2.685
		c0-1.219-0.242-2.118-0.727-2.698c-0.482-0.58-1.066-0.87-1.752-0.87c-0.691,0-1.289,0.3-1.793,0.901
		C297.317,95.662,297.065,96.531,297.065,97.668z"/>
</g>
<g id="Capa_8_2_">
	<g>
		<g>
			<polygon fill="#E1EFFA" points="196.28,76.524 197.771,73.547 191.813,73.547 193.302,76.524 			"/>
			<polygon fill="#E1EFFA" points="193.521,76.963 194.791,79.502 196.062,76.963 			"/>
		</g>
		<path opacity="0.8" d="M184.589,16.599h-13.264v-1.892h-4.166c0-1.818-1.471-3.294-3.288-3.294s-3.289,1.477-3.289,3.294h-4.165
			v1.892h-13.264c-0.837,0-1.521,0.685-1.521,1.521v59.86c0,0.838,0.685,1.521,1.521,1.521h41.436c0.836,0,1.521-0.684,1.521-1.521
			V18.12C186.11,17.284,185.425,16.599,184.589,16.599z M163.871,13.589c0.615,0,1.12,0.501,1.12,1.119
			c0,0.616-0.505,1.115-1.12,1.115c-0.619,0-1.119-0.499-1.119-1.115C162.752,14.089,163.252,13.589,163.871,13.589z"/>
		<path fill="#FFFFFF" d="M144.672,20.897v54.306h31.611v-6.786h6.786v-47.52H144.672z M151.626,67.542l-3.578-3.583l0.785-0.785
			l2.793,2.797l4.49-4.491l0.788,0.786L151.626,67.542z M151.626,57.087l-3.578-3.584l0.785-0.784l2.793,2.798l4.49-4.491
			l0.788,0.786L151.626,57.087z M151.626,46.632l-3.578-3.582l0.785-0.784l2.793,2.795l4.49-4.488l0.788,0.784L151.626,46.632z
			 M151.626,36.179l-3.578-3.583l0.785-0.784l2.793,2.794l4.49-4.488l0.788,0.786L151.626,36.179z M179.627,66.135h-19.063v-1.998
			h19.063V66.135z M179.627,55.685h-19.063v-2h19.063V55.685z M179.627,45.23h-19.063v-1.999h19.063V45.23z M179.627,34.777h-19.063
			v-2h19.063V34.777z"/>
		<polygon opacity="0.8" points="193.171,39.646 191.551,39.646 191.551,73.023 193.171,73.023 198.032,73.023 198.032,39.646 		"/>
		<path opacity="0.8" d="M194.791,35.325c-1.788,0-3.24,1.451-3.24,3.24h6.481C198.032,36.776,196.581,35.325,194.791,35.325z"/>
	</g>
</g>
</svg>
