<?xml version="1.0" encoding="utf-8"?>
<!-- Generator: Adobe Illustrator 16.0.0, SVG Export Plug-In . SVG Version: 6.00 Build 0)  -->
<!DOCTYPE svg PUBLIC "-//W3C//DTD SVG 1.1//EN" "http://www.w3.org/Graphics/SVG/1.1/DTD/svg11.dtd">
<svg version="1.1" id="Capa_1" xmlns="http://www.w3.org/2000/svg" xmlns:xlink="http://www.w3.org/1999/xlink" x="0px" y="0px"
	 width="339.658px" height="116.063px" viewBox="0 0 339.658 116.063" enable-background="new 0 0 339.658 116.063"
	 xml:space="preserve">
<rect x="0.5" y="0.5" fill-rule="evenodd" clip-rule="evenodd" fill="#FAF19D" width="338.658" height="115.063"/>
<g opacity="0.8">
	<path d="M68.639,97.9V85.016h4.438c1.002,0,1.767,0.061,2.294,0.184c0.738,0.17,1.368,0.479,1.89,0.924
		c0.68,0.574,1.188,1.308,1.524,2.201s0.506,1.914,0.506,3.063c0,0.979-0.114,1.846-0.343,2.602s-0.521,1.382-0.879,1.877
		s-0.749,0.885-1.173,1.169c-0.426,0.284-0.938,0.499-1.539,0.646s-1.29,0.221-2.069,0.221H68.639z M70.344,96.379h2.751
		c0.85,0,1.517-0.078,1.999-0.236c0.484-0.158,0.869-0.381,1.156-0.668c0.404-0.404,0.719-0.948,0.945-1.631
		c0.225-0.683,0.338-1.51,0.338-2.482c0-1.348-0.222-2.384-0.664-3.107s-0.979-1.209-1.612-1.455
		c-0.457-0.176-1.192-0.264-2.206-0.264h-2.707V96.379z"/>
	<path d="M87.825,94.895l1.635,0.201c-0.258,0.955-0.735,1.697-1.433,2.225s-1.588,0.791-2.672,0.791
		c-1.365,0-2.447-0.421-3.248-1.262c-0.799-0.841-1.199-2.02-1.199-3.537c0-1.57,0.404-2.789,1.213-3.656s1.857-1.301,3.146-1.301
		c1.248,0,2.268,0.424,3.059,1.273s1.187,2.045,1.187,3.586c0,0.094-0.003,0.234-0.009,0.422h-6.961
		c0.059,1.025,0.349,1.811,0.87,2.355s1.172,0.818,1.951,0.818c0.58,0,1.075-0.152,1.485-0.457S87.585,95.563,87.825,94.895z
		 M82.631,92.336h5.212c-0.07-0.785-0.27-1.373-0.598-1.766c-0.504-0.609-1.157-0.914-1.96-0.914c-0.727,0-1.338,0.242-1.832,0.729
		C82.957,90.871,82.684,91.521,82.631,92.336z"/>
	<path d="M90.813,95.113l1.564-0.246c0.088,0.627,0.332,1.107,0.733,1.441s0.963,0.502,1.684,0.502c0.727,0,1.266-0.148,1.617-0.444
		s0.527-0.644,0.527-1.042c0-0.357-0.155-0.639-0.466-0.844c-0.217-0.141-0.756-0.318-1.617-0.535
		c-1.16-0.293-1.964-0.547-2.413-0.761c-0.447-0.214-0.788-0.51-1.02-0.888s-0.347-0.795-0.347-1.252
		c0-0.416,0.095-0.802,0.286-1.156c0.189-0.354,0.449-0.648,0.777-0.883c0.246-0.182,0.581-0.336,1.006-0.462
		s0.881-0.188,1.367-0.188c0.732,0,1.375,0.105,1.93,0.316c0.553,0.211,0.962,0.496,1.226,0.856s0.445,0.843,0.545,1.446
		l-1.547,0.211c-0.07-0.48-0.274-0.855-0.61-1.125c-0.338-0.27-0.813-0.404-1.429-0.404c-0.727,0-1.245,0.119-1.556,0.359
		s-0.466,0.521-0.466,0.844c0,0.205,0.064,0.391,0.193,0.555c0.129,0.17,0.331,0.311,0.606,0.422
		c0.158,0.059,0.624,0.193,1.397,0.404c1.119,0.299,1.899,0.543,2.343,0.733c0.441,0.19,0.789,0.468,1.041,0.831
		s0.378,0.814,0.378,1.354c0,0.527-0.153,1.023-0.462,1.489c-0.307,0.466-0.751,0.826-1.331,1.081s-1.236,0.383-1.969,0.383
		c-1.213,0-2.138-0.252-2.772-0.756C91.395,96.852,90.989,96.104,90.813,95.113z"/>
	<path d="M106.537,94.48l1.556,0.203c-0.17,1.072-0.605,1.911-1.306,2.518s-1.56,0.91-2.579,0.91c-1.277,0-2.305-0.418-3.081-1.253
		s-1.164-2.032-1.164-3.591c0-1.008,0.167-1.889,0.501-2.645s0.842-1.323,1.524-1.701s1.426-0.566,2.229-0.566
		c1.014,0,1.843,0.256,2.487,0.769s1.058,1.241,1.239,2.185l-1.538,0.236c-0.146-0.627-0.406-1.098-0.778-1.414
		s-0.821-0.475-1.349-0.475c-0.797,0-1.444,0.285-1.942,0.856s-0.747,1.476-0.747,2.712c0,1.254,0.24,2.164,0.721,2.732
		s1.107,0.854,1.881,0.854c0.621,0,1.14-0.191,1.556-0.572S106.426,95.271,106.537,94.48z"/>
	<path d="M109.429,97.9v-9.334h1.424v1.414c0.363-0.662,0.698-1.098,1.007-1.309c0.307-0.211,0.646-0.316,1.015-0.316
		c0.533,0,1.075,0.17,1.626,0.51l-0.545,1.467c-0.387-0.229-0.773-0.342-1.16-0.342c-0.346,0-0.656,0.104-0.932,0.312
		s-0.472,0.497-0.589,0.866c-0.176,0.563-0.264,1.178-0.264,1.846V97.9H109.429z"/>
	<path d="M115.449,86.834v-1.818h1.582v1.818H115.449z M115.449,97.9v-9.334h1.582V97.9H115.449z"/>
	<path d="M120.898,97.9h-1.468V85.016h1.582v4.596c0.668-0.838,1.521-1.256,2.558-1.256c0.574,0,1.117,0.115,1.631,0.347
		c0.512,0.231,0.934,0.557,1.266,0.976c0.33,0.419,0.59,0.924,0.777,1.516s0.281,1.225,0.281,1.898c0,1.6-0.396,2.836-1.187,3.709
		s-1.74,1.311-2.848,1.311c-1.102,0-1.966-0.461-2.593-1.381V97.9z M120.881,93.162c0,1.119,0.152,1.928,0.457,2.426
		c0.498,0.814,1.172,1.223,2.021,1.223c0.691,0,1.289-0.301,1.793-0.901s0.756-1.495,0.756-2.685c0-1.219-0.242-2.119-0.725-2.699
		c-0.484-0.58-1.068-0.869-1.754-0.869c-0.691,0-1.289,0.3-1.793,0.9S120.881,92.025,120.881,93.162z"/>
	<path d="M129.459,86.834v-1.818h1.582v1.818H129.459z M129.459,97.9v-9.334h1.582V97.9H129.459z"/>
	<path d="M133.449,97.9v-9.334h1.424v1.326c0.686-1.025,1.676-1.537,2.971-1.537c0.563,0,1.079,0.101,1.551,0.303
		s0.825,0.467,1.06,0.795s0.398,0.719,0.492,1.17c0.059,0.293,0.088,0.805,0.088,1.537v5.74h-1.582v-5.678
		c0-0.645-0.062-1.127-0.185-1.446s-0.342-0.574-0.654-0.765c-0.314-0.19-0.682-0.285-1.104-0.285c-0.674,0-1.256,0.213-1.744,0.641
		c-0.49,0.428-0.734,1.24-0.734,2.436V97.9H133.449z"/>
	<path d="M143.17,98.674l1.538,0.229c0.064,0.475,0.243,0.82,0.536,1.037c0.393,0.293,0.929,0.439,1.608,0.439
		c0.732,0,1.298-0.146,1.696-0.439s0.668-0.703,0.809-1.23c0.082-0.322,0.12-1,0.114-2.031c-0.691,0.814-1.553,1.223-2.584,1.223
		c-1.283,0-2.276-0.463-2.979-1.389s-1.055-2.037-1.055-3.332c0-0.891,0.161-1.712,0.483-2.465s0.789-1.334,1.401-1.744
		s1.332-0.615,2.158-0.615c1.102,0,2.01,0.445,2.725,1.336v-1.125h1.459v8.068c0,1.453-0.148,2.482-0.443,3.089
		c-0.297,0.606-0.766,1.085-1.406,1.437c-0.643,0.352-1.432,0.527-2.369,0.527c-1.113,0-2.013-0.25-2.698-0.751
		S143.146,99.682,143.17,98.674z M144.479,93.066c0,1.225,0.243,2.117,0.729,2.68s1.096,0.844,1.828,0.844
		c0.727,0,1.336-0.279,1.828-0.839s0.738-1.437,0.738-2.632c0-1.143-0.254-2.004-0.76-2.584c-0.508-0.58-1.118-0.871-1.833-0.871
		c-0.703,0-1.301,0.286-1.793,0.857S144.479,91.941,144.479,93.066z"/>
	<path d="M158.401,101.494l-0.176-1.484c0.346,0.094,0.647,0.141,0.905,0.141c0.352,0,0.633-0.059,0.844-0.176
		s0.384-0.281,0.519-0.492c0.1-0.158,0.261-0.551,0.483-1.178c0.029-0.088,0.076-0.217,0.141-0.387l-3.542-9.352h1.705l1.942,5.404
		c0.252,0.686,0.478,1.406,0.677,2.162c0.182-0.727,0.398-1.436,0.65-2.127l1.995-5.439h1.582l-3.551,9.492
		c-0.381,1.025-0.677,1.73-0.888,2.117c-0.281,0.521-0.604,0.904-0.967,1.147s-0.797,0.364-1.301,0.364
		C159.116,101.688,158.776,101.623,158.401,101.494z"/>
	<path d="M166.883,93.232c0-1.729,0.48-3.008,1.441-3.84c0.803-0.691,1.781-1.037,2.936-1.037c1.283,0,2.332,0.42,3.146,1.261
		s1.222,2.003,1.222,3.485c0,1.201-0.181,2.146-0.54,2.834c-0.361,0.688-0.886,1.223-1.574,1.604s-1.439,0.572-2.254,0.572
		c-1.307,0-2.363-0.42-3.168-1.258C167.285,96.016,166.883,94.809,166.883,93.232z M168.509,93.232c0,1.195,0.261,2.091,0.782,2.686
		s1.178,0.893,1.969,0.893c0.785,0,1.438-0.299,1.96-0.896s0.782-1.51,0.782-2.734c0-1.154-0.263-2.028-0.787-2.623
		s-1.176-0.893-1.955-0.893c-0.791,0-1.447,0.297-1.969,0.889S168.509,92.037,168.509,93.232z"/>
	<path d="M183.6,97.9v-1.371c-0.727,1.055-1.714,1.582-2.962,1.582c-0.551,0-1.065-0.105-1.542-0.316
		c-0.479-0.211-0.833-0.477-1.064-0.796s-0.394-0.71-0.487-1.173c-0.064-0.311-0.097-0.803-0.097-1.477v-5.783h1.582v5.176
		c0,0.826,0.032,1.383,0.097,1.67c0.1,0.416,0.311,0.743,0.633,0.98s0.721,0.355,1.195,0.355s0.92-0.121,1.336-0.364
		s0.71-0.574,0.884-0.993c0.172-0.419,0.259-1.027,0.259-1.824v-5h1.582V97.9H183.6z"/>
	<path d="M187.476,97.9v-9.334h1.424v1.414c0.363-0.662,0.698-1.098,1.007-1.309c0.307-0.211,0.646-0.316,1.015-0.316
		c0.533,0,1.075,0.17,1.626,0.51l-0.545,1.467c-0.387-0.229-0.773-0.342-1.16-0.342c-0.346,0-0.656,0.104-0.932,0.312
		s-0.472,0.497-0.589,0.866c-0.176,0.563-0.264,1.178-0.264,1.846V97.9H187.476z"/>
	<path d="M196.476,101.521l0.299-1.346c0.316,0.082,0.565,0.123,0.747,0.123c0.322,0,0.563-0.106,0.721-0.32
		s0.237-0.748,0.237-1.604v-9.809h1.582v9.844c0,1.148-0.149,1.947-0.448,2.398c-0.381,0.586-1.014,0.879-1.898,0.879
		C197.287,101.688,196.874,101.633,196.476,101.521z M198.479,86.852v-1.836h1.582v1.836H198.479z"/>
	<path d="M201.898,93.232c0-1.729,0.48-3.008,1.441-3.84c0.803-0.691,1.781-1.037,2.936-1.037c1.283,0,2.332,0.42,3.146,1.261
		s1.222,2.003,1.222,3.485c0,1.201-0.181,2.146-0.54,2.834c-0.361,0.688-0.886,1.223-1.574,1.604s-1.439,0.572-2.254,0.572
		c-1.307,0-2.363-0.42-3.168-1.258C202.301,96.016,201.898,94.809,201.898,93.232z M203.524,93.232c0,1.195,0.261,2.091,0.782,2.686
		s1.178,0.893,1.969,0.893c0.785,0,1.438-0.299,1.96-0.896s0.782-1.51,0.782-2.734c0-1.154-0.263-2.028-0.787-2.623
		s-1.176-0.893-1.955-0.893c-0.791,0-1.447,0.297-1.969,0.889S203.524,92.037,203.524,93.232z"/>
	<path d="M213.957,97.9h-1.468V85.016h1.582v4.596c0.668-0.838,1.521-1.256,2.558-1.256c0.574,0,1.117,0.115,1.631,0.347
		c0.512,0.231,0.934,0.557,1.266,0.976c0.33,0.419,0.59,0.924,0.777,1.516s0.281,1.225,0.281,1.898c0,1.6-0.396,2.836-1.187,3.709
		s-1.74,1.311-2.848,1.311c-1.102,0-1.966-0.461-2.593-1.381V97.9z M213.939,93.162c0,1.119,0.152,1.928,0.457,2.426
		c0.498,0.814,1.172,1.223,2.021,1.223c0.691,0,1.289-0.301,1.793-0.901s0.756-1.495,0.756-2.685c0-1.219-0.242-2.119-0.725-2.699
		c-0.484-0.58-1.068-0.869-1.754-0.869c-0.691,0-1.289,0.3-1.793,0.9S213.939,92.025,213.939,93.162z"/>
	<path d="M227.51,101.477v-12.91h1.441v1.213c0.34-0.475,0.724-0.831,1.151-1.068s0.946-0.355,1.556-0.355
		c0.797,0,1.5,0.205,2.109,0.615s1.069,0.988,1.38,1.735s0.466,1.565,0.466,2.456c0,0.955-0.172,1.815-0.514,2.58
		c-0.344,0.765-0.842,1.351-1.494,1.758c-0.654,0.407-1.341,0.611-2.062,0.611c-0.527,0-1.001-0.111-1.419-0.334
		c-0.42-0.223-0.764-0.504-1.033-0.844v4.543H227.51z M228.942,93.285c0,1.201,0.243,2.09,0.729,2.664s1.075,0.861,1.767,0.861
		c0.703,0,1.306-0.298,1.806-0.893c0.502-0.595,0.752-1.516,0.752-2.764c0-1.189-0.245-2.08-0.734-2.672s-1.073-0.889-1.753-0.889
		c-0.674,0-1.271,0.315-1.788,0.945C229.201,91.169,228.942,92.084,228.942,93.285z"/>
	<path d="M237.503,97.9v-9.334h1.424v1.414c0.363-0.662,0.698-1.098,1.007-1.309c0.307-0.211,0.646-0.316,1.015-0.316
		c0.533,0,1.075,0.17,1.626,0.51l-0.545,1.467c-0.387-0.229-0.773-0.342-1.16-0.342c-0.346,0-0.656,0.104-0.932,0.312
		s-0.472,0.497-0.589,0.866c-0.176,0.563-0.264,1.178-0.264,1.846V97.9H237.503z"/>
	<path d="M242.926,93.232c0-1.729,0.48-3.008,1.441-3.84c0.803-0.691,1.781-1.037,2.936-1.037c1.283,0,2.332,0.42,3.146,1.261
		s1.222,2.003,1.222,3.485c0,1.201-0.181,2.146-0.54,2.834c-0.361,0.688-0.886,1.223-1.574,1.604s-1.439,0.572-2.254,0.572
		c-1.307,0-2.363-0.42-3.168-1.258C243.328,96.016,242.926,94.809,242.926,93.232z M244.552,93.232c0,1.195,0.261,2.091,0.782,2.686
		s1.178,0.893,1.969,0.893c0.785,0,1.438-0.299,1.96-0.896s0.782-1.51,0.782-2.734c0-1.154-0.263-2.028-0.787-2.623
		s-1.176-0.893-1.955-0.893c-0.791,0-1.447,0.297-1.969,0.889S244.552,92.037,244.552,93.232z"/>
	<path d="M253.903,97.9v-8.104h-1.397v-1.23h1.397v-0.994c0-0.627,0.056-1.092,0.167-1.396c0.152-0.41,0.42-0.743,0.805-0.998
		c0.383-0.255,0.921-0.383,1.612-0.383c0.445,0,0.938,0.053,1.477,0.158l-0.237,1.381c-0.328-0.059-0.639-0.088-0.932-0.088
		c-0.48,0-0.82,0.102-1.02,0.307s-0.299,0.59-0.299,1.152v0.861h1.819v1.23h-1.819V97.9H253.903z"/>
	<path d="M258.535,86.834v-1.818h1.582v1.818H258.535z M258.535,97.9v-9.334h1.582V97.9H258.535z"/>
	<path d="M262.49,97.9V85.016h1.582V97.9H262.49z"/>
	<path d="M272.914,94.895l1.635,0.201c-0.258,0.955-0.735,1.697-1.433,2.225s-1.588,0.791-2.672,0.791
		c-1.365,0-2.448-0.421-3.247-1.262c-0.801-0.841-1.2-2.02-1.2-3.537c0-1.57,0.404-2.789,1.213-3.656s1.857-1.301,3.146-1.301
		c1.248,0,2.268,0.424,3.059,1.273s1.187,2.045,1.187,3.586c0,0.094-0.003,0.234-0.009,0.422h-6.961
		c0.059,1.025,0.349,1.811,0.87,2.355s1.172,0.818,1.951,0.818c0.58,0,1.075-0.152,1.485-0.457S272.674,95.563,272.914,94.895z
		 M267.72,92.336h5.212c-0.07-0.785-0.27-1.373-0.598-1.766c-0.504-0.609-1.157-0.914-1.96-0.914c-0.727,0-1.338,0.242-1.833,0.729
		S267.772,91.521,267.72,92.336z"/>
</g>
<g opacity="0.8">
	<path fill-rule="evenodd" clip-rule="evenodd" d="M179.01,33.513c9.327,5.346,13.884,13.708,15.699,23.769
		c1.228,6.808-0.333,9.663-6.635,12.663c-8.287,3.944-17.098,3.854-25.949,2.951c-4.975-0.507-9.65-1.982-13.816-4.896
		c-2.539-1.775-3.972-4.267-3.708-7.207c0.944-10.452,4.835-19.455,13.669-25.766c0.569-0.411,1.196-0.748,1.815-1.086
		c0.298-0.165,0.635-0.26,0.925-0.372C169.817,42.07,169.817,42.07,179.01,33.513z"/>
	<path fill-rule="evenodd" clip-rule="evenodd" d="M182.205,22.167c0.213,7.578-6.291,12.271-11.753,12.413
		c-7.423,0.189-12.768-5.025-13.022-12.899c-0.193-5.969,5.655-11.834,12.055-12.014C175.914,9.484,182.349,14.438,182.205,22.167z"
		/>
</g>
</svg>
