<?xml version="1.0" encoding="utf-8"?>
<!-- Generator: Adobe Illustrator 16.0.0, SVG Export Plug-In . SVG Version: 6.00 Build 0)  -->
<!DOCTYPE svg PUBLIC "-//W3C//DTD SVG 1.1//EN" "http://www.w3.org/Graphics/SVG/1.1/DTD/svg11.dtd">
<svg version="1.1" id="Capa_1" xmlns="http://www.w3.org/2000/svg" xmlns:xlink="http://www.w3.org/1999/xlink" x="0px" y="0px"
	 width="338.658px" height="115.063px" viewBox="0 0 338.658 115.063" enable-background="new 0 0 338.658 115.063"
	 xml:space="preserve">
<rect fill-rule="evenodd" clip-rule="evenodd" fill="#FAF19D" width="338.658" height="115.063"/>
<g opacity="0.8">
	<path d="M68.139,97.4V84.515h4.438c1.002,0,1.767,0.062,2.294,0.185c0.738,0.17,1.368,0.478,1.89,0.923
		c0.68,0.574,1.188,1.308,1.524,2.202c0.337,0.893,0.506,1.914,0.506,3.063c0,0.979-0.114,1.846-0.343,2.602
		s-0.521,1.381-0.879,1.877c-0.357,0.494-0.749,0.885-1.173,1.168c-0.426,0.285-0.938,0.5-1.539,0.646s-1.29,0.22-2.069,0.22H68.139
		z M69.844,95.879h2.751c0.85,0,1.517-0.079,1.999-0.237c0.484-0.158,0.869-0.381,1.156-0.668c0.404-0.404,0.719-0.948,0.945-1.63
		c0.225-0.684,0.338-1.511,0.338-2.483c0-1.348-0.222-2.384-0.664-3.106c-0.442-0.725-0.979-1.209-1.612-1.455
		c-0.457-0.176-1.192-0.264-2.206-0.264h-2.707V95.879z"/>
	<path d="M87.325,94.394l1.635,0.202c-0.258,0.955-0.735,1.696-1.433,2.224s-1.588,0.791-2.672,0.791
		c-1.365,0-2.447-0.421-3.248-1.261c-0.799-0.842-1.199-2.021-1.199-3.538c0-1.57,0.404-2.789,1.213-3.656s1.857-1.301,3.146-1.301
		c1.248,0,2.268,0.425,3.059,1.274s1.187,2.045,1.187,3.586c0,0.094-0.003,0.234-0.009,0.422h-6.961
		c0.059,1.025,0.349,1.811,0.87,2.355s1.172,0.817,1.951,0.817c0.58,0,1.075-0.152,1.485-0.457S87.085,95.062,87.325,94.394z
		 M82.131,91.836h5.212c-0.07-0.785-0.27-1.374-0.598-1.767c-0.504-0.609-1.157-0.914-1.96-0.914c-0.727,0-1.338,0.243-1.832,0.729
		C82.457,90.372,82.184,91.022,82.131,91.836z"/>
	<path d="M90.313,94.614l1.564-0.246c0.088,0.627,0.332,1.107,0.733,1.441s0.963,0.501,1.684,0.501c0.727,0,1.266-0.147,1.617-0.444
		c0.352-0.295,0.527-0.643,0.527-1.041c0-0.357-0.155-0.639-0.466-0.844c-0.217-0.141-0.756-0.319-1.617-0.536
		c-1.16-0.293-1.964-0.546-2.413-0.761c-0.447-0.213-0.788-0.51-1.02-0.887c-0.231-0.379-0.347-0.796-0.347-1.253
		c0-0.416,0.095-0.802,0.286-1.155c0.189-0.355,0.449-0.649,0.777-0.884c0.246-0.182,0.581-0.335,1.006-0.462
		c0.425-0.125,0.881-0.188,1.367-0.188c0.732,0,1.375,0.105,1.93,0.316c0.553,0.211,0.962,0.497,1.226,0.856
		c0.264,0.361,0.445,0.843,0.545,1.446l-1.547,0.211c-0.07-0.48-0.274-0.855-0.61-1.125c-0.338-0.27-0.813-0.404-1.429-0.404
		c-0.727,0-1.245,0.12-1.556,0.36s-0.466,0.521-0.466,0.844c0,0.205,0.064,0.39,0.193,0.554c0.129,0.17,0.331,0.311,0.606,0.422
		c0.158,0.059,0.624,0.193,1.397,0.404c1.119,0.299,1.899,0.544,2.343,0.733c0.441,0.191,0.789,0.468,1.041,0.831
		s0.378,0.814,0.378,1.354c0,0.527-0.153,1.024-0.462,1.489c-0.307,0.467-0.751,0.826-1.331,1.082
		c-0.58,0.254-1.236,0.382-1.969,0.382c-1.213,0-2.138-0.252-2.772-0.756C90.895,96.351,90.489,95.604,90.313,94.614z"/>
	<path d="M106.037,93.981l1.556,0.202c-0.17,1.072-0.605,1.911-1.306,2.519c-0.7,0.605-1.56,0.909-2.579,0.909
		c-1.277,0-2.305-0.417-3.081-1.253c-0.776-0.834-1.164-2.031-1.164-3.59c0-1.008,0.167-1.89,0.501-2.646s0.842-1.323,1.524-1.7
		c0.683-0.379,1.426-0.567,2.229-0.567c1.014,0,1.843,0.257,2.487,0.769c0.645,0.514,1.058,1.241,1.239,2.185l-1.538,0.237
		c-0.146-0.627-0.406-1.099-0.778-1.415s-0.821-0.475-1.349-0.475c-0.797,0-1.444,0.286-1.942,0.856
		c-0.498,0.572-0.747,1.476-0.747,2.712c0,1.254,0.24,2.165,0.721,2.733s1.107,0.853,1.881,0.853c0.621,0,1.14-0.19,1.556-0.571
		S105.926,94.772,106.037,93.981z"/>
	<path d="M108.929,97.4v-9.334h1.424v1.415c0.363-0.662,0.698-1.099,1.007-1.31c0.307-0.211,0.646-0.316,1.015-0.316
		c0.533,0,1.075,0.17,1.626,0.51l-0.545,1.468c-0.387-0.229-0.773-0.343-1.16-0.343c-0.346,0-0.656,0.104-0.932,0.312
		c-0.275,0.209-0.472,0.497-0.589,0.866c-0.176,0.563-0.264,1.178-0.264,1.846V97.4H108.929z"/>
	<path d="M114.949,86.334v-1.819h1.582v1.819H114.949z M114.949,97.4v-9.334h1.582V97.4H114.949z"/>
	<path d="M120.398,97.4h-1.468V84.515h1.582v4.597c0.668-0.838,1.521-1.257,2.558-1.257c0.574,0,1.117,0.116,1.631,0.347
		c0.512,0.232,0.934,0.557,1.266,0.977c0.33,0.418,0.59,0.924,0.777,1.516s0.281,1.225,0.281,1.898c0,1.6-0.396,2.836-1.187,3.709
		s-1.74,1.31-2.848,1.31c-1.102,0-1.966-0.46-2.593-1.38V97.4z M120.381,92.663c0,1.119,0.152,1.928,0.457,2.426
		c0.498,0.814,1.172,1.222,2.021,1.222c0.691,0,1.289-0.3,1.793-0.901c0.504-0.6,0.756-1.495,0.756-2.685
		c0-1.219-0.242-2.118-0.725-2.698c-0.484-0.58-1.068-0.87-1.754-0.87c-0.691,0-1.289,0.3-1.793,0.901
		C120.633,90.657,120.381,91.526,120.381,92.663z"/>
	<path d="M128.959,86.334v-1.819h1.582v1.819H128.959z M128.959,97.4v-9.334h1.582V97.4H128.959z"/>
	<path d="M132.949,97.4v-9.334h1.424v1.327c0.686-1.025,1.676-1.538,2.971-1.538c0.563,0,1.079,0.101,1.551,0.304
		c0.472,0.201,0.825,0.467,1.06,0.795s0.398,0.718,0.492,1.169c0.059,0.293,0.088,0.806,0.088,1.538V97.4h-1.582v-5.678
		c0-0.645-0.062-1.126-0.185-1.446c-0.123-0.318-0.342-0.574-0.654-0.764c-0.314-0.191-0.682-0.286-1.104-0.286
		c-0.674,0-1.256,0.214-1.744,0.642c-0.49,0.428-0.734,1.239-0.734,2.435V97.4H132.949z"/>
	<path d="M142.67,98.173l1.538,0.229c0.064,0.475,0.243,0.82,0.536,1.037c0.393,0.293,0.929,0.439,1.608,0.439
		c0.732,0,1.298-0.146,1.696-0.439s0.668-0.703,0.809-1.23c0.082-0.322,0.12-0.999,0.114-2.03c-0.691,0.814-1.553,1.222-2.584,1.222
		c-1.283,0-2.276-0.463-2.979-1.389s-1.055-2.036-1.055-3.331c0-0.891,0.161-1.713,0.483-2.465c0.322-0.754,0.789-1.335,1.401-1.745
		s1.332-0.615,2.158-0.615c1.102,0,2.01,0.445,2.725,1.336v-1.125h1.459v8.068c0,1.453-0.148,2.483-0.443,3.089
		c-0.297,0.607-0.766,1.086-1.406,1.438c-0.643,0.352-1.432,0.527-2.369,0.527c-1.113,0-2.013-0.25-2.698-0.752
		C142.978,99.936,142.646,99.181,142.67,98.173z M143.979,92.566c0,1.225,0.243,2.118,0.729,2.681s1.096,0.844,1.828,0.844
		c0.727,0,1.336-0.279,1.828-0.84c0.492-0.559,0.738-1.437,0.738-2.632c0-1.143-0.254-2.004-0.76-2.584
		c-0.508-0.58-1.118-0.87-1.833-0.87c-0.703,0-1.301,0.285-1.793,0.857C144.226,90.592,143.979,91.441,143.979,92.566z"/>
	<path d="M157.901,100.995l-0.176-1.485c0.346,0.094,0.647,0.141,0.905,0.141c0.352,0,0.633-0.059,0.844-0.176
		s0.384-0.281,0.519-0.492c0.1-0.158,0.261-0.551,0.483-1.178c0.029-0.088,0.076-0.217,0.141-0.387l-3.542-9.352h1.705l1.942,5.405
		c0.252,0.686,0.478,1.406,0.677,2.162c0.182-0.727,0.398-1.436,0.65-2.127l1.995-5.44h1.582l-3.551,9.492
		c-0.381,1.025-0.677,1.731-0.888,2.118c-0.281,0.521-0.604,0.904-0.967,1.146c-0.363,0.244-0.797,0.365-1.301,0.365
		C158.616,101.188,158.276,101.124,157.901,100.995z"/>
	<path d="M166.383,92.733c0-1.729,0.48-3.009,1.441-3.841c0.803-0.691,1.781-1.037,2.936-1.037c1.283,0,2.332,0.421,3.146,1.261
		c0.814,0.842,1.222,2.003,1.222,3.485c0,1.201-0.181,2.146-0.54,2.835c-0.361,0.688-0.886,1.223-1.574,1.604
		s-1.439,0.571-2.254,0.571c-1.307,0-2.363-0.419-3.168-1.257C166.785,95.516,166.383,94.309,166.383,92.733z M168.009,92.733
		c0,1.195,0.261,2.09,0.782,2.686c0.521,0.594,1.178,0.892,1.969,0.892c0.785,0,1.438-0.299,1.96-0.896s0.782-1.509,0.782-2.733
		c0-1.154-0.263-2.029-0.787-2.623c-0.524-0.596-1.176-0.893-1.955-0.893c-0.791,0-1.447,0.296-1.969,0.888
		S168.009,91.538,168.009,92.733z"/>
	<path d="M183.1,97.4v-1.371c-0.727,1.055-1.714,1.582-2.962,1.582c-0.551,0-1.065-0.105-1.542-0.316
		c-0.479-0.211-0.833-0.476-1.064-0.796c-0.231-0.318-0.394-0.71-0.487-1.173c-0.064-0.311-0.097-0.803-0.097-1.477v-5.783h1.582
		v5.177c0,0.826,0.032,1.383,0.097,1.67c0.1,0.416,0.311,0.742,0.633,0.98c0.322,0.236,0.721,0.355,1.195,0.355
		s0.92-0.121,1.336-0.365c0.416-0.242,0.71-0.574,0.884-0.992c0.172-0.42,0.259-1.027,0.259-1.824v-5.001h1.582V97.4H183.1z"/>
	<path d="M186.976,97.4v-9.334h1.424v1.415c0.363-0.662,0.698-1.099,1.007-1.31c0.307-0.211,0.646-0.316,1.015-0.316
		c0.533,0,1.075,0.17,1.626,0.51l-0.545,1.468c-0.387-0.229-0.773-0.343-1.16-0.343c-0.346,0-0.656,0.104-0.932,0.312
		c-0.275,0.209-0.472,0.497-0.589,0.866c-0.176,0.563-0.264,1.178-0.264,1.846V97.4H186.976z"/>
	<path d="M195.976,101.021l0.299-1.345c0.316,0.082,0.565,0.123,0.747,0.123c0.322,0,0.563-0.107,0.721-0.32
		c0.158-0.215,0.237-0.749,0.237-1.604v-9.809h1.582v9.844c0,1.148-0.149,1.948-0.448,2.399c-0.381,0.586-1.014,0.879-1.898,0.879
		C196.787,101.188,196.374,101.132,195.976,101.021z M197.979,86.352v-1.837h1.582v1.837H197.979z"/>
	<path d="M201.398,92.733c0-1.729,0.48-3.009,1.441-3.841c0.803-0.691,1.781-1.037,2.936-1.037c1.283,0,2.332,0.421,3.146,1.261
		c0.814,0.842,1.222,2.003,1.222,3.485c0,1.201-0.181,2.146-0.54,2.835c-0.361,0.688-0.886,1.223-1.574,1.604
		s-1.439,0.571-2.254,0.571c-1.307,0-2.363-0.419-3.168-1.257C201.801,95.516,201.398,94.309,201.398,92.733z M203.024,92.733
		c0,1.195,0.261,2.09,0.782,2.686c0.521,0.594,1.178,0.892,1.969,0.892c0.785,0,1.438-0.299,1.96-0.896s0.782-1.509,0.782-2.733
		c0-1.154-0.263-2.029-0.787-2.623c-0.524-0.596-1.176-0.893-1.955-0.893c-0.791,0-1.447,0.296-1.969,0.888
		S203.024,91.538,203.024,92.733z"/>
	<path d="M213.457,97.4h-1.468V84.515h1.582v4.597c0.668-0.838,1.521-1.257,2.558-1.257c0.574,0,1.117,0.116,1.631,0.347
		c0.512,0.232,0.934,0.557,1.266,0.977c0.33,0.418,0.59,0.924,0.777,1.516s0.281,1.225,0.281,1.898c0,1.6-0.396,2.836-1.187,3.709
		s-1.74,1.31-2.848,1.31c-1.102,0-1.966-0.46-2.593-1.38V97.4z M213.439,92.663c0,1.119,0.152,1.928,0.457,2.426
		c0.498,0.814,1.172,1.222,2.021,1.222c0.691,0,1.289-0.3,1.793-0.901c0.504-0.6,0.756-1.495,0.756-2.685
		c0-1.219-0.242-2.118-0.725-2.698c-0.484-0.58-1.068-0.87-1.754-0.87c-0.691,0-1.289,0.3-1.793,0.901
		C213.691,90.657,213.439,91.526,213.439,92.663z"/>
	<path d="M227.01,100.977V88.066h1.441v1.213c0.34-0.475,0.724-0.831,1.151-1.067c0.428-0.238,0.946-0.356,1.556-0.356
		c0.797,0,1.5,0.205,2.109,0.615s1.069,0.989,1.38,1.735c0.311,0.748,0.466,1.566,0.466,2.457c0,0.955-0.172,1.814-0.514,2.58
		c-0.344,0.764-0.842,1.35-1.494,1.758c-0.654,0.406-1.341,0.61-2.062,0.61c-0.527,0-1.001-0.111-1.419-0.334
		c-0.42-0.223-0.764-0.504-1.033-0.844v4.544H227.01z M228.442,92.786c0,1.201,0.243,2.089,0.729,2.663s1.075,0.861,1.767,0.861
		c0.703,0,1.306-0.298,1.806-0.892c0.502-0.596,0.752-1.517,0.752-2.765c0-1.189-0.245-2.08-0.734-2.672s-1.073-0.888-1.753-0.888
		c-0.674,0-1.271,0.314-1.788,0.945C228.701,90.668,228.442,91.584,228.442,92.786z"/>
	<path d="M237.003,97.4v-9.334h1.424v1.415c0.363-0.662,0.698-1.099,1.007-1.31c0.307-0.211,0.646-0.316,1.015-0.316
		c0.533,0,1.075,0.17,1.626,0.51l-0.545,1.468c-0.387-0.229-0.773-0.343-1.16-0.343c-0.346,0-0.656,0.104-0.932,0.312
		c-0.275,0.209-0.472,0.497-0.589,0.866c-0.176,0.563-0.264,1.178-0.264,1.846V97.4H237.003z"/>
	<path d="M242.426,92.733c0-1.729,0.48-3.009,1.441-3.841c0.803-0.691,1.781-1.037,2.936-1.037c1.283,0,2.332,0.421,3.146,1.261
		c0.814,0.842,1.222,2.003,1.222,3.485c0,1.201-0.181,2.146-0.54,2.835c-0.361,0.688-0.886,1.223-1.574,1.604
		s-1.439,0.571-2.254,0.571c-1.307,0-2.363-0.419-3.168-1.257C242.828,95.516,242.426,94.309,242.426,92.733z M244.052,92.733
		c0,1.195,0.261,2.09,0.782,2.686c0.521,0.594,1.178,0.892,1.969,0.892c0.785,0,1.438-0.299,1.96-0.896s0.782-1.509,0.782-2.733
		c0-1.154-0.263-2.029-0.787-2.623c-0.524-0.596-1.176-0.893-1.955-0.893c-0.791,0-1.447,0.296-1.969,0.888
		S244.052,91.538,244.052,92.733z"/>
	<path d="M253.403,97.4v-8.104h-1.397v-1.23h1.397v-0.993c0-0.627,0.056-1.093,0.167-1.397c0.152-0.41,0.42-0.743,0.805-0.997
		c0.383-0.256,0.921-0.383,1.612-0.383c0.445,0,0.938,0.053,1.477,0.158l-0.237,1.38c-0.328-0.059-0.639-0.088-0.932-0.088
		c-0.48,0-0.82,0.103-1.02,0.308s-0.299,0.589-0.299,1.151v0.861h1.819v1.23h-1.819V97.4H253.403z"/>
	<path d="M258.035,86.334v-1.819h1.582v1.819H258.035z M258.035,97.4v-9.334h1.582V97.4H258.035z"/>
	<path d="M261.99,97.4V84.515h1.582V97.4H261.99z"/>
	<path d="M272.414,94.394l1.635,0.202c-0.258,0.955-0.735,1.696-1.433,2.224s-1.588,0.791-2.672,0.791
		c-1.365,0-2.448-0.421-3.247-1.261c-0.801-0.842-1.2-2.021-1.2-3.538c0-1.57,0.404-2.789,1.213-3.656s1.857-1.301,3.146-1.301
		c1.248,0,2.268,0.425,3.059,1.274s1.187,2.045,1.187,3.586c0,0.094-0.003,0.234-0.009,0.422h-6.961
		c0.059,1.025,0.349,1.811,0.87,2.355s1.172,0.817,1.951,0.817c0.58,0,1.075-0.152,1.485-0.457S272.174,95.062,272.414,94.394z
		 M267.22,91.836h5.212c-0.07-0.785-0.27-1.374-0.598-1.767c-0.504-0.609-1.157-0.914-1.96-0.914c-0.727,0-1.338,0.243-1.833,0.729
		S267.272,91.022,267.22,91.836z"/>
</g>
<g opacity="0.8">
	<path fill-rule="evenodd" clip-rule="evenodd" d="M178.51,33.013c9.327,5.346,13.884,13.708,15.699,23.769
		c1.228,6.807-0.333,9.663-6.635,12.663c-8.287,3.944-17.098,3.854-25.949,2.952c-4.975-0.508-9.65-1.982-13.816-4.897
		c-2.539-1.774-3.972-4.267-3.708-7.206c0.944-10.452,4.835-19.455,13.669-25.767c0.569-0.411,1.196-0.748,1.815-1.086
		c0.298-0.165,0.635-0.26,0.925-0.372C169.317,41.57,169.317,41.57,178.51,33.013z"/>
	<path fill-rule="evenodd" clip-rule="evenodd" d="M181.705,21.667c0.213,7.578-6.291,12.271-11.753,12.413
		c-7.423,0.189-12.768-5.025-13.022-12.899c-0.193-5.969,5.655-11.834,12.055-12.014C175.414,8.984,181.849,13.938,181.705,21.667z"
		/>
</g>
</svg>
