<?xml version="1.0" encoding="utf-8"?>
<!-- Generator: Adobe Illustrator 16.0.0, SVG Export Plug-In . SVG Version: 6.00 Build 0)  -->
<!DOCTYPE svg PUBLIC "-//W3C//DTD SVG 1.1//EN" "http://www.w3.org/Graphics/SVG/1.1/DTD/svg11.dtd">
<svg version="1.1" id="Capa_1" xmlns="http://www.w3.org/2000/svg" xmlns:xlink="http://www.w3.org/1999/xlink" x="0px" y="0px"
	 width="339.658px" height="116.063px" viewBox="0 0 339.658 116.063" enable-background="new 0 0 339.658 116.063"
	 xml:space="preserve">
<g opacity="0.8">
	<path fill="#FFFFFF" d="M68.639,97.9V85.016h4.438c1.002,0,1.767,0.062,2.294,0.185c0.738,0.17,1.368,0.479,1.89,0.924
		c0.68,0.574,1.188,1.308,1.524,2.201c0.336,0.893,0.506,1.914,0.506,3.063c0,0.979-0.114,1.846-0.343,2.603
		c-0.229,0.756-0.521,1.382-0.879,1.877c-0.358,0.494-0.749,0.885-1.173,1.169c-0.426,0.283-0.938,0.499-1.539,0.646
		c-0.601,0.147-1.29,0.221-2.069,0.221h-4.649V97.9z M70.344,96.379h2.751c0.85,0,1.517-0.078,1.999-0.236
		c0.484-0.158,0.869-0.381,1.156-0.668c0.404-0.404,0.719-0.948,0.945-1.631c0.225-0.683,0.338-1.51,0.338-2.482
		c0-1.348-0.222-2.384-0.664-3.106c-0.442-0.723-0.979-1.209-1.612-1.455c-0.457-0.176-1.192-0.264-2.206-0.264h-2.707
		C70.344,86.536,70.344,96.379,70.344,96.379z"/>
	<path fill="#FFFFFF" d="M87.825,94.895l1.635,0.201c-0.258,0.955-0.735,1.697-1.433,2.225c-0.698,0.528-1.588,0.791-2.672,0.791
		c-1.365,0-2.447-0.421-3.248-1.262c-0.799-0.841-1.199-2.02-1.199-3.537c0-1.569,0.404-2.789,1.213-3.655
		c0.809-0.867,1.857-1.302,3.146-1.302c1.248,0,2.268,0.424,3.059,1.273c0.791,0.849,1.187,2.045,1.187,3.586
		c0,0.094-0.003,0.234-0.009,0.422h-6.961c0.059,1.025,0.349,1.812,0.87,2.355s1.172,0.817,1.951,0.817
		c0.58,0,1.075-0.151,1.485-0.457C87.259,96.048,87.585,95.563,87.825,94.895z M82.631,92.336h5.212
		c-0.07-0.785-0.27-1.373-0.598-1.767c-0.504-0.608-1.157-0.913-1.96-0.913c-0.727,0-1.338,0.241-1.832,0.729
		C82.957,90.871,82.684,91.521,82.631,92.336z"/>
	<path fill="#FFFFFF" d="M90.813,95.113l1.564-0.245c0.088,0.627,0.332,1.106,0.733,1.44c0.401,0.334,0.963,0.502,1.684,0.502
		c0.727,0,1.266-0.147,1.617-0.443c0.351-0.297,0.527-0.645,0.527-1.042c0-0.357-0.155-0.64-0.466-0.845
		c-0.217-0.141-0.756-0.317-1.617-0.535c-1.16-0.293-1.964-0.547-2.413-0.761c-0.447-0.214-0.788-0.51-1.02-0.888
		s-0.347-0.795-0.347-1.252c0-0.416,0.095-0.802,0.286-1.156c0.189-0.354,0.449-0.647,0.777-0.883
		c0.246-0.182,0.581-0.336,1.006-0.462s0.881-0.188,1.367-0.188c0.732,0,1.375,0.105,1.93,0.316
		c0.553,0.211,0.962,0.496,1.226,0.855c0.264,0.36,0.445,0.844,0.545,1.446l-1.547,0.211c-0.07-0.479-0.274-0.854-0.61-1.125
		c-0.338-0.27-0.813-0.404-1.429-0.404c-0.727,0-1.245,0.119-1.556,0.359s-0.466,0.521-0.466,0.844c0,0.205,0.064,0.392,0.193,0.556
		c0.129,0.17,0.331,0.311,0.606,0.422c0.158,0.059,0.624,0.192,1.397,0.403c1.119,0.3,1.899,0.544,2.343,0.733
		c0.441,0.19,0.789,0.468,1.041,0.831s0.378,0.814,0.378,1.354c0,0.526-0.153,1.022-0.462,1.488
		c-0.307,0.466-0.751,0.826-1.331,1.081S95.533,98.11,94.8,98.11c-1.213,0-2.138-0.252-2.772-0.756
		C91.395,96.852,90.989,96.104,90.813,95.113z"/>
	<path fill="#FFFFFF" d="M106.537,94.48l1.556,0.203c-0.17,1.072-0.605,1.911-1.306,2.519c-0.701,0.606-1.56,0.909-2.579,0.909
		c-1.277,0-2.305-0.418-3.081-1.253s-1.164-2.031-1.164-3.591c0-1.008,0.167-1.889,0.501-2.645s0.842-1.323,1.524-1.701
		c0.682-0.378,1.426-0.566,2.229-0.566c1.014,0,1.843,0.256,2.487,0.77c0.644,0.513,1.058,1.241,1.239,2.185l-1.538,0.236
		c-0.146-0.627-0.406-1.098-0.778-1.414s-0.821-0.475-1.349-0.475c-0.797,0-1.444,0.284-1.942,0.855s-0.747,1.476-0.747,2.712
		c0,1.254,0.24,2.164,0.721,2.732c0.481,0.567,1.107,0.854,1.881,0.854c0.621,0,1.14-0.19,1.556-0.572
		C106.163,95.857,106.426,95.271,106.537,94.48z"/>
	<path fill="#FFFFFF" d="M109.429,97.9v-9.334h1.424v1.414c0.363-0.662,0.698-1.098,1.007-1.309
		c0.307-0.211,0.646-0.316,1.015-0.316c0.533,0,1.075,0.17,1.626,0.511l-0.545,1.467c-0.387-0.229-0.773-0.342-1.16-0.342
		c-0.346,0-0.656,0.104-0.932,0.312c-0.276,0.208-0.472,0.497-0.589,0.866c-0.176,0.563-0.264,1.178-0.264,1.846V97.9H109.429z"/>
	<path fill="#FFFFFF" d="M115.449,86.834v-1.818h1.582v1.818H115.449z M115.449,97.9v-9.334h1.582V97.9H115.449z"/>
	<path fill="#FFFFFF" d="M120.898,97.9h-1.468V85.016h1.582v4.596c0.668-0.838,1.521-1.256,2.558-1.256
		c0.574,0,1.117,0.115,1.631,0.348c0.512,0.23,0.934,0.557,1.266,0.976c0.33,0.419,0.59,0.924,0.777,1.516
		c0.187,0.593,0.281,1.226,0.281,1.898c0,1.6-0.396,2.836-1.187,3.709s-1.74,1.311-2.848,1.311c-1.102,0-1.966-0.461-2.593-1.381
		L120.898,97.9L120.898,97.9z M120.881,93.162c0,1.119,0.152,1.928,0.457,2.426c0.498,0.813,1.172,1.223,2.021,1.223
		c0.691,0,1.289-0.301,1.793-0.9c0.504-0.601,0.756-1.495,0.756-2.686c0-1.219-0.242-2.119-0.725-2.699
		c-0.484-0.58-1.068-0.868-1.754-0.868c-0.691,0-1.289,0.3-1.793,0.899C121.132,91.157,120.881,92.025,120.881,93.162z"/>
	<path fill="#FFFFFF" d="M129.459,86.834v-1.818h1.582v1.818H129.459z M129.459,97.9v-9.334h1.582V97.9H129.459z"/>
	<path fill="#FFFFFF" d="M133.449,97.9v-9.334h1.424v1.326c0.686-1.024,1.676-1.537,2.971-1.537c0.563,0,1.079,0.102,1.551,0.304
		c0.472,0.201,0.825,0.467,1.06,0.795s0.398,0.719,0.492,1.17c0.059,0.293,0.088,0.805,0.088,1.537V97.9h-1.582v-5.678
		c0-0.645-0.062-1.127-0.185-1.446c-0.123-0.318-0.342-0.573-0.654-0.765c-0.314-0.19-0.682-0.285-1.104-0.285
		c-0.674,0-1.256,0.213-1.744,0.642c-0.49,0.428-0.734,1.239-0.734,2.436V97.9H133.449z"/>
	<path fill="#FFFFFF" d="M143.17,98.674l1.538,0.229c0.064,0.476,0.243,0.82,0.536,1.037c0.393,0.293,0.929,0.439,1.608,0.439
		c0.732,0,1.298-0.146,1.696-0.439s0.668-0.703,0.809-1.229c0.082-0.322,0.12-1,0.114-2.031c-0.691,0.814-1.553,1.223-2.584,1.223
		c-1.283,0-2.276-0.463-2.979-1.389c-0.703-0.926-1.055-2.037-1.055-3.332c0-0.891,0.161-1.712,0.483-2.465
		c0.322-0.753,0.789-1.334,1.401-1.744c0.612-0.41,1.332-0.615,2.158-0.615c1.102,0,2.01,0.445,2.725,1.336v-1.125h1.459v8.068
		c0,1.453-0.148,2.482-0.443,3.089c-0.297,0.606-0.766,1.085-1.406,1.438c-0.643,0.352-1.432,0.526-2.369,0.526
		c-1.113,0-2.013-0.25-2.698-0.751S143.146,99.682,143.17,98.674z M144.479,93.066c0,1.226,0.243,2.117,0.729,2.681
		c0.486,0.563,1.096,0.844,1.828,0.844c0.727,0,1.336-0.279,1.828-0.839c0.492-0.561,0.738-1.438,0.738-2.632
		c0-1.144-0.254-2.004-0.76-2.584c-0.508-0.58-1.118-0.871-1.833-0.871c-0.703,0-1.301,0.286-1.793,0.856
		C144.724,91.092,144.479,91.941,144.479,93.066z"/>
	<path fill="#FFFFFF" d="M158.401,101.494l-0.176-1.484c0.346,0.094,0.647,0.141,0.905,0.141c0.352,0,0.633-0.059,0.844-0.176
		s0.384-0.281,0.519-0.492c0.1-0.157,0.261-0.551,0.483-1.178c0.029-0.088,0.076-0.217,0.141-0.387l-3.542-9.353h1.705l1.942,5.404
		c0.252,0.687,0.478,1.406,0.677,2.162c0.182-0.728,0.398-1.437,0.65-2.127l1.995-5.439h1.582l-3.551,9.492
		c-0.381,1.025-0.677,1.73-0.888,2.117c-0.281,0.521-0.604,0.904-0.967,1.146c-0.363,0.243-0.797,0.364-1.301,0.364
		C159.116,101.688,158.776,101.623,158.401,101.494z"/>
	<path fill="#FFFFFF" d="M166.883,93.232c0-1.729,0.48-3.008,1.441-3.84c0.803-0.69,1.781-1.037,2.936-1.037
		c1.283,0,2.332,0.42,3.146,1.262c0.814,0.841,1.223,2.003,1.223,3.484c0,1.201-0.182,2.146-0.54,2.834
		c-0.36,0.688-0.886,1.224-1.573,1.604c-0.688,0.381-1.439,0.571-2.255,0.571c-1.307,0-2.363-0.42-3.168-1.258
		C167.285,96.016,166.883,94.809,166.883,93.232z M168.509,93.232c0,1.195,0.261,2.092,0.782,2.687s1.178,0.893,1.969,0.893
		c0.785,0,1.438-0.299,1.96-0.896c0.522-0.598,0.782-1.511,0.782-2.734c0-1.154-0.263-2.028-0.787-2.623s-1.176-0.893-1.955-0.893
		c-0.791,0-1.447,0.297-1.969,0.889S168.509,92.037,168.509,93.232z"/>
	<path fill="#FFFFFF" d="M183.601,97.9v-1.371c-0.728,1.056-1.715,1.582-2.963,1.582c-0.551,0-1.064-0.104-1.541-0.315
		c-0.479-0.211-0.834-0.478-1.064-0.796c-0.231-0.319-0.395-0.71-0.487-1.173c-0.063-0.312-0.097-0.804-0.097-1.478v-5.783h1.582
		v5.177c0,0.825,0.031,1.383,0.097,1.67c0.101,0.416,0.312,0.742,0.633,0.979c0.322,0.237,0.722,0.355,1.195,0.355
		s0.92-0.121,1.336-0.364s0.71-0.574,0.884-0.993c0.172-0.419,0.26-1.026,0.26-1.824v-5h1.582V97.9H183.601z"/>
	<path fill="#FFFFFF" d="M187.476,97.9v-9.334h1.424v1.414c0.363-0.662,0.699-1.098,1.008-1.309
		c0.307-0.211,0.646-0.316,1.015-0.316c0.533,0,1.075,0.17,1.626,0.511l-0.545,1.467c-0.387-0.229-0.773-0.342-1.16-0.342
		c-0.346,0-0.656,0.104-0.932,0.312c-0.276,0.208-0.473,0.497-0.59,0.866c-0.176,0.563-0.264,1.178-0.264,1.846V97.9H187.476z"/>
	<path fill="#FFFFFF" d="M196.476,101.521l0.299-1.346c0.316,0.082,0.565,0.123,0.748,0.123c0.321,0,0.563-0.106,0.721-0.32
		s0.236-0.748,0.236-1.604v-9.81h1.582v9.845c0,1.147-0.148,1.946-0.447,2.397c-0.381,0.586-1.014,0.879-1.898,0.879
		C197.287,101.688,196.874,101.633,196.476,101.521z M198.479,86.852v-1.836h1.582v1.836H198.479z"/>
	<path fill="#FFFFFF" d="M201.897,93.232c0-1.729,0.48-3.008,1.441-3.84c0.803-0.69,1.781-1.037,2.936-1.037
		c1.283,0,2.332,0.42,3.146,1.262c0.814,0.841,1.223,2.003,1.223,3.484c0,1.201-0.182,2.146-0.541,2.834
		c-0.36,0.688-0.886,1.224-1.574,1.604c-0.688,0.381-1.438,0.571-2.254,0.571c-1.307,0-2.362-0.42-3.168-1.258
		C202.301,96.016,201.897,94.809,201.897,93.232z M203.524,93.232c0,1.195,0.261,2.092,0.781,2.687
		c0.521,0.595,1.178,0.893,1.969,0.893c0.785,0,1.438-0.299,1.961-0.896c0.521-0.598,0.781-1.511,0.781-2.734
		c0-1.154-0.263-2.028-0.787-2.623c-0.523-0.595-1.176-0.893-1.955-0.893c-0.791,0-1.446,0.297-1.969,0.889
		C203.784,91.146,203.524,92.037,203.524,93.232z"/>
	<path fill="#FFFFFF" d="M213.957,97.9h-1.468V85.016h1.582v4.596c0.668-0.838,1.521-1.256,2.558-1.256
		c0.574,0,1.117,0.115,1.631,0.348c0.513,0.23,0.935,0.557,1.267,0.976c0.33,0.419,0.59,0.924,0.776,1.516
		c0.188,0.593,0.281,1.226,0.281,1.898c0,1.6-0.396,2.836-1.187,3.709s-1.74,1.311-2.849,1.311c-1.103,0-1.966-0.461-2.593-1.381
		L213.957,97.9L213.957,97.9z M213.938,93.162c0,1.119,0.152,1.928,0.457,2.426c0.498,0.813,1.172,1.223,2.021,1.223
		c0.691,0,1.289-0.301,1.793-0.9c0.504-0.601,0.756-1.495,0.756-2.686c0-1.219-0.242-2.119-0.725-2.699
		c-0.484-0.58-1.068-0.868-1.754-0.868c-0.691,0-1.289,0.3-1.793,0.899C214.19,91.157,213.938,92.025,213.938,93.162z"/>
	<path fill="#FFFFFF" d="M227.51,101.477v-12.91h1.441v1.213c0.34-0.475,0.724-0.83,1.151-1.067
		c0.426-0.237,0.945-0.355,1.556-0.355c0.797,0,1.5,0.205,2.108,0.615c0.609,0.41,1.069,0.988,1.381,1.735
		c0.311,0.747,0.465,1.564,0.465,2.456c0,0.955-0.172,1.814-0.514,2.58c-0.344,0.765-0.842,1.351-1.494,1.758
		c-0.653,0.407-1.34,0.61-2.062,0.61c-0.526,0-1.001-0.11-1.419-0.334c-0.42-0.223-0.764-0.504-1.033-0.844v4.543H227.51z
		 M228.942,93.285c0,1.2,0.242,2.09,0.729,2.664c0.486,0.573,1.075,0.86,1.768,0.86c0.703,0,1.306-0.298,1.806-0.893
		c0.502-0.595,0.752-1.517,0.752-2.765c0-1.188-0.245-2.079-0.733-2.672c-0.49-0.592-1.074-0.889-1.754-0.889
		c-0.674,0-1.271,0.315-1.787,0.945C229.201,91.169,228.942,92.084,228.942,93.285z"/>
	<path fill="#FFFFFF" d="M237.503,97.9v-9.334h1.424v1.414c0.363-0.662,0.698-1.098,1.008-1.309
		c0.307-0.211,0.646-0.316,1.015-0.316c0.532,0,1.075,0.17,1.626,0.511l-0.545,1.467c-0.387-0.229-0.773-0.342-1.16-0.342
		c-0.346,0-0.656,0.104-0.932,0.312c-0.276,0.208-0.473,0.497-0.59,0.866c-0.176,0.563-0.264,1.178-0.264,1.846V97.9H237.503z"/>
	<path fill="#FFFFFF" d="M242.926,93.232c0-1.729,0.48-3.008,1.441-3.84c0.803-0.69,1.78-1.037,2.936-1.037
		c1.283,0,2.332,0.42,3.146,1.262c0.813,0.841,1.222,2.003,1.222,3.484c0,1.201-0.181,2.146-0.54,2.834
		c-0.36,0.688-0.886,1.224-1.573,1.604c-0.688,0.381-1.439,0.571-2.255,0.571c-1.307,0-2.362-0.42-3.168-1.258
		C243.328,96.016,242.926,94.809,242.926,93.232z M244.552,93.232c0,1.195,0.262,2.092,0.782,2.687s1.179,0.893,1.969,0.893
		c0.785,0,1.438-0.299,1.96-0.896c0.522-0.598,0.782-1.511,0.782-2.734c0-1.154-0.263-2.028-0.787-2.623s-1.176-0.893-1.955-0.893
		c-0.79,0-1.446,0.297-1.969,0.889S244.552,92.037,244.552,93.232z"/>
	<path fill="#FFFFFF" d="M253.903,97.9v-8.104h-1.397v-1.23h1.397v-0.994c0-0.627,0.056-1.092,0.166-1.396
		c0.152-0.41,0.421-0.743,0.806-0.998c0.383-0.255,0.921-0.383,1.612-0.383c0.445,0,0.938,0.053,1.477,0.158l-0.236,1.381
		c-0.328-0.06-0.64-0.088-0.933-0.088c-0.479,0-0.819,0.102-1.021,0.307c-0.199,0.205-0.299,0.59-0.299,1.152v0.86h1.819v1.23
		h-1.819V97.9H253.903z"/>
	<path fill="#FFFFFF" d="M258.535,86.834v-1.818h1.582v1.818H258.535z M258.535,97.9v-9.334h1.582V97.9H258.535z"/>
	<path fill="#FFFFFF" d="M262.49,97.9V85.016h1.581V97.9H262.49z"/>
	<path fill="#FFFFFF" d="M272.914,94.895l1.635,0.201c-0.258,0.955-0.735,1.697-1.433,2.225c-0.698,0.528-1.588,0.791-2.672,0.791
		c-1.365,0-2.448-0.421-3.248-1.262c-0.801-0.841-1.199-2.02-1.199-3.537c0-1.569,0.404-2.789,1.213-3.655
		c0.809-0.867,1.857-1.302,3.146-1.302c1.248,0,2.268,0.424,3.059,1.273c0.791,0.849,1.188,2.045,1.188,3.586
		c0,0.094-0.004,0.234-0.01,0.422h-6.961c0.059,1.025,0.35,1.812,0.87,2.355s1.172,0.817,1.951,0.817
		c0.58,0,1.075-0.151,1.485-0.457C272.349,96.048,272.674,95.563,272.914,94.895z M267.72,92.336h5.213
		c-0.07-0.785-0.271-1.373-0.599-1.767c-0.504-0.608-1.157-0.913-1.96-0.913c-0.727,0-1.338,0.241-1.833,0.729
		S267.772,91.521,267.72,92.336z"/>
</g>
<g opacity="0.8">
	<path d="M179.01,33.513c9.327,5.346,13.884,13.708,15.699,23.77c1.228,6.808-0.333,9.662-6.635,12.662
		c-8.287,3.944-17.099,3.854-25.949,2.951c-4.975-0.507-9.65-1.981-13.816-4.896c-2.539-1.775-3.972-4.268-3.708-7.207
		c0.944-10.452,4.835-19.455,13.669-25.767c0.569-0.41,1.196-0.748,1.815-1.086c0.298-0.165,0.635-0.26,0.925-0.372
		C169.817,42.07,169.817,42.07,179.01,33.513z"/>
	<path d="M182.205,22.167c0.213,7.578-6.291,12.271-11.753,12.413c-7.423,0.188-12.768-5.025-13.022-12.899
		c-0.193-5.969,5.655-11.834,12.055-12.014C175.914,9.484,182.349,14.438,182.205,22.167z"/>
</g>
</svg>
