<?xml version="1.0" encoding="utf-8"?>
<!-- Generator: Adobe Illustrator 16.0.0, SVG Export Plug-In . SVG Version: 6.00 Build 0)  -->
<!DOCTYPE svg PUBLIC "-//W3C//DTD SVG 1.1//EN" "http://www.w3.org/Graphics/SVG/1.1/DTD/svg11.dtd">
<svg version="1.1" id="Capa_1" xmlns="http://www.w3.org/2000/svg" xmlns:xlink="http://www.w3.org/1999/xlink" x="0px" y="0px"
	 width="247.982px" height="63.509px" viewBox="0 0 247.982 63.509" enable-background="new 0 0 247.982 63.509"
	 xml:space="preserve">
<g>
	<defs>
		<path id="SVGID_1_" d="M247.982,63.509V12.695C247.982,5.684,242.299,0,235.287,0H12.696C5.684,0,0,5.684,0,12.695v50.814H247.982
			z"/>
	</defs>
	<clipPath id="SVGID_2_">
		<use xlink:href="#SVGID_1_"  overflow="visible"/>
	</clipPath>
	<linearGradient id="SVGID_3_" gradientUnits="userSpaceOnUse" x1="123.7734" y1="5.478" x2="123.7734" y2="65.5098">
		<stop  offset="0" style="stop-color:#EC6421"/>
		<stop  offset="0.4099" style="stop-color:#EA6122"/>
		<stop  offset="0.6575" style="stop-color:#E45926"/>
		<stop  offset="0.8613" style="stop-color:#D94B2E"/>
		<stop  offset="1" style="stop-color:#CE3C35"/>
	</linearGradient>
	<path clip-path="url(#SVGID_2_)" fill="url(#SVGID_3_)" stroke="#280707" stroke-width="3" stroke-miterlimit="10" d="
		M240.974,65.509V17.478c0-6.627-5.372-12-12-12H18.572c-6.627,0-12,5.373-12,12v48.031H240.974z"/>
</g>
<g>
	<path fill="#FFFFFF" d="M26.395,30.109V15.793h9.658v1.689h-7.764v4.434h6.719v1.689h-6.719v6.504H26.395z"/>
	<path fill="#FFFFFF" d="M38.299,17.814v-2.021h1.758v2.021H38.299z M38.299,30.109V19.738h1.758v10.371H38.299z"/>
	<path fill="#FFFFFF" d="M42.693,30.109V15.793h1.758v14.316H42.693z"/>
	<path fill="#FFFFFF" d="M47.137,30.109V15.793h1.758v14.316H47.137z"/>
	<path fill="#FFFFFF" d="M51.629,17.814v-2.021h1.758v2.021H51.629z M51.629,30.109V19.738h1.758v10.371H51.629z"/>
	<path fill="#FFFFFF" d="M56.063,30.109V19.738h1.582v1.475c0.762-1.139,1.862-1.709,3.301-1.709c0.625,0,1.199,0.112,1.724,0.337
		s0.916,0.519,1.177,0.884s0.442,0.797,0.547,1.299c0.065,0.326,0.098,0.895,0.098,1.709v6.377h-1.758v-6.309
		c0-0.716-0.068-1.251-0.205-1.606s-0.379-0.638-0.728-0.85s-0.757-0.317-1.226-0.317c-0.749,0-1.395,0.238-1.938,0.713
		s-0.815,1.377-0.815,2.705v5.664H56.063z"/>
	<path fill="#FFFFFF" d="M66.863,30.969l1.709,0.254c0.071,0.527,0.271,0.912,0.596,1.152c0.437,0.326,1.032,0.488,1.787,0.488
		c0.813,0,1.442-0.163,1.885-0.488s0.742-0.781,0.898-1.367c0.091-0.358,0.134-1.11,0.127-2.256
		c-0.769,0.905-1.726,1.357-2.871,1.357c-1.426,0-2.529-0.514-3.311-1.543s-1.172-2.262-1.172-3.701c0-0.99,0.179-1.903,0.537-2.739
		s0.877-1.483,1.558-1.938s1.479-0.684,2.397-0.684c1.224,0,2.233,0.495,3.027,1.484v-1.25h1.621v8.965
		c0,1.615-0.164,2.759-0.493,3.433s-0.85,1.206-1.563,1.597s-1.59,0.586-2.632,0.586c-1.237,0-2.236-0.278-2.998-0.835
		S66.837,32.088,66.863,30.969z M68.318,24.738c0,1.361,0.271,2.354,0.811,2.979s1.218,0.938,2.031,0.938
		c0.808,0,1.484-0.311,2.031-0.933s0.82-1.597,0.82-2.925c0-1.27-0.281-2.227-0.845-2.871s-1.242-0.967-2.036-0.967
		c-0.781,0-1.445,0.317-1.992,0.952S68.318,23.488,68.318,24.738z"/>
	<path fill="#FFFFFF" d="M83.211,24.924c0-1.92,0.534-3.343,1.602-4.268c0.892-0.768,1.979-1.152,3.262-1.152
		c1.426,0,2.591,0.467,3.496,1.401s1.357,2.225,1.357,3.872c0,1.334-0.2,2.384-0.601,3.149s-0.983,1.359-1.748,1.782
		s-1.6,0.635-2.505,0.635c-1.452,0-2.625-0.465-3.521-1.396S83.211,26.675,83.211,24.924z M85.018,24.924
		c0,1.328,0.29,2.323,0.869,2.983s1.309,0.991,2.188,0.991c0.872,0,1.599-0.332,2.178-0.996s0.869-1.676,0.869-3.037
		c0-1.283-0.291-2.254-0.874-2.915s-1.307-0.991-2.173-0.991c-0.879,0-1.608,0.329-2.188,0.986S85.018,23.596,85.018,24.924z"/>
	<path fill="#FFFFFF" d="M101.785,30.109v-1.523c-0.808,1.172-1.904,1.758-3.291,1.758c-0.612,0-1.184-0.117-1.714-0.352
		s-0.925-0.529-1.182-0.884s-0.438-0.79-0.542-1.304c-0.071-0.345-0.107-0.892-0.107-1.641v-6.426h1.758v5.752
		c0,0.918,0.036,1.537,0.107,1.855c0.11,0.462,0.345,0.825,0.703,1.089s0.801,0.396,1.328,0.396s1.022-0.135,1.484-0.405
		s0.789-0.638,0.981-1.104s0.288-1.141,0.288-2.026v-5.557h1.758v10.371H101.785z"/>
	<path fill="#FFFFFF" d="M109.949,28.537l0.254,1.553c-0.495,0.104-0.938,0.156-1.328,0.156c-0.638,0-1.133-0.101-1.484-0.303
		s-0.599-0.467-0.742-0.796s-0.215-1.021-0.215-2.075v-5.967h-1.289v-1.367h1.289V17.17l1.748-1.055v3.623h1.768v1.367h-1.768v6.064
		c0,0.501,0.031,0.824,0.093,0.967s0.163,0.257,0.303,0.342s0.34,0.127,0.601,0.127C109.373,28.605,109.63,28.583,109.949,28.537z"
		/>
	<path fill="#FFFFFF" d="M123.992,28.83c-0.651,0.553-1.277,0.944-1.88,1.172s-1.248,0.342-1.938,0.342
		c-1.14,0-2.015-0.278-2.627-0.835s-0.918-1.268-0.918-2.134c0-0.508,0.115-0.972,0.347-1.392s0.534-0.757,0.908-1.011
		s0.796-0.446,1.265-0.576c0.345-0.091,0.866-0.179,1.563-0.264c1.419-0.169,2.464-0.371,3.135-0.605
		c0.007-0.241,0.01-0.394,0.01-0.459c0-0.716-0.166-1.221-0.498-1.514c-0.449-0.397-1.116-0.596-2.002-0.596
		c-0.827,0-1.438,0.145-1.831,0.435s-0.686,0.802-0.874,1.538l-1.719-0.234c0.156-0.736,0.413-1.33,0.771-1.782
		s0.876-0.801,1.553-1.045s1.462-0.366,2.354-0.366c0.886,0,1.604,0.104,2.158,0.313s0.96,0.47,1.221,0.786s0.442,0.714,0.547,1.196
		c0.059,0.299,0.088,0.84,0.088,1.621v2.344c0,1.634,0.037,2.667,0.112,3.101s0.223,0.848,0.444,1.245h-1.836
		C124.161,29.745,124.044,29.318,123.992,28.83z M123.846,24.904c-0.638,0.26-1.595,0.482-2.871,0.664
		c-0.723,0.104-1.233,0.221-1.533,0.352s-0.53,0.321-0.693,0.571s-0.244,0.529-0.244,0.835c0,0.469,0.178,0.859,0.532,1.172
		s0.874,0.469,1.558,0.469c0.677,0,1.279-0.148,1.807-0.444s0.915-0.702,1.162-1.216c0.188-0.397,0.283-0.983,0.283-1.758V24.904z"
		/>
	<path fill="#FFFFFF" d="M128.348,30.109V19.738h1.582v1.475c0.762-1.139,1.862-1.709,3.301-1.709c0.625,0,1.199,0.112,1.724,0.337
		s0.916,0.519,1.177,0.884s0.442,0.797,0.547,1.299c0.065,0.326,0.098,0.895,0.098,1.709v6.377h-1.758v-6.309
		c0-0.716-0.068-1.251-0.205-1.606s-0.379-0.638-0.728-0.85s-0.757-0.317-1.226-0.317c-0.749,0-1.395,0.238-1.938,0.713
		s-0.815,1.377-0.815,2.705v5.664H128.348z"/>
	<path fill="#FFFFFF" d="M145.037,17.814v-2.021h1.758v2.021H145.037z M145.037,30.109V19.738h1.758v10.371H145.037z"/>
	<path fill="#FFFFFF" d="M149.471,30.109V19.738h1.582v1.475c0.762-1.139,1.862-1.709,3.301-1.709c0.625,0,1.199,0.112,1.724,0.337
		s0.916,0.519,1.177,0.884s0.442,0.797,0.547,1.299c0.065,0.326,0.098,0.895,0.098,1.709v6.377h-1.758v-6.309
		c0-0.716-0.068-1.251-0.205-1.606s-0.379-0.638-0.728-0.85s-0.757-0.317-1.226-0.317c-0.749,0-1.395,0.238-1.938,0.713
		s-0.815,1.377-0.815,2.705v5.664H149.471z"/>
	<path fill="#FFFFFF" d="M164.432,28.537l0.254,1.553c-0.495,0.104-0.938,0.156-1.328,0.156c-0.638,0-1.133-0.101-1.484-0.303
		s-0.599-0.467-0.742-0.796s-0.215-1.021-0.215-2.075v-5.967h-1.289v-1.367h1.289V17.17l1.748-1.055v3.623h1.768v1.367h-1.768v6.064
		c0,0.501,0.031,0.824,0.093,0.967s0.163,0.257,0.303,0.342s0.34,0.127,0.601,0.127C163.855,28.605,164.112,28.583,164.432,28.537z"
		/>
	<path fill="#FFFFFF" d="M173.25,26.77l1.816,0.225c-0.286,1.061-0.817,1.885-1.592,2.471s-1.765,0.879-2.969,0.879
		c-1.517,0-2.72-0.467-3.608-1.401s-1.333-2.245-1.333-3.931c0-1.745,0.449-3.099,1.348-4.063s2.063-1.445,3.496-1.445
		c1.387,0,2.52,0.472,3.398,1.416s1.318,2.272,1.318,3.984c0,0.104-0.003,0.26-0.01,0.469h-7.734
		c0.065,1.139,0.388,2.012,0.967,2.617s1.302,0.908,2.168,0.908c0.645,0,1.194-0.169,1.65-0.508S172.983,27.512,173.25,26.77z
		 M167.479,23.928h5.791c-0.078-0.873-0.3-1.527-0.664-1.963c-0.56-0.677-1.286-1.016-2.178-1.016c-0.808,0-1.486,0.27-2.036,0.811
		S167.537,23.023,167.479,23.928z"/>
	<path fill="#FFFFFF" d="M177.254,30.109V19.738h1.582v1.572c0.403-0.736,0.776-1.221,1.118-1.455s0.718-0.352,1.128-0.352
		c0.593,0,1.194,0.189,1.807,0.566l-0.605,1.631c-0.43-0.254-0.859-0.381-1.289-0.381c-0.384,0-0.729,0.116-1.035,0.347
		s-0.524,0.552-0.654,0.962c-0.195,0.625-0.293,1.309-0.293,2.051v5.43H177.254z"/>
	<path fill="#FFFFFF" d="M183.934,30.109V19.738h1.582v1.475c0.762-1.139,1.862-1.709,3.301-1.709c0.625,0,1.199,0.112,1.724,0.337
		s0.916,0.519,1.177,0.884s0.442,0.797,0.547,1.299c0.065,0.326,0.098,0.895,0.098,1.709v6.377h-1.758v-6.309
		c0-0.716-0.068-1.251-0.205-1.606s-0.379-0.638-0.728-0.85s-0.757-0.317-1.226-0.317c-0.749,0-1.395,0.238-1.938,0.713
		s-0.815,1.377-0.815,2.705v5.664H183.934z"/>
	<path fill="#FFFFFF" d="M194.354,27.014l1.738-0.273c0.098,0.697,0.369,1.23,0.815,1.602s1.069,0.557,1.87,0.557
		c0.808,0,1.406-0.165,1.797-0.493s0.586-0.714,0.586-1.157c0-0.397-0.173-0.709-0.518-0.938c-0.241-0.156-0.84-0.355-1.797-0.596
		c-1.289-0.326-2.183-0.607-2.681-0.845s-0.876-0.566-1.133-0.986s-0.386-0.884-0.386-1.392c0-0.462,0.105-0.89,0.317-1.284
		s0.5-0.721,0.864-0.981c0.273-0.202,0.646-0.373,1.118-0.513s0.979-0.21,1.519-0.21c0.813,0,1.528,0.117,2.144,0.352
		s1.069,0.552,1.362,0.952s0.495,0.936,0.605,1.606l-1.719,0.234c-0.078-0.534-0.305-0.951-0.679-1.25s-0.903-0.449-1.587-0.449
		c-0.808,0-1.384,0.133-1.729,0.4s-0.518,0.58-0.518,0.938c0,0.228,0.071,0.433,0.215,0.615c0.144,0.189,0.368,0.345,0.674,0.469
		c0.176,0.065,0.693,0.215,1.553,0.449c1.243,0.332,2.111,0.604,2.603,0.815s0.877,0.519,1.157,0.923s0.42,0.905,0.42,1.504
		c0,0.586-0.171,1.138-0.513,1.655s-0.835,0.918-1.479,1.201s-1.374,0.425-2.188,0.425c-1.348,0-2.375-0.28-3.081-0.84
		S194.549,28.114,194.354,27.014z"/>
	<path fill="#FFFFFF" d="M205.057,30.109V15.793h1.758v5.137c0.82-0.951,1.855-1.426,3.105-1.426c0.769,0,1.436,0.151,2.002,0.454
		s0.972,0.721,1.216,1.255s0.366,1.309,0.366,2.324v6.572h-1.758v-6.572c0-0.879-0.19-1.519-0.571-1.919s-0.92-0.601-1.616-0.601
		c-0.521,0-1.011,0.135-1.47,0.405s-0.786,0.636-0.981,1.099s-0.293,1.1-0.293,1.914v5.674H205.057z"/>
	<path fill="#FFFFFF" d="M216.189,17.814v-2.021h1.758v2.021H216.189z M216.189,30.109V19.738h1.758v10.371H216.189z"/>
	<path fill="#FFFFFF" d="M220.623,34.084V19.738h1.602v1.348c0.378-0.527,0.804-0.923,1.279-1.187s1.052-0.396,1.729-0.396
		c0.886,0,1.667,0.228,2.344,0.684s1.188,1.099,1.533,1.929s0.518,1.74,0.518,2.729c0,1.061-0.19,2.017-0.571,2.866
		s-0.935,1.5-1.66,1.953s-1.489,0.679-2.29,0.679c-0.586,0-1.111-0.124-1.577-0.371s-0.848-0.56-1.147-0.938v5.049H220.623z
		 M222.215,24.982c0,1.334,0.271,2.321,0.811,2.959s1.194,0.957,1.963,0.957c0.781,0,1.45-0.331,2.007-0.991
		s0.835-1.685,0.835-3.071c0-1.322-0.271-2.311-0.815-2.969s-1.193-0.986-1.948-0.986c-0.749,0-1.411,0.35-1.987,1.05
		S222.215,23.648,222.215,24.982z"/>
	<path fill="#FFFFFF" d="M67.864,49.83c-0.651,0.553-1.277,0.944-1.88,1.172s-1.248,0.342-1.938,0.342
		c-1.14,0-2.015-0.279-2.627-0.835c-0.612-0.557-0.918-1.268-0.918-2.134c0-0.508,0.115-0.972,0.347-1.392s0.534-0.757,0.908-1.011
		s0.796-0.446,1.265-0.576c0.345-0.091,0.866-0.179,1.563-0.264c1.419-0.169,2.464-0.371,3.135-0.605
		c0.007-0.241,0.01-0.394,0.01-0.459c0-0.716-0.166-1.221-0.498-1.514c-0.449-0.397-1.116-0.596-2.002-0.596
		c-0.827,0-1.438,0.145-1.831,0.435s-0.686,0.802-0.874,1.538l-1.719-0.234c0.156-0.736,0.413-1.33,0.771-1.782
		s0.876-0.801,1.553-1.045s1.462-0.366,2.354-0.366c0.886,0,1.604,0.104,2.158,0.313s0.96,0.47,1.221,0.786s0.442,0.714,0.547,1.196
		c0.059,0.299,0.088,0.84,0.088,1.621v2.344c0,1.634,0.037,2.667,0.112,3.101s0.223,0.848,0.444,1.246h-1.836
		C68.033,50.745,67.916,50.318,67.864,49.83z M67.718,45.904c-0.638,0.26-1.595,0.482-2.871,0.664
		c-0.723,0.104-1.233,0.221-1.533,0.352s-0.53,0.321-0.693,0.571s-0.244,0.529-0.244,0.835c0,0.469,0.178,0.859,0.532,1.172
		s0.874,0.469,1.558,0.469c0.677,0,1.279-0.148,1.807-0.444s0.915-0.702,1.162-1.216c0.188-0.397,0.283-0.983,0.283-1.758V45.904z"
		/>
	<path fill="#FFFFFF" d="M72.22,55.084V40.738h1.602v1.348c0.378-0.527,0.804-0.923,1.279-1.187s1.052-0.396,1.729-0.396
		c0.886,0,1.667,0.228,2.344,0.684s1.188,1.099,1.533,1.929s0.518,1.74,0.518,2.729c0,1.061-0.19,2.017-0.571,2.866
		s-0.935,1.5-1.66,1.953s-1.489,0.679-2.29,0.679c-0.586,0-1.111-0.124-1.577-0.372s-0.848-0.56-1.147-0.938v5.049H72.22z
		 M73.812,45.982c0,1.334,0.271,2.321,0.811,2.959s1.194,0.957,1.963,0.957c0.781,0,1.45-0.331,2.007-0.991s0.835-1.685,0.835-3.071
		c0-1.322-0.271-2.311-0.815-2.969s-1.193-0.986-1.948-0.986c-0.749,0-1.411,0.35-1.987,1.05S73.812,44.648,73.812,45.982z"/>
	<path fill="#FFFFFF" d="M83.343,55.084V40.738h1.602v1.348c0.378-0.527,0.804-0.923,1.279-1.187s1.052-0.396,1.729-0.396
		c0.886,0,1.667,0.228,2.344,0.684s1.188,1.099,1.533,1.929s0.518,1.74,0.518,2.729c0,1.061-0.19,2.017-0.571,2.866
		s-0.935,1.5-1.66,1.953s-1.489,0.679-2.29,0.679c-0.586,0-1.111-0.124-1.577-0.372s-0.848-0.56-1.147-0.938v5.049H83.343z
		 M84.935,45.982c0,1.334,0.271,2.321,0.811,2.959s1.194,0.957,1.963,0.957c0.781,0,1.45-0.331,2.007-0.991s0.835-1.685,0.835-3.071
		c0-1.322-0.271-2.311-0.815-2.969s-1.193-0.986-1.948-0.986c-0.749,0-1.411,0.35-1.987,1.05S84.935,44.648,84.935,45.982z"/>
	<path fill="#FFFFFF" d="M94.427,51.11V36.793h1.758V51.11H94.427z"/>
	<path fill="#FFFFFF" d="M98.919,38.814v-2.021h1.758v2.021H98.919z M98.919,51.11V40.738h1.758V51.11H98.919z"/>
	<path fill="#FFFFFF" d="M110.12,47.311l1.729,0.225c-0.188,1.191-0.672,2.124-1.45,2.798s-1.733,1.011-2.866,1.011
		c-1.419,0-2.561-0.464-3.423-1.392s-1.294-2.257-1.294-3.989c0-1.12,0.186-2.1,0.557-2.939s0.936-1.47,1.694-1.89
		s1.584-0.63,2.476-0.63c1.126,0,2.048,0.285,2.764,0.854s1.175,1.378,1.377,2.427l-1.709,0.264
		c-0.163-0.697-0.451-1.221-0.864-1.572s-0.913-0.527-1.499-0.527c-0.886,0-1.604,0.317-2.158,0.952s-0.83,1.639-0.83,3.013
		c0,1.393,0.267,2.406,0.801,3.037s1.23,0.947,2.09,0.947c0.69,0,1.267-0.211,1.729-0.635S109.996,48.189,110.12,47.311z"/>
	<path fill="#FFFFFF" d="M120.12,49.83c-0.651,0.553-1.277,0.944-1.88,1.172s-1.248,0.342-1.938,0.342
		c-1.14,0-2.015-0.279-2.627-0.835c-0.612-0.557-0.918-1.268-0.918-2.134c0-0.508,0.115-0.972,0.347-1.392s0.534-0.757,0.908-1.011
		s0.796-0.446,1.265-0.576c0.345-0.091,0.866-0.179,1.563-0.264c1.419-0.169,2.464-0.371,3.135-0.605
		c0.007-0.241,0.01-0.394,0.01-0.459c0-0.716-0.166-1.221-0.498-1.514c-0.449-0.397-1.116-0.596-2.002-0.596
		c-0.827,0-1.438,0.145-1.831,0.435s-0.686,0.802-0.874,1.538l-1.719-0.234c0.156-0.736,0.413-1.33,0.771-1.782
		s0.876-0.801,1.553-1.045s1.462-0.366,2.354-0.366c0.886,0,1.604,0.104,2.158,0.313s0.96,0.47,1.221,0.786s0.442,0.714,0.547,1.196
		c0.059,0.299,0.088,0.84,0.088,1.621v2.344c0,1.634,0.037,2.667,0.112,3.101s0.223,0.848,0.444,1.246h-1.836
		C120.289,50.745,120.172,50.318,120.12,49.83z M119.974,45.904c-0.638,0.26-1.595,0.482-2.871,0.664
		c-0.723,0.104-1.233,0.221-1.533,0.352s-0.53,0.321-0.693,0.571s-0.244,0.529-0.244,0.835c0,0.469,0.178,0.859,0.532,1.172
		s0.874,0.469,1.558,0.469c0.677,0,1.279-0.148,1.807-0.444s0.915-0.702,1.162-1.216c0.188-0.397,0.283-0.983,0.283-1.758V45.904z"
		/>
	<path fill="#FFFFFF" d="M128.313,49.537l0.254,1.553c-0.495,0.104-0.938,0.156-1.328,0.156c-0.638,0-1.133-0.102-1.484-0.303
		s-0.599-0.467-0.742-0.796s-0.215-1.021-0.215-2.075v-5.967h-1.289v-1.367h1.289V38.17l1.748-1.055v3.623h1.768v1.367h-1.768v6.064
		c0,0.501,0.031,0.824,0.093,0.967s0.163,0.257,0.303,0.342s0.34,0.127,0.601,0.127C127.737,49.605,127.994,49.583,128.313,49.537z"
		/>
	<path fill="#FFFFFF" d="M130.042,38.814v-2.021h1.758v2.021H130.042z M130.042,51.11V40.738h1.758V51.11H130.042z"/>
	<path fill="#FFFFFF" d="M133.821,45.924c0-1.92,0.534-3.343,1.602-4.268c0.892-0.768,1.979-1.152,3.262-1.152
		c1.426,0,2.591,0.467,3.496,1.401s1.357,2.225,1.357,3.872c0,1.334-0.2,2.384-0.601,3.149s-0.983,1.359-1.748,1.782
		s-1.6,0.635-2.505,0.635c-1.452,0-2.625-0.466-3.521-1.397S133.821,47.675,133.821,45.924z M135.628,45.924
		c0,1.328,0.29,2.323,0.869,2.983s1.309,0.991,2.188,0.991c0.872,0,1.599-0.332,2.178-0.996s0.869-1.676,0.869-3.037
		c0-1.283-0.291-2.254-0.874-2.915s-1.307-0.991-2.173-0.991c-0.879,0-1.608,0.329-2.188,0.986S135.628,44.596,135.628,45.924z"/>
	<path fill="#FFFFFF" d="M145.599,51.11V40.738h1.582v1.475c0.762-1.139,1.862-1.709,3.301-1.709c0.625,0,1.199,0.112,1.724,0.337
		s0.916,0.519,1.177,0.884s0.442,0.797,0.547,1.299c0.065,0.326,0.098,0.895,0.098,1.709v6.377h-1.758v-6.309
		c0-0.716-0.068-1.251-0.205-1.606s-0.379-0.638-0.728-0.85s-0.757-0.317-1.226-0.317c-0.749,0-1.395,0.238-1.938,0.713
		s-0.815,1.377-0.815,2.705v5.665H145.599z"/>
	<path fill="#FFFFFF" d="M162.698,51.11v-9.004h-1.553v-1.367h1.553v-1.104c0-0.697,0.062-1.214,0.186-1.553
		c0.169-0.456,0.467-0.825,0.894-1.108s1.023-0.425,1.792-0.425c0.495,0,1.042,0.059,1.641,0.176l-0.264,1.533
		c-0.364-0.065-0.71-0.098-1.035-0.098c-0.534,0-0.911,0.114-1.133,0.342s-0.332,0.654-0.332,1.279v0.957h2.021v1.367h-2.021v9.004
		H162.698z"/>
	<path fill="#FFFFFF" d="M167.181,45.924c0-1.92,0.534-3.343,1.602-4.268c0.892-0.768,1.979-1.152,3.262-1.152
		c1.426,0,2.591,0.467,3.496,1.401s1.357,2.225,1.357,3.872c0,1.334-0.2,2.384-0.601,3.149s-0.983,1.359-1.748,1.782
		s-1.6,0.635-2.505,0.635c-1.452,0-2.625-0.466-3.521-1.397S167.181,47.675,167.181,45.924z M168.987,45.924
		c0,1.328,0.29,2.323,0.869,2.983s1.309,0.991,2.188,0.991c0.872,0,1.599-0.332,2.178-0.996s0.869-1.676,0.869-3.037
		c0-1.283-0.291-2.254-0.874-2.915s-1.307-0.991-2.173-0.991c-0.879,0-1.608,0.329-2.188,0.986S168.987,44.596,168.987,45.924z"/>
	<path fill="#FFFFFF" d="M178.938,51.11V40.738h1.582v1.572c0.403-0.736,0.776-1.221,1.118-1.455s0.718-0.352,1.128-0.352
		c0.593,0,1.194,0.189,1.807,0.566l-0.605,1.631c-0.43-0.254-0.859-0.381-1.289-0.381c-0.384,0-0.729,0.116-1.035,0.347
		s-0.524,0.552-0.654,0.962c-0.195,0.625-0.293,1.309-0.293,2.051v5.43H178.938z"/>
	<path fill="#FFFFFF" d="M185.618,51.11V40.738h1.572v1.455c0.325-0.508,0.759-0.917,1.299-1.226s1.155-0.464,1.846-0.464
		c0.769,0,1.398,0.16,1.89,0.479s0.838,0.765,1.04,1.338c0.82-1.211,1.888-1.816,3.203-1.816c1.028,0,1.819,0.285,2.373,0.854
		s0.83,1.447,0.83,2.632v7.12h-1.748v-6.534c0-0.703-0.057-1.209-0.171-1.519s-0.32-0.558-0.62-0.747s-0.651-0.283-1.055-0.283
		c-0.729,0-1.335,0.243-1.816,0.728s-0.723,1.261-0.723,2.329v6.026h-1.758v-6.739c0-0.781-0.144-1.367-0.43-1.758
		s-0.755-0.586-1.406-0.586c-0.495,0-0.952,0.13-1.372,0.391s-0.725,0.641-0.913,1.143s-0.283,1.224-0.283,2.168v5.381H185.618z"/>
</g>
</svg>
