<?xml version="1.0" encoding="utf-8"?>
<!-- Generator: Adobe Illustrator 16.0.0, SVG Export Plug-In . SVG Version: 6.00 Build 0)  -->
<!DOCTYPE svg PUBLIC "-//W3C//DTD SVG 1.1//EN" "http://www.w3.org/Graphics/SVG/1.1/DTD/svg11.dtd">
<svg version="1.1" id="Capa_1" xmlns="http://www.w3.org/2000/svg" xmlns:xlink="http://www.w3.org/1999/xlink" x="0px" y="0px"
	 width="247.982px" height="63.509px" viewBox="0 0 247.982 63.509" enable-background="new 0 0 247.982 63.509"
	 xml:space="preserve">
<g>
	<defs>
		<path id="SVGID_1_" d="M247.982,63.509V12.695C247.982,5.684,242.299,0,235.287,0H12.696C5.684,0,0,5.684,0,12.695v50.813H247.982
			z"/>
	</defs>
	<clipPath id="SVGID_2_">
		<use xlink:href="#SVGID_1_"  overflow="visible"/>
	</clipPath>
	<linearGradient id="SVGID_3_" gradientUnits="userSpaceOnUse" x1="123.7734" y1="5.478" x2="123.7734" y2="65.5093">
		<stop  offset="0" style="stop-color:#EC6421"/>
		<stop  offset="0.4099" style="stop-color:#EA6122"/>
		<stop  offset="0.6575" style="stop-color:#E45926"/>
		<stop  offset="0.8613" style="stop-color:#D94B2E"/>
		<stop  offset="1" style="stop-color:#CE3C35"/>
	</linearGradient>
	<path clip-path="url(#SVGID_2_)" fill="url(#SVGID_3_)" stroke="#280707" stroke-width="3" stroke-miterlimit="10" d="
		M240.974,65.509V17.478c0-6.627-5.372-12-12-12H18.572c-6.627,0-12,5.373-12,12v48.031H240.974z"/>
</g>
<g>
	<path fill="#FFFFFF" d="M36.95,30.109V15.793h6.348c1.276,0,2.246,0.128,2.91,0.386s1.194,0.711,1.592,1.362
		s0.596,1.371,0.596,2.158c0,1.016-0.329,1.872-0.986,2.568s-1.673,1.139-3.047,1.328c0.501,0.241,0.882,0.479,1.143,0.713
		c0.554,0.508,1.077,1.143,1.572,1.904l2.49,3.896h-2.383l-1.895-2.979c-0.554-0.859-1.009-1.517-1.367-1.973
		s-0.679-0.775-0.962-0.957s-0.571-0.309-0.864-0.381c-0.215-0.045-0.566-0.068-1.055-0.068h-2.197v6.357H36.95z M38.845,22.111
		h4.072c0.866,0,1.543-0.089,2.031-0.269s0.859-0.465,1.113-0.859s0.381-0.822,0.381-1.284c0-0.677-0.246-1.234-0.737-1.67
		s-1.268-0.654-2.329-0.654h-4.531V22.111z"/>
	<path fill="#FFFFFF" d="M58.239,26.77l1.816,0.225c-0.286,1.061-0.817,1.885-1.592,2.471s-1.765,0.879-2.969,0.879
		c-1.517,0-2.72-0.467-3.608-1.401s-1.333-2.245-1.333-3.931c0-1.745,0.449-3.099,1.348-4.063s2.063-1.445,3.496-1.445
		c1.387,0,2.52,0.472,3.398,1.416s1.318,2.272,1.318,3.984c0,0.104-0.003,0.26-0.01,0.469H52.37
		c0.065,1.139,0.388,2.012,0.967,2.617s1.302,0.908,2.168,0.908c0.645,0,1.194-0.169,1.65-0.508S57.973,27.512,58.239,26.77z
		 M52.468,23.928h5.791c-0.078-0.873-0.3-1.527-0.664-1.963c-0.56-0.677-1.286-1.016-2.178-1.016c-0.808,0-1.486,0.27-2.036,0.811
		S52.526,23.023,52.468,23.928z"/>
	<path fill="#FFFFFF" d="M69.03,28.83c-0.651,0.553-1.277,0.944-1.88,1.172s-1.248,0.342-1.938,0.342
		c-1.14,0-2.015-0.278-2.627-0.835s-0.918-1.268-0.918-2.134c0-0.508,0.115-0.972,0.347-1.392s0.534-0.757,0.908-1.011
		s0.796-0.446,1.265-0.576c0.345-0.091,0.866-0.179,1.563-0.264c1.419-0.169,2.464-0.371,3.135-0.605
		c0.007-0.241,0.01-0.394,0.01-0.459c0-0.716-0.166-1.221-0.498-1.514c-0.449-0.397-1.116-0.596-2.002-0.596
		c-0.827,0-1.438,0.145-1.831,0.435s-0.686,0.802-0.874,1.538l-1.719-0.234c0.156-0.736,0.413-1.33,0.771-1.782
		s0.876-0.801,1.553-1.045s1.462-0.366,2.354-0.366c0.886,0,1.604,0.104,2.158,0.313s0.96,0.47,1.221,0.786s0.442,0.714,0.547,1.196
		c0.059,0.299,0.088,0.84,0.088,1.621v2.344c0,1.634,0.037,2.667,0.112,3.101s0.223,0.848,0.444,1.245h-1.836
		C69.199,29.745,69.082,29.318,69.03,28.83z M68.884,24.904c-0.638,0.26-1.595,0.482-2.871,0.664
		c-0.723,0.104-1.233,0.221-1.533,0.352s-0.53,0.321-0.693,0.571s-0.244,0.529-0.244,0.835c0,0.469,0.178,0.859,0.532,1.172
		s0.874,0.469,1.558,0.469c0.677,0,1.279-0.148,1.807-0.444s0.915-0.702,1.162-1.216c0.188-0.397,0.283-0.983,0.283-1.758V24.904z"
		/>
	<path fill="#FFFFFF" d="M80.114,30.109v-1.309c-0.657,1.029-1.624,1.543-2.9,1.543c-0.827,0-1.587-0.228-2.28-0.684
		s-1.23-1.092-1.611-1.909s-0.571-1.756-0.571-2.817c0-1.035,0.173-1.974,0.518-2.817s0.862-1.489,1.553-1.938
		s1.462-0.674,2.314-0.674c0.625,0,1.182,0.132,1.67,0.396s0.886,0.607,1.191,1.03v-5.137h1.748v14.316H80.114z M74.558,24.934
		c0,1.328,0.28,2.321,0.84,2.979s1.221,0.986,1.982,0.986c0.769,0,1.421-0.314,1.958-0.942s0.806-1.587,0.806-2.876
		c0-1.419-0.273-2.461-0.82-3.125s-1.221-0.996-2.021-0.996c-0.781,0-1.434,0.319-1.958,0.957S74.558,23.56,74.558,24.934z"/>
	<path fill="#FFFFFF" d="M84.519,17.814v-2.021h1.758v2.021H84.519z M84.519,30.109V19.738h1.758v10.371H84.519z"/>
	<path fill="#FFFFFF" d="M88.952,30.109V19.738h1.582v1.475c0.762-1.139,1.862-1.709,3.301-1.709c0.625,0,1.199,0.112,1.724,0.337
		s0.916,0.519,1.177,0.884s0.442,0.797,0.547,1.299c0.065,0.326,0.098,0.895,0.098,1.709v6.377h-1.758v-6.309
		c0-0.716-0.068-1.251-0.205-1.606s-0.379-0.638-0.728-0.85s-0.757-0.317-1.226-0.317c-0.749,0-1.395,0.238-1.938,0.713
		s-0.815,1.377-0.815,2.705v5.664H88.952z"/>
	<path fill="#FFFFFF" d="M99.753,30.969l1.709,0.254c0.071,0.527,0.271,0.912,0.596,1.152c0.437,0.326,1.032,0.488,1.787,0.488
		c0.813,0,1.442-0.163,1.885-0.488s0.742-0.781,0.898-1.367c0.091-0.358,0.134-1.11,0.127-2.256
		c-0.769,0.905-1.726,1.357-2.871,1.357c-1.426,0-2.529-0.514-3.311-1.543s-1.172-2.262-1.172-3.701c0-0.99,0.179-1.903,0.537-2.739
		s0.877-1.483,1.558-1.938s1.479-0.684,2.397-0.684c1.224,0,2.233,0.495,3.027,1.484v-1.25h1.621v8.965
		c0,1.615-0.164,2.759-0.493,3.433s-0.85,1.206-1.563,1.597s-1.59,0.586-2.632,0.586c-1.237,0-2.236-0.278-2.998-0.835
		S99.727,32.088,99.753,30.969z M101.208,24.738c0,1.361,0.271,2.354,0.811,2.979s1.218,0.938,2.031,0.938
		c0.808,0,1.484-0.311,2.031-0.933s0.82-1.597,0.82-2.925c0-1.27-0.281-2.227-0.845-2.871s-1.242-0.967-2.036-0.967
		c-0.781,0-1.445,0.317-1.992,0.952S101.208,23.488,101.208,24.738z"/>
	<path fill="#FFFFFF" d="M116.052,27.014l1.738-0.273c0.098,0.697,0.369,1.23,0.815,1.602s1.069,0.557,1.87,0.557
		c0.808,0,1.406-0.165,1.797-0.493s0.586-0.714,0.586-1.157c0-0.397-0.173-0.709-0.518-0.938c-0.241-0.156-0.84-0.355-1.797-0.596
		c-1.289-0.326-2.183-0.607-2.681-0.845s-0.876-0.566-1.133-0.986s-0.386-0.884-0.386-1.392c0-0.462,0.105-0.89,0.317-1.284
		s0.5-0.721,0.864-0.981c0.273-0.202,0.646-0.373,1.118-0.513s0.979-0.21,1.519-0.21c0.813,0,1.528,0.117,2.144,0.352
		s1.069,0.552,1.362,0.952s0.495,0.936,0.605,1.606l-1.719,0.234c-0.078-0.534-0.305-0.951-0.679-1.25s-0.903-0.449-1.587-0.449
		c-0.808,0-1.384,0.133-1.729,0.4s-0.518,0.58-0.518,0.938c0,0.228,0.071,0.433,0.215,0.615c0.144,0.189,0.368,0.345,0.674,0.469
		c0.176,0.065,0.693,0.215,1.553,0.449c1.243,0.332,2.111,0.604,2.603,0.815s0.877,0.519,1.157,0.923s0.42,0.905,0.42,1.504
		c0,0.586-0.171,1.138-0.513,1.655s-0.835,0.918-1.479,1.201s-1.374,0.425-2.188,0.425c-1.348,0-2.375-0.28-3.081-0.84
		S116.247,28.114,116.052,27.014z"/>
	<path fill="#FFFFFF" d="M130.593,28.537l0.254,1.553c-0.495,0.104-0.938,0.156-1.328,0.156c-0.638,0-1.133-0.101-1.484-0.303
		s-0.599-0.467-0.742-0.796s-0.215-1.021-0.215-2.075v-5.967h-1.289v-1.367h1.289V17.17l1.748-1.055v3.623h1.768v1.367h-1.768v6.064
		c0,0.501,0.031,0.824,0.093,0.967s0.163,0.257,0.303,0.342s0.34,0.127,0.601,0.127C130.017,28.605,130.273,28.583,130.593,28.537z"
		/>
	<path fill="#FFFFFF" d="M132.292,30.109V19.738h1.582v1.572c0.403-0.736,0.776-1.221,1.118-1.455s0.718-0.352,1.128-0.352
		c0.593,0,1.194,0.189,1.807,0.566l-0.605,1.631c-0.43-0.254-0.859-0.381-1.289-0.381c-0.384,0-0.729,0.116-1.035,0.347
		s-0.524,0.552-0.654,0.962c-0.195,0.625-0.293,1.309-0.293,2.051v5.43H132.292z"/>
	<path fill="#FFFFFF" d="M145.739,28.83c-0.651,0.553-1.277,0.944-1.88,1.172s-1.248,0.342-1.938,0.342
		c-1.14,0-2.015-0.278-2.627-0.835s-0.918-1.268-0.918-2.134c0-0.508,0.115-0.972,0.347-1.392s0.534-0.757,0.908-1.011
		s0.796-0.446,1.265-0.576c0.345-0.091,0.866-0.179,1.563-0.264c1.419-0.169,2.464-0.371,3.135-0.605
		c0.007-0.241,0.01-0.394,0.01-0.459c0-0.716-0.166-1.221-0.498-1.514c-0.449-0.397-1.116-0.596-2.002-0.596
		c-0.827,0-1.438,0.145-1.831,0.435s-0.686,0.802-0.874,1.538l-1.719-0.234c0.156-0.736,0.413-1.33,0.771-1.782
		s0.876-0.801,1.553-1.045s1.462-0.366,2.354-0.366c0.886,0,1.604,0.104,2.158,0.313s0.96,0.47,1.221,0.786s0.442,0.714,0.547,1.196
		c0.059,0.299,0.088,0.84,0.088,1.621v2.344c0,1.634,0.037,2.667,0.112,3.101s0.223,0.848,0.444,1.245h-1.836
		C145.908,29.745,145.791,29.318,145.739,28.83z M145.593,24.904c-0.638,0.26-1.595,0.482-2.871,0.664
		c-0.723,0.104-1.233,0.221-1.533,0.352s-0.53,0.321-0.693,0.571s-0.244,0.529-0.244,0.835c0,0.469,0.178,0.859,0.532,1.172
		s0.874,0.469,1.558,0.469c0.677,0,1.279-0.148,1.807-0.444s0.915-0.702,1.162-1.216c0.188-0.397,0.283-0.983,0.283-1.758V24.904z"
		/>
	<path fill="#FFFFFF" d="M153.933,28.537l0.254,1.553c-0.495,0.104-0.938,0.156-1.328,0.156c-0.638,0-1.133-0.101-1.484-0.303
		s-0.599-0.467-0.742-0.796s-0.215-1.021-0.215-2.075v-5.967h-1.289v-1.367h1.289V17.17l1.748-1.055v3.623h1.768v1.367h-1.768v6.064
		c0,0.501,0.031,0.824,0.093,0.967s0.163,0.257,0.303,0.342s0.34,0.127,0.601,0.127C153.356,28.605,153.613,28.583,153.933,28.537z"
		/>
	<path fill="#FFFFFF" d="M162.751,26.77l1.816,0.225c-0.286,1.061-0.817,1.885-1.592,2.471s-1.765,0.879-2.969,0.879
		c-1.517,0-2.72-0.467-3.608-1.401s-1.333-2.245-1.333-3.931c0-1.745,0.449-3.099,1.348-4.063s2.063-1.445,3.496-1.445
		c1.387,0,2.52,0.472,3.398,1.416s1.318,2.272,1.318,3.984c0,0.104-0.003,0.26-0.01,0.469h-7.734
		c0.065,1.139,0.388,2.012,0.967,2.617s1.302,0.908,2.168,0.908c0.645,0,1.194-0.169,1.65-0.508S162.484,27.512,162.751,26.77z
		 M156.979,23.928h5.791c-0.078-0.873-0.3-1.527-0.664-1.963c-0.56-0.677-1.286-1.016-2.178-1.016c-0.808,0-1.486,0.27-2.036,0.811
		S157.038,23.023,156.979,23.928z"/>
	<path fill="#FFFFFF" d="M166.452,30.969l1.709,0.254c0.071,0.527,0.271,0.912,0.596,1.152c0.437,0.326,1.032,0.488,1.787,0.488
		c0.813,0,1.442-0.163,1.885-0.488s0.742-0.781,0.898-1.367c0.091-0.358,0.134-1.11,0.127-2.256
		c-0.769,0.905-1.726,1.357-2.871,1.357c-1.426,0-2.529-0.514-3.311-1.543s-1.172-2.262-1.172-3.701c0-0.99,0.179-1.903,0.537-2.739
		s0.877-1.483,1.558-1.938s1.479-0.684,2.397-0.684c1.224,0,2.233,0.495,3.027,1.484v-1.25h1.621v8.965
		c0,1.615-0.164,2.759-0.493,3.433s-0.85,1.206-1.563,1.597s-1.59,0.586-2.632,0.586c-1.237,0-2.236-0.278-2.998-0.835
		S166.426,32.088,166.452,30.969z M167.907,24.738c0,1.361,0.271,2.354,0.811,2.979s1.218,0.938,2.031,0.938
		c0.808,0,1.484-0.311,2.031-0.933s0.82-1.597,0.82-2.925c0-1.27-0.281-2.227-0.845-2.871s-1.242-0.967-2.036-0.967
		c-0.781,0-1.445,0.317-1.992,0.952S167.907,23.488,167.907,24.738z"/>
	<path fill="#FFFFFF" d="M177.907,17.814v-2.021h1.758v2.021H177.907z M177.907,30.109V19.738h1.758v10.371H177.907z"/>
	<path fill="#FFFFFF" d="M189.44,26.77l1.816,0.225c-0.286,1.061-0.817,1.885-1.592,2.471s-1.765,0.879-2.969,0.879
		c-1.517,0-2.72-0.467-3.608-1.401s-1.333-2.245-1.333-3.931c0-1.745,0.449-3.099,1.348-4.063s2.063-1.445,3.496-1.445
		c1.387,0,2.52,0.472,3.398,1.416s1.318,2.272,1.318,3.984c0,0.104-0.003,0.26-0.01,0.469h-7.734
		c0.065,1.139,0.388,2.012,0.967,2.617s1.302,0.908,2.168,0.908c0.645,0,1.194-0.169,1.65-0.508S189.174,27.512,189.44,26.77z
		 M183.669,23.928h5.791c-0.078-0.873-0.3-1.527-0.664-1.963c-0.56-0.677-1.286-1.016-2.178-1.016c-0.808,0-1.486,0.27-2.036,0.811
		S183.728,23.023,183.669,23.928z"/>
	<path fill="#FFFFFF" d="M192.761,27.014l1.738-0.273c0.098,0.697,0.369,1.23,0.815,1.602s1.069,0.557,1.87,0.557
		c0.808,0,1.406-0.165,1.797-0.493s0.586-0.714,0.586-1.157c0-0.397-0.173-0.709-0.518-0.938c-0.241-0.156-0.84-0.355-1.797-0.596
		c-1.289-0.326-2.183-0.607-2.681-0.845s-0.876-0.566-1.133-0.986s-0.386-0.884-0.386-1.392c0-0.462,0.105-0.89,0.317-1.284
		s0.5-0.721,0.864-0.981c0.273-0.202,0.646-0.373,1.118-0.513s0.979-0.21,1.519-0.21c0.813,0,1.528,0.117,2.144,0.352
		s1.069,0.552,1.362,0.952s0.495,0.936,0.605,1.606l-1.719,0.234c-0.078-0.534-0.305-0.951-0.679-1.25s-0.903-0.449-1.587-0.449
		c-0.808,0-1.384,0.133-1.729,0.4s-0.518,0.58-0.518,0.938c0,0.228,0.071,0.433,0.215,0.615c0.144,0.189,0.368,0.345,0.674,0.469
		c0.176,0.065,0.693,0.215,1.553,0.449c1.243,0.332,2.111,0.604,2.603,0.815s0.877,0.519,1.157,0.923s0.42,0.905,0.42,1.504
		c0,0.586-0.171,1.138-0.513,1.655s-0.835,0.918-1.479,1.201s-1.374,0.425-2.188,0.425c-1.348,0-2.375-0.28-3.081-0.84
		S192.956,28.114,192.761,27.014z"/>
	<path fill="#FFFFFF" d="M57.268,51.109V40.738h1.572v1.455c0.325-0.508,0.759-0.917,1.299-1.226s1.155-0.464,1.846-0.464
		c0.769,0,1.398,0.16,1.89,0.479s0.838,0.765,1.04,1.338c0.82-1.211,1.888-1.816,3.203-1.816c1.028,0,1.819,0.285,2.373,0.854
		s0.83,1.447,0.83,2.632v7.119h-1.748v-6.533c0-0.703-0.057-1.209-0.171-1.519s-0.32-0.558-0.62-0.747s-0.651-0.283-1.055-0.283
		c-0.729,0-1.335,0.243-1.816,0.728s-0.723,1.261-0.723,2.329v6.025H63.43v-6.738c0-0.781-0.144-1.367-0.43-1.758
		s-0.755-0.586-1.406-0.586c-0.495,0-0.952,0.13-1.372,0.391s-0.725,0.641-0.913,1.143s-0.283,1.224-0.283,2.168v5.381H57.268z"/>
	<path fill="#FFFFFF" d="M73.938,38.814v-2.021h1.758v2.021H73.938z M73.938,51.109V40.738h1.758v10.371H73.938z"/>
	<path fill="#FFFFFF" d="M78.371,51.109V40.738h1.582v1.475c0.762-1.139,1.862-1.709,3.301-1.709c0.625,0,1.199,0.112,1.724,0.337
		s0.916,0.519,1.177,0.884s0.442,0.797,0.547,1.299c0.065,0.326,0.098,0.895,0.098,1.709v6.377h-1.758v-6.309
		c0-0.716-0.068-1.251-0.205-1.606s-0.379-0.638-0.728-0.85s-0.757-0.317-1.226-0.317c-0.749,0-1.395,0.238-1.938,0.713
		s-0.815,1.377-0.815,2.705v5.664H78.371z"/>
	<path fill="#FFFFFF" d="M96.223,51.109v-1.309c-0.657,1.029-1.624,1.543-2.9,1.543c-0.827,0-1.587-0.228-2.28-0.684
		s-1.23-1.092-1.611-1.909s-0.571-1.756-0.571-2.817c0-1.035,0.173-1.974,0.518-2.817s0.862-1.489,1.553-1.938
		s1.462-0.674,2.314-0.674c0.625,0,1.182,0.132,1.67,0.396s0.886,0.607,1.191,1.03v-5.137h1.748v14.316H96.223z M90.666,45.934
		c0,1.328,0.28,2.321,0.84,2.979s1.221,0.986,1.982,0.986c0.769,0,1.421-0.314,1.958-0.942s0.806-1.587,0.806-2.876
		c0-1.419-0.273-2.461-0.82-3.125s-1.221-0.996-2.021-0.996c-0.781,0-1.434,0.319-1.958,0.957S90.666,44.56,90.666,45.934z"/>
	<path fill="#FFFFFF" d="M106.174,51.109V40.738h1.572v1.455c0.325-0.508,0.759-0.917,1.299-1.226s1.155-0.464,1.846-0.464
		c0.769,0,1.398,0.16,1.89,0.479s0.838,0.765,1.04,1.338c0.82-1.211,1.888-1.816,3.203-1.816c1.028,0,1.819,0.285,2.373,0.854
		s0.83,1.447,0.83,2.632v7.119h-1.748v-6.533c0-0.703-0.057-1.209-0.171-1.519s-0.32-0.558-0.62-0.747s-0.651-0.283-1.055-0.283
		c-0.729,0-1.335,0.243-1.816,0.728s-0.723,1.261-0.723,2.329v6.025h-1.758v-6.738c0-0.781-0.144-1.367-0.43-1.758
		s-0.755-0.586-1.406-0.586c-0.495,0-0.952,0.13-1.372,0.391s-0.725,0.641-0.913,1.143s-0.283,1.224-0.283,2.168v5.381H106.174z"/>
	<path fill="#FFFFFF" d="M129.602,49.83c-0.651,0.553-1.277,0.944-1.88,1.172s-1.248,0.342-1.938,0.342
		c-1.14,0-2.015-0.278-2.627-0.835s-0.918-1.268-0.918-2.134c0-0.508,0.115-0.972,0.347-1.392s0.534-0.757,0.908-1.011
		s0.796-0.446,1.265-0.576c0.345-0.091,0.866-0.179,1.563-0.264c1.419-0.169,2.464-0.371,3.135-0.605
		c0.007-0.241,0.01-0.394,0.01-0.459c0-0.716-0.166-1.221-0.498-1.514c-0.449-0.397-1.116-0.596-2.002-0.596
		c-0.827,0-1.438,0.145-1.831,0.435s-0.686,0.802-0.874,1.538l-1.719-0.234c0.156-0.736,0.413-1.33,0.771-1.782
		s0.876-0.801,1.553-1.045s1.462-0.366,2.354-0.366c0.886,0,1.604,0.104,2.158,0.313s0.96,0.47,1.221,0.786s0.442,0.714,0.547,1.196
		c0.059,0.299,0.088,0.84,0.088,1.621v2.344c0,1.634,0.037,2.667,0.112,3.101s0.223,0.848,0.444,1.245h-1.836
		C129.771,50.745,129.653,50.318,129.602,49.83z M129.455,45.904c-0.638,0.26-1.595,0.482-2.871,0.664
		c-0.723,0.104-1.233,0.221-1.533,0.352s-0.53,0.321-0.693,0.571s-0.244,0.529-0.244,0.835c0,0.469,0.178,0.859,0.532,1.172
		s0.874,0.469,1.558,0.469c0.677,0,1.279-0.148,1.807-0.444s0.915-0.702,1.162-1.216c0.188-0.397,0.283-0.983,0.283-1.758V45.904z"
		/>
	<path fill="#FFFFFF" d="M133.957,55.084V40.738h1.602v1.348c0.378-0.527,0.804-0.923,1.279-1.187s1.052-0.396,1.729-0.396
		c0.886,0,1.667,0.228,2.344,0.684s1.188,1.099,1.533,1.929s0.518,1.74,0.518,2.729c0,1.061-0.19,2.017-0.571,2.866
		s-0.935,1.5-1.66,1.953s-1.489,0.679-2.29,0.679c-0.586,0-1.111-0.124-1.577-0.371s-0.848-0.56-1.147-0.938v5.049H133.957z
		 M135.549,45.982c0,1.334,0.271,2.321,0.811,2.959s1.194,0.957,1.963,0.957c0.781,0,1.45-0.331,2.007-0.991
		s0.835-1.685,0.835-3.071c0-1.322-0.271-2.311-0.815-2.969s-1.193-0.986-1.948-0.986c-0.749,0-1.411,0.35-1.987,1.05
		S135.549,44.648,135.549,45.982z"/>
	<path fill="#FFFFFF" d="M145.08,55.084V40.738h1.602v1.348c0.378-0.527,0.804-0.923,1.279-1.187s1.052-0.396,1.729-0.396
		c0.886,0,1.667,0.228,2.344,0.684s1.188,1.099,1.533,1.929s0.518,1.74,0.518,2.729c0,1.061-0.19,2.017-0.571,2.866
		s-0.935,1.5-1.66,1.953s-1.489,0.679-2.29,0.679c-0.586,0-1.111-0.124-1.577-0.371s-0.848-0.56-1.147-0.938v5.049H145.08z
		 M146.672,45.982c0,1.334,0.271,2.321,0.811,2.959s1.194,0.957,1.963,0.957c0.781,0,1.45-0.331,2.007-0.991
		s0.835-1.685,0.835-3.071c0-1.322-0.271-2.311-0.815-2.969s-1.193-0.986-1.948-0.986c-0.749,0-1.411,0.35-1.987,1.05
		S146.672,44.648,146.672,45.982z"/>
	<path fill="#FFFFFF" d="M156.213,38.814v-2.021h1.758v2.021H156.213z M156.213,51.109V40.738h1.758v10.371H156.213z"/>
	<path fill="#FFFFFF" d="M160.646,51.109V40.738h1.582v1.475c0.762-1.139,1.862-1.709,3.301-1.709c0.625,0,1.199,0.112,1.724,0.337
		s0.916,0.519,1.177,0.884s0.442,0.797,0.547,1.299c0.065,0.326,0.098,0.895,0.098,1.709v6.377h-1.758v-6.309
		c0-0.716-0.068-1.251-0.205-1.606s-0.379-0.638-0.728-0.85s-0.757-0.317-1.226-0.317c-0.749,0-1.395,0.238-1.938,0.713
		s-0.815,1.377-0.815,2.705v5.664H160.646z"/>
	<path fill="#FFFFFF" d="M171.447,51.969l1.709,0.254c0.071,0.527,0.271,0.911,0.596,1.152c0.437,0.325,1.032,0.488,1.787,0.488
		c0.813,0,1.442-0.163,1.885-0.488s0.742-0.781,0.898-1.367c0.091-0.358,0.134-1.11,0.127-2.256
		c-0.769,0.905-1.726,1.357-2.871,1.357c-1.426,0-2.529-0.514-3.311-1.543s-1.172-2.262-1.172-3.701c0-0.99,0.179-1.903,0.537-2.739
		s0.877-1.483,1.558-1.938s1.479-0.684,2.397-0.684c1.224,0,2.233,0.495,3.027,1.484v-1.25h1.621v8.965
		c0,1.615-0.164,2.759-0.493,3.433s-0.85,1.206-1.563,1.597s-1.59,0.586-2.632,0.586c-1.237,0-2.236-0.278-2.998-0.835
		S171.421,53.089,171.447,51.969z M172.902,45.738c0,1.361,0.271,2.354,0.811,2.979s1.218,0.938,2.031,0.938
		c0.808,0,1.484-0.311,2.031-0.933s0.82-1.597,0.82-2.925c0-1.27-0.281-2.227-0.845-2.871s-1.242-0.967-2.036-0.967
		c-0.781,0-1.445,0.317-1.992,0.952S172.902,44.488,172.902,45.738z"/>
</g>
</svg>
