<?xml version="1.0" encoding="utf-8"?>
<!-- Generator: Adobe Illustrator 16.0.0, SVG Export Plug-In . SVG Version: 6.00 Build 0)  -->
<!DOCTYPE svg PUBLIC "-//W3C//DTD SVG 1.1//EN" "http://www.w3.org/Graphics/SVG/1.1/DTD/svg11.dtd">
<svg version="1.1" id="Capa_1" xmlns="http://www.w3.org/2000/svg" xmlns:xlink="http://www.w3.org/1999/xlink" x="0px" y="0px"
	 width="247.982px" height="63.509px" viewBox="0 0 247.982 63.509" enable-background="new 0 0 247.982 63.509"
	 xml:space="preserve">
<g>
	<defs>
		<path id="SVGID_1_" d="M247.982,63.509V12.695C247.982,5.684,242.299,0,235.287,0H12.696C5.684,0,0,5.684,0,12.695v50.814H247.982
			z"/>
	</defs>
	<clipPath id="SVGID_2_">
		<use xlink:href="#SVGID_1_"  overflow="visible"/>
	</clipPath>
	<linearGradient id="SVGID_3_" gradientUnits="userSpaceOnUse" x1="123.7734" y1="5.478" x2="123.7734" y2="65.5098">
		<stop  offset="0" style="stop-color:#EC6421"/>
		<stop  offset="0.4099" style="stop-color:#EA6122"/>
		<stop  offset="0.6575" style="stop-color:#E45926"/>
		<stop  offset="0.8613" style="stop-color:#D94B2E"/>
		<stop  offset="1" style="stop-color:#CE3C35"/>
	</linearGradient>
	<path clip-path="url(#SVGID_2_)" fill="url(#SVGID_3_)" stroke="#280707" stroke-width="3" stroke-miterlimit="10" d="
		M240.974,65.509V17.478c0-6.627-5.372-12-12-12H18.572c-6.627,0-12,5.373-12,12v48.031H240.974z"/>
</g>
<g>
	<path fill="#FFFFFF" d="M77.732,35.943l1.88-0.258c0.05,1.203,0.275,2.027,0.677,2.471c0.401,0.444,0.956,0.666,1.665,0.666
		c0.522,0,0.974-0.12,1.354-0.36c0.38-0.24,0.641-0.565,0.784-0.978c0.144-0.412,0.215-1.069,0.215-1.971v-10.85h2.084v10.731
		c0,1.318-0.159,2.338-0.478,3.062c-0.319,0.724-0.824,1.275-1.516,1.654c-0.69,0.379-1.502,0.569-2.433,0.569
		c-1.382,0-2.44-0.397-3.175-1.192C78.057,38.693,77.704,37.512,77.732,35.943z"/>
	<path fill="#FFFFFF" d="M88.829,34.708c0-2.112,0.587-3.677,1.762-4.694c0.981-0.845,2.177-1.268,3.588-1.268
		c1.568,0,2.851,0.514,3.846,1.542c0.995,1.028,1.493,2.448,1.493,4.259c0,1.468-0.22,2.623-0.661,3.464
		c-0.439,0.842-1.081,1.495-1.922,1.96c-0.842,0.465-1.761,0.698-2.756,0.698c-1.597,0-2.888-0.512-3.873-1.536
		C89.321,38.11,88.829,36.635,88.829,34.708z M90.816,34.708c0,1.461,0.318,2.555,0.956,3.282c0.638,0.727,1.439,1.09,2.406,1.09
		c0.96,0,1.758-0.365,2.396-1.096s0.956-1.844,0.956-3.341c0-1.411-0.32-2.479-0.961-3.207c-0.642-0.727-1.438-1.09-2.391-1.09
		c-0.967,0-1.769,0.362-2.406,1.085C91.135,32.155,90.816,33.247,90.816,34.708z"/>
	<path fill="#FFFFFF" d="M103.567,40.412h-1.794V24.664h1.934v5.618c0.816-1.024,1.858-1.536,3.126-1.536
		c0.702,0,1.366,0.142,1.992,0.424c0.627,0.283,1.143,0.681,1.547,1.192c0.405,0.512,0.722,1.13,0.951,1.853
		c0.229,0.724,0.344,1.497,0.344,2.32c0,1.955-0.483,3.466-1.45,4.533c-0.967,1.067-2.127,1.601-3.48,1.601
		c-1.347,0-2.402-0.562-3.169-1.687V40.412z M103.546,34.622c0,1.368,0.187,2.356,0.559,2.965c0.608,0.996,1.433,1.493,2.471,1.493
		c0.845,0,1.575-0.367,2.191-1.101c0.616-0.734,0.924-1.828,0.924-3.282c0-1.489-0.295-2.589-0.887-3.298
		c-0.59-0.709-1.305-1.063-2.143-1.063c-0.845,0-1.575,0.367-2.191,1.101C103.854,32.171,103.546,33.233,103.546,34.622z"/>
	<path fill="#FFFFFF" d="M127.576,39.005c-0.716,0.609-1.405,1.039-2.067,1.289c-0.663,0.25-1.374,0.376-2.133,0.376
		c-1.253,0-2.217-0.306-2.89-0.918s-1.01-1.395-1.01-2.347c0-0.559,0.127-1.069,0.382-1.531c0.254-0.462,0.587-0.833,0.998-1.112
		c0.412-0.279,0.876-0.49,1.392-0.634c0.38-0.1,0.952-0.197,1.719-0.29c1.562-0.186,2.711-0.408,3.448-0.666
		c0.007-0.265,0.011-0.433,0.011-0.505c0-0.788-0.183-1.343-0.548-1.665c-0.494-0.437-1.229-0.655-2.202-0.655
		c-0.909,0-1.581,0.16-2.015,0.478c-0.433,0.319-0.753,0.883-0.961,1.692l-1.891-0.258c0.172-0.809,0.455-1.462,0.849-1.96
		c0.394-0.498,0.963-0.881,1.708-1.149s1.607-0.403,2.589-0.403c0.974,0,1.766,0.115,2.374,0.344
		c0.608,0.229,1.057,0.518,1.343,0.865c0.286,0.348,0.487,0.786,0.602,1.316c0.064,0.33,0.097,0.924,0.097,1.783v2.578
		c0,1.798,0.041,2.935,0.123,3.411c0.083,0.477,0.246,0.933,0.489,1.37h-2.02C127.763,40.011,127.634,39.542,127.576,39.005z
		 M127.415,34.687c-0.702,0.287-1.755,0.53-3.158,0.73c-0.795,0.115-1.357,0.244-1.687,0.387c-0.329,0.144-0.584,0.353-0.763,0.628
		c-0.179,0.276-0.269,0.582-0.269,0.918c0,0.516,0.195,0.945,0.585,1.289c0.391,0.344,0.962,0.516,1.714,0.516
		c0.745,0,1.407-0.163,1.987-0.489c0.58-0.326,1.006-0.771,1.278-1.337c0.208-0.437,0.312-1.081,0.312-1.934V34.687z"/>
	<path fill="#FFFFFF" d="M139.769,40.412v-1.439c-0.724,1.132-1.787,1.697-3.19,1.697c-0.909,0-1.745-0.251-2.509-0.752
		c-0.762-0.501-1.354-1.201-1.771-2.1c-0.42-0.898-0.629-1.932-0.629-3.099c0-1.139,0.189-2.171,0.569-3.099
		c0.38-0.927,0.949-1.638,1.708-2.132s1.607-0.741,2.546-0.741c0.688,0,1.3,0.145,1.837,0.435s0.974,0.668,1.311,1.133v-5.65h1.923
		v15.748H139.769z M133.656,34.719c0,1.461,0.308,2.553,0.924,3.276c0.616,0.724,1.343,1.085,2.181,1.085
		c0.845,0,1.563-0.345,2.154-1.037c0.59-0.691,0.886-1.746,0.886-3.164c0-1.561-0.301-2.707-0.902-3.438s-1.343-1.096-2.224-1.096
		c-0.859,0-1.577,0.351-2.154,1.053C133.944,32.102,133.656,33.208,133.656,34.719z"/>
	<path fill="#FFFFFF" d="M143.829,37.007l1.912-0.301c0.107,0.767,0.406,1.354,0.896,1.762c0.491,0.408,1.177,0.612,2.058,0.612
		c0.888,0,1.547-0.181,1.977-0.542c0.43-0.361,0.645-0.786,0.645-1.273c0-0.437-0.189-0.78-0.569-1.031
		c-0.265-0.172-0.924-0.39-1.977-0.655c-1.418-0.358-2.4-0.667-2.949-0.929c-0.547-0.261-0.963-0.623-1.246-1.085
		c-0.282-0.462-0.424-0.972-0.424-1.531c0-0.508,0.116-0.979,0.35-1.413c0.232-0.433,0.549-0.793,0.95-1.08
		c0.301-0.222,0.711-0.41,1.229-0.564c0.52-0.154,1.076-0.231,1.671-0.231c0.896,0,1.681,0.129,2.358,0.387
		c0.676,0.258,1.176,0.607,1.498,1.047s0.544,1.03,0.666,1.767l-1.891,0.258c-0.086-0.587-0.335-1.045-0.746-1.375
		c-0.412-0.329-0.994-0.494-1.746-0.494c-0.888,0-1.521,0.147-1.901,0.44c-0.38,0.294-0.569,0.638-0.569,1.031
		c0,0.251,0.079,0.477,0.236,0.677c0.157,0.208,0.404,0.38,0.741,0.516c0.193,0.072,0.763,0.236,1.708,0.494
		c1.368,0.365,2.322,0.665,2.863,0.897c0.54,0.233,0.965,0.571,1.272,1.015c0.308,0.444,0.462,0.996,0.462,1.654
		c0,0.645-0.188,1.251-0.564,1.821c-0.375,0.569-0.918,1.01-1.627,1.321s-1.511,0.467-2.406,0.467c-1.482,0-2.612-0.308-3.389-0.924
		C144.54,39.13,144.044,38.217,143.829,37.007z"/>
</g>
</svg>
