<?xml version="1.0" encoding="utf-8"?>
<!-- Generator: Adobe Illustrator 16.0.0, SVG Export Plug-In . SVG Version: 6.00 Build 0)  -->
<!DOCTYPE svg PUBLIC "-//W3C//DTD SVG 1.1//EN" "http://www.w3.org/Graphics/SVG/1.1/DTD/svg11.dtd">
<svg version="1.1" id="Capa_1" xmlns="http://www.w3.org/2000/svg" xmlns:xlink="http://www.w3.org/1999/xlink" x="0px" y="0px"
	 width="61.076px" height="260.178px" viewBox="0 0 61.076 260.178" enable-background="new 0 0 61.076 260.178"
	 xml:space="preserve">
<path fill="none" stroke="#0C488D" stroke-width="2" stroke-miterlimit="10" d="M56.261,130.121h-10.27V2.229H4.816
	C4.626,1.525,3.927,1,2.931,1C1.933,1,1,1.702,1,2.564c0,0.864,0.933,1.566,1.931,1.566c0.996,0,1.695-0.525,1.886-1.229h40.342
	c0,28.19,0,226.18,0,254.375H4.816c-0.19-0.704-0.89-1.231-1.886-1.231c-0.998,0-1.931,0.701-1.931,1.567
	c0,0.865,0.933,1.564,1.931,1.564c0.996,0,1.695-0.524,1.886-1.229h41.175v-127.15h10.27c0.188,0.702,0.889,1.229,1.886,1.229
	c0.995,0,1.93-0.7,1.93-1.567c0-0.864-0.935-1.566-1.93-1.566C57.149,128.893,56.449,129.42,56.261,130.121L56.261,130.121z"/>
</svg>
