<?xml version="1.0" encoding="utf-8"?>
<!-- Generator: Adobe Illustrator 16.0.0, SVG Export Plug-In . SVG Version: 6.00 Build 0)  -->
<!DOCTYPE svg PUBLIC "-//W3C//DTD SVG 1.1//EN" "http://www.w3.org/Graphics/SVG/1.1/DTD/svg11.dtd">
<svg version="1.1" id="Capa_1" xmlns="http://www.w3.org/2000/svg" xmlns:xlink="http://www.w3.org/1999/xlink" x="0px" y="0px"
	 width="61.076px" height="260.178px" viewBox="0 0 61.076 260.178" enable-background="new 0 0 61.076 260.178"
	 xml:space="preserve">
<path fill="none" stroke="#0C488D" stroke-width="2" stroke-miterlimit="10" d="M4.815,130.121h10.27V2.229H56.26
	C56.45,1.525,57.149,1,58.146,1c0.998,0,1.931,0.702,1.931,1.564c0,0.864-0.933,1.566-1.931,1.566c-0.996,0-1.695-0.525-1.886-1.229
	H15.918c0,28.19,0,226.18,0,254.375H56.26c0.19-0.704,0.89-1.231,1.886-1.231c0.998,0,1.931,0.701,1.931,1.567
	c0,0.865-0.933,1.564-1.931,1.564c-0.996,0-1.695-0.524-1.886-1.229H15.085v-127.15H4.815c-0.188,0.702-0.889,1.229-1.886,1.229
	c-0.995,0-1.93-0.7-1.93-1.567c0-0.864,0.935-1.566,1.93-1.566C3.927,128.893,4.627,129.42,4.815,130.121L4.815,130.121z"/>
</svg>
