<?xml version="1.0" encoding="utf-8"?>
<!-- Generator: Adobe Illustrator 16.0.0, SVG Export Plug-In . SVG Version: 6.00 Build 0)  -->
<!DOCTYPE svg PUBLIC "-//W3C//DTD SVG 1.1//EN" "http://www.w3.org/Graphics/SVG/1.1/DTD/svg11.dtd">
<svg version="1.1" id="Capa_1" xmlns="http://www.w3.org/2000/svg" xmlns:xlink="http://www.w3.org/1999/xlink" x="0px" y="0px"
	 width="1280px" height="600.002px" viewBox="0 0 1280 600.002" enable-background="new 0 0 1280 600.002" xml:space="preserve">
<g>
	
		<linearGradient id="SVGID_1_" gradientUnits="userSpaceOnUse" x1="76.001" y1="835.0029" x2="76.001" y2="269.248" gradientTransform="matrix(1 0 0 -1 564 835.002)">
		<stop  offset="0" style="stop-color:#EC6421"/>
		<stop  offset="0.4099" style="stop-color:#EA6122"/>
		<stop  offset="0.6575" style="stop-color:#E45926"/>
		<stop  offset="0.8613" style="stop-color:#D94B2E"/>
		<stop  offset="1" style="stop-color:#CE3C35"/>
	</linearGradient>
	<rect x="0.002" fill="url(#SVGID_1_)" width="1279.999" height="565.754"/>
</g>
<rect y="565.754" fill="#2D0F01" width="1280" height="34.248"/>
<g>
	<path opacity="0.9" fill-rule="evenodd" clip-rule="evenodd" fill="#FFFFFF" d="M369.342,125.108
		c43.415,0,83.669-13.51,116.806-36.547V0.002H252.536v88.561C285.673,111.598,325.927,125.108,369.342,125.108"/>
	<g>
		<path fill-rule="evenodd" clip-rule="evenodd" d="M370.56,19.793c4.531,0,8.225,3.719,8.225,8.275s-3.693,8.271-8.225,8.271
			c-4.53,0-8.227-3.715-8.227-8.271S366.029,19.793,370.56,19.793"/>
		<path fill-rule="evenodd" clip-rule="evenodd" d="M340.6,46.496v0.031l-0.04,0.305c0,0.426,0.242,0.742,0.727,0.953
			c0.488,0.207,1.242,0.311,2.262,0.311c0.775,0,1.383-0.088,1.824-0.256c0.442-0.172,0.662-0.404,0.662-0.705
			c0-0.453-0.874-0.814-2.615-1.1c-0.203-0.033-0.354-0.057-0.453-0.072c-0.112-0.021-0.276-0.049-0.489-0.082
			c-2.765-0.453-4.546-0.943-5.33-1.473c-0.384-0.26-0.677-0.563-0.873-0.914c-0.19-0.354-0.289-0.752-0.289-1.189
			c0-1.082,0.635-1.904,1.905-2.471c1.271-0.564,3.13-0.848,5.578-0.848c2.418,0,4.211,0.264,5.375,0.793
			c1.164,0.533,1.748,1.35,1.748,2.449v0.127h-4.58v-0.051c0-0.381-0.229-0.664-0.693-0.857c-0.464-0.195-1.145-0.295-2.038-0.295
			c-0.694,0-1.231,0.068-1.603,0.207c-0.379,0.139-0.567,0.34-0.567,0.594c0,0.459,0.998,0.846,2.995,1.17
			c0.384,0.057,0.688,0.105,0.904,0.139c1.424,0.239,2.438,0.443,3.039,0.613c0.604,0.17,1.123,0.373,1.563,0.605
			c0.484,0.266,0.867,0.605,1.129,1.012c0.266,0.408,0.398,0.852,0.398,1.34c0,1.113-0.694,1.969-2.077,2.57
			c-1.384,0.602-3.38,0.9-5.978,0.9c-2.568,0-4.429-0.289-5.58-0.863c-1.149-0.58-1.719-1.504-1.719-2.781v-0.162H340.6z
			 M353.147,50.119V39.152l13.059,0.001v2.363h-8.156v1.748h7.541v2.334h-7.541v2.127h8.465v2.395L353.147,50.119z M368.562,50.12
			V39.153h6.206l6.641,7.357v-7.357h4.71V50.12h-6.435l-6.427-7.385v7.385H368.562z M398.786,45.747l-2.347-3.986l-2.479,3.986
			H398.786z M391.316,50.12H386.4l7.59-10.967h5.438l7.24,10.967h-5.459l-1.105-1.98h-7.607L391.316,50.12z"/>
		<path fill-rule="evenodd" clip-rule="evenodd" d="M346.628,88.783l-4.38-4.116l13.334-23.143c0.726-1.262-0.183-2.84-1.64-2.84
			h-21.828v-5.789l35.133,0.001L346.628,88.783z"/>
		<path fill-rule="evenodd" clip-rule="evenodd" d="M394.11,88.784l4.379-4.115l-13.334-23.143c-0.726-1.262,0.184-2.84,1.641-2.84
			h21.828v-5.789h-35.133L394.11,88.784z"/>
		<path fill-rule="evenodd" clip-rule="evenodd" d="M370.321,59.016l0.048-0.082l19.797,32.725l-5.256,2.733l-12.759-21.364
			c-0.75-1.258-2.574-1.26-3.321,0c-4.252,7.168-12.674,21.364-12.674,21.364l-5.146-2.545
			C351.011,91.847,369.265,60.815,370.321,59.016"/>
	</g>
	<g>
		<path fill="#021323" d="M367.247,125.512c46.586,2.098,108.541-20.824,117.762-24.35c0.597-0.227,1.007-0.746,1.139-1.354v-11.83
			c0,0.617-0.304,1.199-0.813,1.549c-32.981,22.693-72.932,35.984-115.993,35.984c-0.851,0-1.696-0.014-2.543-0.023
			C366.95,125.497,367.094,125.506,367.247,125.512"/>
		<path fill="#021323" d="M371.728,125.512c-46.584,2.098-108.541-20.824-117.761-24.35c-0.597-0.227-1.007-0.746-1.139-1.354
			v-11.83c0,0.617,0.304,1.199,0.813,1.549c32.98,22.693,72.932,35.984,115.992,35.984c0.85,0,1.696-0.014,2.543-0.023
			C372.026,125.497,371.882,125.506,371.728,125.512"/>
	</g>
</g>
</svg>
