<?xml version="1.0" encoding="utf-8"?>
<!-- Generator: Adobe Illustrator 16.0.0, SVG Export Plug-In . SVG Version: 6.00 Build 0)  -->
<!DOCTYPE svg PUBLIC "-//W3C//DTD SVG 1.1//EN" "http://www.w3.org/Graphics/SVG/1.1/DTD/svg11.dtd">
<svg version="1.1" id="Capa_1" xmlns="http://www.w3.org/2000/svg" xmlns:xlink="http://www.w3.org/1999/xlink" x="0px" y="0px"
	 width="24.949px" height="24.15px" viewBox="0 0 24.949 24.15" enable-background="new 0 0 24.949 24.15" xml:space="preserve">
<g>
	<path fill="#FFFFFF" d="M21.614,11.742l-8.465-6.979c-0.391-0.322-0.958-0.322-1.349,0l-8.464,6.979
		C3.09,11.943,2.95,12.244,2.95,12.559v10.53c0,0.585,0.476,1.061,1.06,1.061h16.929c0.586,0,1.062-0.476,1.062-1.061v-10.53
		C22,12.244,21.858,11.943,21.614,11.742 M13.596,22.031h-2.241v-5.867h2.241V22.031z M19.879,22.031h-4.163v-6.926
		c0-0.586-0.476-1.059-1.061-1.059h-4.362c-0.585,0-1.059,0.473-1.059,1.059v6.926H5.071v-8.973l7.404-6.104l7.404,6.104V22.031z"/>
	<path fill="#FFFFFF" d="M24.553,9.617c-2.362-1.891-4.588-3.697-7.006-5.687c-0.722-0.649-1.481-1.263-2.216-1.856
		c-0.718-0.582-1.462-1.184-2.147-1.802c-0.403-0.362-1.016-0.362-1.419,0c-0.686,0.618-1.43,1.22-2.147,1.802
		C8.883,2.667,8.124,3.281,7.402,3.93C4.984,5.919,2.758,7.726,0.398,9.617c-0.457,0.366-0.531,1.033-0.165,1.489
		c0.364,0.457,1.032,0.53,1.49,0.165c2.374-1.9,4.613-3.719,7.045-5.721c0.012-0.01,0.023-0.02,0.035-0.029
		c0.686-0.618,1.428-1.219,2.148-1.801c0.503-0.407,1.017-0.823,1.523-1.254c0.506,0.431,1.021,0.847,1.523,1.254
		c0.72,0.582,1.462,1.183,2.148,1.801c0.012,0.01,0.023,0.02,0.035,0.029c2.433,2.002,4.67,3.82,7.044,5.721
		c0.196,0.156,0.431,0.232,0.663,0.232c0.311,0,0.618-0.135,0.827-0.397C25.083,10.65,25.008,9.983,24.553,9.617"/>
</g>
</svg>
