<?xml version="1.0" encoding="utf-8"?>
<!-- Generator: Adobe Illustrator 16.0.0, SVG Export Plug-In . SVG Version: 6.00 Build 0)  -->
<!DOCTYPE svg PUBLIC "-//W3C//DTD SVG 1.1//EN" "http://www.w3.org/Graphics/SVG/1.1/DTD/svg11.dtd">
<svg version="1.1" id="Capa_1" xmlns="http://www.w3.org/2000/svg" xmlns:xlink="http://www.w3.org/1999/xlink" x="0px" y="0px"
	 width="137.536px" height="159.183px" viewBox="0 0 137.536 159.183" enable-background="new 0 0 137.536 159.183"
	 xml:space="preserve">
<g id="Capa_8_1_">
	<g>
		<g>
			<path fill="#0575A5" d="M3.709,5.79C1.67,5.79,0,7.459,0,9.499v145.975c0,2.043,1.67,3.709,3.709,3.709h101.045
				c2.037,0,3.709-1.666,3.709-3.709V9.499c0-2.04-1.672-3.709-3.709-3.709H3.709z"/>
			<g>
				<polygon fill="#FFFFFF" points="84.499,148.699 7.413,148.699 7.413,16.271 101.048,16.271 101.048,132.152 				"/>
				<polygon fill="#CEE2F2" points="84.499,148.699 84.499,132.152 101.048,132.152 				"/>
			</g>
			<g>
				<path fill="#5D6D7E" d="M62.251,8.034c0-4.433-3.587-8.034-8.02-8.034c-4.432,0-8.021,3.602-8.021,8.034H36.055v16.472h36.354
					V8.034H62.251z M54.231,5.306c1.501,0,2.732,1.222,2.732,2.729c0,1.501-1.231,2.718-2.732,2.718
					c-1.51,0-2.729-1.217-2.729-2.718C51.502,6.526,52.722,5.306,54.231,5.306z"/>
				<path fill="#34495E" d="M62.251,8.034c0-4.433-3.587-8.034-8.02-8.034c-4.432,0-8.021,3.602-8.021,8.034H36.055v8.237h36.354
					V8.034H62.251z M54.231,5.306c1.501,0,2.732,1.222,2.732,2.729c0,1.501-1.231,2.718-2.732,2.718
					c-1.51,0-2.729-1.217-2.729-2.718C51.502,6.526,52.722,5.306,54.231,5.306z"/>
				<rect x="36.055" y="14.551" fill="#5D6D7E" width="36.354" height="1.722"/>
				<rect x="36.055" y="16.271" fill="#34495E" width="36.354" height="1.716"/>
			</g>
			<g>
				<g>
					<rect x="43.125" y="42.285" fill="#CEE2F2" width="43.62" height="3.42"/>
					<rect x="43.125" y="60.168" fill="#CEE2F2" width="43.62" height="3.42"/>
					<rect x="43.125" y="78.052" fill="#CEE2F2" width="43.62" height="3.42"/>
					<rect x="43.125" y="95.931" fill="#CEE2F2" width="43.62" height="3.42"/>
				</g>
				<polygon fill="#FF8E31" points="21.715,39.576 23.059,38.234 27.837,43.014 35.518,35.336 36.866,36.681 27.837,45.705 				"/>
				<polygon fill="#FF8E31" points="21.715,57.46 23.059,56.118 27.837,60.9 35.518,53.223 36.866,54.563 27.837,63.588 				"/>
				<polygon fill="#FF8E31" points="21.715,75.343 23.059,74.001 27.837,78.788 35.518,71.105 36.866,72.451 27.837,81.474 				"/>
				<polygon fill="#FF8E31" points="21.715,93.23 23.059,91.888 27.837,96.671 35.518,88.988 36.866,90.333 27.837,99.359 				"/>
			</g>
		</g>
		<g>
			<polygon fill="#FFFFFF" points="121.731,143.384 129.632,159.183 137.536,143.384 			"/>
			<rect x="121.73" y="61.991" fill="#FF9D4D" width="15.805" height="81.393"/>
			<rect x="121.73" y="61.991" fill="#F28124" width="3.952" height="81.393"/>
			<rect x="133.583" y="61.992" fill="#F28124" width="3.951" height="81.39"/>
			<polygon fill="#E1EFFA" points="121.731,143.384 125.684,143.384 129.632,159.183 			"/>
			<polygon fill="#E1EFFA" points="137.536,143.384 133.584,143.382 129.632,159.183 			"/>
			<polygon fill="#5D6D7E" points="126.539,152.992 129.632,159.183 132.73,152.996 			"/>
			<g>
				<g>
					<polygon fill="#34495E" points="126.539,152.992 129.632,159.183 128.086,152.992 					"/>
					<polygon fill="#34495E" points="131.183,152.992 129.632,159.183 132.73,152.996 					"/>
				</g>
			</g>
			<rect x="121.73" y="59.355" fill="#FFFFFF" width="15.805" height="2.637"/>
			<rect x="121.73" y="59.354" fill="#E1EFFA" width="3.95" height="2.637"/>
			<rect x="133.583" y="59.355" fill="#E1EFFA" width="3.953" height="2.637"/>
			<path fill="#34495E" d="M129.632,51.454c-4.36,0-7.9,3.539-7.9,7.9h15.805C137.536,54.993,133.997,51.454,129.632,51.454z"/>
			<path fill="#34495E" d="M124.801,58.12c-0.192,0-0.384-0.045-0.563-0.137c-0.608-0.312-0.848-1.062-0.536-1.665
				c1.149-2.236,3.422-3.629,5.931-3.629c0.684,0,1.237,0.554,1.237,1.236c0,0.684-0.555,1.237-1.237,1.237
				c-1.575,0-3.009,0.873-3.73,2.282C125.682,57.875,125.25,58.12,124.801,58.12z"/>
		</g>
	</g>
</g>
</svg>
