<?xml version="1.0" encoding="utf-8"?>
<!-- Generator: Adobe Illustrator 16.0.0, SVG Export Plug-In . SVG Version: 6.00 Build 0)  -->
<!DOCTYPE svg PUBLIC "-//W3C//DTD SVG 1.1//EN" "http://www.w3.org/Graphics/SVG/1.1/DTD/svg11.dtd">
<svg version="1.1" id="Capa_1" xmlns="http://www.w3.org/2000/svg" xmlns:xlink="http://www.w3.org/1999/xlink" x="0px" y="0px"
	 width="349.709px" height="128.654px" viewBox="0 0 349.709 128.654" enable-background="new 0 0 349.709 128.654"
	 xml:space="preserve">
<g>
	<path fill-rule="evenodd" clip-rule="evenodd" fill="#FFFFFF" d="M111.805,64.327c0-23.909-12.072-46.078-32.66-64.327H0.002
		L0,128.653l79.145,0.001C99.73,110.405,111.805,88.237,111.805,64.327"/>
	<g>
		<path fill="#2D0F01" d="M112.166,65.48c1.875-25.655-18.609-59.775-21.76-64.854C90.203,0.299,89.74,0.073,89.197,0H78.625
			c0.551,0,1.07,0.167,1.383,0.448c20.281,18.163,32.158,40.165,32.158,63.879c0,0.468-0.012,0.934-0.02,1.4
			C112.152,65.645,112.162,65.564,112.166,65.48"/>
		<path fill="#2D0F01" d="M112.166,63.013c1.875,25.656-18.611,59.776-21.762,64.853c-0.201,0.329-0.666,0.555-1.209,0.628H78.623
			c0.551,0,1.072-0.168,1.385-0.448c20.279-18.164,32.158-40.164,32.158-63.879c0-0.468-0.012-0.935-0.02-1.399
			C112.152,62.849,112.162,62.928,112.166,63.013"/>
	</g>
</g>
<g>
	<path fill-rule="evenodd" clip-rule="evenodd" d="M55.162,34.056c4.005,0,7.269,3.286,7.269,7.313s-3.264,7.31-7.269,7.31
		c-4.004,0-7.271-3.283-7.271-7.31S51.158,34.056,55.162,34.056"/>
	<path fill-rule="evenodd" clip-rule="evenodd" d="M28.687,57.652v0.027l-0.034,0.27c0,0.377,0.212,0.656,0.642,0.843
		c0.432,0.183,1.098,0.274,1.997,0.274c0.688,0,1.222-0.078,1.612-0.227c0.392-0.151,0.587-0.357,0.587-0.623
		c0-0.4-0.773-0.72-2.312-0.972c-0.18-0.029-0.313-0.05-0.402-0.063c-0.098-0.02-0.243-0.043-0.431-0.072
		c-2.444-0.4-4.017-0.834-4.711-1.302c-0.338-0.229-0.597-0.497-0.771-0.808c-0.169-0.313-0.255-0.665-0.255-1.051
		c0-0.957,0.561-1.684,1.683-2.184c1.124-0.499,2.767-0.749,4.93-0.749c2.138,0,3.721,0.232,4.751,0.7
		c1.028,0.472,1.545,1.193,1.545,2.165v0.111h-4.049v-0.044c0-0.337-0.2-0.587-0.611-0.758c-0.411-0.173-1.012-0.261-1.802-0.261
		c-0.612,0-1.088,0.061-1.417,0.183c-0.335,0.123-0.501,0.301-0.501,0.524c0,0.406,0.883,0.748,2.648,1.034
		c0.338,0.05,0.605,0.093,0.799,0.123c1.258,0.21,2.154,0.392,2.686,0.541c0.533,0.15,0.992,0.33,1.381,0.535
		c0.428,0.235,0.766,0.535,0.997,0.895c0.233,0.36,0.351,0.752,0.351,1.184c0,0.984-0.612,1.74-1.835,2.271
		c-1.224,0.531-2.985,0.796-5.281,0.796c-2.271,0-3.914-0.256-4.931-0.763c-1.017-0.513-1.519-1.329-1.519-2.458v-0.144H28.687z
		 M39.775,60.854v-9.691h11.538v2.088h-7.206v1.545h6.664v2.063h-6.664v1.88h7.48v2.116H39.775z M53.396,60.854v-9.691h5.483
		l5.868,6.502v-6.502h4.163v9.691h-5.687l-5.679-6.526v6.526H53.396z M80.105,56.99l-2.074-3.523l-2.192,3.523H80.105z
		 M73.504,60.854H69.16l6.707-9.691h4.807l6.397,9.691h-4.825l-0.976-1.75h-6.723L73.504,60.854z"/>
	<path fill-rule="evenodd" clip-rule="evenodd" d="M34.015,95.021l-3.871-3.637l11.782-20.45c0.643-1.115-0.162-2.51-1.449-2.51
		H21.188v-5.115h31.048L34.015,95.021z"/>
	<path fill-rule="evenodd" clip-rule="evenodd" d="M75.972,95.021l3.872-3.637l-11.783-20.45c-0.643-1.115,0.162-2.51,1.449-2.51
		h19.289v-5.115H57.751L75.972,95.021z"/>
	<path fill-rule="evenodd" clip-rule="evenodd" d="M54.952,68.716l0.041-0.072l17.494,28.918l-4.645,2.416l-11.273-18.88
		c-0.665-1.111-2.275-1.113-2.937,0c-3.757,6.334-11.199,18.88-11.199,18.88l-4.548-2.249
		C37.886,97.729,54.017,70.306,54.952,68.716"/>
</g>
<g>
	<g>
		<rect x="347.709" y="32.22" fill="#FFFFFF" width="2" height="67.476"/>
	</g>
	<g>
		<path fill="#FFFFFF" d="M140.435,61.906c-0.294,0.684-0.697,1.283-1.211,1.795c-0.513,0.514-1.111,0.918-1.795,1.211
			c-0.685,0.295-1.416,0.441-2.196,0.441h-1.636c-0.78,0-1.515-0.146-2.204-0.441c-0.689-0.293-1.29-0.697-1.804-1.211
			c-0.513-0.512-0.916-1.111-1.21-1.795s-0.441-1.416-0.441-2.195V42.043h2.068v17.668c0,0.512,0.097,0.99,0.289,1.434
			s0.457,0.834,0.793,1.17c0.337,0.338,0.727,0.602,1.171,0.795c0.443,0.191,0.922,0.289,1.435,0.289h1.442
			c0.514,0,0.991-0.098,1.436-0.289c0.443-0.193,0.83-0.457,1.162-0.795c0.331-0.336,0.593-0.727,0.785-1.17
			s0.289-0.922,0.289-1.434V42.043h2.067v17.668C140.875,60.49,140.729,61.223,140.435,61.906z"/>
		<path fill="#FFFFFF" d="M157.66,65.033l-9.587-16.736l-0.192-0.994v17.73h-2.068v-22.99h1.074l9.587,16.754l0.208,0.979V42.043
			h2.068v22.99H157.66z"/>
		<path fill="#FFFFFF" d="M176.505,61.586c-0.295,0.684-0.698,1.283-1.211,1.795c-0.513,0.514-1.114,0.918-1.804,1.211
			c-0.689,0.295-1.424,0.441-2.204,0.441h-7.278v-22.99h7.278c0.78,0,1.515,0.148,2.204,0.441c0.689,0.295,1.291,0.697,1.804,1.211
			s0.916,1.113,1.211,1.803c0.293,0.689,0.44,1.426,0.44,2.205v11.688C176.945,60.17,176.798,60.902,176.505,61.586z
			 M174.877,47.703c0-0.514-0.096-0.992-0.288-1.436s-0.457-0.834-0.794-1.17s-0.727-0.602-1.17-0.793
			c-0.443-0.193-0.922-0.289-1.435-0.289h-5.114v19.045h5.114c0.513,0,0.991-0.096,1.435-0.289c0.443-0.191,0.833-0.453,1.17-0.785
			c0.337-0.33,0.602-0.719,0.794-1.162s0.288-0.922,0.288-1.434V47.703z"/>
		<path fill="#FFFFFF" d="M181.866,65.033v-22.99h12.938v1.973h-10.869v8.545h8.801v1.973h-8.801v8.527h10.869v1.973H181.866z"/>
		<path fill="#FFFFFF" d="M209.553,65.033l-6.236-9.813h-2.838v9.813h-2.068v-22.99h7.295c0.78,0,1.512,0.148,2.196,0.441
			c0.684,0.295,1.282,0.697,1.795,1.211c0.514,0.514,0.917,1.113,1.211,1.803s0.44,1.426,0.44,2.205v1.859
			c0,0.781-0.146,1.516-0.44,2.205s-0.697,1.289-1.211,1.803c-0.513,0.514-1.111,0.916-1.795,1.211
			c-0.685,0.293-1.416,0.439-2.196,0.439l6.236,9.813H209.553z M209.28,47.703c0-0.514-0.097-0.992-0.289-1.436
			s-0.454-0.834-0.785-1.17c-0.332-0.336-0.719-0.602-1.162-0.793c-0.444-0.193-0.922-0.289-1.436-0.289h-5.13v9.234h5.13
			c0.514,0,0.991-0.096,1.436-0.289c0.443-0.191,0.83-0.457,1.162-0.793c0.331-0.338,0.593-0.727,0.785-1.17
			s0.289-0.922,0.289-1.436V47.703z"/>
		<path fill="#FFFFFF" d="M228.485,59.711c0,0.779-0.157,1.512-0.473,2.195s-0.737,1.283-1.267,1.795
			c-0.529,0.514-1.144,0.918-1.844,1.211c-0.7,0.295-1.44,0.441-2.22,0.441h-1.651c-0.78,0-1.521-0.146-2.221-0.441
			c-0.7-0.293-1.314-0.697-1.844-1.211c-0.528-0.512-0.951-1.111-1.267-1.795c-0.314-0.684-0.473-1.416-0.473-2.195v-0.914
			l2.068-0.338v1.252c0,0.512,0.104,0.99,0.313,1.434s0.489,0.834,0.842,1.17c0.353,0.338,0.762,0.602,1.227,0.795
			c0.465,0.191,0.953,0.289,1.467,0.289h1.442c0.513,0,0.999-0.098,1.459-0.289c0.459-0.193,0.865-0.457,1.219-0.795
			c0.353-0.336,0.633-0.727,0.841-1.17c0.209-0.443,0.313-0.922,0.313-1.434v-0.689c0-0.791-0.155-1.449-0.466-1.973
			c-0.31-0.523-0.721-0.969-1.234-1.338c-0.513-0.369-1.093-0.682-1.739-0.938c-0.646-0.258-1.312-0.514-1.995-0.77
			c-0.685-0.258-1.35-0.541-1.996-0.85c-0.647-0.311-1.227-0.697-1.739-1.162c-0.514-0.465-0.925-1.035-1.234-1.709
			c-0.311-0.672-0.466-1.5-0.466-2.484v-0.432c0-0.781,0.147-1.514,0.441-2.197s0.697-1.283,1.21-1.795
			c0.514-0.514,1.114-0.916,1.804-1.211c0.689-0.293,1.424-0.441,2.204-0.441h1.476c0.779,0,1.512,0.148,2.196,0.441
			c0.684,0.295,1.282,0.697,1.795,1.211c0.514,0.512,0.916,1.111,1.211,1.795c0.293,0.684,0.44,1.416,0.44,2.197v0.592l-2.068,0.338
			v-0.93c0-0.514-0.096-0.992-0.288-1.436s-0.454-0.83-0.785-1.162c-0.332-0.332-0.72-0.594-1.163-0.785
			c-0.443-0.193-0.922-0.289-1.435-0.289h-1.282c-0.513,0-0.991,0.096-1.435,0.289c-0.444,0.191-0.834,0.453-1.171,0.785
			c-0.336,0.332-0.601,0.719-0.793,1.162s-0.289,0.922-0.289,1.436v0.432c0,0.738,0.155,1.357,0.465,1.859
			c0.311,0.504,0.722,0.934,1.234,1.291c0.514,0.357,1.093,0.668,1.739,0.93s1.313,0.529,1.996,0.801
			c0.684,0.273,1.35,0.572,1.996,0.898s1.227,0.727,1.739,1.203c0.513,0.475,0.925,1.055,1.234,1.738
			c0.31,0.686,0.465,1.518,0.465,2.502V59.711z"/>
		<path fill="#FFFFFF" d="M238.505,44.016v21.018h-2.068V44.016h-5.482v-1.973h13.033v1.973H238.505z"/>
		<path fill="#FFFFFF" d="M255.898,59.678h-7.278l-1.507,5.355h-2.148l6.733-22.99h1.09l6.766,22.99h-2.132L255.898,59.678z
			 M249.182,57.707h6.172l-3.03-10.598l-0.063-0.85l-0.064,0.85L249.182,57.707z"/>
		<path fill="#FFFFFF" d="M274.351,65.033l-9.587-16.736l-0.192-0.994v17.73h-2.068v-22.99h1.074l9.587,16.754l0.208,0.979V42.043
			h2.068v22.99H274.351z"/>
		<path fill="#FFFFFF" d="M293.195,61.586c-0.295,0.684-0.698,1.283-1.211,1.795c-0.513,0.514-1.114,0.918-1.804,1.211
			c-0.689,0.295-1.424,0.441-2.204,0.441h-7.278v-22.99h7.278c0.78,0,1.515,0.148,2.204,0.441c0.689,0.295,1.291,0.697,1.804,1.211
			s0.916,1.113,1.211,1.803c0.293,0.689,0.44,1.426,0.44,2.205v11.688C293.636,60.17,293.488,60.902,293.195,61.586z
			 M291.567,47.703c0-0.514-0.096-0.992-0.288-1.436s-0.457-0.834-0.794-1.17s-0.727-0.602-1.17-0.793
			c-0.443-0.193-0.922-0.289-1.435-0.289h-5.114v19.045h5.114c0.513,0,0.991-0.096,1.435-0.289c0.443-0.191,0.833-0.453,1.17-0.785
			c0.337-0.33,0.602-0.719,0.794-1.162s0.288-0.922,0.288-1.434V47.703z"/>
		<path fill="#FFFFFF" d="M298.557,65.033v-22.99h2.068v22.99H298.557z"/>
		<path fill="#FFFFFF" d="M317.73,65.033l-9.587-16.736l-0.192-0.994v17.73h-2.068v-22.99h1.074l9.587,16.754l0.208,0.979V42.043
			h2.068v22.99H317.73z"/>
		<path fill="#FFFFFF" d="M336.679,65.033h-0.657l-1.202-1.844c-0.503,0.662-1.111,1.189-1.827,1.578
			c-0.717,0.391-1.513,0.586-2.389,0.586H329.4c-0.78,0-1.515-0.146-2.204-0.441c-0.689-0.293-1.29-0.697-1.804-1.211
			c-0.513-0.512-0.916-1.111-1.21-1.795s-0.441-1.416-0.441-2.195V47.367c0-0.781,0.147-1.514,0.441-2.197s0.697-1.283,1.21-1.795
			c0.514-0.514,1.114-0.916,1.804-1.211c0.689-0.293,1.424-0.441,2.204-0.441h1.636c0.78,0,1.512,0.148,2.196,0.441
			c0.684,0.295,1.282,0.697,1.795,1.211c0.514,0.512,0.917,1.111,1.211,1.795s0.44,1.416,0.44,2.197v0.93l-2.067,0.32v-1.25
			c0-0.514-0.097-0.992-0.289-1.436s-0.454-0.83-0.785-1.162c-0.332-0.332-0.719-0.594-1.162-0.785
			c-0.444-0.193-0.922-0.289-1.436-0.289h-1.442c-0.513,0-0.991,0.096-1.435,0.289c-0.444,0.191-0.834,0.453-1.171,0.785
			c-0.336,0.332-0.601,0.719-0.793,1.162s-0.289,0.922-0.289,1.436v12.344c0,0.512,0.097,0.99,0.289,1.434s0.457,0.834,0.793,1.17
			c0.337,0.338,0.727,0.602,1.171,0.795c0.443,0.191,0.922,0.289,1.435,0.289h1.442c0.514,0,0.991-0.098,1.436-0.289
			c0.443-0.193,0.83-0.457,1.162-0.795c0.331-0.336,0.593-0.727,0.785-1.17s0.289-0.922,0.289-1.434v-4.795h-3.672v-1.971h5.739
			V65.033z"/>
	</g>
	<g>
		<path fill="#FFFFFF" d="M134.522,85.709c-0.173,0.4-0.409,0.752-0.71,1.053c-0.302,0.301-0.654,0.537-1.059,0.711
			c-0.405,0.172-0.836,0.258-1.294,0.258h-4.271V74.238h4.271c0.458,0,0.889,0.088,1.294,0.26c0.404,0.172,0.757,0.408,1.059,0.711
			c0.301,0.301,0.537,0.652,0.71,1.059c0.173,0.404,0.259,0.836,0.259,1.293v0.131c0,0.32-0.042,0.627-0.127,0.918
			s-0.206,0.563-0.362,0.814c-0.157,0.25-0.342,0.479-0.555,0.682c-0.214,0.203-0.452,0.375-0.716,0.512
			c0.264,0.139,0.502,0.311,0.716,0.514c0.213,0.203,0.397,0.434,0.555,0.688c0.156,0.254,0.277,0.525,0.362,0.818
			c0.085,0.291,0.127,0.598,0.127,0.916v0.867C134.781,84.877,134.695,85.307,134.522,85.709z M133.567,77.561
			c0-0.301-0.057-0.582-0.169-0.842c-0.113-0.26-0.269-0.49-0.466-0.688c-0.198-0.197-0.427-0.354-0.688-0.465
			c-0.26-0.113-0.541-0.17-0.842-0.17h-3.001v4.648h3.001c0.301,0,0.582-0.057,0.842-0.17c0.261-0.113,0.489-0.268,0.688-0.467
			c0.197-0.197,0.353-0.426,0.466-0.686c0.112-0.26,0.169-0.541,0.169-0.842V77.561z M133.567,83.355
			c0-0.301-0.057-0.582-0.169-0.842c-0.113-0.26-0.269-0.488-0.466-0.682c-0.198-0.195-0.427-0.348-0.688-0.461
			c-0.26-0.113-0.541-0.17-0.842-0.17h-3.001v5.373h3.001c0.301,0,0.582-0.057,0.842-0.17c0.261-0.113,0.489-0.266,0.688-0.461
			c0.197-0.195,0.353-0.422,0.466-0.682c0.112-0.26,0.169-0.541,0.169-0.842V83.355z"/>
		<path fill="#FFFFFF" d="M142.157,84.588h-4.271l-0.884,3.143h-1.261l3.951-13.492h0.64l3.971,13.492h-1.251L142.157,84.588z
			 M138.216,83.432h3.622l-1.778-6.219l-0.038-0.5l-0.037,0.5L138.216,83.432z"/>
		<path fill="#FFFFFF" d="M153.43,84.607c0,0.457-0.093,0.887-0.278,1.289c-0.185,0.4-0.433,0.752-0.743,1.053
			c-0.311,0.303-0.671,0.539-1.082,0.711c-0.41,0.172-0.845,0.26-1.303,0.26h-0.969c-0.458,0-0.893-0.088-1.304-0.26
			c-0.41-0.172-0.771-0.408-1.082-0.711c-0.311-0.301-0.558-0.652-0.743-1.053c-0.185-0.402-0.277-0.832-0.277-1.289V84.07
			l1.214-0.197v0.734c0,0.301,0.061,0.582,0.184,0.842c0.122,0.26,0.287,0.49,0.494,0.688c0.206,0.197,0.446,0.352,0.72,0.465
			c0.272,0.113,0.56,0.17,0.86,0.17h0.847c0.301,0,0.587-0.057,0.856-0.17s0.508-0.268,0.715-0.465s0.372-0.428,0.494-0.688
			s0.184-0.541,0.184-0.842v-0.404c0-0.465-0.091-0.85-0.273-1.158c-0.182-0.307-0.423-0.568-0.724-0.785
			c-0.302-0.217-0.642-0.4-1.021-0.551c-0.379-0.15-0.77-0.301-1.171-0.451s-0.792-0.316-1.172-0.498
			c-0.379-0.182-0.72-0.41-1.021-0.684c-0.301-0.271-0.543-0.605-0.725-1.002c-0.182-0.395-0.272-0.881-0.272-1.457v-0.254
			c0-0.459,0.086-0.889,0.259-1.289c0.172-0.402,0.409-0.754,0.71-1.055s0.654-0.537,1.059-0.709c0.404-0.174,0.836-0.26,1.294-0.26
			h0.865c0.458,0,0.888,0.086,1.289,0.26c0.401,0.172,0.753,0.408,1.054,0.709s0.538,0.652,0.71,1.055
			c0.173,0.4,0.259,0.83,0.259,1.289v0.348l-1.214,0.197v-0.545c0-0.301-0.056-0.582-0.169-0.842
			c-0.113-0.262-0.267-0.488-0.461-0.684c-0.194-0.193-0.422-0.348-0.683-0.461c-0.26-0.111-0.541-0.168-0.842-0.168h-0.753
			c-0.301,0-0.581,0.057-0.842,0.168c-0.26,0.113-0.489,0.268-0.687,0.461c-0.197,0.195-0.353,0.422-0.466,0.684
			c-0.113,0.26-0.169,0.541-0.169,0.842v0.254c0,0.432,0.091,0.797,0.272,1.092s0.423,0.547,0.725,0.756
			c0.301,0.211,0.641,0.393,1.021,0.547s0.77,0.311,1.172,0.471c0.401,0.16,0.791,0.334,1.171,0.525s0.72,0.428,1.021,0.707
			c0.302,0.279,0.543,0.619,0.725,1.02c0.182,0.402,0.273,0.891,0.273,1.469V84.607z"/>
		<path fill="#FFFFFF" d="M156.035,87.73V74.238h1.214V87.73H156.035z"/>
		<path fill="#FFFFFF" d="M167.472,85.896c-0.173,0.4-0.409,0.752-0.711,1.053c-0.301,0.303-0.652,0.539-1.054,0.711
			s-0.831,0.26-1.289,0.26h-0.959c-0.458,0-0.89-0.088-1.294-0.26s-0.758-0.408-1.059-0.711c-0.301-0.301-0.538-0.652-0.71-1.053
			c-0.173-0.402-0.259-0.832-0.259-1.289v-7.244c0-0.459,0.086-0.889,0.259-1.289c0.172-0.402,0.409-0.754,0.71-1.055
			s0.654-0.537,1.059-0.709c0.404-0.174,0.836-0.26,1.294-0.26h0.959c0.458,0,0.888,0.086,1.289,0.26
			c0.401,0.172,0.753,0.408,1.054,0.709c0.302,0.301,0.538,0.652,0.711,1.055c0.172,0.4,0.259,0.83,0.259,1.289v0.545l-1.214,0.188
			v-0.732c0-0.301-0.057-0.582-0.17-0.842c-0.112-0.262-0.267-0.488-0.461-0.684c-0.194-0.193-0.422-0.348-0.682-0.461
			c-0.261-0.111-0.541-0.168-0.842-0.168h-0.848c-0.301,0-0.581,0.057-0.842,0.168c-0.26,0.113-0.489,0.268-0.687,0.461
			c-0.197,0.195-0.353,0.422-0.466,0.684c-0.113,0.26-0.169,0.541-0.169,0.842v7.244c0,0.301,0.056,0.582,0.169,0.842
			s0.269,0.49,0.466,0.688s0.427,0.352,0.687,0.465c0.261,0.113,0.541,0.17,0.842,0.17h0.848c0.301,0,0.581-0.057,0.842-0.17
			c0.26-0.113,0.487-0.268,0.682-0.465s0.349-0.428,0.461-0.688c0.113-0.26,0.17-0.541,0.17-0.842v-0.734l1.214,0.197v0.537
			C167.73,85.064,167.644,85.494,167.472,85.896z"/>
		<path fill="#F6E42F" d="M178.137,75.396V87.73h-1.214V75.396h-3.218v-1.158h7.649v1.158H178.137z"/>
		<path fill="#F6E42F" d="M183.283,87.73V74.238h7.593v1.158h-6.379v5.016h5.165v1.156h-5.165v5.006h6.379v1.156H183.283z"/>
		<path fill="#F6E42F" d="M200.327,85.896c-0.173,0.4-0.409,0.752-0.711,1.053c-0.301,0.303-0.652,0.539-1.054,0.711
			s-0.831,0.26-1.289,0.26h-0.959c-0.458,0-0.89-0.088-1.294-0.26s-0.758-0.408-1.059-0.711c-0.301-0.301-0.538-0.652-0.71-1.053
			c-0.173-0.402-0.259-0.832-0.259-1.289v-7.244c0-0.459,0.086-0.889,0.259-1.289c0.172-0.402,0.409-0.754,0.71-1.055
			s0.654-0.537,1.059-0.709c0.404-0.174,0.836-0.26,1.294-0.26h0.959c0.458,0,0.888,0.086,1.289,0.26
			c0.401,0.172,0.753,0.408,1.054,0.709c0.302,0.301,0.538,0.652,0.711,1.055c0.172,0.4,0.259,0.83,0.259,1.289v0.545l-1.214,0.188
			v-0.732c0-0.301-0.057-0.582-0.17-0.842c-0.112-0.262-0.267-0.488-0.461-0.684c-0.194-0.193-0.422-0.348-0.682-0.461
			c-0.261-0.111-0.541-0.168-0.842-0.168h-0.848c-0.301,0-0.581,0.057-0.842,0.168c-0.26,0.113-0.489,0.268-0.687,0.461
			c-0.197,0.195-0.353,0.422-0.466,0.684c-0.113,0.26-0.169,0.541-0.169,0.842v7.244c0,0.301,0.056,0.582,0.169,0.842
			s0.269,0.49,0.466,0.688s0.427,0.352,0.687,0.465c0.261,0.113,0.541,0.17,0.842,0.17h0.848c0.301,0,0.581-0.057,0.842-0.17
			c0.26-0.113,0.487-0.268,0.682-0.465s0.349-0.428,0.461-0.688c0.113-0.26,0.17-0.541,0.17-0.842v-0.734l1.214,0.197v0.537
			C200.586,85.064,200.499,85.494,200.327,85.896z"/>
		<path fill="#F6E42F" d="M209.665,87.73v-6.162H204.5v6.162h-1.214V74.238h1.214v6.174h5.165v-6.174h1.214V87.73H209.665z"/>
		<path fill="#F6E42F" d="M220.918,87.73l-5.627-9.822l-0.112-0.584V87.73h-1.214V74.238h0.631l5.626,9.832l0.122,0.574V74.238
			h1.214V87.73H220.918z"/>
		<path fill="#F6E42F" d="M224.644,87.73V74.238h1.214V87.73H224.644z"/>
		<path fill="#F6E42F" d="M236.08,85.896c-0.173,0.4-0.409,0.752-0.711,1.053c-0.301,0.303-0.652,0.539-1.054,0.711
			s-0.831,0.26-1.289,0.26h-0.959c-0.458,0-0.89-0.088-1.294-0.26s-0.758-0.408-1.059-0.711c-0.301-0.301-0.538-0.652-0.71-1.053
			c-0.173-0.402-0.259-0.832-0.259-1.289v-7.244c0-0.459,0.086-0.889,0.259-1.289c0.172-0.402,0.409-0.754,0.71-1.055
			s0.654-0.537,1.059-0.709c0.404-0.174,0.836-0.26,1.294-0.26h0.959c0.458,0,0.888,0.086,1.289,0.26
			c0.401,0.172,0.753,0.408,1.054,0.709c0.302,0.301,0.538,0.652,0.711,1.055c0.172,0.4,0.259,0.83,0.259,1.289v0.545l-1.214,0.188
			v-0.732c0-0.301-0.057-0.582-0.17-0.842c-0.112-0.262-0.267-0.488-0.461-0.684c-0.194-0.193-0.422-0.348-0.682-0.461
			c-0.261-0.111-0.541-0.168-0.842-0.168h-0.848c-0.301,0-0.581,0.057-0.842,0.168c-0.26,0.113-0.489,0.268-0.687,0.461
			c-0.197,0.195-0.353,0.422-0.466,0.684c-0.113,0.26-0.169,0.541-0.169,0.842v7.244c0,0.301,0.056,0.582,0.169,0.842
			s0.269,0.49,0.466,0.688s0.427,0.352,0.687,0.465c0.261,0.113,0.541,0.17,0.842,0.17h0.848c0.301,0,0.581-0.057,0.842-0.17
			c0.26-0.113,0.487-0.268,0.682-0.465s0.349-0.428,0.461-0.688c0.113-0.26,0.17-0.541,0.17-0.842v-0.734l1.214,0.197v0.537
			C236.339,85.064,236.252,85.494,236.08,85.896z"/>
		<path fill="#F6E42F" d="M244.101,84.588h-4.271l-0.884,3.143h-1.261l3.951-13.492h0.64l3.971,13.492h-1.251L244.101,84.588z
			 M240.159,83.432h3.622l-1.778-6.219l-0.038-0.5l-0.037,0.5L240.159,83.432z"/>
		<path fill="#F6E42F" d="M247.78,87.73V74.238h1.214v12.336h5.165v1.156H247.78z"/>
		<path fill="#FFFFFF" d="M260.322,87.73V74.238h1.214v12.336h5.165v1.156H260.322z"/>
		<path fill="#FFFFFF" d="M273.691,84.588h-4.271l-0.884,3.143h-1.261l3.951-13.492h0.64l3.971,13.492h-1.251L273.691,84.588z
			 M269.75,83.432h3.622l-1.778-6.219l-0.038-0.5l-0.037,0.5L269.75,83.432z"/>
		<path fill="#FFFFFF" d="M284.521,87.73l-5.627-9.822l-0.112-0.584V87.73h-1.214V74.238h0.631l5.626,9.832l0.122,0.574V74.238
			h1.214V87.73H284.521z"/>
		<path fill="#FFFFFF" d="M295.643,87.73h-0.386l-0.706-1.082c-0.295,0.389-0.652,0.699-1.072,0.928
			c-0.421,0.229-0.888,0.344-1.402,0.344h-0.705c-0.458,0-0.89-0.088-1.294-0.26s-0.758-0.408-1.059-0.711
			c-0.301-0.301-0.538-0.652-0.71-1.053c-0.173-0.402-0.259-0.832-0.259-1.289v-7.244c0-0.459,0.086-0.889,0.259-1.289
			c0.172-0.402,0.409-0.754,0.71-1.055s0.654-0.537,1.059-0.709c0.404-0.174,0.836-0.26,1.294-0.26h0.959
			c0.458,0,0.888,0.086,1.289,0.26c0.401,0.172,0.753,0.408,1.054,0.709c0.302,0.301,0.538,0.652,0.711,1.055
			c0.172,0.4,0.259,0.83,0.259,1.289v0.545l-1.214,0.188v-0.732c0-0.301-0.057-0.582-0.17-0.842
			c-0.112-0.262-0.267-0.488-0.461-0.684c-0.194-0.193-0.422-0.348-0.682-0.461c-0.261-0.111-0.541-0.168-0.842-0.168h-0.848
			c-0.301,0-0.581,0.057-0.842,0.168c-0.26,0.113-0.489,0.268-0.687,0.461c-0.197,0.195-0.353,0.422-0.466,0.684
			c-0.113,0.26-0.169,0.541-0.169,0.842v7.244c0,0.301,0.056,0.582,0.169,0.842s0.269,0.49,0.466,0.688s0.427,0.352,0.687,0.465
			c0.261,0.113,0.541,0.17,0.842,0.17h0.848c0.301,0,0.581-0.057,0.842-0.17c0.26-0.113,0.487-0.268,0.682-0.465
			s0.349-0.428,0.461-0.688c0.113-0.26,0.17-0.541,0.17-0.842v-2.813h-2.154v-1.158h3.368V87.73z"/>
		<path fill="#FFFFFF" d="M305.677,85.896c-0.173,0.4-0.409,0.752-0.711,1.053c-0.301,0.303-0.652,0.539-1.054,0.711
			s-0.831,0.26-1.289,0.26h-0.959c-0.458,0-0.89-0.088-1.294-0.26s-0.758-0.408-1.059-0.711c-0.301-0.301-0.538-0.652-0.71-1.053
			c-0.173-0.402-0.259-0.832-0.259-1.289V74.238h1.214v10.369c0,0.301,0.056,0.582,0.169,0.842s0.269,0.49,0.466,0.688
			s0.427,0.352,0.687,0.465c0.261,0.113,0.541,0.17,0.842,0.17h0.848c0.301,0,0.581-0.057,0.842-0.17
			c0.26-0.113,0.487-0.268,0.682-0.465s0.349-0.428,0.461-0.688c0.113-0.26,0.17-0.541,0.17-0.842V74.238h1.214v10.369
			C305.936,85.064,305.849,85.494,305.677,85.896z"/>
		<path fill="#FFFFFF" d="M313.895,84.588h-4.271l-0.884,3.143h-1.261l3.951-13.492h0.64l3.971,13.492h-1.251L313.895,84.588z
			 M309.953,83.432h3.622l-1.778-6.219l-0.038-0.5l-0.037,0.5L309.953,83.432z"/>
		<path fill="#FFFFFF" d="M325.167,87.73h-0.386l-0.706-1.082c-0.295,0.389-0.652,0.699-1.072,0.928
			c-0.421,0.229-0.888,0.344-1.402,0.344h-0.705c-0.458,0-0.89-0.088-1.294-0.26s-0.758-0.408-1.059-0.711
			c-0.301-0.301-0.538-0.652-0.71-1.053c-0.173-0.402-0.259-0.832-0.259-1.289v-7.244c0-0.459,0.086-0.889,0.259-1.289
			c0.172-0.402,0.409-0.754,0.71-1.055s0.654-0.537,1.059-0.709c0.404-0.174,0.836-0.26,1.294-0.26h0.959
			c0.458,0,0.888,0.086,1.289,0.26c0.401,0.172,0.753,0.408,1.054,0.709c0.302,0.301,0.538,0.652,0.711,1.055
			c0.172,0.4,0.259,0.83,0.259,1.289v0.545l-1.214,0.188v-0.732c0-0.301-0.057-0.582-0.17-0.842
			c-0.112-0.262-0.267-0.488-0.461-0.684c-0.194-0.193-0.422-0.348-0.682-0.461c-0.261-0.111-0.541-0.168-0.842-0.168h-0.848
			c-0.301,0-0.581,0.057-0.842,0.168c-0.26,0.113-0.489,0.268-0.687,0.461c-0.197,0.195-0.353,0.422-0.466,0.684
			c-0.113,0.26-0.169,0.541-0.169,0.842v7.244c0,0.301,0.056,0.582,0.169,0.842s0.269,0.49,0.466,0.688s0.427,0.352,0.687,0.465
			c0.261,0.113,0.541,0.17,0.842,0.17h0.848c0.301,0,0.581-0.057,0.842-0.17c0.26-0.113,0.487-0.268,0.682-0.465
			s0.349-0.428,0.461-0.688c0.113-0.26,0.17-0.541,0.17-0.842v-2.813h-2.154v-1.158h3.368V87.73z"/>
		<path fill="#FFFFFF" d="M328.064,87.73V74.238h7.593v1.158h-6.379v5.016h5.165v1.156h-5.165v5.006h6.379v1.156H328.064z"/>
	</g>
</g>
</svg>
