<?xml version="1.0" encoding="utf-8"?>
<!-- Generator: Adobe Illustrator 16.0.0, SVG Export Plug-In . SVG Version: 6.00 Build 0)  -->
<!DOCTYPE svg PUBLIC "-//W3C//DTD SVG 1.1//EN" "http://www.w3.org/Graphics/SVG/1.1/DTD/svg11.dtd">
<svg version="1.1" id="Capa_1" xmlns="http://www.w3.org/2000/svg" xmlns:xlink="http://www.w3.org/1999/xlink" x="0px" y="0px"
	 width="148.704px" height="146.608px" viewBox="0 0 148.704 146.608" enable-background="new 0 0 148.704 146.608"
	 xml:space="preserve">
<g>
	<path opacity="0.9" fill-rule="evenodd" clip-rule="evenodd" fill="#9B1212" d="M36.705,23.994h14.819c0-3.05,0-6.086,0-9.181
		c9.732,0,19.384,0,29.188,0c0,3.106,0,6.127,0,9.181h14.733c-0.01-3.373-0.058-6.745,0.018-10.115
		c0.091-4.143-1.587-7.427-4.655-10.061C87.776,1.217,84.219-0.002,80.236,0c-9.428,0.003-18.853-0.008-28.279,0.015
		c-1.083,0.001-2.18,0.091-3.243,0.281c-5.416,0.964-12.432,5.731-12.037,14.201C36.825,17.657,36.722,20.827,36.705,23.994z"/>
	<linearGradient id="SVGID_1_" gradientUnits="userSpaceOnUse" x1="0" y1="75.5947" x2="132.1958" y2="75.5947">
		<stop  offset="0" style="stop-color:#EC6421"/>
		<stop  offset="0.4099" style="stop-color:#EA6122"/>
		<stop  offset="0.6575" style="stop-color:#E45926"/>
		<stop  offset="0.8613" style="stop-color:#D94B2E"/>
		<stop  offset="1" style="stop-color:#CE3C35"/>
	</linearGradient>
	<path opacity="0.8" fill-rule="evenodd" clip-rule="evenodd" fill="url(#SVGID_1_)" d="M132.056,38.337
		c-0.183-5.736-4.484-10.574-10.138-11.629c-2.515-0.47-5.15-0.354-7.731-0.374c-5.385-0.04-10.789-0.021-16.296-0.017v0.002H96.41
		c-0.296,0-0.585,0.001-0.883,0.001c0-0.001,0-0.001,0-0.001H36.602c0,0,0,0,0,0.001c-0.734,0-1.298,0-1.86,0
		c-7.044,0-14.087-0.017-21.13,0.005C5.733,26.354,0.12,31.807,0.094,39.662C0.015,63.641-0.008,87.62,0.002,111.599
		c0.005,7.469,5.749,13.238,13.195,13.256c19.732,0.045,39.465,0.023,59.197-0.016c0.634-0.001,1.422-0.32,1.875-0.763
		c3.413-3.323,6.743-6.735,10.141-10.073c0.668-0.652,0.749-1.139,0.32-1.988c-3.688-7.312-4.754-15.015-3.383-23.088
		c3.275-19.296,22.432-32.987,41.703-29.686c3.029,0.519,5.984,1.46,9.016,2.217c0.003-0.004,0.094-0.145,0.094-0.283
		C132.151,53.562,132.296,45.944,132.056,38.337z"/>
	<linearGradient id="SVGID_2_" gradientUnits="userSpaceOnUse" x1="68.1782" y1="106.3564" x2="148.7036" y2="106.3564">
		<stop  offset="0" style="stop-color:#1B0000"/>
		<stop  offset="1" style="stop-color:#651012"/>
	</linearGradient>
	<path fill-rule="evenodd" clip-rule="evenodd" fill="url(#SVGID_2_)" d="M98.836,118.743c-0.353,1.055-0.928,1.961-0.892,2.838
		c0.071,1.641-0.477,2.77-1.64,3.912c-6.798,6.68-13.518,13.438-20.265,20.17c-0.363,0.36-0.74,0.707-0.988,0.945
		c-2.287-2.305-4.53-4.564-6.874-6.924c2.134-2.119,4.492-4.439,6.831-6.779c4.835-4.832,9.693-9.646,14.468-14.538
		c1.062-1.087,2.123-1.588,3.648-1.532c0.899,0.033,1.821-0.451,3.035-0.786c-6.383-7.864-8.711-16.358-6.893-25.813
		c1.449-7.528,5.391-13.609,11.531-18.203c12.259-9.17,29.543-7.531,39.942,3.742c10.366,11.24,10.638,28.441,0.65,39.998
		C131.106,127.675,112.585,130.118,98.836,118.743z M118.66,75.376c-11.495,0.017-20.767,9.279-20.769,20.742
		c0,11.536,9.324,20.803,20.898,20.766c11.479-0.035,20.704-9.322,20.679-20.816C139.443,84.591,130.159,75.36,118.66,75.376z"/>
	<path fill-rule="evenodd" clip-rule="evenodd" fill="#FFFFFF" d="M118.66,75.376c11.499-0.016,20.783,9.215,20.809,20.691
		c0.025,11.494-9.2,20.781-20.679,20.816c-11.574,0.037-20.898-9.229-20.898-20.766C97.893,84.655,107.165,75.393,118.66,75.376z"/>
	<linearGradient id="SVGID_3_" gradientUnits="userSpaceOnUse" x1="0" y1="75.5908" x2="15.2319" y2="75.5908">
		<stop  offset="0" style="stop-color:#1B0000"/>
		<stop  offset="1" style="stop-color:#651012"/>
	</linearGradient>
	<path fill-rule="evenodd" clip-rule="evenodd" fill="url(#SVGID_3_)" d="M15.232,26.326c-0.538,0.001-1.081-0.001-1.62,0
		C5.733,26.354,0.12,31.807,0.094,39.662C0.015,63.641-0.008,87.62,0.002,111.599c0.005,7.469,5.749,13.238,13.195,13.256
		c0.678,0.002,1.356-0.002,2.034-0.001V26.326z"/>
	<linearGradient id="SVGID_4_" gradientUnits="userSpaceOnUse" x1="124.4897" y1="26.3413" x2="124.4897" y2="61.4575">
		<stop  offset="0" style="stop-color:#1B0000"/>
		<stop  offset="1" style="stop-color:#651012"/>
	</linearGradient>
	<path fill-rule="evenodd" clip-rule="evenodd" fill="url(#SVGID_4_)" d="M121.918,26.708c-1.674-0.313-3.403-0.361-5.135-0.367
		v32.447c2.076-0.029,4.169,0.093,6.268,0.453c3.029,0.519,5.984,1.46,9.016,2.217c0.003-0.004,0.094-0.145,0.094-0.283
		c-0.01-7.613,0.136-15.23-0.104-22.837C131.874,32.602,127.572,27.763,121.918,26.708z"/>
</g>
</svg>
