<?xml version="1.0" encoding="utf-8"?>
<!-- Generator: Adobe Illustrator 16.0.0, SVG Export Plug-In . SVG Version: 6.00 Build 0)  -->
<!DOCTYPE svg PUBLIC "-//W3C//DTD SVG 1.1//EN" "http://www.w3.org/Graphics/SVG/1.1/DTD/svg11.dtd">
<svg version="1.1" id="Capa_1" xmlns="http://www.w3.org/2000/svg" xmlns:xlink="http://www.w3.org/1999/xlink" x="0px" y="0px"
	 width="581.312px" height="266.129px" viewBox="0 0 581.312 266.129" enable-background="new 0 0 581.312 266.129"
	 xml:space="preserve">
<g>
	<linearGradient id="SVGID_1_" gradientUnits="userSpaceOnUse" x1="77.3867" y1="95.6294" x2="77.3867" y2="172.1357">
		<stop  offset="0" style="stop-color:#EC6421"/>
		<stop  offset="0.4099" style="stop-color:#EA6122"/>
		<stop  offset="0.6575" style="stop-color:#E45926"/>
		<stop  offset="0.8613" style="stop-color:#D94B2E"/>
		<stop  offset="1" style="stop-color:#CE3C35"/>
	</linearGradient>
	<path fill="url(#SVGID_1_)" stroke="#351C00" stroke-width="3" stroke-miterlimit="10" d="M153.273,160.135c0,6.627-5.373,12-12,12
		H13.5c-6.628,0-12-5.373-12-12v-52.506c0-6.627,5.372-12,12-12h127.773c6.627,0,12,5.373,12,12V160.135z"/>
	<path fill="#FFB666" stroke="#351C00" stroke-width="3" stroke-miterlimit="10" d="M366.317,66.004c0,6.629-5.373,12-12,12H226.544
		c-6.628,0-12-5.371-12-12V13.5c0-6.629,5.372-12,12-12h127.773c6.627,0,12,5.371,12,12V66.004z"/>
	<path fill="#E5E5E5" stroke="#351C00" stroke-width="3" stroke-miterlimit="10" d="M579.812,66.006c0,6.627-5.373,12-12,12H440.038
		c-6.628,0-12-5.373-12-12V13.5c0-6.627,5.372-12,12-12h127.773c6.627,0,12,5.373,12,12V66.006z"/>
	<path fill="#E5E5E5" stroke="#351C00" stroke-width="3" stroke-miterlimit="10" d="M579.812,159.252c0,6.627-5.373,12-12,12
		H440.038c-6.628,0-12-5.373-12-12v-52.506c0-6.627,5.372-12,12-12h127.773c6.627,0,12,5.373,12,12V159.252z"/>
	<path fill="#E5E5E5" stroke="#351C00" stroke-width="3" stroke-miterlimit="10" d="M579.812,252.629c0,6.627-5.373,12-12,12
		H440.038c-6.628,0-12-5.373-12-12v-52.506c0-6.627,5.372-12,12-12h127.773c6.627,0,12,5.373,12,12V252.629z"/>
	<path fill="#FFB666" stroke="#351C00" stroke-width="3" stroke-miterlimit="10" d="M366.317,160.135c0,6.627-5.373,12-12,12
		H226.544c-6.628,0-12-5.373-12-12v-52.506c0-6.627,5.372-12,12-12h127.773c6.627,0,12,5.373,12,12V160.135z"/>
	<path fill="#FFB666" stroke="#351C00" stroke-width="3" stroke-miterlimit="10" d="M366.317,252.629c0,6.627-5.373,12-12,12
		H226.544c-6.628,0-12-5.373-12-12v-52.506c0-6.627,5.372-12,12-12h127.773c6.627,0,12,5.373,12,12V252.629z"/>
	<line fill="none" stroke="#351C00" stroke-width="3" stroke-miterlimit="10" x1="152.808" y1="133" x2="214.544" y2="39.752"/>
	<line fill="none" stroke="#351C00" stroke-width="3" stroke-miterlimit="10" x1="152.808" y1="133" x2="214.063" y2="226.375"/>
	<line fill="none" stroke="#351C00" stroke-width="3" stroke-miterlimit="10" x1="366.317" y1="133" x2="428.038" y2="133"/>
	<line fill="none" stroke="#351C00" stroke-width="3" stroke-miterlimit="10" x1="152.808" y1="133" x2="214.528" y2="133"/>
	<line fill="none" stroke="#351C00" stroke-width="3" stroke-miterlimit="10" x1="366.317" y1="39.752" x2="428.038" y2="39.752"/>
	
		<line fill="none" stroke="#351C00" stroke-width="3" stroke-miterlimit="10" x1="366.317" y1="226.375" x2="428.038" y2="226.375"/>
	<g opacity="0.8">
		<path d="M39.577,122.903v-12.885h4.175c1.582,0,2.613,0.064,3.094,0.193c0.738,0.193,1.356,0.615,1.854,1.262
			c0.498,0.648,0.747,1.484,0.747,2.51c0,0.791-0.144,1.455-0.431,1.994s-0.652,0.963-1.095,1.271
			c-0.442,0.307-0.892,0.51-1.349,0.609c-0.621,0.123-1.521,0.186-2.698,0.186h-1.696v4.859H39.577z M42.179,112.198v3.656h1.424
			c1.025,0,1.711-0.066,2.057-0.201s0.616-0.346,0.813-0.633c0.195-0.287,0.294-0.621,0.294-1.002c0-0.469-0.138-0.855-0.413-1.16
			s-0.624-0.496-1.046-0.572c-0.311-0.059-0.935-0.088-1.872-0.088H42.179z"/>
		<path d="M53.93,122.903h-2.47v-9.334h2.294v1.328c0.393-0.627,0.745-1.041,1.059-1.24s0.67-0.299,1.068-0.299
			c0.563,0,1.104,0.156,1.626,0.467l-0.765,2.152c-0.416-0.27-0.803-0.404-1.16-0.404c-0.346,0-0.639,0.096-0.879,0.287
			c-0.24,0.189-0.43,0.533-0.566,1.031c-0.139,0.498-0.207,1.541-0.207,3.129V122.903z"/>
		<path d="M57.999,118.104c0-0.82,0.202-1.613,0.606-2.381s0.977-1.354,1.719-1.758c0.74-0.404,1.568-0.607,2.482-0.607
			c1.412,0,2.569,0.459,3.472,1.377c0.902,0.916,1.354,2.074,1.354,3.475c0,1.412-0.456,2.584-1.366,3.512
			c-0.912,0.93-2.059,1.393-3.441,1.393c-0.855,0-1.672-0.193-2.447-0.58c-0.777-0.387-1.367-0.953-1.771-1.699
			C58.201,120.086,57.999,119.176,57.999,118.104z M60.53,118.237c0,0.926,0.22,1.635,0.659,2.127s0.981,0.738,1.626,0.738
			s1.185-0.246,1.622-0.738c0.436-0.492,0.654-1.207,0.654-2.145c0-0.914-0.219-1.617-0.654-2.109
			c-0.438-0.492-0.978-0.738-1.622-0.738s-1.187,0.246-1.626,0.738S60.53,117.311,60.53,118.237z"/>
		<path d="M69.46,122.903v-12.885h2.47v4.641c0.762-0.867,1.664-1.301,2.707-1.301c1.137,0,2.077,0.412,2.821,1.236
			c0.744,0.822,1.116,2.004,1.116,3.545c0,1.594-0.38,2.822-1.139,3.684s-1.68,1.291-2.764,1.291c-0.533,0-1.059-0.133-1.578-0.398
			c-0.518-0.268-0.965-0.662-1.34-1.184v1.371H69.46z M71.912,118.034c0,0.967,0.152,1.682,0.457,2.145
			c0.428,0.656,0.996,0.984,1.705,0.984c0.545,0,1.009-0.232,1.393-0.697c0.384-0.467,0.576-1.201,0.576-2.203
			c0-1.066-0.193-1.834-0.58-2.307c-0.387-0.471-0.882-0.707-1.485-0.707c-0.592,0-1.084,0.23-1.477,0.689
			C72.108,116.399,71.912,117.096,71.912,118.034z"/>
		<path d="M80.561,122.903v-12.885h2.47v12.885H80.561z"/>
		<path d="M90.967,119.932l2.461,0.414c-0.316,0.902-0.816,1.59-1.498,2.061c-0.684,0.473-1.537,0.707-2.563,0.707
			c-1.623,0-2.824-0.529-3.604-1.59c-0.615-0.85-0.923-1.922-0.923-3.217c0-1.547,0.404-2.758,1.213-3.635
			c0.809-0.875,1.831-1.314,3.067-1.314c1.389,0,2.484,0.459,3.287,1.377c0.803,0.916,1.187,2.32,1.151,4.213h-6.188
			c0.018,0.732,0.217,1.303,0.598,1.711c0.381,0.406,0.855,0.609,1.424,0.609c0.387,0,0.712-0.105,0.976-0.316
			S90.832,120.401,90.967,119.932z M91.107,117.436c-0.018-0.715-0.202-1.258-0.554-1.629c-0.352-0.373-0.779-0.559-1.283-0.559
			c-0.539,0-0.984,0.195-1.336,0.588s-0.524,0.926-0.519,1.6H91.107z"/>
		<path d="M95.388,113.569h2.276v1.275c0.814-0.99,1.784-1.486,2.909-1.486c0.598,0,1.116,0.123,1.556,0.369s0.8,0.619,1.081,1.117
			c0.41-0.498,0.853-0.871,1.327-1.117s0.981-0.369,1.521-0.369c0.686,0,1.266,0.141,1.74,0.418
			c0.475,0.279,0.829,0.688,1.063,1.227c0.17,0.398,0.255,1.043,0.255,1.934v5.967h-2.47v-5.334c0-0.926-0.085-1.523-0.255-1.793
			c-0.229-0.352-0.58-0.527-1.055-0.527c-0.346,0-0.671,0.105-0.976,0.316s-0.524,0.52-0.659,0.928
			c-0.135,0.406-0.202,1.049-0.202,1.928v4.482h-2.47v-5.115c0-0.908-0.044-1.494-0.132-1.758s-0.225-0.459-0.408-0.588
			c-0.186-0.129-0.436-0.193-0.752-0.193c-0.381,0-0.724,0.102-1.028,0.307s-0.522,0.502-0.655,0.889
			c-0.131,0.387-0.197,1.027-0.197,1.924v4.535h-2.47V113.569z"/>
		<path d="M48.182,137.84l2.479-0.377c0.105,0.48,0.319,0.844,0.642,1.094c0.322,0.248,0.773,0.373,1.354,0.373
			c0.639,0,1.119-0.117,1.441-0.352c0.217-0.164,0.325-0.383,0.325-0.658c0-0.188-0.059-0.344-0.176-0.467
			c-0.123-0.117-0.398-0.225-0.826-0.324c-1.992-0.439-3.255-0.842-3.788-1.205c-0.738-0.504-1.107-1.203-1.107-2.1
			c0-0.809,0.319-1.488,0.958-2.039s1.629-0.826,2.971-0.826c1.277,0,2.227,0.207,2.848,0.623s1.049,1.031,1.283,1.846l-2.329,0.432
			c-0.1-0.363-0.289-0.643-0.567-0.836s-0.675-0.289-1.19-0.289c-0.65,0-1.116,0.09-1.397,0.271
			c-0.188,0.129-0.281,0.297-0.281,0.502c0,0.176,0.082,0.324,0.246,0.447c0.223,0.164,0.991,0.396,2.307,0.695
			s2.234,0.664,2.756,1.098c0.516,0.439,0.773,1.053,0.773,1.838c0,0.855-0.357,1.59-1.072,2.205s-1.772,0.924-3.173,0.924
			c-1.271,0-2.278-0.258-3.019-0.773C48.895,139.426,48.41,138.725,48.182,137.84z"/>
		<path d="M58.491,135.706c0-0.82,0.202-1.615,0.606-2.383s0.977-1.354,1.719-1.758c0.74-0.404,1.568-0.605,2.482-0.605
			c1.412,0,2.569,0.457,3.472,1.375c0.902,0.916,1.354,2.076,1.354,3.477c0,1.412-0.456,2.582-1.366,3.51
			c-0.912,0.93-2.059,1.395-3.441,1.395c-0.855,0-1.672-0.193-2.447-0.58c-0.777-0.387-1.367-0.955-1.771-1.701
			C58.693,137.686,58.491,136.778,58.491,135.706z M61.022,135.836c0,0.926,0.22,1.635,0.659,2.127s0.981,0.738,1.626,0.738
			s1.185-0.246,1.622-0.738c0.436-0.492,0.654-1.207,0.654-2.145c0-0.914-0.219-1.617-0.654-2.109
			c-0.438-0.492-0.978-0.738-1.622-0.738s-1.187,0.246-1.626,0.738S61.022,134.911,61.022,135.836z"/>
		<path d="M70.058,140.504V127.62h2.47v12.885H70.058z"/>
		<path d="M77.625,140.504l-3.762-9.334h2.593l1.758,4.764l0.51,1.59c0.135-0.404,0.22-0.67,0.255-0.799
			c0.082-0.264,0.17-0.527,0.264-0.791l1.775-4.764h2.54l-3.709,9.334H77.625z"/>
		<path d="M90.475,137.534l2.461,0.412c-0.316,0.902-0.816,1.59-1.498,2.061c-0.684,0.473-1.537,0.709-2.563,0.709
			c-1.623,0-2.824-0.531-3.604-1.592c-0.615-0.85-0.923-1.922-0.923-3.217c0-1.547,0.404-2.758,1.213-3.635
			c0.809-0.875,1.831-1.313,3.067-1.313c1.389,0,2.484,0.457,3.287,1.375c0.803,0.916,1.187,2.322,1.151,4.215H86.88
			c0.018,0.732,0.217,1.301,0.598,1.709c0.381,0.406,0.855,0.611,1.424,0.611c0.387,0,0.712-0.105,0.976-0.316
			S90.34,138.002,90.475,137.534z M90.615,135.038c-0.018-0.715-0.202-1.26-0.554-1.631c-0.352-0.373-0.779-0.559-1.283-0.559
			c-0.539,0-0.984,0.197-1.336,0.59s-0.524,0.926-0.519,1.6H90.615z"/>
		<path d="M97.444,140.504h-2.47v-9.334h2.294v1.326c0.393-0.627,0.745-1.039,1.06-1.238c0.313-0.199,0.669-0.299,1.067-0.299
			c0.563,0,1.104,0.154,1.626,0.465l-0.765,2.154c-0.416-0.27-0.803-0.404-1.16-0.404c-0.346,0-0.639,0.094-0.879,0.285
			c-0.24,0.189-0.43,0.535-0.567,1.033s-0.206,1.541-0.206,3.129V140.504z"/>
	</g>
	<g opacity="0.8">
		<path d="M254.325,43.895V31.01h4.438c1.002,0,1.767,0.061,2.294,0.184c0.738,0.17,1.368,0.479,1.89,0.924
			c0.68,0.574,1.188,1.309,1.525,2.201c0.336,0.895,0.505,1.914,0.505,3.063c0,0.979-0.114,1.846-0.343,2.602
			s-0.521,1.383-0.879,1.877c-0.357,0.496-0.749,0.885-1.174,1.17c-0.425,0.283-0.938,0.498-1.537,0.645
			c-0.602,0.146-1.291,0.221-2.07,0.221H254.325z M256.03,42.374h2.751c0.85,0,1.516-0.078,2-0.236
			c0.482-0.158,0.868-0.381,1.155-0.668c0.404-0.404,0.719-0.947,0.944-1.631c0.226-0.682,0.339-1.51,0.339-2.482
			c0-1.348-0.222-2.383-0.663-3.107c-0.443-0.723-0.98-1.209-1.613-1.455c-0.457-0.176-1.192-0.264-2.206-0.264h-2.707V42.374z"/>
		<path d="M273.512,40.889l1.635,0.201c-0.258,0.955-0.735,1.697-1.433,2.225s-1.588,0.791-2.672,0.791
			c-1.365,0-2.448-0.42-3.247-1.262c-0.801-0.84-1.2-2.02-1.2-3.537c0-1.57,0.404-2.789,1.213-3.656s1.857-1.301,3.146-1.301
			c1.248,0,2.268,0.424,3.059,1.273s1.187,2.045,1.187,3.586c0,0.094-0.003,0.234-0.009,0.422h-6.961
			c0.059,1.025,0.349,1.811,0.87,2.355s1.172,0.818,1.951,0.818c0.58,0,1.075-0.152,1.485-0.457S273.271,41.557,273.512,40.889z
			 M268.317,38.331h5.212c-0.07-0.785-0.27-1.373-0.598-1.766c-0.504-0.609-1.157-0.914-1.96-0.914
			c-0.727,0-1.338,0.242-1.833,0.729S268.37,37.516,268.317,38.331z"/>
		<path d="M277.511,43.895v-8.104h-1.397v-1.23h1.397v-0.994c0-0.627,0.056-1.092,0.167-1.396c0.152-0.41,0.42-0.742,0.805-0.998
			c0.383-0.254,0.921-0.383,1.612-0.383c0.445,0,0.938,0.053,1.477,0.158l-0.237,1.381c-0.328-0.059-0.639-0.088-0.932-0.088
			c-0.48,0-0.82,0.102-1.02,0.307s-0.299,0.59-0.299,1.152v0.861h1.819v1.23h-1.819v8.104H277.511z"/>
		<path d="M282.143,32.829V31.01h1.582v1.818H282.143z M282.143,43.895v-9.334h1.582v9.334H282.143z"/>
		<path d="M286.133,43.895v-9.334h1.424v1.326c0.686-1.025,1.676-1.537,2.971-1.537c0.563,0,1.079,0.102,1.551,0.303
			c0.472,0.203,0.825,0.467,1.06,0.795s0.398,0.719,0.492,1.17c0.059,0.293,0.088,0.805,0.088,1.537v5.74h-1.582v-5.678
			c0-0.645-0.062-1.127-0.185-1.445c-0.123-0.32-0.342-0.574-0.654-0.766c-0.314-0.189-0.682-0.285-1.104-0.285
			c-0.674,0-1.256,0.213-1.744,0.641c-0.49,0.428-0.734,1.24-0.734,2.436v5.098H286.133z"/>
		<path d="M296.152,32.829V31.01h1.582v1.818H296.152z M296.152,43.895v-9.334h1.582v9.334H296.152z"/>
		<path d="M303.597,42.479l0.229,1.398c-0.445,0.094-0.844,0.141-1.195,0.141c-0.574,0-1.02-0.092-1.336-0.273
			s-0.539-0.42-0.668-0.715c-0.129-0.297-0.193-0.92-0.193-1.869v-5.369h-1.16v-1.23h1.16v-2.313l1.573-0.949v3.262h1.591v1.23
			h-1.591v5.457c0,0.451,0.027,0.742,0.084,0.871c0.055,0.129,0.146,0.23,0.271,0.307s0.307,0.115,0.541,0.115
			C303.078,42.542,303.31,42.52,303.597,42.479z"/>
		<path d="M305.152,32.829V31.01h1.582v1.818H305.152z M305.152,43.895v-9.334h1.582v9.334H305.152z"/>
		<path d="M308.554,39.227c0-1.729,0.48-3.008,1.441-3.84c0.803-0.691,1.781-1.037,2.936-1.037c1.283,0,2.332,0.42,3.146,1.262
			c0.814,0.84,1.222,2.002,1.222,3.484c0,1.201-0.18,2.146-0.541,2.834c-0.359,0.689-0.885,1.223-1.572,1.604
			c-0.689,0.381-1.44,0.572-2.255,0.572c-1.307,0-2.363-0.42-3.169-1.258S308.554,40.803,308.554,39.227z M310.18,39.227
			c0,1.195,0.261,2.092,0.782,2.686c0.521,0.596,1.178,0.893,1.969,0.893c0.785,0,1.438-0.299,1.96-0.896s0.782-1.51,0.782-2.734
			c0-1.154-0.263-2.027-0.786-2.623c-0.525-0.594-1.177-0.893-1.956-0.893c-0.791,0-1.447,0.297-1.969,0.889
			S310.18,38.032,310.18,39.227z"/>
		<path d="M319.153,43.895v-9.334h1.424v1.326c0.686-1.025,1.676-1.537,2.971-1.537c0.563,0,1.079,0.102,1.552,0.303
			c0.471,0.203,0.824,0.467,1.059,0.795s0.398,0.719,0.492,1.17c0.059,0.293,0.088,0.805,0.088,1.537v5.74h-1.582v-5.678
			c0-0.645-0.062-1.127-0.185-1.445c-0.123-0.32-0.342-0.574-0.655-0.766c-0.313-0.189-0.681-0.285-1.103-0.285
			c-0.674,0-1.256,0.213-1.745,0.641s-0.733,1.24-0.733,2.436v5.098H319.153z"/>
	</g>
	<g>
		<path fill="#FFEDD9" d="M53.538,160.788c-0.776-0.979-1.433-2.125-1.969-3.438s-0.805-2.672-0.805-4.078
			c0-1.238,0.2-2.426,0.602-3.563c0.469-1.316,1.192-2.629,2.172-3.938h1.008c-0.63,1.084-1.047,1.857-1.25,2.32
			c-0.317,0.719-0.567,1.469-0.75,2.25c-0.224,0.975-0.336,1.953-0.336,2.938c0,2.506,0.778,5.008,2.336,7.508H53.538z"/>
		<path fill="#FFEDD9" d="M56.179,157.42v-8.297h1.266v1.18c0.609-0.91,1.489-1.367,2.641-1.367c0.5,0,0.96,0.09,1.379,0.27
			s0.733,0.416,0.941,0.707c0.208,0.293,0.354,0.639,0.438,1.039c0.052,0.262,0.078,0.717,0.078,1.367v5.102h-1.406v-5.047
			c0-0.572-0.055-1-0.164-1.285c-0.109-0.283-0.304-0.51-0.582-0.68c-0.278-0.168-0.605-0.254-0.98-0.254
			c-0.599,0-1.116,0.191-1.551,0.57c-0.435,0.381-0.652,1.102-0.652,2.164v4.531H56.179z"/>
		<path fill="#FFEDD9" d="M64.554,153.272c0-1.535,0.427-2.674,1.281-3.414c0.714-0.613,1.583-0.922,2.609-0.922
			c1.141,0,2.073,0.375,2.797,1.121c0.724,0.748,1.086,1.781,1.086,3.098c0,1.068-0.16,1.908-0.48,2.52
			c-0.32,0.613-0.786,1.088-1.398,1.426s-1.28,0.508-2.004,0.508c-1.161,0-2.101-0.371-2.816-1.117
			C64.912,155.747,64.554,154.674,64.554,153.272z M65.999,153.272c0,1.063,0.231,1.859,0.695,2.387
			c0.464,0.529,1.047,0.793,1.75,0.793c0.698,0,1.278-0.266,1.742-0.797s0.695-1.34,0.695-2.43c0-1.025-0.233-1.803-0.699-2.332
			c-0.466-0.527-1.046-0.793-1.738-0.793c-0.703,0-1.286,0.264-1.75,0.789C66.23,151.417,65.999,152.209,65.999,153.272z"/>
		<path fill="#FFEDD9" d="M79.413,157.42v-1.219c-0.646,0.938-1.523,1.406-2.633,1.406c-0.489,0-0.946-0.094-1.371-0.281
			s-0.739-0.422-0.945-0.707c-0.206-0.283-0.351-0.631-0.434-1.043c-0.058-0.275-0.086-0.713-0.086-1.313v-5.141h1.406v4.602
			c0,0.734,0.028,1.23,0.086,1.484c0.089,0.371,0.276,0.66,0.563,0.871s0.641,0.316,1.063,0.316s0.817-0.107,1.188-0.324
			c0.37-0.215,0.632-0.51,0.785-0.883c0.153-0.371,0.23-0.912,0.23-1.621v-4.445h1.406v8.297H79.413z"/>
		<path fill="#FFEDD9" d="M82.874,157.42v-8.297h1.266v1.18c0.609-0.91,1.489-1.367,2.641-1.367c0.5,0,0.96,0.09,1.379,0.27
			s0.733,0.416,0.941,0.707c0.208,0.293,0.354,0.639,0.438,1.039c0.052,0.262,0.078,0.717,0.078,1.367v5.102H88.21v-5.047
			c0-0.572-0.055-1-0.164-1.285c-0.109-0.283-0.304-0.51-0.582-0.68c-0.278-0.168-0.605-0.254-0.98-0.254
			c-0.599,0-1.116,0.191-1.551,0.57c-0.435,0.381-0.652,1.102-0.652,2.164v4.531H82.874z"/>
		<path fill="#FFEDD9" d="M92.694,160.788h-1.008c1.558-2.5,2.336-5.002,2.336-7.508c0-0.979-0.112-1.949-0.336-2.914
			c-0.177-0.781-0.425-1.531-0.742-2.25c-0.203-0.469-0.622-1.25-1.258-2.344h1.008c0.979,1.309,1.703,2.621,2.172,3.938
			c0.401,1.137,0.602,2.324,0.602,3.563c0,1.406-0.27,2.766-0.809,4.078S93.465,159.809,92.694,160.788z"/>
	</g>
	<g opacity="0.8">
		<path d="M253.75,137.366l1.608-0.141c0.076,0.645,0.253,1.174,0.532,1.588c0.277,0.412,0.71,0.746,1.296,1.002
			c0.586,0.254,1.245,0.381,1.978,0.381c0.65,0,1.225-0.096,1.723-0.289s0.868-0.459,1.111-0.795
			c0.243-0.338,0.365-0.705,0.365-1.104c0-0.404-0.117-0.758-0.352-1.059c-0.234-0.303-0.621-0.557-1.16-0.762
			c-0.346-0.135-1.11-0.344-2.294-0.627c-1.184-0.285-2.013-0.553-2.487-0.805c-0.615-0.322-1.074-0.723-1.375-1.199
			c-0.303-0.479-0.453-1.014-0.453-1.605c0-0.65,0.185-1.258,0.554-1.822c0.369-0.566,0.908-0.996,1.617-1.289
			s1.497-0.439,2.364-0.439c0.955,0,1.797,0.154,2.527,0.463c0.729,0.307,1.29,0.76,1.683,1.357s0.604,1.273,0.633,2.029
			l-1.635,0.123c-0.088-0.814-0.386-1.43-0.892-1.846c-0.508-0.416-1.256-0.623-2.246-0.623c-1.031,0-1.783,0.189-2.254,0.566
			c-0.473,0.379-0.708,0.834-0.708,1.367c0,0.463,0.167,0.844,0.501,1.143c0.328,0.299,1.185,0.605,2.57,0.918
			c1.386,0.314,2.337,0.588,2.853,0.822c0.75,0.346,1.304,0.783,1.661,1.314c0.357,0.529,0.536,1.141,0.536,1.832
			c0,0.686-0.196,1.332-0.589,1.938c-0.393,0.607-0.957,1.078-1.691,1.416c-0.736,0.336-1.563,0.504-2.483,0.504
			c-1.166,0-2.144-0.17-2.931-0.51c-0.789-0.34-1.406-0.85-1.855-1.533C254.01,139,253.773,138.227,253.75,137.366z"/>
		<path d="M266.063,145.1l-0.176-1.484c0.346,0.094,0.647,0.141,0.905,0.141c0.352,0,0.633-0.059,0.844-0.176
			s0.384-0.281,0.519-0.492c0.1-0.158,0.261-0.551,0.483-1.178c0.029-0.088,0.076-0.217,0.141-0.387l-3.542-9.352h1.705l1.942,5.404
			c0.252,0.686,0.478,1.406,0.677,2.162c0.182-0.727,0.398-1.436,0.65-2.127l1.995-5.439h1.582l-3.551,9.492
			c-0.381,1.025-0.677,1.73-0.888,2.117c-0.281,0.521-0.604,0.904-0.967,1.148c-0.363,0.242-0.797,0.363-1.301,0.363
			C266.778,145.293,266.438,145.229,266.063,145.1z"/>
		<path d="M275.134,141.506v-9.334h1.424v1.326c0.686-1.025,1.676-1.537,2.971-1.537c0.563,0,1.079,0.102,1.552,0.303
			c0.471,0.203,0.824,0.467,1.059,0.795s0.398,0.719,0.492,1.17c0.059,0.293,0.088,0.805,0.088,1.537v5.74h-1.582v-5.678
			c0-0.645-0.062-1.127-0.185-1.445c-0.123-0.32-0.342-0.574-0.655-0.766c-0.313-0.189-0.681-0.285-1.103-0.285
			c-0.674,0-1.256,0.213-1.745,0.641s-0.733,1.24-0.733,2.436v5.098H275.134z"/>
		<path d="M284.556,136.838c0-1.729,0.48-3.008,1.441-3.84c0.803-0.691,1.781-1.037,2.936-1.037c1.283,0,2.332,0.42,3.146,1.262
			c0.814,0.84,1.222,2.002,1.222,3.484c0,1.201-0.18,2.146-0.541,2.834c-0.359,0.689-0.885,1.223-1.572,1.604
			c-0.689,0.381-1.44,0.572-2.255,0.572c-1.307,0-2.363-0.42-3.169-1.258S284.556,138.415,284.556,136.838z M286.182,136.838
			c0,1.195,0.261,2.092,0.782,2.686c0.521,0.596,1.178,0.893,1.969,0.893c0.785,0,1.438-0.299,1.96-0.896s0.782-1.51,0.782-2.734
			c0-1.154-0.263-2.027-0.786-2.623c-0.525-0.594-1.177-0.893-1.956-0.893c-0.791,0-1.447,0.297-1.969,0.889
			S286.182,135.643,286.182,136.838z"/>
		<path d="M295.155,141.506v-9.334h1.424v1.326c0.686-1.025,1.676-1.537,2.971-1.537c0.563,0,1.079,0.102,1.552,0.303
			c0.471,0.203,0.824,0.467,1.059,0.795s0.398,0.719,0.492,1.17c0.059,0.293,0.088,0.805,0.088,1.537v5.74h-1.582v-5.678
			c0-0.645-0.062-1.127-0.185-1.445c-0.123-0.32-0.342-0.574-0.655-0.766c-0.313-0.189-0.681-0.285-1.103-0.285
			c-0.674,0-1.256,0.213-1.745,0.641s-0.733,1.24-0.733,2.436v5.098H295.155z"/>
		<path d="M305.096,145.1l-0.176-1.484c0.346,0.094,0.647,0.141,0.905,0.141c0.352,0,0.633-0.059,0.844-0.176
			s0.384-0.281,0.519-0.492c0.1-0.158,0.261-0.551,0.483-1.178c0.029-0.088,0.076-0.217,0.141-0.387l-3.542-9.352h1.705l1.942,5.404
			c0.252,0.686,0.478,1.406,0.677,2.162c0.182-0.727,0.398-1.436,0.65-2.127l1.995-5.439h1.582l-3.551,9.492
			c-0.381,1.025-0.677,1.73-0.888,2.117c-0.281,0.521-0.604,0.904-0.967,1.148c-0.363,0.242-0.797,0.363-1.301,0.363
			C305.811,145.293,305.471,145.229,305.096,145.1z"/>
		<path d="M314.166,141.506v-9.334h1.415v1.309c0.293-0.457,0.683-0.824,1.169-1.102c0.486-0.279,1.04-0.418,1.661-0.418
			c0.691,0,1.258,0.143,1.7,0.43s0.755,0.689,0.937,1.205c0.738-1.09,1.699-1.635,2.883-1.635c0.926,0,1.638,0.256,2.136,0.77
			c0.498,0.512,0.747,1.301,0.747,2.367v6.408h-1.573v-5.881c0-0.633-0.052-1.088-0.154-1.365c-0.103-0.279-0.288-0.504-0.558-0.674
			s-0.586-0.254-0.949-0.254c-0.656,0-1.201,0.219-1.635,0.654c-0.434,0.438-0.65,1.135-0.65,2.096v5.424h-1.582v-6.064
			c0-0.703-0.129-1.23-0.387-1.582s-0.68-0.527-1.266-0.527c-0.445,0-0.856,0.117-1.235,0.352c-0.377,0.234-0.651,0.576-0.821,1.027
			s-0.255,1.102-0.255,1.951v4.844H314.166z"/>
	</g>
	<g opacity="0.8">
		<path d="M256.865,230.854v-12.885h9.316v1.52h-7.611v3.947h7.128v1.512h-7.128v4.385h7.91v1.521H256.865z"/>
		<path d="M267.579,230.854l3.41-4.852l-3.155-4.482h1.978l1.433,2.188c0.27,0.416,0.486,0.766,0.65,1.047
			c0.258-0.387,0.495-0.73,0.712-1.029l1.573-2.205h1.89l-3.226,4.395l3.472,4.939h-1.942l-1.916-2.9l-0.51-0.783l-2.452,3.684
			H267.579z"/>
		<path d="M283.725,229.702c-0.586,0.498-1.15,0.85-1.691,1.055c-0.543,0.205-1.124,0.309-1.745,0.309
			c-1.025,0-1.813-0.25-2.364-0.752c-0.551-0.5-0.826-1.141-0.826-1.92c0-0.457,0.104-0.875,0.313-1.252
			c0.207-0.379,0.479-0.682,0.816-0.91s0.717-0.402,1.139-0.52c0.311-0.082,0.779-0.16,1.406-0.236
			c1.277-0.152,2.218-0.334,2.821-0.545c0.006-0.217,0.009-0.355,0.009-0.414c0-0.645-0.149-1.098-0.448-1.361
			c-0.404-0.357-1.005-0.537-1.802-0.537c-0.744,0-1.294,0.131-1.648,0.393c-0.354,0.26-0.616,0.721-0.786,1.383l-1.547-0.211
			c0.141-0.662,0.372-1.195,0.694-1.604c0.322-0.406,0.788-0.721,1.397-0.939c0.609-0.221,1.315-0.33,2.118-0.33
			c0.797,0,1.444,0.094,1.942,0.281s0.864,0.424,1.099,0.707c0.234,0.285,0.398,0.643,0.492,1.076
			c0.053,0.27,0.079,0.756,0.079,1.459v2.109c0,1.471,0.033,2.402,0.101,2.791c0.067,0.391,0.201,0.764,0.4,1.121h-1.652
			C283.877,230.526,283.771,230.141,283.725,229.702z M283.593,226.168c-0.574,0.234-1.436,0.434-2.584,0.598
			c-0.65,0.094-1.11,0.199-1.38,0.316s-0.478,0.289-0.624,0.516c-0.146,0.225-0.22,0.475-0.22,0.75c0,0.422,0.159,0.773,0.479,1.055
			s0.787,0.422,1.402,0.422c0.609,0,1.151-0.133,1.626-0.398c0.475-0.268,0.823-0.633,1.046-1.096
			c0.17-0.357,0.255-0.885,0.255-1.582V226.168z"/>
		<path d="M287.645,230.854v-9.334h1.415v1.309c0.293-0.457,0.683-0.824,1.169-1.102c0.486-0.279,1.04-0.418,1.661-0.418
			c0.691,0,1.258,0.143,1.7,0.43s0.755,0.689,0.937,1.205c0.738-1.09,1.699-1.635,2.883-1.635c0.926,0,1.638,0.256,2.136,0.77
			c0.498,0.512,0.747,1.301,0.747,2.367v6.408h-1.573v-5.881c0-0.633-0.052-1.088-0.154-1.365c-0.103-0.279-0.288-0.504-0.558-0.674
			s-0.586-0.254-0.949-0.254c-0.656,0-1.201,0.219-1.635,0.654c-0.434,0.438-0.65,1.135-0.65,2.096v5.424h-1.582v-6.064
			c0-0.703-0.129-1.23-0.387-1.582s-0.68-0.527-1.266-0.527c-0.445,0-0.856,0.117-1.235,0.352c-0.377,0.234-0.651,0.576-0.821,1.027
			s-0.255,1.102-0.255,1.951v4.844H287.645z"/>
		<path d="M302.639,234.43v-12.91h1.441v1.213c0.34-0.475,0.724-0.83,1.151-1.068c0.428-0.236,0.946-0.355,1.556-0.355
			c0.797,0,1.5,0.205,2.109,0.615s1.069,0.988,1.38,1.736c0.311,0.746,0.466,1.564,0.466,2.455c0,0.955-0.172,1.816-0.514,2.58
			c-0.344,0.766-0.842,1.352-1.494,1.758c-0.654,0.408-1.341,0.611-2.062,0.611c-0.527,0-1.001-0.111-1.419-0.334
			c-0.42-0.223-0.764-0.504-1.033-0.844v4.543H302.639z M304.071,226.239c0,1.201,0.243,2.09,0.729,2.664s1.075,0.861,1.767,0.861
			c0.703,0,1.306-0.297,1.806-0.893c0.502-0.594,0.752-1.516,0.752-2.764c0-1.189-0.245-2.08-0.734-2.672s-1.073-0.889-1.753-0.889
			c-0.674,0-1.271,0.316-1.788,0.945C304.33,224.124,304.071,225.038,304.071,226.239z"/>
		<path d="M312.614,230.854v-12.885h1.582v12.885H312.614z"/>
		<path d="M323.038,227.848l1.635,0.201c-0.258,0.955-0.735,1.697-1.433,2.225s-1.588,0.791-2.672,0.791
			c-1.365,0-2.447-0.42-3.248-1.262c-0.799-0.84-1.199-2.02-1.199-3.537c0-1.57,0.404-2.789,1.213-3.656s1.857-1.301,3.146-1.301
			c1.248,0,2.268,0.424,3.059,1.273s1.187,2.045,1.187,3.586c0,0.094-0.003,0.234-0.009,0.422h-6.961
			c0.059,1.025,0.349,1.811,0.87,2.355s1.172,0.818,1.951,0.818c0.58,0,1.075-0.152,1.485-0.457S322.798,228.516,323.038,227.848z
			 M317.844,225.29h5.212c-0.07-0.785-0.27-1.373-0.598-1.766c-0.504-0.609-1.157-0.914-1.96-0.914
			c-0.727,0-1.338,0.242-1.832,0.729C318.17,223.825,317.896,224.475,317.844,225.29z"/>
	</g>
	<g>
		<path fill="#282828" d="M450.937,35.577l3.574-9.307h1.326l3.809,9.307h-1.402l-1.086-2.818h-3.891l-1.021,2.818H450.937z
			 M453.622,31.754h3.154l-0.971-2.576c-0.296-0.783-0.517-1.426-0.66-1.93c-0.118,0.596-0.285,1.189-0.502,1.777L453.622,31.754z"
			/>
		<path fill="#282828" d="M463.378,38.161v-9.326h1.041v0.877c0.246-0.344,0.523-0.6,0.832-0.771s0.684-0.258,1.123-0.258
			c0.576,0,1.084,0.148,1.523,0.445c0.44,0.297,0.772,0.713,0.997,1.254c0.225,0.539,0.337,1.131,0.337,1.773
			c0,0.689-0.124,1.311-0.372,1.863c-0.247,0.553-0.607,0.975-1.079,1.27s-0.968,0.441-1.488,0.441c-0.381,0-0.723-0.08-1.025-0.242
			c-0.303-0.16-0.551-0.363-0.746-0.609v3.283H463.378z M464.413,32.245c0,0.867,0.176,1.508,0.527,1.922
			c0.351,0.416,0.776,0.623,1.275,0.623c0.508,0,0.942-0.215,1.305-0.645c0.361-0.43,0.543-1.096,0.543-1.996
			c0-0.859-0.177-1.502-0.53-1.93s-0.775-0.641-1.267-0.641c-0.486,0-0.917,0.227-1.292,0.682
			C464.601,30.715,464.413,31.375,464.413,32.245z"/>
		<path fill="#282828" d="M475.223,33.405l1.181,0.146c-0.187,0.689-0.531,1.225-1.035,1.605c-0.503,0.381-1.146,0.572-1.93,0.572
			c-0.985,0-1.768-0.305-2.345-0.912c-0.578-0.605-0.866-1.457-0.866-2.555c0-1.133,0.291-2.014,0.875-2.641
			c0.584-0.625,1.342-0.939,2.273-0.939c0.9,0,1.637,0.307,2.209,0.922c0.57,0.613,0.856,1.477,0.856,2.59
			c0,0.066-0.002,0.168-0.007,0.305h-5.027c0.043,0.74,0.252,1.307,0.629,1.701c0.377,0.393,0.847,0.59,1.409,0.59
			c0.419,0,0.776-0.109,1.073-0.33C474.814,34.239,475.049,33.887,475.223,33.405z M471.472,31.559h3.764
			c-0.051-0.568-0.194-0.992-0.432-1.277c-0.364-0.439-0.836-0.66-1.416-0.66c-0.524,0-0.966,0.176-1.323,0.527
			S471.509,30.969,471.472,31.559z"/>
		<path fill="#282828" d="M477.825,35.577v-6.742h1.029v1.023c0.262-0.479,0.504-0.795,0.727-0.947
			c0.222-0.152,0.467-0.229,0.732-0.229c0.386,0,0.777,0.123,1.175,0.369l-0.394,1.061c-0.279-0.166-0.559-0.248-0.838-0.248
			c-0.25,0-0.474,0.074-0.673,0.225s-0.341,0.359-0.425,0.625c-0.127,0.406-0.191,0.852-0.191,1.334v3.529H477.825z"/>
		<path fill="#282828" d="M481.71,33.565l1.131-0.178c0.063,0.451,0.239,0.799,0.529,1.041c0.29,0.24,0.695,0.361,1.216,0.361
			c0.524,0,0.914-0.107,1.168-0.32c0.254-0.215,0.381-0.465,0.381-0.752c0-0.26-0.112-0.463-0.337-0.609
			c-0.156-0.102-0.545-0.23-1.168-0.389c-0.838-0.211-1.418-0.395-1.742-0.549c-0.323-0.154-0.569-0.367-0.736-0.641
			s-0.25-0.574-0.25-0.904c0-0.301,0.068-0.578,0.206-0.836c0.138-0.256,0.324-0.467,0.562-0.637
			c0.178-0.131,0.42-0.242,0.727-0.334c0.307-0.09,0.636-0.137,0.987-0.137c0.529,0,0.993,0.076,1.394,0.229
			c0.399,0.152,0.695,0.359,0.885,0.619c0.191,0.26,0.322,0.609,0.395,1.045l-1.117,0.152c-0.051-0.348-0.198-0.617-0.441-0.813
			s-0.588-0.293-1.031-0.293c-0.525,0-0.899,0.088-1.124,0.262c-0.225,0.172-0.337,0.375-0.337,0.609
			c0,0.146,0.047,0.281,0.141,0.398c0.093,0.123,0.238,0.225,0.438,0.305c0.114,0.043,0.451,0.141,1.01,0.293
			c0.808,0.215,1.372,0.393,1.691,0.529c0.319,0.139,0.57,0.338,0.752,0.6c0.182,0.264,0.273,0.59,0.273,0.979
			c0,0.381-0.111,0.738-0.334,1.076c-0.222,0.336-0.543,0.596-0.961,0.779c-0.42,0.186-0.894,0.277-1.422,0.277
			c-0.877,0-1.544-0.182-2.003-0.547C482.131,34.819,481.837,34.28,481.71,33.565z"/>
		<path fill="#282828" d="M488.242,32.206c0-1.248,0.347-2.172,1.041-2.773c0.58-0.5,1.286-0.75,2.12-0.75
			c0.927,0,1.685,0.305,2.272,0.912s0.882,1.445,0.882,2.516c0,0.869-0.13,1.551-0.39,2.047c-0.261,0.498-0.64,0.885-1.137,1.16
			c-0.497,0.273-1.04,0.412-1.628,0.412c-0.943,0-1.706-0.303-2.288-0.908S488.242,33.344,488.242,32.206z M489.417,32.206
			c0,0.863,0.188,1.51,0.564,1.939s0.851,0.645,1.422,0.645c0.567,0,1.039-0.217,1.416-0.648c0.376-0.432,0.564-1.09,0.564-1.973
			c0-0.834-0.189-1.467-0.568-1.896c-0.379-0.428-0.85-0.643-1.412-0.643c-0.571,0-1.045,0.213-1.422,0.641
			S489.417,31.342,489.417,32.206z"/>
		<path fill="#282828" d="M495.897,35.577v-6.742h1.027v0.959c0.496-0.74,1.211-1.111,2.146-1.111c0.406,0,0.779,0.074,1.12,0.219
			c0.341,0.146,0.596,0.338,0.765,0.576c0.169,0.236,0.288,0.518,0.355,0.844c0.042,0.211,0.063,0.582,0.063,1.111v4.145h-1.143
			v-4.102c0-0.465-0.044-0.813-0.134-1.043c-0.088-0.23-0.246-0.416-0.473-0.553s-0.492-0.207-0.797-0.207
			c-0.486,0-0.906,0.154-1.26,0.465c-0.354,0.309-0.529,0.895-0.529,1.758v3.682H495.897z"/>
		<path fill="#282828" d="M507.983,35.577l-2.063-6.742h1.181l1.072,3.893l0.4,1.447c0.017-0.072,0.133-0.535,0.35-1.391
			l1.072-3.949h1.174l1.01,3.91l0.336,1.289l0.388-1.301l1.155-3.898h1.111l-2.107,6.742h-1.188l-1.072-4.037l-0.261-1.148
			l-1.364,5.186H507.983z"/>
		<path fill="#282828" d="M516.128,35.577V26.27h1.143v3.34c0.533-0.617,1.205-0.928,2.018-0.928c0.5,0,0.934,0.1,1.302,0.295
			c0.368,0.197,0.632,0.469,0.79,0.816c0.159,0.348,0.238,0.852,0.238,1.512v4.271h-1.143v-4.271c0-0.572-0.124-0.988-0.371-1.248
			c-0.248-0.26-0.598-0.391-1.051-0.391c-0.339,0-0.657,0.088-0.955,0.264c-0.299,0.176-0.512,0.414-0.639,0.715
			c-0.127,0.299-0.189,0.715-0.189,1.244v3.688H516.128z"/>
		<path fill="#282828" d="M522.933,32.206c0-1.248,0.347-2.172,1.041-2.773c0.58-0.5,1.286-0.75,2.12-0.75
			c0.927,0,1.685,0.305,2.272,0.912s0.883,1.445,0.883,2.516c0,0.869-0.131,1.551-0.391,2.047c-0.261,0.498-0.64,0.885-1.137,1.16
			c-0.497,0.273-1.04,0.412-1.628,0.412c-0.943,0-1.706-0.303-2.288-0.908S522.933,33.344,522.933,32.206z M524.106,32.206
			c0,0.863,0.188,1.51,0.565,1.939s0.851,0.645,1.422,0.645c0.567,0,1.039-0.217,1.415-0.648c0.377-0.432,0.565-1.09,0.565-1.973
			c0-0.834-0.189-1.467-0.568-1.896c-0.379-0.428-0.85-0.643-1.412-0.643c-0.571,0-1.045,0.213-1.422,0.641
			S524.106,31.342,524.106,32.206z"/>
		<path fill="#282828" d="M534.473,35.577v-5.854h-1.009v-0.889h1.009v-0.717c0-0.453,0.04-0.789,0.12-1.01
			c0.11-0.295,0.304-0.535,0.581-0.721c0.277-0.184,0.666-0.275,1.165-0.275c0.321,0,0.677,0.039,1.066,0.115l-0.172,0.996
			c-0.236-0.043-0.461-0.064-0.672-0.064c-0.348,0-0.593,0.074-0.736,0.223c-0.145,0.148-0.217,0.426-0.217,0.832v0.621h1.314v0.889
			h-1.314v5.854H534.473z"/>
		<path fill="#282828" d="M537.817,27.584V26.27h1.143v1.314H537.817z M537.817,35.577v-6.742h1.143v6.742H537.817z"/>
		<path fill="#282828" d="M540.7,35.577v-6.742h1.027v0.959c0.496-0.74,1.211-1.111,2.146-1.111c0.406,0,0.779,0.074,1.12,0.219
			c0.341,0.146,0.596,0.338,0.765,0.576c0.169,0.236,0.288,0.518,0.355,0.844c0.042,0.211,0.063,0.582,0.063,1.111v4.145h-1.143
			v-4.102c0-0.465-0.044-0.813-0.134-1.043c-0.088-0.23-0.246-0.416-0.473-0.553s-0.492-0.207-0.797-0.207
			c-0.486,0-0.906,0.154-1.26,0.465c-0.354,0.309-0.529,0.895-0.529,1.758v3.682H540.7z"/>
		<path fill="#282828" d="M552.303,35.577v-0.852c-0.428,0.67-1.056,1.004-1.886,1.004c-0.537,0-1.031-0.148-1.481-0.445
			c-0.451-0.295-0.8-0.709-1.048-1.24c-0.247-0.531-0.371-1.141-0.371-1.832c0-0.672,0.112-1.283,0.336-1.83
			c0.225-0.549,0.562-0.969,1.01-1.26c0.448-0.293,0.95-0.439,1.504-0.439c0.406,0,0.769,0.086,1.086,0.258s0.575,0.395,0.774,0.67
			v-3.34h1.136v9.307H552.303z M548.69,32.211c0,0.863,0.183,1.51,0.547,1.938c0.363,0.426,0.793,0.641,1.288,0.641
			c0.499,0,0.924-0.205,1.272-0.613c0.35-0.408,0.523-1.031,0.523-1.869c0-0.922-0.178-1.6-0.533-2.031s-0.793-0.646-1.313-0.646
			c-0.508,0-0.932,0.207-1.272,0.621S548.69,31.319,548.69,32.211z"/>
		<path fill="#282828" d="M554.702,33.565l1.129-0.178c0.064,0.451,0.24,0.799,0.53,1.041c0.29,0.24,0.695,0.361,1.216,0.361
			c0.524,0,0.914-0.107,1.168-0.32c0.254-0.215,0.381-0.465,0.381-0.752c0-0.26-0.112-0.463-0.336-0.609
			c-0.157-0.102-0.547-0.23-1.168-0.389c-0.838-0.211-1.419-0.395-1.743-0.549c-0.323-0.154-0.569-0.367-0.736-0.641
			s-0.251-0.574-0.251-0.904c0-0.301,0.069-0.578,0.207-0.836c0.138-0.256,0.324-0.467,0.562-0.637
			c0.178-0.131,0.42-0.242,0.727-0.334c0.307-0.09,0.636-0.137,0.987-0.137c0.529,0,0.993,0.076,1.394,0.229
			c0.399,0.152,0.694,0.359,0.886,0.619c0.189,0.26,0.321,0.609,0.393,1.045l-1.117,0.152c-0.051-0.348-0.197-0.617-0.44-0.813
			s-0.587-0.293-1.032-0.293c-0.524,0-0.898,0.088-1.123,0.262c-0.225,0.172-0.336,0.375-0.336,0.609
			c0,0.146,0.046,0.281,0.139,0.398c0.094,0.123,0.239,0.225,0.438,0.305c0.114,0.043,0.45,0.141,1.009,0.293
			c0.809,0.215,1.373,0.393,1.692,0.529c0.319,0.139,0.57,0.338,0.752,0.6c0.182,0.264,0.272,0.59,0.272,0.979
			c0,0.381-0.11,0.738-0.333,1.076c-0.222,0.336-0.542,0.596-0.962,0.779c-0.418,0.186-0.893,0.277-1.422,0.277
			c-0.875,0-1.543-0.182-2.002-0.547C555.122,34.819,554.829,34.28,554.702,33.565z"/>
		<path fill="#282828" d="M444.858,50.165l1.131-0.178c0.063,0.453,0.239,0.799,0.529,1.041c0.29,0.24,0.695,0.361,1.216,0.361
			c0.524,0,0.914-0.107,1.168-0.32s0.381-0.465,0.381-0.752c0-0.258-0.112-0.461-0.337-0.609c-0.156-0.102-0.545-0.23-1.168-0.387
			c-0.838-0.213-1.418-0.395-1.742-0.551c-0.323-0.154-0.569-0.367-0.736-0.641s-0.25-0.574-0.25-0.904
			c0-0.301,0.068-0.578,0.206-0.834s0.324-0.469,0.562-0.639c0.178-0.131,0.42-0.242,0.727-0.334
			c0.307-0.09,0.636-0.135,0.987-0.135c0.529,0,0.993,0.076,1.394,0.229c0.399,0.152,0.695,0.357,0.885,0.617
			c0.191,0.262,0.322,0.609,0.395,1.045l-1.117,0.152c-0.051-0.348-0.198-0.617-0.441-0.813s-0.588-0.291-1.031-0.291
			c-0.525,0-0.899,0.086-1.124,0.26s-0.337,0.377-0.337,0.609c0,0.148,0.047,0.281,0.141,0.4c0.093,0.121,0.238,0.223,0.438,0.305
			c0.114,0.041,0.451,0.139,1.01,0.291c0.808,0.217,1.372,0.393,1.691,0.529c0.319,0.139,0.57,0.338,0.752,0.602
			c0.182,0.262,0.273,0.588,0.273,0.977c0,0.381-0.111,0.74-0.334,1.076c-0.222,0.336-0.543,0.596-0.961,0.781
			c-0.42,0.184-0.894,0.275-1.422,0.275c-0.877,0-1.544-0.182-2.003-0.545C445.279,51.418,444.985,50.879,444.858,50.165z"/>
		<path fill="#282828" d="M451.391,48.805c0-1.248,0.347-2.172,1.041-2.773c0.58-0.5,1.286-0.748,2.12-0.748
			c0.927,0,1.685,0.303,2.272,0.91s0.882,1.445,0.882,2.518c0,0.867-0.13,1.549-0.39,2.047c-0.261,0.496-0.64,0.883-1.137,1.158
			s-1.04,0.412-1.628,0.412c-0.943,0-1.706-0.303-2.288-0.908C451.682,50.817,451.391,49.944,451.391,48.805z M452.565,48.805
			c0,0.863,0.188,1.51,0.564,1.939s0.851,0.645,1.422,0.645c0.567,0,1.039-0.215,1.416-0.646c0.376-0.432,0.564-1.09,0.564-1.975
			c0-0.834-0.189-1.465-0.568-1.895s-0.85-0.645-1.412-0.645c-0.571,0-1.045,0.213-1.422,0.641S452.565,47.942,452.565,48.805z"/>
		<path fill="#282828" d="M459.021,52.176v-9.305h1.143v9.305H459.021z"/>
		<path fill="#282828" d="M466.353,52.176v-0.99c-0.525,0.762-1.238,1.143-2.14,1.143c-0.397,0-0.77-0.076-1.114-0.229
			s-0.601-0.344-0.768-0.574s-0.285-0.514-0.353-0.848c-0.047-0.225-0.069-0.58-0.069-1.066v-4.176h1.143v3.738
			c0,0.596,0.022,0.998,0.069,1.205c0.072,0.301,0.225,0.537,0.457,0.709c0.232,0.17,0.521,0.256,0.863,0.256
			s0.664-0.088,0.965-0.264c0.301-0.174,0.513-0.414,0.638-0.717s0.188-0.74,0.188-1.316v-3.611h1.143v6.74H466.353z"/>
		<path fill="#282828" d="M471.659,51.155l0.165,1.01c-0.321,0.066-0.609,0.102-0.863,0.102c-0.415,0-0.736-0.066-0.965-0.197
			s-0.39-0.305-0.482-0.518s-0.14-0.664-0.14-1.35v-3.877h-0.838v-0.889h0.838v-1.67l1.137-0.686v2.355h1.148v0.889h-1.148v3.941
			c0,0.326,0.02,0.535,0.06,0.629c0.04,0.092,0.106,0.166,0.197,0.221c0.091,0.057,0.221,0.084,0.39,0.084
			C471.284,51.2,471.452,51.184,471.659,51.155z"/>
		<path fill="#282828" d="M472.782,44.184v-1.313h1.143v1.313H472.782z M472.782,52.176v-6.74h1.143v6.74H472.782z"/>
		<path fill="#282828" d="M475.239,48.805c0-1.248,0.347-2.172,1.041-2.773c0.58-0.5,1.286-0.748,2.12-0.748
			c0.927,0,1.685,0.303,2.272,0.91s0.883,1.445,0.883,2.518c0,0.867-0.131,1.549-0.391,2.047c-0.261,0.496-0.64,0.883-1.137,1.158
			s-1.04,0.412-1.628,0.412c-0.943,0-1.706-0.303-2.288-0.908C475.53,50.817,475.239,49.944,475.239,48.805z M476.413,48.805
			c0,0.863,0.188,1.51,0.565,1.939s0.851,0.645,1.422,0.645c0.567,0,1.039-0.215,1.415-0.646c0.377-0.432,0.565-1.09,0.565-1.975
			c0-0.834-0.189-1.465-0.568-1.895s-0.85-0.645-1.412-0.645c-0.571,0-1.045,0.213-1.422,0.641S476.413,47.942,476.413,48.805z"/>
		<path fill="#282828" d="M482.894,52.176v-6.74h1.029v0.957c0.494-0.74,1.21-1.109,2.145-1.109c0.406,0,0.78,0.072,1.121,0.219
			c0.341,0.145,0.596,0.338,0.765,0.574s0.288,0.518,0.355,0.844c0.042,0.211,0.063,0.582,0.063,1.111v4.145h-1.143v-4.1
			c0-0.467-0.045-0.814-0.133-1.045c-0.09-0.23-0.247-0.414-0.474-0.553c-0.227-0.137-0.491-0.205-0.796-0.205
			c-0.487,0-0.907,0.154-1.261,0.463s-0.53,0.895-0.53,1.758v3.682H482.894z"/>
		<path fill="#282828" d="M489.667,50.165l1.129-0.178c0.064,0.453,0.24,0.799,0.53,1.041c0.29,0.24,0.695,0.361,1.216,0.361
			c0.524,0,0.914-0.107,1.168-0.32s0.381-0.465,0.381-0.752c0-0.258-0.112-0.461-0.336-0.609c-0.157-0.102-0.547-0.23-1.168-0.387
			c-0.838-0.213-1.419-0.395-1.743-0.551c-0.323-0.154-0.569-0.367-0.736-0.641s-0.251-0.574-0.251-0.904
			c0-0.301,0.069-0.578,0.207-0.834s0.324-0.469,0.562-0.639c0.178-0.131,0.42-0.242,0.727-0.334
			c0.307-0.09,0.636-0.135,0.987-0.135c0.529,0,0.993,0.076,1.394,0.229c0.399,0.152,0.694,0.357,0.886,0.617
			c0.189,0.262,0.321,0.609,0.393,1.045l-1.117,0.152c-0.051-0.348-0.197-0.617-0.44-0.813s-0.587-0.291-1.032-0.291
			c-0.524,0-0.898,0.086-1.123,0.26s-0.336,0.377-0.336,0.609c0,0.148,0.046,0.281,0.139,0.4c0.094,0.121,0.239,0.223,0.438,0.305
			c0.114,0.041,0.45,0.139,1.009,0.291c0.809,0.217,1.373,0.393,1.692,0.529c0.319,0.139,0.57,0.338,0.752,0.602
			c0.182,0.262,0.272,0.588,0.272,0.977c0,0.381-0.11,0.74-0.333,1.076c-0.222,0.336-0.542,0.596-0.962,0.781
			c-0.418,0.184-0.893,0.275-1.422,0.275c-0.875,0-1.543-0.182-2.002-0.545C490.087,51.418,489.794,50.879,489.667,50.165z"/>
		<path fill="#282828" d="M502.73,51.155l0.165,1.01c-0.321,0.066-0.609,0.102-0.863,0.102c-0.415,0-0.736-0.066-0.965-0.197
			s-0.39-0.305-0.482-0.518s-0.14-0.664-0.14-1.35v-3.877h-0.838v-0.889h0.838v-1.67l1.136-0.686v2.355h1.149v0.889h-1.149v3.941
			c0,0.326,0.021,0.535,0.061,0.629c0.04,0.092,0.106,0.166,0.197,0.221c0.091,0.057,0.221,0.084,0.391,0.084
			C502.356,51.2,502.523,51.184,502.73,51.155z"/>
		<path fill="#282828" d="M503.423,48.805c0-1.248,0.347-2.172,1.041-2.773c0.58-0.5,1.286-0.748,2.12-0.748
			c0.927,0,1.685,0.303,2.272,0.91s0.883,1.445,0.883,2.518c0,0.867-0.131,1.549-0.391,2.047c-0.261,0.496-0.64,0.883-1.137,1.158
			s-1.04,0.412-1.628,0.412c-0.943,0-1.706-0.303-2.288-0.908C503.714,50.817,503.423,49.944,503.423,48.805z M504.597,48.805
			c0,0.863,0.188,1.51,0.565,1.939s0.851,0.645,1.422,0.645c0.567,0,1.039-0.215,1.415-0.646c0.377-0.432,0.565-1.09,0.565-1.975
			c0-0.834-0.189-1.465-0.568-1.895s-0.85-0.645-1.412-0.645c-0.571,0-1.045,0.213-1.422,0.641S504.597,47.942,504.597,48.805z"/>
		<path fill="#282828" d="M514.69,54.76v-9.324h1.041v0.875c0.245-0.342,0.522-0.6,0.831-0.771s0.684-0.256,1.124-0.256
			c0.575,0,1.083,0.146,1.523,0.443c0.439,0.297,0.771,0.715,0.996,1.254s0.336,1.131,0.336,1.773c0,0.691-0.123,1.311-0.371,1.863
			c-0.247,0.553-0.607,0.977-1.079,1.27c-0.472,0.295-0.968,0.441-1.488,0.441c-0.381,0-0.723-0.08-1.025-0.24
			c-0.303-0.162-0.551-0.365-0.745-0.609v3.281H514.69z M515.725,48.844c0,0.867,0.176,1.508,0.526,1.924
			c0.352,0.414,0.777,0.621,1.276,0.621c0.508,0,0.942-0.215,1.305-0.645c0.361-0.43,0.542-1.094,0.542-1.996
			c0-0.859-0.176-1.502-0.529-1.93s-0.775-0.641-1.267-0.641c-0.486,0-0.917,0.227-1.292,0.682
			C515.912,47.315,515.725,47.977,515.725,48.844z"/>
		<path fill="#282828" d="M521.907,52.176v-6.74h1.027v1.021c0.263-0.479,0.505-0.793,0.728-0.945
			c0.222-0.152,0.466-0.229,0.733-0.229c0.385,0,0.776,0.121,1.174,0.367l-0.394,1.061c-0.279-0.166-0.559-0.248-0.838-0.248
			c-0.25,0-0.474,0.076-0.673,0.225c-0.199,0.15-0.341,0.359-0.426,0.627c-0.127,0.406-0.189,0.85-0.189,1.332v3.529H521.907z"/>
		<path fill="#282828" d="M525.823,48.805c0-1.248,0.347-2.172,1.041-2.773c0.58-0.5,1.286-0.748,2.12-0.748
			c0.927,0,1.685,0.303,2.272,0.91s0.883,1.445,0.883,2.518c0,0.867-0.131,1.549-0.391,2.047c-0.261,0.496-0.64,0.883-1.137,1.158
			s-1.04,0.412-1.628,0.412c-0.943,0-1.706-0.303-2.288-0.908C526.114,50.817,525.823,49.944,525.823,48.805z M526.997,48.805
			c0,0.863,0.188,1.51,0.565,1.939s0.851,0.645,1.422,0.645c0.567,0,1.039-0.215,1.415-0.646c0.377-0.432,0.565-1.09,0.565-1.975
			c0-0.834-0.189-1.465-0.568-1.895s-0.85-0.645-1.412-0.645c-0.571,0-1.045,0.213-1.422,0.641S526.997,47.942,526.997,48.805z"/>
		<path fill="#282828" d="M534.532,52.176h-1.06v-9.305h1.143v3.318c0.482-0.604,1.099-0.906,1.847-0.906
			c0.415,0,0.808,0.082,1.178,0.25s0.675,0.402,0.914,0.705s0.427,0.668,0.563,1.094c0.135,0.428,0.203,0.885,0.203,1.371
			c0,1.156-0.286,2.049-0.857,2.68s-1.257,0.945-2.057,0.945c-0.796,0-1.42-0.332-1.873-0.996V52.176z M534.521,48.754
			c0,0.809,0.109,1.393,0.33,1.752c0.359,0.59,0.846,0.883,1.459,0.883c0.5,0,0.932-0.217,1.295-0.65
			c0.364-0.434,0.547-1.08,0.547-1.939c0-0.881-0.175-1.529-0.524-1.949c-0.349-0.418-0.771-0.627-1.267-0.627
			c-0.499,0-0.931,0.217-1.295,0.65C534.702,47.307,534.521,47.934,534.521,48.754z"/>
		<path fill="#282828" d="M540.683,52.176v-9.305h1.143v9.305H540.683z"/>
		<path fill="#282828" d="M548.211,50.006l1.181,0.145c-0.187,0.691-0.531,1.227-1.035,1.607c-0.503,0.381-1.146,0.57-1.93,0.57
			c-0.985,0-1.768-0.303-2.345-0.91c-0.578-0.607-0.866-1.459-0.866-2.555c0-1.135,0.291-2.016,0.875-2.641
			c0.584-0.627,1.342-0.939,2.273-0.939c0.9,0,1.637,0.307,2.209,0.92c0.57,0.613,0.856,1.477,0.856,2.59
			c0,0.068-0.002,0.17-0.007,0.305h-5.027c0.043,0.74,0.252,1.307,0.629,1.701c0.377,0.393,0.847,0.59,1.409,0.59
			c0.419,0,0.776-0.109,1.073-0.33C547.803,50.838,548.037,50.489,548.211,50.006z M544.46,48.159h3.764
			c-0.051-0.566-0.194-0.992-0.432-1.275c-0.364-0.441-0.836-0.66-1.416-0.66c-0.524,0-0.966,0.176-1.323,0.525
			C544.695,47.1,544.497,47.571,544.46,48.159z"/>
		<path fill="#282828" d="M550.827,52.176v-6.74h1.021v0.945c0.212-0.33,0.493-0.596,0.844-0.797c0.352-0.201,0.752-0.301,1.2-0.301
			c0.499,0,0.909,0.104,1.229,0.311s0.545,0.496,0.676,0.869c0.533-0.787,1.228-1.18,2.082-1.18c0.669,0,1.183,0.184,1.542,0.555
			c0.36,0.371,0.54,0.941,0.54,1.711v4.627h-1.136V47.93c0-0.457-0.037-0.787-0.111-0.988c-0.074-0.199-0.209-0.361-0.403-0.484
			s-0.423-0.184-0.686-0.184c-0.474,0-0.867,0.156-1.181,0.473c-0.313,0.314-0.47,0.82-0.47,1.514v3.916h-1.143v-4.379
			c0-0.508-0.093-0.889-0.279-1.143s-0.491-0.381-0.914-0.381c-0.321,0-0.619,0.084-0.892,0.254
			c-0.273,0.168-0.471,0.416-0.594,0.742s-0.184,0.795-0.184,1.408v3.498H550.827z"/>
		<path fill="#282828" d="M561.198,50.165l1.131-0.178c0.063,0.453,0.239,0.799,0.529,1.041c0.29,0.24,0.695,0.361,1.216,0.361
			c0.524,0,0.914-0.107,1.168-0.32s0.381-0.465,0.381-0.752c0-0.258-0.112-0.461-0.337-0.609c-0.156-0.102-0.545-0.23-1.168-0.387
			c-0.838-0.213-1.418-0.395-1.742-0.551c-0.323-0.154-0.569-0.367-0.736-0.641s-0.25-0.574-0.25-0.904
			c0-0.301,0.068-0.578,0.206-0.834s0.324-0.469,0.562-0.639c0.178-0.131,0.42-0.242,0.727-0.334
			c0.307-0.09,0.636-0.135,0.987-0.135c0.529,0,0.993,0.076,1.394,0.229c0.399,0.152,0.695,0.357,0.885,0.617
			c0.191,0.262,0.322,0.609,0.395,1.045l-1.117,0.152c-0.051-0.348-0.198-0.617-0.441-0.813s-0.588-0.291-1.031-0.291
			c-0.525,0-0.899,0.086-1.124,0.26s-0.337,0.377-0.337,0.609c0,0.148,0.047,0.281,0.141,0.4c0.093,0.121,0.238,0.223,0.438,0.305
			c0.114,0.041,0.451,0.139,1.01,0.291c0.808,0.217,1.372,0.393,1.691,0.529c0.319,0.139,0.57,0.338,0.752,0.602
			c0.182,0.262,0.273,0.588,0.273,0.977c0,0.381-0.111,0.74-0.334,1.076c-0.222,0.336-0.543,0.596-0.961,0.781
			c-0.42,0.184-0.894,0.275-1.422,0.275c-0.877,0-1.544-0.182-2.003-0.545C561.619,51.418,561.325,50.879,561.198,50.165z"/>
		<path fill="#282828" d="M568.479,52.176v-1.301h1.301v1.301H568.479z"/>
	</g>
	<g>
		<path fill="#282828" d="M479.847,137.743l3.574-9.307h1.326l3.809,9.307h-1.402l-1.086-2.818h-3.891l-1.021,2.818H479.847z
			 M482.532,133.92h3.154l-0.971-2.576c-0.296-0.783-0.517-1.426-0.66-1.93c-0.118,0.596-0.285,1.189-0.502,1.777L482.532,133.92z"
			/>
		<path fill="#282828" d="M489.394,137.743V131h1.029v0.959c0.494-0.74,1.21-1.111,2.145-1.111c0.406,0,0.78,0.074,1.121,0.219
			c0.341,0.146,0.596,0.338,0.765,0.576c0.169,0.236,0.288,0.518,0.355,0.844c0.042,0.211,0.063,0.582,0.063,1.111v4.145h-1.143
			v-4.102c0-0.465-0.045-0.813-0.133-1.043c-0.09-0.23-0.247-0.416-0.474-0.553s-0.491-0.207-0.796-0.207
			c-0.487,0-0.907,0.154-1.261,0.465c-0.354,0.309-0.53,0.895-0.53,1.758v3.682H489.394z"/>
		<path fill="#282828" d="M501.022,136.911c-0.423,0.359-0.83,0.613-1.222,0.762s-0.812,0.223-1.261,0.223
			c-0.74,0-1.31-0.182-1.707-0.543s-0.597-0.824-0.597-1.387c0-0.33,0.075-0.633,0.226-0.904c0.15-0.273,0.347-0.492,0.59-0.658
			c0.243-0.164,0.518-0.289,0.822-0.373c0.225-0.061,0.563-0.117,1.016-0.172c0.923-0.109,1.602-0.242,2.037-0.395
			c0.005-0.156,0.007-0.256,0.007-0.297c0-0.467-0.108-0.795-0.323-0.984c-0.293-0.258-0.727-0.387-1.302-0.387
			c-0.537,0-0.935,0.094-1.19,0.281c-0.256,0.189-0.445,0.521-0.568,1l-1.117-0.152c0.102-0.479,0.27-0.863,0.502-1.158
			s0.569-0.521,1.01-0.68c0.439-0.158,0.949-0.238,1.529-0.238c0.575,0,1.043,0.068,1.402,0.203c0.36,0.137,0.625,0.307,0.794,0.512
			s0.288,0.465,0.355,0.777c0.038,0.195,0.058,0.547,0.058,1.055v1.523c0,1.061,0.023,1.732,0.072,2.014
			c0.049,0.283,0.146,0.553,0.289,0.811h-1.193C501.133,137.506,501.057,137.229,501.022,136.911z M500.927,134.36
			c-0.414,0.168-1.036,0.313-1.865,0.432c-0.471,0.066-0.803,0.143-0.997,0.229c-0.194,0.084-0.345,0.207-0.45,0.371
			c-0.106,0.162-0.159,0.344-0.159,0.543c0,0.305,0.115,0.559,0.346,0.762s0.568,0.305,1.013,0.305c0.44,0,0.832-0.098,1.174-0.289
			c0.344-0.193,0.595-0.457,0.756-0.791c0.123-0.258,0.184-0.639,0.184-1.143V134.36z"/>
		<path fill="#282828" d="M503.829,137.743v-9.307h1.143v9.307H503.829z"/>
		<path fill="#282828" d="M506.692,140.338l-0.127-1.072c0.249,0.068,0.467,0.102,0.653,0.102c0.254,0,0.457-0.043,0.609-0.127
			s0.277-0.203,0.374-0.355c0.072-0.115,0.188-0.398,0.35-0.852c0.021-0.063,0.055-0.156,0.102-0.279L506.095,131h1.232l1.402,3.904
			c0.182,0.496,0.345,1.016,0.488,1.563c0.132-0.525,0.288-1.037,0.471-1.537l1.44-3.93h1.143l-2.564,6.855
			c-0.275,0.742-0.489,1.252-0.642,1.531c-0.203,0.375-0.436,0.652-0.697,0.828c-0.263,0.176-0.576,0.264-0.939,0.264
			C507.208,140.479,506.963,140.432,506.692,140.338z"/>
		<path fill="#282828" d="M515.737,136.721l0.165,1.008c-0.321,0.068-0.609,0.102-0.863,0.102c-0.415,0-0.736-0.064-0.965-0.195
			c-0.229-0.133-0.39-0.305-0.482-0.518c-0.093-0.215-0.14-0.664-0.14-1.35v-3.879h-0.838V131h0.838v-1.668l1.137-0.686V131h1.148
			v0.889h-1.148v3.943c0,0.324,0.02,0.535,0.06,0.627c0.04,0.094,0.106,0.168,0.197,0.223s0.221,0.082,0.39,0.082
			C515.362,136.764,515.53,136.75,515.737,136.721z"/>
		<path fill="#282828" d="M516.86,129.75v-1.314h1.143v1.314H516.86z M516.86,137.743V131h1.143v6.742H516.86z"/>
		<path fill="#282828" d="M524.142,135.274l1.123,0.145c-0.122,0.775-0.437,1.381-0.942,1.818c-0.506,0.439-1.126,0.658-1.862,0.658
			c-0.923,0-1.665-0.303-2.226-0.904c-0.561-0.604-0.841-1.469-0.841-2.594c0-0.729,0.121-1.365,0.361-1.91
			c0.242-0.547,0.608-0.955,1.102-1.229s1.029-0.41,1.609-0.41c0.732,0,1.331,0.186,1.797,0.557
			c0.465,0.369,0.764,0.896,0.895,1.576l-1.111,0.172c-0.105-0.453-0.293-0.793-0.562-1.021s-0.593-0.344-0.974-0.344
			c-0.576,0-1.044,0.207-1.403,0.619s-0.54,1.066-0.54,1.959c0,0.906,0.174,1.563,0.521,1.975c0.347,0.41,0.799,0.615,1.357,0.615
			c0.449,0,0.823-0.139,1.124-0.412C523.871,136.268,524.062,135.844,524.142,135.274z"/>
		<path fill="#282828" d="M530.642,136.911c-0.423,0.359-0.83,0.613-1.222,0.762s-0.812,0.223-1.261,0.223
			c-0.74,0-1.31-0.182-1.707-0.543s-0.597-0.824-0.597-1.387c0-0.33,0.075-0.633,0.226-0.904c0.15-0.273,0.347-0.492,0.59-0.658
			c0.243-0.164,0.518-0.289,0.822-0.373c0.225-0.061,0.563-0.117,1.016-0.172c0.923-0.109,1.602-0.242,2.037-0.395
			c0.005-0.156,0.007-0.256,0.007-0.297c0-0.467-0.108-0.795-0.323-0.984c-0.293-0.258-0.727-0.387-1.302-0.387
			c-0.537,0-0.935,0.094-1.19,0.281c-0.256,0.189-0.445,0.521-0.568,1l-1.117-0.152c0.102-0.479,0.27-0.863,0.502-1.158
			s0.569-0.521,1.01-0.68c0.439-0.158,0.949-0.238,1.529-0.238c0.575,0,1.043,0.068,1.402,0.203c0.36,0.137,0.625,0.307,0.794,0.512
			s0.288,0.465,0.355,0.777c0.038,0.195,0.058,0.547,0.058,1.055v1.523c0,1.061,0.023,1.732,0.072,2.014
			c0.049,0.283,0.146,0.553,0.289,0.811h-1.193C530.752,137.506,530.676,137.229,530.642,136.911z M530.546,134.36
			c-0.414,0.168-1.036,0.313-1.865,0.432c-0.471,0.066-0.803,0.143-0.997,0.229c-0.194,0.084-0.345,0.207-0.45,0.371
			c-0.106,0.162-0.159,0.344-0.159,0.543c0,0.305,0.115,0.559,0.346,0.762s0.568,0.305,1.013,0.305c0.44,0,0.832-0.098,1.174-0.289
			c0.344-0.193,0.595-0.457,0.756-0.791c0.123-0.258,0.184-0.639,0.184-1.143V134.36z"/>
		<path fill="#282828" d="M533.446,137.743v-9.307h1.143v9.307H533.446z"/>
	</g>
	<g>
		<path fill="#282828" d="M449.083,211.834v-9.307h3.51c0.618,0,1.09,0.031,1.416,0.09c0.457,0.076,0.84,0.221,1.148,0.434
			c0.31,0.215,0.558,0.514,0.746,0.898c0.188,0.387,0.283,0.809,0.283,1.27c0,0.793-0.252,1.461-0.756,2.01
			s-1.413,0.822-2.729,0.822h-2.387v3.783H449.083z M450.314,206.954h2.405c0.796,0,1.361-0.148,1.695-0.445s0.502-0.713,0.502-1.25
			c0-0.389-0.099-0.723-0.296-1c-0.196-0.277-0.456-0.461-0.777-0.549c-0.207-0.055-0.591-0.082-1.149-0.082h-2.38V206.954z"/>
		<path fill="#282828" d="M457.595,211.834v-6.742h1.029v1.023c0.262-0.479,0.504-0.795,0.727-0.947
			c0.222-0.152,0.467-0.229,0.732-0.229c0.386,0,0.777,0.123,1.175,0.369l-0.394,1.061c-0.279-0.166-0.559-0.248-0.838-0.248
			c-0.25,0-0.474,0.074-0.673,0.225s-0.341,0.359-0.425,0.625c-0.127,0.406-0.191,0.852-0.191,1.334v3.529H457.595z"/>
		<path fill="#282828" d="M461.512,208.463c0-1.248,0.347-2.172,1.041-2.773c0.58-0.5,1.286-0.75,2.12-0.75
			c0.927,0,1.685,0.305,2.272,0.912s0.882,1.445,0.882,2.516c0,0.869-0.13,1.551-0.39,2.047c-0.261,0.498-0.64,0.885-1.137,1.16
			c-0.497,0.273-1.04,0.412-1.628,0.412c-0.943,0-1.706-0.303-2.288-0.908S461.512,209.602,461.512,208.463z M462.687,208.463
			c0,0.863,0.188,1.51,0.564,1.939s0.851,0.645,1.422,0.645c0.567,0,1.039-0.217,1.416-0.648c0.376-0.432,0.564-1.09,0.564-1.973
			c0-0.834-0.189-1.467-0.568-1.896c-0.379-0.428-0.85-0.643-1.412-0.643c-0.571,0-1.045,0.213-1.422,0.641
			S462.687,207.6,462.687,208.463z"/>
		<path fill="#282828" d="M470.22,211.834h-1.06v-9.307h1.143v3.32c0.482-0.605,1.099-0.908,1.847-0.908
			c0.415,0,0.808,0.084,1.178,0.252c0.37,0.166,0.675,0.402,0.914,0.703c0.239,0.303,0.427,0.668,0.563,1.096
			c0.135,0.428,0.203,0.885,0.203,1.371c0,1.156-0.286,2.049-0.857,2.68c-0.571,0.629-1.257,0.945-2.057,0.945
			c-0.796,0-1.42-0.332-1.873-0.996V211.834z M470.208,208.413c0,0.809,0.109,1.393,0.33,1.752c0.359,0.588,0.846,0.883,1.459,0.883
			c0.5,0,0.932-0.217,1.295-0.65c0.364-0.434,0.547-1.08,0.547-1.939c0-0.881-0.175-1.529-0.524-1.949
			c-0.349-0.418-0.771-0.629-1.267-0.629c-0.499,0-0.931,0.217-1.295,0.65C470.39,206.965,470.208,207.592,470.208,208.413z"/>
		<path fill="#282828" d="M476.372,211.834v-9.307h1.143v9.307H476.372z"/>
		<path fill="#282828" d="M483.9,209.663l1.181,0.146c-0.187,0.689-0.531,1.225-1.035,1.605c-0.503,0.381-1.146,0.572-1.93,0.572
			c-0.985,0-1.768-0.305-2.345-0.912c-0.578-0.605-0.866-1.457-0.866-2.555c0-1.133,0.291-2.014,0.875-2.641
			c0.584-0.625,1.342-0.939,2.273-0.939c0.9,0,1.637,0.307,2.209,0.922c0.57,0.613,0.856,1.477,0.856,2.59
			c0,0.066-0.002,0.168-0.007,0.305h-5.027c0.043,0.74,0.252,1.307,0.629,1.701c0.377,0.393,0.847,0.59,1.409,0.59
			c0.419,0,0.776-0.109,1.073-0.33C483.492,210.497,483.727,210.145,483.9,209.663z M480.149,207.817h3.764
			c-0.051-0.568-0.194-0.992-0.432-1.277c-0.364-0.439-0.836-0.66-1.416-0.66c-0.524,0-0.966,0.176-1.323,0.527
			S480.187,207.227,480.149,207.817z"/>
		<path fill="#282828" d="M486.515,211.834v-6.742h1.022v0.947c0.212-0.33,0.493-0.596,0.845-0.797
			c0.351-0.201,0.751-0.303,1.199-0.303c0.499,0,0.909,0.104,1.229,0.313c0.319,0.207,0.545,0.496,0.676,0.869
			c0.533-0.787,1.228-1.182,2.082-1.182c0.669,0,1.183,0.186,1.543,0.557c0.359,0.369,0.539,0.939,0.539,1.711v4.627h-1.137v-4.246
			c0-0.457-0.036-0.787-0.11-0.988s-0.209-0.363-0.403-0.484c-0.194-0.123-0.423-0.186-0.686-0.186
			c-0.474,0-0.867,0.158-1.181,0.473c-0.313,0.316-0.47,0.82-0.47,1.516v3.916h-1.143v-4.381c0-0.508-0.093-0.889-0.279-1.143
			s-0.491-0.381-0.914-0.381c-0.321,0-0.619,0.086-0.892,0.254c-0.273,0.17-0.471,0.418-0.594,0.744
			c-0.123,0.324-0.185,0.795-0.185,1.408v3.498H486.515z"/>
		<path fill="#282828" d="M500.499,209.823l1.129-0.178c0.064,0.451,0.24,0.799,0.53,1.041c0.29,0.24,0.695,0.361,1.216,0.361
			c0.524,0,0.914-0.107,1.168-0.32c0.254-0.215,0.381-0.465,0.381-0.752c0-0.26-0.112-0.463-0.336-0.609
			c-0.157-0.102-0.547-0.23-1.168-0.389c-0.838-0.211-1.419-0.395-1.743-0.549c-0.323-0.154-0.569-0.367-0.736-0.641
			s-0.251-0.574-0.251-0.904c0-0.301,0.069-0.578,0.207-0.836c0.138-0.256,0.324-0.467,0.562-0.637
			c0.178-0.131,0.42-0.242,0.727-0.334c0.307-0.09,0.636-0.137,0.987-0.137c0.529,0,0.993,0.076,1.394,0.229
			c0.399,0.152,0.694,0.359,0.886,0.619c0.189,0.26,0.321,0.609,0.393,1.045l-1.117,0.152c-0.051-0.348-0.197-0.617-0.44-0.813
			s-0.587-0.293-1.032-0.293c-0.524,0-0.898,0.088-1.123,0.262c-0.225,0.172-0.336,0.375-0.336,0.609
			c0,0.146,0.046,0.281,0.139,0.398c0.094,0.123,0.239,0.225,0.438,0.305c0.114,0.043,0.45,0.141,1.009,0.293
			c0.809,0.215,1.373,0.393,1.692,0.529c0.319,0.139,0.57,0.338,0.752,0.6c0.182,0.264,0.272,0.59,0.272,0.979
			c0,0.381-0.11,0.738-0.333,1.076c-0.222,0.336-0.542,0.596-0.962,0.779c-0.418,0.186-0.893,0.277-1.422,0.277
			c-0.875,0-1.543-0.182-2.002-0.547C500.919,211.077,500.626,210.538,500.499,209.823z"/>
		<path fill="#282828" d="M507.03,208.463c0-1.248,0.347-2.172,1.041-2.773c0.58-0.5,1.286-0.75,2.12-0.75
			c0.927,0,1.685,0.305,2.272,0.912s0.883,1.445,0.883,2.516c0,0.869-0.131,1.551-0.391,2.047c-0.261,0.498-0.64,0.885-1.137,1.16
			c-0.497,0.273-1.04,0.412-1.628,0.412c-0.943,0-1.706-0.303-2.288-0.908S507.03,209.602,507.03,208.463z M508.204,208.463
			c0,0.863,0.188,1.51,0.565,1.939s0.851,0.645,1.422,0.645c0.567,0,1.039-0.217,1.415-0.648c0.377-0.432,0.565-1.09,0.565-1.973
			c0-0.834-0.189-1.467-0.568-1.896c-0.379-0.428-0.85-0.643-1.412-0.643c-0.571,0-1.045,0.213-1.422,0.641
			S508.204,207.6,508.204,208.463z"/>
		<path fill="#282828" d="M514.661,211.834v-9.307h1.143v9.307H514.661z"/>
		<path fill="#282828" d="M519.447,211.834l-2.564-6.742h1.206l1.447,4.037c0.156,0.438,0.301,0.889,0.432,1.359
			c0.102-0.355,0.243-0.783,0.426-1.283l1.498-4.113h1.174l-2.552,6.742H519.447z"/>
		<path fill="#282828" d="M528.689,209.663l1.181,0.146c-0.187,0.689-0.531,1.225-1.035,1.605c-0.503,0.381-1.146,0.572-1.93,0.572
			c-0.985,0-1.768-0.305-2.345-0.912c-0.578-0.605-0.866-1.457-0.866-2.555c0-1.133,0.291-2.014,0.875-2.641
			c0.584-0.625,1.342-0.939,2.273-0.939c0.9,0,1.637,0.307,2.209,0.922c0.57,0.613,0.856,1.477,0.856,2.59
			c0,0.066-0.002,0.168-0.007,0.305h-5.027c0.043,0.74,0.252,1.307,0.629,1.701c0.377,0.393,0.847,0.59,1.409,0.59
			c0.419,0,0.776-0.109,1.073-0.33C528.281,210.497,528.516,210.145,528.689,209.663z M524.938,207.817h3.764
			c-0.051-0.568-0.194-0.992-0.432-1.277c-0.364-0.439-0.836-0.66-1.416-0.66c-0.524,0-0.966,0.176-1.323,0.527
			S524.976,207.227,524.938,207.817z"/>
		<path fill="#282828" d="M531.292,211.834v-6.742h1.027v1.023c0.263-0.479,0.505-0.795,0.728-0.947
			c0.222-0.152,0.466-0.229,0.733-0.229c0.385,0,0.776,0.123,1.174,0.369l-0.394,1.061c-0.279-0.166-0.559-0.248-0.838-0.248
			c-0.25,0-0.474,0.074-0.673,0.225s-0.341,0.359-0.426,0.625c-0.127,0.406-0.189,0.852-0.189,1.334v3.529H531.292z"/>
		<path fill="#282828" d="M535.177,209.823l1.129-0.178c0.064,0.451,0.24,0.799,0.53,1.041c0.29,0.24,0.695,0.361,1.216,0.361
			c0.524,0,0.914-0.107,1.168-0.32c0.254-0.215,0.381-0.465,0.381-0.752c0-0.26-0.112-0.463-0.336-0.609
			c-0.157-0.102-0.547-0.23-1.168-0.389c-0.838-0.211-1.419-0.395-1.743-0.549c-0.323-0.154-0.569-0.367-0.736-0.641
			s-0.251-0.574-0.251-0.904c0-0.301,0.069-0.578,0.207-0.836c0.138-0.256,0.324-0.467,0.562-0.637
			c0.178-0.131,0.42-0.242,0.727-0.334c0.307-0.09,0.636-0.137,0.987-0.137c0.529,0,0.993,0.076,1.394,0.229
			c0.399,0.152,0.694,0.359,0.886,0.619c0.189,0.26,0.321,0.609,0.393,1.045l-1.117,0.152c-0.051-0.348-0.197-0.617-0.44-0.813
			s-0.587-0.293-1.032-0.293c-0.524,0-0.898,0.088-1.123,0.262c-0.225,0.172-0.336,0.375-0.336,0.609
			c0,0.146,0.046,0.281,0.139,0.398c0.094,0.123,0.239,0.225,0.438,0.305c0.114,0.043,0.45,0.141,1.009,0.293
			c0.809,0.215,1.373,0.393,1.692,0.529c0.319,0.139,0.57,0.338,0.752,0.6c0.182,0.264,0.272,0.59,0.272,0.979
			c0,0.381-0.11,0.738-0.333,1.076c-0.222,0.336-0.542,0.596-0.962,0.779c-0.418,0.186-0.893,0.277-1.422,0.277
			c-0.875,0-1.543-0.182-2.002-0.547C535.597,211.077,535.304,210.538,535.177,209.823z"/>
		<path fill="#282828" d="M550.144,211.002c-0.423,0.359-0.83,0.613-1.222,0.762s-0.812,0.223-1.261,0.223
			c-0.74,0-1.31-0.182-1.707-0.543s-0.597-0.824-0.597-1.387c0-0.33,0.075-0.633,0.226-0.904c0.15-0.273,0.347-0.492,0.59-0.658
			c0.243-0.164,0.518-0.289,0.822-0.373c0.225-0.061,0.563-0.117,1.016-0.172c0.923-0.109,1.602-0.242,2.037-0.395
			c0.005-0.156,0.007-0.256,0.007-0.297c0-0.467-0.108-0.795-0.323-0.984c-0.293-0.258-0.727-0.387-1.302-0.387
			c-0.537,0-0.935,0.094-1.19,0.281c-0.256,0.189-0.445,0.521-0.568,1l-1.117-0.152c0.102-0.479,0.27-0.863,0.502-1.158
			s0.569-0.521,1.01-0.68c0.439-0.158,0.949-0.238,1.529-0.238c0.575,0,1.043,0.068,1.402,0.203c0.36,0.137,0.625,0.307,0.794,0.512
			s0.288,0.465,0.355,0.777c0.038,0.195,0.058,0.547,0.058,1.055v1.523c0,1.061,0.023,1.732,0.072,2.014
			c0.049,0.283,0.146,0.553,0.289,0.811h-1.193C550.254,211.598,550.178,211.321,550.144,211.002z M550.048,208.452
			c-0.414,0.168-1.036,0.313-1.865,0.432c-0.471,0.066-0.803,0.143-0.997,0.229c-0.194,0.084-0.345,0.207-0.45,0.371
			c-0.106,0.162-0.159,0.344-0.159,0.543c0,0.305,0.115,0.559,0.346,0.762s0.568,0.305,1.013,0.305c0.44,0,0.832-0.098,1.174-0.289
			c0.344-0.193,0.595-0.457,0.756-0.791c0.123-0.258,0.184-0.639,0.184-1.143V208.452z"/>
		<path fill="#282828" d="M552.962,211.834v-6.742h1.029v1.023c0.262-0.479,0.504-0.795,0.727-0.947
			c0.222-0.152,0.467-0.229,0.732-0.229c0.386,0,0.777,0.123,1.175,0.369l-0.394,1.061c-0.279-0.166-0.559-0.248-0.838-0.248
			c-0.25,0-0.474,0.074-0.673,0.225s-0.341,0.359-0.425,0.625c-0.127,0.406-0.191,0.852-0.191,1.334v3.529H552.962z"/>
		<path fill="#282828" d="M561.919,209.663l1.181,0.146c-0.187,0.689-0.531,1.225-1.034,1.605c-0.504,0.381-1.147,0.572-1.93,0.572
			c-0.986,0-1.769-0.305-2.346-0.912c-0.578-0.605-0.867-1.457-0.867-2.555c0-1.133,0.293-2.014,0.877-2.641
			c0.584-0.625,1.341-0.939,2.271-0.939c0.902,0,1.639,0.307,2.209,0.922c0.572,0.613,0.857,1.477,0.857,2.59
			c0,0.066-0.002,0.168-0.006,0.305h-5.027c0.042,0.74,0.251,1.307,0.628,1.701c0.377,0.393,0.847,0.59,1.409,0.59
			c0.419,0,0.776-0.109,1.072-0.33C561.511,210.497,561.745,210.145,561.919,209.663z M558.167,207.817h3.765
			c-0.051-0.568-0.194-0.992-0.432-1.277c-0.364-0.439-0.836-0.66-1.415-0.66c-0.525,0-0.967,0.176-1.324,0.527
			S558.206,207.227,558.167,207.817z"/>
		<path fill="#282828" d="M453.978,228.434v-9.305h1.143v3.338c0.533-0.617,1.205-0.926,2.018-0.926c0.5,0,0.934,0.098,1.302,0.295
			c0.368,0.195,0.632,0.469,0.79,0.814c0.159,0.348,0.238,0.852,0.238,1.512v4.271h-1.143v-4.271c0-0.572-0.124-0.988-0.371-1.248
			c-0.248-0.26-0.598-0.391-1.051-0.391c-0.339,0-0.657,0.088-0.955,0.264c-0.299,0.176-0.512,0.414-0.639,0.715
			s-0.189,0.715-0.189,1.244v3.688H453.978z"/>
		<path fill="#282828" d="M461.214,220.442v-1.313h1.143v1.313H461.214z M461.214,228.434v-6.74h1.143v6.74H461.214z"/>
		<path fill="#282828" d="M463.886,228.993l1.111,0.166c0.046,0.342,0.175,0.592,0.387,0.748c0.283,0.211,0.671,0.318,1.162,0.318
			c0.528,0,0.937-0.107,1.225-0.318s0.482-0.508,0.584-0.889c0.06-0.232,0.087-0.721,0.082-1.467
			c-0.499,0.59-1.121,0.883-1.865,0.883c-0.928,0-1.645-0.334-2.152-1.002c-0.508-0.67-0.762-1.471-0.762-2.406
			c0-0.643,0.116-1.236,0.35-1.781c0.232-0.543,0.569-0.963,1.012-1.26s0.962-0.443,1.559-0.443c0.796,0,1.451,0.32,1.968,0.965
			v-0.813h1.054v5.826c0,1.049-0.106,1.793-0.32,2.23c-0.214,0.439-0.553,0.785-1.016,1.039c-0.464,0.254-1.034,0.381-1.711,0.381
			c-0.804,0-1.453-0.182-1.949-0.543C464.108,230.266,463.869,229.721,463.886,228.993z M464.831,224.944
			c0,0.883,0.176,1.529,0.527,1.936s0.791,0.609,1.32,0.609c0.524,0,0.965-0.203,1.32-0.607c0.355-0.402,0.533-1.037,0.533-1.9
			c0-0.824-0.183-1.447-0.549-1.865c-0.366-0.42-0.808-0.629-1.324-0.629c-0.508,0-0.939,0.205-1.295,0.619
			C465.009,223.518,464.831,224.131,464.831,224.944z"/>
		<path fill="#282828" d="M471.325,228.434v-9.305h1.143v3.338c0.533-0.617,1.205-0.926,2.018-0.926c0.5,0,0.934,0.098,1.302,0.295
			c0.368,0.195,0.632,0.469,0.79,0.814c0.159,0.348,0.238,0.852,0.238,1.512v4.271h-1.143v-4.271c0-0.572-0.124-0.988-0.371-1.248
			c-0.248-0.26-0.598-0.391-1.051-0.391c-0.339,0-0.657,0.088-0.955,0.264c-0.299,0.176-0.512,0.414-0.639,0.715
			s-0.189,0.715-0.189,1.244v3.688H471.325z"/>
		<path fill="#282828" d="M478.53,228.434v-9.305h1.143v9.305H478.53z"/>
		<path fill="#282828" d="M481.394,231.03l-0.127-1.072c0.249,0.068,0.467,0.102,0.653,0.102c0.254,0,0.457-0.043,0.609-0.127
			s0.277-0.203,0.374-0.355c0.072-0.113,0.188-0.398,0.35-0.85c0.021-0.064,0.055-0.158,0.102-0.279l-2.559-6.754h1.232l1.402,3.902
			c0.182,0.496,0.345,1.016,0.488,1.563c0.132-0.525,0.288-1.037,0.471-1.537l1.44-3.928h1.143l-2.564,6.855
			c-0.275,0.74-0.489,1.25-0.642,1.529c-0.203,0.377-0.436,0.652-0.697,0.828c-0.263,0.176-0.576,0.264-0.939,0.264
			C481.909,231.17,481.664,231.124,481.394,231.03z"/>
		<path fill="#282828" d="M495.954,227.602c-0.423,0.361-0.83,0.615-1.222,0.762c-0.392,0.148-0.812,0.223-1.261,0.223
			c-0.74,0-1.31-0.182-1.707-0.543s-0.597-0.824-0.597-1.387c0-0.33,0.075-0.631,0.226-0.904s0.347-0.492,0.59-0.656
			c0.243-0.166,0.518-0.291,0.822-0.375c0.225-0.059,0.563-0.117,1.016-0.172c0.923-0.109,1.602-0.24,2.037-0.393
			c0.005-0.158,0.007-0.256,0.007-0.299c0-0.465-0.108-0.793-0.323-0.984c-0.293-0.258-0.727-0.387-1.302-0.387
			c-0.537,0-0.935,0.094-1.19,0.281c-0.256,0.189-0.445,0.523-0.568,1l-1.117-0.152c0.102-0.477,0.27-0.863,0.502-1.158
			c0.232-0.293,0.569-0.52,1.01-0.68c0.439-0.158,0.949-0.236,1.529-0.236c0.575,0,1.043,0.066,1.402,0.203
			c0.36,0.135,0.625,0.305,0.794,0.51s0.288,0.465,0.355,0.777c0.038,0.195,0.058,0.547,0.058,1.055v1.523
			c0,1.063,0.023,1.734,0.072,2.016s0.146,0.551,0.289,0.809h-1.193C496.064,228.198,495.988,227.92,495.954,227.602z
			 M495.858,225.051c-0.414,0.17-1.036,0.313-1.865,0.432c-0.471,0.068-0.803,0.145-0.997,0.229s-0.345,0.209-0.45,0.371
			c-0.106,0.162-0.159,0.344-0.159,0.543c0,0.305,0.115,0.559,0.346,0.762s0.568,0.305,1.013,0.305c0.44,0,0.832-0.096,1.174-0.289
			c0.344-0.193,0.595-0.455,0.756-0.791c0.123-0.258,0.184-0.639,0.184-1.143V225.051z"/>
		<path fill="#282828" d="M498.786,231.018v-9.324h1.041v0.875c0.245-0.342,0.522-0.6,0.831-0.771s0.684-0.256,1.124-0.256
			c0.575,0,1.083,0.146,1.523,0.443c0.439,0.297,0.771,0.715,0.996,1.254s0.336,1.131,0.336,1.773c0,0.691-0.123,1.311-0.371,1.863
			c-0.247,0.553-0.607,0.977-1.079,1.27c-0.472,0.295-0.968,0.441-1.488,0.441c-0.381,0-0.723-0.08-1.025-0.24
			c-0.303-0.162-0.551-0.365-0.745-0.609v3.281H498.786z M499.82,225.102c0,0.867,0.176,1.508,0.526,1.924
			c0.352,0.414,0.777,0.621,1.276,0.621c0.508,0,0.942-0.215,1.305-0.645c0.361-0.43,0.542-1.094,0.542-1.996
			c0-0.859-0.176-1.502-0.529-1.93s-0.775-0.641-1.267-0.641c-0.486,0-0.917,0.227-1.292,0.682
			C500.008,223.573,499.82,224.235,499.82,225.102z"/>
		<path fill="#282828" d="M506.015,231.018v-9.324h1.041v0.875c0.246-0.342,0.523-0.6,0.832-0.771s0.684-0.256,1.123-0.256
			c0.576,0,1.084,0.146,1.523,0.443c0.44,0.297,0.772,0.715,0.997,1.254s0.337,1.131,0.337,1.773c0,0.691-0.124,1.311-0.372,1.863
			c-0.247,0.553-0.607,0.977-1.079,1.27c-0.472,0.295-0.968,0.441-1.488,0.441c-0.381,0-0.723-0.08-1.025-0.24
			c-0.303-0.162-0.551-0.365-0.746-0.609v3.281H506.015z M507.05,225.102c0,0.867,0.176,1.508,0.527,1.924
			c0.351,0.414,0.776,0.621,1.275,0.621c0.508,0,0.942-0.215,1.305-0.645c0.361-0.43,0.543-1.094,0.543-1.996
			c0-0.859-0.177-1.502-0.53-1.93s-0.775-0.641-1.267-0.641c-0.486,0-0.917,0.227-1.292,0.682
			C507.237,223.573,507.05,224.235,507.05,225.102z"/>
		<path fill="#282828" d="M513.231,228.434v-6.74h1.029v1.021c0.262-0.479,0.504-0.793,0.727-0.945
			c0.222-0.152,0.467-0.229,0.732-0.229c0.386,0,0.777,0.121,1.175,0.367l-0.394,1.061c-0.279-0.166-0.559-0.248-0.838-0.248
			c-0.25,0-0.474,0.076-0.673,0.225c-0.199,0.15-0.341,0.359-0.425,0.627c-0.127,0.406-0.191,0.85-0.191,1.332v3.529H513.231z"/>
		<path fill="#282828" d="M522.189,226.264l1.181,0.145c-0.187,0.691-0.531,1.227-1.035,1.607c-0.503,0.381-1.146,0.57-1.93,0.57
			c-0.985,0-1.768-0.303-2.345-0.91c-0.578-0.607-0.866-1.459-0.866-2.555c0-1.135,0.291-2.016,0.875-2.641
			c0.584-0.627,1.342-0.939,2.273-0.939c0.9,0,1.637,0.307,2.209,0.92c0.57,0.613,0.856,1.477,0.856,2.59
			c0,0.068-0.002,0.17-0.007,0.305h-5.027c0.043,0.74,0.252,1.307,0.629,1.701c0.377,0.393,0.847,0.59,1.409,0.59
			c0.419,0,0.776-0.109,1.073-0.33C521.781,227.096,522.016,226.747,522.189,226.264z M518.438,224.417h3.764
			c-0.051-0.566-0.194-0.992-0.432-1.275c-0.364-0.441-0.836-0.66-1.416-0.66c-0.524,0-0.966,0.176-1.323,0.525
			C518.674,223.358,518.476,223.829,518.438,224.417z"/>
		<path fill="#282828" d="M529.203,225.965l1.124,0.146c-0.123,0.773-0.438,1.379-0.943,1.818c-0.506,0.438-1.127,0.656-1.863,0.656
			c-0.922,0-1.664-0.301-2.225-0.904s-0.841-1.467-0.841-2.594c0-0.727,0.12-1.363,0.362-1.91c0.24-0.545,0.607-0.955,1.101-1.229
			s1.029-0.408,1.609-0.408c0.732,0,1.331,0.184,1.796,0.555c0.466,0.371,0.765,0.896,0.896,1.578l-1.11,0.17
			c-0.106-0.451-0.294-0.793-0.563-1.021s-0.594-0.342-0.975-0.342c-0.575,0-1.043,0.205-1.402,0.617
			c-0.359,0.414-0.539,1.066-0.539,1.959c0,0.906,0.173,1.564,0.52,1.975c0.348,0.41,0.801,0.615,1.359,0.615
			c0.448,0,0.822-0.137,1.123-0.412S529.123,226.536,529.203,225.965z"/>
		<path fill="#282828" d="M531.311,220.442v-1.313h1.143v1.313H531.311z M531.311,228.434v-6.74h1.143v6.74H531.311z"/>
		<path fill="#282828" d="M538.591,227.602c-0.423,0.361-0.83,0.615-1.222,0.762c-0.392,0.148-0.812,0.223-1.261,0.223
			c-0.74,0-1.31-0.182-1.707-0.543s-0.597-0.824-0.597-1.387c0-0.33,0.075-0.631,0.226-0.904s0.347-0.492,0.59-0.656
			c0.243-0.166,0.518-0.291,0.822-0.375c0.225-0.059,0.563-0.117,1.016-0.172c0.923-0.109,1.602-0.24,2.037-0.393
			c0.005-0.158,0.007-0.256,0.007-0.299c0-0.465-0.108-0.793-0.323-0.984c-0.293-0.258-0.727-0.387-1.302-0.387
			c-0.537,0-0.935,0.094-1.19,0.281c-0.256,0.189-0.445,0.523-0.568,1l-1.117-0.152c0.102-0.477,0.27-0.863,0.502-1.158
			c0.232-0.293,0.569-0.52,1.01-0.68c0.439-0.158,0.949-0.236,1.529-0.236c0.575,0,1.043,0.066,1.402,0.203
			c0.36,0.135,0.625,0.305,0.794,0.51s0.288,0.465,0.355,0.777c0.038,0.195,0.058,0.547,0.058,1.055v1.523
			c0,1.063,0.023,1.734,0.072,2.016s0.146,0.551,0.289,0.809h-1.193C538.701,228.198,538.625,227.92,538.591,227.602z
			 M538.495,225.051c-0.414,0.17-1.036,0.313-1.865,0.432c-0.471,0.068-0.803,0.145-0.997,0.229s-0.345,0.209-0.45,0.371
			c-0.106,0.162-0.159,0.344-0.159,0.543c0,0.305,0.115,0.559,0.346,0.762s0.568,0.305,1.013,0.305c0.44,0,0.832-0.096,1.174-0.289
			c0.344-0.193,0.595-0.455,0.756-0.791c0.123-0.258,0.184-0.639,0.184-1.143V225.051z"/>
		<path fill="#282828" d="M543.917,227.413l0.165,1.01c-0.321,0.066-0.609,0.102-0.863,0.102c-0.415,0-0.736-0.066-0.965-0.197
			s-0.39-0.305-0.482-0.518s-0.14-0.664-0.14-1.35v-3.877h-0.838v-0.889h0.838v-1.67l1.137-0.686v2.355h1.148v0.889h-1.148v3.941
			c0,0.326,0.02,0.535,0.06,0.629c0.04,0.092,0.106,0.166,0.197,0.221c0.091,0.057,0.221,0.084,0.39,0.084
			C543.542,227.458,543.71,227.442,543.917,227.413z"/>
		<path fill="#282828" d="M549.648,226.264l1.181,0.145c-0.187,0.691-0.531,1.227-1.035,1.607c-0.503,0.381-1.146,0.57-1.93,0.57
			c-0.985,0-1.768-0.303-2.345-0.91c-0.578-0.607-0.866-1.459-0.866-2.555c0-1.135,0.291-2.016,0.875-2.641
			c0.584-0.627,1.342-0.939,2.273-0.939c0.9,0,1.637,0.307,2.209,0.92c0.57,0.613,0.856,1.477,0.856,2.59
			c0,0.068-0.002,0.17-0.007,0.305h-5.027c0.043,0.74,0.252,1.307,0.629,1.701c0.377,0.393,0.847,0.59,1.409,0.59
			c0.419,0,0.776-0.109,1.073-0.33C549.24,227.096,549.475,226.747,549.648,226.264z M545.897,224.417h3.764
			c-0.051-0.566-0.194-0.992-0.432-1.275c-0.364-0.441-0.836-0.66-1.416-0.66c-0.524,0-0.966,0.176-1.323,0.525
			C546.133,223.358,545.935,223.829,545.897,224.417z"/>
		<path fill="#282828" d="M556.638,228.434v-0.85c-0.428,0.668-1.056,1.002-1.885,1.002c-0.538,0-1.032-0.148-1.482-0.443
			c-0.451-0.297-0.8-0.711-1.048-1.242c-0.247-0.531-0.371-1.141-0.371-1.83c0-0.674,0.112-1.283,0.337-1.832
			c0.224-0.549,0.561-0.969,1.009-1.26c0.448-0.293,0.95-0.438,1.505-0.438c0.406,0,0.768,0.084,1.085,0.256s0.575,0.395,0.774,0.67
			v-3.338h1.137v9.305H556.638z M553.026,225.071c0,0.863,0.182,1.508,0.545,1.936c0.364,0.428,0.794,0.641,1.289,0.641
			c0.499,0,0.924-0.203,1.272-0.613c0.35-0.408,0.524-1.031,0.524-1.869c0-0.922-0.178-1.6-0.533-2.031s-0.794-0.646-1.314-0.646
			c-0.508,0-0.932,0.207-1.272,0.621C553.196,223.524,553.026,224.176,553.026,225.071z"/>
		<path fill="#282828" d="M457.964,237.043v-1.314h1.143v1.314H457.964z M457.964,245.034v-6.74h1.143v6.74H457.964z"/>
		<path fill="#282828" d="M460.847,245.034v-6.74h1.027v0.959c0.496-0.742,1.211-1.111,2.146-1.111c0.406,0,0.779,0.072,1.12,0.219
			s0.596,0.338,0.765,0.574s0.288,0.52,0.355,0.844c0.042,0.213,0.063,0.582,0.063,1.111v4.145h-1.143v-4.1
			c0-0.465-0.044-0.814-0.134-1.045c-0.088-0.23-0.246-0.414-0.473-0.553c-0.227-0.137-0.492-0.205-0.797-0.205
			c-0.486,0-0.906,0.154-1.26,0.463s-0.529,0.895-0.529,1.758v3.682H460.847z"/>
		<path fill="#282828" d="M472.741,245.034h-1.06v-9.305h1.143v3.32c0.482-0.605,1.099-0.908,1.847-0.908
			c0.415,0,0.808,0.084,1.178,0.25c0.37,0.168,0.675,0.402,0.914,0.705s0.427,0.668,0.563,1.096
			c0.135,0.426,0.203,0.883,0.203,1.371c0,1.154-0.286,2.047-0.857,2.678s-1.257,0.945-2.057,0.945c-0.796,0-1.42-0.332-1.873-0.996
			V245.034z M472.729,241.614c0,0.807,0.109,1.391,0.33,1.752c0.359,0.588,0.846,0.881,1.459,0.881c0.5,0,0.932-0.217,1.295-0.65
			c0.364-0.434,0.547-1.08,0.547-1.939c0-0.879-0.175-1.529-0.524-1.947c-0.349-0.42-0.771-0.629-1.267-0.629
			c-0.499,0-0.931,0.217-1.295,0.65C472.911,240.165,472.729,240.792,472.729,241.614z"/>
		<path fill="#282828" d="M478.924,237.043v-1.314h1.143v1.314H478.924z M478.924,245.034v-6.74h1.143v6.74H478.924z"/>
		<path fill="#282828" d="M481.596,245.592l1.11,0.166c0.047,0.342,0.176,0.592,0.388,0.748c0.283,0.213,0.671,0.318,1.161,0.318
			c0.529,0,0.938-0.105,1.226-0.318c0.288-0.211,0.482-0.508,0.584-0.889c0.06-0.232,0.087-0.721,0.083-1.465
			c-0.5,0.588-1.122,0.881-1.867,0.881c-0.926,0-1.644-0.334-2.151-1.002s-0.762-1.471-0.762-2.406c0-0.643,0.116-1.236,0.349-1.781
			c0.233-0.543,0.57-0.963,1.013-1.26c0.442-0.295,0.962-0.443,1.559-0.443c0.796,0,1.451,0.322,1.968,0.965v-0.813h1.054v5.826
			c0,1.051-0.106,1.793-0.32,2.232c-0.214,0.438-0.553,0.783-1.016,1.037c-0.464,0.254-1.034,0.381-1.711,0.381
			c-0.804,0-1.454-0.182-1.948-0.543C481.817,246.866,481.579,246.321,481.596,245.592z M482.542,241.543
			c0,0.885,0.175,1.529,0.526,1.936s0.791,0.609,1.32,0.609c0.524,0,0.965-0.201,1.32-0.605s0.533-1.039,0.533-1.902
			c0-0.824-0.183-1.447-0.549-1.865c-0.366-0.42-0.808-0.629-1.323-0.629c-0.508,0-0.939,0.207-1.295,0.619
			S482.542,240.731,482.542,241.543z"/>
		<path fill="#282828" d="M497.046,242.565l1.123,0.146c-0.122,0.773-0.437,1.381-0.942,1.818s-1.126,0.656-1.862,0.656
			c-0.923,0-1.665-0.301-2.226-0.904s-0.841-1.467-0.841-2.592c0-0.729,0.121-1.365,0.361-1.912
			c0.242-0.545,0.608-0.955,1.102-1.229c0.493-0.271,1.029-0.408,1.609-0.408c0.732,0,1.331,0.186,1.797,0.555
			c0.465,0.371,0.764,0.896,0.895,1.578l-1.111,0.172c-0.105-0.453-0.293-0.795-0.562-1.023s-0.593-0.342-0.974-0.342
			c-0.576,0-1.044,0.205-1.403,0.619c-0.359,0.412-0.54,1.064-0.54,1.957c0,0.906,0.174,1.564,0.521,1.975
			c0.347,0.41,0.799,0.615,1.357,0.615c0.449,0,0.823-0.137,1.124-0.412S496.966,243.137,497.046,242.565z"/>
		<path fill="#282828" d="M498.722,241.665c0-1.25,0.347-2.174,1.041-2.775c0.58-0.498,1.286-0.748,2.12-0.748
			c0.927,0,1.685,0.303,2.272,0.91s0.883,1.447,0.883,2.518c0,0.867-0.131,1.549-0.391,2.047c-0.261,0.498-0.64,0.883-1.137,1.158
			s-1.04,0.412-1.628,0.412c-0.943,0-1.706-0.303-2.288-0.906C499.013,243.674,498.722,242.801,498.722,241.665z M499.896,241.665
			c0,0.863,0.188,1.51,0.565,1.938c0.377,0.43,0.851,0.645,1.422,0.645c0.567,0,1.039-0.215,1.415-0.646
			c0.377-0.432,0.565-1.09,0.565-1.975c0-0.834-0.189-1.465-0.568-1.895s-0.85-0.645-1.412-0.645c-0.571,0-1.045,0.215-1.422,0.641
			C500.084,240.155,499.896,240.801,499.896,241.665z"/>
		<path fill="#282828" d="M506.378,245.034v-6.74h1.021v0.945c0.212-0.33,0.493-0.596,0.844-0.797
			c0.352-0.201,0.752-0.301,1.2-0.301c0.499,0,0.909,0.104,1.229,0.311s0.545,0.498,0.676,0.869c0.533-0.787,1.228-1.18,2.082-1.18
			c0.669,0,1.183,0.186,1.542,0.555c0.36,0.371,0.54,0.941,0.54,1.711v4.627h-1.136v-4.246c0-0.457-0.037-0.785-0.111-0.986
			s-0.209-0.363-0.403-0.486s-0.423-0.184-0.686-0.184c-0.474,0-0.867,0.158-1.181,0.473s-0.47,0.82-0.47,1.514v3.916h-1.143v-4.379
			c0-0.508-0.093-0.889-0.279-1.143s-0.491-0.381-0.914-0.381c-0.321,0-0.619,0.084-0.892,0.254
			c-0.273,0.17-0.471,0.416-0.594,0.742s-0.184,0.795-0.184,1.41v3.496H506.378z"/>
		<path fill="#282828" d="M517.206,247.618v-9.324h1.041v0.875c0.246-0.342,0.523-0.6,0.832-0.771
			c0.309-0.17,0.684-0.256,1.123-0.256c0.576,0,1.084,0.148,1.523,0.443c0.44,0.297,0.772,0.715,0.997,1.254
			s0.337,1.131,0.337,1.775c0,0.689-0.124,1.311-0.372,1.861c-0.247,0.553-0.607,0.977-1.079,1.27
			c-0.472,0.295-0.968,0.441-1.488,0.441c-0.381,0-0.723-0.08-1.025-0.24s-0.551-0.363-0.746-0.609v3.281H517.206z M518.241,241.702
			c0,0.867,0.176,1.51,0.527,1.924c0.351,0.414,0.776,0.621,1.275,0.621c0.508,0,0.942-0.215,1.305-0.645
			c0.361-0.428,0.543-1.094,0.543-1.996c0-0.857-0.177-1.502-0.53-1.93c-0.354-0.426-0.775-0.641-1.267-0.641
			c-0.486,0-0.917,0.229-1.292,0.682C518.429,240.172,518.241,240.834,518.241,241.702z"/>
		<path fill="#282828" d="M528.835,244.204c-0.423,0.359-0.83,0.613-1.222,0.762c-0.392,0.146-0.812,0.221-1.261,0.221
			c-0.74,0-1.31-0.18-1.707-0.543c-0.397-0.361-0.597-0.822-0.597-1.387c0-0.33,0.075-0.631,0.226-0.904s0.347-0.492,0.59-0.656
			c0.243-0.166,0.518-0.291,0.822-0.375c0.225-0.059,0.563-0.115,1.016-0.172c0.923-0.109,1.602-0.24,2.037-0.393
			c0.005-0.156,0.007-0.256,0.007-0.299c0-0.465-0.108-0.793-0.323-0.984c-0.293-0.258-0.727-0.387-1.302-0.387
			c-0.537,0-0.935,0.094-1.19,0.283c-0.256,0.188-0.445,0.521-0.568,1l-1.117-0.152c0.102-0.479,0.27-0.865,0.502-1.16
			c0.232-0.293,0.569-0.52,1.01-0.678c0.439-0.16,0.949-0.238,1.529-0.238c0.575,0,1.043,0.068,1.402,0.203
			c0.36,0.135,0.625,0.305,0.794,0.51c0.169,0.207,0.288,0.465,0.355,0.779c0.038,0.193,0.058,0.545,0.058,1.053v1.523
			c0,1.063,0.023,1.734,0.072,2.016s0.146,0.551,0.289,0.809h-1.193C528.945,244.797,528.869,244.52,528.835,244.204z
			 M528.739,241.651c-0.414,0.17-1.036,0.313-1.865,0.432c-0.471,0.068-0.803,0.145-0.997,0.229s-0.345,0.209-0.45,0.371
			c-0.106,0.164-0.159,0.344-0.159,0.543c0,0.305,0.115,0.559,0.346,0.762s0.568,0.305,1.013,0.305c0.44,0,0.832-0.096,1.174-0.289
			c0.344-0.191,0.595-0.455,0.756-0.789c0.123-0.26,0.184-0.641,0.184-1.143V241.651z"/>
		<path fill="#282828" d="M531.667,245.034v-6.74h1.027v0.959c0.496-0.742,1.211-1.111,2.146-1.111c0.406,0,0.779,0.072,1.12,0.219
			s0.596,0.338,0.765,0.574s0.288,0.52,0.355,0.844c0.042,0.213,0.063,0.582,0.063,1.111v4.145h-1.143v-4.1
			c0-0.465-0.044-0.814-0.134-1.045c-0.088-0.23-0.246-0.414-0.473-0.553c-0.227-0.137-0.492-0.205-0.797-0.205
			c-0.486,0-0.906,0.154-1.26,0.463s-0.529,0.895-0.529,1.758v3.682H531.667z"/>
		<path fill="#282828" d="M538.903,237.043v-1.314h1.143v1.314H538.903z M538.903,245.034v-6.74h1.143v6.74H538.903z"/>
		<path fill="#282828" d="M546.399,242.864l1.181,0.146c-0.187,0.689-0.531,1.225-1.034,1.605c-0.504,0.381-1.147,0.57-1.93,0.57
			c-0.986,0-1.769-0.303-2.346-0.91c-0.578-0.607-0.867-1.459-0.867-2.555c0-1.135,0.293-2.014,0.877-2.641s1.341-0.939,2.271-0.939
			c0.902,0,1.639,0.307,2.209,0.92c0.572,0.613,0.857,1.477,0.857,2.59c0,0.068-0.002,0.17-0.006,0.305h-5.027
			c0.042,0.74,0.251,1.309,0.628,1.701c0.377,0.395,0.847,0.59,1.409,0.59c0.419,0,0.776-0.109,1.072-0.33
			C545.991,243.698,546.226,243.346,546.399,242.864z M542.647,241.016h3.765c-0.051-0.566-0.194-0.992-0.432-1.275
			c-0.364-0.439-0.836-0.66-1.415-0.66c-0.525,0-0.967,0.176-1.324,0.527C542.884,239.958,542.687,240.428,542.647,241.016z"/>
		<path fill="#282828" d="M548.558,243.022l1.129-0.178c0.064,0.453,0.24,0.801,0.53,1.041c0.29,0.242,0.695,0.361,1.216,0.361
			c0.524,0,0.914-0.105,1.168-0.32c0.254-0.213,0.381-0.465,0.381-0.752c0-0.258-0.112-0.461-0.336-0.609
			c-0.157-0.102-0.547-0.23-1.168-0.387c-0.838-0.211-1.419-0.395-1.743-0.549c-0.323-0.154-0.569-0.369-0.736-0.643
			c-0.167-0.271-0.251-0.574-0.251-0.904c0-0.299,0.069-0.578,0.207-0.834s0.324-0.469,0.562-0.639
			c0.178-0.131,0.42-0.242,0.727-0.332c0.307-0.092,0.636-0.137,0.987-0.137c0.529,0,0.993,0.076,1.394,0.229
			c0.399,0.152,0.694,0.357,0.886,0.619c0.189,0.26,0.321,0.607,0.393,1.043l-1.117,0.152c-0.051-0.346-0.197-0.617-0.44-0.813
			c-0.243-0.193-0.587-0.291-1.032-0.291c-0.524,0-0.898,0.086-1.123,0.26s-0.336,0.377-0.336,0.609c0,0.148,0.046,0.281,0.139,0.4
			c0.094,0.123,0.239,0.225,0.438,0.305c0.114,0.043,0.45,0.139,1.009,0.291c0.809,0.217,1.373,0.393,1.692,0.531
			c0.319,0.137,0.57,0.338,0.752,0.6s0.272,0.588,0.272,0.977c0,0.381-0.11,0.74-0.333,1.076c-0.222,0.336-0.542,0.598-0.962,0.781
			c-0.418,0.184-0.893,0.275-1.422,0.275c-0.875,0-1.543-0.182-2.002-0.545S548.685,243.737,548.558,243.022z"/>
		<path fill="#282828" d="M555.838,245.034v-1.301h1.302v1.301H555.838z"/>
	</g>
</g>
</svg>
