<?xml version="1.0" encoding="utf-8"?>
<!-- Generator: Adobe Illustrator 16.0.0, SVG Export Plug-In . SVG Version: 6.00 Build 0)  -->
<!DOCTYPE svg PUBLIC "-//W3C//DTD SVG 1.1//EN" "http://www.w3.org/Graphics/SVG/1.1/DTD/svg11.dtd">
<svg version="1.1" id="Capa_1" xmlns="http://www.w3.org/2000/svg" xmlns:xlink="http://www.w3.org/1999/xlink" x="0px" y="0px"
	 width="473.916px" height="162.589px" viewBox="0 0 473.916 162.589" enable-background="new 0 0 473.916 162.589"
	 xml:space="preserve">
<g>
	<g>
		<path fill="none" stroke="#777777" stroke-miterlimit="10" d="M164.508,39.013c0,3.898-3.161,7.059-7.058,7.059h-37.712
			c-3.896,0-7.058-3.161-7.058-7.059V25.456c0-3.898,3.161-7.058,7.058-7.058h37.712c3.896,0,7.058,3.16,7.058,7.058V39.013z"/>
		<path fill="#FFFFFF" stroke="#1B4908" stroke-miterlimit="10" d="M84.457,118.595c0,3.898-3.161,7.06-7.058,7.059H7.558
			c-3.896,0-7.058-3.16-7.058-7.059v-13.557c0-3.898,3.161-7.059,7.058-7.059h69.842c3.896,0,7.058,3.16,7.058,7.059V118.595z"/>
		<path fill="#FFFFFF" stroke="#1B4908" stroke-miterlimit="10" d="M84.457,155.031c0,3.898-3.161,7.059-7.058,7.059H7.558
			c-3.896,0-7.058-3.16-7.058-7.059v-13.558c0-3.897,3.161-7.059,7.058-7.059h69.842c3.896,0,7.058,3.161,7.058,7.059V155.031z"/>
		<path fill="#FFFFFF" stroke="#1B4908" stroke-miterlimit="10" d="M473.416,21.116c0,3.898-3.161,7.059-7.058,7.059h-69.842
			c-3.896,0-7.058-3.161-7.058-7.059V7.558c0-3.898,3.161-7.058,7.058-7.058h69.842c3.896,0,7.058,3.16,7.058,7.058V21.116z"/>
		<path fill="#FFFFFF" stroke="#1B4908" stroke-miterlimit="10" d="M473.416,57.551c0,3.898-3.161,7.06-7.058,7.059h-69.842
			c-3.896,0-7.058-3.16-7.058-7.059V43.993c0-3.898,3.161-7.059,7.058-7.059h69.842c3.896,0,7.058,3.161,7.058,7.059V57.551z"/>
		<path fill="#FFFFFF" stroke="#1B4908" stroke-miterlimit="10" d="M473.416,118.595c0,3.898-3.161,7.06-7.058,7.059h-69.842
			c-3.896,0-7.058-3.16-7.058-7.059v-13.557c0-3.898,3.161-7.059,7.058-7.059h69.842c3.896,0,7.058,3.16,7.058,7.059V118.595z"/>
		<path fill="#FFFFFF" stroke="#1B4908" stroke-miterlimit="10" d="M473.416,155.031c0,3.898-3.161,7.059-7.058,7.059h-69.842
			c-3.896,0-7.058-3.16-7.058-7.059v-13.558c0-3.897,3.161-7.059,7.058-7.059h69.842c3.896,0,7.058,3.161,7.058,7.059V155.031z"/>
		<circle fill="#F7BC00" cx="98.91" cy="32.588" r="6.896"/>
		<g>
			<rect x="95.161" y="31.565" fill="#212121" width="7.499" height="1.338"/>
		</g>
		<g>
			<rect x="105.806" y="31.919" fill="#212121" width="6.875" height="1.338"/>
		</g>
		<polygon fill="#212121" points="84.457,13.044 84.457,15.117 94.649,27.169 95.672,26.306 		"/>
		<polygon fill="#212121" points="84.457,52.022 95.67,38.804 94.651,37.939 84.457,49.956 		"/>
		<circle fill="#F7BC00" cx="98.91" cy="130.35" r="6.896"/>
		<g>
			<rect x="95.161" y="129.328" fill="#212121" width="7.499" height="1.338"/>
		</g>
		<g>
			<rect x="105.806" y="129.681" fill="#212121" width="6.875" height="1.338"/>
		</g>
		<polygon fill="#212121" points="84.457,110.806 84.457,112.878 94.649,124.931 95.672,124.068 		"/>
		<polygon fill="#212121" points="84.457,149.785 95.67,136.566 94.651,135.701 84.457,147.718 		"/>
		<path fill="#FFFFFF" stroke="#1B4908" stroke-miterlimit="10" d="M84.457,21.116c0,3.898-3.161,7.059-7.058,7.059H7.558
			c-3.896,0-7.058-3.161-7.058-7.059V7.558C0.5,3.66,3.661,0.5,7.558,0.5h69.842c3.896,0,7.058,3.16,7.058,7.058V21.116z"/>
		<path fill="#FFFFFF" stroke="#1B4908" stroke-miterlimit="10" d="M84.457,57.551c0,3.898-3.161,7.06-7.058,7.059H7.558
			c-3.896,0-7.058-3.16-7.058-7.059V43.993c0-3.898,3.161-7.059,7.058-7.059h69.842c3.896,0,7.058,3.161,7.058,7.059V57.551z"/>
		<line fill="none" stroke="#212121" stroke-miterlimit="10" x1="164.508" y1="32.588" x2="189.892" y2="50.308"/>
		<line fill="none" stroke="#212121" stroke-miterlimit="10" x1="164.508" y1="129.705" x2="190.968" y2="111.443"/>
		<circle fill="#F7BC00" cx="375.006" cy="32.588" r="6.896"/>
		<g>
			<rect x="371.256" y="31.565" fill="#212121" width="7.499" height="1.338"/>
		</g>
		<g>
			<rect x="361.235" y="31.919" fill="#212121" width="6.875" height="1.338"/>
		</g>
		<polygon fill="#212121" points="389.459,13.044 389.459,15.117 379.267,27.169 378.244,26.306 		"/>
		<polygon fill="#212121" points="389.459,52.022 378.246,38.804 379.265,37.939 389.459,49.956 		"/>
		<circle fill="#F7BC00" cx="375.006" cy="130.35" r="6.896"/>
		<g>
			<rect x="371.256" y="129.328" fill="#212121" width="7.499" height="1.338"/>
		</g>
		<g>
			<rect x="361.235" y="129.681" fill="#212121" width="6.875" height="1.338"/>
		</g>
		<polygon fill="#212121" points="389.459,110.806 389.459,112.878 379.267,124.931 378.244,124.068 		"/>
		<polygon fill="#212121" points="389.459,149.785 378.246,136.566 379.265,135.701 389.459,147.718 		"/>
		<line fill="none" stroke="#212121" stroke-miterlimit="10" x1="309.408" y1="32.588" x2="285.145" y2="49.526"/>
		<line fill="none" stroke="#212121" stroke-miterlimit="10" x1="309.408" y1="129.705" x2="284.024" y2="111.985"/>
		<path fill="none" stroke="#5E5E5E" stroke-miterlimit="10" d="M298.013,95.927c0,8.869-7.189,16.058-16.057,16.058h-85.781
			c-8.868,0-16.058-7.188-16.058-16.058V65.088c0-8.868,7.189-16.058,16.058-16.058h85.781c8.867,0,16.057,7.189,16.057,16.058
			V95.927z"/>
		<path fill="#6B871E" d="M162.4,38.283c0,3.478-2.892,6.299-6.456,6.297h-34.502c-3.564,0-6.457-2.819-6.457-6.298V26.186
			c0-3.478,2.893-6.298,6.457-6.298h34.502c3.564,0,6.456,2.82,6.456,6.298V38.283z"/>
		<path fill="none" stroke="#777777" stroke-miterlimit="10" d="M164.508,135.535c0,3.898-3.161,7.059-7.058,7.059h-37.712
			c-3.896,0-7.058-3.16-7.058-7.059v-13.558c0-3.897,3.161-7.059,7.058-7.059h37.712c3.896,0,7.058,3.161,7.058,7.059V135.535z"/>
		<path fill="#6B871E" d="M162.4,134.804c0,3.479-2.892,6.299-6.456,6.298h-34.502c-3.564,0-6.457-2.819-6.457-6.298v-12.097
			c0-3.478,2.893-6.298,6.457-6.298h34.502c3.564,0,6.456,2.82,6.456,6.298V134.804z"/>
		<path fill="none" stroke="#777777" stroke-miterlimit="10" d="M361.705,39.013c0,3.898-3.161,7.059-7.058,7.059h-37.713
			c-3.896,0-7.058-3.161-7.058-7.059V25.456c0-3.898,3.161-7.058,7.058-7.058h37.713c3.896,0,7.058,3.16,7.058,7.058V39.013z"/>
		<path fill="#6B871E" d="M359.597,38.283c0,3.478-2.892,6.299-6.455,6.297H318.64c-3.565,0-6.457-2.819-6.457-6.298V26.186
			c0-3.478,2.892-6.298,6.457-6.298h34.502c3.563,0,6.455,2.82,6.455,6.298V38.283z"/>
		<path fill="none" stroke="#777777" stroke-miterlimit="10" d="M361.705,135.535c0,3.898-3.161,7.059-7.058,7.059h-37.713
			c-3.896,0-7.058-3.16-7.058-7.059v-13.558c0-3.897,3.161-7.059,7.058-7.059h37.713c3.896,0,7.058,3.161,7.058,7.059V135.535z"/>
		<path fill="#6B871E" d="M359.597,134.804c0,3.479-2.892,6.299-6.455,6.298H318.64c-3.565,0-6.457-2.819-6.457-6.298v-12.097
			c0-3.478,2.892-6.298,6.457-6.298h34.502c3.563,0,6.455,2.82,6.455,6.298V134.804z"/>
		<path fill="#9BBD4D" d="M294.942,94.757c0,8.236-6.814,14.912-15.221,14.912h-81.313c-8.406,0-15.221-6.676-15.221-14.912V66.118
			c0-8.235,6.814-14.912,15.221-14.912h81.313c8.406,0,15.221,6.676,15.221,14.912V94.757z"/>
	</g>
	<g>
		<path fill="#EFEFEF" stroke="#333333" stroke-width="2" stroke-miterlimit="10" d="M204.325,84.81
			c0.839,0.43,2.126,0.859,3.455,0.859c1.431,0,2.186-0.594,2.186-1.492c0-0.859-0.653-1.35-2.309-1.942
			c-2.289-0.797-3.781-2.064-3.781-4.067c0-2.351,1.962-4.149,5.212-4.149c1.553,0,2.697,0.328,3.516,0.695l-0.695,2.514
			c-0.552-0.265-1.533-0.653-2.882-0.653s-2.003,0.613-2.003,1.328c0,0.879,0.776,1.267,2.555,1.941
			c2.432,0.899,3.577,2.167,3.577,4.109c0,2.309-1.779,4.271-5.56,4.271c-1.573,0-3.127-0.409-3.903-0.838L204.325,84.81z"/>
		<path fill="#EFEFEF" stroke="#333333" stroke-width="2" stroke-miterlimit="10" d="M224.575,84.81
			c0,1.309,0.043,2.371,0.083,3.209h-2.698l-0.143-1.41h-0.062c-0.388,0.613-1.329,1.635-3.127,1.635
			c-2.022,0-3.516-1.266-3.516-4.354v-5.866h3.128V83.4c0,1.451,0.47,2.33,1.553,2.33c0.857,0,1.349-0.593,1.553-1.082
			c0.082-0.186,0.102-0.43,0.102-0.676v-5.948h3.127V84.81z"/>
		<path fill="#EFEFEF" stroke="#333333" stroke-width="2" stroke-miterlimit="10" d="M226.985,88.019
			c0.041-0.654,0.081-1.859,0.081-2.984V73.508h3.106v5.703h0.041c0.593-0.858,1.635-1.411,3.025-1.411
			c2.391,0,4.149,1.983,4.129,5.049c0,3.596-2.29,5.395-4.579,5.395c-1.165,0-2.288-0.429-3.005-1.613h-0.04l-0.123,1.389H226.985z
			 M230.173,83.767c0,0.205,0.021,0.39,0.062,0.553c0.205,0.838,0.92,1.472,1.818,1.472c1.329,0,2.147-1.022,2.147-2.819
			c0-1.555-0.695-2.781-2.147-2.781c-0.837,0-1.613,0.634-1.818,1.533c-0.041,0.184-0.062,0.367-0.062,0.572V83.767z"/>
		<path fill="#EFEFEF" stroke="#333333" stroke-width="2" stroke-miterlimit="10" d="M237.22,89.859
			c0.818-0.062,1.452-0.245,1.84-0.654c0.45-0.47,0.613-1.268,0.613-3.249v-7.931h3.127v8.667c0,2.188-0.49,3.516-1.41,4.374
			s-2.37,1.226-3.862,1.226L237.22,89.859z M242.882,75.245c0,0.858-0.633,1.554-1.676,1.554c-0.98,0-1.614-0.695-1.614-1.554
			c0-0.899,0.634-1.573,1.655-1.573C242.249,73.672,242.861,74.346,242.882,75.245z"/>
		<path fill="#EFEFEF" stroke="#333333" stroke-width="2" stroke-miterlimit="10" d="M247.622,84.013
			c0.102,1.288,1.369,1.9,2.82,1.9c1.063,0,1.922-0.143,2.76-0.408l0.408,2.105c-1.021,0.408-2.268,0.613-3.618,0.613
			c-3.393,0-5.334-1.963-5.334-5.09c0-2.534,1.573-5.334,5.048-5.334c3.23,0,4.456,2.514,4.456,4.987
			c0,0.531-0.062,1.002-0.102,1.227H247.622z M251.28,81.888c0-0.757-0.327-2.023-1.757-2.023c-1.309,0-1.84,1.186-1.923,2.023
			H251.28z"/>
		<path fill="#EFEFEF" stroke="#333333" stroke-width="2" stroke-miterlimit="10" d="M263.521,87.775
			c-0.552,0.244-1.595,0.449-2.78,0.449c-3.229,0-5.294-1.963-5.294-5.109c0-2.923,2.004-5.315,5.725-5.315
			c0.816,0,1.715,0.143,2.37,0.389l-0.491,2.31c-0.367-0.164-0.919-0.307-1.737-0.307c-1.635,0-2.698,1.166-2.677,2.8
			c0,1.84,1.227,2.8,2.738,2.8c0.736,0,1.309-0.122,1.779-0.307L263.521,87.775z"/>
		<path fill="#EFEFEF" stroke="#333333" stroke-width="2" stroke-miterlimit="10" d="M269.034,75.164v2.861h2.229v2.29h-2.229v3.617
			c0,1.206,0.286,1.758,1.227,1.758c0.389,0,0.694-0.041,0.92-0.081l0.021,2.351c-0.409,0.162-1.145,0.266-2.024,0.266
			c-1.001,0-1.838-0.348-2.33-0.859c-0.57-0.592-0.857-1.553-0.857-2.963v-4.088h-1.328v-2.29h1.328v-2.166L269.034,75.164z"/>
	</g>
	<g>
		<path fill="#EFEFEF" d="M126.628,26.747v10.666h-2.422V26.747H126.628z"/>
		<path fill="#EFEFEF" d="M136.091,26.177v8.925c0,0.87,0.031,1.788,0.063,2.311h-2.137l-0.11-1.14h-0.031
			c-0.49,0.87-1.425,1.313-2.422,1.313c-1.835,0-3.306-1.566-3.306-3.972c-0.016-2.611,1.613-4.114,3.465-4.114
			c0.949,0,1.692,0.332,2.041,0.87h0.032v-4.193H136.091z M133.686,32.949c0-0.126-0.016-0.301-0.032-0.427
			c-0.142-0.649-0.664-1.187-1.408-1.187c-1.092,0-1.662,0.981-1.662,2.199c0,1.314,0.649,2.137,1.646,2.137
			c0.696,0,1.249-0.475,1.392-1.155c0.049-0.174,0.064-0.348,0.064-0.554V32.949z"/>
		<path fill="#EFEFEF" d="M139.872,34.31c0.079,0.997,1.061,1.472,2.185,1.472c0.821,0,1.487-0.11,2.135-0.316l0.317,1.63
			c-0.791,0.316-1.757,0.474-2.801,0.474c-2.627,0-4.13-1.519-4.13-3.94c0-1.962,1.218-4.13,3.908-4.13
			c2.5,0,3.449,1.946,3.449,3.861c0,0.412-0.048,0.776-0.079,0.949H139.872z M142.704,32.665c0-0.585-0.253-1.566-1.359-1.566
			c-1.014,0-1.425,0.917-1.489,1.566H142.704z"/>
		<path fill="#EFEFEF" d="M150.775,37.412l-0.143-0.776h-0.047c-0.507,0.618-1.298,0.95-2.217,0.95
			c-1.565,0-2.499-1.139-2.499-2.374c0-2.01,1.804-2.975,4.542-2.959v-0.111c0-0.412-0.223-0.997-1.409-0.997
			c-0.792,0-1.629,0.269-2.137,0.585l-0.442-1.55c0.538-0.3,1.598-0.68,3.007-0.68c2.579,0,3.401,1.519,3.401,3.339v2.69
			c0,0.744,0.032,1.456,0.111,1.883H150.775z M150.49,33.756c-1.267-0.016-2.246,0.285-2.246,1.218c0,0.618,0.41,0.918,0.948,0.918
			c0.602,0,1.093-0.395,1.251-0.886c0.031-0.127,0.047-0.27,0.047-0.412V33.756z"/>
	</g>
	<g>
		<path fill="#2D2D2D" d="M12.103,18.338c0.651,0.4,1.603,0.734,2.602,0.734c1.486,0,2.353-0.784,2.353-1.918
			c0-1.051-0.6-1.652-2.118-2.235c-1.835-0.651-2.969-1.601-2.969-3.187c0-1.751,1.45-3.052,3.637-3.052
			c1.151,0,1.984,0.267,2.485,0.551l-0.401,1.184c-0.365-0.2-1.117-0.534-2.135-0.534c-1.534,0-2.119,0.918-2.119,1.685
			c0,1.051,0.686,1.568,2.236,2.168c1.901,0.734,2.869,1.652,2.869,3.303c0,1.735-1.284,3.236-3.937,3.236
			c-1.085,0-2.269-0.317-2.87-0.717L12.103,18.338z"/>
		<path fill="#2D2D2D" d="M27.233,17.904c0,0.834,0.018,1.568,0.067,2.202h-1.302l-0.084-1.318h-0.032
			c-0.384,0.651-1.235,1.501-2.67,1.501c-1.268,0-2.784-0.7-2.784-3.537v-4.721h1.467v4.47c0,1.535,0.467,2.569,1.803,2.569
			c0.983,0,1.667-0.684,1.934-1.334c0.084-0.217,0.135-0.484,0.135-0.75v-4.955h1.467V17.904z"/>
		<path fill="#2D2D2D" d="M29.602,20.106c0.032-0.551,0.067-1.368,0.067-2.085V8.263h1.45v5.071h0.034
			c0.518-0.9,1.451-1.484,2.752-1.484c2.002,0,3.42,1.668,3.404,4.12c0,2.886-1.819,4.321-3.621,4.321
			c-1.168,0-2.102-0.45-2.703-1.518h-0.05l-0.066,1.334H29.602z M31.119,16.87c0,0.184,0.034,0.367,0.067,0.534
			c0.284,1.017,1.135,1.718,2.202,1.718c1.534,0,2.451-1.251,2.451-3.103c0-1.618-0.833-3.003-2.401-3.003
			c-1.001,0-1.936,0.684-2.236,1.802c-0.032,0.167-0.083,0.367-0.083,0.601V16.87z"/>
		<path fill="#2D2D2D" d="M42.814,15.052v1.085h-4.12v-1.085H42.814z"/>
		<path fill="#2D2D2D" d="M46.167,9.764c0.018,0.5-0.35,0.9-0.934,0.9c-0.518,0-0.885-0.4-0.885-0.9
			c0-0.518,0.384-0.918,0.918-0.918C45.817,8.846,46.167,9.247,46.167,9.764z M44.532,20.106v-8.074H46v8.074H44.532z"/>
		<path fill="#2D2D2D" d="M55.409,8.263v9.759c0,0.717,0.017,1.534,0.066,2.085h-1.318l-0.066-1.401h-0.033
			c-0.451,0.901-1.435,1.585-2.752,1.585c-1.952,0-3.453-1.652-3.453-4.104c-0.018-2.685,1.651-4.337,3.619-4.337
			c1.234,0,2.068,0.584,2.436,1.234h0.034v-4.82H55.409z M53.941,15.319c0-0.184-0.017-0.434-0.067-0.618
			C53.658,13.768,52.856,13,51.755,13c-1.517,0-2.418,1.334-2.418,3.12c0,1.635,0.801,2.986,2.386,2.986
			c0.983,0,1.884-0.651,2.151-1.752c0.051-0.2,0.067-0.399,0.067-0.634V15.319z"/>
		<path fill="#2D2D2D" d="M58.661,16.336c0.034,1.985,1.302,2.802,2.77,2.802c1.052,0,1.686-0.184,2.235-0.417l0.251,1.051
			c-0.518,0.234-1.402,0.5-2.687,0.5c-2.485,0-3.97-1.635-3.97-4.07c0-2.436,1.435-4.354,3.787-4.354
			c2.636,0,3.336,2.319,3.336,3.803c0,0.301-0.034,0.534-0.05,0.684H58.661z M62.966,15.285c0.018-0.934-0.384-2.386-2.034-2.386
			c-1.486,0-2.136,1.368-2.253,2.386H62.966z"/>
		<path fill="#2D2D2D" d="M70.672,20.106l-0.116-1.018h-0.051c-0.449,0.634-1.317,1.201-2.469,1.201
			c-1.635,0-2.469-1.151-2.469-2.319c0-1.952,1.734-3.019,4.855-3.003v-0.167c0-0.667-0.185-1.868-1.836-1.868
			c-0.751,0-1.535,0.233-2.102,0.601l-0.334-0.968c0.667-0.434,1.635-0.717,2.652-0.717c2.469,0,3.069,1.685,3.069,3.303v3.019
			c0,0.701,0.034,1.385,0.133,1.936H70.672z M70.455,15.986c-1.601-0.033-3.42,0.25-3.42,1.818c0,0.951,0.634,1.401,1.386,1.401
			c1.05,0,1.718-0.667,1.95-1.351c0.052-0.15,0.084-0.317,0.084-0.467V15.986z"/>
	</g>
	<g>
		<path fill="#2D2D2D" d="M12.103,54.036c0.651,0.4,1.603,0.734,2.602,0.734c1.486,0,2.353-0.784,2.353-1.918
			c0-1.051-0.6-1.652-2.118-2.235c-1.835-0.651-2.969-1.602-2.969-3.187c0-1.751,1.45-3.053,3.637-3.053
			c1.151,0,1.984,0.267,2.485,0.551l-0.401,1.184c-0.365-0.2-1.117-0.534-2.135-0.534c-1.534,0-2.119,0.918-2.119,1.685
			c0,1.051,0.686,1.568,2.236,2.169c1.901,0.733,2.869,1.651,2.869,3.303c0,1.735-1.284,3.236-3.937,3.236
			c-1.085,0-2.269-0.317-2.87-0.718L12.103,54.036z"/>
		<path fill="#2D2D2D" d="M27.233,53.602c0,0.833,0.018,1.568,0.067,2.202h-1.302l-0.084-1.318h-0.032
			c-0.384,0.651-1.235,1.501-2.67,1.501c-1.268,0-2.784-0.7-2.784-3.537V47.73h1.467v4.47c0,1.535,0.467,2.569,1.803,2.569
			c0.983,0,1.667-0.684,1.934-1.334c0.084-0.217,0.135-0.484,0.135-0.751V47.73h1.467V53.602z"/>
		<path fill="#2D2D2D" d="M29.602,55.804c0.032-0.551,0.067-1.368,0.067-2.085V43.96h1.45v5.071h0.034
			c0.518-0.9,1.451-1.484,2.752-1.484c2.002,0,3.42,1.668,3.404,4.12c0,2.886-1.819,4.321-3.621,4.321
			c-1.168,0-2.102-0.45-2.703-1.518h-0.05l-0.066,1.334H29.602z M31.119,52.567c0,0.184,0.034,0.367,0.067,0.534
			c0.284,1.017,1.135,1.718,2.202,1.718c1.534,0,2.451-1.251,2.451-3.103c0-1.618-0.833-3.003-2.401-3.003
			c-1.001,0-1.936,0.684-2.236,1.802c-0.032,0.167-0.083,0.367-0.083,0.6V52.567z"/>
		<path fill="#2D2D2D" d="M42.814,50.749v1.085h-4.12v-1.085H42.814z"/>
		<path fill="#2D2D2D" d="M46.167,45.461c0.018,0.5-0.35,0.9-0.934,0.9c-0.518,0-0.885-0.4-0.885-0.9
			c0-0.518,0.384-0.918,0.918-0.918C45.817,44.543,46.167,44.944,46.167,45.461z M44.532,55.804V47.73H46v8.074H44.532z"/>
		<path fill="#2D2D2D" d="M55.409,43.96v9.759c0,0.717,0.017,1.534,0.066,2.085h-1.318l-0.066-1.401h-0.033
			c-0.451,0.901-1.435,1.585-2.752,1.585c-1.952,0-3.453-1.651-3.453-4.104c-0.018-2.686,1.651-4.337,3.619-4.337
			c1.234,0,2.068,0.584,2.436,1.234h0.034V43.96H55.409z M53.941,51.017c0-0.184-0.017-0.434-0.067-0.618
			c-0.216-0.934-1.018-1.701-2.119-1.701c-1.517,0-2.418,1.334-2.418,3.119c0,1.635,0.801,2.986,2.386,2.986
			c0.983,0,1.884-0.65,2.151-1.751c0.051-0.2,0.067-0.4,0.067-0.634V51.017z"/>
		<path fill="#2D2D2D" d="M58.661,52.034c0.034,1.985,1.302,2.802,2.77,2.802c1.052,0,1.686-0.184,2.235-0.417l0.251,1.05
			c-0.518,0.234-1.402,0.501-2.687,0.501c-2.485,0-3.97-1.635-3.97-4.07s1.435-4.354,3.787-4.354c2.636,0,3.336,2.319,3.336,3.803
			c0,0.301-0.034,0.534-0.05,0.684H58.661z M62.966,50.982c0.018-0.934-0.384-2.385-2.034-2.385c-1.486,0-2.136,1.368-2.253,2.385
			H62.966z"/>
		<path fill="#2D2D2D" d="M70.672,55.804l-0.116-1.017h-0.051c-0.449,0.634-1.317,1.201-2.469,1.201
			c-1.635,0-2.469-1.151-2.469-2.319c0-1.952,1.734-3.019,4.855-3.003v-0.167c0-0.667-0.185-1.868-1.836-1.868
			c-0.751,0-1.535,0.233-2.102,0.601l-0.334-0.968c0.667-0.434,1.635-0.717,2.652-0.717c2.469,0,3.069,1.685,3.069,3.303v3.02
			c0,0.701,0.034,1.384,0.133,1.935H70.672z M70.455,51.684c-1.601-0.033-3.42,0.25-3.42,1.818c0,0.951,0.634,1.401,1.386,1.401
			c1.05,0,1.718-0.667,1.95-1.351c0.052-0.15,0.084-0.317,0.084-0.467V51.684z"/>
	</g>
	<g>
		<path fill="#2D2D2D" d="M12.103,115.539c0.651,0.4,1.603,0.734,2.602,0.734c1.486,0,2.353-0.784,2.353-1.918
			c0-1.052-0.6-1.652-2.118-2.236c-1.835-0.65-2.969-1.601-2.969-3.186c0-1.752,1.45-3.053,3.637-3.053
			c1.151,0,1.984,0.268,2.485,0.551l-0.401,1.184c-0.365-0.199-1.117-0.533-2.135-0.533c-1.534,0-2.119,0.918-2.119,1.685
			c0,1.051,0.686,1.568,2.236,2.169c1.901,0.733,2.869,1.651,2.869,3.303c0,1.735-1.284,3.236-3.937,3.236
			c-1.085,0-2.269-0.316-2.87-0.718L12.103,115.539z"/>
		<path fill="#2D2D2D" d="M27.233,115.105c0,0.834,0.018,1.568,0.067,2.202h-1.302l-0.084-1.317h-0.032
			c-0.384,0.65-1.235,1.501-2.67,1.501c-1.268,0-2.784-0.7-2.784-3.536v-4.721h1.467v4.471c0,1.534,0.467,2.568,1.803,2.568
			c0.983,0,1.667-0.684,1.934-1.334c0.084-0.217,0.135-0.484,0.135-0.751v-4.954h1.467V115.105z"/>
		<path fill="#2D2D2D" d="M29.602,117.307c0.032-0.551,0.067-1.368,0.067-2.085v-9.759h1.45v5.071h0.034
			c0.518-0.9,1.451-1.484,2.752-1.484c2.002,0,3.42,1.668,3.404,4.119c0,2.887-1.819,4.321-3.621,4.321
			c-1.168,0-2.102-0.45-2.703-1.518h-0.05l-0.066,1.334H29.602z M31.119,114.072c0,0.184,0.034,0.367,0.067,0.533
			c0.284,1.018,1.135,1.719,2.202,1.719c1.534,0,2.451-1.252,2.451-3.104c0-1.618-0.833-3.003-2.401-3.003
			c-1.001,0-1.936,0.685-2.236,1.802c-0.032,0.167-0.083,0.367-0.083,0.602V114.072z"/>
		<path fill="#2D2D2D" d="M42.814,112.253v1.084h-4.12v-1.084H42.814z"/>
		<path fill="#2D2D2D" d="M46.167,106.964c0.018,0.501-0.35,0.9-0.934,0.9c-0.518,0-0.885-0.399-0.885-0.9
			c0-0.518,0.384-0.918,0.918-0.918C45.817,106.046,46.167,106.447,46.167,106.964z M44.532,117.307v-8.073H46v8.073H44.532z"/>
		<path fill="#2D2D2D" d="M55.409,105.463v9.759c0,0.717,0.017,1.534,0.066,2.085h-1.318l-0.066-1.401h-0.033
			c-0.451,0.9-1.435,1.585-2.752,1.585c-1.952,0-3.453-1.651-3.453-4.104c-0.018-2.685,1.651-4.336,3.619-4.336
			c1.234,0,2.068,0.584,2.436,1.234h0.034v-4.821H55.409z M53.941,112.52c0-0.184-0.017-0.435-0.067-0.618
			c-0.216-0.934-1.018-1.701-2.119-1.701c-1.517,0-2.418,1.334-2.418,3.119c0,1.635,0.801,2.986,2.386,2.986
			c0.983,0,1.884-0.65,2.151-1.752c0.051-0.199,0.067-0.399,0.067-0.633V112.52z"/>
		<path fill="#2D2D2D" d="M58.661,113.537c0.034,1.986,1.302,2.803,2.77,2.803c1.052,0,1.686-0.184,2.235-0.416l0.251,1.05
			c-0.518,0.233-1.402,0.501-2.687,0.501c-2.485,0-3.97-1.635-3.97-4.07s1.435-4.354,3.787-4.354c2.636,0,3.336,2.318,3.336,3.803
			c0,0.301-0.034,0.533-0.05,0.684H58.661z M62.966,112.486c0.018-0.934-0.384-2.385-2.034-2.385c-1.486,0-2.136,1.367-2.253,2.385
			H62.966z"/>
		<path fill="#2D2D2D" d="M70.672,117.307l-0.116-1.017h-0.051c-0.449,0.633-1.317,1.2-2.469,1.2c-1.635,0-2.469-1.151-2.469-2.319
			c0-1.951,1.734-3.019,4.855-3.002v-0.167c0-0.667-0.185-1.868-1.836-1.868c-0.751,0-1.535,0.233-2.102,0.601l-0.334-0.968
			c0.667-0.434,1.635-0.717,2.652-0.717c2.469,0,3.069,1.685,3.069,3.303v3.02c0,0.701,0.034,1.384,0.133,1.935H70.672z
			 M70.455,113.187c-1.601-0.033-3.42,0.25-3.42,1.818c0,0.951,0.634,1.4,1.386,1.4c1.05,0,1.718-0.666,1.95-1.351
			c0.052-0.149,0.084-0.317,0.084-0.468V113.187z"/>
	</g>
	<g>
		<path fill="#2D2D2D" d="M12.103,151.236c0.651,0.4,1.603,0.734,2.602,0.734c1.486,0,2.353-0.783,2.353-1.918
			c0-1.051-0.6-1.652-2.118-2.235c-1.835-0.651-2.969-1.602-2.969-3.187c0-1.752,1.45-3.053,3.637-3.053
			c1.151,0,1.984,0.268,2.485,0.551l-0.401,1.184c-0.365-0.199-1.117-0.533-2.135-0.533c-1.534,0-2.119,0.918-2.119,1.686
			c0,1.05,0.686,1.567,2.236,2.168c1.901,0.734,2.869,1.652,2.869,3.303c0,1.735-1.284,3.236-3.937,3.236
			c-1.085,0-2.269-0.316-2.87-0.717L12.103,151.236z"/>
		<path fill="#2D2D2D" d="M27.233,150.802c0,0.834,0.018,1.568,0.067,2.203h-1.302l-0.084-1.318h-0.032
			c-0.384,0.65-1.235,1.502-2.67,1.502c-1.268,0-2.784-0.701-2.784-3.537v-4.721h1.467v4.471c0,1.534,0.467,2.568,1.803,2.568
			c0.983,0,1.667-0.684,1.934-1.334c0.084-0.217,0.135-0.484,0.135-0.751v-4.954h1.467V150.802z"/>
		<path fill="#2D2D2D" d="M29.602,153.005c0.032-0.551,0.067-1.369,0.067-2.086v-9.759h1.45v5.071h0.034
			c0.518-0.9,1.451-1.484,2.752-1.484c2.002,0,3.42,1.668,3.404,4.119c0,2.887-1.819,4.322-3.621,4.322
			c-1.168,0-2.102-0.451-2.703-1.519h-0.05l-0.066,1.335H29.602z M31.119,149.769c0,0.184,0.034,0.367,0.067,0.533
			c0.284,1.018,1.135,1.719,2.202,1.719c1.534,0,2.451-1.252,2.451-3.104c0-1.618-0.833-3.002-2.401-3.002
			c-1.001,0-1.936,0.684-2.236,1.801c-0.032,0.167-0.083,0.367-0.083,0.602V149.769z"/>
		<path fill="#2D2D2D" d="M42.814,147.951v1.084h-4.12v-1.084H42.814z"/>
		<path fill="#2D2D2D" d="M46.167,142.662c0.018,0.501-0.35,0.9-0.934,0.9c-0.518,0-0.885-0.399-0.885-0.9
			c0-0.518,0.384-0.918,0.918-0.918C45.817,141.744,46.167,142.144,46.167,142.662z M44.532,153.005v-8.074H46v8.074H44.532z"/>
		<path fill="#2D2D2D" d="M55.409,141.161v9.759c0,0.717,0.017,1.535,0.066,2.086h-1.318l-0.066-1.402h-0.033
			c-0.451,0.9-1.435,1.586-2.752,1.586c-1.952,0-3.453-1.652-3.453-4.104c-0.018-2.686,1.651-4.337,3.619-4.337
			c1.234,0,2.068,0.584,2.436,1.234h0.034v-4.821H55.409z M53.941,148.217c0-0.184-0.017-0.435-0.067-0.618
			c-0.216-0.934-1.018-1.701-2.119-1.701c-1.517,0-2.418,1.334-2.418,3.119c0,1.635,0.801,2.986,2.386,2.986
			c0.983,0,1.884-0.65,2.151-1.752c0.051-0.199,0.067-0.399,0.067-0.633V148.217z"/>
		<path fill="#2D2D2D" d="M58.661,149.234c0.034,1.986,1.302,2.803,2.77,2.803c1.052,0,1.686-0.184,2.235-0.416l0.251,1.051
			c-0.518,0.233-1.402,0.5-2.687,0.5c-2.485,0-3.97-1.635-3.97-4.07s1.435-4.354,3.787-4.354c2.636,0,3.336,2.318,3.336,3.803
			c0,0.301-0.034,0.534-0.05,0.684H58.661z M62.966,148.183c0.018-0.934-0.384-2.385-2.034-2.385c-1.486,0-2.136,1.367-2.253,2.385
			H62.966z"/>
		<path fill="#2D2D2D" d="M70.672,153.005l-0.116-1.018h-0.051c-0.449,0.633-1.317,1.201-2.469,1.201
			c-1.635,0-2.469-1.152-2.469-2.32c0-1.951,1.734-3.019,4.855-3.002V147.7c0-0.667-0.185-1.868-1.836-1.868
			c-0.751,0-1.535,0.233-2.102,0.601l-0.334-0.968c0.667-0.434,1.635-0.717,2.652-0.717c2.469,0,3.069,1.685,3.069,3.303v3.02
			c0,0.701,0.034,1.385,0.133,1.936H70.672z M70.455,148.884c-1.601-0.033-3.42,0.25-3.42,1.818c0,0.951,0.634,1.4,1.386,1.4
			c1.05,0,1.718-0.666,1.95-1.351c0.052-0.149,0.084-0.317,0.084-0.468V148.884z"/>
	</g>
	<g>
		<path fill="#2D2D2D" d="M401.51,18.338c0.651,0.4,1.603,0.734,2.603,0.734c1.485,0,2.352-0.784,2.352-1.918
			c0-1.051-0.6-1.652-2.118-2.235c-1.835-0.651-2.969-1.601-2.969-3.187c0-1.751,1.45-3.052,3.637-3.052
			c1.151,0,1.985,0.267,2.485,0.551l-0.401,1.184c-0.366-0.2-1.117-0.534-2.136-0.534c-1.533,0-2.117,0.918-2.117,1.685
			c0,1.051,0.685,1.568,2.235,2.168c1.901,0.734,2.87,1.652,2.87,3.303c0,1.735-1.285,3.236-3.938,3.236
			c-1.085,0-2.269-0.317-2.87-0.717L401.51,18.338z"/>
		<path fill="#2D2D2D" d="M416.642,17.904c0,0.834,0.017,1.568,0.066,2.202h-1.302l-0.084-1.318h-0.032
			c-0.385,0.651-1.235,1.501-2.67,1.501c-1.268,0-2.785-0.7-2.785-3.537v-4.721h1.468v4.47c0,1.535,0.467,2.569,1.802,2.569
			c0.984,0,1.668-0.684,1.935-1.334c0.083-0.217,0.135-0.484,0.135-0.75v-4.955h1.468V17.904z"/>
		<path fill="#2D2D2D" d="M419.009,20.106c0.033-0.551,0.066-1.368,0.066-2.085V8.263h1.451v5.071h0.033
			c0.518-0.9,1.452-1.484,2.752-1.484c2.002,0,3.42,1.668,3.404,4.12c0,2.886-1.818,4.321-3.621,4.321
			c-1.166,0-2.101-0.45-2.702-1.518h-0.05l-0.066,1.334H419.009z M420.526,16.87c0,0.184,0.033,0.367,0.067,0.534
			c0.284,1.017,1.135,1.718,2.202,1.718c1.534,0,2.451-1.251,2.451-3.103c0-1.618-0.834-3.003-2.401-3.003
			c-1.001,0-1.936,0.684-2.236,1.802c-0.032,0.167-0.083,0.367-0.083,0.601V16.87z"/>
		<path fill="#2D2D2D" d="M432.222,15.052v1.085h-4.12v-1.085H432.222z"/>
		<path fill="#2D2D2D" d="M435.575,9.764c0.017,0.5-0.351,0.9-0.935,0.9c-0.518,0-0.885-0.4-0.885-0.9
			c0-0.518,0.384-0.918,0.919-0.918C435.225,8.846,435.575,9.247,435.575,9.764z M433.94,20.106v-8.074h1.467v8.074H433.94z"/>
		<path fill="#2D2D2D" d="M444.816,8.263v9.759c0,0.717,0.017,1.534,0.066,2.085h-1.318l-0.067-1.401h-0.032
			c-0.45,0.901-1.435,1.585-2.752,1.585c-1.952,0-3.454-1.652-3.454-4.104c-0.017-2.685,1.652-4.337,3.62-4.337
			c1.235,0,2.068,0.584,2.436,1.234h0.034v-4.82H444.816z M443.349,15.319c0-0.184-0.018-0.434-0.068-0.618
			c-0.215-0.934-1.017-1.702-2.118-1.702c-1.517,0-2.419,1.334-2.419,3.12c0,1.635,0.802,2.986,2.387,2.986
			c0.984,0,1.885-0.651,2.15-1.752c0.051-0.2,0.068-0.399,0.068-0.634V15.319z"/>
		<path fill="#2D2D2D" d="M448.068,16.336c0.034,1.985,1.302,2.802,2.77,2.802c1.052,0,1.686-0.184,2.235-0.417l0.251,1.051
			c-0.518,0.234-1.401,0.5-2.687,0.5c-2.485,0-3.97-1.635-3.97-4.07c0-2.436,1.435-4.354,3.787-4.354
			c2.636,0,3.336,2.319,3.336,3.803c0,0.301-0.034,0.534-0.05,0.684H448.068z M452.373,15.285c0.017-0.934-0.384-2.386-2.034-2.386
			c-1.486,0-2.136,1.368-2.253,2.386H452.373z"/>
		<path fill="#2D2D2D" d="M460.079,20.106l-0.116-1.018h-0.051c-0.45,0.634-1.317,1.201-2.469,1.201
			c-1.635,0-2.469-1.151-2.469-2.319c0-1.952,1.734-3.019,4.854-3.003v-0.167c0-0.667-0.184-1.868-1.836-1.868
			c-0.75,0-1.533,0.233-2.101,0.601l-0.333-0.968c0.666-0.434,1.635-0.717,2.65-0.717c2.471,0,3.07,1.685,3.07,3.303v3.019
			c0,0.701,0.033,1.385,0.133,1.936H460.079z M459.862,15.986c-1.601-0.033-3.42,0.25-3.42,1.818c0,0.951,0.634,1.401,1.385,1.401
			c1.051,0,1.719-0.667,1.951-1.351c0.051-0.15,0.084-0.317,0.084-0.467V15.986z"/>
	</g>
	<g>
		<path fill="#2D2D2D" d="M401.51,54.036c0.651,0.4,1.603,0.734,2.603,0.734c1.485,0,2.352-0.784,2.352-1.918
			c0-1.051-0.6-1.652-2.118-2.235c-1.835-0.651-2.969-1.602-2.969-3.187c0-1.751,1.45-3.053,3.637-3.053
			c1.151,0,1.985,0.267,2.485,0.551l-0.401,1.184c-0.366-0.2-1.117-0.534-2.136-0.534c-1.533,0-2.117,0.918-2.117,1.685
			c0,1.051,0.685,1.568,2.235,2.169c1.901,0.733,2.87,1.651,2.87,3.303c0,1.735-1.285,3.236-3.938,3.236
			c-1.085,0-2.269-0.317-2.87-0.718L401.51,54.036z"/>
		<path fill="#2D2D2D" d="M416.642,53.602c0,0.833,0.017,1.568,0.066,2.202h-1.302l-0.084-1.318h-0.032
			c-0.385,0.651-1.235,1.501-2.67,1.501c-1.268,0-2.785-0.7-2.785-3.537V47.73h1.468v4.47c0,1.535,0.467,2.569,1.802,2.569
			c0.984,0,1.668-0.684,1.935-1.334c0.083-0.217,0.135-0.484,0.135-0.751V47.73h1.468V53.602z"/>
		<path fill="#2D2D2D" d="M419.009,55.804c0.033-0.551,0.066-1.368,0.066-2.085V43.96h1.451v5.071h0.033
			c0.518-0.9,1.452-1.484,2.752-1.484c2.002,0,3.42,1.668,3.404,4.12c0,2.886-1.818,4.321-3.621,4.321
			c-1.166,0-2.101-0.45-2.702-1.518h-0.05l-0.066,1.334H419.009z M420.526,52.567c0,0.184,0.033,0.367,0.067,0.534
			c0.284,1.017,1.135,1.718,2.202,1.718c1.534,0,2.451-1.251,2.451-3.103c0-1.618-0.834-3.003-2.401-3.003
			c-1.001,0-1.936,0.684-2.236,1.802c-0.032,0.167-0.083,0.367-0.083,0.6V52.567z"/>
		<path fill="#2D2D2D" d="M432.222,50.749v1.085h-4.12v-1.085H432.222z"/>
		<path fill="#2D2D2D" d="M435.575,45.461c0.017,0.5-0.351,0.9-0.935,0.9c-0.518,0-0.885-0.4-0.885-0.9
			c0-0.518,0.384-0.918,0.919-0.918C435.225,44.543,435.575,44.944,435.575,45.461z M433.94,55.804V47.73h1.467v8.074H433.94z"/>
		<path fill="#2D2D2D" d="M444.816,43.96v9.759c0,0.717,0.017,1.534,0.066,2.085h-1.318l-0.067-1.401h-0.032
			c-0.45,0.901-1.435,1.585-2.752,1.585c-1.952,0-3.454-1.651-3.454-4.104c-0.017-2.686,1.652-4.337,3.62-4.337
			c1.235,0,2.068,0.584,2.436,1.234h0.034V43.96H444.816z M443.349,51.017c0-0.184-0.018-0.434-0.068-0.618
			c-0.215-0.934-1.017-1.701-2.118-1.701c-1.517,0-2.419,1.334-2.419,3.119c0,1.635,0.802,2.986,2.387,2.986
			c0.984,0,1.885-0.65,2.15-1.751c0.051-0.2,0.068-0.4,0.068-0.634V51.017z"/>
		<path fill="#2D2D2D" d="M448.068,52.034c0.034,1.985,1.302,2.802,2.77,2.802c1.052,0,1.686-0.184,2.235-0.417l0.251,1.05
			c-0.518,0.234-1.401,0.501-2.687,0.501c-2.485,0-3.97-1.635-3.97-4.07s1.435-4.354,3.787-4.354c2.636,0,3.336,2.319,3.336,3.803
			c0,0.301-0.034,0.534-0.05,0.684H448.068z M452.373,50.982c0.017-0.934-0.384-2.385-2.034-2.385c-1.486,0-2.136,1.368-2.253,2.385
			H452.373z"/>
		<path fill="#2D2D2D" d="M460.079,55.804l-0.116-1.017h-0.051c-0.45,0.634-1.317,1.201-2.469,1.201
			c-1.635,0-2.469-1.151-2.469-2.319c0-1.952,1.734-3.019,4.854-3.003v-0.167c0-0.667-0.184-1.868-1.836-1.868
			c-0.75,0-1.533,0.233-2.101,0.601l-0.333-0.968c0.666-0.434,1.635-0.717,2.65-0.717c2.471,0,3.07,1.685,3.07,3.303v3.02
			c0,0.701,0.033,1.384,0.133,1.935H460.079z M459.862,51.684c-1.601-0.033-3.42,0.25-3.42,1.818c0,0.951,0.634,1.401,1.385,1.401
			c1.051,0,1.719-0.667,1.951-1.351c0.051-0.15,0.084-0.317,0.084-0.467V51.684z"/>
	</g>
	<g>
		<path fill="#2D2D2D" d="M401.51,115.539c0.651,0.4,1.603,0.734,2.603,0.734c1.485,0,2.352-0.784,2.352-1.918
			c0-1.052-0.6-1.652-2.118-2.236c-1.835-0.65-2.969-1.601-2.969-3.186c0-1.752,1.45-3.053,3.637-3.053
			c1.151,0,1.985,0.268,2.485,0.551l-0.401,1.184c-0.366-0.199-1.117-0.533-2.136-0.533c-1.533,0-2.117,0.918-2.117,1.685
			c0,1.051,0.685,1.568,2.235,2.169c1.901,0.733,2.87,1.651,2.87,3.303c0,1.735-1.285,3.236-3.938,3.236
			c-1.085,0-2.269-0.316-2.87-0.718L401.51,115.539z"/>
		<path fill="#2D2D2D" d="M416.642,115.105c0,0.834,0.017,1.568,0.066,2.202h-1.302l-0.084-1.317h-0.032
			c-0.385,0.65-1.235,1.501-2.67,1.501c-1.268,0-2.785-0.7-2.785-3.536v-4.721h1.468v4.471c0,1.534,0.467,2.568,1.802,2.568
			c0.984,0,1.668-0.684,1.935-1.334c0.083-0.217,0.135-0.484,0.135-0.751v-4.954h1.468V115.105z"/>
		<path fill="#2D2D2D" d="M419.009,117.307c0.033-0.551,0.066-1.368,0.066-2.085v-9.759h1.451v5.071h0.033
			c0.518-0.9,1.452-1.484,2.752-1.484c2.002,0,3.42,1.668,3.404,4.119c0,2.887-1.818,4.321-3.621,4.321
			c-1.166,0-2.101-0.45-2.702-1.518h-0.05l-0.066,1.334H419.009z M420.526,114.072c0,0.184,0.033,0.367,0.067,0.533
			c0.284,1.018,1.135,1.719,2.202,1.719c1.534,0,2.451-1.252,2.451-3.104c0-1.618-0.834-3.003-2.401-3.003
			c-1.001,0-1.936,0.685-2.236,1.802c-0.032,0.167-0.083,0.367-0.083,0.602V114.072z"/>
		<path fill="#2D2D2D" d="M432.222,112.253v1.084h-4.12v-1.084H432.222z"/>
		<path fill="#2D2D2D" d="M435.575,106.964c0.017,0.501-0.351,0.9-0.935,0.9c-0.518,0-0.885-0.399-0.885-0.9
			c0-0.518,0.384-0.918,0.919-0.918C435.225,106.046,435.575,106.447,435.575,106.964z M433.94,117.307v-8.073h1.467v8.073H433.94z"
			/>
		<path fill="#2D2D2D" d="M444.816,105.463v9.759c0,0.717,0.017,1.534,0.066,2.085h-1.318l-0.067-1.401h-0.032
			c-0.45,0.9-1.435,1.585-2.752,1.585c-1.952,0-3.454-1.651-3.454-4.104c-0.017-2.685,1.652-4.336,3.62-4.336
			c1.235,0,2.068,0.584,2.436,1.234h0.034v-4.821H444.816z M443.349,112.52c0-0.184-0.018-0.435-0.068-0.618
			c-0.215-0.934-1.017-1.701-2.118-1.701c-1.517,0-2.419,1.334-2.419,3.119c0,1.635,0.802,2.986,2.387,2.986
			c0.984,0,1.885-0.65,2.15-1.752c0.051-0.199,0.068-0.399,0.068-0.633V112.52z"/>
		<path fill="#2D2D2D" d="M448.068,113.537c0.034,1.986,1.302,2.803,2.77,2.803c1.052,0,1.686-0.184,2.235-0.416l0.251,1.05
			c-0.518,0.233-1.401,0.501-2.687,0.501c-2.485,0-3.97-1.635-3.97-4.07s1.435-4.354,3.787-4.354c2.636,0,3.336,2.318,3.336,3.803
			c0,0.301-0.034,0.533-0.05,0.684H448.068z M452.373,112.486c0.017-0.934-0.384-2.385-2.034-2.385
			c-1.486,0-2.136,1.367-2.253,2.385H452.373z"/>
		<path fill="#2D2D2D" d="M460.079,117.307l-0.116-1.017h-0.051c-0.45,0.633-1.317,1.2-2.469,1.2c-1.635,0-2.469-1.151-2.469-2.319
			c0-1.951,1.734-3.019,4.854-3.002v-0.167c0-0.667-0.184-1.868-1.836-1.868c-0.75,0-1.533,0.233-2.101,0.601l-0.333-0.968
			c0.666-0.434,1.635-0.717,2.65-0.717c2.471,0,3.07,1.685,3.07,3.303v3.02c0,0.701,0.033,1.384,0.133,1.935H460.079z
			 M459.862,113.187c-1.601-0.033-3.42,0.25-3.42,1.818c0,0.951,0.634,1.4,1.385,1.4c1.051,0,1.719-0.666,1.951-1.351
			c0.051-0.149,0.084-0.317,0.084-0.468V113.187z"/>
	</g>
	<g>
		<path fill="#2D2D2D" d="M401.51,151.236c0.651,0.4,1.603,0.734,2.603,0.734c1.485,0,2.352-0.783,2.352-1.918
			c0-1.051-0.6-1.652-2.118-2.235c-1.835-0.651-2.969-1.602-2.969-3.187c0-1.752,1.45-3.053,3.637-3.053
			c1.151,0,1.985,0.268,2.485,0.551l-0.401,1.184c-0.366-0.199-1.117-0.533-2.136-0.533c-1.533,0-2.117,0.918-2.117,1.686
			c0,1.05,0.685,1.567,2.235,2.168c1.901,0.734,2.87,1.652,2.87,3.303c0,1.735-1.285,3.236-3.938,3.236
			c-1.085,0-2.269-0.316-2.87-0.717L401.51,151.236z"/>
		<path fill="#2D2D2D" d="M416.642,150.802c0,0.834,0.017,1.568,0.066,2.203h-1.302l-0.084-1.318h-0.032
			c-0.385,0.65-1.235,1.502-2.67,1.502c-1.268,0-2.785-0.701-2.785-3.537v-4.721h1.468v4.471c0,1.534,0.467,2.568,1.802,2.568
			c0.984,0,1.668-0.684,1.935-1.334c0.083-0.217,0.135-0.484,0.135-0.751v-4.954h1.468V150.802z"/>
		<path fill="#2D2D2D" d="M419.009,153.005c0.033-0.551,0.066-1.369,0.066-2.086v-9.759h1.451v5.071h0.033
			c0.518-0.9,1.452-1.484,2.752-1.484c2.002,0,3.42,1.668,3.404,4.119c0,2.887-1.818,4.322-3.621,4.322
			c-1.166,0-2.101-0.451-2.702-1.519h-0.05l-0.066,1.335H419.009z M420.526,149.769c0,0.184,0.033,0.367,0.067,0.533
			c0.284,1.018,1.135,1.719,2.202,1.719c1.534,0,2.451-1.252,2.451-3.104c0-1.618-0.834-3.002-2.401-3.002
			c-1.001,0-1.936,0.684-2.236,1.801c-0.032,0.167-0.083,0.367-0.083,0.602V149.769z"/>
		<path fill="#2D2D2D" d="M432.222,147.951v1.084h-4.12v-1.084H432.222z"/>
		<path fill="#2D2D2D" d="M435.575,142.662c0.017,0.501-0.351,0.9-0.935,0.9c-0.518,0-0.885-0.399-0.885-0.9
			c0-0.518,0.384-0.918,0.919-0.918C435.225,141.744,435.575,142.144,435.575,142.662z M433.94,153.005v-8.074h1.467v8.074H433.94z"
			/>
		<path fill="#2D2D2D" d="M444.816,141.161v9.759c0,0.717,0.017,1.535,0.066,2.086h-1.318l-0.067-1.402h-0.032
			c-0.45,0.9-1.435,1.586-2.752,1.586c-1.952,0-3.454-1.652-3.454-4.104c-0.017-2.686,1.652-4.337,3.62-4.337
			c1.235,0,2.068,0.584,2.436,1.234h0.034v-4.821H444.816z M443.349,148.217c0-0.184-0.018-0.435-0.068-0.618
			c-0.215-0.934-1.017-1.701-2.118-1.701c-1.517,0-2.419,1.334-2.419,3.119c0,1.635,0.802,2.986,2.387,2.986
			c0.984,0,1.885-0.65,2.15-1.752c0.051-0.199,0.068-0.399,0.068-0.633V148.217z"/>
		<path fill="#2D2D2D" d="M448.068,149.234c0.034,1.986,1.302,2.803,2.77,2.803c1.052,0,1.686-0.184,2.235-0.416l0.251,1.051
			c-0.518,0.233-1.401,0.5-2.687,0.5c-2.485,0-3.97-1.635-3.97-4.07s1.435-4.354,3.787-4.354c2.636,0,3.336,2.318,3.336,3.803
			c0,0.301-0.034,0.534-0.05,0.684H448.068z M452.373,148.183c0.017-0.934-0.384-2.385-2.034-2.385
			c-1.486,0-2.136,1.367-2.253,2.385H452.373z"/>
		<path fill="#2D2D2D" d="M460.079,153.005l-0.116-1.018h-0.051c-0.45,0.633-1.317,1.201-2.469,1.201
			c-1.635,0-2.469-1.152-2.469-2.32c0-1.951,1.734-3.019,4.854-3.002V147.7c0-0.667-0.184-1.868-1.836-1.868
			c-0.75,0-1.533,0.233-2.101,0.601l-0.333-0.968c0.666-0.434,1.635-0.717,2.65-0.717c2.471,0,3.07,1.685,3.07,3.303v3.02
			c0,0.701,0.033,1.385,0.133,1.936H460.079z M459.862,148.884c-1.601-0.033-3.42,0.25-3.42,1.818c0,0.951,0.634,1.4,1.385,1.4
			c1.051,0,1.719-0.666,1.951-1.351c0.051-0.149,0.084-0.317,0.084-0.468V148.884z"/>
	</g>
	<g>
		<path fill="#EFEFEF" d="M126.628,124.49v10.666h-2.422V124.49H126.628z"/>
		<path fill="#EFEFEF" d="M136.091,123.921v8.924c0,0.871,0.031,1.789,0.063,2.311h-2.137l-0.11-1.14h-0.031
			c-0.49,0.87-1.425,1.313-2.422,1.313c-1.835,0-3.306-1.566-3.306-3.971c-0.016-2.612,1.613-4.115,3.465-4.115
			c0.949,0,1.692,0.332,2.041,0.871h0.032v-4.193H136.091z M133.686,130.693c0-0.126-0.016-0.301-0.032-0.428
			c-0.142-0.648-0.664-1.186-1.408-1.186c-1.092,0-1.662,0.98-1.662,2.199c0,1.313,0.649,2.137,1.646,2.137
			c0.696,0,1.249-0.476,1.392-1.156c0.049-0.174,0.064-0.348,0.064-0.554V130.693z"/>
		<path fill="#EFEFEF" d="M139.872,132.054c0.079,0.996,1.061,1.471,2.185,1.471c0.821,0,1.487-0.109,2.135-0.316l0.317,1.631
			c-0.791,0.316-1.757,0.475-2.801,0.475c-2.627,0-4.13-1.52-4.13-3.939c0-1.963,1.218-4.131,3.908-4.131
			c2.5,0,3.449,1.947,3.449,3.861c0,0.411-0.048,0.775-0.079,0.949H139.872z M142.704,130.408c0-0.585-0.253-1.566-1.359-1.566
			c-1.014,0-1.425,0.918-1.489,1.566H142.704z"/>
		<path fill="#EFEFEF" d="M150.775,135.156l-0.143-0.775h-0.047c-0.507,0.617-1.298,0.949-2.217,0.949
			c-1.565,0-2.499-1.139-2.499-2.373c0-2.01,1.804-2.976,4.542-2.959v-0.111c0-0.412-0.223-0.997-1.409-0.997
			c-0.792,0-1.629,0.269-2.137,0.585l-0.442-1.551c0.538-0.3,1.598-0.68,3.007-0.68c2.579,0,3.401,1.52,3.401,3.339v2.69
			c0,0.743,0.032,1.455,0.111,1.883H150.775z M150.49,131.5c-1.267-0.016-2.246,0.285-2.246,1.219c0,0.617,0.41,0.918,0.948,0.918
			c0.602,0,1.093-0.395,1.251-0.886c0.031-0.126,0.047-0.269,0.047-0.411V131.5z"/>
	</g>
	<g>
		<path fill="#EFEFEF" d="M324.053,26.747v10.666h-2.421V26.747H324.053z"/>
		<path fill="#EFEFEF" d="M333.517,26.177v8.925c0,0.87,0.031,1.788,0.063,2.311h-2.137l-0.11-1.14H331.3
			c-0.489,0.87-1.424,1.313-2.421,1.313c-1.835,0-3.306-1.566-3.306-3.972c-0.016-2.611,1.613-4.114,3.465-4.114
			c0.949,0,1.692,0.332,2.041,0.87h0.031v-4.193H333.517z M331.11,32.949c0-0.126-0.016-0.301-0.031-0.427
			c-0.143-0.649-0.665-1.187-1.408-1.187c-1.093,0-1.662,0.981-1.662,2.199c0,1.314,0.649,2.137,1.646,2.137
			c0.696,0,1.249-0.475,1.392-1.155c0.048-0.174,0.063-0.348,0.063-0.554V32.949z"/>
		<path fill="#EFEFEF" d="M337.297,34.31c0.08,0.997,1.062,1.472,2.185,1.472c0.822,0,1.487-0.11,2.136-0.316l0.317,1.63
			c-0.792,0.316-1.758,0.474-2.802,0.474c-2.626,0-4.129-1.519-4.129-3.94c0-1.962,1.218-4.13,3.908-4.13
			c2.5,0,3.448,1.946,3.448,3.861c0,0.412-0.047,0.776-0.078,0.949H337.297z M340.13,32.665c0-0.585-0.253-1.566-1.36-1.566
			c-1.013,0-1.424,0.917-1.488,1.566H340.13z"/>
		<path fill="#EFEFEF" d="M348.2,37.412l-0.142-0.776h-0.048c-0.507,0.618-1.297,0.95-2.216,0.95c-1.565,0-2.5-1.139-2.5-2.374
			c0-2.01,1.805-2.975,4.542-2.959v-0.111c0-0.412-0.222-0.997-1.408-0.997c-0.792,0-1.63,0.269-2.137,0.585l-0.443-1.55
			c0.539-0.3,1.599-0.68,3.008-0.68c2.579,0,3.401,1.519,3.401,3.339v2.69c0,0.744,0.032,1.456,0.11,1.883H348.2z M347.916,33.756
			c-1.267-0.016-2.247,0.285-2.247,1.218c0,0.618,0.411,0.918,0.949,0.918c0.602,0,1.093-0.395,1.251-0.886
			c0.031-0.127,0.047-0.27,0.047-0.412V33.756z"/>
	</g>
	<g>
		<path fill="#EFEFEF" d="M324.053,124.49v10.666h-2.421V124.49H324.053z"/>
		<path fill="#EFEFEF" d="M333.517,123.921v8.924c0,0.871,0.031,1.789,0.063,2.311h-2.137l-0.11-1.14H331.3
			c-0.489,0.87-1.424,1.313-2.421,1.313c-1.835,0-3.306-1.566-3.306-3.971c-0.016-2.612,1.613-4.115,3.465-4.115
			c0.949,0,1.692,0.332,2.041,0.871h0.031v-4.193H333.517z M331.11,130.693c0-0.126-0.016-0.301-0.031-0.428
			c-0.143-0.648-0.665-1.186-1.408-1.186c-1.093,0-1.662,0.98-1.662,2.199c0,1.313,0.649,2.137,1.646,2.137
			c0.696,0,1.249-0.476,1.392-1.156c0.048-0.174,0.063-0.348,0.063-0.554V130.693z"/>
		<path fill="#EFEFEF" d="M337.297,132.054c0.08,0.996,1.062,1.471,2.185,1.471c0.822,0,1.487-0.109,2.136-0.316l0.317,1.631
			c-0.792,0.316-1.758,0.475-2.802,0.475c-2.626,0-4.129-1.52-4.129-3.939c0-1.963,1.218-4.131,3.908-4.131
			c2.5,0,3.448,1.947,3.448,3.861c0,0.411-0.047,0.775-0.078,0.949H337.297z M340.13,130.408c0-0.585-0.253-1.566-1.36-1.566
			c-1.013,0-1.424,0.918-1.488,1.566H340.13z"/>
		<path fill="#EFEFEF" d="M348.2,135.156l-0.142-0.775h-0.048c-0.507,0.617-1.297,0.949-2.216,0.949c-1.565,0-2.5-1.139-2.5-2.373
			c0-2.01,1.805-2.976,4.542-2.959v-0.111c0-0.412-0.222-0.997-1.408-0.997c-0.792,0-1.63,0.269-2.137,0.585l-0.443-1.551
			c0.539-0.3,1.599-0.68,3.008-0.68c2.579,0,3.401,1.52,3.401,3.339v2.69c0,0.743,0.032,1.455,0.11,1.883H348.2z M347.916,131.5
			c-1.267-0.016-2.247,0.285-2.247,1.219c0,0.617,0.411,0.918,0.949,0.918c0.602,0,1.093-0.395,1.251-0.886
			c0.031-0.126,0.047-0.269,0.047-0.411V131.5z"/>
	</g>
	<g>
		<path fill="#EFEFEF" d="M204.325,84.81c0.839,0.43,2.126,0.859,3.455,0.859c1.431,0,2.186-0.594,2.186-1.492
			c0-0.859-0.653-1.35-2.309-1.942c-2.289-0.797-3.781-2.064-3.781-4.067c0-2.351,1.962-4.149,5.212-4.149
			c1.553,0,2.697,0.328,3.516,0.695l-0.695,2.514c-0.552-0.265-1.533-0.653-2.882-0.653s-2.003,0.613-2.003,1.328
			c0,0.879,0.776,1.267,2.555,1.941c2.432,0.899,3.577,2.167,3.577,4.109c0,2.309-1.779,4.271-5.56,4.271
			c-1.573,0-3.127-0.409-3.903-0.838L204.325,84.81z"/>
		<path fill="#EFEFEF" d="M224.575,84.81c0,1.309,0.043,2.371,0.083,3.209h-2.698l-0.143-1.41h-0.062
			c-0.388,0.613-1.329,1.635-3.127,1.635c-2.022,0-3.516-1.266-3.516-4.354v-5.866h3.128V83.4c0,1.451,0.47,2.33,1.553,2.33
			c0.857,0,1.349-0.593,1.553-1.082c0.082-0.186,0.102-0.43,0.102-0.676v-5.948h3.127V84.81z"/>
		<path fill="#EFEFEF" d="M226.985,88.019c0.041-0.654,0.081-1.859,0.081-2.984V73.508h3.106v5.703h0.041
			c0.593-0.858,1.635-1.411,3.025-1.411c2.391,0,4.149,1.983,4.129,5.049c0,3.596-2.29,5.395-4.579,5.395
			c-1.165,0-2.288-0.429-3.005-1.613h-0.04l-0.123,1.389H226.985z M230.173,83.767c0,0.205,0.021,0.39,0.062,0.553
			c0.205,0.838,0.92,1.472,1.818,1.472c1.329,0,2.147-1.022,2.147-2.819c0-1.555-0.695-2.781-2.147-2.781
			c-0.837,0-1.613,0.634-1.818,1.533c-0.041,0.184-0.062,0.367-0.062,0.572V83.767z"/>
		<path fill="#EFEFEF" d="M237.22,89.859c0.818-0.062,1.452-0.245,1.84-0.654c0.45-0.47,0.613-1.268,0.613-3.249v-7.931h3.127v8.667
			c0,2.188-0.49,3.516-1.41,4.374s-2.37,1.226-3.862,1.226L237.22,89.859z M242.882,75.245c0,0.858-0.633,1.554-1.676,1.554
			c-0.98,0-1.614-0.695-1.614-1.554c0-0.899,0.634-1.573,1.655-1.573C242.249,73.672,242.861,74.346,242.882,75.245z"/>
		<path fill="#EFEFEF" d="M247.622,84.013c0.102,1.288,1.369,1.9,2.82,1.9c1.063,0,1.922-0.143,2.76-0.408l0.408,2.105
			c-1.021,0.408-2.268,0.613-3.618,0.613c-3.393,0-5.334-1.963-5.334-5.09c0-2.534,1.573-5.334,5.048-5.334
			c3.23,0,4.456,2.514,4.456,4.987c0,0.531-0.062,1.002-0.102,1.227H247.622z M251.28,81.888c0-0.757-0.327-2.023-1.757-2.023
			c-1.309,0-1.84,1.186-1.923,2.023H251.28z"/>
		<path fill="#EFEFEF" d="M263.521,87.775c-0.552,0.244-1.595,0.449-2.78,0.449c-3.229,0-5.294-1.963-5.294-5.109
			c0-2.923,2.004-5.315,5.725-5.315c0.816,0,1.715,0.143,2.37,0.389l-0.491,2.31c-0.367-0.164-0.919-0.307-1.737-0.307
			c-1.635,0-2.698,1.166-2.677,2.8c0,1.84,1.227,2.8,2.738,2.8c0.736,0,1.309-0.122,1.779-0.307L263.521,87.775z"/>
		<path fill="#EFEFEF" d="M269.034,75.164v2.861h2.229v2.29h-2.229v3.617c0,1.206,0.286,1.758,1.227,1.758
			c0.389,0,0.694-0.041,0.92-0.081l0.021,2.351c-0.409,0.162-1.145,0.266-2.024,0.266c-1.001,0-1.838-0.348-2.33-0.859
			c-0.57-0.592-0.857-1.553-0.857-2.963v-4.088h-1.328v-2.29h1.328v-2.166L269.034,75.164z"/>
	</g>
</g>
</svg>
