<?xml version="1.0" encoding="utf-8"?>
<!-- Generator: Adobe Illustrator 16.0.0, SVG Export Plug-In . SVG Version: 6.00 Build 0)  -->
<!DOCTYPE svg PUBLIC "-//W3C//DTD SVG 1.1//EN" "http://www.w3.org/Graphics/SVG/1.1/DTD/svg11.dtd">
<svg version="1.1" id="Capa_1" xmlns="http://www.w3.org/2000/svg" xmlns:xlink="http://www.w3.org/1999/xlink" x="0px" y="0px"
	 width="581.312px" height="266.129px" viewBox="0 0 581.312 266.129" enable-background="new 0 0 581.312 266.129"
	 xml:space="preserve">
<g>
	
		<linearGradient id="SVGID_1_" gradientUnits="userSpaceOnUse" x1="85.7468" y1="194.5547" x2="85.7468" y2="118.0498" gradientTransform="matrix(1 0 0 -1 -8.3599 290.1836)">
		<stop  offset="0" style="stop-color:#EC6421"/>
		<stop  offset="0.4099" style="stop-color:#EA6122"/>
		<stop  offset="0.6575" style="stop-color:#E45926"/>
		<stop  offset="0.8613" style="stop-color:#D94B2E"/>
		<stop  offset="1" style="stop-color:#CE3C35"/>
	</linearGradient>
	<path fill="url(#SVGID_1_)" stroke="#351C00" stroke-width="3" stroke-miterlimit="10" d="M153.273,160.134c0,6.63-5.373,12-12,12
		H13.5c-6.628,0-12-5.37-12-12V107.63c0-6.629,5.372-12,12-12h127.773c6.627,0,12,5.371,12,12V160.134L153.273,160.134z"/>
	<path fill="#FFB666" stroke="#351C00" stroke-width="3" stroke-miterlimit="10" d="M366.317,66.005c0,6.627-5.373,12-12,12H226.544
		c-6.628,0-12-5.373-12-12V13.5c0-6.627,5.372-12,12-12h127.773c6.627,0,12,5.373,12,12V66.005L366.317,66.005z"/>
	<path fill="#E5E5E5" stroke="#351C00" stroke-width="3" stroke-miterlimit="10" d="M579.812,66.005c0,6.629-5.373,12-12,12H440.038
		c-6.628,0-12-5.371-12-12V13.5c0-6.628,5.372-12,12-12h127.773c6.627,0,12,5.372,12,12L579.812,66.005L579.812,66.005z"/>
	<path fill="#E5E5E5" stroke="#351C00" stroke-width="3" stroke-miterlimit="10" d="M579.812,159.253c0,6.627-5.373,12-12,12
		H440.038c-6.628,0-12-5.373-12-12v-52.506c0-6.627,5.372-12,12-12h127.773c6.627,0,12,5.373,12,12L579.812,159.253L579.812,159.253
		z"/>
	<path fill="#E5E5E5" stroke="#351C00" stroke-width="3" stroke-miterlimit="10" d="M579.812,252.628c0,6.629-5.373,12-12,12
		H440.038c-6.628,0-12-5.371-12-12v-52.504c0-6.629,5.372-12,12-12h127.773c6.627,0,12,5.371,12,12L579.812,252.628L579.812,252.628
		z"/>
	<path fill="#FFB666" stroke="#351C00" stroke-width="3" stroke-miterlimit="10" d="M366.317,160.134c0,6.63-5.373,12-12,12H226.544
		c-6.628,0-12-5.37-12-12V107.63c0-6.629,5.372-12,12-12h127.773c6.627,0,12,5.371,12,12V160.134L366.317,160.134z"/>
	<path fill="#FFB666" stroke="#351C00" stroke-width="3" stroke-miterlimit="10" d="M366.317,252.628c0,6.629-5.373,12-12,12
		H226.544c-6.628,0-12-5.371-12-12v-52.504c0-6.629,5.372-12,12-12h127.773c6.627,0,12,5.371,12,12V252.628L366.317,252.628z"/>
	<line fill="none" stroke="#351C00" stroke-width="3" stroke-miterlimit="10" x1="152.808" y1="133" x2="214.544" y2="39.753"/>
	<line fill="none" stroke="#351C00" stroke-width="3" stroke-miterlimit="10" x1="152.808" y1="133" x2="214.063" y2="226.376"/>
	<line fill="none" stroke="#351C00" stroke-width="3" stroke-miterlimit="10" x1="366.317" y1="133" x2="428.038" y2="133"/>
	<line fill="none" stroke="#351C00" stroke-width="3" stroke-miterlimit="10" x1="152.808" y1="133" x2="214.528" y2="133"/>
	<line fill="none" stroke="#351C00" stroke-width="3" stroke-miterlimit="10" x1="366.317" y1="39.753" x2="428.038" y2="39.753"/>
	
		<line fill="none" stroke="#351C00" stroke-width="3" stroke-miterlimit="10" x1="366.317" y1="226.376" x2="428.038" y2="226.376"/>
	<g opacity="0.8">
		<path d="M50.825,116.167l2.522,0.799c-0.388,1.406-1.03,2.451-1.931,3.133c-0.898,0.684-2.04,1.025-3.423,1.025
			c-1.711,0-3.117-0.586-4.219-1.754c-1.103-1.17-1.652-2.768-1.652-4.795c0-2.145,0.555-3.811,1.661-4.996
			c1.107-1.188,2.563-1.779,4.368-1.779c1.576,0,2.855,0.465,3.841,1.396c0.586,0.551,1.025,1.342,1.318,2.373l-2.575,0.615
			c-0.152-0.668-0.47-1.195-0.954-1.582c-0.482-0.387-1.07-0.58-1.762-0.58c-0.955,0-1.73,0.344-2.324,1.029
			c-0.596,0.686-0.893,1.795-0.893,3.33c0,1.629,0.293,2.789,0.879,3.48s1.348,1.037,2.284,1.037c0.691,0,1.286-0.219,1.784-0.658
			C50.249,117.801,50.608,117.111,50.825,116.167z"/>
		<path d="M54.991,116.105c0-0.82,0.202-1.613,0.606-2.381c0.403-0.768,0.977-1.354,1.719-1.758c0.74-0.404,1.567-0.607,2.481-0.607
			c1.412,0,2.569,0.459,3.473,1.375c0.901,0.918,1.354,2.076,1.354,3.477c0,1.412-0.456,2.582-1.366,3.512
			c-0.911,0.928-2.059,1.393-3.44,1.393c-0.855,0-1.672-0.193-2.447-0.58c-0.777-0.387-1.367-0.953-1.771-1.701
			C55.193,118.087,54.991,117.177,54.991,116.105z M57.522,116.238c0,0.926,0.22,1.635,0.659,2.127
			c0.438,0.492,0.98,0.738,1.626,0.738c0.645,0,1.185-0.246,1.622-0.738c0.436-0.492,0.653-1.207,0.653-2.146
			c0-0.914-0.219-1.617-0.653-2.109c-0.438-0.492-0.979-0.738-1.622-0.738c-0.645,0-1.188,0.246-1.626,0.738
			C57.742,114.603,57.522,115.312,57.522,116.238z"/>
		<path d="M66.558,120.904v-12.885h2.47v12.885H66.558z"/>
		<path d="M71.559,120.904v-12.885h2.47v12.885H71.559z"/>
		<path d="M81.965,117.933l2.461,0.414c-0.315,0.902-0.815,1.588-1.497,2.061c-0.685,0.471-1.537,0.707-2.563,0.707
			c-1.623,0-2.824-0.529-3.604-1.59c-0.615-0.85-0.924-1.922-0.924-3.217c0-1.547,0.404-2.76,1.213-3.635
			c0.81-0.877,1.831-1.314,3.067-1.314c1.389,0,2.484,0.459,3.287,1.375c0.803,0.918,1.187,2.322,1.151,4.215H78.37
			c0.019,0.732,0.217,1.303,0.598,1.709c0.382,0.408,0.855,0.611,1.425,0.611c0.387,0,0.712-0.105,0.976-0.316
			S81.83,118.402,81.965,117.933z M82.105,115.437c-0.019-0.715-0.202-1.258-0.555-1.631c-0.352-0.371-0.778-0.557-1.282-0.557
			c-0.539,0-0.984,0.195-1.336,0.588c-0.353,0.393-0.524,0.926-0.52,1.6H82.105z"/>
		<path d="M94.709,114.33l-2.435,0.439c-0.082-0.486-0.27-0.852-0.559-1.098c-0.291-0.246-0.667-0.369-1.13-0.369
			c-0.614,0-1.105,0.211-1.472,0.637c-0.367,0.424-0.55,1.135-0.55,2.131c0,1.107,0.186,1.891,0.558,2.348s0.872,0.686,1.499,0.686
			c0.469,0,0.854-0.135,1.151-0.4c0.299-0.268,0.51-0.725,0.633-1.375l2.426,0.412c-0.252,1.113-0.734,1.955-1.45,2.523
			c-0.715,0.568-1.673,0.852-2.874,0.852c-1.364,0-2.453-0.43-3.266-1.291c-0.812-0.861-1.217-2.055-1.217-3.578
			c0-1.541,0.407-2.74,1.222-3.6c0.814-0.857,1.916-1.287,3.305-1.287c1.138,0,2.04,0.244,2.713,0.734
			C93.934,112.582,94.416,113.328,94.709,114.33z"/>
		<path d="M100.861,111.57v1.969h-1.688v3.762c0,0.762,0.017,1.205,0.05,1.332c0.03,0.125,0.104,0.23,0.219,0.313
			c0.115,0.082,0.254,0.123,0.418,0.123c0.229,0,0.56-0.08,0.993-0.238l0.211,1.916c-0.574,0.246-1.226,0.369-1.951,0.369
			c-0.445,0-0.847-0.074-1.204-0.225c-0.357-0.148-0.619-0.342-0.787-0.58c-0.166-0.236-0.282-0.557-0.347-0.961
			c-0.053-0.287-0.079-0.867-0.079-1.74v-4.07h-1.134v-1.969h1.134v-1.854l2.479-1.441v3.295h1.688V111.57z"/>
		<path d="M23.073,127.904v-2.285h2.47v2.285H23.073z M23.073,138.503v-9.334h2.47v9.334H23.073z"/>
		<path d="M36.564,138.503h-2.47v-4.764c0-1.008-0.054-1.658-0.158-1.955c-0.105-0.295-0.276-0.525-0.516-0.689
			c-0.235-0.164-0.521-0.246-0.855-0.246c-0.428,0-0.812,0.117-1.151,0.352c-0.339,0.235-0.573,0.545-0.699,0.932
			c-0.126,0.387-0.188,1.102-0.188,2.145v4.228h-2.47v-9.334h2.294v1.371c0.813-1.055,1.84-1.582,3.075-1.582
			c0.546,0,1.044,0.1,1.494,0.295c0.451,0.197,0.792,0.447,1.024,0.752c0.229,0.305,0.392,0.65,0.481,1.037
			c0.091,0.387,0.138,0.939,0.138,1.66V138.503z"/>
		<path d="M37.988,129.169h1.371v-0.703c0-0.785,0.084-1.371,0.25-1.758c0.168-0.387,0.475-0.701,0.924-0.943
			c0.447-0.244,1.015-0.365,1.7-0.365c0.703,0,1.392,0.105,2.064,0.316l-0.334,1.723c-0.393-0.094-0.771-0.141-1.134-0.141
			c-0.356,0-0.614,0.084-0.769,0.25c-0.156,0.168-0.233,0.488-0.233,0.963v0.658h1.846v1.943h-1.846v7.391h-2.47v-7.391h-1.371
			L37.988,129.169L37.988,129.169z"/>
		<path d="M44.492,133.705c0-0.82,0.202-1.613,0.606-2.381c0.403-0.768,0.977-1.354,1.718-1.758s1.568-0.607,2.482-0.607
			c1.412,0,2.569,0.459,3.473,1.377c0.901,0.916,1.354,2.074,1.354,3.475c0,1.412-0.456,2.584-1.367,3.513
			c-0.91,0.93-2.058,1.393-3.439,1.393c-0.855,0-1.672-0.192-2.448-0.58c-0.775-0.387-1.366-0.952-1.771-1.698
			C44.694,135.688,44.492,134.777,44.492,133.705z M47.023,133.837c0,0.927,0.22,1.636,0.659,2.127
			c0.438,0.492,0.98,0.738,1.626,0.738c0.645,0,1.185-0.246,1.621-0.738c0.436-0.491,0.654-1.207,0.654-2.146
			c0-0.913-0.219-1.616-0.654-2.108c-0.437-0.492-0.978-0.738-1.621-0.738c-0.645,0-1.188,0.246-1.626,0.738
			C47.243,132.202,47.023,132.912,47.023,133.837z"/>
		<path d="M58.423,138.503h-2.47v-9.334h2.294v1.328c0.394-0.627,0.745-1.041,1.061-1.24c0.312-0.199,0.669-0.299,1.066-0.299
			c0.563,0,1.104,0.156,1.626,0.467l-0.765,2.152c-0.416-0.27-0.803-0.404-1.16-0.404c-0.346,0-0.639,0.096-0.879,0.287
			c-0.24,0.189-0.43,0.533-0.567,1.031c-0.137,0.498-0.206,1.541-0.206,3.129V138.503z"/>
		<path d="M62.879,129.169h2.276v1.275c0.814-0.99,1.784-1.486,2.909-1.486c0.598,0,1.116,0.123,1.556,0.369
			c0.44,0.246,0.8,0.619,1.081,1.117c0.41-0.498,0.854-0.871,1.327-1.117s0.98-0.369,1.521-0.369c0.687,0,1.267,0.141,1.74,0.418
			c0.476,0.279,0.829,0.688,1.063,1.227c0.17,0.398,0.255,1.043,0.255,1.934v5.967h-2.47v-5.334c0-0.926-0.085-1.523-0.256-1.793
			c-0.229-0.352-0.579-0.527-1.055-0.527c-0.346,0-0.671,0.105-0.976,0.316c-0.306,0.211-0.524,0.52-0.659,0.928
			c-0.135,0.406-0.202,1.049-0.202,1.928v4.482h-2.47v-5.115c0-0.908-0.044-1.494-0.132-1.758c-0.089-0.264-0.225-0.459-0.409-0.588
			s-0.436-0.193-0.751-0.193c-0.381,0-0.725,0.102-1.028,0.307c-0.304,0.205-0.522,0.502-0.654,0.889
			c-0.133,0.387-0.197,1.027-0.197,1.925v4.534h-2.471L62.879,129.169L62.879,129.169z"/>
		<path d="M80.914,132.017l-2.241-0.404c0.252-0.902,0.687-1.57,1.302-2.004c0.614-0.434,1.528-0.65,2.741-0.65
			c1.103,0,1.923,0.131,2.462,0.393c0.538,0.26,0.919,0.592,1.138,0.992c0.221,0.402,0.33,1.139,0.33,2.211l-0.026,2.882
			c0,0.82,0.04,1.427,0.118,1.814c0.08,0.391,0.228,0.807,0.444,1.252h-2.443c-0.064-0.164-0.144-0.406-0.237-0.729
			c-0.041-0.146-0.069-0.244-0.088-0.291c-0.422,0.41-0.873,0.719-1.354,0.924c-0.481,0.205-0.993,0.307-1.538,0.307
			c-0.961,0-1.718-0.26-2.272-0.781c-0.553-0.521-0.83-1.182-0.83-1.979c0-0.527,0.126-0.996,0.378-1.41
			c0.252-0.412,0.604-0.729,1.061-0.949c0.453-0.219,1.107-0.412,1.964-0.576c1.154-0.217,1.954-0.418,2.399-0.605v-0.246
			c0-0.475-0.117-0.813-0.353-1.016c-0.234-0.201-0.677-0.303-1.327-0.303c-0.438,0-0.782,0.086-1.027,0.26
			C81.266,131.281,81.066,131.583,80.914,132.017z M84.219,134.021c-0.316,0.104-0.817,0.231-1.504,0.379
			c-0.686,0.146-1.134,0.289-1.345,0.43c-0.322,0.229-0.482,0.52-0.482,0.871c0,0.346,0.129,0.645,0.387,0.896
			c0.258,0.25,0.586,0.377,0.983,0.377c0.445,0,0.87-0.146,1.274-0.439c0.299-0.223,0.495-0.494,0.589-0.816
			c0.064-0.211,0.098-0.613,0.098-1.205V134.021z"/>
		<path d="M93.359,129.169v1.969h-1.688v3.762c0,0.762,0.017,1.207,0.05,1.332c0.03,0.127,0.104,0.229,0.219,0.312
			c0.115,0.082,0.254,0.123,0.418,0.123c0.229,0,0.56-0.08,0.993-0.238l0.211,1.916c-0.574,0.246-1.226,0.369-1.951,0.369
			c-0.445,0-0.847-0.074-1.204-0.223c-0.357-0.15-0.619-0.344-0.787-0.58c-0.166-0.238-0.282-0.559-0.347-0.963
			c-0.053-0.287-0.079-0.867-0.079-1.74v-4.07H88.06v-1.969h1.134v-1.854l2.479-1.441v3.295L93.359,129.169L93.359,129.169z"/>
		<path d="M95.073,127.904v-2.285h2.47v2.285H95.073z M95.073,138.503v-9.334h2.47v9.334H95.073z"/>
		<path d="M99.503,133.705c0-0.82,0.202-1.613,0.606-2.381c0.404-0.768,0.977-1.354,1.719-1.758c0.74-0.404,1.568-0.607,2.482-0.607
			c1.412,0,2.568,0.459,3.472,1.377c0.902,0.916,1.354,2.074,1.354,3.475c0,1.412-0.456,2.584-1.366,3.513
			c-0.912,0.93-2.06,1.393-3.441,1.393c-0.854,0-1.672-0.192-2.447-0.58c-0.776-0.387-1.366-0.952-1.771-1.698
			C99.705,135.688,99.503,134.777,99.503,133.705z M102.034,133.837c0,0.927,0.22,1.636,0.659,2.127
			c0.438,0.492,0.98,0.738,1.626,0.738c0.645,0,1.185-0.246,1.622-0.738c0.436-0.491,0.654-1.207,0.654-2.146
			c0-0.913-0.22-1.616-0.654-2.108c-0.438-0.492-0.979-0.738-1.622-0.738c-0.645,0-1.188,0.246-1.626,0.738
			C102.254,132.202,102.034,132.912,102.034,133.837z"/>
		<path d="M119.56,138.503h-2.471v-4.764c0-1.008-0.053-1.658-0.157-1.955c-0.105-0.295-0.277-0.525-0.515-0.689
			c-0.237-0.164-0.522-0.246-0.856-0.246c-0.429,0-0.812,0.117-1.151,0.352c-0.339,0.235-0.573,0.545-0.698,0.932
			c-0.127,0.387-0.188,1.102-0.188,2.145v4.228h-2.47v-9.334h2.294v1.371c0.813-1.055,1.84-1.582,3.075-1.582
			c0.545,0,1.043,0.1,1.494,0.295c0.451,0.197,0.792,0.447,1.023,0.752c0.23,0.305,0.393,0.65,0.483,1.037
			c0.091,0.387,0.137,0.939,0.137,1.66V138.503z"/>
	</g>
	<g opacity="0.8">
		<path d="M254.325,43.896V31.011h4.438c1.002,0,1.767,0.062,2.294,0.184c0.737,0.17,1.367,0.479,1.89,0.924
			c0.68,0.574,1.188,1.307,1.525,2.201c0.336,0.893,0.505,1.914,0.505,3.063c0,0.979-0.114,1.846-0.343,2.602
			c-0.229,0.756-0.521,1.381-0.88,1.877c-0.356,0.494-0.749,0.885-1.174,1.168c-0.425,0.285-0.938,0.5-1.537,0.646
			c-0.602,0.146-1.291,0.221-2.069,0.221L254.325,43.896L254.325,43.896z M256.03,42.375h2.751c0.85,0,1.516-0.078,2-0.236
			c0.482-0.158,0.868-0.381,1.155-0.668c0.403-0.404,0.719-0.949,0.943-1.631c0.227-0.684,0.34-1.51,0.34-2.482
			c0-1.348-0.223-2.385-0.663-3.107c-0.443-0.725-0.98-1.209-1.613-1.455c-0.457-0.176-1.192-0.264-2.206-0.264h-2.707V42.375z"/>
		<path d="M273.512,40.89l1.635,0.201c-0.258,0.955-0.735,1.697-1.434,2.225c-0.697,0.528-1.588,0.791-2.672,0.791
			c-1.364,0-2.447-0.422-3.247-1.262c-0.801-0.842-1.199-2.02-1.199-3.537c0-1.57,0.403-2.789,1.213-3.656
			c0.809-0.867,1.856-1.301,3.146-1.301c1.248,0,2.269,0.424,3.06,1.273s1.187,2.045,1.187,3.586c0,0.094-0.003,0.234-0.009,0.422
			h-6.961c0.059,1.025,0.349,1.811,0.87,2.355c0.521,0.544,1.172,0.818,1.95,0.818c0.58,0,1.075-0.152,1.485-0.457
			C272.946,42.043,273.271,41.558,273.512,40.89z M268.317,38.332h5.212c-0.07-0.785-0.271-1.373-0.598-1.766
			c-0.504-0.609-1.157-0.914-1.96-0.914c-0.728,0-1.339,0.242-1.833,0.729C268.643,36.868,268.37,37.517,268.317,38.332z"/>
		<path d="M277.511,43.896v-8.104h-1.397v-1.23h1.397v-0.994c0-0.627,0.056-1.092,0.167-1.396c0.151-0.41,0.42-0.744,0.805-0.998
			c0.383-0.256,0.921-0.383,1.612-0.383c0.444,0,0.938,0.053,1.477,0.158l-0.237,1.381c-0.328-0.059-0.639-0.088-0.932-0.088
			c-0.48,0-0.82,0.102-1.021,0.307c-0.199,0.205-0.299,0.59-0.299,1.152v0.861h1.819v1.23h-1.819v8.104H277.511z"/>
		<path d="M282.143,32.83v-1.818h1.582v1.818H282.143z M282.143,43.896v-9.334h1.582v9.334H282.143z"/>
		<path d="M286.133,43.896v-9.334h1.425v1.326c0.686-1.025,1.676-1.537,2.971-1.537c0.562,0,1.079,0.1,1.551,0.303
			c0.472,0.201,0.825,0.467,1.061,0.795c0.234,0.328,0.397,0.719,0.491,1.17c0.06,0.293,0.089,0.805,0.089,1.537v5.74h-1.582v-5.678
			c0-0.645-0.062-1.127-0.186-1.447c-0.123-0.318-0.342-0.574-0.654-0.764c-0.313-0.191-0.682-0.285-1.104-0.285
			c-0.674,0-1.256,0.213-1.744,0.641c-0.49,0.428-0.734,1.24-0.734,2.436v5.098L286.133,43.896L286.133,43.896z"/>
		<path d="M296.152,32.83v-1.818h1.582v1.818H296.152z M296.152,43.896v-9.334h1.582v9.334H296.152z"/>
		<path d="M303.597,42.48l0.229,1.398c-0.445,0.094-0.844,0.141-1.195,0.141c-0.573,0-1.02-0.092-1.336-0.273
			c-0.315-0.181-0.539-0.42-0.668-0.717c-0.129-0.295-0.192-0.918-0.192-1.867v-5.369h-1.16v-1.23h1.16V32.25l1.572-0.949v3.262
			h1.592v1.23h-1.592v5.457c0,0.451,0.027,0.742,0.084,0.871c0.056,0.129,0.146,0.23,0.271,0.307
			c0.125,0.077,0.307,0.115,0.541,0.115C303.078,42.542,303.31,42.521,303.597,42.48z"/>
		<path d="M305.152,32.83v-1.818h1.582v1.818H305.152z M305.152,43.896v-9.334h1.582v9.334H305.152z"/>
		<path d="M308.554,39.228c0-1.729,0.479-3.008,1.44-3.84c0.804-0.691,1.781-1.037,2.937-1.037c1.283,0,2.332,0.42,3.146,1.26
			c0.814,0.842,1.223,2.004,1.223,3.486c0,1.201-0.181,2.145-0.541,2.834c-0.359,0.688-0.886,1.223-1.572,1.604
			c-0.689,0.381-1.44,0.572-2.255,0.572c-1.308,0-2.363-0.42-3.169-1.258C308.956,42.011,308.554,40.804,308.554,39.228z
			 M310.18,39.228c0,1.195,0.261,2.09,0.782,2.686c0.521,0.594,1.178,0.893,1.969,0.893c0.785,0,1.438-0.299,1.96-0.896
			c0.521-0.597,0.782-1.51,0.782-2.734c0-1.154-0.264-2.029-0.786-2.623c-0.525-0.596-1.177-0.893-1.956-0.893
			c-0.791,0-1.447,0.297-1.969,0.889C310.44,37.142,310.18,38.033,310.18,39.228z"/>
		<path d="M319.153,43.896v-9.334h1.424v1.326c0.687-1.025,1.677-1.537,2.972-1.537c0.562,0,1.079,0.1,1.552,0.303
			c0.471,0.201,0.824,0.467,1.059,0.795c0.235,0.328,0.398,0.719,0.492,1.17c0.06,0.293,0.088,0.805,0.088,1.537v5.74h-1.582v-5.678
			c0-0.645-0.062-1.127-0.185-1.447c-0.123-0.318-0.342-0.574-0.655-0.764c-0.312-0.191-0.681-0.285-1.103-0.285
			c-0.675,0-1.256,0.213-1.745,0.641c-0.489,0.428-0.733,1.24-0.733,2.436v5.098L319.153,43.896L319.153,43.896z"/>
	</g>
	<g>
		<path fill="#FFEDD9" d="M55.772,160.789c-0.776-0.98-1.434-2.125-1.969-3.438c-0.536-1.313-0.806-2.672-0.806-4.078
			c0-1.24,0.2-2.429,0.603-3.563c0.469-1.317,1.191-2.631,2.172-3.938h1.008c-0.63,1.084-1.047,1.857-1.25,2.32
			c-0.317,0.719-0.567,1.469-0.75,2.25c-0.224,0.975-0.336,1.953-0.336,2.938c0,2.506,0.778,5.008,2.336,7.508L55.772,160.789
			L55.772,160.789z"/>
		<path fill="#FFEDD9" d="M60.718,157.421l-3.155-8.297h1.483l1.781,4.969c0.192,0.537,0.37,1.095,0.531,1.673
			c0.125-0.438,0.3-0.964,0.522-1.578l1.845-5.063h1.444l-3.141,8.297H60.718z"/>
		<path fill="#FFEDD9" d="M72.093,154.75l1.453,0.18c-0.229,0.851-0.652,1.508-1.272,1.978c-0.62,0.469-1.411,0.702-2.375,0.702
			c-1.214,0-2.176-0.373-2.887-1.12c-0.712-0.748-1.066-1.796-1.066-3.146c0-1.396,0.359-2.479,1.078-3.25
			c0.719-0.771,1.65-1.156,2.797-1.156c1.109,0,2.016,0.377,2.719,1.133c0.703,0.757,1.056,1.818,1.056,3.188
			c0,0.084-0.004,0.209-0.009,0.375h-6.188c0.052,0.912,0.31,1.609,0.772,2.095c0.463,0.484,1.042,0.727,1.734,0.727
			c0.516,0,0.956-0.135,1.32-0.406C71.589,155.777,71.879,155.343,72.093,154.75z M67.476,152.477h4.633
			c-0.063-0.697-0.239-1.222-0.531-1.57c-0.448-0.541-1.028-0.813-1.742-0.813c-0.646,0-1.188,0.218-1.629,0.648
			C67.766,151.172,67.522,151.751,67.476,152.477z"/>
		<path fill="#FFEDD9" d="M75.296,157.421v-8.297h1.267v1.258c0.322-0.588,0.621-0.977,0.895-1.164
			c0.274-0.187,0.574-0.28,0.902-0.28c0.474,0,0.956,0.149,1.445,0.453l-0.484,1.305c-0.344-0.203-0.688-0.305-1.031-0.305
			c-0.308,0-0.583,0.092-0.828,0.276s-0.419,0.44-0.522,0.771c-0.156,0.5-0.234,1.047-0.234,1.641v4.344L75.296,157.421
			L75.296,157.421z"/>
		<path fill="#FFEDD9" d="M81.937,157.421h-1.306v-11.453h1.406v4.087c0.594-0.744,1.353-1.117,2.273-1.117
			c0.511,0,0.993,0.104,1.448,0.309c0.456,0.205,0.831,0.494,1.125,0.867c0.295,0.373,0.524,0.822,0.691,1.348
			s0.25,1.088,0.25,1.688c0,1.423-0.352,2.521-1.055,3.298s-1.547,1.163-2.531,1.163c-0.979,0-1.747-0.407-2.305-1.227v1.038H81.937
			z M81.921,153.21c0,0.994,0.137,1.713,0.406,2.156c0.442,0.725,1.042,1.086,1.797,1.086c0.614,0,1.146-0.269,1.594-0.802
			c0.448-0.532,0.673-1.329,0.673-2.387c0-1.084-0.216-1.883-0.646-2.397s-0.949-0.773-1.559-0.773
			c-0.614,0-1.146,0.269-1.595,0.802C82.144,151.427,81.921,152.201,81.921,153.21z"/>
		<path fill="#FFEDD9" d="M90.46,160.789h-1.008c1.558-2.5,2.336-5.002,2.336-7.508c0-0.979-0.112-1.951-0.336-2.914
			c-0.177-0.781-0.425-1.531-0.742-2.25c-0.203-0.469-0.622-1.25-1.258-2.344h1.008c0.979,1.307,1.703,2.619,2.172,3.938
			c0.401,1.135,0.603,2.322,0.603,3.562c0,1.406-0.271,2.767-0.81,4.078C91.886,158.664,91.23,159.809,90.46,160.789z"/>
	</g>
	<g opacity="0.8">
		<path d="M253.75,137.367l1.608-0.141c0.076,0.645,0.253,1.174,0.532,1.586c0.276,0.414,0.71,0.748,1.296,1.002
			c0.586,0.256,1.245,0.383,1.978,0.383c0.65,0,1.226-0.096,1.724-0.289c0.497-0.193,0.867-0.459,1.11-0.797
			c0.243-0.336,0.365-0.703,0.365-1.103c0-0.403-0.117-0.758-0.352-1.061c-0.234-0.302-0.621-0.556-1.16-0.761
			c-0.347-0.135-1.11-0.344-2.294-0.629c-1.185-0.283-2.014-0.551-2.487-0.803c-0.615-0.322-1.074-0.723-1.375-1.201
			c-0.303-0.477-0.453-1.012-0.453-1.604c0-0.65,0.185-1.258,0.554-1.824c0.369-0.564,0.908-0.994,1.617-1.287
			s1.497-0.439,2.364-0.439c0.955,0,1.797,0.154,2.527,0.461c0.729,0.309,1.29,0.762,1.683,1.359
			c0.393,0.597,0.604,1.273,0.633,2.029l-1.635,0.123c-0.088-0.814-0.386-1.43-0.893-1.846c-0.508-0.416-1.256-0.623-2.245-0.623
			c-1.031,0-1.783,0.188-2.255,0.566c-0.473,0.377-0.708,0.834-0.708,1.367c0,0.463,0.168,0.844,0.502,1.143
			c0.327,0.299,1.185,0.604,2.569,0.918c1.386,0.312,2.337,0.588,2.854,0.821c0.75,0.347,1.304,0.783,1.661,1.313
			c0.356,0.531,0.535,1.143,0.535,1.834c0,0.686-0.195,1.33-0.589,1.938c-0.393,0.605-0.957,1.078-1.69,1.414
			c-0.736,0.338-1.563,0.506-2.483,0.506c-1.166,0-2.144-0.17-2.931-0.51c-0.789-0.34-1.406-0.852-1.855-1.533
			C254.01,139,253.773,138.229,253.75,137.367z"/>
		<path d="M266.063,145.102l-0.176-1.484c0.346,0.094,0.646,0.141,0.904,0.141c0.353,0,0.633-0.059,0.845-0.176
			c0.211-0.117,0.384-0.281,0.519-0.492c0.1-0.158,0.261-0.551,0.483-1.178c0.028-0.088,0.075-0.217,0.141-0.387l-3.542-9.353h1.705
			l1.941,5.404c0.253,0.687,0.479,1.405,0.678,2.162c0.182-0.728,0.397-1.437,0.649-2.127l1.995-5.439h1.582l-3.551,9.492
			c-0.381,1.024-0.677,1.729-0.888,2.117c-0.281,0.521-0.604,0.903-0.968,1.146c-0.362,0.244-0.797,0.365-1.301,0.365
			C266.778,145.294,266.438,145.23,266.063,145.102z"/>
		<path d="M275.134,141.507v-9.334h1.425v1.326c0.686-1.025,1.676-1.537,2.971-1.537c0.562,0,1.079,0.1,1.552,0.303
			c0.472,0.201,0.824,0.467,1.06,0.795c0.234,0.328,0.397,0.719,0.491,1.17c0.06,0.293,0.089,0.805,0.089,1.537v5.739h-1.582v-5.678
			c0-0.646-0.062-1.127-0.186-1.447c-0.123-0.317-0.342-0.573-0.655-0.764c-0.312-0.191-0.681-0.285-1.103-0.285
			c-0.674,0-1.256,0.213-1.745,0.642c-0.489,0.428-0.732,1.239-0.732,2.436v5.098L275.134,141.507L275.134,141.507z"/>
		<path d="M284.556,136.839c0-1.729,0.479-3.008,1.44-3.84c0.803-0.691,1.781-1.037,2.937-1.037c1.282,0,2.332,0.42,3.146,1.26
			c0.814,0.842,1.222,2.004,1.222,3.486c0,1.201-0.18,2.146-0.54,2.834c-0.359,0.688-0.886,1.224-1.572,1.604
			c-0.689,0.381-1.44,0.571-2.255,0.571c-1.308,0-2.363-0.42-3.169-1.258C284.958,139.622,284.556,138.416,284.556,136.839z
			 M286.182,136.839c0,1.195,0.261,2.091,0.781,2.687c0.521,0.594,1.179,0.893,1.97,0.893c0.785,0,1.438-0.299,1.96-0.896
			c0.521-0.597,0.781-1.51,0.781-2.733c0-1.154-0.263-2.029-0.785-2.623c-0.525-0.597-1.178-0.893-1.956-0.893
			c-0.791,0-1.447,0.296-1.97,0.889C286.442,134.753,286.182,135.645,286.182,136.839z"/>
		<path d="M295.155,141.507v-9.334h1.424v1.326c0.687-1.025,1.676-1.537,2.971-1.537c0.563,0,1.079,0.1,1.553,0.303
			c0.471,0.201,0.824,0.467,1.059,0.795c0.235,0.328,0.398,0.719,0.492,1.17c0.059,0.293,0.088,0.805,0.088,1.537v5.739h-1.582
			v-5.678c0-0.646-0.062-1.127-0.185-1.447c-0.123-0.317-0.343-0.573-0.655-0.764c-0.313-0.191-0.681-0.285-1.104-0.285
			c-0.674,0-1.256,0.213-1.744,0.642c-0.489,0.428-0.733,1.239-0.733,2.436v5.098L295.155,141.507L295.155,141.507z"/>
		<path d="M305.096,145.102l-0.177-1.484c0.347,0.094,0.647,0.141,0.905,0.141c0.353,0,0.633-0.059,0.845-0.176
			c0.211-0.117,0.384-0.281,0.519-0.492c0.1-0.158,0.261-0.551,0.483-1.178c0.028-0.088,0.075-0.217,0.141-0.387l-3.542-9.353h1.705
			l1.941,5.404c0.253,0.687,0.479,1.405,0.678,2.162c0.182-0.728,0.397-1.437,0.649-2.127l1.995-5.439h1.582l-3.551,9.492
			c-0.381,1.024-0.677,1.729-0.888,2.117c-0.281,0.521-0.604,0.903-0.968,1.146c-0.362,0.244-0.797,0.365-1.301,0.365
			C305.811,145.294,305.471,145.23,305.096,145.102z"/>
		<path d="M314.166,141.507v-9.334h1.415v1.309c0.293-0.457,0.684-0.824,1.17-1.104c0.485-0.277,1.039-0.416,1.66-0.416
			c0.691,0,1.259,0.143,1.7,0.43c0.442,0.287,0.755,0.689,0.938,1.206c0.737-1.091,1.698-1.636,2.883-1.636
			c0.926,0,1.638,0.256,2.136,0.768c0.498,0.514,0.747,1.303,0.747,2.37v6.407h-1.573v-5.881c0-0.633-0.052-1.088-0.153-1.367
			c-0.104-0.276-0.288-0.502-0.559-0.672c-0.27-0.17-0.586-0.254-0.949-0.254c-0.655,0-1.2,0.217-1.635,0.654
			c-0.434,0.436-0.649,1.135-0.649,2.096v5.424h-1.582v-6.063c0-0.703-0.129-1.23-0.388-1.582c-0.258-0.353-0.68-0.527-1.266-0.527
			c-0.445,0-0.856,0.117-1.235,0.352c-0.377,0.234-0.65,0.576-0.82,1.027s-0.256,1.102-0.256,1.951v4.844L314.166,141.507
			L314.166,141.507z"/>
	</g>
	<g opacity="0.8">
		<path d="M256.865,230.855V217.97h9.316v1.521h-7.611v3.947h7.128v1.512h-7.128v4.385h7.91v1.521H256.865z"/>
		<path d="M267.579,230.855l3.41-4.853l-3.155-4.481h1.979l1.433,2.188c0.271,0.416,0.486,0.766,0.65,1.047
			c0.258-0.387,0.495-0.73,0.712-1.029l1.573-2.205h1.89l-3.226,4.396l3.472,4.938h-1.942l-1.916-2.899l-0.51-0.783l-2.452,3.685
			h-1.917V230.855z"/>
		<path d="M283.725,229.703c-0.586,0.498-1.15,0.85-1.691,1.055c-0.543,0.205-1.124,0.309-1.745,0.309
			c-1.024,0-1.812-0.252-2.364-0.752c-0.551-0.502-0.825-1.141-0.825-1.92c0-0.457,0.104-0.875,0.312-1.254
			c0.207-0.377,0.479-0.68,0.816-0.908c0.337-0.228,0.717-0.401,1.139-0.52c0.312-0.082,0.779-0.16,1.406-0.236
			c1.276-0.151,2.218-0.334,2.821-0.545c0.006-0.217,0.009-0.354,0.009-0.414c0-0.645-0.149-1.098-0.448-1.36
			c-0.404-0.357-1.005-0.537-1.802-0.537c-0.744,0-1.294,0.131-1.648,0.391c-0.354,0.263-0.616,0.724-0.786,1.386l-1.547-0.211
			c0.142-0.662,0.372-1.197,0.694-1.604c0.322-0.408,0.788-0.722,1.396-0.94c0.609-0.22,1.315-0.328,2.118-0.328
			c0.797,0,1.444,0.094,1.942,0.28c0.498,0.188,0.864,0.423,1.099,0.707c0.234,0.283,0.398,0.644,0.492,1.076
			c0.053,0.271,0.079,0.756,0.079,1.459v2.108c0,1.472,0.033,2.4,0.101,2.791c0.067,0.39,0.201,0.765,0.4,1.121h-1.652
			C283.877,230.527,283.771,230.143,283.725,229.703z M283.593,226.169c-0.573,0.233-1.436,0.435-2.584,0.599
			c-0.649,0.094-1.109,0.198-1.38,0.315c-0.27,0.117-0.478,0.289-0.624,0.515c-0.146,0.227-0.22,0.477-0.22,0.752
			c0,0.422,0.159,0.772,0.479,1.055c0.319,0.281,0.786,0.422,1.401,0.422c0.609,0,1.151-0.133,1.626-0.4
			c0.476-0.266,0.823-0.631,1.046-1.094c0.17-0.357,0.255-0.885,0.255-1.582V226.169z"/>
		<path d="M287.645,230.855v-9.334h1.415v1.309c0.293-0.457,0.683-0.824,1.169-1.104c0.485-0.277,1.04-0.416,1.661-0.416
			c0.69,0,1.258,0.143,1.699,0.43c0.442,0.287,0.756,0.688,0.938,1.205c0.738-1.09,1.699-1.635,2.883-1.635
			c0.926,0,1.638,0.256,2.136,0.768c0.498,0.514,0.747,1.303,0.747,2.369v6.408h-1.572v-5.881c0-0.634-0.053-1.089-0.154-1.367
			c-0.104-0.277-0.288-0.502-0.559-0.672c-0.27-0.17-0.586-0.254-0.948-0.254c-0.656,0-1.201,0.217-1.636,0.653
			c-0.434,0.437-0.649,1.136-0.649,2.097v5.424h-1.582v-6.064c0-0.703-0.129-1.23-0.387-1.582c-0.259-0.352-0.681-0.527-1.267-0.527
			c-0.444,0-0.855,0.117-1.234,0.353c-0.377,0.233-0.651,0.575-0.821,1.026s-0.255,1.103-0.255,1.951v4.844H287.645L287.645,230.855
			z"/>
		<path d="M302.639,234.432v-12.91h1.44v1.213c0.34-0.476,0.725-0.832,1.151-1.068c0.428-0.238,0.946-0.355,1.556-0.355
			c0.798,0,1.5,0.205,2.109,0.615s1.069,0.988,1.38,1.734c0.312,0.748,0.466,1.566,0.466,2.457c0,0.955-0.172,1.814-0.514,2.58
			c-0.344,0.764-0.842,1.35-1.494,1.758c-0.654,0.406-1.341,0.611-2.062,0.611c-0.527,0-1.002-0.111-1.42-0.334
			c-0.42-0.224-0.764-0.504-1.032-0.844v4.543H302.639z M304.071,226.24c0,1.201,0.243,2.09,0.729,2.664
			c0.486,0.574,1.075,0.861,1.768,0.861c0.703,0,1.306-0.3,1.806-0.894c0.503-0.597,0.753-1.517,0.753-2.765
			c0-1.188-0.245-2.08-0.734-2.672s-1.073-0.889-1.753-0.889c-0.675,0-1.271,0.314-1.788,0.945
			C304.33,224.123,304.071,225.039,304.071,226.24z"/>
		<path d="M312.614,230.855V217.97h1.582v12.886H312.614z"/>
		<path d="M323.038,227.85l1.636,0.2c-0.259,0.955-0.735,1.697-1.434,2.226c-0.698,0.527-1.588,0.791-2.672,0.791
			c-1.365,0-2.447-0.422-3.248-1.262c-0.799-0.843-1.199-2.021-1.199-3.537c0-1.57,0.404-2.789,1.214-3.656
			c0.809-0.867,1.856-1.301,3.146-1.301c1.248,0,2.268,0.424,3.059,1.272s1.188,2.045,1.188,3.586c0,0.095-0.003,0.233-0.009,0.422
			h-6.961c0.059,1.025,0.349,1.812,0.87,2.354c0.521,0.545,1.172,0.818,1.95,0.818c0.58,0,1.075-0.152,1.485-0.457
			S322.799,228.518,323.038,227.85z M317.844,225.291h5.212c-0.07-0.785-0.271-1.373-0.599-1.766
			c-0.504-0.609-1.156-0.914-1.96-0.914c-0.727,0-1.338,0.242-1.831,0.729C318.171,223.826,317.896,224.477,317.844,225.291z"/>
	</g>
	<g>
		<path fill="#282828" d="M443.962,34.578v-9.307h3.49c0.711,0,1.281,0.094,1.711,0.282c0.431,0.188,0.767,0.479,1.01,0.87
			c0.242,0.391,0.364,0.801,0.364,1.229c0,0.398-0.107,0.771-0.322,1.123c-0.218,0.352-0.542,0.635-0.979,0.852
			c0.563,0.164,0.996,0.445,1.299,0.844c0.304,0.399,0.453,0.867,0.453,1.408c0,0.438-0.092,0.842-0.274,1.217
			c-0.186,0.375-0.412,0.662-0.684,0.865c-0.271,0.203-0.609,0.357-1.019,0.461s-0.909,0.156-1.502,0.156H443.962z M445.192,29.181
			h2.012c0.547,0,0.938-0.035,1.176-0.107c0.312-0.094,0.549-0.248,0.708-0.463c0.157-0.217,0.237-0.488,0.237-0.813
			c0-0.311-0.074-0.582-0.223-0.816c-0.148-0.235-0.359-0.396-0.635-0.482c-0.275-0.087-0.747-0.131-1.416-0.131h-1.859V29.181z
			 M445.192,33.478h2.316c0.397,0,0.678-0.014,0.838-0.043c0.284-0.051,0.521-0.137,0.711-0.254c0.19-0.119,0.348-0.291,0.471-0.518
			c0.122-0.227,0.185-0.488,0.185-0.785c0-0.346-0.09-0.648-0.268-0.904c-0.178-0.256-0.424-0.436-0.739-0.539
			c-0.314-0.103-0.77-0.156-1.36-0.156h-2.152L445.192,33.478L445.192,33.478z"/>
		<path fill="#282828" d="M452.524,34.578v-6.742h1.027v1.021c0.263-0.477,0.505-0.793,0.728-0.945
			c0.222-0.152,0.466-0.229,0.733-0.229c0.385,0,0.775,0.123,1.174,0.369l-0.395,1.059c-0.278-0.164-0.559-0.246-0.838-0.246
			c-0.25,0-0.474,0.074-0.673,0.225c-0.199,0.151-0.341,0.359-0.426,0.625c-0.127,0.406-0.189,0.852-0.189,1.334v3.529H452.524z"/>
		<path fill="#282828" d="M456.872,26.585v-1.314h1.144v1.314H456.872z M456.872,34.578v-6.742h1.144v6.742H456.872z"/>
		<path fill="#282828" d="M459.756,34.578v-6.742h1.026v0.959c0.496-0.74,1.211-1.111,2.146-1.111c0.406,0,0.778,0.074,1.12,0.219
			c0.341,0.146,0.596,0.338,0.765,0.574c0.169,0.238,0.288,0.52,0.355,0.846c0.042,0.211,0.062,0.582,0.062,1.109v4.146h-1.143
			v-4.102c0-0.465-0.044-0.813-0.135-1.043c-0.088-0.232-0.246-0.416-0.473-0.553c-0.227-0.139-0.492-0.207-0.797-0.207
			c-0.486,0-0.906,0.154-1.26,0.463c-0.354,0.312-0.529,0.896-0.529,1.76v3.682H459.756z"/>
		<path fill="#282828" d="M466.774,35.136l1.111,0.164c0.046,0.344,0.175,0.592,0.387,0.75c0.283,0.211,0.671,0.316,1.162,0.316
			c0.528,0,0.937-0.105,1.225-0.316c0.288-0.213,0.482-0.508,0.584-0.889c0.061-0.234,0.087-0.723,0.082-1.467
			c-0.499,0.588-1.121,0.883-1.864,0.883c-0.929,0-1.646-0.336-2.152-1.004s-0.762-1.471-0.762-2.406
			c0-0.643,0.115-1.236,0.35-1.779c0.232-0.545,0.569-0.965,1.012-1.26c0.442-0.297,0.962-0.445,1.56-0.445
			c0.796,0,1.451,0.322,1.968,0.965v-0.813h1.054v5.828c0,1.049-0.105,1.793-0.32,2.23c-0.214,0.437-0.553,0.783-1.016,1.037
			c-0.464,0.254-1.034,0.381-1.711,0.381c-0.804,0-1.453-0.18-1.949-0.541C466.997,36.408,466.759,35.863,466.774,35.136z
			 M467.72,31.085c0,0.885,0.176,1.529,0.526,1.936c0.352,0.407,0.791,0.609,1.32,0.609c0.524,0,0.965-0.201,1.32-0.605
			c0.354-0.404,0.533-1.037,0.533-1.9c0-0.826-0.184-1.447-0.55-1.867c-0.365-0.418-0.808-0.629-1.323-0.629
			c-0.509,0-0.939,0.207-1.295,0.619C467.897,29.662,467.72,30.273,467.72,31.085z"/>
		<path fill="#282828" d="M477.368,32.564l1.131-0.178c0.063,0.453,0.239,0.801,0.529,1.041c0.29,0.242,0.695,0.363,1.216,0.363
			c0.524,0,0.914-0.107,1.168-0.32c0.255-0.215,0.382-0.465,0.382-0.754c0-0.258-0.112-0.461-0.338-0.609
			c-0.155-0.102-0.545-0.23-1.168-0.387c-0.838-0.211-1.418-0.395-1.741-0.549c-0.323-0.154-0.569-0.367-0.736-0.641
			c-0.167-0.274-0.25-0.574-0.25-0.904c0-0.301,0.068-0.58,0.206-0.836s0.324-0.469,0.562-0.637
			c0.179-0.133,0.421-0.242,0.728-0.334c0.307-0.092,0.636-0.137,0.987-0.137c0.528,0,0.992,0.076,1.394,0.229
			c0.399,0.152,0.695,0.359,0.885,0.619c0.191,0.26,0.322,0.607,0.396,1.045l-1.117,0.152c-0.051-0.348-0.198-0.619-0.441-0.813
			c-0.243-0.195-0.588-0.293-1.03-0.293c-0.525,0-0.899,0.088-1.124,0.26c-0.226,0.174-0.337,0.377-0.337,0.609
			c0,0.148,0.047,0.281,0.141,0.4c0.093,0.123,0.238,0.225,0.438,0.305c0.114,0.043,0.451,0.141,1.011,0.293
			c0.808,0.215,1.372,0.393,1.69,0.529c0.319,0.136,0.57,0.338,0.752,0.6c0.183,0.262,0.273,0.588,0.273,0.979
			c0,0.381-0.111,0.738-0.334,1.076c-0.223,0.336-0.543,0.596-0.961,0.779c-0.42,0.186-0.895,0.277-1.422,0.277
			c-0.877,0-1.544-0.184-2.003-0.547C477.793,33.818,477.495,33.281,477.368,32.564z"/>
		<path fill="#282828" d="M488.94,32.406l1.181,0.146c-0.187,0.689-0.53,1.225-1.033,1.605c-0.505,0.381-1.147,0.572-1.931,0.572
			c-0.985,0-1.769-0.305-2.346-0.912c-0.578-0.607-0.867-1.459-0.867-2.555c0-1.135,0.293-2.014,0.877-2.641
			s1.341-0.939,2.271-0.939c0.901,0,1.639,0.307,2.209,0.92c0.571,0.615,0.856,1.479,0.856,2.59c0,0.068-0.002,0.17-0.006,0.305
			h-5.026c0.041,0.742,0.251,1.309,0.628,1.701c0.377,0.395,0.847,0.592,1.408,0.592c0.419,0,0.776-0.111,1.072-0.33
			C488.532,33.24,488.767,32.888,488.94,32.406z M485.188,30.558h3.765c-0.051-0.566-0.193-0.992-0.432-1.275
			c-0.364-0.439-0.836-0.66-1.415-0.66c-0.525,0-0.967,0.176-1.324,0.527C485.426,29.501,485.228,29.97,485.188,30.558z"/>
		<path fill="#282828" d="M491.556,37.16v-9.324h1.041v0.877c0.245-0.344,0.521-0.6,0.831-0.771
			c0.309-0.171,0.684-0.258,1.124-0.258c0.575,0,1.083,0.148,1.522,0.445c0.439,0.295,0.771,0.713,0.996,1.254
			c0.226,0.539,0.336,1.131,0.336,1.773c0,0.688-0.123,1.311-0.371,1.863c-0.247,0.553-0.606,0.975-1.079,1.27
			c-0.472,0.293-0.968,0.441-1.487,0.441c-0.381,0-0.724-0.082-1.025-0.242c-0.302-0.16-0.551-0.363-0.745-0.609v3.281H491.556z
			 M492.591,31.244c0,0.869,0.176,1.51,0.525,1.924c0.353,0.414,0.777,0.623,1.276,0.623c0.508,0,0.942-0.215,1.305-0.645
			c0.361-0.43,0.542-1.096,0.542-1.996c0-0.859-0.176-1.504-0.528-1.93c-0.354-0.428-0.775-0.643-1.268-0.643
			c-0.486,0-0.917,0.229-1.292,0.684C492.777,29.716,492.591,30.376,492.591,31.244z"/>
		<path fill="#282828" d="M503.185,33.746c-0.423,0.359-0.83,0.613-1.222,0.762c-0.393,0.149-0.812,0.223-1.262,0.223
			c-0.739,0-1.31-0.182-1.707-0.543c-0.396-0.361-0.597-0.824-0.597-1.387c0-0.33,0.075-0.633,0.227-0.904
			c0.149-0.273,0.347-0.492,0.59-0.658c0.243-0.164,0.518-0.289,0.821-0.375c0.226-0.059,0.563-0.115,1.017-0.17
			c0.923-0.111,1.602-0.242,2.037-0.395c0.005-0.156,0.007-0.256,0.007-0.299c0-0.465-0.108-0.793-0.323-0.982
			c-0.293-0.26-0.727-0.389-1.302-0.389c-0.537,0-0.936,0.096-1.19,0.283s-0.444,0.521-0.567,1l-1.117-0.152
			c0.102-0.479,0.27-0.865,0.502-1.158c0.231-0.295,0.569-0.521,1.01-0.68c0.439-0.158,0.949-0.238,1.529-0.238
			c0.575,0,1.043,0.068,1.401,0.203c0.36,0.135,0.625,0.307,0.795,0.512c0.169,0.205,0.287,0.465,0.354,0.777
			c0.038,0.195,0.058,0.545,0.058,1.053v1.523c0,1.063,0.023,1.734,0.072,2.016c0.049,0.282,0.146,0.551,0.289,0.811h-1.192
			C503.296,34.339,503.219,34.062,503.185,33.746z M503.09,31.193c-0.414,0.17-1.036,0.314-1.865,0.432
			c-0.471,0.068-0.803,0.145-0.997,0.229c-0.194,0.086-0.345,0.209-0.45,0.373c-0.105,0.162-0.159,0.344-0.159,0.541
			c0,0.305,0.115,0.559,0.347,0.762c0.23,0.203,0.567,0.305,1.013,0.305c0.439,0,0.832-0.096,1.174-0.287
			c0.344-0.193,0.595-0.457,0.756-0.791c0.123-0.258,0.185-0.639,0.185-1.143v-0.421H503.09z"/>
		<path fill="#282828" d="M506.004,34.578v-6.742h1.028v1.021c0.263-0.477,0.504-0.793,0.728-0.945
			c0.222-0.152,0.467-0.229,0.731-0.229c0.387,0,0.777,0.123,1.175,0.369l-0.394,1.059c-0.279-0.164-0.559-0.246-0.838-0.246
			c-0.25,0-0.475,0.074-0.673,0.225c-0.199,0.151-0.341,0.359-0.425,0.625c-0.128,0.406-0.191,0.852-0.191,1.334v3.529H506.004z"/>
		<path fill="#282828" d="M514.743,33.746c-0.423,0.359-0.83,0.613-1.222,0.762c-0.392,0.149-0.812,0.223-1.261,0.223
			c-0.74,0-1.311-0.182-1.707-0.543c-0.397-0.361-0.598-0.824-0.598-1.387c0-0.33,0.075-0.633,0.227-0.904
			c0.15-0.273,0.347-0.492,0.59-0.658c0.243-0.164,0.518-0.289,0.822-0.375c0.225-0.059,0.562-0.115,1.016-0.17
			c0.923-0.111,1.603-0.242,2.037-0.395c0.005-0.156,0.007-0.256,0.007-0.299c0-0.465-0.107-0.793-0.323-0.982
			c-0.293-0.26-0.727-0.389-1.302-0.389c-0.537,0-0.935,0.096-1.189,0.283s-0.445,0.521-0.568,1l-1.117-0.152
			c0.103-0.479,0.271-0.865,0.502-1.158c0.232-0.295,0.569-0.521,1.011-0.68c0.438-0.158,0.948-0.238,1.528-0.238
			c0.575,0,1.043,0.068,1.402,0.203c0.36,0.135,0.625,0.307,0.794,0.512s0.288,0.465,0.354,0.777
			c0.038,0.195,0.059,0.545,0.059,1.053v1.523c0,1.063,0.022,1.734,0.072,2.016c0.049,0.282,0.146,0.551,0.288,0.811h-1.192
			C514.854,34.339,514.777,34.062,514.743,33.746z M514.647,31.193c-0.414,0.17-1.036,0.314-1.865,0.432
			c-0.471,0.068-0.803,0.145-0.997,0.229c-0.193,0.086-0.345,0.209-0.45,0.373c-0.105,0.162-0.158,0.344-0.158,0.541
			c0,0.305,0.114,0.559,0.346,0.762c0.231,0.203,0.568,0.305,1.013,0.305c0.44,0,0.832-0.096,1.175-0.287
			c0.344-0.193,0.595-0.457,0.756-0.791c0.123-0.258,0.184-0.639,0.184-1.143v-0.421H514.647z"/>
		<path fill="#282828" d="M520.069,33.554l0.165,1.01c-0.321,0.068-0.609,0.102-0.863,0.102c-0.415,0-0.735-0.064-0.965-0.197
			c-0.229-0.131-0.39-0.303-0.481-0.516c-0.094-0.215-0.141-0.664-0.141-1.35v-3.879h-0.838v-0.889h0.838v-1.67l1.138-0.686v2.355
			h1.147v0.889h-1.147v3.941c0,0.326,0.02,0.535,0.06,0.629c0.04,0.094,0.106,0.168,0.197,0.223c0.091,0.055,0.221,0.082,0.39,0.082
			C519.694,33.599,519.862,33.585,520.069,33.554z"/>
		<path fill="#282828" d="M525.802,32.406l1.181,0.146c-0.187,0.689-0.531,1.225-1.035,1.605c-0.503,0.381-1.146,0.572-1.93,0.572
			c-0.985,0-1.768-0.305-2.345-0.912c-0.578-0.607-0.866-1.459-0.866-2.555c0-1.135,0.291-2.014,0.875-2.641
			s1.342-0.939,2.272-0.939c0.9,0,1.638,0.307,2.209,0.92c0.57,0.615,0.856,1.479,0.856,2.59c0,0.068-0.002,0.17-0.007,0.305h-5.027
			c0.043,0.742,0.252,1.309,0.629,1.701c0.377,0.395,0.848,0.592,1.409,0.592c0.419,0,0.776-0.111,1.073-0.33
			C525.393,33.24,525.628,32.888,525.802,32.406z M522.051,30.558h3.764c-0.051-0.566-0.194-0.992-0.432-1.275
			c-0.364-0.439-0.836-0.66-1.416-0.66c-0.524,0-0.967,0.176-1.323,0.527C522.286,29.501,522.088,29.97,522.051,30.558z"/>
		<path fill="#282828" d="M532.028,37.16v-9.324h1.041v0.877c0.245-0.344,0.522-0.6,0.831-0.771c0.31-0.171,0.685-0.258,1.124-0.258
			c0.575,0,1.083,0.148,1.523,0.445c0.438,0.295,0.771,0.713,0.996,1.254c0.225,0.539,0.336,1.131,0.336,1.773
			c0,0.688-0.123,1.311-0.371,1.863c-0.247,0.553-0.607,0.975-1.079,1.27c-0.472,0.293-0.968,0.441-1.488,0.441
			c-0.381,0-0.723-0.082-1.024-0.242c-0.303-0.16-0.552-0.363-0.745-0.609v3.281H532.028z M533.063,31.244
			c0,0.869,0.176,1.51,0.526,1.924c0.352,0.414,0.776,0.623,1.275,0.623c0.508,0,0.942-0.215,1.306-0.645
			c0.36-0.43,0.542-1.096,0.542-1.996c0-0.859-0.177-1.504-0.529-1.93c-0.354-0.428-0.775-0.643-1.268-0.643
			c-0.485,0-0.917,0.229-1.292,0.684C533.251,29.716,533.063,30.376,533.063,31.244z"/>
		<path fill="#282828" d="M539.265,26.585v-1.314h1.143v1.314H539.265z M539.265,34.578v-6.742h1.143v6.742H539.265z"/>
		<path fill="#282828" d="M546.762,32.406l1.181,0.146c-0.187,0.689-0.531,1.225-1.035,1.605c-0.503,0.381-1.146,0.572-1.93,0.572
			c-0.985,0-1.768-0.305-2.345-0.912c-0.578-0.607-0.866-1.459-0.866-2.555c0-1.135,0.291-2.014,0.875-2.641
			s1.342-0.939,2.273-0.939c0.899,0,1.637,0.307,2.209,0.92c0.569,0.615,0.855,1.479,0.855,2.59c0,0.068-0.002,0.17-0.007,0.305
			h-5.027c0.043,0.742,0.252,1.309,0.629,1.701c0.377,0.395,0.848,0.592,1.409,0.592c0.419,0,0.776-0.111,1.073-0.33
			C546.354,33.24,546.589,32.888,546.762,32.406z M543.011,30.558h3.764c-0.051-0.566-0.194-0.992-0.432-1.275
			c-0.364-0.439-0.836-0.66-1.416-0.66c-0.524,0-0.966,0.176-1.323,0.527S543.049,29.97,543.011,30.558z"/>
		<path fill="#282828" d="M553.775,32.107l1.124,0.146c-0.123,0.775-0.438,1.381-0.943,1.818c-0.506,0.439-1.127,0.658-1.862,0.658
			c-0.922,0-1.664-0.303-2.226-0.904c-0.561-0.604-0.841-1.469-0.841-2.594c0-0.729,0.12-1.365,0.362-1.91
			c0.24-0.547,0.607-0.955,1.101-1.229c0.494-0.274,1.029-0.41,1.609-0.41c0.732,0,1.331,0.186,1.796,0.557
			c0.466,0.369,0.766,0.895,0.896,1.576l-1.11,0.172c-0.106-0.453-0.294-0.793-0.563-1.021c-0.269-0.228-0.594-0.344-0.975-0.344
			c-0.575,0-1.043,0.207-1.402,0.619c-0.358,0.412-0.538,1.064-0.538,1.959c0,0.904,0.173,1.563,0.52,1.973
			c0.348,0.412,0.801,0.617,1.359,0.617c0.447,0,0.821-0.139,1.123-0.414C553.506,33.103,553.695,32.679,553.775,32.107z"/>
		<path fill="#282828" d="M560.491,32.406l1.182,0.146c-0.188,0.689-0.531,1.225-1.034,1.605c-0.504,0.381-1.147,0.572-1.93,0.572
			c-0.986,0-1.77-0.305-2.347-0.912c-0.578-0.607-0.867-1.459-0.867-2.555c0-1.135,0.293-2.014,0.877-2.641s1.342-0.939,2.271-0.939
			c0.902,0,1.639,0.307,2.209,0.92c0.572,0.615,0.857,1.479,0.857,2.59c0,0.068-0.002,0.17-0.007,0.305h-5.026
			c0.042,0.742,0.251,1.309,0.628,1.701c0.377,0.395,0.847,0.592,1.409,0.592c0.419,0,0.775-0.111,1.071-0.33
			C560.083,33.24,560.317,32.888,560.491,32.406z M556.739,30.558h3.766c-0.052-0.566-0.194-0.992-0.433-1.275
			c-0.364-0.439-0.836-0.66-1.415-0.66c-0.524,0-0.967,0.176-1.323,0.527C556.976,29.501,556.778,29.97,556.739,30.558z"/>
		<path fill="#282828" d="M562.649,32.564l1.129-0.178c0.064,0.453,0.24,0.801,0.53,1.041c0.29,0.242,0.695,0.363,1.216,0.363
			c0.524,0,0.914-0.107,1.168-0.32c0.254-0.215,0.381-0.465,0.381-0.754c0-0.258-0.111-0.461-0.336-0.609
			c-0.156-0.102-0.547-0.23-1.168-0.387c-0.838-0.211-1.419-0.395-1.743-0.549c-0.322-0.154-0.568-0.367-0.735-0.641
			c-0.167-0.274-0.251-0.574-0.251-0.904c0-0.301,0.068-0.58,0.207-0.836c0.138-0.256,0.323-0.469,0.562-0.637
			c0.178-0.133,0.42-0.242,0.728-0.334c0.307-0.092,0.636-0.137,0.986-0.137c0.529,0,0.993,0.076,1.395,0.229
			c0.398,0.152,0.693,0.359,0.886,0.619c0.189,0.26,0.321,0.607,0.393,1.045l-1.116,0.152c-0.052-0.348-0.197-0.619-0.44-0.813
			c-0.243-0.195-0.587-0.293-1.032-0.293c-0.523,0-0.897,0.088-1.123,0.26c-0.225,0.174-0.336,0.377-0.336,0.609
			c0,0.148,0.046,0.281,0.14,0.4c0.094,0.123,0.238,0.225,0.438,0.305c0.114,0.043,0.45,0.141,1.009,0.293
			c0.81,0.215,1.373,0.393,1.692,0.529c0.319,0.136,0.57,0.338,0.752,0.6c0.182,0.262,0.271,0.588,0.271,0.979
			c0,0.381-0.109,0.738-0.333,1.076c-0.222,0.336-0.542,0.596-0.962,0.779c-0.418,0.186-0.893,0.277-1.422,0.277
			c-0.875,0-1.543-0.184-2.002-0.547C563.071,33.818,562.776,33.281,562.649,32.564z"/>
		<path fill="#282828" d="M441.632,47.806c0-1.248,0.347-2.172,1.041-2.773c0.58-0.5,1.285-0.75,2.119-0.75
			c0.928,0,1.686,0.305,2.272,0.912s0.882,1.445,0.882,2.516c0,0.869-0.13,1.551-0.39,2.049c-0.261,0.496-0.641,0.883-1.137,1.158
			c-0.497,0.273-1.04,0.412-1.629,0.412c-0.942,0-1.705-0.303-2.287-0.908S441.632,48.945,441.632,47.806z M442.806,47.806
			c0,0.863,0.188,1.51,0.563,1.939c0.376,0.429,0.852,0.645,1.422,0.645c0.567,0,1.039-0.217,1.416-0.648
			c0.377-0.432,0.564-1.09,0.564-1.973c0-0.834-0.189-1.467-0.568-1.895c-0.379-0.43-0.85-0.645-1.412-0.645
			c-0.57,0-1.045,0.213-1.422,0.641C442.993,46.298,442.806,46.943,442.806,47.806z"/>
		<path fill="#282828" d="M449.559,51.177v-5.854h-1.009v-0.889h1.009v-0.717c0-0.453,0.04-0.789,0.12-1.01
			c0.109-0.295,0.304-0.535,0.581-0.719c0.276-0.186,0.666-0.277,1.165-0.277c0.32,0,0.677,0.039,1.065,0.115l-0.172,0.996
			c-0.236-0.043-0.461-0.064-0.672-0.064c-0.348,0-0.593,0.074-0.736,0.223c-0.145,0.148-0.217,0.426-0.217,0.832v0.621h1.314v0.889
			h-1.314v5.854H449.559z"/>
		<path fill="#282828" d="M456.517,43.185v-1.314h1.143v1.314H456.517z M456.517,51.177v-6.742h1.143v6.742H456.517z"/>
		<path fill="#282828" d="M459.397,51.177v-6.742h1.029v0.959c0.494-0.74,1.21-1.111,2.145-1.111c0.406,0,0.78,0.074,1.121,0.221
			c0.341,0.145,0.596,0.336,0.765,0.574c0.17,0.236,0.288,0.518,0.355,0.844c0.042,0.211,0.063,0.582,0.063,1.111v4.145h-1.144
			v-4.102c0-0.465-0.045-0.813-0.133-1.043c-0.09-0.23-0.247-0.416-0.474-0.553c-0.228-0.137-0.491-0.207-0.797-0.207
			c-0.486,0-0.906,0.154-1.261,0.465c-0.354,0.309-0.53,0.895-0.53,1.758v3.682L459.397,51.177L459.397,51.177z"/>
		<path fill="#282828" d="M466.9,51.177v-5.854h-1.009v-0.889h1.009v-0.717c0-0.453,0.04-0.789,0.12-1.01
			c0.11-0.295,0.304-0.535,0.581-0.719c0.277-0.186,0.666-0.277,1.165-0.277c0.321,0,0.677,0.039,1.065,0.115l-0.172,0.996
			c-0.235-0.043-0.461-0.064-0.672-0.064c-0.348,0-0.593,0.074-0.735,0.223c-0.146,0.148-0.218,0.426-0.218,0.832v0.621h1.314v0.889
			h-1.314v5.854H466.9z"/>
		<path fill="#282828" d="M469.814,47.806c0-1.248,0.347-2.172,1.041-2.773c0.58-0.5,1.286-0.75,2.12-0.75
			c0.927,0,1.685,0.305,2.271,0.912c0.588,0.607,0.883,1.445,0.883,2.516c0,0.869-0.131,1.551-0.391,2.049
			c-0.261,0.496-0.64,0.883-1.137,1.158c-0.497,0.273-1.04,0.412-1.628,0.412c-0.943,0-1.706-0.303-2.288-0.908
			S469.814,48.945,469.814,47.806z M470.989,47.806c0,0.863,0.188,1.51,0.564,1.939c0.376,0.429,0.851,0.645,1.422,0.645
			c0.566,0,1.039-0.217,1.416-0.648c0.376-0.432,0.563-1.09,0.563-1.973c0-0.834-0.188-1.467-0.567-1.895
			c-0.379-0.43-0.851-0.645-1.412-0.645c-0.571,0-1.045,0.213-1.422,0.641C471.177,46.298,470.989,46.943,470.989,47.806z"/>
		<path fill="#282828" d="M477.456,51.177v-6.742h1.029v1.023c0.262-0.479,0.504-0.795,0.728-0.947
			c0.222-0.152,0.467-0.229,0.731-0.229c0.386,0,0.777,0.123,1.175,0.369l-0.394,1.061c-0.279-0.166-0.56-0.248-0.838-0.248
			c-0.25,0-0.475,0.074-0.673,0.225c-0.199,0.151-0.342,0.359-0.426,0.625c-0.127,0.406-0.19,0.852-0.19,1.334v3.529H477.456z"/>
		<path fill="#282828" d="M481.801,51.177v-6.742h1.021v0.947c0.212-0.33,0.493-0.596,0.844-0.797
			c0.353-0.201,0.752-0.303,1.2-0.303c0.499,0,0.909,0.104,1.229,0.312c0.318,0.207,0.545,0.496,0.676,0.869
			c0.533-0.787,1.228-1.182,2.082-1.182c0.669,0,1.183,0.186,1.542,0.557c0.36,0.369,0.54,0.939,0.54,1.711v4.627h-1.136v-4.246
			c0-0.457-0.037-0.787-0.111-0.988c-0.074-0.201-0.209-0.363-0.403-0.484c-0.193-0.123-0.423-0.186-0.686-0.186
			c-0.475,0-0.867,0.158-1.182,0.475c-0.312,0.314-0.47,0.818-0.47,1.514v3.916h-1.143v-4.381c0-0.508-0.093-0.889-0.279-1.143
			c-0.186-0.254-0.491-0.381-0.914-0.381c-0.321,0-0.619,0.086-0.892,0.254c-0.273,0.17-0.472,0.418-0.594,0.744
			c-0.123,0.324-0.185,0.795-0.185,1.408v3.498H481.801z"/>
		<path fill="#282828" d="M497.026,50.345c-0.423,0.359-0.83,0.613-1.222,0.762c-0.393,0.149-0.812,0.223-1.261,0.223
			c-0.74,0-1.311-0.182-1.707-0.543c-0.397-0.361-0.598-0.824-0.598-1.387c0-0.33,0.075-0.631,0.227-0.904
			c0.15-0.273,0.347-0.492,0.59-0.658c0.243-0.164,0.518-0.289,0.822-0.373c0.225-0.061,0.562-0.117,1.016-0.172
			c0.923-0.109,1.602-0.242,2.037-0.395c0.005-0.156,0.007-0.256,0.007-0.297c0-0.467-0.108-0.795-0.323-0.984
			c-0.293-0.258-0.727-0.387-1.302-0.387c-0.537,0-0.935,0.094-1.19,0.281c-0.256,0.189-0.444,0.521-0.567,1l-1.117-0.152
			c0.102-0.479,0.27-0.863,0.502-1.158s0.569-0.52,1.01-0.68c0.439-0.158,0.949-0.238,1.529-0.238c0.575,0,1.043,0.068,1.402,0.203
			c0.359,0.137,0.625,0.307,0.794,0.512s0.288,0.465,0.354,0.777c0.038,0.195,0.059,0.547,0.059,1.055v1.523
			c0,1.061,0.022,1.732,0.071,2.016c0.05,0.281,0.146,0.551,0.289,0.809h-1.192C497.137,50.941,497.061,50.664,497.026,50.345z
			 M496.931,47.794c-0.414,0.168-1.036,0.313-1.865,0.432c-0.471,0.066-0.803,0.143-0.997,0.229
			c-0.193,0.084-0.345,0.207-0.45,0.371c-0.105,0.162-0.158,0.344-0.158,0.543c0,0.305,0.114,0.559,0.346,0.762
			c0.23,0.203,0.567,0.305,1.013,0.305c0.44,0,0.832-0.098,1.174-0.289c0.345-0.193,0.596-0.457,0.756-0.791
			c0.123-0.258,0.185-0.639,0.185-1.143v-0.419H496.931z"/>
		<path fill="#282828" d="M502.353,50.156l0.165,1.008c-0.321,0.068-0.609,0.102-0.863,0.102c-0.415,0-0.735-0.064-0.965-0.195
			c-0.229-0.133-0.39-0.305-0.482-0.518c-0.093-0.215-0.14-0.664-0.14-1.35v-3.879h-0.838v-0.889h0.838v-1.668l1.137-0.686v2.354
			h1.148v0.889h-1.148v3.943c0,0.324,0.021,0.535,0.061,0.627c0.04,0.094,0.105,0.168,0.197,0.223
			c0.091,0.055,0.221,0.082,0.39,0.082C501.978,50.199,502.146,50.185,502.353,50.156z"/>
		<path fill="#282828" d="M503.476,43.185v-1.314h1.143v1.314H503.476z M503.476,51.177v-6.742h1.143v6.742H503.476z"/>
		<path fill="#282828" d="M505.933,47.806c0-1.248,0.347-2.172,1.041-2.773c0.58-0.5,1.286-0.75,2.12-0.75
			c0.927,0,1.685,0.305,2.271,0.912s0.883,1.445,0.883,2.516c0,0.869-0.131,1.551-0.391,2.049c-0.261,0.496-0.64,0.883-1.137,1.158
			c-0.497,0.273-1.04,0.412-1.628,0.412c-0.943,0-1.706-0.303-2.288-0.908S505.933,48.945,505.933,47.806z M507.106,47.806
			c0,0.863,0.188,1.51,0.565,1.939c0.377,0.429,0.851,0.645,1.422,0.645c0.566,0,1.039-0.217,1.415-0.648
			c0.377-0.432,0.564-1.09,0.564-1.973c0-0.834-0.188-1.467-0.567-1.895c-0.379-0.43-0.851-0.645-1.412-0.645
			c-0.571,0-1.045,0.213-1.422,0.641C507.295,46.298,507.106,46.943,507.106,47.806z"/>
		<path fill="#282828" d="M513.59,51.177v-6.742h1.026v0.959c0.496-0.74,1.211-1.111,2.146-1.111c0.406,0,0.778,0.074,1.12,0.221
			c0.341,0.145,0.596,0.336,0.765,0.574c0.169,0.236,0.288,0.518,0.355,0.844c0.041,0.211,0.062,0.582,0.062,1.111v4.145h-1.143
			v-4.102c0-0.465-0.045-0.813-0.135-1.043c-0.088-0.23-0.246-0.416-0.473-0.553s-0.492-0.207-0.797-0.207
			c-0.486,0-0.906,0.154-1.26,0.465c-0.354,0.309-0.529,0.895-0.529,1.758v3.682L513.59,51.177L513.59,51.177z"/>
		<path fill="#282828" d="M526.926,50.156l0.165,1.008c-0.321,0.068-0.609,0.102-0.863,0.102c-0.415,0-0.736-0.064-0.965-0.195
			c-0.229-0.133-0.391-0.305-0.482-0.518c-0.093-0.215-0.14-0.664-0.14-1.35v-3.879h-0.838v-0.889h0.838v-1.668l1.137-0.686v2.354
			h1.148v0.889h-1.148v3.943c0,0.324,0.021,0.535,0.061,0.627c0.04,0.094,0.105,0.168,0.196,0.223
			c0.092,0.055,0.222,0.082,0.391,0.082C526.551,50.199,526.719,50.185,526.926,50.156z"/>
		<path fill="#282828" d="M527.616,47.806c0-1.248,0.348-2.172,1.041-2.773c0.58-0.5,1.286-0.75,2.12-0.75
			c0.927,0,1.686,0.305,2.272,0.912s0.883,1.445,0.883,2.516c0,0.869-0.131,1.551-0.391,2.049c-0.262,0.496-0.641,0.883-1.138,1.158
			c-0.497,0.273-1.04,0.412-1.628,0.412c-0.943,0-1.706-0.303-2.288-0.908S527.616,48.945,527.616,47.806z M528.79,47.806
			c0,0.863,0.188,1.51,0.565,1.939c0.377,0.429,0.851,0.645,1.422,0.645c0.567,0,1.039-0.217,1.415-0.648
			c0.377-0.432,0.565-1.09,0.565-1.973c0-0.834-0.189-1.467-0.568-1.895c-0.379-0.43-0.85-0.645-1.412-0.645
			c-0.571,0-1.045,0.213-1.422,0.641C528.978,46.298,528.79,46.943,528.79,47.806z"/>
		<path fill="#282828" d="M535.063,51.736l1.11,0.164c0.047,0.344,0.176,0.594,0.388,0.75c0.283,0.211,0.671,0.316,1.161,0.316
			c0.528,0,0.938-0.105,1.226-0.316s0.482-0.508,0.584-0.889c0.061-0.232,0.087-0.723,0.083-1.467
			c-0.5,0.588-1.122,0.883-1.867,0.883c-0.926,0-1.644-0.334-2.15-1.004c-0.508-0.668-0.763-1.471-0.763-2.404
			c0-0.645,0.116-1.238,0.35-1.781c0.232-0.543,0.57-0.963,1.013-1.26c0.443-0.297,0.962-0.445,1.56-0.445
			c0.796,0,1.45,0.322,1.968,0.965v-0.813h1.054v5.828c0,1.049-0.105,1.793-0.32,2.23c-0.214,0.439-0.553,0.785-1.016,1.039
			c-0.464,0.254-1.034,0.381-1.711,0.381c-0.804,0-1.454-0.182-1.948-0.543C535.284,53.009,535.047,52.464,535.063,51.736z
			 M536.01,47.685c0,0.885,0.175,1.531,0.525,1.938c0.352,0.407,0.791,0.609,1.32,0.609c0.524,0,0.965-0.203,1.32-0.607
			c0.354-0.404,0.532-1.037,0.532-1.9c0-0.826-0.183-1.447-0.549-1.867c-0.365-0.418-0.808-0.627-1.322-0.627
			c-0.509,0-0.939,0.205-1.295,0.619C536.187,46.261,536.01,46.873,536.01,47.685z"/>
		<path fill="#282828" d="M547.116,49.005l1.182,0.146c-0.188,0.689-0.531,1.225-1.034,1.605c-0.504,0.381-1.147,0.572-1.93,0.572
			c-0.986,0-1.77-0.305-2.347-0.91c-0.578-0.607-0.867-1.459-0.867-2.557c0-1.133,0.293-2.014,0.877-2.641
			c0.584-0.625,1.342-0.938,2.271-0.938c0.902,0,1.639,0.307,2.209,0.922c0.572,0.613,0.857,1.477,0.857,2.59
			c0,0.066-0.002,0.168-0.007,0.305h-5.026c0.042,0.74,0.251,1.307,0.628,1.701c0.377,0.393,0.847,0.59,1.409,0.59
			c0.419,0,0.775-0.109,1.071-0.33C546.708,49.839,546.942,49.488,547.116,49.005z M543.364,47.16h3.766
			c-0.052-0.568-0.194-0.992-0.433-1.277c-0.364-0.439-0.836-0.66-1.415-0.66c-0.524,0-0.967,0.176-1.323,0.527
			C543.601,46.101,543.403,46.57,543.364,47.16z"/>
		<path fill="#282828" d="M552.226,50.156l0.165,1.008c-0.321,0.068-0.609,0.102-0.863,0.102c-0.415,0-0.736-0.064-0.965-0.195
			c-0.229-0.133-0.39-0.305-0.482-0.518c-0.093-0.215-0.14-0.664-0.14-1.35v-3.879h-0.838v-0.889h0.838v-1.668l1.137-0.686v2.354
			h1.148v0.889h-1.148v3.943c0,0.324,0.021,0.535,0.061,0.627c0.04,0.094,0.105,0.168,0.197,0.223
			c0.091,0.055,0.221,0.082,0.39,0.082C551.851,50.199,552.019,50.185,552.226,50.156z"/>
		<path fill="#282828" d="M553.344,51.177V41.87h1.143v3.34c0.533-0.617,1.207-0.928,2.021-0.928c0.499,0,0.933,0.1,1.301,0.297
			c0.368,0.195,0.632,0.467,0.79,0.814c0.159,0.348,0.238,0.852,0.238,1.512v4.271h-1.144v-4.271c0-0.572-0.124-0.988-0.371-1.248
			c-0.248-0.26-0.598-0.391-1.051-0.391c-0.339,0-0.657,0.088-0.955,0.264c-0.299,0.176-0.511,0.414-0.638,0.715
			c-0.127,0.299-0.191,0.715-0.191,1.244v3.688H553.344z"/>
		<path fill="#282828" d="M565.188,49.005l1.181,0.146c-0.187,0.689-0.53,1.225-1.034,1.605c-0.504,0.381-1.146,0.572-1.931,0.572
			c-0.984,0-1.768-0.305-2.345-0.91c-0.578-0.607-0.866-1.459-0.866-2.557c0-1.133,0.291-2.014,0.875-2.641
			c0.584-0.625,1.342-0.938,2.273-0.938c0.899,0,1.637,0.307,2.209,0.922c0.569,0.613,0.855,1.477,0.855,2.59
			c0,0.066-0.002,0.168-0.007,0.305h-5.027c0.044,0.74,0.253,1.307,0.63,1.701c0.377,0.393,0.847,0.59,1.408,0.59
			c0.419,0,0.776-0.109,1.073-0.33C564.779,49.839,565.014,49.488,565.188,49.005z M561.437,47.16h3.764
			c-0.051-0.568-0.193-0.992-0.432-1.277c-0.364-0.439-0.836-0.66-1.416-0.66c-0.524,0-0.966,0.176-1.323,0.527
			C561.674,46.101,561.474,46.57,561.437,47.16z"/>
		<path fill="#282828" d="M567.79,51.177v-6.742h1.029v1.023c0.262-0.479,0.504-0.795,0.728-0.947
			c0.222-0.152,0.467-0.229,0.731-0.229c0.386,0,0.777,0.123,1.175,0.369l-0.394,1.061c-0.279-0.166-0.56-0.248-0.838-0.248
			c-0.25,0-0.475,0.074-0.673,0.225c-0.199,0.151-0.342,0.359-0.426,0.625c-0.127,0.406-0.19,0.852-0.19,1.334v3.529H567.79z"/>
		<path fill="#282828" d="M571.738,51.177v-1.301h1.302v1.301H571.738z"/>
	</g>
	<g>
		<path fill="#282828" d="M459.212,132.093v-1.092l3.941-0.006v3.453c-0.604,0.481-1.229,0.844-1.873,1.088
			c-0.644,0.244-1.304,0.364-1.979,0.364c-0.914,0-1.744-0.194-2.491-0.588c-0.747-0.391-1.312-0.957-1.692-1.696
			c-0.38-0.74-0.569-1.568-0.569-2.482c0-0.906,0.188-1.75,0.566-2.535c0.379-0.785,0.924-1.369,1.635-1.75
			c0.712-0.381,1.53-0.57,2.456-0.57c0.675,0,1.281,0.109,1.825,0.326c0.544,0.219,0.972,0.521,1.279,0.912
			c0.309,0.389,0.544,0.896,0.704,1.523l-1.11,0.305c-0.14-0.475-0.312-0.848-0.521-1.117c-0.207-0.271-0.504-0.488-0.89-0.65
			c-0.385-0.164-0.812-0.246-1.281-0.246c-0.563,0-1.051,0.086-1.46,0.258c-0.41,0.172-0.741,0.396-0.993,0.676
			c-0.252,0.28-0.448,0.586-0.587,0.92c-0.237,0.576-0.355,1.201-0.355,1.873c0,0.83,0.144,1.523,0.428,2.082
			c0.286,0.559,0.701,0.973,1.248,1.244c0.545,0.271,1.125,0.406,1.738,0.406c0.533,0,1.055-0.102,1.563-0.307
			c0.508-0.207,0.893-0.426,1.153-0.658v-1.732L459.212,132.093L459.212,132.093z"/>
		<path fill="#282828" d="M469.222,134.912c-0.423,0.359-0.83,0.613-1.222,0.762c-0.393,0.149-0.812,0.223-1.262,0.223
			c-0.74,0-1.31-0.182-1.707-0.543c-0.396-0.36-0.597-0.823-0.597-1.387c0-0.33,0.075-0.633,0.226-0.904
			c0.15-0.273,0.348-0.492,0.591-0.658c0.242-0.164,0.518-0.289,0.821-0.375c0.226-0.059,0.563-0.115,1.017-0.17
			c0.923-0.111,1.602-0.242,2.037-0.395c0.005-0.156,0.007-0.256,0.007-0.299c0-0.465-0.108-0.793-0.323-0.982
			c-0.293-0.26-0.728-0.389-1.302-0.389c-0.537,0-0.936,0.096-1.19,0.283s-0.445,0.521-0.567,1l-1.117-0.152
			c0.102-0.479,0.27-0.865,0.502-1.158c0.231-0.295,0.568-0.521,1.01-0.68c0.439-0.158,0.949-0.238,1.529-0.238
			c0.574,0,1.043,0.068,1.401,0.203c0.36,0.135,0.625,0.307,0.794,0.512s0.288,0.465,0.355,0.777
			c0.038,0.195,0.058,0.545,0.058,1.053v1.523c0,1.062,0.023,1.734,0.072,2.016c0.049,0.282,0.146,0.551,0.289,0.812h-1.193
			C469.332,135.505,469.257,135.229,469.222,134.912z M469.127,132.359c-0.414,0.17-1.036,0.314-1.865,0.432
			c-0.472,0.068-0.804,0.145-0.997,0.229c-0.194,0.086-0.345,0.209-0.45,0.373c-0.106,0.162-0.159,0.343-0.159,0.541
			c0,0.306,0.115,0.56,0.347,0.762c0.23,0.203,0.567,0.306,1.013,0.306c0.439,0,0.832-0.096,1.174-0.287
			c0.344-0.192,0.595-0.457,0.756-0.791c0.123-0.258,0.185-0.639,0.185-1.143v-0.421H469.127z"/>
		<path fill="#282828" d="M474.548,134.72l0.165,1.011c-0.321,0.067-0.609,0.102-0.863,0.102c-0.415,0-0.736-0.064-0.965-0.197
			c-0.229-0.131-0.391-0.303-0.482-0.516c-0.093-0.215-0.14-0.664-0.14-1.35v-3.879h-0.838v-0.889h0.838v-1.67l1.136-0.686V129
			h1.149v0.889h-1.149v3.941c0,0.326,0.021,0.535,0.062,0.629c0.039,0.094,0.105,0.168,0.196,0.223s0.222,0.082,0.392,0.082
			C474.174,134.766,474.341,134.751,474.548,134.72z"/>
		<path fill="#282828" d="M475.665,135.744v-9.307h1.144v3.34c0.533-0.619,1.205-0.928,2.018-0.928c0.5,0,0.935,0.1,1.303,0.295
			c0.367,0.197,0.632,0.469,0.79,0.816c0.158,0.348,0.237,0.85,0.237,1.51v4.273h-1.143v-4.273c0-0.57-0.124-0.986-0.371-1.246
			c-0.248-0.26-0.598-0.391-1.051-0.391c-0.339,0-0.657,0.088-0.955,0.264c-0.299,0.176-0.512,0.414-0.64,0.713
			c-0.127,0.301-0.188,0.717-0.188,1.244v3.689L475.665,135.744L475.665,135.744z"/>
		<path fill="#282828" d="M487.51,133.572l1.181,0.146c-0.187,0.689-0.531,1.226-1.034,1.605c-0.504,0.381-1.146,0.571-1.93,0.571
			c-0.986,0-1.77-0.305-2.346-0.912c-0.578-0.606-0.867-1.458-0.867-2.555c0-1.135,0.293-2.014,0.877-2.641s1.341-0.939,2.271-0.939
			c0.902,0,1.64,0.307,2.209,0.92c0.572,0.615,0.857,1.479,0.857,2.59c0,0.068-0.002,0.17-0.006,0.305h-5.027
			c0.042,0.742,0.251,1.31,0.628,1.701c0.377,0.395,0.848,0.592,1.409,0.592c0.419,0,0.776-0.111,1.072-0.33
			C487.101,134.406,487.336,134.055,487.51,133.572z M483.758,131.724h3.765c-0.051-0.566-0.194-0.992-0.432-1.275
			c-0.364-0.439-0.836-0.66-1.415-0.66c-0.525,0-0.968,0.176-1.324,0.527C483.994,130.667,483.797,131.136,483.758,131.724z"/>
		<path fill="#282828" d="M490.11,135.744v-6.742h1.029v1.021c0.262-0.477,0.504-0.793,0.727-0.945
			c0.223-0.152,0.467-0.229,0.732-0.229c0.386,0,0.776,0.123,1.175,0.369l-0.394,1.059c-0.279-0.164-0.56-0.246-0.839-0.246
			c-0.25,0-0.474,0.074-0.673,0.225c-0.199,0.151-0.341,0.359-0.425,0.625c-0.127,0.406-0.191,0.852-0.191,1.334v3.529H490.11z"/>
		<path fill="#282828" d="M498.071,127.751v-1.314h1.144v1.314H498.071z M498.071,135.744v-6.742h1.144v6.742H498.071z"/>
		<path fill="#282828" d="M500.954,135.744v-6.742h1.027v0.959c0.496-0.74,1.211-1.111,2.146-1.111c0.405,0,0.778,0.074,1.119,0.219
			c0.342,0.146,0.597,0.338,0.766,0.574c0.169,0.238,0.288,0.52,0.354,0.846c0.042,0.211,0.063,0.582,0.063,1.109v4.146h-1.144
			v-4.102c0-0.465-0.044-0.813-0.134-1.043c-0.088-0.232-0.246-0.416-0.473-0.553c-0.228-0.139-0.492-0.207-0.797-0.207
			c-0.486,0-0.906,0.154-1.261,0.463c-0.354,0.311-0.528,0.896-0.528,1.76v3.682H500.954z"/>
		<path fill="#282828" d="M508.456,135.744v-5.854h-1.01v-0.889h1.01v-0.717c0-0.453,0.04-0.789,0.121-1.01
			c0.109-0.297,0.304-0.535,0.58-0.721c0.277-0.184,0.666-0.275,1.165-0.275c0.321,0,0.677,0.037,1.066,0.113l-0.171,0.998
			c-0.237-0.043-0.462-0.064-0.674-0.064c-0.348,0-0.593,0.074-0.736,0.223c-0.145,0.148-0.215,0.426-0.215,0.832v0.621h1.312v0.889
			h-1.312v5.854H508.456z"/>
		<path fill="#282828" d="M511.37,132.373c0-1.248,0.348-2.174,1.041-2.773c0.58-0.5,1.286-0.75,2.12-0.75
			c0.927,0,1.686,0.305,2.272,0.912c0.588,0.605,0.883,1.445,0.883,2.516c0,0.867-0.131,1.551-0.391,2.047
			c-0.262,0.498-0.641,0.885-1.138,1.157c-0.497,0.275-1.04,0.414-1.628,0.414c-0.942,0-1.706-0.303-2.288-0.907
			C511.66,134.384,511.37,133.511,511.37,132.373z M512.545,132.373c0,0.863,0.188,1.51,0.564,1.939
			c0.377,0.429,0.852,0.645,1.422,0.645c0.567,0,1.039-0.217,1.415-0.648c0.377-0.432,0.565-1.09,0.565-1.975
			c0-0.832-0.189-1.465-0.568-1.895s-0.85-0.645-1.412-0.645c-0.57,0-1.045,0.215-1.422,0.643
			C512.732,130.863,512.545,131.509,512.545,132.373z"/>
		<path fill="#282828" d="M519.013,135.744v-6.742h1.026v1.021c0.264-0.477,0.506-0.793,0.729-0.945
			c0.222-0.152,0.466-0.229,0.732-0.229c0.386,0,0.776,0.123,1.175,0.369l-0.395,1.059c-0.278-0.164-0.559-0.246-0.838-0.246
			c-0.25,0-0.474,0.074-0.673,0.225c-0.199,0.151-0.341,0.359-0.426,0.625c-0.127,0.406-0.189,0.852-0.189,1.334v3.529H519.013z"/>
		<path fill="#282828" d="M523.354,135.744v-6.742h1.021v0.945c0.212-0.33,0.492-0.596,0.844-0.795
			c0.352-0.201,0.752-0.303,1.2-0.303c0.499,0,0.908,0.104,1.229,0.311c0.319,0.209,0.545,0.498,0.676,0.871
			c0.533-0.787,1.229-1.182,2.082-1.182c0.669,0,1.184,0.186,1.542,0.557c0.36,0.369,0.54,0.939,0.54,1.709v4.629h-1.136v-4.248
			c0-0.457-0.037-0.785-0.111-0.986c-0.074-0.201-0.209-0.363-0.402-0.486c-0.194-0.121-0.424-0.184-0.687-0.184
			c-0.474,0-0.867,0.158-1.181,0.473c-0.313,0.316-0.471,0.82-0.471,1.514v3.918h-1.143v-4.381c0-0.508-0.093-0.889-0.279-1.143
			c-0.186-0.254-0.49-0.381-0.914-0.381c-0.32,0-0.618,0.084-0.892,0.254c-0.273,0.17-0.471,0.418-0.594,0.742
			c-0.123,0.326-0.185,0.797-0.185,1.41v3.498H523.354z"/>
		<path fill="#282828" d="M538.582,134.912c-0.423,0.359-0.829,0.613-1.222,0.762c-0.392,0.149-0.812,0.223-1.26,0.223
			c-0.741,0-1.312-0.182-1.708-0.543c-0.397-0.36-0.597-0.823-0.597-1.387c0-0.33,0.074-0.633,0.226-0.904
			c0.15-0.273,0.347-0.492,0.59-0.658c0.243-0.164,0.519-0.289,0.822-0.375c0.225-0.059,0.562-0.115,1.016-0.17
			c0.923-0.111,1.603-0.242,2.038-0.395c0.004-0.156,0.006-0.256,0.006-0.299c0-0.465-0.106-0.793-0.323-0.982
			c-0.291-0.26-0.727-0.389-1.302-0.389c-0.537,0-0.935,0.096-1.189,0.283s-0.445,0.521-0.567,1l-1.117-0.152
			c0.103-0.479,0.27-0.865,0.501-1.158c0.232-0.295,0.569-0.521,1.01-0.68c0.439-0.158,0.949-0.238,1.529-0.238
			c0.575,0,1.043,0.068,1.403,0.203c0.359,0.135,0.624,0.307,0.793,0.512s0.288,0.465,0.355,0.777
			c0.038,0.195,0.057,0.545,0.057,1.053v1.523c0,1.062,0.024,1.734,0.073,2.016c0.049,0.282,0.146,0.551,0.289,0.812h-1.193
			C538.692,135.505,538.616,135.229,538.582,134.912z M538.487,132.359c-0.415,0.17-1.037,0.314-1.867,0.432
			c-0.469,0.068-0.802,0.145-0.996,0.229c-0.193,0.086-0.345,0.209-0.45,0.373c-0.105,0.162-0.158,0.343-0.158,0.541
			c0,0.306,0.115,0.56,0.346,0.762c0.231,0.203,0.568,0.306,1.013,0.306c0.44,0,0.831-0.096,1.176-0.287
			c0.342-0.192,0.594-0.457,0.755-0.791c0.123-0.258,0.185-0.639,0.185-1.143v-0.421H538.487z"/>
		<path fill="#282828" d="M543.907,134.72l0.165,1.011c-0.321,0.067-0.608,0.102-0.862,0.102c-0.415,0-0.736-0.064-0.966-0.197
			c-0.229-0.131-0.39-0.303-0.481-0.516c-0.094-0.215-0.141-0.664-0.141-1.35v-3.879h-0.838v-0.889h0.838v-1.67l1.138-0.686V129
			h1.147v0.889h-1.147v3.941c0,0.326,0.02,0.535,0.06,0.629s0.106,0.168,0.197,0.223s0.221,0.082,0.39,0.082
			C543.532,134.766,543.7,134.751,543.907,134.72z"/>
		<path fill="#282828" d="M545.031,127.751v-1.314h1.144v1.314H545.031z M545.031,135.744v-6.742h1.144v6.742H545.031z"/>
		<path fill="#282828" d="M547.487,132.373c0-1.248,0.348-2.174,1.041-2.773c0.58-0.5,1.286-0.75,2.12-0.75
			c0.927,0,1.685,0.305,2.272,0.912c0.588,0.605,0.883,1.445,0.883,2.516c0,0.867-0.131,1.551-0.392,2.047
			c-0.261,0.498-0.64,0.885-1.137,1.157c-0.497,0.275-1.04,0.414-1.628,0.414c-0.943,0-1.706-0.303-2.288-0.907
			C547.777,134.384,547.487,133.511,547.487,132.373z M548.661,132.373c0,0.863,0.188,1.51,0.565,1.939
			c0.377,0.429,0.851,0.645,1.422,0.645c0.567,0,1.039-0.217,1.415-0.648c0.377-0.432,0.565-1.09,0.565-1.975
			c0-0.832-0.189-1.465-0.568-1.895s-0.85-0.645-1.412-0.645c-0.571,0-1.045,0.215-1.422,0.643
			C548.85,130.863,548.661,131.509,548.661,132.373z"/>
		<path fill="#282828" d="M555.144,135.744v-6.742h1.027v0.959c0.495-0.74,1.211-1.111,2.146-1.111c0.406,0,0.779,0.074,1.12,0.219
			c0.341,0.146,0.596,0.338,0.765,0.574c0.169,0.238,0.288,0.52,0.355,0.846c0.042,0.211,0.062,0.582,0.062,1.109v4.146h-1.143
			v-4.102c0-0.465-0.044-0.813-0.134-1.043c-0.088-0.232-0.246-0.416-0.474-0.553c-0.227-0.139-0.492-0.207-0.797-0.207
			c-0.486,0-0.906,0.154-1.26,0.463c-0.354,0.311-0.529,0.896-0.529,1.76v3.682H555.144z"/>
	</g>
	<g>
		<path fill="#282828" d="M442.056,211.835v-8.209h-3.065v-1.099h7.376v1.099h-3.078v8.209H442.056z"/>
		<path fill="#282828" d="M447.483,211.835v-9.308h1.144v3.341c0.532-0.619,1.204-0.929,2.018-0.929c0.5,0,0.934,0.101,1.302,0.295
			c0.368,0.197,0.632,0.47,0.79,0.816c0.159,0.348,0.238,0.85,0.238,1.51v4.273h-1.144v-4.273c0-0.569-0.123-0.985-0.37-1.246
			c-0.248-0.26-0.599-0.391-1.052-0.391c-0.339,0-0.656,0.088-0.955,0.264c-0.299,0.177-0.512,0.414-0.639,0.713
			c-0.127,0.302-0.188,0.718-0.188,1.244v3.689L447.483,211.835L447.483,211.835z"/>
		<path fill="#282828" d="M459.328,209.664l1.182,0.146c-0.188,0.688-0.531,1.225-1.035,1.604c-0.503,0.381-1.146,0.571-1.93,0.571
			c-0.985,0-1.769-0.305-2.346-0.911c-0.578-0.607-0.866-1.459-0.866-2.556c0-1.135,0.291-2.014,0.875-2.641
			c0.585-0.627,1.343-0.939,2.273-0.939c0.9,0,1.637,0.308,2.209,0.92c0.57,0.615,0.856,1.479,0.856,2.591
			c0,0.067-0.002,0.17-0.008,0.305h-5.026c0.043,0.742,0.252,1.31,0.629,1.701c0.377,0.396,0.847,0.592,1.409,0.592
			c0.419,0,0.775-0.11,1.072-0.33C458.921,210.498,459.154,210.146,459.328,209.664z M455.577,207.816h3.765
			c-0.052-0.566-0.194-0.992-0.433-1.275c-0.363-0.439-0.836-0.66-1.416-0.66c-0.523,0-0.966,0.176-1.322,0.527
			C455.813,206.759,455.614,207.229,455.577,207.816z"/>
		<path fill="#282828" d="M465.828,211.835v-5.854h-1.009v-0.889h1.009v-0.717c0-0.453,0.04-0.789,0.12-1.01
			c0.11-0.297,0.305-0.535,0.581-0.721c0.277-0.185,0.666-0.275,1.165-0.275c0.321,0,0.677,0.037,1.066,0.113l-0.172,0.998
			c-0.236-0.043-0.461-0.064-0.672-0.064c-0.349,0-0.594,0.074-0.736,0.223c-0.146,0.148-0.217,0.426-0.217,0.832v0.621h1.313v0.889
			h-1.313v5.854H465.828L465.828,211.835z"/>
		<path fill="#282828" d="M469.174,203.843v-1.313h1.143v1.313H469.174z M469.174,211.835v-6.742h1.143v6.742H469.174z"/>
		<path fill="#282828" d="M472.042,211.835v-6.742h1.029v1.021c0.262-0.478,0.504-0.794,0.728-0.945
			c0.222-0.151,0.467-0.229,0.731-0.229c0.386,0,0.777,0.123,1.175,0.369l-0.394,1.06c-0.279-0.164-0.559-0.246-0.838-0.246
			c-0.25,0-0.475,0.073-0.673,0.226c-0.199,0.15-0.342,0.358-0.426,0.625c-0.127,0.405-0.19,0.852-0.19,1.334v3.528H472.042z"/>
		<path fill="#282828" d="M475.927,209.822l1.131-0.178c0.062,0.453,0.239,0.801,0.529,1.041c0.29,0.241,0.694,0.362,1.216,0.362
			c0.523,0,0.914-0.106,1.168-0.319c0.254-0.215,0.381-0.465,0.381-0.754c0-0.259-0.112-0.461-0.337-0.609
			c-0.156-0.102-0.545-0.23-1.168-0.387c-0.838-0.211-1.418-0.396-1.742-0.549c-0.323-0.154-0.569-0.367-0.736-0.642
			s-0.25-0.574-0.25-0.904c0-0.301,0.068-0.579,0.206-0.836c0.139-0.256,0.324-0.469,0.562-0.637
			c0.178-0.134,0.42-0.242,0.727-0.334c0.308-0.093,0.637-0.138,0.987-0.138c0.529,0,0.993,0.076,1.394,0.229
			c0.399,0.152,0.695,0.358,0.886,0.619c0.19,0.26,0.321,0.606,0.395,1.045l-1.117,0.151c-0.051-0.348-0.197-0.618-0.44-0.812
			c-0.243-0.195-0.588-0.293-1.031-0.293c-0.525,0-0.899,0.088-1.124,0.26c-0.225,0.174-0.337,0.377-0.337,0.609
			c0,0.148,0.047,0.281,0.141,0.4c0.094,0.123,0.238,0.225,0.438,0.305c0.114,0.043,0.451,0.141,1.01,0.293
			c0.808,0.215,1.372,0.393,1.691,0.529c0.318,0.136,0.569,0.338,0.752,0.6c0.182,0.262,0.272,0.588,0.272,0.979
			c0,0.381-0.11,0.738-0.334,1.076c-0.222,0.336-0.543,0.596-0.961,0.779c-0.42,0.186-0.894,0.277-1.422,0.277
			c-0.877,0-1.544-0.185-2.003-0.547C476.351,211.076,476.054,210.539,475.927,209.822z"/>
		<path fill="#282828" d="M485.38,210.812l0.165,1.01c-0.321,0.068-0.609,0.102-0.863,0.102c-0.415,0-0.736-0.064-0.965-0.197
			c-0.229-0.131-0.391-0.303-0.482-0.516c-0.093-0.215-0.14-0.664-0.14-1.35v-3.879h-0.838v-0.89h0.838v-1.67l1.136-0.687v2.355
			h1.149v0.889h-1.149v3.941c0,0.326,0.021,0.535,0.061,0.629s0.106,0.168,0.197,0.223c0.091,0.056,0.222,0.082,0.392,0.082
			C485.006,210.857,485.173,210.843,485.38,210.812z"/>
		<path fill="#282828" d="M489.651,209.822l1.129-0.178c0.064,0.453,0.24,0.801,0.53,1.041c0.29,0.241,0.695,0.362,1.216,0.362
			c0.524,0,0.914-0.106,1.168-0.319c0.254-0.215,0.381-0.465,0.381-0.754c0-0.259-0.111-0.461-0.336-0.609
			c-0.157-0.102-0.547-0.23-1.168-0.387c-0.838-0.211-1.419-0.396-1.743-0.549c-0.322-0.154-0.568-0.367-0.735-0.642
			s-0.251-0.574-0.251-0.904c0-0.301,0.068-0.579,0.207-0.836c0.138-0.256,0.323-0.469,0.562-0.637
			c0.178-0.134,0.42-0.242,0.728-0.334c0.307-0.093,0.636-0.138,0.986-0.138c0.529,0,0.993,0.076,1.395,0.229
			c0.398,0.152,0.693,0.358,0.886,0.619c0.189,0.26,0.321,0.606,0.393,1.045l-1.116,0.151c-0.052-0.348-0.197-0.618-0.44-0.812
			c-0.243-0.195-0.587-0.293-1.032-0.293c-0.523,0-0.897,0.088-1.123,0.26c-0.225,0.174-0.336,0.377-0.336,0.609
			c0,0.148,0.046,0.281,0.14,0.4c0.094,0.123,0.238,0.225,0.438,0.305c0.114,0.043,0.45,0.141,1.009,0.293
			c0.81,0.215,1.373,0.393,1.692,0.529c0.319,0.136,0.57,0.338,0.752,0.6s0.272,0.588,0.272,0.979c0,0.381-0.11,0.738-0.333,1.076
			c-0.223,0.336-0.542,0.596-0.963,0.779c-0.418,0.186-0.893,0.277-1.422,0.277c-0.875,0-1.543-0.185-2.002-0.547
			C490.073,211.076,489.778,210.539,489.651,209.822z"/>
		<path fill="#282828" d="M499.103,210.812l0.165,1.01c-0.321,0.068-0.609,0.102-0.863,0.102c-0.415,0-0.735-0.064-0.965-0.197
			c-0.229-0.131-0.39-0.303-0.482-0.516c-0.093-0.215-0.14-0.664-0.14-1.35v-3.879h-0.838v-0.89h0.838v-1.67l1.137-0.687v2.355
			h1.148v0.889h-1.148v3.941c0,0.326,0.021,0.535,0.061,0.629s0.105,0.168,0.197,0.223c0.091,0.056,0.221,0.082,0.39,0.082
			C498.728,210.857,498.896,210.843,499.103,210.812z"/>
		<path fill="#282828" d="M504.835,209.664l1.181,0.146c-0.188,0.688-0.531,1.225-1.035,1.604c-0.503,0.381-1.146,0.571-1.93,0.571
			c-0.985,0-1.769-0.305-2.346-0.911c-0.577-0.607-0.865-1.459-0.865-2.556c0-1.135,0.291-2.014,0.875-2.641
			s1.342-0.939,2.272-0.939c0.9,0,1.637,0.308,2.209,0.92c0.57,0.615,0.856,1.479,0.856,2.591c0,0.067-0.002,0.17-0.007,0.305
			h-5.027c0.043,0.742,0.252,1.31,0.629,1.701c0.377,0.396,0.847,0.592,1.409,0.592c0.419,0,0.776-0.11,1.073-0.33
			S504.66,210.146,504.835,209.664z M501.083,207.816h3.765c-0.051-0.566-0.194-0.992-0.433-1.275
			c-0.363-0.439-0.836-0.66-1.416-0.66c-0.523,0-0.966,0.176-1.322,0.527C501.319,206.759,501.12,207.229,501.083,207.816z"/>
		<path fill="#282828" d="M507.45,214.417v-9.324h1.041v0.877c0.245-0.344,0.522-0.6,0.831-0.771
			c0.31-0.172,0.685-0.258,1.124-0.258c0.575,0,1.083,0.147,1.523,0.444c0.438,0.296,0.771,0.714,0.996,1.255
			c0.225,0.539,0.336,1.131,0.336,1.772c0,0.688-0.123,1.312-0.371,1.862c-0.247,0.554-0.607,0.976-1.079,1.271
			c-0.472,0.293-0.968,0.44-1.488,0.44c-0.381,0-0.723-0.081-1.024-0.241c-0.303-0.16-0.552-0.363-0.745-0.609v3.281H507.45z
			 M508.484,208.501c0,0.869,0.176,1.51,0.526,1.924c0.352,0.414,0.776,0.623,1.275,0.623c0.509,0,0.942-0.215,1.306-0.646
			c0.36-0.43,0.542-1.096,0.542-1.995c0-0.859-0.177-1.505-0.529-1.931c-0.354-0.428-0.775-0.643-1.267-0.643
			c-0.486,0-0.917,0.229-1.292,0.684C508.673,206.975,508.484,207.634,508.484,208.501z"/>
		<path fill="#282828" d="M518.299,203.843v-1.313h1.143v1.313H518.299z M518.299,211.835v-6.742h1.143v6.742H518.299z"/>
		<path fill="#282828" d="M521.181,211.835v-6.742h1.026v0.959c0.496-0.739,1.212-1.11,2.146-1.11c0.406,0,0.779,0.074,1.12,0.219
			c0.341,0.146,0.596,0.338,0.765,0.574c0.169,0.238,0.288,0.52,0.355,0.846c0.042,0.211,0.062,0.582,0.062,1.109v4.146h-1.143
			v-4.103c0-0.465-0.044-0.812-0.134-1.043c-0.089-0.231-0.246-0.416-0.474-0.553c-0.227-0.139-0.492-0.207-0.797-0.207
			c-0.486,0-0.906,0.154-1.26,0.463c-0.354,0.312-0.529,0.896-0.529,1.76v3.683H521.181L521.181,211.835z"/>
		<path fill="#282828" d="M532.022,211.835v-6.742h1.021v0.945c0.212-0.33,0.492-0.597,0.844-0.795
			c0.352-0.201,0.752-0.304,1.2-0.304c0.499,0,0.908,0.104,1.229,0.312c0.319,0.209,0.545,0.498,0.676,0.871
			c0.533-0.787,1.229-1.183,2.082-1.183c0.669,0,1.184,0.187,1.542,0.558c0.36,0.369,0.54,0.938,0.54,1.709v4.629h-1.136v-4.248
			c0-0.457-0.037-0.785-0.111-0.985c-0.074-0.201-0.209-0.363-0.402-0.486c-0.194-0.121-0.424-0.184-0.687-0.184
			c-0.474,0-0.867,0.157-1.181,0.473c-0.313,0.316-0.471,0.82-0.471,1.514v3.918h-1.143v-4.381c0-0.508-0.093-0.889-0.279-1.143
			c-0.186-0.254-0.49-0.381-0.914-0.381c-0.32,0-0.618,0.084-0.892,0.254s-0.471,0.418-0.594,0.742
			c-0.123,0.325-0.185,0.797-0.185,1.409v3.498H532.022L532.022,211.835z"/>
		<path fill="#282828" d="M547.249,211.003c-0.423,0.358-0.829,0.613-1.222,0.763c-0.392,0.148-0.812,0.223-1.261,0.223
			c-0.74,0-1.311-0.182-1.707-0.543s-0.597-0.824-0.597-1.387c0-0.33,0.075-0.634,0.226-0.904c0.15-0.273,0.347-0.492,0.59-0.658
			c0.243-0.164,0.519-0.289,0.822-0.375c0.225-0.059,0.563-0.115,1.016-0.17c0.924-0.111,1.603-0.242,2.037-0.395
			c0.005-0.156,0.008-0.257,0.008-0.3c0-0.465-0.108-0.793-0.323-0.981c-0.293-0.26-0.728-0.39-1.302-0.39
			c-0.537,0-0.936,0.097-1.19,0.283s-0.445,0.521-0.568,1l-1.116-0.151c0.102-0.479,0.27-0.865,0.502-1.158
			c0.231-0.295,0.568-0.521,1.01-0.68c0.438-0.158,0.949-0.238,1.529-0.238c0.574,0,1.043,0.067,1.401,0.203
			c0.36,0.135,0.625,0.307,0.794,0.512s0.288,0.465,0.355,0.777c0.038,0.194,0.058,0.545,0.058,1.053v1.522
			c0,1.063,0.023,1.734,0.072,2.017c0.049,0.281,0.146,0.551,0.289,0.811h-1.193C547.359,211.598,547.283,211.32,547.249,211.003z
			 M547.153,208.451c-0.414,0.17-1.036,0.314-1.865,0.432c-0.471,0.068-0.803,0.145-0.996,0.229c-0.194,0.087-0.346,0.21-0.45,0.373
			c-0.106,0.162-0.159,0.345-0.159,0.541c0,0.306,0.115,0.56,0.346,0.763c0.231,0.203,0.568,0.305,1.014,0.305
			c0.439,0,0.831-0.096,1.174-0.286c0.344-0.193,0.595-0.457,0.756-0.791c0.123-0.259,0.184-0.64,0.184-1.144v-0.421H547.153z"/>
		<path fill="#282828" d="M550.088,211.835v-9.308h1.143v5.308l2.704-2.742h1.479l-2.578,2.502l2.839,4.24h-1.409l-2.229-3.446
			l-0.807,0.772v2.674H550.088L550.088,211.835z"/>
		<path fill="#282828" d="M556.588,203.843v-1.313h1.143v1.313H556.588z M556.588,211.835v-6.742h1.143v6.742H556.588z"/>
		<path fill="#282828" d="M559.47,211.835v-6.742h1.026v0.959c0.496-0.739,1.211-1.11,2.146-1.11c0.406,0,0.779,0.074,1.12,0.219
			c0.341,0.146,0.596,0.338,0.765,0.574c0.169,0.238,0.288,0.52,0.355,0.846c0.042,0.211,0.062,0.582,0.062,1.109v4.146h-1.143
			v-4.103c0-0.465-0.044-0.812-0.135-1.043c-0.088-0.231-0.245-0.416-0.473-0.553c-0.227-0.139-0.492-0.207-0.797-0.207
			c-0.486,0-0.906,0.154-1.26,0.463c-0.354,0.312-0.529,0.896-0.529,1.76v3.683H559.47L559.47,211.835z"/>
		<path fill="#282828" d="M566.489,212.395l1.111,0.164c0.046,0.344,0.175,0.592,0.387,0.75c0.283,0.211,0.671,0.315,1.162,0.315
			c0.528,0,0.938-0.104,1.225-0.315c0.288-0.214,0.482-0.509,0.584-0.89c0.061-0.233,0.088-0.724,0.082-1.467
			c-0.499,0.588-1.12,0.883-1.864,0.883c-0.929,0-1.646-0.336-2.152-1.004s-0.762-1.472-0.762-2.406c0-0.643,0.116-1.235,0.35-1.778
			c0.232-0.545,0.569-0.965,1.012-1.261c0.442-0.297,0.962-0.444,1.56-0.444c0.796,0,1.451,0.322,1.968,0.965v-0.813h1.054v5.828
			c0,1.049-0.105,1.793-0.319,2.229c-0.214,0.438-0.554,0.783-1.017,1.037c-0.464,0.254-1.033,0.381-1.711,0.381
			c-0.804,0-1.453-0.18-1.948-0.541C566.713,213.666,566.473,213.121,566.489,212.395z M567.435,208.343
			c0,0.886,0.176,1.529,0.527,1.937c0.351,0.406,0.791,0.609,1.319,0.609c0.524,0,0.965-0.201,1.32-0.605
			c0.354-0.404,0.533-1.037,0.533-1.9c0-0.826-0.184-1.447-0.549-1.867c-0.366-0.418-0.809-0.629-1.324-0.629
			c-0.508,0-0.939,0.207-1.295,0.619C567.612,206.919,567.435,207.531,567.435,208.343z"/>
		<path fill="#282828" d="M449.994,227.604c-0.423,0.358-0.83,0.612-1.222,0.762c-0.392,0.148-0.812,0.223-1.26,0.223
			c-0.741,0-1.312-0.182-1.708-0.543c-0.397-0.361-0.598-0.824-0.598-1.387c0-0.33,0.075-0.631,0.227-0.904s0.347-0.492,0.59-0.658
			c0.243-0.164,0.519-0.289,0.822-0.373c0.225-0.061,0.562-0.117,1.016-0.172c0.923-0.109,1.603-0.242,2.038-0.395
			c0.004-0.156,0.006-0.256,0.006-0.297c0-0.467-0.106-0.795-0.324-0.984c-0.291-0.258-0.726-0.387-1.301-0.387
			c-0.537,0-0.935,0.094-1.189,0.281c-0.256,0.188-0.445,0.521-0.567,1l-1.117-0.152c0.103-0.479,0.27-0.863,0.501-1.158
			c0.232-0.295,0.569-0.52,1.01-0.68c0.439-0.158,0.949-0.238,1.529-0.238c0.575,0,1.043,0.068,1.403,0.203
			c0.359,0.137,0.624,0.307,0.793,0.512s0.288,0.465,0.354,0.777c0.038,0.195,0.058,0.547,0.058,1.055v1.523
			c0,1.061,0.023,1.731,0.073,2.016c0.049,0.281,0.146,0.551,0.289,0.809h-1.193C450.104,228.199,450.028,227.921,449.994,227.604z
			 M449.899,225.052c-0.415,0.168-1.037,0.313-1.867,0.433c-0.469,0.065-0.802,0.143-0.996,0.229
			c-0.193,0.084-0.345,0.207-0.45,0.371c-0.105,0.162-0.158,0.344-0.158,0.543c0,0.305,0.114,0.559,0.346,0.762
			s0.568,0.305,1.013,0.305c0.44,0,0.831-0.098,1.176-0.288c0.342-0.193,0.594-0.457,0.755-0.791
			c0.123-0.259,0.185-0.64,0.185-1.144v-0.419H449.899z"/>
		<path fill="#282828" d="M456.437,231.02v-9.326h1.041v0.877c0.246-0.344,0.523-0.601,0.832-0.771s0.684-0.258,1.123-0.258
			c0.576,0,1.084,0.148,1.522,0.445c0.44,0.297,0.772,0.715,0.997,1.254c0.226,0.539,0.337,1.131,0.337,1.773
			c0,0.688-0.123,1.311-0.371,1.862c-0.247,0.554-0.607,0.976-1.079,1.271c-0.473,0.295-0.969,0.44-1.488,0.44
			c-0.381,0-0.723-0.08-1.025-0.242c-0.303-0.159-0.551-0.362-0.746-0.608v3.283H456.437L456.437,231.02z M457.472,225.104
			c0,0.866,0.176,1.508,0.526,1.922c0.352,0.416,0.776,0.623,1.275,0.623c0.508,0,0.942-0.215,1.305-0.646
			c0.361-0.43,0.543-1.096,0.543-1.996c0-0.858-0.177-1.502-0.529-1.93c-0.354-0.429-0.775-0.642-1.268-0.642
			c-0.485,0-0.917,0.228-1.292,0.683C457.659,223.574,457.472,224.234,457.472,225.104z"/>
		<path fill="#282828" d="M463.653,228.436v-6.742h1.029v1.022c0.262-0.479,0.504-0.795,0.727-0.946
			c0.223-0.152,0.468-0.229,0.732-0.229c0.386,0,0.777,0.123,1.175,0.369l-0.394,1.061c-0.279-0.166-0.56-0.247-0.839-0.247
			c-0.25,0-0.474,0.073-0.673,0.225c-0.198,0.15-0.341,0.359-0.425,0.625c-0.127,0.406-0.19,0.852-0.19,1.334v3.529H463.653z"/>
		<path fill="#282828" d="M467.571,225.064c0-1.248,0.348-2.172,1.041-2.773c0.58-0.5,1.286-0.75,2.12-0.75
			c0.927,0,1.685,0.305,2.272,0.912c0.587,0.607,0.883,1.445,0.883,2.516c0,0.869-0.131,1.551-0.392,2.049
			c-0.261,0.496-0.64,0.883-1.137,1.158c-0.497,0.273-1.04,0.412-1.628,0.412c-0.943,0-1.706-0.303-2.288-0.908
			C467.861,227.075,467.571,226.203,467.571,225.064z M468.745,225.064c0,0.862,0.188,1.51,0.565,1.938s0.851,0.646,1.422,0.646
			c0.567,0,1.039-0.217,1.415-0.648c0.377-0.432,0.565-1.09,0.565-1.973c0-0.834-0.189-1.467-0.568-1.896
			c-0.379-0.43-0.85-0.646-1.412-0.646c-0.571,0-1.045,0.214-1.422,0.642C468.933,223.557,468.745,224.201,468.745,225.064z"/>
		<path fill="#282828" d="M483.711,226.264l1.181,0.146c-0.187,0.688-0.531,1.225-1.034,1.604c-0.504,0.381-1.146,0.572-1.93,0.572
			c-0.986,0-1.77-0.305-2.346-0.91c-0.578-0.607-0.867-1.459-0.867-2.557c0-1.133,0.293-2.014,0.877-2.641
			c0.584-0.625,1.341-0.939,2.271-0.939c0.902,0,1.64,0.307,2.209,0.922c0.572,0.613,0.857,1.477,0.857,2.59
			c0,0.066-0.002,0.168-0.006,0.305h-5.027c0.042,0.74,0.251,1.308,0.628,1.701s0.847,0.59,1.409,0.59
			c0.419,0,0.776-0.108,1.072-0.33C483.302,227.098,483.536,226.746,483.711,226.264z M479.959,224.417h3.765
			c-0.051-0.567-0.194-0.992-0.432-1.276c-0.364-0.439-0.836-0.66-1.415-0.66c-0.525,0-0.968,0.176-1.324,0.526
			C480.195,223.357,479.998,223.828,479.959,224.417z"/>
		<path fill="#282828" d="M490.723,225.966l1.123,0.146c-0.122,0.774-0.438,1.381-0.942,1.82c-0.506,0.438-1.126,0.655-1.861,0.655
			c-0.923,0-1.665-0.301-2.227-0.903c-0.561-0.604-0.841-1.47-0.841-2.595c0-0.729,0.121-1.364,0.361-1.909
			c0.242-0.548,0.607-0.955,1.102-1.229s1.029-0.41,1.609-0.41c0.731,0,1.331,0.187,1.797,0.558
			c0.465,0.368,0.764,0.896,0.895,1.575l-1.11,0.173c-0.105-0.453-0.293-0.794-0.562-1.021c-0.269-0.229-0.593-0.344-0.974-0.344
			c-0.576,0-1.044,0.207-1.403,0.619c-0.358,0.414-0.54,1.065-0.54,1.959c0,0.905,0.174,1.562,0.521,1.975
			c0.347,0.41,0.799,0.615,1.356,0.615c0.449,0,0.823-0.14,1.124-0.412C490.454,226.96,490.643,226.537,490.723,225.966z"/>
		<path fill="#282828" d="M495.319,227.414l0.165,1.008c-0.32,0.068-0.608,0.102-0.862,0.102c-0.415,0-0.736-0.063-0.966-0.194
			c-0.229-0.134-0.39-0.306-0.481-0.519c-0.093-0.215-0.141-0.664-0.141-1.35v-3.879h-0.838v-0.889h0.838v-1.668l1.138-0.687v2.354
			h1.147v0.889h-1.147v3.943c0,0.324,0.02,0.535,0.06,0.627c0.04,0.094,0.106,0.168,0.197,0.223s0.221,0.082,0.39,0.082
			C494.944,227.457,495.112,227.443,495.319,227.414z"/>
		<path fill="#282828" d="M501.687,220.443v-1.314h1.143v1.314H501.687z M501.687,228.436v-6.742h1.143v6.742H501.687z"/>
		<path fill="#282828" d="M504.11,226.423l1.131-0.178c0.063,0.451,0.239,0.799,0.529,1.041c0.29,0.239,0.695,0.36,1.216,0.36
			c0.524,0,0.914-0.106,1.168-0.319c0.254-0.216,0.381-0.466,0.381-0.752c0-0.261-0.111-0.464-0.337-0.609
			c-0.156-0.102-0.545-0.229-1.168-0.389c-0.838-0.211-1.418-0.396-1.742-0.55c-0.322-0.153-0.568-0.366-0.735-0.641
			c-0.167-0.273-0.25-0.574-0.25-0.904c0-0.301,0.067-0.578,0.206-0.834c0.138-0.258,0.323-0.469,0.562-0.639
			c0.178-0.131,0.42-0.242,0.728-0.334c0.307-0.09,0.636-0.137,0.986-0.137c0.529,0,0.993,0.076,1.395,0.229
			c0.398,0.152,0.694,0.359,0.885,0.619c0.191,0.262,0.322,0.609,0.395,1.045l-1.116,0.152c-0.052-0.348-0.198-0.617-0.441-0.812
			c-0.243-0.196-0.588-0.293-1.031-0.293c-0.524,0-0.898,0.088-1.124,0.262c-0.225,0.172-0.337,0.375-0.337,0.609
			c0,0.146,0.047,0.28,0.142,0.397c0.093,0.123,0.237,0.226,0.438,0.305c0.114,0.043,0.451,0.142,1.01,0.293
			c0.809,0.216,1.372,0.394,1.691,0.529c0.319,0.139,0.57,0.338,0.752,0.601c0.182,0.264,0.273,0.59,0.273,0.979
			c0,0.381-0.111,0.74-0.334,1.076s-0.543,0.596-0.961,0.781c-0.421,0.184-0.895,0.274-1.423,0.274
			c-0.877,0-1.544-0.183-2.003-0.547C504.531,227.677,504.237,227.139,504.11,226.423z"/>
		<path fill="#282828" d="M519.079,225.966l1.123,0.146c-0.122,0.774-0.437,1.381-0.941,1.82c-0.506,0.438-1.126,0.655-1.862,0.655
			c-0.923,0-1.665-0.301-2.226-0.903c-0.562-0.604-0.842-1.47-0.842-2.595c0-0.729,0.121-1.364,0.361-1.909
			c0.242-0.548,0.608-0.955,1.102-1.229c0.494-0.274,1.029-0.41,1.609-0.41c0.732,0,1.331,0.187,1.797,0.558
			c0.465,0.368,0.765,0.896,0.896,1.575l-1.111,0.173c-0.104-0.453-0.293-0.794-0.562-1.021c-0.27-0.229-0.594-0.344-0.975-0.344
			c-0.576,0-1.044,0.207-1.402,0.619c-0.359,0.414-0.54,1.065-0.54,1.959c0,0.905,0.174,1.562,0.521,1.975
			c0.347,0.41,0.799,0.615,1.357,0.615c0.448,0,0.822-0.14,1.124-0.412C518.809,226.96,518.999,226.537,519.079,225.966z"/>
		<path fill="#282828" d="M520.756,225.064c0-1.248,0.347-2.172,1.041-2.773c0.58-0.5,1.286-0.75,2.12-0.75
			c0.927,0,1.685,0.305,2.271,0.912s0.883,1.445,0.883,2.516c0,0.869-0.131,1.551-0.391,2.049c-0.261,0.496-0.641,0.883-1.137,1.158
			c-0.497,0.273-1.04,0.412-1.629,0.412c-0.942,0-1.705-0.303-2.287-0.908C521.046,227.075,520.756,226.203,520.756,225.064z
			 M521.929,225.064c0,0.862,0.188,1.51,0.564,1.938s0.852,0.646,1.423,0.646c0.566,0,1.038-0.217,1.414-0.648
			c0.377-0.432,0.565-1.09,0.565-1.973c0-0.834-0.189-1.467-0.568-1.896c-0.379-0.43-0.85-0.646-1.411-0.646
			c-0.571,0-1.046,0.214-1.423,0.642C522.117,223.557,521.929,224.201,521.929,225.064z"/>
		<path fill="#282828" d="M528.385,228.436v-9.308h1.143v9.308H528.385z"/>
		<path fill="#282828" d="M531.272,228.436v-9.308h1.143v9.308H531.272z"/>
		<path fill="#282828" d="M538.802,226.264l1.181,0.146c-0.187,0.688-0.531,1.225-1.035,1.604c-0.503,0.381-1.146,0.572-1.93,0.572
			c-0.985,0-1.768-0.305-2.345-0.91c-0.578-0.607-0.866-1.459-0.866-2.557c0-1.133,0.291-2.014,0.875-2.641
			c0.584-0.625,1.342-0.939,2.272-0.939c0.9,0,1.638,0.307,2.209,0.922c0.57,0.613,0.856,1.477,0.856,2.59
			c0,0.066-0.002,0.168-0.007,0.305h-5.027c0.043,0.74,0.252,1.308,0.629,1.701s0.848,0.59,1.409,0.59
			c0.419,0,0.776-0.108,1.073-0.33C538.393,227.098,538.628,226.746,538.802,226.264z M535.051,224.417h3.764
			c-0.051-0.567-0.194-0.992-0.432-1.276c-0.364-0.439-0.836-0.66-1.416-0.66c-0.524,0-0.967,0.176-1.323,0.526
			C535.286,223.357,535.088,223.828,535.051,224.417z"/>
		<path fill="#282828" d="M545.815,225.966l1.123,0.146c-0.122,0.774-0.438,1.381-0.942,1.82c-0.506,0.438-1.126,0.655-1.861,0.655
			c-0.923,0-1.665-0.301-2.227-0.903c-0.561-0.604-0.841-1.47-0.841-2.595c0-0.729,0.121-1.364,0.361-1.909
			c0.242-0.548,0.607-0.955,1.102-1.229s1.029-0.41,1.609-0.41c0.731,0,1.331,0.187,1.797,0.558
			c0.465,0.368,0.764,0.896,0.895,1.575l-1.11,0.173c-0.105-0.453-0.293-0.794-0.562-1.021c-0.269-0.229-0.593-0.344-0.974-0.344
			c-0.576,0-1.044,0.207-1.403,0.619c-0.358,0.414-0.54,1.065-0.54,1.959c0,0.905,0.174,1.562,0.521,1.975
			c0.347,0.41,0.799,0.615,1.356,0.615c0.449,0,0.823-0.14,1.124-0.412C545.546,226.96,545.735,226.537,545.815,225.966z"/>
		<path fill="#282828" d="M550.411,227.414l0.165,1.008c-0.32,0.068-0.608,0.102-0.862,0.102c-0.415,0-0.736-0.063-0.966-0.194
			c-0.229-0.134-0.39-0.306-0.481-0.519c-0.093-0.215-0.141-0.664-0.141-1.35v-3.879h-0.838v-0.889h0.838v-1.668l1.138-0.687v2.354
			h1.147v0.889h-1.147v3.943c0,0.324,0.02,0.535,0.06,0.627c0.04,0.094,0.106,0.168,0.197,0.223s0.221,0.082,0.39,0.082
			C550.036,227.457,550.204,227.443,550.411,227.414z"/>
		<path fill="#282828" d="M551.534,220.443v-1.314h1.144v1.314H551.534z M551.534,228.436v-6.742h1.144v6.742H551.534z"/>
		<path fill="#282828" d="M554.417,228.436v-6.742h1.027v0.959c0.496-0.74,1.211-1.111,2.146-1.111c0.405,0,0.778,0.074,1.119,0.221
			c0.342,0.146,0.597,0.336,0.766,0.574c0.169,0.236,0.288,0.518,0.354,0.844c0.042,0.211,0.063,0.582,0.063,1.111v4.145h-1.144
			v-4.102c0-0.465-0.044-0.812-0.134-1.043c-0.088-0.23-0.246-0.416-0.473-0.553c-0.228-0.137-0.492-0.207-0.797-0.207
			c-0.486,0-0.906,0.154-1.26,0.465c-0.354,0.309-0.529,0.895-0.529,1.758v3.682H554.417L554.417,228.436z"/>
		<path fill="#282828" d="M561.437,228.994l1.111,0.164c0.046,0.344,0.175,0.594,0.387,0.75c0.283,0.211,0.671,0.316,1.162,0.316
			c0.528,0,0.937-0.105,1.225-0.316s0.482-0.508,0.584-0.889c0.061-0.232,0.087-0.724,0.082-1.468
			c-0.499,0.589-1.121,0.884-1.865,0.884c-0.928,0-1.645-0.334-2.151-1.004c-0.508-0.668-0.762-1.472-0.762-2.404
			c0-0.646,0.115-1.238,0.35-1.781c0.231-0.543,0.568-0.963,1.012-1.26s0.962-0.445,1.56-0.445c0.796,0,1.45,0.322,1.968,0.965
			v-0.812h1.054v5.828c0,1.049-0.105,1.793-0.319,2.229c-0.215,0.438-0.554,0.785-1.017,1.039c-0.464,0.254-1.034,0.381-1.711,0.381
			c-0.804,0-1.453-0.183-1.949-0.543C561.659,230.268,561.421,229.723,561.437,228.994z M562.383,224.943
			c0,0.885,0.176,1.531,0.526,1.938c0.352,0.407,0.791,0.609,1.32,0.609c0.524,0,0.965-0.203,1.32-0.607
			c0.354-0.404,0.533-1.037,0.533-1.9c0-0.825-0.184-1.446-0.55-1.866c-0.366-0.418-0.808-0.627-1.323-0.627
			c-0.509,0-0.939,0.204-1.295,0.618C562.56,223.52,562.383,224.13,562.383,224.943z"/>
		<path fill="#282828" d="M472.782,237.042v-1.313h1.144v1.313H472.782z M472.782,245.035v-6.74h1.144v6.74H472.782z"/>
		<path fill="#282828" d="M475.665,245.035v-6.74h1.027v0.957c0.496-0.74,1.211-1.109,2.146-1.109c0.405,0,0.778,0.072,1.119,0.219
			c0.342,0.147,0.597,0.339,0.766,0.574c0.169,0.236,0.288,0.519,0.354,0.845c0.042,0.211,0.063,0.581,0.063,1.11v4.146h-1.141
			v-4.101c0-0.467-0.045-0.813-0.135-1.045c-0.088-0.229-0.246-0.414-0.473-0.553c-0.227-0.137-0.492-0.205-0.797-0.205
			c-0.486,0-0.906,0.154-1.26,0.463c-0.354,0.309-0.529,0.896-0.529,1.758v3.683L475.665,245.035L475.665,245.035z"/>
		<path fill="#282828" d="M483.167,245.035v-5.852h-1.01v-0.89h1.01v-0.719c0-0.451,0.04-0.789,0.121-1.009
			c0.109-0.297,0.304-0.536,0.58-0.721c0.277-0.184,0.666-0.277,1.165-0.277c0.321,0,0.678,0.039,1.066,0.115l-0.171,0.996
			c-0.237-0.043-0.462-0.062-0.674-0.062c-0.348,0-0.593,0.074-0.736,0.221c-0.145,0.148-0.215,0.426-0.215,0.832v0.623h1.312v0.889
			h-1.312v5.853L483.167,245.035L483.167,245.035z"/>
		<path fill="#282828" d="M486.081,241.664c0-1.248,0.348-2.172,1.041-2.773c0.58-0.5,1.286-0.748,2.12-0.748
			c0.928,0,1.686,0.303,2.272,0.91s0.883,1.445,0.883,2.519c0,0.866-0.131,1.549-0.391,2.047c-0.262,0.496-0.641,0.883-1.138,1.157
			c-0.497,0.275-1.04,0.412-1.628,0.412c-0.942,0-1.706-0.303-2.288-0.907C486.372,243.675,486.081,242.802,486.081,241.664z
			 M487.256,241.664c0,0.863,0.188,1.51,0.564,1.939c0.377,0.429,0.852,0.645,1.422,0.645c0.567,0,1.039-0.215,1.415-0.646
			c0.377-0.432,0.565-1.09,0.565-1.975c0-0.834-0.189-1.465-0.568-1.895c-0.379-0.431-0.85-0.646-1.412-0.646
			c-0.57,0-1.045,0.213-1.422,0.642C487.443,240.156,487.256,240.8,487.256,241.664z"/>
		<path fill="#282828" d="M493.724,245.035v-6.74h1.027v1.021c0.263-0.479,0.505-0.793,0.728-0.945
			c0.222-0.152,0.466-0.229,0.733-0.229c0.385,0,0.775,0.121,1.174,0.366l-0.395,1.062c-0.278-0.166-0.559-0.248-0.838-0.248
			c-0.25,0-0.474,0.076-0.673,0.227c-0.199,0.148-0.341,0.357-0.426,0.625c-0.127,0.406-0.189,0.85-0.189,1.332v3.529H493.724z"/>
		<path fill="#282828" d="M498.065,245.035v-6.74h1.021v0.945c0.212-0.33,0.492-0.596,0.844-0.797s0.752-0.301,1.2-0.301
			c0.499,0,0.908,0.104,1.229,0.311s0.545,0.496,0.676,0.869c0.533-0.787,1.229-1.18,2.082-1.18c0.669,0,1.184,0.184,1.542,0.555
			c0.36,0.371,0.54,0.941,0.54,1.711v4.627h-1.136v-4.246c0-0.457-0.037-0.787-0.111-0.986c-0.073-0.201-0.209-0.363-0.402-0.486
			c-0.194-0.123-0.423-0.184-0.687-0.184c-0.474,0-0.867,0.156-1.181,0.473c-0.313,0.314-0.47,0.82-0.47,1.515v3.916h-1.144v-4.379
			c0-0.509-0.093-0.89-0.279-1.144c-0.186-0.254-0.49-0.381-0.913-0.381c-0.321,0-0.619,0.084-0.893,0.254
			c-0.272,0.168-0.471,0.416-0.594,0.742s-0.185,0.795-0.185,1.408v3.498H498.065z"/>
		<path fill="#282828" d="M513.294,244.203c-0.424,0.361-0.83,0.615-1.223,0.762c-0.392,0.148-0.812,0.223-1.26,0.223
			c-0.741,0-1.311-0.18-1.708-0.543c-0.397-0.36-0.597-0.824-0.597-1.387c0-0.33,0.074-0.631,0.226-0.904
			c0.151-0.272,0.347-0.492,0.59-0.655c0.243-0.166,0.519-0.291,0.822-0.375c0.225-0.06,0.563-0.117,1.016-0.173
			c0.923-0.108,1.603-0.239,2.038-0.393c0.004-0.158,0.006-0.256,0.006-0.299c0-0.465-0.106-0.793-0.323-0.984
			c-0.291-0.258-0.727-0.387-1.302-0.387c-0.536,0-0.935,0.094-1.189,0.283c-0.256,0.188-0.445,0.521-0.567,0.998l-1.116-0.152
			c0.102-0.477,0.269-0.863,0.501-1.158c0.231-0.293,0.568-0.52,1.009-0.678c0.439-0.16,0.95-0.238,1.529-0.238
			c0.575,0,1.043,0.066,1.403,0.203c0.359,0.135,0.624,0.305,0.793,0.51s0.288,0.466,0.355,0.777
			c0.038,0.195,0.057,0.547,0.057,1.055v1.523c0,1.062,0.024,1.734,0.073,2.016c0.049,0.282,0.146,0.551,0.289,0.81h-1.193
			C513.403,244.798,513.327,244.521,513.294,244.203z M513.198,241.652c-0.415,0.17-1.037,0.312-1.867,0.432
			c-0.469,0.068-0.802,0.145-0.995,0.229c-0.194,0.084-0.346,0.209-0.451,0.371s-0.158,0.344-0.158,0.543
			c0,0.306,0.115,0.56,0.346,0.763c0.231,0.202,0.568,0.305,1.014,0.305c0.439,0,0.831-0.096,1.175-0.289
			c0.342-0.192,0.594-0.455,0.755-0.791c0.123-0.258,0.185-0.639,0.185-1.144v-0.418H513.198z"/>
		<path fill="#282828" d="M518.618,244.014l0.165,1.01c-0.32,0.065-0.608,0.102-0.862,0.102c-0.415,0-0.736-0.066-0.966-0.197
			c-0.229-0.131-0.39-0.305-0.481-0.518s-0.141-0.664-0.141-1.35v-3.877h-0.838v-0.89h0.838v-1.67l1.138-0.687v2.355h1.147v0.889
			h-1.147v3.941c0,0.326,0.02,0.535,0.06,0.629c0.04,0.092,0.106,0.166,0.197,0.221c0.091,0.057,0.221,0.084,0.39,0.084
			C518.243,244.059,518.411,244.042,518.618,244.014z"/>
		<path fill="#282828" d="M519.742,237.042v-1.313h1.144v1.313H519.742z M519.742,245.035v-6.74h1.144v6.74H519.742z"/>
		<path fill="#282828" d="M522.198,241.664c0-1.248,0.348-2.172,1.041-2.773c0.58-0.5,1.286-0.748,2.12-0.748
			c0.927,0,1.686,0.303,2.272,0.91s0.883,1.445,0.883,2.519c0,0.866-0.131,1.549-0.392,2.047c-0.261,0.496-0.64,0.883-1.137,1.157
			c-0.497,0.275-1.04,0.412-1.628,0.412c-0.943,0-1.706-0.303-2.288-0.907C522.489,243.675,522.198,242.802,522.198,241.664z
			 M523.372,241.664c0,0.863,0.188,1.51,0.565,1.939c0.377,0.429,0.851,0.645,1.422,0.645c0.567,0,1.039-0.215,1.415-0.646
			c0.377-0.432,0.565-1.09,0.565-1.975c0-0.834-0.189-1.465-0.568-1.895c-0.379-0.431-0.85-0.646-1.412-0.646
			c-0.571,0-1.045,0.213-1.422,0.642C523.56,240.156,523.372,240.8,523.372,241.664z"/>
		<path fill="#282828" d="M529.854,245.035v-6.74h1.027v0.957c0.496-0.74,1.211-1.109,2.146-1.109c0.406,0,0.779,0.072,1.12,0.219
			c0.341,0.147,0.596,0.339,0.765,0.574c0.169,0.236,0.288,0.519,0.355,0.845c0.042,0.211,0.062,0.581,0.062,1.11v4.146h-1.143
			v-4.101c0-0.467-0.044-0.813-0.134-1.045c-0.088-0.229-0.246-0.414-0.474-0.553c-0.227-0.137-0.491-0.205-0.797-0.205
			c-0.485,0-0.905,0.154-1.26,0.463s-0.529,0.896-0.529,1.758v3.683L529.854,245.035L529.854,245.035z"/>
		<path fill="#282828" d="M537.408,245.035v-1.301h1.303v1.301H537.408z"/>
		<text transform="matrix(1 0 0 1 474.9255 228.4355)" font-family="'ArialMT'" font-size="13">j</text>
	</g>
</g>
</svg>
