<?xml version="1.0" encoding="utf-8"?>
<!-- Generator: Adobe Illustrator 16.0.0, SVG Export Plug-In . SVG Version: 6.00 Build 0)  -->
<!DOCTYPE svg PUBLIC "-//W3C//DTD SVG 1.1//EN" "http://www.w3.org/Graphics/SVG/1.1/DTD/svg11.dtd">
<svg version="1.1" id="Capa_1" xmlns="http://www.w3.org/2000/svg" xmlns:xlink="http://www.w3.org/1999/xlink" x="0px" y="0px"
	 width="581.313px" height="266.129px" viewBox="0 0 581.313 266.129" enable-background="new 0 0 581.313 266.129"
	 xml:space="preserve">
<g>
	
		<linearGradient id="SVGID_1_" gradientUnits="userSpaceOnUse" x1="77.4065" y1="169.5947" x2="77.4065" y2="93.0894" gradientTransform="matrix(1 0 0 -1 -0.02 265.2236)">
		<stop  offset="0" style="stop-color:#EC6421"/>
		<stop  offset="0.4099" style="stop-color:#EA6122"/>
		<stop  offset="0.6575" style="stop-color:#E45926"/>
		<stop  offset="0.8613" style="stop-color:#D94B2E"/>
		<stop  offset="1" style="stop-color:#CE3C35"/>
	</linearGradient>
	<path fill="url(#SVGID_1_)" stroke="#351C00" stroke-width="3" stroke-miterlimit="10" d="M153.273,160.135c0,6.627-5.373,12-12,12
		H13.5c-6.628,0-12-5.373-12-12v-52.506c0-6.627,5.372-12,12-12h127.773c6.627,0,12,5.373,12,12V160.135L153.273,160.135z"/>
	<path fill="#FFB666" stroke="#351C00" stroke-width="3" stroke-miterlimit="10" d="M366.317,66.006c0,6.627-5.373,12-12,12H226.544
		c-6.628,0-12-5.373-12-12V13.5c0-6.627,5.372-12,12-12h127.773c6.627,0,12,5.373,12,12V66.006L366.317,66.006z"/>
	<path fill="#E5E5E5" stroke="#351C00" stroke-width="3" stroke-miterlimit="10" d="M579.812,66.006c0,6.627-5.373,12-12,12H440.038
		c-6.628,0-12-5.373-12-12V13.5c0-6.627,5.372-12,12-12h127.773c6.627,0,12,5.373,12,12L579.812,66.006L579.812,66.006z"/>
	<path fill="#E5E5E5" stroke="#351C00" stroke-width="3" stroke-miterlimit="10" d="M579.812,159.254c0,6.627-5.373,12-12,12
		H440.038c-6.628,0-12-5.373-12-12v-52.506c0-6.627,5.372-12,12-12h127.773c6.627,0,12,5.373,12,12L579.812,159.254L579.812,159.254
		z"/>
	<path fill="#E5E5E5" stroke="#351C00" stroke-width="3" stroke-miterlimit="10" d="M579.812,252.629c0,6.627-5.373,12-12,12
		H440.038c-6.628,0-12-5.373-12-12v-52.506c0-6.627,5.372-12,12-12h127.773c6.627,0,12,5.373,12,12L579.812,252.629L579.812,252.629
		z"/>
	<path fill="#FFB666" stroke="#351C00" stroke-width="3" stroke-miterlimit="10" d="M366.317,160.135c0,6.627-5.373,12-12,12
		H226.544c-6.628,0-12-5.373-12-12v-52.506c0-6.627,5.372-12,12-12h127.773c6.627,0,12,5.373,12,12V160.135L366.317,160.135z"/>
	<path fill="#FFB666" stroke="#351C00" stroke-width="3" stroke-miterlimit="10" d="M366.317,252.629c0,6.627-5.373,12-12,12
		H226.544c-6.628,0-12-5.373-12-12v-52.506c0-6.627,5.372-12,12-12h127.773c6.627,0,12,5.373,12,12V252.629L366.317,252.629z"/>
	<line fill="none" stroke="#351C00" stroke-width="3" stroke-miterlimit="10" x1="152.808" y1="133" x2="214.544" y2="39.754"/>
	<line fill="none" stroke="#351C00" stroke-width="3" stroke-miterlimit="10" x1="152.808" y1="133" x2="214.063" y2="226.377"/>
	<line fill="none" stroke="#351C00" stroke-width="3" stroke-miterlimit="10" x1="366.317" y1="133" x2="428.038" y2="133"/>
	<line fill="none" stroke="#351C00" stroke-width="3" stroke-miterlimit="10" x1="152.808" y1="133" x2="214.528" y2="133"/>
	<line fill="none" stroke="#351C00" stroke-width="3" stroke-miterlimit="10" x1="366.317" y1="39.754" x2="428.038" y2="39.754"/>
	
		<line fill="none" stroke="#351C00" stroke-width="3" stroke-miterlimit="10" x1="366.317" y1="226.377" x2="428.038" y2="226.377"/>
	<g opacity="0.8" enable-background="new    ">
		<path d="M41.052,138.905v-12.885h3.894l2.338,8.789l2.312-8.789h3.902v12.885H51.08v-10.143l-2.558,10.143h-2.505l-2.549-10.143
			v10.143H41.052z"/>
		<path d="M55.492,134.106c0-0.82,0.202-1.614,0.606-2.382s0.977-1.354,1.718-1.758s1.569-0.606,2.483-0.606
			c1.412,0,2.569,0.459,3.472,1.375c0.902,0.918,1.354,2.076,1.354,3.477c0,1.412-0.456,2.583-1.367,3.512s-2.058,1.393-3.441,1.393
			c-0.855,0-1.671-0.193-2.448-0.58s-1.367-0.953-1.771-1.701C55.695,136.089,55.492,135.179,55.492,134.106z M58.024,134.238
			c0,0.926,0.22,1.635,0.659,2.127s0.981,0.738,1.626,0.738s1.185-0.246,1.622-0.738s0.655-1.207,0.655-2.145
			c0-0.914-0.218-1.617-0.655-2.109s-0.977-0.738-1.622-0.738s-1.187,0.246-1.626,0.738S58.024,133.313,58.024,134.238z"/>
		<path d="M75.198,132.331l-2.435,0.439c-0.082-0.486-0.268-0.853-0.558-1.099s-0.667-0.369-1.129-0.369
			c-0.615,0-1.106,0.213-1.472,0.638s-0.549,1.135-0.549,2.131c0,1.107,0.186,1.89,0.558,2.347s0.872,0.686,1.499,0.686
			c0.469,0,0.853-0.133,1.151-0.399s0.51-0.726,0.633-1.376l2.426,0.413c-0.252,1.113-0.735,1.954-1.45,2.522
			s-1.673,0.853-2.874,0.853c-1.365,0-2.454-0.431-3.265-1.292s-1.217-2.054-1.217-3.577c0-1.541,0.407-2.74,1.222-3.6
			c0.814-0.857,1.916-1.287,3.305-1.287c1.137,0,2.041,0.245,2.711,0.734S74.905,131.329,75.198,132.331z"/>
		<path d="M76.982,138.905v-12.885h2.47v6.838l2.892-3.287h3.041l-3.19,3.41l3.419,5.924h-2.663l-2.347-4.192l-1.151,1.204v2.988
			H76.982z"/>
		<path d="M93.224,138.905v-1.397c-0.34,0.498-0.787,0.891-1.34,1.178s-1.138,0.431-1.753,0.431c-0.627,0-1.189-0.138-1.688-0.413
			s-0.858-0.662-1.081-1.16s-0.334-1.187-0.334-2.065v-5.906h2.47v4.289c0,1.313,0.045,2.117,0.136,2.412
			c0.091,0.297,0.256,0.531,0.497,0.703c0.24,0.174,0.545,0.26,0.914,0.26c0.422,0,0.8-0.115,1.134-0.348
			c0.334-0.23,0.563-0.518,0.686-0.861c0.123-0.342,0.185-1.182,0.185-2.518v-3.938h2.47v9.334H93.224z"/>
		<path d="M98.005,129.571h2.303v1.371c0.299-0.469,0.703-0.85,1.213-1.143s1.075-0.439,1.696-0.439c1.084,0,2.004,0.425,2.76,1.274
			s1.134,2.033,1.134,3.551c0,1.559-0.381,2.771-1.143,3.634c-0.762,0.865-1.685,1.297-2.769,1.297
			c-0.516,0-0.983-0.103-1.402-0.308s-0.86-0.557-1.323-1.055v4.702h-2.47V129.571z M100.448,134.08
			c0,1.049,0.208,1.823,0.624,2.325c0.416,0.5,0.923,0.751,1.521,0.751c0.574,0,1.052-0.229,1.433-0.69
			c0.381-0.459,0.571-1.214,0.571-2.263c0-0.979-0.196-1.705-0.589-2.18s-0.879-0.712-1.459-0.712c-0.604,0-1.104,0.232-1.503,0.699
			C100.648,132.476,100.448,133.166,100.448,134.08z"/>
	</g>
	<g opacity="0.8" enable-background="new    ">
		<path d="M254.325,43.896V31.011h4.438c1.002,0,1.767,0.062,2.294,0.185c0.738,0.17,1.368,0.478,1.89,0.923
			c0.68,0.574,1.188,1.309,1.525,2.201c0.337,0.895,0.505,1.915,0.505,3.063c0,0.979-0.114,1.846-0.343,2.602
			s-0.521,1.382-0.879,1.876c-0.357,0.496-0.749,0.886-1.173,1.17s-0.938,0.499-1.538,0.646s-1.291,0.22-2.07,0.22H254.325z
			 M256.031,42.375h2.751c0.85,0,1.516-0.079,2-0.237s0.869-0.381,1.156-0.668c0.404-0.404,0.719-0.947,0.945-1.631
			c0.226-0.682,0.338-1.51,0.338-2.482c0-1.348-0.221-2.383-0.664-3.107c-0.442-0.723-0.98-1.208-1.613-1.454
			c-0.457-0.176-1.192-0.264-2.206-0.264h-2.707V42.375z"/>
		<path d="M273.512,40.89l1.635,0.202c-0.258,0.955-0.735,1.696-1.433,2.224s-1.588,0.791-2.672,0.791
			c-1.365,0-2.448-0.42-3.248-1.262c-0.8-0.84-1.2-2.02-1.2-3.537c0-1.57,0.404-2.789,1.213-3.656s1.857-1.301,3.146-1.301
			c1.248,0,2.268,0.425,3.059,1.274s1.187,2.045,1.187,3.586c0,0.094-0.003,0.234-0.009,0.422h-6.961
			c0.059,1.025,0.349,1.811,0.87,2.355s1.172,0.817,1.951,0.817c0.58,0,1.075-0.152,1.485-0.457S273.272,41.558,273.512,40.89z
			 M268.318,38.332h5.212c-0.07-0.785-0.27-1.374-0.598-1.767c-0.504-0.609-1.157-0.914-1.96-0.914
			c-0.727,0-1.337,0.243-1.833,0.729S268.37,37.518,268.318,38.332z"/>
		<path d="M277.511,43.896v-8.104h-1.397v-1.23h1.397v-0.993c0-0.627,0.056-1.093,0.167-1.397c0.152-0.41,0.42-0.742,0.804-0.998
			c0.384-0.254,0.921-0.382,1.613-0.382c0.445,0,0.938,0.053,1.477,0.158l-0.237,1.38c-0.328-0.059-0.639-0.088-0.932-0.088
			c-0.48,0-0.82,0.103-1.02,0.308s-0.299,0.589-0.299,1.151v0.861h1.819v1.23h-1.819v8.104H277.511z"/>
		<path d="M282.143,32.83v-1.819h1.582v1.819H282.143z M282.143,43.896v-9.334h1.582v9.334H282.143z"/>
		<path d="M286.133,43.896v-9.334h1.424v1.327c0.686-1.025,1.676-1.538,2.971-1.538c0.563,0,1.08,0.102,1.551,0.303
			c0.472,0.203,0.825,0.468,1.06,0.796s0.398,0.718,0.492,1.169c0.059,0.293,0.088,0.806,0.088,1.538v5.739h-1.582v-5.678
			c0-0.645-0.063-1.126-0.186-1.445s-0.341-0.574-0.654-0.766c-0.313-0.189-0.681-0.285-1.103-0.285
			c-0.674,0-1.255,0.214-1.745,0.642s-0.734,1.239-0.734,2.435v5.098H286.133z"/>
		<path d="M296.152,32.83v-1.819h1.582v1.819H296.152z M296.152,43.896v-9.334h1.582v9.334H296.152z"/>
		<path d="M303.597,42.48l0.229,1.397c-0.445,0.094-0.844,0.141-1.195,0.141c-0.574,0-1.02-0.091-1.336-0.272
			s-0.539-0.42-0.668-0.716s-0.193-0.919-0.193-1.868v-5.37h-1.16v-1.23h1.16V32.25l1.572-0.949v3.261h1.592v1.23h-1.592v5.458
			c0,0.451,0.028,0.741,0.084,0.87s0.146,0.231,0.272,0.308s0.306,0.114,0.54,0.114C303.078,42.542,303.31,42.521,303.597,42.48z"/>
		<path d="M305.152,32.83v-1.819h1.582v1.819H305.152z M305.152,43.896v-9.334h1.582v9.334H305.152z"/>
		<path d="M308.554,39.229c0-1.729,0.48-3.009,1.441-3.841c0.803-0.691,1.781-1.037,2.936-1.037c1.283,0,2.332,0.421,3.146,1.262
			s1.221,2.002,1.221,3.484c0,1.201-0.18,2.146-0.54,2.834c-0.36,0.689-0.885,1.224-1.573,1.604s-1.439,0.571-2.254,0.571
			c-1.307,0-2.363-0.419-3.169-1.257S308.554,40.805,308.554,39.229z M310.179,39.229c0,1.195,0.262,2.091,0.783,2.685
			c0.521,0.596,1.178,0.893,1.969,0.893c0.785,0,1.438-0.299,1.959-0.896s0.783-1.509,0.783-2.733c0-1.154-0.263-2.028-0.787-2.624
			c-0.524-0.594-1.176-0.892-1.955-0.892c-0.791,0-1.447,0.296-1.969,0.888S310.179,38.033,310.179,39.229z"/>
		<path d="M319.154,43.896v-9.334h1.424v1.327c0.686-1.025,1.676-1.538,2.971-1.538c0.563,0,1.079,0.102,1.551,0.303
			c0.472,0.203,0.824,0.468,1.059,0.796s0.398,0.718,0.492,1.169c0.059,0.293,0.088,0.806,0.088,1.538v5.739h-1.582v-5.678
			c0-0.645-0.061-1.126-0.184-1.445s-0.342-0.574-0.655-0.766c-0.313-0.189-0.681-0.285-1.103-0.285
			c-0.674,0-1.256,0.214-1.745,0.642s-0.733,1.239-0.733,2.435v5.098H319.154z"/>
	</g>
	<g enable-background="new    ">
		<path fill="#FFEDD9" d="M53.538,160.788c-0.776-0.979-1.433-2.125-1.969-3.438c-0.537-1.313-0.805-2.672-0.805-4.078
			c0-1.239,0.2-2.427,0.602-3.563c0.469-1.317,1.192-2.63,2.172-3.938h1.008c-0.63,1.083-1.047,1.856-1.25,2.32
			c-0.318,0.719-0.568,1.469-0.75,2.25c-0.224,0.974-0.336,1.953-0.336,2.938c0,2.505,0.778,5.008,2.336,7.508H53.538z"/>
		<path fill="#FFEDD9" d="M56.179,157.421v-8.297h1.266v1.18c0.609-0.911,1.489-1.367,2.641-1.367c0.5,0,0.959,0.09,1.379,0.27
			c0.419,0.18,0.733,0.415,0.941,0.707c0.208,0.292,0.354,0.638,0.438,1.039c0.052,0.261,0.078,0.716,0.078,1.367v5.102h-1.406
			v-5.047c0-0.573-0.055-1.001-0.164-1.285s-0.304-0.511-0.582-0.68c-0.279-0.169-0.605-0.254-0.98-0.254
			c-0.599,0-1.116,0.19-1.551,0.57c-0.435,0.38-0.652,1.102-0.652,2.164v4.531H56.179z"/>
		<path fill="#FFEDD9" d="M64.554,153.272c0-1.536,0.427-2.675,1.281-3.414c0.713-0.614,1.583-0.922,2.609-0.922
			c1.141,0,2.073,0.374,2.797,1.121c0.724,0.747,1.086,1.78,1.086,3.098c0,1.067-0.16,1.907-0.48,2.52s-0.787,1.087-1.398,1.426
			c-0.612,0.339-1.28,0.508-2.004,0.508c-1.162,0-2.101-0.372-2.816-1.117C64.912,155.746,64.554,154.674,64.554,153.272z
			 M65.999,153.272c0,1.063,0.231,1.858,0.695,2.387c0.463,0.528,1.047,0.793,1.75,0.793c0.698,0,1.278-0.266,1.742-0.797
			c0.463-0.531,0.695-1.341,0.695-2.43c0-1.026-0.233-1.804-0.699-2.332c-0.466-0.528-1.046-0.793-1.738-0.793
			c-0.703,0-1.287,0.263-1.75,0.789C66.231,151.416,65.999,152.21,65.999,153.272z"/>
		<path fill="#FFEDD9" d="M79.413,157.421v-1.219c-0.646,0.938-1.523,1.406-2.633,1.406c-0.49,0-0.947-0.094-1.371-0.281
			c-0.425-0.188-0.74-0.423-0.945-0.707c-0.206-0.284-0.351-0.632-0.434-1.043c-0.058-0.276-0.086-0.714-0.086-1.313v-5.141h1.406
			v4.602c0,0.734,0.028,1.229,0.086,1.484c0.088,0.37,0.276,0.66,0.563,0.871c0.286,0.211,0.641,0.316,1.063,0.316
			s0.817-0.108,1.188-0.324c0.37-0.216,0.631-0.511,0.785-0.883c0.153-0.372,0.23-0.913,0.23-1.621v-4.445h1.406v8.297H79.413z"/>
		<path fill="#FFEDD9" d="M82.874,157.421v-8.297h1.266v1.18c0.609-0.911,1.489-1.367,2.641-1.367c0.5,0,0.959,0.09,1.379,0.27
			c0.419,0.18,0.733,0.415,0.941,0.707c0.208,0.292,0.354,0.638,0.438,1.039c0.052,0.261,0.078,0.716,0.078,1.367v5.102H88.21
			v-5.047c0-0.573-0.055-1.001-0.164-1.285s-0.304-0.511-0.582-0.68c-0.279-0.169-0.605-0.254-0.98-0.254
			c-0.599,0-1.116,0.19-1.551,0.57c-0.435,0.38-0.652,1.102-0.652,2.164v4.531H82.874z"/>
		<path fill="#FFEDD9" d="M92.695,160.788h-1.008c1.557-2.5,2.336-5.003,2.336-7.508c0-0.979-0.112-1.95-0.336-2.914
			c-0.177-0.781-0.425-1.531-0.742-2.25c-0.203-0.469-0.623-1.25-1.258-2.344h1.008c0.979,1.308,1.703,2.62,2.172,3.938
			c0.401,1.136,0.602,2.323,0.602,3.563c0,1.406-0.27,2.766-0.809,4.078S93.465,159.809,92.695,160.788z"/>
	</g>
	<g opacity="0.8" enable-background="new    ">
		<path d="M253.75,137.366l1.608-0.141c0.076,0.645,0.253,1.173,0.532,1.587c0.278,0.412,0.71,0.746,1.296,1.002
			c0.586,0.254,1.245,0.382,1.978,0.382c0.65,0,1.225-0.097,1.723-0.29s0.869-0.458,1.112-0.795s0.365-0.705,0.365-1.104
			c0-0.404-0.117-0.757-0.352-1.059s-0.621-0.556-1.16-0.761c-0.346-0.135-1.11-0.344-2.294-0.628s-2.013-0.553-2.487-0.805
			c-0.615-0.322-1.074-0.722-1.375-1.199s-0.453-1.013-0.453-1.604c0-0.65,0.185-1.258,0.554-1.823s0.908-0.995,1.617-1.288
			s1.497-0.439,2.364-0.439c0.955,0,1.797,0.153,2.527,0.462c0.729,0.307,1.291,0.76,1.683,1.357s0.604,1.274,0.633,2.03
			l-1.635,0.123c-0.088-0.814-0.385-1.43-0.892-1.846s-1.255-0.624-2.246-0.624c-1.031,0-1.783,0.189-2.254,0.566
			c-0.472,0.379-0.708,0.834-0.708,1.367c0,0.463,0.167,0.844,0.501,1.143c0.328,0.299,1.185,0.605,2.571,0.918
			c1.386,0.314,2.336,0.588,2.852,0.822c0.75,0.346,1.304,0.784,1.661,1.314s0.536,1.141,0.536,1.832
			c0,0.686-0.196,1.332-0.589,1.938c-0.393,0.607-0.957,1.079-1.692,1.416c-0.735,0.336-1.563,0.505-2.483,0.505
			c-1.166,0-2.143-0.17-2.931-0.51s-1.406-0.851-1.854-1.534C254.01,139,253.774,138.228,253.75,137.366z"/>
		<path d="M266.064,145.101l-0.176-1.485c0.346,0.094,0.647,0.141,0.905,0.141c0.352,0,0.633-0.059,0.844-0.176
			s0.384-0.281,0.519-0.492c0.1-0.158,0.261-0.551,0.483-1.178c0.029-0.088,0.076-0.217,0.141-0.387l-3.542-9.352h1.705l1.942,5.405
			c0.252,0.686,0.478,1.406,0.677,2.162c0.182-0.727,0.398-1.436,0.65-2.127l1.995-5.44h1.582l-3.551,9.492
			c-0.381,1.025-0.677,1.731-0.888,2.118c-0.281,0.521-0.604,0.903-0.967,1.147c-0.363,0.242-0.797,0.364-1.301,0.364
			C266.779,145.294,266.439,145.229,266.064,145.101z"/>
		<path d="M275.134,141.506v-9.334h1.424v1.327c0.686-1.025,1.676-1.538,2.971-1.538c0.563,0,1.08,0.102,1.551,0.303
			c0.472,0.203,0.825,0.468,1.059,0.796s0.398,0.718,0.492,1.169c0.059,0.293,0.088,0.806,0.088,1.538v5.739h-1.582v-5.678
			c0-0.645-0.062-1.126-0.185-1.445s-0.341-0.574-0.655-0.766c-0.313-0.189-0.681-0.285-1.103-0.285
			c-0.674,0-1.255,0.214-1.745,0.642s-0.734,1.239-0.734,2.435v5.098H275.134z"/>
		<path d="M284.556,136.839c0-1.729,0.48-3.009,1.441-3.841c0.803-0.691,1.781-1.037,2.936-1.037c1.283,0,2.333,0.421,3.147,1.262
			s1.221,2.002,1.221,3.484c0,1.201-0.18,2.146-0.54,2.834c-0.36,0.689-0.885,1.224-1.573,1.604s-1.44,0.571-2.254,0.571
			c-1.307,0-2.363-0.419-3.168-1.257S284.556,138.415,284.556,136.839z M286.182,136.839c0,1.195,0.261,2.091,0.782,2.685
			c0.521,0.596,1.178,0.893,1.969,0.893c0.785,0,1.438-0.299,1.96-0.896c0.521-0.598,0.783-1.509,0.783-2.733
			c0-1.154-0.263-2.028-0.787-2.624c-0.524-0.594-1.176-0.892-1.956-0.892c-0.791,0-1.447,0.296-1.969,0.888
			S286.182,135.644,286.182,136.839z"/>
		<path d="M295.156,141.506v-9.334h1.424v1.327c0.686-1.025,1.676-1.538,2.971-1.538c0.563,0,1.079,0.102,1.551,0.303
			c0.472,0.203,0.824,0.468,1.059,0.796s0.398,0.718,0.492,1.169c0.059,0.293,0.088,0.806,0.088,1.538v5.739h-1.582v-5.678
			c0-0.645-0.061-1.126-0.184-1.445s-0.342-0.574-0.655-0.766c-0.313-0.189-0.681-0.285-1.103-0.285
			c-0.674,0-1.256,0.214-1.745,0.642s-0.733,1.239-0.733,2.435v5.098H295.156z"/>
		<path d="M305.095,145.101l-0.176-1.485c0.346,0.094,0.648,0.141,0.906,0.141c0.352,0,0.633-0.059,0.844-0.176
			s0.383-0.281,0.518-0.492c0.1-0.158,0.262-0.551,0.484-1.178c0.029-0.088,0.076-0.217,0.141-0.387l-3.543-9.352h1.705l1.943,5.405
			c0.252,0.686,0.477,1.406,0.676,2.162c0.182-0.727,0.398-1.436,0.65-2.127l1.996-5.44h1.582l-3.551,9.492
			c-0.381,1.025-0.678,1.731-0.889,2.118c-0.281,0.521-0.604,0.903-0.967,1.147c-0.363,0.242-0.797,0.364-1.301,0.364
			C305.81,145.294,305.47,145.229,305.095,145.101z"/>
		<path d="M314.166,141.506v-9.334h1.416v1.31c0.293-0.457,0.682-0.824,1.168-1.103s1.041-0.418,1.662-0.418
			c0.691,0,1.258,0.144,1.7,0.431s0.755,0.688,0.937,1.204c0.738-1.09,1.699-1.635,2.883-1.635c0.926,0,1.637,0.257,2.135,0.77
			s0.748,1.302,0.748,2.368v6.407h-1.574v-5.88c0-0.633-0.051-1.088-0.153-1.366s-0.288-0.503-0.558-0.673s-0.586-0.255-0.949-0.255
			c-0.656,0-1.201,0.219-1.635,0.654c-0.434,0.438-0.65,1.136-0.65,2.097v5.423h-1.582v-6.064c0-0.703-0.129-1.23-0.387-1.582
			s-0.68-0.527-1.266-0.527c-0.445,0-0.857,0.117-1.235,0.352s-0.651,0.577-0.821,1.028s-0.256,1.102-0.256,1.951v4.843H314.166z"/>
	</g>
	<g opacity="0.8" enable-background="new    ">
		<path d="M256.865,230.854V217.97h9.316v1.521h-7.611v3.946h7.128v1.512h-7.128v4.386h7.91v1.521H256.865z"/>
		<path d="M267.579,230.854l3.41-4.852l-3.155-4.482h1.978l1.433,2.188c0.27,0.416,0.486,0.765,0.65,1.046
			c0.258-0.387,0.495-0.729,0.712-1.028l1.573-2.206h1.89l-3.226,4.395l3.472,4.939h-1.942l-1.916-2.9l-0.51-0.782l-2.452,3.683
			H267.579z"/>
		<path d="M283.725,229.703c-0.586,0.498-1.15,0.85-1.692,1.055s-1.124,0.308-1.745,0.308c-1.025,0-1.813-0.25-2.364-0.752
			c-0.551-0.5-0.826-1.141-0.826-1.92c0-0.457,0.104-0.875,0.312-1.252c0.208-0.379,0.48-0.682,0.817-0.91s0.716-0.401,1.138-0.519
			c0.311-0.082,0.779-0.161,1.406-0.237c1.277-0.152,2.218-0.334,2.821-0.545c0.006-0.217,0.009-0.354,0.009-0.413
			c0-0.645-0.149-1.099-0.448-1.362c-0.404-0.357-1.005-0.536-1.802-0.536c-0.744,0-1.293,0.131-1.648,0.392
			s-0.617,0.722-0.787,1.384l-1.547-0.211c0.141-0.662,0.372-1.196,0.694-1.604c0.322-0.406,0.788-0.721,1.397-0.939
			c0.609-0.221,1.315-0.33,2.118-0.33c0.797,0,1.444,0.094,1.942,0.281s0.864,0.424,1.099,0.707
			c0.234,0.285,0.398,0.644,0.492,1.077c0.053,0.27,0.079,0.756,0.079,1.459v2.109c0,1.471,0.034,2.401,0.101,2.79
			c0.067,0.391,0.201,0.764,0.4,1.121h-1.652C283.877,230.526,283.772,230.143,283.725,229.703z M283.593,226.17
			c-0.574,0.234-1.436,0.434-2.584,0.598c-0.65,0.094-1.11,0.199-1.38,0.316s-0.478,0.289-0.624,0.515s-0.22,0.476-0.22,0.751
			c0,0.422,0.16,0.773,0.479,1.055s0.787,0.422,1.402,0.422c0.609,0,1.151-0.133,1.626-0.399s0.823-0.632,1.046-1.095
			c0.17-0.357,0.255-0.885,0.255-1.582V226.17z"/>
		<path d="M287.645,230.854v-9.334h1.415v1.31c0.293-0.457,0.683-0.824,1.169-1.103s1.041-0.418,1.662-0.418
			c0.691,0,1.258,0.144,1.7,0.431s0.755,0.688,0.937,1.204c0.738-1.09,1.699-1.635,2.883-1.635c0.926,0,1.637,0.257,2.135,0.77
			s0.748,1.302,0.748,2.368v6.407h-1.574v-5.88c0-0.633-0.051-1.088-0.153-1.366s-0.288-0.503-0.558-0.673s-0.586-0.255-0.949-0.255
			c-0.656,0-1.201,0.219-1.635,0.654c-0.434,0.438-0.65,1.136-0.65,2.097v5.423h-1.582v-6.064c0-0.703-0.129-1.23-0.387-1.582
			s-0.68-0.527-1.266-0.527c-0.446,0-0.857,0.117-1.235,0.352s-0.652,0.577-0.822,1.028s-0.255,1.102-0.255,1.951v4.843H287.645z"/>
		<path d="M302.638,234.432v-12.911h1.441v1.213c0.34-0.475,0.725-0.83,1.152-1.068c0.428-0.236,0.945-0.355,1.555-0.355
			c0.797,0,1.5,0.205,2.109,0.615s1.07,0.988,1.381,1.736c0.311,0.746,0.465,1.565,0.465,2.456c0,0.955-0.171,1.815-0.514,2.579
			c-0.343,0.766-0.841,1.352-1.494,1.758c-0.653,0.407-1.34,0.611-2.061,0.611c-0.527,0-1.001-0.111-1.42-0.334
			s-0.764-0.504-1.033-0.844v4.544H302.638z M304.072,226.24c0,1.201,0.242,2.089,0.729,2.663s1.076,0.861,1.768,0.861
			c0.703,0,1.305-0.297,1.806-0.893c0.501-0.594,0.751-1.516,0.751-2.764c0-1.189-0.244-2.08-0.733-2.672s-1.073-0.888-1.753-0.888
			c-0.674,0-1.271,0.315-1.789,0.944C304.331,224.124,304.072,225.039,304.072,226.24z"/>
		<path d="M312.615,230.854V217.97h1.582v12.885H312.615z"/>
		<path d="M323.039,227.849l1.635,0.202c-0.258,0.955-0.736,1.696-1.434,2.224s-1.588,0.791-2.672,0.791
			c-1.365,0-2.447-0.42-3.247-1.262c-0.8-0.84-1.2-2.02-1.2-3.537c0-1.57,0.404-2.789,1.213-3.656s1.857-1.301,3.146-1.301
			c1.248,0,2.268,0.425,3.059,1.274s1.188,2.045,1.188,3.586c0,0.094-0.004,0.234-0.01,0.422h-6.961
			c0.059,1.025,0.35,1.811,0.871,2.355s1.172,0.817,1.951,0.817c0.58,0,1.074-0.152,1.484-0.457S322.799,228.517,323.039,227.849z
			 M317.844,225.291h5.213c-0.07-0.785-0.27-1.374-0.598-1.767c-0.504-0.609-1.158-0.914-1.961-0.914
			c-0.727,0-1.337,0.243-1.832,0.729S317.896,224.477,317.844,225.291z"/>
	</g>
	<g>
		<g enable-background="new    ">
			<path fill="#282828" d="M440.107,27.577l3.574-9.306h1.326l3.809,9.306h-1.402l-1.086-2.818h-3.891l-1.022,2.818H440.107z
				 M442.793,23.756h3.154l-0.971-2.577c-0.297-0.783-0.517-1.426-0.66-1.93c-0.119,0.597-0.286,1.189-0.502,1.777L442.793,23.756z"
				/>
			<path fill="#282828" d="M452.549,27.577v-6.741h1.021v0.946c0.212-0.33,0.494-0.596,0.845-0.797s0.751-0.302,1.2-0.302
				c0.499,0,0.908,0.104,1.229,0.312c0.318,0.207,0.544,0.497,0.676,0.869c0.533-0.787,1.227-1.181,2.082-1.181
				c0.668,0,1.182,0.186,1.542,0.556s0.54,0.94,0.54,1.711v4.627h-1.137v-4.246c0-0.457-0.037-0.786-0.111-0.987
				s-0.208-0.363-0.402-0.485c-0.195-0.123-0.424-0.185-0.686-0.185c-0.475,0-0.868,0.157-1.182,0.473
				c-0.313,0.315-0.469,0.82-0.469,1.515v3.916h-1.143v-4.38c0-0.508-0.094-0.889-0.279-1.143c-0.187-0.254-0.491-0.381-0.914-0.381
				c-0.322,0-0.619,0.085-0.893,0.254s-0.471,0.417-0.594,0.743c-0.122,0.325-0.184,0.795-0.184,1.408v3.498H452.549z"/>
			<path fill="#282828" d="M462.953,24.206c0-1.248,0.347-2.173,1.041-2.773c0.579-0.499,1.286-0.749,2.119-0.749
				c0.928,0,1.685,0.304,2.273,0.911c0.588,0.607,0.882,1.446,0.882,2.517c0,0.867-0.13,1.55-0.39,2.047
				c-0.262,0.497-0.64,0.884-1.137,1.159c-0.498,0.274-1.04,0.412-1.629,0.412c-0.943,0-1.706-0.303-2.287-0.908
				C463.244,26.217,462.953,25.345,462.953,24.206z M464.127,24.206c0,0.863,0.188,1.51,0.564,1.939
				c0.377,0.43,0.852,0.645,1.422,0.645c0.567,0,1.039-0.216,1.416-0.647s0.564-1.09,0.564-1.974c0-0.834-0.189-1.466-0.568-1.896
				c-0.378-0.43-0.849-0.644-1.412-0.644c-0.57,0-1.045,0.213-1.422,0.641C464.315,22.698,464.127,23.343,464.127,24.206z"/>
			<path fill="#282828" d="M474.981,27.577v-0.851c-0.427,0.669-1.056,1.003-1.886,1.003c-0.537,0-1.031-0.148-1.482-0.444
				c-0.449-0.296-0.799-0.71-1.047-1.241s-0.371-1.142-0.371-1.831c0-0.673,0.112-1.283,0.336-1.831
				c0.225-0.548,0.561-0.969,1.01-1.26c0.449-0.293,0.95-0.438,1.504-0.438c0.406,0,0.769,0.086,1.086,0.257
				c0.317,0.172,0.576,0.395,0.774,0.67v-3.339h1.136v9.306H474.981z M471.369,24.213c0,0.863,0.183,1.509,0.547,1.937
				c0.363,0.427,0.793,0.641,1.288,0.641c0.499,0,0.923-0.204,1.272-0.612S475,25.146,475,24.308c0-0.922-0.178-1.6-0.533-2.031
				s-0.793-0.646-1.313-0.646c-0.508,0-0.933,0.207-1.272,0.621C471.54,22.666,471.369,23.32,471.369,24.213z"/>
			<path fill="#282828" d="M482.453,25.406l1.18,0.146c-0.186,0.69-0.531,1.226-1.034,1.606s-1.147,0.571-1.93,0.571
				c-0.985,0-1.769-0.304-2.345-0.911c-0.578-0.607-0.867-1.459-0.867-2.555c0-1.134,0.292-2.015,0.876-2.641
				s1.341-0.939,2.272-0.939c0.901,0,1.638,0.307,2.209,0.921c0.571,0.613,0.857,1.477,0.857,2.59c0,0.067-0.002,0.169-0.007,0.305
				h-5.027c0.042,0.74,0.252,1.307,0.628,1.701c0.377,0.393,0.847,0.59,1.41,0.59c0.418,0,0.775-0.11,1.072-0.33
				S482.279,25.889,482.453,25.406z M478.701,23.56h3.764c-0.051-0.567-0.194-0.993-0.432-1.276c-0.363-0.44-0.836-0.66-1.415-0.66
				c-0.524,0-0.966,0.176-1.323,0.526C478.937,22.501,478.739,22.971,478.701,23.56z"/>
			<path fill="#282828" d="M485.043,27.577v-9.306h1.143v9.306H485.043z"/>
			<path fill="#282828" d="M488.254,27.577v-1.301h1.302v1.301c0,0.479-0.085,0.864-0.254,1.158s-0.438,0.521-0.806,0.683
				l-0.318-0.489c0.242-0.105,0.42-0.261,0.533-0.466c0.115-0.205,0.178-0.501,0.191-0.886H488.254z"/>
			<path fill="#282828" d="M494.754,24.206c0-1.248,0.348-2.173,1.041-2.773c0.58-0.499,1.287-0.749,2.121-0.749
				c0.926,0,1.684,0.304,2.271,0.911c0.589,0.607,0.883,1.446,0.883,2.517c0,0.867-0.131,1.55-0.391,2.047s-0.639,0.884-1.137,1.159
				c-0.496,0.274-1.039,0.412-1.627,0.412c-0.944,0-1.707-0.303-2.289-0.908C495.045,26.217,494.754,25.345,494.754,24.206z
				 M495.928,24.206c0,0.863,0.188,1.51,0.565,1.939c0.376,0.43,0.85,0.645,1.422,0.645c0.566,0,1.039-0.216,1.415-0.647
				s0.565-1.09,0.565-1.974c0-0.834-0.189-1.466-0.568-1.896s-0.85-0.644-1.412-0.644c-0.572,0-1.046,0.213-1.422,0.641
				C496.117,22.698,495.928,23.343,495.928,24.206z"/>
			<path fill="#282828" d="M502.682,27.577v-5.853h-1.009v-0.889h1.009v-0.718c0-0.452,0.04-0.789,0.12-1.009
				c0.11-0.296,0.305-0.536,0.582-0.721c0.276-0.184,0.664-0.276,1.164-0.276c0.322,0,0.678,0.039,1.066,0.115l-0.172,0.996
				c-0.236-0.042-0.461-0.063-0.672-0.063c-0.348,0-0.593,0.074-0.736,0.222c-0.145,0.148-0.217,0.426-0.217,0.832v0.622h1.314
				v0.889h-1.314v5.853H502.682z"/>
			<path fill="#282828" d="M508.515,26.556l0.166,1.009c-0.322,0.067-0.609,0.102-0.863,0.102c-0.415,0-0.736-0.065-0.965-0.196
				c-0.229-0.132-0.39-0.304-0.482-0.518c-0.094-0.214-0.141-0.664-0.141-1.35v-3.878h-0.838v-0.889h0.838v-1.669l1.137-0.686v2.354
				h1.148v0.889h-1.148v3.942c0,0.325,0.02,0.535,0.061,0.628c0.04,0.093,0.105,0.167,0.197,0.222
				c0.09,0.056,0.221,0.083,0.39,0.083C508.141,26.6,508.308,26.585,508.515,26.556z"/>
			<path fill="#282828" d="M514.248,25.406l1.181,0.146c-0.187,0.69-0.531,1.226-1.034,1.606c-0.504,0.381-1.147,0.571-1.93,0.571
				c-0.986,0-1.768-0.304-2.346-0.911s-0.867-1.459-0.867-2.555c0-1.134,0.293-2.015,0.877-2.641s1.341-0.939,2.271-0.939
				c0.902,0,1.639,0.307,2.209,0.921c0.572,0.613,0.857,1.477,0.857,2.59c0,0.067-0.002,0.169-0.006,0.305h-5.027
				c0.042,0.74,0.252,1.307,0.628,1.701c0.376,0.393,0.847,0.59,1.409,0.59c0.419,0,0.776-0.11,1.072-0.33
				C513.84,26.24,514.074,25.889,514.248,25.406z M510.496,23.56h3.765c-0.051-0.567-0.194-0.993-0.432-1.276
				c-0.364-0.44-0.836-0.66-1.415-0.66c-0.525,0-0.967,0.176-1.324,0.526C510.732,22.501,510.535,22.971,510.496,23.56z"/>
			<path fill="#282828" d="M516.863,27.577v-6.741h1.028v0.958c0.495-0.74,1.21-1.11,2.146-1.11c0.406,0,0.779,0.073,1.121,0.219
				c0.34,0.146,0.595,0.338,0.764,0.575c0.17,0.236,0.288,0.518,0.355,0.844c0.043,0.212,0.064,0.582,0.064,1.111v4.145h-1.143
				v-4.101c0-0.466-0.045-0.813-0.134-1.044s-0.247-0.415-0.474-0.553c-0.226-0.138-0.491-0.206-0.796-0.206
				c-0.487,0-0.907,0.154-1.261,0.464c-0.353,0.309-0.529,0.895-0.529,1.758v3.682H516.863z"/>
			<path fill="#282828" d="M527.978,27.577v-5.853h-1.01v-0.889h1.01v-0.718c0-0.452,0.039-0.789,0.12-1.009
				c0.11-0.296,0.304-0.536,0.581-0.721c0.277-0.184,0.665-0.276,1.164-0.276c0.322,0,0.678,0.039,1.066,0.115l-0.171,0.996
				c-0.237-0.042-0.462-0.063-0.673-0.063c-0.348,0-0.592,0.074-0.736,0.222c-0.145,0.148-0.216,0.426-0.216,0.832v0.622h1.313
				v0.889h-1.313v5.853H527.978z"/>
			<path fill="#282828" d="M535.734,27.577v-0.99c-0.524,0.762-1.237,1.143-2.139,1.143c-0.398,0-0.77-0.076-1.113-0.229
				c-0.346-0.152-0.602-0.344-0.77-0.574c-0.166-0.23-0.283-0.514-0.352-0.848c-0.047-0.225-0.07-0.58-0.07-1.066v-4.177h1.143
				v3.739c0,0.596,0.023,0.998,0.07,1.205c0.072,0.301,0.225,0.537,0.457,0.708c0.232,0.172,0.521,0.257,0.863,0.257
				s0.664-0.087,0.965-0.263s0.514-0.415,0.639-0.718c0.124-0.303,0.187-0.741,0.187-1.316v-3.612h1.143v6.741H535.734z"/>
			<path fill="#282828" d="M538.521,27.577v-9.306h1.143v9.306H538.521z"/>
			<path fill="#282828" d="M541.41,27.577v-9.306h1.143v9.306H541.41z"/>
			<path fill="#282828" d="M543.879,24.784v-1.148h3.51v1.148H543.879z"/>
			<path fill="#282828" d="M548.195,25.565l1.13-0.178c0.063,0.452,0.24,0.799,0.53,1.041c0.289,0.24,0.695,0.361,1.215,0.361
				c0.525,0,0.914-0.106,1.168-0.32s0.381-0.465,0.381-0.752c0-0.259-0.111-0.462-0.336-0.609c-0.156-0.102-0.546-0.231-1.168-0.388
				c-0.838-0.212-1.418-0.395-1.742-0.549s-0.569-0.368-0.736-0.642c-0.168-0.272-0.251-0.574-0.251-0.904
				c0-0.301,0.069-0.579,0.206-0.835c0.138-0.256,0.325-0.469,0.563-0.638c0.178-0.131,0.42-0.242,0.727-0.333
				s0.636-0.137,0.986-0.137c0.529,0,0.994,0.076,1.395,0.229c0.398,0.152,0.694,0.358,0.885,0.619
				c0.19,0.26,0.322,0.608,0.394,1.044l-1.117,0.152c-0.051-0.347-0.198-0.618-0.44-0.813c-0.244-0.194-0.588-0.292-1.032-0.292
				c-0.524,0-0.899,0.087-1.124,0.261c-0.224,0.173-0.336,0.376-0.336,0.609c0,0.147,0.047,0.281,0.14,0.399
				c0.093,0.123,0.239,0.225,0.438,0.305c0.113,0.042,0.45,0.14,1.009,0.292c0.808,0.216,1.372,0.393,1.692,0.53
				c0.318,0.138,0.569,0.337,0.752,0.6c0.182,0.263,0.272,0.588,0.272,0.978c0,0.381-0.11,0.739-0.333,1.076
				c-0.223,0.336-0.543,0.597-0.962,0.78c-0.419,0.185-0.894,0.276-1.422,0.276c-0.876,0-1.544-0.182-2.003-0.546
				S548.322,26.28,548.195,25.565z"/>
			<path fill="#282828" d="M555.158,19.585v-1.313h1.143v1.313H555.158z M555.158,27.577v-6.741h1.143v6.741H555.158z"/>
			<path fill="#282828" d="M557.437,27.577V26.65l4.291-4.926c-0.486,0.025-0.916,0.038-1.289,0.038h-2.748v-0.927h5.51v0.755
				l-3.65,4.279l-0.704,0.78c0.513-0.038,0.992-0.058,1.44-0.058h3.117v0.984H557.437z"/>
			<path fill="#282828" d="M569.155,25.406l1.181,0.146c-0.186,0.69-0.531,1.226-1.035,1.606c-0.503,0.381-1.146,0.571-1.93,0.571
				c-0.985,0-1.768-0.304-2.346-0.911c-0.576-0.607-0.865-1.459-0.865-2.555c0-1.134,0.291-2.015,0.875-2.641
				s1.342-0.939,2.273-0.939c0.9,0,1.637,0.307,2.209,0.921c0.57,0.613,0.856,1.477,0.856,2.59c0,0.067-0.002,0.169-0.007,0.305
				h-5.027c0.043,0.74,0.252,1.307,0.629,1.701c0.377,0.393,0.846,0.59,1.409,0.59c0.419,0,0.776-0.11,1.073-0.33
				C568.747,26.24,568.982,25.889,569.155,25.406z M565.404,23.56h3.764c-0.051-0.567-0.195-0.993-0.432-1.276
				c-0.363-0.44-0.836-0.66-1.416-0.66c-0.524,0-0.965,0.176-1.322,0.526C565.639,22.501,565.441,22.971,565.404,23.56z"/>
			<path fill="#282828" d="M572.068,27.577v-1.301h1.302v1.301c0,0.479-0.085,0.864-0.254,1.158s-0.438,0.521-0.806,0.683
				l-0.318-0.489c0.242-0.105,0.42-0.261,0.533-0.466c0.115-0.205,0.178-0.501,0.191-0.886H572.068z"/>
		</g>
		<g enable-background="new    ">
			<path fill="#282828" d="M459.319,44.177v-5.853h-1.009v-0.889h1.009v-0.718c0-0.452,0.04-0.789,0.12-1.009
				c0.11-0.296,0.305-0.536,0.582-0.721c0.276-0.184,0.664-0.276,1.164-0.276c0.322,0,0.678,0.039,1.066,0.115l-0.172,0.996
				c-0.236-0.042-0.461-0.063-0.672-0.063c-0.348,0-0.593,0.074-0.736,0.222c-0.145,0.148-0.217,0.426-0.217,0.832v0.622h1.314
				v0.889h-1.314v5.853H459.319z"/>
			<path fill="#282828" d="M462.232,40.806c0-1.248,0.348-2.173,1.041-2.773c0.58-0.499,1.287-0.749,2.121-0.749
				c0.926,0,1.684,0.304,2.271,0.911c0.589,0.607,0.883,1.446,0.883,2.517c0,0.867-0.131,1.55-0.391,2.047s-0.639,0.884-1.137,1.159
				c-0.496,0.274-1.039,0.412-1.627,0.412c-0.944,0-1.707-0.303-2.289-0.908C462.523,42.816,462.232,41.944,462.232,40.806z
				 M463.407,40.806c0,0.863,0.188,1.51,0.565,1.939c0.376,0.43,0.85,0.645,1.422,0.645c0.566,0,1.039-0.216,1.415-0.647
				s0.565-1.09,0.565-1.974c0-0.834-0.189-1.466-0.568-1.896s-0.85-0.644-1.412-0.644c-0.572,0-1.046,0.213-1.422,0.641
				C463.595,39.298,463.407,39.942,463.407,40.806z"/>
			<path fill="#282828" d="M469.875,44.177v-6.741h1.029v1.022c0.262-0.479,0.504-0.794,0.727-0.946s0.467-0.229,0.732-0.229
				c0.386,0,0.777,0.123,1.175,0.368l-0.394,1.061c-0.279-0.166-0.559-0.248-0.838-0.248c-0.25,0-0.475,0.075-0.673,0.226
				s-0.341,0.358-0.425,0.625c-0.127,0.406-0.191,0.851-0.191,1.333v3.529H469.875z"/>
			<path fill="#282828" d="M477.372,42.165l1.13-0.178c0.063,0.452,0.24,0.799,0.529,1.041c0.291,0.24,0.695,0.361,1.217,0.361
				c0.524,0,0.914-0.106,1.168-0.32s0.381-0.465,0.381-0.752c0-0.259-0.113-0.462-0.337-0.609c-0.157-0.102-0.546-0.231-1.168-0.388
				c-0.838-0.212-1.419-0.395-1.743-0.549c-0.322-0.154-0.568-0.368-0.736-0.642c-0.166-0.272-0.25-0.574-0.25-0.904
				c0-0.301,0.068-0.579,0.207-0.835c0.137-0.256,0.324-0.469,0.561-0.638c0.178-0.131,0.42-0.242,0.727-0.333
				c0.308-0.091,0.637-0.137,0.988-0.137c0.528,0,0.992,0.076,1.393,0.229s0.695,0.358,0.886,0.619
				c0.19,0.26,0.321,0.608,0.394,1.044l-1.117,0.152c-0.051-0.347-0.197-0.618-0.441-0.813c-0.243-0.194-0.587-0.292-1.031-0.292
				c-0.525,0-0.899,0.087-1.123,0.261c-0.225,0.173-0.337,0.376-0.337,0.609c0,0.147,0.046,0.281,0.14,0.399
				c0.094,0.123,0.239,0.225,0.438,0.305c0.115,0.042,0.451,0.14,1.01,0.292c0.809,0.216,1.372,0.393,1.691,0.53
				c0.32,0.138,0.57,0.337,0.752,0.6c0.183,0.263,0.273,0.588,0.273,0.978c0,0.381-0.111,0.739-0.334,1.076
				c-0.221,0.336-0.542,0.597-0.961,0.78c-0.419,0.185-0.893,0.276-1.422,0.276c-0.876,0-1.543-0.182-2.002-0.546
				C477.792,43.419,477.499,42.88,477.372,42.165z"/>
			<path fill="#282828" d="M486.824,43.155l0.164,1.009c-0.321,0.067-0.609,0.102-0.863,0.102c-0.414,0-0.736-0.065-0.965-0.196
				c-0.229-0.132-0.389-0.304-0.482-0.518c-0.093-0.214-0.139-0.664-0.139-1.35v-3.878h-0.838v-0.889h0.838v-1.669l1.136-0.686
				v2.354h1.149v0.889h-1.149v3.942c0,0.325,0.021,0.535,0.06,0.628c0.041,0.093,0.106,0.167,0.197,0.222
				c0.092,0.056,0.221,0.083,0.391,0.083C486.449,43.199,486.616,43.185,486.824,43.155z"/>
			<path fill="#282828" d="M492.359,44.177v-0.99c-0.525,0.762-1.238,1.143-2.14,1.143c-0.397,0-0.769-0.076-1.114-0.229
				c-0.345-0.152-0.601-0.344-0.768-0.574c-0.168-0.23-0.285-0.514-0.353-0.848c-0.046-0.225-0.069-0.58-0.069-1.066v-4.177h1.143
				v3.739c0,0.596,0.023,0.998,0.069,1.205c0.071,0.301,0.224,0.537,0.457,0.708c0.233,0.172,0.521,0.257,0.863,0.257
				s0.665-0.087,0.965-0.263s0.513-0.415,0.638-0.718s0.188-0.741,0.188-1.316v-3.612h1.143v6.741H492.359z"/>
			<path fill="#282828" d="M499.545,44.177v-0.851c-0.428,0.669-1.057,1.003-1.886,1.003c-0.538,0-1.032-0.148-1.481-0.444
				c-0.451-0.296-0.801-0.71-1.049-1.241c-0.246-0.531-0.371-1.142-0.371-1.831c0-0.673,0.113-1.283,0.337-1.831
				s0.561-0.969,1.009-1.26c0.449-0.293,0.951-0.438,1.505-0.438c0.406,0,0.769,0.086,1.085,0.257
				c0.318,0.172,0.576,0.395,0.775,0.67v-3.339h1.136v9.306H499.545z M495.932,40.813c0,0.863,0.183,1.509,0.546,1.937
				c0.363,0.427,0.793,0.641,1.289,0.641c0.499,0,0.924-0.204,1.271-0.612c0.35-0.408,0.524-1.032,0.524-1.87
				c0-0.922-0.178-1.6-0.533-2.031s-0.794-0.646-1.313-0.646c-0.508,0-0.933,0.207-1.273,0.621
				C496.103,39.266,495.932,39.92,495.932,40.813z"/>
			<path fill="#282828" d="M502.349,46.772l-0.127-1.072c0.25,0.067,0.469,0.102,0.654,0.102c0.254,0,0.457-0.042,0.609-0.127
				s0.277-0.203,0.375-0.355c0.071-0.114,0.188-0.397,0.349-0.851c0.021-0.063,0.056-0.156,0.102-0.279l-2.558-6.754h1.23
				l1.403,3.903c0.183,0.496,0.345,1.016,0.489,1.563c0.131-0.525,0.287-1.037,0.469-1.537l1.441-3.929h1.143l-2.564,6.855
				c-0.275,0.74-0.488,1.251-0.641,1.53c-0.203,0.376-0.437,0.652-0.699,0.828c-0.262,0.176-0.575,0.264-0.939,0.264
				C502.866,46.913,502.621,46.866,502.349,46.772z"/>
			<path fill="#282828" d="M508.234,44.177v-1.301h1.301v1.301c0,0.479-0.084,0.864-0.254,1.158
				c-0.169,0.294-0.438,0.521-0.806,0.683l-0.317-0.489c0.241-0.105,0.419-0.261,0.533-0.466s0.178-0.501,0.19-0.886H508.234z"/>
			<path fill="#282828" d="M517.654,43.155l0.165,1.009c-0.321,0.067-0.609,0.102-0.863,0.102c-0.415,0-0.736-0.065-0.965-0.196
				c-0.229-0.132-0.39-0.304-0.482-0.518s-0.14-0.664-0.14-1.35v-3.878h-0.838v-0.889h0.838v-1.669l1.137-0.686v2.354h1.148v0.889
				h-1.148v3.942c0,0.325,0.02,0.535,0.061,0.628c0.039,0.093,0.105,0.167,0.195,0.222c0.092,0.056,0.222,0.083,0.391,0.083
				C517.279,43.199,517.447,43.185,517.654,43.155z"/>
			<path fill="#282828" d="M523.386,42.006l1.18,0.146c-0.186,0.69-0.531,1.226-1.034,1.606s-1.147,0.571-1.93,0.571
				c-0.985,0-1.769-0.304-2.345-0.911c-0.578-0.607-0.867-1.459-0.867-2.555c0-1.134,0.292-2.015,0.876-2.641
				s1.341-0.939,2.272-0.939c0.901,0,1.638,0.307,2.209,0.921c0.571,0.613,0.857,1.477,0.857,2.59c0,0.067-0.002,0.169-0.007,0.305
				h-5.027c0.042,0.74,0.252,1.307,0.628,1.701c0.377,0.393,0.847,0.59,1.41,0.59c0.418,0,0.775-0.11,1.072-0.33
				S523.213,42.488,523.386,42.006z M519.635,40.159h3.764c-0.051-0.567-0.194-0.993-0.432-1.276c-0.363-0.44-0.836-0.66-1.415-0.66
				c-0.524,0-0.966,0.176-1.323,0.526C519.871,39.101,519.673,39.57,519.635,40.159z"/>
			<path fill="#282828" d="M525.545,42.165l1.129-0.178c0.064,0.452,0.24,0.799,0.531,1.041c0.289,0.24,0.694,0.361,1.215,0.361
				c0.525,0,0.914-0.106,1.168-0.32s0.381-0.465,0.381-0.752c0-0.259-0.112-0.462-0.336-0.609c-0.157-0.102-0.547-0.231-1.168-0.388
				c-0.838-0.212-1.42-0.395-1.742-0.549c-0.324-0.154-0.57-0.368-0.736-0.642c-0.168-0.272-0.252-0.574-0.252-0.904
				c0-0.301,0.069-0.579,0.207-0.835c0.137-0.256,0.324-0.469,0.562-0.638c0.178-0.131,0.42-0.242,0.728-0.333
				c0.307-0.091,0.635-0.137,0.986-0.137c0.529,0,0.994,0.076,1.393,0.229c0.4,0.152,0.695,0.358,0.887,0.619
				c0.189,0.26,0.321,0.608,0.393,1.044l-1.117,0.152c-0.051-0.347-0.197-0.618-0.441-0.813c-0.242-0.194-0.586-0.292-1.031-0.292
				c-0.524,0-0.898,0.087-1.123,0.261c-0.225,0.173-0.336,0.376-0.336,0.609c0,0.147,0.046,0.281,0.139,0.399
				c0.094,0.123,0.24,0.225,0.438,0.305c0.114,0.042,0.45,0.14,1.009,0.292c0.809,0.216,1.373,0.393,1.691,0.53
				c0.32,0.138,0.57,0.337,0.753,0.6s0.272,0.588,0.272,0.978c0,0.381-0.111,0.739-0.332,1.076c-0.223,0.336-0.543,0.597-0.963,0.78
				c-0.418,0.185-0.893,0.276-1.422,0.276c-0.875,0-1.543-0.182-2.002-0.546S525.672,42.88,525.545,42.165z"/>
			<path fill="#282828" d="M534.996,43.155l0.165,1.009c-0.321,0.067-0.609,0.102-0.863,0.102c-0.415,0-0.736-0.065-0.965-0.196
				c-0.229-0.132-0.39-0.304-0.482-0.518s-0.14-0.664-0.14-1.35v-3.878h-0.838v-0.889h0.838v-1.669l1.137-0.686v2.354h1.148v0.889
				h-1.148v3.942c0,0.325,0.02,0.535,0.061,0.628c0.039,0.093,0.105,0.167,0.195,0.222c0.092,0.056,0.222,0.083,0.391,0.083
				C534.621,43.199,534.789,43.185,534.996,43.155z"/>
			<path fill="#282828" d="M536.119,36.185v-1.313h1.143v1.313H536.119z M536.119,44.177v-6.741h1.143v6.741H536.119z"/>
			<path fill="#282828" d="M539.002,44.177v-6.741h1.027v0.958c0.496-0.74,1.211-1.11,2.146-1.11c0.406,0,0.779,0.073,1.119,0.219
				c0.342,0.146,0.596,0.338,0.766,0.575c0.17,0.236,0.287,0.518,0.355,0.844c0.043,0.212,0.063,0.582,0.063,1.111v4.145h-1.143
				v-4.101c0-0.466-0.044-0.813-0.134-1.044c-0.088-0.23-0.246-0.415-0.473-0.553s-0.492-0.206-0.797-0.206
				c-0.486,0-0.906,0.154-1.26,0.464c-0.354,0.309-0.529,0.895-0.529,1.758v3.682H539.002z"/>
			<path fill="#282828" d="M546.021,44.735l1.111,0.165c0.047,0.343,0.176,0.593,0.387,0.749c0.284,0.212,0.672,0.317,1.162,0.317
				c0.529,0,0.938-0.105,1.225-0.317c0.288-0.212,0.482-0.508,0.584-0.889c0.06-0.232,0.088-0.722,0.083-1.467
				c-0.499,0.589-1.122,0.883-1.866,0.883c-0.927,0-1.645-0.334-2.152-1.003s-0.762-1.471-0.762-2.405
				c0-0.644,0.117-1.237,0.35-1.781s0.57-0.964,1.012-1.26c0.443-0.296,0.963-0.444,1.559-0.444c0.796,0,1.452,0.321,1.969,0.965
				v-0.813h1.053v5.827c0,1.05-0.106,1.793-0.32,2.231c-0.213,0.438-0.553,0.784-1.016,1.038s-1.033,0.381-1.711,0.381
				c-0.804,0-1.453-0.182-1.948-0.543C546.244,46.008,546.005,45.463,546.021,44.735z M546.968,40.686
				c0,0.885,0.176,1.53,0.526,1.937c0.352,0.406,0.792,0.609,1.32,0.609c0.525,0,0.965-0.202,1.32-0.606s0.533-1.038,0.533-1.901
				c0-0.825-0.183-1.447-0.549-1.866c-0.365-0.419-0.807-0.628-1.323-0.628c-0.508,0-0.939,0.206-1.295,0.618
				C547.145,39.261,546.968,39.873,546.968,40.686z"/>
			<path fill="#282828" d="M553.76,44.177v-1.301h1.301v1.301c0,0.479-0.084,0.864-0.254,1.158
				c-0.169,0.294-0.438,0.521-0.806,0.683l-0.317-0.489c0.241-0.105,0.419-0.261,0.533-0.466s0.178-0.501,0.19-0.886H553.76z"/>
		</g>
		<g enable-background="new    ">
			<path fill="#282828" d="M474.15,57.406c0-1.248,0.348-2.173,1.041-2.773c0.58-0.499,1.287-0.749,2.12-0.749
				c0.927,0,1.685,0.304,2.272,0.911s0.883,1.446,0.883,2.517c0,0.867-0.131,1.55-0.391,2.047c-0.261,0.497-0.639,0.884-1.137,1.159
				c-0.497,0.274-1.039,0.412-1.628,0.412c-0.944,0-1.706-0.303-2.288-0.908C474.441,59.417,474.15,58.545,474.15,57.406z
				 M475.324,57.406c0,0.863,0.189,1.51,0.565,1.939s0.851,0.645,1.422,0.645c0.567,0,1.039-0.216,1.415-0.647
				c0.377-0.432,0.565-1.09,0.565-1.974c0-0.834-0.189-1.466-0.568-1.896c-0.378-0.43-0.849-0.644-1.412-0.644
				c-0.571,0-1.046,0.213-1.422,0.641S475.324,56.543,475.324,57.406z"/>
			<path fill="#282828" d="M481.793,60.777v-6.741h1.028v1.022c0.263-0.479,0.505-0.794,0.727-0.946
				c0.223-0.152,0.467-0.229,0.733-0.229c0.385,0,0.776,0.123,1.174,0.368l-0.393,1.061c-0.279-0.166-0.559-0.248-0.838-0.248
				c-0.25,0-0.475,0.075-0.674,0.226c-0.198,0.15-0.34,0.358-0.425,0.625c-0.127,0.406-0.19,0.851-0.19,1.333v3.529H481.793z"/>
			<path fill="#282828" d="M492.241,59.756l0.165,1.009c-0.322,0.067-0.609,0.102-0.863,0.102c-0.414,0-0.736-0.065-0.965-0.196
				c-0.229-0.132-0.389-0.304-0.482-0.518s-0.14-0.664-0.14-1.35v-3.878h-0.838v-0.889h0.838v-1.669l1.136-0.686v2.354h1.149v0.889
				h-1.149v3.942c0,0.325,0.021,0.535,0.061,0.628c0.041,0.093,0.105,0.167,0.197,0.222c0.091,0.056,0.221,0.083,0.391,0.083
				C491.867,59.8,492.033,59.785,492.241,59.756z"/>
			<path fill="#282828" d="M497.972,58.606l1.182,0.146c-0.187,0.69-0.531,1.226-1.035,1.606s-1.146,0.571-1.93,0.571
				c-0.986,0-1.768-0.304-2.346-0.911c-0.577-0.607-0.866-1.459-0.866-2.555c0-1.134,0.292-2.015,0.876-2.641
				s1.342-0.939,2.272-0.939c0.901,0,1.638,0.307,2.209,0.921c0.571,0.613,0.856,1.477,0.856,2.59c0,0.067-0.002,0.169-0.006,0.305
				h-5.027c0.043,0.74,0.252,1.307,0.629,1.701c0.376,0.393,0.846,0.59,1.408,0.59c0.42,0,0.777-0.11,1.073-0.33
				S497.8,59.089,497.972,58.606z M494.221,56.76h3.765c-0.051-0.567-0.195-0.993-0.432-1.276c-0.364-0.44-0.836-0.66-1.416-0.66
				c-0.525,0-0.966,0.176-1.323,0.526C494.457,55.701,494.26,56.171,494.221,56.76z"/>
			<path fill="#282828" d="M504.987,59.945c-0.423,0.36-0.831,0.614-1.222,0.762c-0.392,0.148-0.812,0.223-1.26,0.223
				c-0.741,0-1.311-0.181-1.708-0.543c-0.397-0.361-0.597-0.824-0.597-1.387c0-0.33,0.075-0.632,0.226-0.904
				c0.149-0.273,0.347-0.492,0.59-0.657s0.518-0.29,0.822-0.374c0.224-0.06,0.563-0.117,1.016-0.172
				c0.923-0.11,1.602-0.241,2.038-0.394c0.004-0.156,0.006-0.256,0.006-0.298c0-0.466-0.107-0.794-0.324-0.984
				c-0.291-0.258-0.725-0.387-1.301-0.387c-0.537,0-0.934,0.094-1.19,0.282c-0.256,0.188-0.445,0.521-0.567,0.999l-1.117-0.152
				c0.102-0.478,0.268-0.864,0.501-1.158s0.569-0.521,1.009-0.679c0.44-0.159,0.951-0.238,1.53-0.238
				c0.575,0,1.043,0.067,1.403,0.203c0.359,0.136,0.623,0.306,0.793,0.511s0.287,0.465,0.355,0.777
				c0.038,0.195,0.057,0.547,0.057,1.055v1.523c0,1.062,0.025,1.733,0.073,2.015c0.049,0.281,0.146,0.552,0.289,0.81h-1.193
				C505.097,60.54,505.021,60.264,504.987,59.945z M504.892,57.395c-0.415,0.169-1.037,0.313-1.867,0.432
				c-0.469,0.067-0.801,0.144-0.996,0.229c-0.195,0.084-0.345,0.208-0.451,0.371c-0.105,0.163-0.158,0.344-0.158,0.543
				c0,0.305,0.115,0.559,0.346,0.762s0.568,0.305,1.013,0.305c0.44,0,0.831-0.097,1.175-0.289c0.342-0.192,0.594-0.456,0.755-0.791
				c0.122-0.258,0.185-0.639,0.185-1.143V57.395z"/>
			<path fill="#282828" d="M512.217,58.309l1.124,0.146c-0.122,0.774-0.437,1.381-0.942,1.818c-0.506,0.438-1.127,0.657-1.863,0.657
				c-0.922,0-1.664-0.302-2.225-0.904c-0.561-0.604-0.842-1.468-0.842-2.594c0-0.728,0.121-1.364,0.362-1.91
				s0.608-0.955,1.102-1.229c0.493-0.272,1.029-0.409,1.608-0.409c0.732,0,1.332,0.186,1.797,0.556s0.764,0.896,0.895,1.577
				l-1.11,0.171c-0.106-0.452-0.293-0.793-0.562-1.021c-0.27-0.229-0.594-0.343-0.975-0.343c-0.576,0-1.043,0.206-1.402,0.619
				c-0.36,0.412-0.54,1.065-0.54,1.958c0,0.905,0.173,1.563,0.521,1.975c0.348,0.41,0.8,0.615,1.358,0.615
				c0.448,0,0.823-0.138,1.124-0.412C511.946,59.303,512.136,58.879,512.217,58.309z"/>
			<path fill="#282828" d="M514.318,60.777v-9.306h1.143v3.339c0.533-0.618,1.206-0.927,2.019-0.927
				c0.499,0,0.933,0.099,1.302,0.295c0.367,0.197,0.631,0.469,0.79,0.815c0.158,0.348,0.237,0.852,0.237,1.512v4.271h-1.143v-4.271
				c0-0.572-0.123-0.987-0.371-1.248c-0.247-0.26-0.598-0.391-1.051-0.391c-0.338,0-0.656,0.088-0.955,0.264
				c-0.298,0.176-0.511,0.414-0.638,0.715c-0.127,0.3-0.19,0.715-0.19,1.244v3.688H514.318z"/>
			<path fill="#282828" d="M521.554,52.785v-1.313h1.143v1.313H521.554z M521.554,60.777v-6.741h1.143v6.741H521.554z"/>
			<path fill="#282828" d="M524.436,60.777v-6.741h1.028v0.958c0.495-0.74,1.211-1.11,2.146-1.11c0.406,0,0.78,0.073,1.12,0.219
				c0.341,0.146,0.596,0.338,0.766,0.575c0.169,0.236,0.287,0.518,0.355,0.844c0.042,0.212,0.063,0.582,0.063,1.111v4.145h-1.143
				v-4.101c0-0.466-0.044-0.813-0.133-1.044s-0.246-0.415-0.473-0.553s-0.492-0.206-0.797-0.206c-0.486,0-0.906,0.154-1.26,0.464
				c-0.354,0.309-0.53,0.895-0.53,1.758v3.682H524.436z"/>
			<path fill="#282828" d="M531.457,61.336l1.111,0.165c0.046,0.343,0.176,0.593,0.387,0.749c0.283,0.212,0.671,0.317,1.162,0.317
				c0.528,0,0.938-0.105,1.225-0.317s0.482-0.508,0.584-0.889c0.059-0.232,0.087-0.722,0.082-1.467
				c-0.499,0.589-1.121,0.883-1.865,0.883c-0.928,0-1.645-0.334-2.152-1.003s-0.762-1.471-0.762-2.405
				c0-0.644,0.116-1.237,0.35-1.781c0.232-0.544,0.57-0.964,1.012-1.26c0.442-0.296,0.962-0.444,1.559-0.444
				c0.795,0,1.451,0.321,1.968,0.965v-0.813h1.054v5.827c0,1.05-0.107,1.793-0.32,2.231c-0.214,0.438-0.553,0.784-1.016,1.038
				c-0.464,0.254-1.033,0.381-1.711,0.381c-0.805,0-1.453-0.182-1.949-0.543C531.679,62.608,531.439,62.063,531.457,61.336z
				 M532.402,57.286c0,0.885,0.176,1.53,0.527,1.937s0.791,0.609,1.32,0.609c0.525,0,0.965-0.202,1.32-0.606
				s0.533-1.038,0.533-1.901c0-0.825-0.184-1.447-0.549-1.866c-0.366-0.419-0.808-0.628-1.324-0.628
				c-0.508,0-0.939,0.206-1.295,0.618C532.58,55.861,532.402,56.474,532.402,57.286z"/>
			<path fill="#282828" d="M539.214,55.338v-1.302h1.302v1.302H539.214z M539.214,60.777v-1.301h1.302v1.301H539.214z"/>
		</g>
	</g>
	<g>
		<g enable-background="new    ">
			<path fill="#282828" d="M490.947,119.743v-9.306h1.854l2.202,6.589c0.203,0.613,0.351,1.072,0.444,1.377
				c0.105-0.338,0.271-0.835,0.495-1.491l2.228-6.475h1.657v9.306h-1.187v-7.789l-2.705,7.789h-1.11l-2.691-7.922v7.922H490.947z"/>
			<path fill="#282828" d="M501.242,116.372c0-1.248,0.348-2.173,1.041-2.773c0.58-0.499,1.287-0.749,2.121-0.749
				c0.926,0,1.684,0.304,2.271,0.911c0.589,0.607,0.883,1.446,0.883,2.517c0,0.867-0.131,1.55-0.391,2.047s-0.639,0.884-1.137,1.159
				c-0.496,0.274-1.039,0.412-1.627,0.412c-0.944,0-1.707-0.303-2.289-0.908C501.533,118.383,501.242,117.511,501.242,116.372z
				 M502.417,116.372c0,0.863,0.188,1.51,0.565,1.939c0.376,0.43,0.85,0.645,1.422,0.645c0.566,0,1.039-0.216,1.415-0.647
				s0.565-1.09,0.565-1.974c0-0.834-0.189-1.466-0.568-1.896s-0.85-0.644-1.412-0.644c-0.572,0-1.046,0.213-1.422,0.641
				C502.605,114.864,502.417,115.509,502.417,116.372z"/>
			<path fill="#282828" d="M513.271,119.743v-0.851c-0.428,0.669-1.056,1.003-1.885,1.003c-0.538,0-1.031-0.148-1.482-0.444
				s-0.801-0.71-1.047-1.241c-0.248-0.531-0.372-1.142-0.372-1.831c0-0.673,0.112-1.283,0.337-1.831
				c0.224-0.548,0.561-0.969,1.009-1.26c0.448-0.293,0.95-0.438,1.505-0.438c0.406,0,0.768,0.086,1.085,0.257
				c0.317,0.172,0.575,0.395,0.774,0.67v-3.339h1.137v9.306H513.271z M509.66,116.379c0,0.863,0.182,1.509,0.545,1.937
				c0.364,0.427,0.794,0.641,1.289,0.641c0.5,0,0.924-0.204,1.273-0.612c0.348-0.408,0.523-1.032,0.523-1.87
				c0-0.922-0.178-1.6-0.533-2.031s-0.794-0.646-1.314-0.646c-0.508,0-0.932,0.207-1.273,0.621
				C509.83,114.832,509.66,115.486,509.66,116.379z"/>
			<path fill="#282828" d="M520.742,117.572l1.182,0.146c-0.187,0.69-0.531,1.226-1.035,1.606s-1.146,0.571-1.93,0.571
				c-0.986,0-1.768-0.304-2.346-0.911s-0.866-1.459-0.866-2.555c0-1.134,0.292-2.015,0.876-2.641s1.342-0.939,2.272-0.939
				c0.901,0,1.638,0.307,2.209,0.921c0.571,0.613,0.856,1.477,0.856,2.59c0,0.067-0.002,0.169-0.006,0.305h-5.027
				c0.043,0.74,0.252,1.307,0.629,1.701c0.376,0.393,0.846,0.59,1.408,0.59c0.42,0,0.777-0.11,1.073-0.33
				S520.569,118.055,520.742,117.572z M516.991,115.726h3.765c-0.051-0.567-0.195-0.993-0.432-1.276
				c-0.364-0.44-0.836-0.66-1.416-0.66c-0.525,0-0.966,0.176-1.324,0.526C517.226,114.667,517.029,115.137,516.991,115.726z"/>
			<path fill="#282828" d="M523.332,119.743v-9.306h1.143v9.306H523.332z"/>
		</g>
		<g enable-background="new    ">
			<path fill="#282828" d="M480.865,136.343v-9.306h3.511c0.618,0,1.09,0.029,1.415,0.089c0.457,0.076,0.84,0.221,1.149,0.435
				s0.558,0.514,0.745,0.898c0.189,0.385,0.283,0.809,0.283,1.27c0,0.791-0.252,1.461-0.756,2.009
				c-0.503,0.548-1.413,0.822-2.729,0.822h-2.387v3.783H480.865z M482.097,131.462h2.405c0.796,0,1.36-0.148,1.694-0.445
				c0.335-0.296,0.502-0.713,0.502-1.25c0-0.39-0.098-0.723-0.295-1s-0.456-0.46-0.777-0.549c-0.208-0.055-0.591-0.082-1.149-0.082
				h-2.38V131.462z"/>
			<path fill="#282828" d="M489.378,136.343v-6.741h1.028v1.022c0.262-0.479,0.504-0.794,0.727-0.946s0.467-0.229,0.733-0.229
				c0.386,0,0.776,0.123,1.175,0.368l-0.395,1.061c-0.279-0.166-0.559-0.248-0.838-0.248c-0.249,0-0.474,0.075-0.672,0.226
				c-0.199,0.15-0.342,0.358-0.426,0.625c-0.127,0.406-0.19,0.851-0.19,1.333v3.529H489.378z"/>
			<path fill="#282828" d="M493.295,132.972c0-1.248,0.347-2.173,1.041-2.773c0.579-0.499,1.286-0.749,2.119-0.749
				c0.928,0,1.685,0.304,2.273,0.911c0.588,0.607,0.882,1.446,0.882,2.517c0,0.867-0.13,1.55-0.39,2.047
				c-0.262,0.497-0.64,0.884-1.137,1.159c-0.498,0.274-1.04,0.412-1.629,0.412c-0.943,0-1.706-0.303-2.287-0.908
				C493.586,134.982,493.295,134.11,493.295,132.972z M494.469,132.972c0,0.863,0.188,1.51,0.564,1.939
				c0.377,0.43,0.852,0.645,1.422,0.645c0.567,0,1.039-0.216,1.416-0.647s0.564-1.09,0.564-1.974c0-0.834-0.189-1.466-0.568-1.896
				c-0.378-0.43-0.849-0.644-1.412-0.644c-0.57,0-1.045,0.213-1.422,0.641C494.657,131.464,494.469,132.108,494.469,132.972z"/>
			<path fill="#282828" d="M503.444,135.321l0.165,1.009c-0.322,0.067-0.609,0.102-0.863,0.102c-0.414,0-0.736-0.065-0.965-0.196
				c-0.229-0.132-0.389-0.304-0.482-0.518s-0.14-0.664-0.14-1.35v-3.878h-0.838v-0.889h0.838v-1.669l1.136-0.686v2.354h1.149v0.889
				h-1.149v3.942c0,0.325,0.021,0.535,0.061,0.628c0.041,0.093,0.105,0.167,0.197,0.222c0.091,0.056,0.221,0.083,0.391,0.083
				C503.07,135.365,503.236,135.351,503.444,135.321z"/>
			<path fill="#282828" d="M504.136,132.972c0-1.248,0.347-2.173,1.041-2.773c0.579-0.499,1.286-0.749,2.119-0.749
				c0.928,0,1.685,0.304,2.273,0.911c0.588,0.607,0.882,1.446,0.882,2.517c0,0.867-0.13,1.55-0.39,2.047
				c-0.262,0.497-0.64,0.884-1.137,1.159c-0.498,0.274-1.04,0.412-1.629,0.412c-0.943,0-1.706-0.303-2.287-0.908
				C504.427,134.982,504.136,134.11,504.136,132.972z M505.31,132.972c0,0.863,0.188,1.51,0.564,1.939
				c0.377,0.43,0.852,0.645,1.422,0.645c0.567,0,1.039-0.216,1.416-0.647s0.564-1.09,0.564-1.974c0-0.834-0.189-1.466-0.568-1.896
				c-0.378-0.43-0.849-0.644-1.412-0.644c-0.57,0-1.045,0.213-1.422,0.641C505.499,131.464,505.31,132.108,505.31,132.972z"/>
			<path fill="#282828" d="M514.286,135.321l0.165,1.009c-0.322,0.067-0.609,0.102-0.863,0.102c-0.414,0-0.736-0.065-0.965-0.196
				c-0.229-0.132-0.389-0.304-0.482-0.518s-0.14-0.664-0.14-1.35v-3.878h-0.838v-0.889h0.838v-1.669l1.136-0.686v2.354h1.149v0.889
				h-1.149v3.942c0,0.325,0.021,0.535,0.061,0.628c0.041,0.093,0.105,0.167,0.197,0.222c0.091,0.056,0.221,0.083,0.391,0.083
				C513.912,135.365,514.078,135.351,514.286,135.321z"/>
			<path fill="#282828" d="M515.352,138.938l-0.127-1.072c0.249,0.067,0.468,0.102,0.653,0.102c0.254,0,0.457-0.042,0.609-0.127
				s0.277-0.203,0.375-0.355c0.072-0.114,0.188-0.397,0.35-0.851c0.021-0.063,0.055-0.156,0.102-0.279l-2.559-6.754h1.231
				l1.403,3.903c0.182,0.496,0.344,1.016,0.488,1.563c0.131-0.525,0.287-1.037,0.47-1.537l1.44-3.929h1.143l-2.564,6.855
				c-0.274,0.74-0.488,1.251-0.641,1.53c-0.203,0.376-0.436,0.652-0.698,0.828s-0.575,0.264-0.939,0.264
				C515.869,139.079,515.623,139.032,515.352,138.938z"/>
			<path fill="#282828" d="M521.903,138.927v-9.325h1.041v0.876c0.245-0.343,0.522-0.6,0.831-0.771
				c0.31-0.171,0.684-0.257,1.124-0.257c0.575,0,1.083,0.148,1.523,0.444s0.772,0.714,0.997,1.254
				c0.224,0.539,0.336,1.131,0.336,1.773c0,0.69-0.123,1.312-0.371,1.863c-0.248,0.553-0.607,0.976-1.08,1.27
				c-0.471,0.294-0.967,0.441-1.488,0.441c-0.381,0-0.723-0.08-1.025-0.241c-0.302-0.161-0.551-0.364-0.745-0.609v3.282H521.903z
				 M522.937,133.011c0,0.867,0.176,1.508,0.527,1.923s0.776,0.622,1.275,0.622c0.508,0,0.943-0.215,1.305-0.645
				s0.543-1.095,0.543-1.996c0-0.859-0.177-1.502-0.529-1.93c-0.354-0.428-0.776-0.641-1.268-0.641
				c-0.486,0-0.916,0.227-1.291,0.682S522.937,132.143,522.937,133.011z"/>
			<path fill="#282828" d="M533.748,134.172l1.181,0.146c-0.187,0.69-0.531,1.226-1.034,1.606c-0.504,0.381-1.147,0.571-1.93,0.571
				c-0.986,0-1.768-0.304-2.346-0.911s-0.867-1.459-0.867-2.555c0-1.134,0.293-2.015,0.877-2.641s1.341-0.939,2.271-0.939
				c0.902,0,1.639,0.307,2.209,0.921c0.572,0.613,0.857,1.477,0.857,2.59c0,0.067-0.002,0.169-0.006,0.305h-5.027
				c0.042,0.74,0.252,1.307,0.628,1.701c0.376,0.393,0.847,0.59,1.409,0.59c0.419,0,0.776-0.11,1.072-0.33
				C533.34,135.006,533.574,134.654,533.748,134.172z M529.996,132.325h3.765c-0.051-0.567-0.194-0.993-0.432-1.276
				c-0.364-0.44-0.836-0.66-1.415-0.66c-0.525,0-0.967,0.176-1.324,0.526C530.232,131.267,530.035,131.736,529.996,132.325z"/>
		</g>
		<g enable-background="new    ">
			<path fill="#282828" d="M464.623,152.944v-9.306h4.126c0.829,0,1.46,0.084,1.892,0.251s0.776,0.462,1.035,0.885
				c0.258,0.424,0.387,0.892,0.387,1.403c0,0.66-0.214,1.217-0.641,1.669c-0.428,0.453-1.088,0.741-1.98,0.863
				c0.325,0.157,0.572,0.312,0.742,0.464c0.359,0.33,0.7,0.743,1.021,1.237l1.619,2.533h-1.549l-1.231-1.936
				c-0.36-0.559-0.655-0.986-0.889-1.283c-0.233-0.296-0.44-0.503-0.626-0.621c-0.184-0.119-0.371-0.201-0.561-0.248
				c-0.141-0.029-0.369-0.045-0.686-0.045h-1.429v4.133H464.623z M465.854,147.745h2.647c0.563,0,1.002-0.058,1.32-0.174
				c0.316-0.116,0.559-0.303,0.723-0.559c0.166-0.256,0.248-0.534,0.248-0.835c0-0.44-0.16-0.802-0.479-1.085
				c-0.32-0.284-0.824-0.426-1.515-0.426h-2.945V147.745z"/>
			<path fill="#282828" d="M478.461,150.773l1.181,0.146c-0.187,0.69-0.531,1.226-1.034,1.606c-0.504,0.381-1.147,0.571-1.93,0.571
				c-0.986,0-1.768-0.304-2.346-0.911s-0.867-1.459-0.867-2.555c0-1.134,0.293-2.015,0.877-2.641s1.341-0.939,2.271-0.939
				c0.902,0,1.639,0.307,2.209,0.921c0.572,0.613,0.857,1.477,0.857,2.59c0,0.067-0.002,0.169-0.006,0.305h-5.027
				c0.042,0.74,0.252,1.307,0.628,1.701c0.376,0.393,0.847,0.59,1.409,0.59c0.419,0,0.776-0.11,1.072-0.33
				C478.052,151.607,478.287,151.256,478.461,150.773z M474.709,148.927h3.765c-0.051-0.567-0.194-0.993-0.432-1.276
				c-0.364-0.44-0.836-0.66-1.415-0.66c-0.525,0-0.967,0.176-1.324,0.526C474.945,147.868,474.748,148.338,474.709,148.927z"/>
			<path fill="#282828" d="M481.076,155.528v-9.325h1.041v0.876c0.246-0.343,0.522-0.6,0.832-0.771
				c0.309-0.171,0.684-0.257,1.123-0.257c0.576,0,1.084,0.148,1.523,0.444s0.772,0.714,0.996,1.254
				c0.225,0.539,0.337,1.131,0.337,1.773c0,0.69-0.124,1.312-0.372,1.863c-0.246,0.553-0.606,0.976-1.078,1.27
				c-0.473,0.294-0.969,0.441-1.488,0.441c-0.381,0-0.723-0.08-1.025-0.241s-0.551-0.364-0.746-0.609v3.282H481.076z
				 M482.111,149.612c0,0.867,0.176,1.508,0.526,1.923s0.776,0.622,1.276,0.622c0.508,0,0.941-0.215,1.305-0.645
				c0.361-0.43,0.542-1.095,0.542-1.996c0-0.859-0.177-1.502-0.53-1.93s-0.775-0.641-1.266-0.641c-0.487,0-0.918,0.227-1.293,0.682
				C482.299,148.083,482.111,148.744,482.111,149.612z"/>
			<path fill="#282828" d="M488.293,152.944v-6.741h1.029v1.022c0.262-0.479,0.504-0.794,0.727-0.946s0.467-0.229,0.732-0.229
				c0.386,0,0.777,0.123,1.175,0.368l-0.394,1.061c-0.279-0.166-0.559-0.248-0.838-0.248c-0.25,0-0.475,0.075-0.673,0.226
				s-0.341,0.358-0.425,0.625c-0.127,0.406-0.191,0.851-0.191,1.333v3.529H488.293z"/>
			<path fill="#282828" d="M497.25,150.773l1.181,0.146c-0.187,0.69-0.531,1.226-1.034,1.606c-0.504,0.381-1.147,0.571-1.93,0.571
				c-0.986,0-1.768-0.304-2.346-0.911s-0.867-1.459-0.867-2.555c0-1.134,0.293-2.015,0.877-2.641s1.341-0.939,2.271-0.939
				c0.902,0,1.639,0.307,2.209,0.921c0.572,0.613,0.857,1.477,0.857,2.59c0,0.067-0.002,0.169-0.006,0.305h-5.027
				c0.042,0.74,0.252,1.307,0.628,1.701c0.376,0.393,0.847,0.59,1.409,0.59c0.419,0,0.776-0.11,1.072-0.33
				C496.842,151.607,497.076,151.256,497.25,150.773z M493.498,148.927h3.765c-0.051-0.567-0.194-0.993-0.432-1.276
				c-0.364-0.44-0.836-0.66-1.415-0.66c-0.525,0-0.967,0.176-1.324,0.526C493.734,147.868,493.537,148.338,493.498,148.927z"/>
			<path fill="#282828" d="M499.408,150.933l1.13-0.178c0.063,0.452,0.24,0.799,0.53,1.041c0.289,0.24,0.695,0.361,1.215,0.361
				c0.525,0,0.914-0.106,1.168-0.32s0.381-0.465,0.381-0.752c0-0.259-0.111-0.462-0.336-0.609c-0.156-0.102-0.546-0.231-1.168-0.388
				c-0.838-0.212-1.418-0.395-1.742-0.549s-0.569-0.368-0.736-0.642c-0.168-0.272-0.251-0.574-0.251-0.904
				c0-0.301,0.069-0.579,0.206-0.835c0.138-0.256,0.325-0.469,0.563-0.638c0.178-0.131,0.42-0.242,0.727-0.333
				s0.636-0.137,0.986-0.137c0.529,0,0.994,0.076,1.395,0.229c0.398,0.152,0.694,0.358,0.885,0.619
				c0.19,0.26,0.322,0.608,0.394,1.044l-1.117,0.152c-0.051-0.347-0.198-0.618-0.44-0.813c-0.244-0.194-0.588-0.292-1.032-0.292
				c-0.524,0-0.899,0.087-1.124,0.261c-0.224,0.173-0.336,0.376-0.336,0.609c0,0.147,0.047,0.281,0.14,0.399
				c0.093,0.123,0.239,0.225,0.438,0.305c0.113,0.042,0.45,0.14,1.009,0.292c0.808,0.216,1.372,0.393,1.692,0.53
				c0.318,0.138,0.569,0.337,0.752,0.6c0.182,0.263,0.272,0.588,0.272,0.978c0,0.381-0.11,0.739-0.333,1.076
				c-0.223,0.336-0.543,0.597-0.962,0.78c-0.419,0.185-0.894,0.276-1.422,0.276c-0.876,0-1.544-0.182-2.003-0.546
				S499.535,151.647,499.408,150.933z"/>
			<path fill="#282828" d="M510.98,150.773l1.18,0.146c-0.186,0.69-0.531,1.226-1.034,1.606s-1.147,0.571-1.93,0.571
				c-0.985,0-1.769-0.304-2.345-0.911c-0.578-0.607-0.867-1.459-0.867-2.555c0-1.134,0.292-2.015,0.876-2.641
				s1.341-0.939,2.272-0.939c0.901,0,1.638,0.307,2.209,0.921c0.571,0.613,0.857,1.477,0.857,2.59c0,0.067-0.002,0.169-0.007,0.305
				h-5.027c0.042,0.74,0.252,1.307,0.628,1.701c0.377,0.393,0.847,0.59,1.41,0.59c0.418,0,0.775-0.11,1.072-0.33
				S510.806,151.256,510.98,150.773z M507.228,148.927h3.764c-0.051-0.567-0.194-0.993-0.432-1.276
				c-0.363-0.44-0.836-0.66-1.415-0.66c-0.524,0-0.966,0.176-1.323,0.526C507.465,147.868,507.266,148.338,507.228,148.927z"/>
			<path fill="#282828" d="M513.595,152.944v-6.741h1.027v0.958c0.496-0.74,1.211-1.11,2.146-1.11c0.406,0,0.779,0.073,1.119,0.219
				c0.342,0.146,0.596,0.338,0.766,0.575c0.17,0.236,0.287,0.518,0.355,0.844c0.043,0.212,0.063,0.582,0.063,1.111v4.145h-1.143
				v-4.101c0-0.466-0.044-0.813-0.134-1.044c-0.088-0.23-0.246-0.415-0.473-0.553s-0.492-0.206-0.797-0.206
				c-0.486,0-0.906,0.154-1.26,0.464c-0.354,0.309-0.529,0.895-0.529,1.758v3.682H513.595z"/>
			<path fill="#282828" d="M523.32,151.923l0.164,1.009c-0.321,0.067-0.609,0.102-0.863,0.102c-0.414,0-0.736-0.065-0.965-0.196
				c-0.229-0.132-0.389-0.304-0.482-0.518c-0.093-0.214-0.139-0.664-0.139-1.35v-3.878h-0.838v-0.889h0.838v-1.669l1.136-0.686
				v2.354h1.149v0.889h-1.149v3.942c0,0.325,0.021,0.535,0.06,0.628c0.041,0.093,0.106,0.167,0.197,0.222
				c0.092,0.056,0.221,0.083,0.391,0.083C522.945,151.967,523.112,151.952,523.32,151.923z"/>
			<path fill="#282828" d="M528.836,152.112c-0.424,0.36-0.83,0.614-1.223,0.762c-0.391,0.148-0.811,0.223-1.26,0.223
				c-0.74,0-1.309-0.181-1.707-0.543c-0.398-0.361-0.597-0.824-0.597-1.387c0-0.33,0.075-0.632,0.226-0.904
				c0.15-0.273,0.347-0.492,0.59-0.657c0.244-0.165,0.518-0.29,0.822-0.374c0.225-0.06,0.563-0.117,1.016-0.172
				c0.922-0.11,1.602-0.241,2.037-0.394c0.005-0.156,0.007-0.256,0.007-0.298c0-0.466-0.108-0.794-0.323-0.984
				c-0.293-0.258-0.727-0.387-1.302-0.387c-0.538,0-0.935,0.094-1.19,0.282s-0.445,0.521-0.568,0.999l-1.117-0.152
				c0.102-0.478,0.27-0.864,0.502-1.158s0.569-0.521,1.01-0.679c0.439-0.159,0.949-0.238,1.529-0.238
				c0.576,0,1.043,0.067,1.402,0.203c0.36,0.136,0.625,0.306,0.794,0.511s0.288,0.465,0.355,0.777
				c0.038,0.195,0.058,0.547,0.058,1.055v1.523c0,1.062,0.023,1.733,0.072,2.015s0.145,0.552,0.289,0.81h-1.193
				C528.945,152.707,528.869,152.431,528.836,152.112z M528.74,149.562c-0.414,0.169-1.036,0.313-1.865,0.432
				c-0.471,0.067-0.803,0.144-0.997,0.229c-0.194,0.084-0.345,0.208-0.45,0.371c-0.106,0.163-0.159,0.344-0.159,0.543
				c0,0.305,0.115,0.559,0.347,0.762c0.23,0.203,0.567,0.305,1.012,0.305c0.439,0,0.832-0.097,1.174-0.289
				c0.344-0.192,0.596-0.456,0.756-0.791c0.123-0.258,0.184-0.639,0.184-1.143V149.562z"/>
			<path fill="#282828" d="M534.162,151.923l0.164,1.009c-0.321,0.067-0.609,0.102-0.863,0.102c-0.414,0-0.736-0.065-0.965-0.196
				c-0.229-0.132-0.389-0.304-0.482-0.518c-0.093-0.214-0.139-0.664-0.139-1.35v-3.878h-0.838v-0.889h0.838v-1.669l1.136-0.686
				v2.354h1.149v0.889h-1.149v3.942c0,0.325,0.021,0.535,0.06,0.628c0.041,0.093,0.106,0.167,0.197,0.222
				c0.092,0.056,0.221,0.083,0.391,0.083C533.787,151.967,533.954,151.952,534.162,151.923z"/>
			<path fill="#282828" d="M535.285,144.952v-1.313h1.143v1.313H535.285z M535.285,152.944v-6.741h1.143v6.741H535.285z"/>
			<path fill="#282828" d="M537.742,149.573c0-1.248,0.347-2.173,1.041-2.773c0.579-0.499,1.286-0.749,2.119-0.749
				c0.928,0,1.685,0.304,2.273,0.911c0.588,0.607,0.882,1.446,0.882,2.517c0,0.867-0.13,1.55-0.39,2.047
				c-0.262,0.497-0.64,0.884-1.137,1.159c-0.498,0.274-1.04,0.412-1.629,0.412c-0.943,0-1.706-0.303-2.287-0.908
				C538.033,151.584,537.742,150.712,537.742,149.573z M538.916,149.573c0,0.863,0.188,1.51,0.564,1.939
				c0.377,0.43,0.852,0.645,1.422,0.645c0.567,0,1.039-0.216,1.416-0.647s0.564-1.09,0.564-1.974c0-0.834-0.189-1.466-0.568-1.896
				c-0.378-0.43-0.849-0.644-1.412-0.644c-0.57,0-1.045,0.213-1.422,0.641C539.104,148.065,538.916,148.71,538.916,149.573z"/>
			<path fill="#282828" d="M545.396,152.944v-6.741h1.029v0.958c0.494-0.74,1.21-1.11,2.145-1.11c0.406,0,0.78,0.073,1.121,0.219
				c0.34,0.146,0.596,0.338,0.765,0.575c0.169,0.236,0.288,0.518,0.355,0.844c0.042,0.212,0.063,0.582,0.063,1.111v4.145h-1.143
				v-4.101c0-0.466-0.045-0.813-0.133-1.044c-0.09-0.23-0.247-0.415-0.473-0.553c-0.227-0.138-0.492-0.206-0.797-0.206
				c-0.487,0-0.907,0.154-1.26,0.464c-0.354,0.309-0.531,0.895-0.531,1.758v3.682H545.396z"/>
		</g>
	</g>
	<g>
		<g enable-background="new    ">
			<path fill="#282828" d="M441.797,212.835v-9.306h3.49c0.711,0,1.281,0.094,1.711,0.282s0.766,0.479,1.01,0.87
				c0.243,0.392,0.365,0.801,0.365,1.228c0,0.398-0.108,0.772-0.324,1.124s-0.541,0.635-0.978,0.851
				c0.563,0.165,0.995,0.446,1.298,0.844c0.303,0.398,0.454,0.868,0.454,1.41c0,0.436-0.093,0.841-0.276,1.215
				c-0.184,0.375-0.411,0.664-0.682,0.867c-0.271,0.203-0.611,0.356-1.02,0.46s-0.908,0.155-1.501,0.155H441.797z M443.027,207.439
				h2.013c0.546,0,0.938-0.036,1.175-0.108c0.313-0.093,0.549-0.247,0.707-0.463s0.238-0.486,0.238-0.813
				c0-0.309-0.074-0.581-0.223-0.815c-0.147-0.235-0.359-0.396-0.635-0.482c-0.274-0.087-0.746-0.13-1.415-0.13h-1.86V207.439z
				 M443.027,211.737h2.317c0.397,0,0.677-0.016,0.838-0.045c0.284-0.051,0.521-0.136,0.711-0.254s0.347-0.291,0.47-0.518
				s0.184-0.487,0.184-0.783c0-0.348-0.088-0.649-0.266-0.905s-0.425-0.436-0.74-0.539c-0.314-0.104-0.77-0.155-1.361-0.155h-2.152
				V211.737z"/>
			<path fill="#282828" d="M454.986,210.664l1.182,0.146c-0.187,0.69-0.531,1.226-1.035,1.606s-1.146,0.571-1.93,0.571
				c-0.986,0-1.768-0.304-2.346-0.911s-0.866-1.459-0.866-2.555c0-1.134,0.292-2.015,0.876-2.641s1.342-0.939,2.272-0.939
				c0.901,0,1.638,0.307,2.209,0.921c0.571,0.613,0.856,1.477,0.856,2.59c0,0.067-0.002,0.169-0.006,0.305h-5.027
				c0.043,0.74,0.252,1.307,0.629,1.701c0.376,0.393,0.846,0.59,1.408,0.59c0.42,0,0.777-0.11,1.073-0.33
				S454.813,211.146,454.986,210.664z M451.235,208.817H455c-0.051-0.567-0.195-0.993-0.432-1.276
				c-0.364-0.44-0.836-0.66-1.416-0.66c-0.525,0-0.966,0.176-1.324,0.526C451.47,207.759,451.273,208.229,451.235,208.817z"/>
			<path fill="#282828" d="M457.875,212.835v-5.853h-1.01v-0.889h1.01v-0.718c0-0.452,0.04-0.789,0.121-1.009
				c0.109-0.296,0.303-0.536,0.58-0.721c0.277-0.184,0.666-0.276,1.165-0.276c0.321,0,0.677,0.039,1.066,0.115l-0.171,0.996
				c-0.237-0.042-0.462-0.063-0.674-0.063c-0.347,0-0.592,0.074-0.736,0.222c-0.144,0.148-0.215,0.426-0.215,0.832v0.622h1.313
				v0.889h-1.313v5.853H457.875z"/>
			<path fill="#282828" d="M460.789,209.464c0-1.248,0.347-2.173,1.041-2.773c0.579-0.499,1.286-0.749,2.119-0.749
				c0.928,0,1.685,0.304,2.273,0.911c0.588,0.607,0.882,1.446,0.882,2.517c0,0.867-0.13,1.55-0.39,2.047
				c-0.262,0.497-0.64,0.884-1.137,1.159c-0.498,0.274-1.04,0.412-1.629,0.412c-0.943,0-1.706-0.303-2.287-0.908
				C461.08,211.475,460.789,210.603,460.789,209.464z M461.963,209.464c0,0.863,0.188,1.51,0.564,1.939
				c0.377,0.43,0.852,0.645,1.422,0.645c0.567,0,1.039-0.216,1.416-0.647s0.564-1.09,0.564-1.974c0-0.834-0.189-1.466-0.568-1.896
				c-0.378-0.43-0.849-0.644-1.412-0.644c-0.57,0-1.045,0.213-1.422,0.641C462.151,207.956,461.963,208.601,461.963,209.464z"/>
			<path fill="#282828" d="M468.431,212.835v-6.741h1.027v1.022c0.263-0.479,0.506-0.794,0.727-0.946
				c0.223-0.152,0.467-0.229,0.734-0.229c0.385,0,0.775,0.123,1.174,0.368l-0.394,1.061c-0.279-0.166-0.559-0.248-0.838-0.248
				c-0.249,0-0.474,0.075-0.673,0.226s-0.341,0.358-0.426,0.625c-0.127,0.406-0.189,0.851-0.189,1.333v3.529H468.431z"/>
			<path fill="#282828" d="M477.387,210.664l1.181,0.146c-0.186,0.69-0.531,1.226-1.035,1.606c-0.503,0.381-1.146,0.571-1.93,0.571
				c-0.985,0-1.768-0.304-2.346-0.911c-0.576-0.607-0.865-1.459-0.865-2.555c0-1.134,0.291-2.015,0.875-2.641
				s1.342-0.939,2.273-0.939c0.9,0,1.637,0.307,2.209,0.921c0.57,0.613,0.856,1.477,0.856,2.59c0,0.067-0.002,0.169-0.007,0.305
				h-5.027c0.043,0.74,0.252,1.307,0.629,1.701c0.377,0.393,0.846,0.59,1.409,0.59c0.419,0,0.776-0.11,1.073-0.33
				C476.979,211.498,477.215,211.146,477.387,210.664z M473.636,208.817h3.764c-0.051-0.567-0.195-0.993-0.432-1.276
				c-0.363-0.44-0.836-0.66-1.416-0.66c-0.524,0-0.965,0.176-1.322,0.526C473.872,207.759,473.674,208.229,473.636,208.817z"/>
			<path fill="#282828" d="M483.621,204.843v-1.313h1.143v1.313H483.621z M483.621,212.835v-6.741h1.143v6.741H483.621z"/>
			<path fill="#282828" d="M486.503,212.835v-6.741h1.022v0.946c0.211-0.33,0.492-0.596,0.844-0.797s0.751-0.302,1.199-0.302
				c0.5,0,0.909,0.104,1.229,0.312c0.32,0.207,0.545,0.497,0.676,0.869c0.533-0.787,1.228-1.181,2.082-1.181
				c0.669,0,1.184,0.186,1.543,0.556s0.539,0.94,0.539,1.711v4.627h-1.136v-4.246c0-0.457-0.037-0.786-0.11-0.987
				c-0.074-0.201-0.209-0.363-0.404-0.485c-0.194-0.123-0.423-0.185-0.686-0.185c-0.474,0-0.867,0.157-1.18,0.473
				c-0.313,0.315-0.471,0.82-0.471,1.515v3.916h-1.143v-4.38c0-0.508-0.093-0.889-0.279-1.143c-0.186-0.254-0.49-0.381-0.914-0.381
				c-0.321,0-0.619,0.085-0.891,0.254c-0.273,0.169-0.472,0.417-0.594,0.743c-0.123,0.325-0.185,0.795-0.185,1.408v3.498H486.503z"
				/>
			<path fill="#282828" d="M497.332,215.419v-9.325h1.041v0.876c0.246-0.343,0.522-0.6,0.832-0.771
				c0.309-0.171,0.684-0.257,1.123-0.257c0.576,0,1.084,0.148,1.523,0.444s0.772,0.714,0.996,1.254
				c0.225,0.539,0.337,1.131,0.337,1.773c0,0.69-0.124,1.312-0.372,1.863c-0.246,0.553-0.606,0.976-1.078,1.27
				c-0.473,0.294-0.969,0.441-1.488,0.441c-0.381,0-0.723-0.08-1.025-0.241s-0.551-0.364-0.746-0.609v3.282H497.332z
				 M498.367,209.503c0,0.867,0.176,1.508,0.526,1.923s0.776,0.622,1.276,0.622c0.508,0,0.941-0.215,1.305-0.645
				c0.361-0.43,0.542-1.095,0.542-1.996c0-0.859-0.177-1.502-0.53-1.93s-0.775-0.641-1.266-0.641c-0.487,0-0.918,0.227-1.293,0.682
				C498.554,207.974,498.367,208.635,498.367,209.503z"/>
			<path fill="#282828" d="M504.537,212.835v-9.306h1.143v9.306H504.537z"/>
			<path fill="#282828" d="M512.064,210.664l1.182,0.146c-0.187,0.69-0.531,1.226-1.035,1.606s-1.146,0.571-1.93,0.571
				c-0.986,0-1.768-0.304-2.346-0.911s-0.866-1.459-0.866-2.555c0-1.134,0.292-2.015,0.876-2.641s1.342-0.939,2.272-0.939
				c0.901,0,1.638,0.307,2.209,0.921c0.571,0.613,0.856,1.477,0.856,2.59c0,0.067-0.002,0.169-0.006,0.305h-5.027
				c0.043,0.74,0.252,1.307,0.629,1.701c0.376,0.393,0.846,0.59,1.408,0.59c0.42,0,0.777-0.11,1.073-0.33
				S511.891,211.146,512.064,210.664z M508.313,208.817h3.765c-0.051-0.567-0.195-0.993-0.432-1.276
				c-0.364-0.44-0.836-0.66-1.416-0.66c-0.525,0-0.966,0.176-1.324,0.526C508.549,207.759,508.351,208.229,508.313,208.817z"/>
			<path fill="#282828" d="M514.679,212.835v-6.741h1.022v0.946c0.212-0.33,0.493-0.596,0.845-0.797
				c0.351-0.201,0.75-0.302,1.199-0.302c0.5,0,0.908,0.104,1.229,0.312c0.319,0.207,0.545,0.497,0.676,0.869
				c0.533-0.787,1.227-1.181,2.082-1.181c0.668,0,1.183,0.186,1.543,0.556c0.359,0.37,0.539,0.94,0.539,1.711v4.627h-1.137v-4.246
				c0-0.457-0.037-0.786-0.111-0.987c-0.073-0.201-0.207-0.363-0.402-0.485c-0.195-0.123-0.424-0.185-0.686-0.185
				c-0.475,0-0.867,0.157-1.181,0.473s-0.47,0.82-0.47,1.515v3.916h-1.143v-4.38c0-0.508-0.094-0.889-0.279-1.143
				s-0.49-0.381-0.914-0.381c-0.322,0-0.619,0.085-0.893,0.254c-0.271,0.169-0.471,0.417-0.593,0.743
				c-0.122,0.325-0.185,0.795-0.185,1.408v3.498H514.679z"/>
			<path fill="#282828" d="M530.124,210.664l1.181,0.146c-0.186,0.69-0.531,1.226-1.035,1.606c-0.503,0.381-1.146,0.571-1.93,0.571
				c-0.985,0-1.768-0.304-2.346-0.911c-0.576-0.607-0.865-1.459-0.865-2.555c0-1.134,0.291-2.015,0.875-2.641
				s1.342-0.939,2.273-0.939c0.9,0,1.637,0.307,2.209,0.921c0.57,0.613,0.856,1.477,0.856,2.59c0,0.067-0.002,0.169-0.007,0.305
				h-5.027c0.043,0.74,0.252,1.307,0.629,1.701c0.377,0.393,0.846,0.59,1.409,0.59c0.419,0,0.776-0.11,1.073-0.33
				C529.716,211.498,529.951,211.146,530.124,210.664z M526.373,208.817h3.764c-0.051-0.567-0.195-0.993-0.432-1.276
				c-0.363-0.44-0.836-0.66-1.416-0.66c-0.524,0-0.965,0.176-1.322,0.526C526.608,207.759,526.41,208.229,526.373,208.817z"/>
			<path fill="#282828" d="M532.739,212.835v-6.741h1.028v0.958c0.495-0.74,1.211-1.11,2.146-1.11c0.406,0,0.78,0.073,1.12,0.219
				c0.341,0.146,0.596,0.338,0.766,0.575c0.169,0.236,0.287,0.518,0.355,0.844c0.042,0.212,0.063,0.582,0.063,1.111v4.145h-1.143
				v-4.101c0-0.466-0.044-0.813-0.133-1.044s-0.246-0.415-0.473-0.553s-0.492-0.206-0.797-0.206c-0.486,0-0.906,0.154-1.26,0.464
				c-0.354,0.309-0.53,0.895-0.53,1.758v3.682H532.739z"/>
			<path fill="#282828" d="M542.464,211.813l0.165,1.009c-0.322,0.067-0.609,0.102-0.863,0.102c-0.414,0-0.736-0.065-0.965-0.196
				c-0.229-0.132-0.389-0.304-0.482-0.518s-0.14-0.664-0.14-1.35v-3.878h-0.838v-0.889h0.838v-1.669l1.136-0.686v2.354h1.149v0.889
				h-1.149v3.942c0,0.325,0.021,0.535,0.061,0.628c0.041,0.093,0.105,0.167,0.197,0.222c0.091,0.056,0.221,0.083,0.391,0.083
				C542.09,211.857,542.256,211.843,542.464,211.813z"/>
			<path fill="#282828" d="M543.588,204.843v-1.313h1.143v1.313H543.588z M543.588,212.835v-6.741h1.143v6.741H543.588z"/>
			<path fill="#282828" d="M546.469,212.835v-6.741h1.029v0.958c0.494-0.74,1.21-1.11,2.145-1.11c0.406,0,0.78,0.073,1.121,0.219
				c0.34,0.146,0.596,0.338,0.765,0.575c0.169,0.236,0.288,0.518,0.355,0.844c0.042,0.212,0.063,0.582,0.063,1.111v4.145h-1.143
				v-4.101c0-0.466-0.045-0.813-0.133-1.044c-0.09-0.23-0.247-0.415-0.473-0.553c-0.227-0.138-0.492-0.206-0.797-0.206
				c-0.487,0-0.907,0.154-1.26,0.464c-0.354,0.309-0.531,0.895-0.531,1.758v3.682H546.469z"/>
			<path fill="#282828" d="M553.49,213.394l1.11,0.165c0.046,0.343,0.176,0.593,0.388,0.749c0.283,0.212,0.67,0.317,1.161,0.317
				c0.528,0,0.938-0.105,1.226-0.317c0.287-0.212,0.482-0.508,0.584-0.889c0.059-0.232,0.086-0.722,0.082-1.467
				c-0.5,0.589-1.121,0.883-1.866,0.883c-0.927,0-1.644-0.334-2.151-1.003s-0.762-1.471-0.762-2.405
				c0-0.644,0.115-1.237,0.349-1.781s0.57-0.964,1.013-1.26c0.441-0.296,0.961-0.444,1.559-0.444c0.795,0,1.451,0.321,1.967,0.965
				v-0.813h1.055v5.827c0,1.05-0.107,1.793-0.32,2.231c-0.215,0.438-0.553,0.784-1.016,1.038c-0.465,0.254-1.034,0.381-1.711,0.381
				c-0.805,0-1.454-0.182-1.949-0.543C553.712,214.666,553.472,214.121,553.49,213.394z M554.435,209.344
				c0,0.885,0.176,1.53,0.527,1.937c0.351,0.406,0.791,0.609,1.32,0.609c0.524,0,0.965-0.202,1.32-0.606s0.533-1.038,0.533-1.901
				c0-0.825-0.184-1.447-0.549-1.866c-0.367-0.419-0.809-0.628-1.324-0.628c-0.508,0-0.939,0.206-1.295,0.618
				C554.613,207.919,554.435,208.531,554.435,209.344z"/>
			<path fill="#282828" d="M568.939,212.003c-0.423,0.36-0.83,0.614-1.221,0.762c-0.393,0.148-0.813,0.223-1.261,0.223
				c-0.741,0-1.31-0.181-1.708-0.543c-0.397-0.361-0.596-0.824-0.596-1.387c0-0.33,0.074-0.632,0.225-0.904
				c0.15-0.273,0.348-0.492,0.59-0.657c0.244-0.165,0.518-0.29,0.822-0.374c0.225-0.06,0.563-0.117,1.016-0.172
				c0.923-0.11,1.602-0.241,2.038-0.394c0.005-0.156,0.007-0.256,0.007-0.298c0-0.466-0.108-0.794-0.324-0.984
				c-0.292-0.258-0.726-0.387-1.301-0.387c-0.538,0-0.935,0.094-1.191,0.282c-0.256,0.188-0.445,0.521-0.567,0.999l-1.117-0.152
				c0.102-0.478,0.269-0.864,0.501-1.158c0.233-0.294,0.57-0.521,1.01-0.679c0.439-0.159,0.95-0.238,1.529-0.238
				c0.576,0,1.043,0.067,1.403,0.203s0.624,0.306,0.794,0.511c0.169,0.205,0.287,0.465,0.355,0.777
				c0.037,0.195,0.057,0.547,0.057,1.055v1.523c0,1.062,0.024,1.733,0.072,2.015c0.049,0.281,0.146,0.552,0.289,0.81h-1.193
				C569.05,212.598,568.973,212.321,568.939,212.003z M568.844,209.452c-0.415,0.169-1.036,0.313-1.866,0.432
				c-0.47,0.067-0.802,0.144-0.996,0.229c-0.195,0.084-0.346,0.208-0.451,0.371s-0.158,0.344-0.158,0.543
				c0,0.305,0.115,0.559,0.346,0.762s0.568,0.305,1.012,0.305c0.44,0,0.832-0.097,1.175-0.289s0.595-0.456,0.755-0.791
				c0.123-0.258,0.185-0.639,0.185-1.143V209.452z"/>
		</g>
		<g enable-background="new    ">
			<path fill="#282828" d="M443.786,227.424l1.13-0.178c0.063,0.452,0.24,0.799,0.529,1.041c0.291,0.24,0.695,0.361,1.217,0.361
				c0.524,0,0.914-0.106,1.168-0.32s0.381-0.465,0.381-0.752c0-0.259-0.113-0.462-0.337-0.609c-0.157-0.102-0.546-0.231-1.168-0.388
				c-0.838-0.212-1.419-0.395-1.743-0.549c-0.322-0.154-0.568-0.368-0.736-0.642c-0.166-0.272-0.25-0.574-0.25-0.904
				c0-0.301,0.068-0.579,0.207-0.835c0.137-0.256,0.324-0.469,0.561-0.638c0.178-0.131,0.42-0.242,0.727-0.333
				c0.308-0.091,0.637-0.137,0.988-0.137c0.528,0,0.992,0.076,1.393,0.229s0.695,0.358,0.886,0.619
				c0.19,0.26,0.321,0.608,0.394,1.044l-1.117,0.152c-0.051-0.347-0.197-0.618-0.441-0.813c-0.243-0.194-0.587-0.292-1.031-0.292
				c-0.525,0-0.899,0.087-1.123,0.261c-0.225,0.173-0.337,0.376-0.337,0.609c0,0.147,0.046,0.281,0.14,0.399
				c0.094,0.123,0.239,0.225,0.438,0.305c0.115,0.042,0.451,0.14,1.01,0.292c0.809,0.216,1.372,0.393,1.691,0.53
				c0.32,0.138,0.57,0.337,0.752,0.6c0.183,0.263,0.273,0.588,0.273,0.978c0,0.381-0.111,0.739-0.334,1.076
				c-0.221,0.336-0.542,0.597-0.961,0.78c-0.419,0.185-0.893,0.276-1.422,0.276c-0.876,0-1.543-0.182-2.002-0.546
				C444.206,228.678,443.913,228.139,443.786,227.424z"/>
			<path fill="#282828" d="M450.692,232.031l-0.127-1.072c0.249,0.067,0.468,0.102,0.653,0.102c0.254,0,0.457-0.042,0.609-0.127
				s0.277-0.203,0.375-0.355c0.072-0.114,0.188-0.397,0.35-0.851c0.021-0.063,0.055-0.156,0.102-0.279l-2.559-6.754h1.231
				l1.403,3.903c0.182,0.496,0.344,1.016,0.488,1.563c0.131-0.525,0.287-1.037,0.47-1.537l1.44-3.929h1.143l-2.564,6.855
				c-0.274,0.74-0.488,1.251-0.641,1.53c-0.203,0.376-0.436,0.652-0.698,0.828s-0.575,0.264-0.939,0.264
				C451.209,232.172,450.963,232.125,450.692,232.031z"/>
			<path fill="#282828" d="M456.786,227.424l1.13-0.178c0.063,0.452,0.24,0.799,0.529,1.041c0.291,0.24,0.695,0.361,1.217,0.361
				c0.524,0,0.914-0.106,1.168-0.32s0.381-0.465,0.381-0.752c0-0.259-0.113-0.462-0.337-0.609c-0.157-0.102-0.546-0.231-1.168-0.388
				c-0.838-0.212-1.419-0.395-1.743-0.549c-0.322-0.154-0.568-0.368-0.736-0.642c-0.166-0.272-0.25-0.574-0.25-0.904
				c0-0.301,0.068-0.579,0.207-0.835c0.137-0.256,0.324-0.469,0.561-0.638c0.178-0.131,0.42-0.242,0.727-0.333
				c0.308-0.091,0.637-0.137,0.988-0.137c0.528,0,0.992,0.076,1.393,0.229s0.695,0.358,0.886,0.619
				c0.19,0.26,0.321,0.608,0.394,1.044l-1.117,0.152c-0.051-0.347-0.197-0.618-0.441-0.813c-0.243-0.194-0.587-0.292-1.031-0.292
				c-0.525,0-0.899,0.087-1.123,0.261c-0.225,0.173-0.337,0.376-0.337,0.609c0,0.147,0.046,0.281,0.14,0.399
				c0.094,0.123,0.239,0.225,0.438,0.305c0.115,0.042,0.451,0.14,1.01,0.292c0.809,0.216,1.372,0.393,1.691,0.53
				c0.32,0.138,0.57,0.337,0.752,0.6c0.183,0.263,0.273,0.588,0.273,0.978c0,0.381-0.111,0.739-0.334,1.076
				c-0.221,0.336-0.542,0.597-0.961,0.78c-0.419,0.185-0.893,0.276-1.422,0.276c-0.876,0-1.543-0.182-2.002-0.546
				C457.206,228.678,456.913,228.139,456.786,227.424z"/>
			<path fill="#282828" d="M466.238,228.414l0.164,1.009c-0.321,0.067-0.609,0.102-0.863,0.102c-0.414,0-0.736-0.065-0.965-0.196
				c-0.229-0.132-0.389-0.304-0.482-0.518c-0.093-0.214-0.139-0.664-0.139-1.35v-3.878h-0.838v-0.889h0.838v-1.669l1.136-0.686
				v2.354h1.149v0.889h-1.149v3.942c0,0.325,0.021,0.535,0.06,0.628c0.041,0.093,0.106,0.167,0.197,0.222
				c0.092,0.056,0.221,0.083,0.391,0.083C465.863,228.458,466.03,228.443,466.238,228.414z"/>
			<path fill="#282828" d="M471.969,227.265l1.181,0.146c-0.186,0.69-0.531,1.226-1.035,1.606c-0.503,0.381-1.146,0.571-1.93,0.571
				c-0.985,0-1.768-0.304-2.346-0.911c-0.576-0.607-0.865-1.459-0.865-2.555c0-1.134,0.291-2.015,0.875-2.641
				s1.342-0.939,2.273-0.939c0.9,0,1.637,0.307,2.209,0.921c0.57,0.613,0.856,1.477,0.856,2.59c0,0.067-0.002,0.169-0.007,0.305
				h-5.027c0.043,0.74,0.252,1.307,0.629,1.701c0.377,0.393,0.846,0.59,1.409,0.59c0.419,0,0.776-0.11,1.073-0.33
				C471.561,228.099,471.797,227.747,471.969,227.265z M468.219,225.418h3.764c-0.051-0.567-0.195-0.993-0.432-1.276
				c-0.363-0.44-0.836-0.66-1.416-0.66c-0.524,0-0.965,0.176-1.322,0.526C468.454,224.359,468.256,224.829,468.219,225.418z"/>
			<path fill="#282828" d="M474.585,229.436v-6.741h1.022v0.946c0.211-0.33,0.492-0.596,0.844-0.797s0.751-0.302,1.199-0.302
				c0.5,0,0.909,0.104,1.229,0.312c0.32,0.207,0.545,0.497,0.676,0.869c0.533-0.787,1.228-1.181,2.082-1.181
				c0.669,0,1.184,0.186,1.543,0.556s0.539,0.94,0.539,1.711v4.627h-1.136v-4.246c0-0.457-0.037-0.786-0.11-0.987
				c-0.074-0.201-0.209-0.363-0.404-0.485c-0.194-0.123-0.423-0.185-0.686-0.185c-0.474,0-0.867,0.157-1.18,0.473
				c-0.313,0.315-0.471,0.82-0.471,1.515v3.916h-1.143v-4.38c0-0.508-0.093-0.889-0.279-1.143c-0.186-0.254-0.49-0.381-0.914-0.381
				c-0.321,0-0.619,0.085-0.891,0.254c-0.273,0.169-0.472,0.417-0.594,0.743c-0.123,0.325-0.185,0.795-0.185,1.408v3.498H474.585z"
				/>
			<path fill="#282828" d="M492.644,221.443v-1.313h1.143v1.313H492.644z M492.644,229.436v-6.741h1.143v6.741H492.644z"/>
			<path fill="#282828" d="M495.068,227.424l1.131-0.178c0.063,0.452,0.24,0.799,0.529,1.041c0.29,0.24,0.695,0.361,1.216,0.361
				c0.524,0,0.914-0.106,1.168-0.32s0.381-0.465,0.381-0.752c0-0.259-0.112-0.462-0.337-0.609c-0.156-0.102-0.545-0.231-1.168-0.388
				c-0.838-0.212-1.418-0.395-1.742-0.549s-0.568-0.368-0.736-0.642c-0.167-0.272-0.25-0.574-0.25-0.904
				c0-0.301,0.068-0.579,0.205-0.835c0.139-0.256,0.326-0.469,0.563-0.638c0.178-0.131,0.42-0.242,0.727-0.333
				s0.637-0.137,0.987-0.137c0.528,0,0.993,0.076,1.394,0.229s0.695,0.358,0.885,0.619c0.191,0.26,0.322,0.608,0.395,1.044
				l-1.117,0.152c-0.051-0.347-0.198-0.618-0.441-0.813c-0.244-0.194-0.588-0.292-1.031-0.292c-0.525,0-0.9,0.087-1.124,0.261
				c-0.224,0.173-0.337,0.376-0.337,0.609c0,0.147,0.047,0.281,0.141,0.399c0.093,0.123,0.238,0.225,0.438,0.305
				c0.114,0.042,0.451,0.14,1.01,0.292c0.808,0.216,1.371,0.393,1.691,0.53c0.319,0.138,0.57,0.337,0.752,0.6
				s0.273,0.588,0.273,0.978c0,0.381-0.111,0.739-0.334,1.076c-0.223,0.336-0.543,0.597-0.961,0.78
				c-0.42,0.185-0.894,0.276-1.422,0.276c-0.877,0-1.544-0.182-2.004-0.546C495.488,228.678,495.195,228.139,495.068,227.424z"/>
			<path fill="#282828" d="M505.637,229.436v-6.741h1.028v0.958c0.495-0.74,1.211-1.11,2.146-1.11c0.406,0,0.78,0.073,1.12,0.219
				c0.341,0.146,0.596,0.338,0.766,0.575c0.169,0.236,0.287,0.518,0.355,0.844c0.042,0.212,0.063,0.582,0.063,1.111v4.145h-1.143
				v-4.101c0-0.466-0.044-0.813-0.133-1.044s-0.246-0.415-0.473-0.553s-0.492-0.206-0.797-0.206c-0.486,0-0.906,0.154-1.26,0.464
				c-0.354,0.309-0.53,0.895-0.53,1.758v3.682H505.637z"/>
			<path fill="#282828" d="M517.482,227.265l1.181,0.146c-0.187,0.69-0.531,1.226-1.034,1.606c-0.504,0.381-1.147,0.571-1.93,0.571
				c-0.986,0-1.768-0.304-2.346-0.911s-0.867-1.459-0.867-2.555c0-1.134,0.293-2.015,0.877-2.641s1.341-0.939,2.271-0.939
				c0.902,0,1.639,0.307,2.209,0.921c0.572,0.613,0.857,1.477,0.857,2.59c0,0.067-0.002,0.169-0.006,0.305h-5.027
				c0.042,0.74,0.252,1.307,0.628,1.701c0.376,0.393,0.847,0.59,1.409,0.59c0.419,0,0.776-0.11,1.072-0.33
				C517.074,228.099,517.308,227.747,517.482,227.265z M513.73,225.418h3.765c-0.051-0.567-0.194-0.993-0.432-1.276
				c-0.364-0.44-0.836-0.66-1.415-0.66c-0.525,0-0.967,0.176-1.324,0.526C513.967,224.359,513.769,224.829,513.73,225.418z"/>
			<path fill="#282828" d="M524.496,226.967l1.124,0.146c-0.122,0.774-0.437,1.381-0.942,1.818
				c-0.506,0.438-1.127,0.657-1.863,0.657c-0.922,0-1.664-0.302-2.225-0.904c-0.561-0.604-0.842-1.468-0.842-2.594
				c0-0.728,0.121-1.364,0.362-1.91s0.608-0.955,1.101-1.229c0.494-0.272,1.03-0.409,1.609-0.409c0.732,0,1.332,0.186,1.797,0.556
				s0.764,0.896,0.895,1.577l-1.11,0.171c-0.106-0.452-0.293-0.793-0.562-1.021c-0.27-0.229-0.594-0.343-0.975-0.343
				c-0.576,0-1.043,0.206-1.402,0.619c-0.36,0.412-0.54,1.065-0.54,1.958c0,0.905,0.173,1.563,0.521,1.975
				c0.348,0.41,0.8,0.615,1.358,0.615c0.448,0,0.823-0.138,1.124-0.412C524.225,227.961,524.416,227.537,524.496,226.967z"/>
			<path fill="#282828" d="M531.213,227.265l1.18,0.146c-0.186,0.69-0.531,1.226-1.034,1.606s-1.147,0.571-1.93,0.571
				c-0.985,0-1.769-0.304-2.345-0.911c-0.578-0.607-0.867-1.459-0.867-2.555c0-1.134,0.292-2.015,0.876-2.641
				s1.341-0.939,2.272-0.939c0.901,0,1.638,0.307,2.209,0.921c0.571,0.613,0.857,1.477,0.857,2.59c0,0.067-0.002,0.169-0.007,0.305
				h-5.027c0.042,0.74,0.252,1.307,0.628,1.701c0.377,0.393,0.847,0.59,1.41,0.59c0.418,0,0.775-0.11,1.072-0.33
				S531.039,227.747,531.213,227.265z M527.461,225.418h3.764c-0.051-0.567-0.194-0.993-0.432-1.276
				c-0.363-0.44-0.836-0.66-1.415-0.66c-0.524,0-0.966,0.176-1.323,0.526C527.697,224.359,527.499,224.829,527.461,225.418z"/>
			<path fill="#282828" d="M533.371,227.424l1.129-0.178c0.064,0.452,0.24,0.799,0.531,1.041c0.289,0.24,0.694,0.361,1.215,0.361
				c0.525,0,0.914-0.106,1.168-0.32s0.381-0.465,0.381-0.752c0-0.259-0.112-0.462-0.336-0.609c-0.157-0.102-0.547-0.231-1.168-0.388
				c-0.838-0.212-1.42-0.395-1.742-0.549c-0.324-0.154-0.57-0.368-0.736-0.642c-0.168-0.272-0.252-0.574-0.252-0.904
				c0-0.301,0.069-0.579,0.207-0.835c0.137-0.256,0.324-0.469,0.562-0.638c0.178-0.131,0.42-0.242,0.728-0.333
				c0.307-0.091,0.635-0.137,0.986-0.137c0.529,0,0.994,0.076,1.393,0.229c0.4,0.152,0.695,0.358,0.887,0.619
				c0.189,0.26,0.321,0.608,0.393,1.044l-1.117,0.152c-0.051-0.347-0.197-0.618-0.441-0.813c-0.242-0.194-0.586-0.292-1.031-0.292
				c-0.524,0-0.898,0.087-1.123,0.261c-0.225,0.173-0.336,0.376-0.336,0.609c0,0.147,0.046,0.281,0.139,0.399
				c0.094,0.123,0.24,0.225,0.438,0.305c0.114,0.042,0.45,0.14,1.009,0.292c0.809,0.216,1.373,0.393,1.691,0.53
				c0.32,0.138,0.57,0.337,0.753,0.6s0.272,0.588,0.272,0.978c0,0.381-0.111,0.739-0.332,1.076c-0.223,0.336-0.543,0.597-0.963,0.78
				c-0.418,0.185-0.893,0.276-1.422,0.276c-0.875,0-1.543-0.182-2.002-0.546S533.498,228.139,533.371,227.424z"/>
			<path fill="#282828" d="M544.726,228.604c-0.424,0.36-0.83,0.614-1.223,0.762c-0.391,0.148-0.811,0.223-1.26,0.223
				c-0.74,0-1.309-0.181-1.707-0.543c-0.398-0.361-0.597-0.824-0.597-1.387c0-0.33,0.075-0.632,0.226-0.904
				c0.15-0.273,0.347-0.492,0.59-0.657c0.244-0.165,0.518-0.29,0.822-0.374c0.225-0.06,0.563-0.117,1.016-0.172
				c0.922-0.11,1.602-0.241,2.037-0.394c0.005-0.156,0.007-0.256,0.007-0.298c0-0.466-0.108-0.794-0.323-0.984
				c-0.293-0.258-0.727-0.387-1.302-0.387c-0.538,0-0.935,0.094-1.19,0.282s-0.445,0.521-0.568,0.999l-1.117-0.152
				c0.102-0.478,0.27-0.864,0.502-1.158s0.569-0.521,1.01-0.679c0.439-0.159,0.949-0.238,1.529-0.238
				c0.576,0,1.043,0.067,1.402,0.203c0.36,0.136,0.625,0.306,0.794,0.511s0.288,0.465,0.355,0.777
				c0.038,0.195,0.058,0.547,0.058,1.055v1.523c0,1.062,0.023,1.733,0.072,2.015s0.145,0.552,0.289,0.81h-1.193
				C544.836,229.198,544.76,228.922,544.726,228.604z M544.631,226.053c-0.414,0.169-1.036,0.313-1.865,0.432
				c-0.471,0.067-0.803,0.144-0.997,0.229c-0.194,0.084-0.345,0.208-0.45,0.371c-0.106,0.163-0.159,0.344-0.159,0.543
				c0,0.305,0.115,0.559,0.347,0.762c0.23,0.203,0.567,0.305,1.012,0.305c0.439,0,0.832-0.097,1.174-0.289
				c0.344-0.192,0.596-0.456,0.756-0.791c0.123-0.258,0.184-0.639,0.184-1.143V226.053z"/>
			<path fill="#282828" d="M547.545,229.436v-6.741h1.028v1.022c0.263-0.479,0.505-0.794,0.728-0.946
				c0.221-0.152,0.466-0.229,0.732-0.229c0.385,0,0.776,0.123,1.174,0.368l-0.393,1.061c-0.279-0.166-0.559-0.248-0.838-0.248
				c-0.25,0-0.475,0.075-0.674,0.226c-0.198,0.15-0.34,0.358-0.425,0.625c-0.127,0.406-0.19,0.851-0.19,1.333v3.529H547.545z"/>
			<path fill="#282828" d="M551.836,232.031l-0.127-1.072c0.25,0.067,0.468,0.102,0.654,0.102c0.254,0,0.457-0.042,0.609-0.127
				s0.277-0.203,0.374-0.355c0.071-0.114,0.188-0.397,0.349-0.851c0.021-0.063,0.056-0.156,0.102-0.279l-2.558-6.754h1.231
				l1.402,3.903c0.183,0.496,0.346,1.016,0.489,1.563c0.132-0.525,0.288-1.037,0.47-1.537l1.441-3.929h1.143l-2.564,6.855
				c-0.275,0.74-0.489,1.251-0.642,1.53c-0.203,0.376-0.437,0.652-0.698,0.828s-0.576,0.264-0.939,0.264
				C552.351,232.172,552.107,232.125,551.836,232.031z"/>
			<path fill="#282828" d="M564.493,228.414l0.165,1.009c-0.322,0.067-0.609,0.102-0.863,0.102c-0.414,0-0.736-0.065-0.965-0.196
				c-0.229-0.132-0.389-0.304-0.482-0.518s-0.14-0.664-0.14-1.35v-3.878h-0.838v-0.889h0.838v-1.669l1.136-0.686v2.354h1.149v0.889
				h-1.149v3.942c0,0.325,0.021,0.535,0.061,0.628c0.041,0.093,0.105,0.167,0.197,0.222c0.091,0.056,0.221,0.083,0.391,0.083
				C564.119,228.458,564.285,228.443,564.493,228.414z"/>
			<path fill="#282828" d="M565.185,226.064c0-1.248,0.347-2.173,1.041-2.773c0.579-0.499,1.286-0.749,2.119-0.749
				c0.928,0,1.685,0.304,2.273,0.911c0.588,0.607,0.882,1.446,0.882,2.517c0,0.867-0.13,1.55-0.39,2.047
				c-0.262,0.497-0.64,0.884-1.137,1.159c-0.498,0.274-1.04,0.412-1.629,0.412c-0.943,0-1.706-0.303-2.287-0.908
				C565.476,228.075,565.185,227.203,565.185,226.064z M566.359,226.064c0,0.863,0.188,1.51,0.564,1.939
				c0.377,0.43,0.852,0.645,1.422,0.645c0.567,0,1.039-0.216,1.416-0.647s0.564-1.09,0.564-1.974c0-0.834-0.189-1.466-0.568-1.896
				c-0.378-0.43-0.849-0.644-1.412-0.644c-0.57,0-1.045,0.213-1.422,0.641C566.548,224.557,566.359,225.201,566.359,226.064z"/>
		</g>
		<g enable-background="new    ">
			<path fill="#282828" d="M450.346,245.014l0.165,1.009c-0.322,0.067-0.609,0.102-0.863,0.102c-0.414,0-0.736-0.065-0.965-0.196
				c-0.229-0.132-0.389-0.304-0.482-0.518s-0.14-0.664-0.14-1.35v-3.878h-0.838v-0.889h0.838v-1.669l1.136-0.686v2.354h1.149v0.889
				h-1.149v3.942c0,0.325,0.021,0.535,0.061,0.628c0.041,0.093,0.105,0.167,0.197,0.222c0.091,0.056,0.221,0.083,0.391,0.083
				C449.972,245.058,450.138,245.043,450.346,245.014z"/>
			<path fill="#282828" d="M456.078,243.864l1.182,0.146c-0.187,0.69-0.531,1.226-1.035,1.606s-1.146,0.571-1.93,0.571
				c-0.986,0-1.768-0.304-2.346-0.911c-0.577-0.607-0.866-1.459-0.866-2.555c0-1.134,0.292-2.015,0.876-2.641
				s1.342-0.939,2.272-0.939c0.901,0,1.638,0.307,2.209,0.921c0.571,0.613,0.856,1.477,0.856,2.59c0,0.067-0.002,0.169-0.006,0.305
				h-5.027c0.043,0.74,0.252,1.307,0.629,1.701c0.376,0.393,0.846,0.59,1.408,0.59c0.42,0,0.777-0.11,1.073-0.33
				S455.905,244.347,456.078,243.864z M452.327,242.018h3.765c-0.051-0.567-0.195-0.993-0.432-1.276
				c-0.364-0.44-0.836-0.66-1.416-0.66c-0.525,0-0.966,0.176-1.323,0.526C452.562,240.959,452.365,241.429,452.327,242.018z"/>
			<path fill="#282828" d="M458.236,244.023l1.131-0.178c0.063,0.452,0.24,0.799,0.529,1.041c0.29,0.24,0.695,0.361,1.216,0.361
				c0.524,0,0.914-0.106,1.168-0.32s0.381-0.465,0.381-0.752c0-0.259-0.112-0.462-0.337-0.609c-0.156-0.102-0.545-0.231-1.168-0.388
				c-0.838-0.212-1.418-0.395-1.742-0.549c-0.323-0.154-0.568-0.368-0.736-0.642c-0.167-0.272-0.25-0.574-0.25-0.904
				c0-0.301,0.068-0.579,0.206-0.835s0.325-0.469,0.562-0.638c0.178-0.131,0.42-0.242,0.727-0.333s0.637-0.137,0.987-0.137
				c0.528,0,0.993,0.076,1.394,0.229c0.399,0.152,0.695,0.358,0.885,0.619c0.191,0.26,0.322,0.608,0.395,1.044l-1.117,0.152
				c-0.051-0.347-0.198-0.618-0.441-0.813c-0.244-0.194-0.588-0.292-1.031-0.292c-0.525,0-0.9,0.087-1.124,0.261
				c-0.224,0.173-0.337,0.376-0.337,0.609c0,0.147,0.047,0.281,0.141,0.399c0.093,0.123,0.238,0.225,0.438,0.305
				c0.114,0.042,0.451,0.14,1.01,0.292c0.808,0.216,1.371,0.393,1.691,0.53c0.319,0.138,0.57,0.337,0.752,0.6
				s0.273,0.588,0.273,0.978c0,0.381-0.111,0.739-0.334,1.076c-0.222,0.336-0.543,0.597-0.961,0.78
				c-0.42,0.185-0.894,0.276-1.422,0.276c-0.877,0-1.544-0.182-2.003-0.546C458.656,245.277,458.363,244.738,458.236,244.023z"/>
			<path fill="#282828" d="M467.688,245.014l0.165,1.009c-0.322,0.067-0.609,0.102-0.863,0.102c-0.414,0-0.736-0.065-0.965-0.196
				c-0.229-0.132-0.389-0.304-0.482-0.518s-0.14-0.664-0.14-1.35v-3.878h-0.838v-0.889h0.838v-1.669l1.136-0.686v2.354h1.149v0.889
				h-1.149v3.942c0,0.325,0.021,0.535,0.061,0.628c0.041,0.093,0.105,0.167,0.197,0.222c0.091,0.056,0.221,0.083,0.391,0.083
				C467.314,245.058,467.48,245.043,467.688,245.014z"/>
			<path fill="#282828" d="M472.424,238.043v-1.313h1.143v1.313H472.424z M472.424,246.035v-6.741h1.143v6.741H472.424z"/>
			<path fill="#282828" d="M477.801,245.014l0.164,1.009c-0.321,0.067-0.609,0.102-0.863,0.102c-0.414,0-0.736-0.065-0.965-0.196
				c-0.229-0.132-0.389-0.304-0.482-0.518c-0.093-0.214-0.139-0.664-0.139-1.35v-3.878h-0.838v-0.889h0.838v-1.669l1.136-0.686
				v2.354h1.149v0.889h-1.149v3.942c0,0.325,0.021,0.535,0.061,0.628s0.105,0.167,0.196,0.222c0.092,0.056,0.221,0.083,0.391,0.083
				C477.426,245.058,477.593,245.043,477.801,245.014z"/>
			<path fill="#282828" d="M483.773,246.035l-2.063-6.741h1.18l1.073,3.892l0.399,1.447c0.018-0.072,0.134-0.536,0.35-1.391
				l1.072-3.948h1.175l1.009,3.91l0.337,1.288l0.388-1.301l1.154-3.897h1.111l-2.107,6.741h-1.188l-1.072-4.037l-0.26-1.148
				l-1.365,5.186H483.773z"/>
			<path fill="#282828" d="M491.924,238.043v-1.313h1.143v1.313H491.924z M491.924,246.035v-6.741h1.143v6.741H491.924z"/>
			<path fill="#282828" d="M497.301,245.014l0.164,1.009c-0.321,0.067-0.609,0.102-0.863,0.102c-0.414,0-0.736-0.065-0.965-0.196
				c-0.229-0.132-0.389-0.304-0.482-0.518c-0.093-0.214-0.139-0.664-0.139-1.35v-3.878h-0.838v-0.889h0.838v-1.669l1.136-0.686
				v2.354h1.149v0.889h-1.149v3.942c0,0.325,0.021,0.535,0.061,0.628s0.105,0.167,0.196,0.222c0.092,0.056,0.221,0.083,0.391,0.083
				C496.926,245.058,497.093,245.043,497.301,245.014z"/>
			<path fill="#282828" d="M498.418,246.035v-9.306h1.143v3.339c0.533-0.618,1.205-0.927,2.018-0.927c0.5,0,0.934,0.099,1.302,0.295
				c0.368,0.197,0.632,0.469,0.79,0.815c0.159,0.348,0.238,0.852,0.238,1.512v4.271h-1.143v-4.271c0-0.572-0.124-0.987-0.371-1.248
				c-0.248-0.26-0.598-0.391-1.051-0.391c-0.338,0-0.657,0.088-0.955,0.264c-0.299,0.176-0.512,0.414-0.639,0.715
				c-0.127,0.3-0.189,0.715-0.189,1.244v3.688H498.418z"/>
			<path fill="#282828" d="M513.658,245.203c-0.424,0.36-0.83,0.614-1.222,0.762c-0.392,0.148-0.812,0.223-1.261,0.223
				c-0.74,0-1.309-0.181-1.707-0.543c-0.398-0.361-0.597-0.824-0.597-1.387c0-0.33,0.075-0.632,0.226-0.904
				c0.15-0.273,0.347-0.492,0.59-0.657c0.244-0.165,0.518-0.29,0.822-0.374c0.225-0.06,0.563-0.117,1.016-0.172
				c0.922-0.11,1.602-0.241,2.037-0.394c0.005-0.156,0.007-0.256,0.007-0.298c0-0.466-0.108-0.794-0.323-0.984
				c-0.293-0.258-0.727-0.387-1.302-0.387c-0.538,0-0.935,0.094-1.19,0.282s-0.445,0.521-0.568,0.999l-1.117-0.152
				c0.102-0.478,0.27-0.864,0.502-1.158s0.569-0.521,1.01-0.679c0.439-0.159,0.949-0.238,1.529-0.238
				c0.576,0,1.043,0.067,1.402,0.203c0.36,0.136,0.625,0.306,0.794,0.511s0.288,0.465,0.355,0.777
				c0.038,0.195,0.058,0.547,0.058,1.055v1.523c0,1.062,0.023,1.733,0.072,2.015s0.145,0.552,0.289,0.81h-1.193
				C513.767,245.798,513.691,245.521,513.658,245.203z M513.562,242.652c-0.414,0.169-1.036,0.313-1.865,0.432
				c-0.471,0.067-0.803,0.144-0.997,0.229c-0.194,0.084-0.345,0.208-0.45,0.371c-0.106,0.163-0.159,0.344-0.159,0.543
				c0,0.305,0.115,0.559,0.346,0.762c0.231,0.203,0.568,0.305,1.013,0.305c0.439,0,0.832-0.097,1.174-0.289
				c0.344-0.192,0.596-0.456,0.756-0.791c0.123-0.258,0.184-0.639,0.184-1.143V242.652z"/>
			<path fill="#282828" d="M520.101,246.035v-6.741h1.021v0.946c0.211-0.33,0.493-0.596,0.844-0.797
				c0.352-0.201,0.752-0.302,1.2-0.302c0.499,0,0.909,0.104,1.229,0.312c0.319,0.207,0.544,0.497,0.676,0.869
				c0.533-0.787,1.228-1.181,2.082-1.181c0.669,0,1.183,0.186,1.542,0.556c0.36,0.37,0.54,0.94,0.54,1.711v4.627h-1.136v-4.246
				c0-0.457-0.037-0.786-0.111-0.987s-0.209-0.363-0.403-0.485c-0.194-0.123-0.423-0.185-0.686-0.185
				c-0.474,0-0.868,0.157-1.181,0.473s-0.47,0.82-0.47,1.515v3.916h-1.143v-4.38c0-0.508-0.093-0.889-0.279-1.143
				s-0.491-0.381-0.914-0.381c-0.321,0-0.619,0.085-0.892,0.254c-0.273,0.169-0.471,0.417-0.594,0.743
				c-0.123,0.325-0.184,0.795-0.184,1.408v3.498H520.101z"/>
			<path fill="#282828" d="M530.505,242.664c0-1.248,0.347-2.173,1.041-2.773c0.579-0.499,1.286-0.749,2.12-0.749
				c0.927,0,1.684,0.304,2.272,0.911s0.882,1.446,0.882,2.517c0,0.867-0.13,1.55-0.39,2.047c-0.261,0.497-0.64,0.884-1.137,1.159
				c-0.497,0.274-1.04,0.412-1.628,0.412c-0.943,0-1.707-0.303-2.288-0.908C530.796,244.675,530.505,243.803,530.505,242.664z
				 M531.679,242.664c0,0.863,0.188,1.51,0.564,1.939s0.851,0.645,1.422,0.645c0.566,0,1.039-0.216,1.416-0.647
				c0.376-0.432,0.564-1.09,0.564-1.974c0-0.834-0.189-1.466-0.568-1.896s-0.85-0.644-1.412-0.644c-0.571,0-1.045,0.213-1.422,0.641
				S531.679,241.801,531.679,242.664z"/>
			<path fill="#282828" d="M542.558,243.566l1.124,0.146c-0.122,0.774-0.437,1.381-0.942,1.818
				c-0.506,0.438-1.127,0.657-1.863,0.657c-0.922,0-1.664-0.302-2.225-0.904c-0.561-0.604-0.842-1.468-0.842-2.594
				c0-0.728,0.121-1.364,0.362-1.91s0.608-0.955,1.102-1.229c0.493-0.272,1.029-0.409,1.608-0.409c0.732,0,1.332,0.186,1.797,0.556
				s0.764,0.896,0.895,1.577l-1.11,0.171c-0.106-0.452-0.293-0.793-0.562-1.021c-0.27-0.229-0.594-0.343-0.975-0.343
				c-0.576,0-1.043,0.206-1.402,0.619c-0.36,0.412-0.54,1.065-0.54,1.958c0,0.905,0.173,1.563,0.521,1.975
				c0.348,0.41,0.8,0.615,1.358,0.615c0.448,0,0.823-0.138,1.124-0.412C542.288,244.561,542.478,244.137,542.558,243.566z"/>
			<path fill="#282828" d="M544.666,246.035v-9.306h1.143v5.307l2.705-2.742h1.479l-2.577,2.501l2.837,4.24h-1.408l-2.229-3.447
				l-0.807,0.775v2.672H544.666z"/>
			<path fill="#282828" d="M555.578,246.035v-0.99c-0.525,0.762-1.238,1.143-2.139,1.143c-0.398,0-0.77-0.076-1.114-0.229
				s-0.601-0.344-0.769-0.574c-0.167-0.23-0.284-0.514-0.352-0.848c-0.047-0.225-0.07-0.58-0.07-1.066v-4.177h1.143v3.739
				c0,0.596,0.023,0.998,0.07,1.205c0.071,0.301,0.224,0.537,0.457,0.708c0.232,0.172,0.52,0.257,0.863,0.257
				c0.342,0,0.664-0.087,0.965-0.263c0.3-0.176,0.513-0.415,0.638-0.718c0.124-0.303,0.187-0.741,0.187-1.316v-3.612h1.143v6.741
				H555.578z"/>
			<path fill="#282828" d="M558.39,248.619v-9.325h1.041v0.876c0.245-0.343,0.521-0.6,0.831-0.771
				c0.31-0.171,0.684-0.257,1.124-0.257c0.575,0,1.083,0.148,1.523,0.444c0.439,0.296,0.771,0.714,0.996,1.254
				c0.225,0.539,0.336,1.131,0.336,1.773c0,0.69-0.123,1.312-0.371,1.863c-0.247,0.553-0.607,0.976-1.079,1.27
				s-0.968,0.441-1.488,0.441c-0.381,0-0.723-0.08-1.025-0.241c-0.302-0.161-0.551-0.364-0.745-0.609v3.282H558.39z
				 M559.425,242.703c0,0.867,0.176,1.508,0.526,1.923c0.352,0.415,0.777,0.622,1.276,0.622c0.508,0,0.942-0.215,1.305-0.645
				c0.361-0.43,0.542-1.095,0.542-1.996c0-0.859-0.176-1.502-0.529-1.93s-0.775-0.641-1.267-0.641c-0.487,0-0.917,0.227-1.292,0.682
				C559.612,241.174,559.425,241.835,559.425,242.703z"/>
			<path fill="#282828" d="M565.943,246.035v-1.301h1.302v1.301H565.943z"/>
		</g>
	</g>
</g>
</svg>
