<?xml version="1.0" encoding="utf-8"?>
<!-- Generator: Adobe Illustrator 16.0.0, SVG Export Plug-In . SVG Version: 6.00 Build 0)  -->
<!DOCTYPE svg PUBLIC "-//W3C//DTD SVG 1.1//EN" "http://www.w3.org/Graphics/SVG/1.1/DTD/svg11.dtd">
<svg version="1.1" id="Capa_1" xmlns="http://www.w3.org/2000/svg" xmlns:xlink="http://www.w3.org/1999/xlink" x="0px" y="0px"
	 width="401.509px" height="441.476px" viewBox="0 0 401.509 441.476" enable-background="new 0 0 401.509 441.476"
	 xml:space="preserve">
<g>
	<defs>
		<rect id="SVGID_1_" width="401.509" height="441.476"/>
	</defs>
	<clipPath id="SVGID_2_">
		<use xlink:href="#SVGID_1_"  overflow="visible"/>
	</clipPath>
	<g clip-path="url(#SVGID_2_)">
		<path fill="#50565B" d="M326.58,488.613l-2.59-4.764c0,0,14.082,3.935,14.186-4.762c0.104-8.697,0.518-78.691,0.518-78.691
			l4.971-0.62l-0.52,85.73l-2.691,5.28l-6.885-0.518L326.58,488.613"/>
		<path fill="none" stroke="#656C70" stroke-miterlimit="10" d="M326.58,488.613l-2.59-4.764c0,0,14.082,3.935,14.186-4.762
			c0.104-8.697,0.518-78.691,0.518-78.691l4.971-0.62l-0.52,85.73l-2.691,5.28l-6.885-0.518L326.58,488.613"/>
		<path fill="#808589" d="M326.58,488.613c0,0,14.703,2.007,14.703-7.073v-81.764h12.01v81.764c0,0,1.621,17.694-12.631,17.738
			l-14.254,0.042L326.58,488.613z"/>
		<path fill="none" stroke="#656C70" stroke-miterlimit="10" d="M326.58,488.613c0,0,14.703,2.007,14.703-7.073v-81.764h12.01
			v81.764c0,0,1.621,17.694-12.631,17.738l-14.254,0.042L326.58,488.613z"/>
		<rect x="238.156" y="592.831" fill="#808589" width="13.461" height="61.238"/>
		<rect x="238.156" y="592.831" fill="none" stroke="#656C70" stroke-miterlimit="10" width="13.461" height="61.238"/>
		<path fill="#252728" d="M236.305,594.207h17.58c2.324,0,4.236-1.824,4.352-4.146l3.113-65.417h-32.51l3.115,65.417
			C232.066,592.382,233.98,594.207,236.305,594.207"/>
		<path fill="none" stroke="#000000" stroke-miterlimit="10" d="M236.305,594.207h17.58c2.324,0,4.236-1.824,4.352-4.146
			l3.113-65.417h-32.51l3.115,65.417C232.066,592.382,233.98,594.207,236.305,594.207z"/>
		<path fill="#1A1B1C" d="M227.963,717.169c0,9.346,7.578,16.921,16.926,16.921c9.346,0,16.924-7.575,16.924-16.921
			c0-9.347-7.578-16.922-16.924-16.922C235.541,700.248,227.963,707.823,227.963,717.169"/>
		<circle fill="none" stroke="#000000" stroke-miterlimit="10" cx="244.888" cy="717.169" r="16.925"/>
		<path fill="#1A1B1C" d="M178.969,713.856c0,8.921,7.229,16.15,16.15,16.15c8.918,0,16.148-7.229,16.148-16.15
			c0-8.92-7.23-16.15-16.148-16.15C186.197,697.706,178.969,704.936,178.969,713.856"/>
		<path fill="none" stroke="#000000" stroke-miterlimit="10" d="M178.969,713.856c0,8.921,7.229,16.15,16.15,16.15
			c8.918,0,16.148-7.229,16.148-16.15c0-8.92-7.23-16.15-16.148-16.15C186.197,697.706,178.969,704.936,178.969,713.856z"/>
		<path fill="#1A1B1C" d="M278.479,713.856c0,8.921,7.229,16.15,16.15,16.15s16.152-7.229,16.152-16.15
			c0-8.92-7.23-16.15-16.152-16.15S278.479,704.936,278.479,713.856"/>
		<circle fill="none" stroke="#000000" stroke-miterlimit="10" cx="294.63" cy="713.856" r="16.151"/>
		<path fill="#A0A6AA" d="M233.057,717.169c0,6.535,5.297,11.832,11.832,11.832s11.832-5.297,11.832-11.832
			s-5.297-11.833-11.832-11.833S233.057,710.634,233.057,717.169"/>
		<path fill="#A0A6AA" d="M184.615,713.856c0,5.8,4.703,10.502,10.504,10.502c5.799,0,10.502-4.702,10.502-10.502
			c0-5.802-4.703-10.504-10.502-10.504C189.318,703.352,184.615,708.054,184.615,713.856"/>
		<path fill="#A0A6AA" d="M284.125,713.856c0,5.8,4.705,10.502,10.504,10.502c5.801,0,10.502-4.702,10.502-10.502
			c0-5.802-4.701-10.504-10.502-10.504C288.83,703.352,284.125,708.054,284.125,713.856"/>
		<path fill="#1A1B1C" d="M234.83,715.431c0,5.575,4.518,10.096,10.096,10.096c5.574,0,10.092-4.521,10.092-10.096
			s-4.518-10.095-10.092-10.095C239.348,705.336,234.83,709.856,234.83,715.431"/>
		<path fill="none" stroke="#000000" stroke-miterlimit="10" d="M234.83,715.431c0,5.575,4.518,10.096,10.096,10.096
			c5.574,0,10.092-4.521,10.092-10.096s-4.518-10.095-10.092-10.095C239.348,705.336,234.83,709.856,234.83,715.431z"/>
		<path fill="#1A1B1C" d="M186.32,712.762c0,4.86,3.938,8.799,8.799,8.799c4.859,0,8.797-3.938,8.797-8.799s-3.938-8.8-8.797-8.8
			C190.258,703.962,186.32,707.902,186.32,712.762"/>
		<circle fill="none" stroke="#000000" stroke-miterlimit="10" cx="195.118" cy="712.762" r="8.798"/>
		<path fill="#1A1B1C" d="M286.111,712.762c0,4.706,3.813,8.521,8.518,8.521s8.52-3.815,8.52-8.521s-3.814-8.519-8.52-8.519
			S286.111,708.056,286.111,712.762"/>
		<circle fill="none" stroke="#000000" stroke-miterlimit="10" cx="294.63" cy="712.762" r="8.519"/>
		<path fill="#A0A6AA" d="M239.057,598.189c0,0,10.246-3.967,9.609,6.388v44.866c0,0,1.729,2.466-8.09,3.546h9.797l0.451-57.938
			h-11.873L239.057,598.189z"/>
		<path fill="#808589" d="M186.32,676.639c2.484-12.978,27.471-12.839,27.471-12.839h14.428v-7.196c0-1.399,1.135-2.536,2.535-2.536
			h28.68c1.404,0,2.539,1.137,2.539,2.536v7.196h21.121c22.227,0,19.932,16.292,19.932,16.292v20.36
			c0,2.697-2.186,4.884-4.885,4.884h-6.832c-2.699,0-4.885-2.187-4.885-4.884v-1.85v-7.605c0-16.292-10.785-15.324-10.785-15.324
			l-22.246-0.1v26.717c0,1.683-1.361,3.046-3.043,3.046h-10.51c-1.684,0-3.045-1.363-3.045-3.046V675.5l-22.727-0.103
			c-8.496,0-10.066,7.646-10.303,11.745v14.803c0,1.874-1.518,3.392-3.391,3.392h-9.82c-1.873,0-3.389-1.518-3.389-3.392v-24.537
			c0-0.043,0.01-0.084,0.012-0.126L186.32,676.639z"/>
		<path fill="none" stroke="#656C70" stroke-miterlimit="10" d="M186.32,676.639c2.484-12.978,27.471-12.839,27.471-12.839h14.428
			v-7.196c0-1.399,1.135-2.536,2.535-2.536h28.68c1.404,0,2.539,1.137,2.539,2.536v7.196h21.121
			c22.227,0,19.932,16.292,19.932,16.292v20.36c0,2.697-2.186,4.884-4.885,4.884h-6.832c-2.699,0-4.885-2.187-4.885-4.884v-1.85
			v-7.605c0-16.292-10.785-15.324-10.785-15.324l-22.246-0.1v26.717c0,1.683-1.361,3.046-3.043,3.046h-10.51
			c-1.684,0-3.045-1.363-3.045-3.046V675.5l-22.727-0.103c-8.496,0-10.066,7.646-10.303,11.745v14.803
			c0,1.874-1.518,3.392-3.391,3.392h-9.82c-1.873,0-3.389-1.518-3.389-3.392v-24.537c0-0.043,0.01-0.084,0.012-0.126L186.32,676.639
			z"/>
		<path fill="#A0A6AA" d="M244.705,668.15c0,0,8.154-0.726,7.844,6.73l0.01,25.469c0,0,1.027,4.889-4.875,3.895
			c0,0,1.863,0.146,2.797-4.516l0.205-24.953C250.686,674.775,249.701,669.599,244.705,668.15"/>
		<path fill="#A0A6AA" d="M244.889,654.999h12.734c0,0,4.451-1.034,3.416,4.35l0.156,5.385l-4.191-7.145L244.889,654.999z"/>
		<path fill="#A0A6AA" d="M290.445,665.562c0,0,12.01,1.137,11.494,16.357l0.014,17.085c0,0,1.953,5.902-7.264,5.177
			c0,0,4.037-1.346,3.627-9.732l-0.209-16.981C298.107,677.467,298.418,671.359,290.445,665.562"/>
		<path fill="#262C35" d="M296.664,225.544c0,0,5.555-14.877,45.619-14.073c0,0,42.275-11.451,46.682,81.469v83.274
			c0,0,3.311,57.459-44.475,55.851c0,0-50.727,3.831-49.988-40.677L296.664,225.544"/>
		<path fill="none" stroke="#161A1E" stroke-miterlimit="10" d="M296.664,225.544c0,0,5.555-14.877,45.619-14.073
			c0,0,42.275-11.451,46.682,81.469v83.274c0,0,3.311,57.459-44.475,55.851c0,0-50.727,3.831-49.988-40.677L296.664,225.544"/>
		<path fill="#181D23" d="M320.965,220.01c0,0,37.125-15.934,45.582,70.538l5.145,94.832c0,0,1.471,35.434-29.408,36.24
			c-30.877,0.803-1.469,2.108-1.469,2.108s-40.436,2.711-42.455-36.266l-8.639-132.193
			C289.721,255.27,294.502,219.307,320.965,220.01"/>
		<path fill="#50565B" d="M213.072,531.815h68.6c3.289,0,5.979-2.689,5.979-5.976v-16.435c0-2.21-1.811-4.019-4.02-4.019h-72.516
			c-2.209,0-4.021,1.809-4.021,4.019v16.435C207.094,529.125,209.785,531.815,213.072,531.815"/>
		<path fill="none" stroke="#656C70" stroke-miterlimit="10" d="M213.072,531.815h68.6c3.289,0,5.979-2.689,5.979-5.976v-16.435
			c0-2.21-1.811-4.019-4.02-4.019h-72.516c-2.209,0-4.021,1.809-4.021,4.019v16.435
			C207.094,529.125,209.785,531.815,213.072,531.815z"/>
		<path fill="#262C35" stroke="#0F1C3F" stroke-miterlimit="10" d="M196.381,514.291c-6.775-0.295,18.363,2.567,56.129,3.313
			c15.047,0.296,44.303-1.657,44.303-1.657c7.021,0,33.773-4.141,33.773-18.638v-8.696c0-15.876-26.752-20.293-33.773-20.293
			c0,0-28.934-0.479-43.863,0c-32.098,1.026-74.117,3.313-74.117,3.313c-7.023,0-17.984,8.688-17.984,15.321v10.354
			C161.766,507.25,189.354,514.291,196.381,514.291"/>
		<path fill="none" stroke="#161A1E" stroke-miterlimit="10" d="M196.381,514.291c-6.775-0.295,18.363,2.567,56.129,3.313
			c15.047,0.296,44.303-1.657,44.303-1.657c7.021,0,33.773-4.141,33.773-18.638v-8.696c0-15.876-26.752-20.293-33.773-20.293
			c0,0-28.934-0.479-43.863,0c-32.098,1.026-74.117,3.313-74.117,3.313c-7.023,0-17.984,8.688-17.984,15.321v10.354
			C161.766,507.25,189.354,514.291,196.381,514.291z"/>
		<path fill="#181D23" d="M330.402,486.504c0,0-85.777,17.552-168.137-4.045c-82.355-21.596,0,0,0,0s1.861,20.235,36.291,24.79
			c0,0,80.93,7.04,112.73,0c0,0,0.436,5.739-13.381,8.667c-13.814,2.93,0,0,0,0s27.707-0.503,32.496-16.596c4.791-16.092,0,0,0,0
			V486.504"/>
		<path fill="#EABA96" d="M170.221,633.696c0,0,5.465,20.196,12.275,32.765l3.631,6.326l-5.713,9.311l-10.064,7.453l-9.525,8.826
			c0,0-8.967,9.322-9.283,9.578c-0.313,0.257-14.029,8.017-14.029,8.017l-9.303-0.614c0,0-2.979-4.027-3.189-4.471
			c-0.209-0.445-0.209-7.492-0.209-7.492s11.145-15.462,23.271-27.033c0,0,9.139-7.449,8.969-11.55l-8.262-17.553"/>
		<path fill="none" stroke="#E0AA86" stroke-miterlimit="10" d="M170.221,633.696c0,0,5.465,20.196,12.275,32.765l3.631,6.326
			l-5.713,9.311l-10.064,7.453l-9.525,8.826c0,0-8.967,9.322-9.283,9.578c-0.313,0.257-14.029,8.017-14.029,8.017l-9.303-0.614
			c0,0-2.979-4.027-3.189-4.471c-0.209-0.445-0.209-7.492-0.209-7.492s11.145-15.462,23.271-27.033c0,0,9.139-7.449,8.969-11.55
			l-8.262-17.553"/>
		<path fill="#EABA96" d="M170.502,660.815c0,0,4.988,2.756,2.188,7.873"/>
		<path fill="none" stroke="#E0AA86" stroke-miterlimit="10" d="M170.502,660.815c0,0,4.988,2.756,2.188,7.873"/>
		<path fill="#E0AA86" d="M173.73,658.333c0,0,5.793,7.27,6.057,13.959c0,0-0.607,7.702-11.705,13.792
			c0,0-9.848,5.206-10.865,10.168l6.695-1.829l15.508-7.916l5.836-7.631l-1.746-11.961c0,0-6.098-11.436-8.266-18.405"/>
		<path d="M187.982,675.397c-1.023,11.566-11.779,15.891-11.779,15.891c-11.748,6.53-15.932,16.151-15.932,16.151l-4.33,5.563
			c-12.631,13.166-28.305,11.918-28.305,11.918c-5.072,0.138-7.613-1.481-8.855-3.437l-0.027,0.062l1.842,3.911
			c0,0,6.992,6.682,27.047-3.179c0,0,6.217-3.244,11.787-10.127c0.893-1.104,3.078-4.903,4.283-6.865
			c2.072-3.376,6.307-8.68,13.996-12.504c0,0,11.482-3.982,11.744-14.255L187.982,675.397z"/>
		
			<path fill="none" stroke="#000000" stroke-width="0.75" stroke-linecap="square" stroke-linejoin="bevel" stroke-miterlimit="10" d="
			M187.982,675.397c-1.023,11.566-11.779,15.891-11.779,15.891c-11.748,6.53-15.932,16.151-15.932,16.151l-4.33,5.563
			c-12.631,13.166-28.305,11.918-28.305,11.918c-5.072,0.138-7.613-1.481-8.855-3.437l-0.027,0.062l1.842,3.911
			c0,0,6.992,6.682,27.047-3.179c0,0,6.217-3.244,11.787-10.127c0.893-1.104,3.078-4.903,4.283-6.865
			c2.072-3.376,6.307-8.68,13.996-12.504c0,0,11.482-3.982,11.744-14.255L187.982,675.397z"/>
		<path fill="#0F1C3F" d="M124.811,703.395c0,0-6.059,6.859-6.9,11.801c0,0-2.611,10.059,9.727,9.725c0,0,15.674,1.247,28.305-11.92
			l4.33-5.562c0,0,3.482-10.363,16.996-16.594c0,0,11.906-5.099,10.455-15.327l-4.213-8.604c0,0,3.375,11.559-14.652,20.624
			c0,0-7.596,3.574-13.676,13.094c0,0-10.91,15.631-26.051,10.68C124.393,709.763,124.811,703.395,124.811,703.395"/>
		<path fill="none" stroke="#182951" stroke-miterlimit="10" d="M124.811,703.395c0,0-6.059,6.859-6.9,11.801
			c0,0-2.611,10.059,9.727,9.725c0,0,15.674,1.247,28.305-11.92l4.33-5.562c0,0,3.482-10.363,16.996-16.594
			c0,0,11.906-5.099,10.455-15.327l-4.213-8.604c0,0,3.375,11.559-14.652,20.624c0,0-7.596,3.574-13.676,13.094
			c0,0-10.91,15.631-26.051,10.68C124.393,709.763,124.811,703.395,124.811,703.395z"/>
		<path fill="#132354" d="M305.457,405.091c0,0,21.676,45.832-11.184,65.161c0,0-66.539,18.222-138.879,26.23l-9.109,2.206
			c0,0,20.535,94.927,28.512,142.085c0,0-2.24,9.799-25.229,13.828c0,0-62.521-125.265-66.387-136.86
			c0,0-26.262-44.881-5.373-59.638c0,0-40.861-57.982-45.555-71.789c0,0-25.402-40.864,3.313-46.938c0,0,18.498-10.215,68.75,9.665
			l85.73,35.617C190.047,384.659,267.49,378.861,305.457,405.091"/>
		<path fill="none" stroke="#0F1C3F" stroke-miterlimit="10" d="M305.457,405.091c0,0,21.676,45.832-11.184,65.161
			c0,0-66.539,18.222-138.879,26.23l-9.109,2.206c0,0,20.535,94.927,28.512,142.085c0,0-2.24,9.799-25.229,13.828
			c0,0-62.521-125.265-66.387-136.86c0,0-26.262-44.881-5.373-59.638c0,0-40.861-57.982-45.555-71.789
			c0,0-25.402-40.864,3.313-46.938c0,0,18.498-10.215,68.75,9.665l85.73,35.617C190.047,384.659,267.49,378.861,305.457,405.091"/>
		<path fill="#0F1C3F" d="M77.535,459.482c0,0-17.275,13.379,6.063,57.432c0,0,59.006,128.596,66.598,137.154
			c0,0,17.795-2.757,24.6-13.294c0,0-7.617-33.013-15.975-79.901l-66.654-81.511L77.535,459.482z"/>
		<path fill="#0F1C3F" d="M101.555,348.904c0,0-13.943,2.759-27.609,0c0,0-6.213,0.414-5.939,8.006c0,0,1.105,6.766-4.828,6.766
			c0,0-9.803,2.483-15.324-2.485c0,0-12.012-7.456-17.809,6.074c0,0-2.604,6.247-2.201,10.717l-8.879-18.38l5.332-16.359
			l24.35-3.312l29.439-2.486L101.555,348.904z"/>
		<path fill="#0F1C3F" d="M187.803,384.797c0,0,1.723,18.498-32.459,22.089c0,0-32.875,1.404-39.883-4.473c-7.002-5.883,0,0,0,0
			s5.598,6.267,11.859,29.736c0,0,30.422-13.667,62.656-20.984l30.303-12.979L187.803,384.797z"/>
		<path fill="#0F1C3F" d="M277.156,404.331c0,0,19.604,35.273-10.213,46.87c0,0-70.012,32.395-127.1,10.055l12.793,34.695
			c0,0,102.574-13.95,132.805-23.491c6.58-2.076,13.527-3.313,19.732-11.393c6.982-9.092,11.674-27.842,0.283-55.976
			c-20.932-51.708,0,0,0,0L277.156,404.331z"/>
		
			<line fill="none" stroke="#3F6093" stroke-width="0.75" stroke-miterlimit="10" x1="212.412" y1="394.183" x2="189.152" y2="384.287"/>
		<path fill="none" stroke="#0F1C3F" stroke-miterlimit="10" d="M184.42,413.029c0,0-42.102,11.612-57.1,20.196"/>
		<path fill="#EABA96" d="M159.371,514.554c0,0,9.213,18.782,18.299,29.821l4.771,5.516l-3.832,10.23l-8.457,9.237l-7.668,10.48
			c0,0-7.021,10.863-7.281,11.177c-0.256,0.31-12.244,10.545-12.244,10.545l-9.248,1.169c0,0-3.693-3.381-3.986-3.777
			c-0.287-0.396-1.633-7.313-1.633-7.313s7.988-17.304,17.689-30.978c0,0,7.545-9.059,6.596-13.051l-11.459-15.653"/>
		<path fill="none" stroke="#E0AA86" stroke-miterlimit="10" d="M159.371,514.554c0,0,9.213,18.782,18.299,29.821l4.771,5.516
			l-3.832,10.23l-8.457,9.237l-7.668,10.48c0,0-7.021,10.863-7.281,11.177c-0.256,0.31-12.244,10.545-12.244,10.545l-9.248,1.169
			c0,0-3.693-3.381-3.986-3.777c-0.287-0.396-1.633-7.313-1.633-7.313s7.988-17.304,17.689-30.978c0,0,7.545-9.059,6.596-13.051
			l-11.459-15.653"/>
		<path fill="#EABA96" d="M164.818,541.123c0,0,5.422,1.751,3.648,7.311"/>
		<path fill="none" stroke="#E0AA86" stroke-miterlimit="10" d="M164.818,541.123c0,0,5.422,1.751,3.648,7.311"/>
		<path fill="#E0AA86" d="M163.141,527.342c0,0,11.447,16.757,12.984,23.273c0,0,0.871,7.677-8.861,15.773
			c0,0-8.67,6.989-8.725,12.055l6.225-3.076l13.711-10.729l4.271-8.604l-3.996-11.407c0,0-10.473-13.556-13.932-19.984"/>
		<path d="M184.758,552.101c1.205,11.55-8.529,17.847-8.529,17.847c-10.287,8.652-12.557,18.895-12.557,18.895l-3.191,6.286
			c-9.883,15.335-25.508,17.101-25.508,17.101c-4.949,1.102-7.758-0.002-9.346-1.683l-0.018,0.063l2.555,3.489
			c0,0,8.135,5.224,25.945-8.283c0,0,5.482-4.369,9.637-12.188c0.664-1.254,2.084-5.402,2.893-7.556
			c1.393-3.713,4.537-9.725,11.352-14.945c0,0,10.514-6.102,8.811-16.235L184.758,552.101z"/>
		
			<path fill="none" stroke="#000000" stroke-width="0.75" stroke-linecap="square" stroke-linejoin="bevel" stroke-miterlimit="10" d="
			M184.758,552.101c1.205,11.55-8.529,17.847-8.529,17.847c-10.287,8.652-12.557,18.895-12.557,18.895l-3.191,6.286
			c-9.883,15.335-25.508,17.101-25.508,17.101c-4.949,1.102-7.758-0.002-9.346-1.683l-0.018,0.063l2.555,3.489
			c0,0,8.135,5.224,25.945-8.283c0,0,5.482-4.369,9.637-12.188c0.664-1.254,2.084-5.402,2.893-7.556
			c1.393-3.713,4.537-9.725,11.352-14.945c0,0,10.514-6.102,8.811-16.235L184.758,552.101z"/>
		<path fill="#0F1C3F" d="M128.092,591.639c0,0-4.639,7.889-4.523,12.899c0,0-0.643,10.372,11.404,7.688
			c0,0,15.625-1.764,25.508-17.099l3.191-6.286c0,0,1.445-10.838,13.518-19.532c0,0,10.713-7.276,7.342-17.04l-5.781-7.644
			c0,0,5.518,10.703-10.445,23.04c0,0-6.773,4.96-10.924,15.465c0,0-7.73,17.427-23.539,15.455
			C128.896,597.969,128.092,591.639,128.092,591.639"/>
		<path fill="none" stroke="#182951" stroke-miterlimit="10" d="M128.092,591.639c0,0-4.639,7.889-4.523,12.899
			c0,0-0.643,10.372,11.404,7.688c0,0,15.625-1.764,25.508-17.099l3.191-6.286c0,0,1.445-10.838,13.518-19.532
			c0,0,10.713-7.276,7.342-17.04l-5.781-7.644c0,0,5.518,10.703-10.445,23.04c0,0-6.773,4.96-10.924,15.465
			c0,0-7.73,17.427-23.539,15.455C128.896,597.969,128.092,591.639,128.092,591.639z"/>
		<path fill="#132354" d="M80.572,361.19c0,0,35.34,27.058,44.729,65.989c0,0,35.096,83.183,40.068,95.054
			c0,0-3.799,9.563-22.004,14.54c0,0-65.004-77.014-66.936-80.327"/>
		<path fill="none" stroke="#0F1C3F" stroke-miterlimit="10" d="M80.572,361.19c0,0,35.34,27.058,44.729,65.989
			c0,0,35.096,83.183,40.068,95.054c0,0-3.799,9.563-22.004,14.54c0,0-65.004-77.014-66.936-80.327"/>
		<path fill="#EABA96" d="M258.939,167.584c0,0-2.682,27.931-2.881,37.966c0,0-39.484,20.603-47.6,30.304
			c0,0-3.074-12.576-1.34-27.831c0,0,7-13.05,3.887-26.629c-3.117-13.58,0,0,0,0L258.939,167.584"/>
		<path fill="none" stroke="#E0AA86" stroke-miterlimit="10" d="M258.939,167.584c0,0-2.682,27.931-2.881,37.966
			c0,0-39.484,20.603-47.6,30.304c0,0-3.074-12.576-1.34-27.831c0,0,7-13.05,3.887-26.629c-3.117-13.58,0,0,0,0L258.939,167.584"/>
		<path fill="#DBA682" d="M211.436,192.482c0,0,18.018-6.601,44.623,9.855l2.207-34.388l-48.199,10.17
			C210.066,178.12,212.369,186,211.436,192.482"/>
		<path fill="#EABA96" d="M181.418,255.235c0,0-4.643-14.082-23.068-14.287c0,0-45.803,63.402-53.053,76.655
			c0,0-26.373-2.311-50.197,7.625c0,0,22.436,4.765,16.359,18.154c0,0,23.883,3.867,34.238,3.867c0,0,10.766,0.414,14.908-8.835
			L181.418,255.235z"/>
		<path fill="none" stroke="#E0AA86" stroke-miterlimit="10" d="M181.418,255.235c0,0-4.643-14.082-23.068-14.287
			c0,0-45.803,63.402-53.053,76.655c0,0-26.373-2.311-50.197,7.625c0,0,22.436,4.765,16.359,18.154c0,0,23.883,3.867,34.238,3.867
			c0,0,10.766,0.414,14.908-8.835L181.418,255.235z"/>
		<path fill="#EABA96" d="M71.459,343.381c0,0-5.176,4.522-5.9,8.352c0,0-1.348,8.905-0.518,14.289c0,0,5.568,10.251-0.271,12.735
			c0,0-6.461,3.521-8.115-9.732c0,0-0.207-7.04-3.52-11.908c0,0-3.107-9.628-15.324-2.796l-10.146,7.56l-2.07,7.664l1.553,15.426
			c0,0,2.174,6.418-1.553,7.247c0,0-4.867,2.59-6.008-5.799c0,0-0.621,6.006-5.486,4.142c0,0-3.314-0.518-1.037-9.628l1.141-4.038
			c0,0-2.381-2.59-2.381-7.972c0,0-4.557-3.314-4.971-8.285v-9.422c0,0,0-6.42,5.072-11.286c0,0,10.355-14.648,42.66-14.6
			C54.584,325.33,77.863,330.706,71.459,343.381"/>
		<path fill="none" stroke="#E0AA86" stroke-miterlimit="10" d="M71.459,343.381c0,0-5.176,4.522-5.9,8.352
			c0,0-1.348,8.905-0.518,14.289c0,0,5.568,10.251-0.271,12.735c0,0-6.461,3.521-8.115-9.732c0,0-0.207-7.04-3.52-11.908
			c0,0-3.107-9.628-15.324-2.796l-10.146,7.56l-2.07,7.664l1.553,15.426c0,0,2.174,6.418-1.553,7.247c0,0-4.867,2.59-6.008-5.799
			c0,0-0.621,6.006-5.486,4.142c0,0-3.314-0.518-1.037-9.628l1.141-4.038c0,0-2.381-2.59-2.381-7.972c0,0-4.557-3.314-4.971-8.285
			v-9.422c0,0,0-6.42,5.072-11.286c0,0,10.355-14.648,42.66-14.6C54.584,325.33,77.863,330.706,71.459,343.381z"/>
		<path fill="none" stroke="#E0AA86" stroke-miterlimit="10" d="M50.266,353.313c0,0-2.723-2.369-3.24-6.063"/>
		<path fill="none" stroke="#E0AA86" stroke-linejoin="bevel" stroke-miterlimit="10" d="M14.203,376.894l4.762-17.291
			c0,0-0.104-3.521,4.559-7.767l10.871-8.595"/>
		<path fill="#09547A" stroke="#052F3F" stroke-miterlimit="10" d="M162.189,233.587c0,0-3.27,3.986-7.033,9.177
			c-12.219,16.833-39.42,54.631-50.234,72.201c0,0-2.359-0.195-7.463,0c0,0,6.135,17.418,0.709,32.284c0,0,6.559,3.277,17.758-1.242
			c0,0,6.299,1.4,49.514-63.151l20.229-32.135"/>
		<path fill="none" stroke="#052F3F" stroke-miterlimit="10" d="M162.189,233.587c0,0-3.27,3.986-7.033,9.177
			c-12.219,16.833-39.42,54.631-50.234,72.201c0,0-2.359-0.195-7.463,0c0,0,6.135,17.418,0.709,32.284c0,0,6.559,3.277,17.758-1.242
			c0,0,6.299,1.4,49.514-63.151l20.229-32.135"/>
		<path fill="#09547A" stroke="#052F3F" stroke-miterlimit="10" d="M157.689,239.277c0,0,12.754-16.277,19.793-24.285
			c0,0,3.42-5.625,19.986-6.657l7.461-5.491c-1.791-5.868,2.875-5.635,2.875-5.635c-4.717-4.529,0-3.604,0-3.604
			c32.48,8.108,50.939,0.505,50.939,0.505c4.918-1.47,1.975,4.648,1.975,4.648c2.473,2.766-0.537,5.501-0.537,5.501
			c1.992,3.559,4.453,5.101,4.453,5.101l26.191,11.293c0,0,14.355,6.628,17.807,25.54l3.518,18.216l1.176,6.083
			c0,0-11.951,11.971-33.27,7.177c0,0,2.625,14.358-4.832,24.574l-6.488,28.714c0,0,3.313,2.348,1.105,5.247
			c0,0,32.166,46.248,35.615,68.888c0,0-45.969-2.624-72.477-5.108c0,0-31.338-10.464-42.934-15.324c0,0,0.691-21.537,2.346-25.54
			c0,0-5.52-5.936-1.797-8.145c0,0-9.385-33.928-8.279-40.141c0,0-20.615-9.031-18.838-38.826c0,0,0.334-12.309,11.047-20.685"/>
		<path fill="none" stroke="#052F3F" stroke-miterlimit="10" d="M157.689,239.277c0,0,12.754-16.277,19.793-24.285
			c0,0,3.42-5.625,19.986-6.657l7.461-5.491c-1.791-5.868,2.875-5.635,2.875-5.635c-4.717-4.529,0-3.604,0-3.604
			c32.48,8.108,50.939,0.505,50.939,0.505c4.918-1.47,1.975,4.648,1.975,4.648c2.473,2.766-0.537,5.501-0.537,5.501
			c1.992,3.559,4.453,5.101,4.453,5.101l26.191,11.293c0,0,14.355,6.628,17.807,25.54l3.518,18.216l1.176,6.083
			c0,0-11.951,11.971-33.27,7.177c0,0,2.625,14.358-4.832,24.574l-6.488,28.714c0,0,3.313,2.348,1.105,5.247
			c0,0,32.166,46.248,35.615,68.888c0,0-45.969-2.624-72.477-5.108c0,0-31.338-10.464-42.934-15.324c0,0,0.691-21.537,2.346-25.54
			c0,0-5.52-5.936-1.797-8.145c0,0-9.385-33.928-8.279-40.141c0,0-20.615-9.031-18.838-38.826c0,0,0.334-12.309,11.047-20.685"/>
		<path fill="#052F3F" d="M235.105,306.278c0,0-19.605-0.277-27.473-12.978c0,0-15.326,19.189-33.451,7.966l9.707,9.566
			c0,0,11.838,4.209,13.391,14.356c0,0,5.9,4.556,6.314-7.35c0,0,7.146-13.253,18.328-4.245
			C221.922,313.595,242.354,322.084,235.105,306.278"/>
		<path fill="#052F3F" d="M184.471,243.516c0,0-13.865,4.192-20.281,17.289c0,0-6.285,11.266-4.979,22.66l-42.564,56.975
			c0,0-8,4.952-17.295,2.802l-1.184,4.008c0,0,4.332,3.537,17.758-1.244c0,0,5.83-2.646,28.16-32.333l19.316-29.159
			C163.402,284.513,156.66,256.74,184.471,243.516"/>
		<path fill="#052F3F" d="M271.291,264.347c0,0,9.176,9.44,8.695,18.843c0,0,0.621,9.733-4.762,19.052l-7.041,28.992
			c0,0,3.832,1.862,1.037,5.074l14.205,21.684c0,0,20.584,34.537,21.551,46.342l-38.24-2.416l-36.965-2.763l-39.033-15.012
			c0,0,43.277-6.16,58.188-13.047c0,0,15.947-7.664,5.9-17.912l6.006-15.841c0,0,2.9-3.106-0.518-5.073l1.031-20.774
			C261.346,311.494,289.721,294.099,271.291,264.347"/>
		<path fill="#EABA96" d="M166.197,433.218c-6.73,4.556-9.732,2.486-9.732,2.486c-2.898-3.107,0.725-5.178,0.725-5.178l7.25-3.831
			c5.797-2.07,12.424-5.799,12.424-5.799l7.557-7.868c0,0,5.076-10.975,29.199-19.053c0,0,14.391-3.415,26.611-10.456
			c0,0,38.826-21.48,62.846-29.245c0,0-12.367-40.718-20.65-74.783c0,0,13.781,3.836,29.797-7.483c0,0,13.314,62.675,15.801,83.108
			c0,0,8.561,23.191-1.656,20.432c-10.217-2.762-1.654,0.227-1.654,0.227s-15.01,18.408-97.531,34.009c0,0-2.07,8.422-18.844,14.426
			c0,0-0.338,0.141-0.965,0.279c-2.41,8.564-8.248,13.491-8.248,13.491c-2.383,7.146-8.49,12.115-8.49,12.115
			c-4.35,6.938-7.768,4.245-7.768,4.245c-2.07-2.69,2.178-6.833,2.178-6.833c6.418-7.041,7.867-11.596,7.867-11.596l3.484-13.201
			c0,0,0.008-0.003-0.002-0.007l0.002,0.007l-2.477,9.384c-0.859,3.251-4.33,6.197-4.33,6.197l-11.277,9.939
			c-5.904,6.524-9.111,3.624-9.111,3.624c-2.693-2.69,1.863-6.419,1.863-6.419c2.988-3.717,7.982-8.324,11.232-11.443
			c1.822-1.746,3.154-3.304,3.154-3.304c0.016-0.146-0.047,0.217,0.002-0.012l-0.002,0.012l-3.154,3.304l-14.441,8.648
			c-6.316,5.59-9.318,2.898-9.318,2.898c-2.693-3.623,3.313-6.757,3.313-6.757l7.662-4.84c4.855-2.466,8.299-5.516,9.848-7.026
			c0.596-0.583,0.918-0.946,0.918-0.946l6.131-10.78l-7.049,11.727l-4.154,2.058L166.197,433.218z"/>
		<path fill="none" stroke="#E0AA86" stroke-miterlimit="10" d="M166.197,433.218c-6.73,4.556-9.732,2.486-9.732,2.486
			c-2.898-3.107,0.725-5.178,0.725-5.178l7.25-3.831c5.797-2.07,12.424-5.799,12.424-5.799l7.557-7.868
			c0,0,5.076-10.975,29.199-19.053c0,0,14.391-3.415,26.611-10.456c0,0,38.826-21.48,62.846-29.245c0,0-12.367-40.718-20.65-74.783
			c0,0,13.781,3.836,29.797-7.483c0,0,13.314,62.675,15.801,83.108c0,0,8.561,23.191-1.656,20.432
			c-10.217-2.762-1.654,0.227-1.654,0.227s-15.01,18.408-97.531,34.009c0,0-2.07,8.422-18.844,14.426c0,0-0.338,0.141-0.965,0.279
			c-2.41,8.564-8.248,13.491-8.248,13.491c-2.383,7.146-8.49,12.115-8.49,12.115c-4.35,6.938-7.768,4.245-7.768,4.245
			c-2.07-2.69,2.178-6.833,2.178-6.833c6.418-7.041,7.867-11.596,7.867-11.596l3.484-13.201c0,0,0.008-0.003-0.002-0.007
			l0.002,0.007l-2.477,9.384c-0.859,3.251-4.33,6.197-4.33,6.197l-11.277,9.939c-5.904,6.524-9.111,3.624-9.111,3.624
			c-2.693-2.69,1.863-6.419,1.863-6.419c2.988-3.717,7.982-8.324,11.232-11.443c1.822-1.746,3.154-3.304,3.154-3.304
			c0.016-0.146-0.047,0.217,0.002-0.012l-0.002,0.012l-3.154,3.304l-14.441,8.648c-6.316,5.59-9.318,2.898-9.318,2.898
			c-2.693-3.623,3.313-6.757,3.313-6.757l7.662-4.84c4.855-2.466,8.299-5.516,9.848-7.026c0.596-0.583,0.918-0.946,0.918-0.946
			l6.131-10.78l-7.049,11.727l-4.154,2.058L166.197,433.218z"/>
		<path fill="none" stroke="#E0AA86" stroke-miterlimit="10" d="M189.977,418.897c0,0-3.346,10.26-4.346,11.458"/>
		<path fill="#09547A" stroke="#052F3F" stroke-miterlimit="10" d="M312.152,264.408l18.434,88.906c0,0,7.279,16.942,0.795,23.581
			c0,0-5.389,4.789-10.676,5.215c0,0-6.023,5.352-14.67,8.495c0,0-9.08-27.159-17.813-32.892l11.789-4.398l-20.025-70.124
			c0,0,1.68-7.87-8.695-18.843"/>
		<path fill="none" stroke="#052F3F" stroke-miterlimit="10" d="M312.152,264.408l18.434,88.906c0,0,7.279,16.942,0.795,23.581
			c0,0-5.389,4.789-10.676,5.215c0,0-6.023,5.352-14.67,8.495c0,0-9.08-27.159-17.813-32.892l11.789-4.398l-20.025-70.124
			c0,0,1.68-7.87-8.695-18.843"/>
		<path fill="#052F3F" stroke="#052F3F" stroke-miterlimit="10" d="M262.285,210.25l19.33,11.919c0,0,19.443,11.752,19.443,26.438
			l22.932,105.248c0,0,12.404,16.948-3.023,23.039c0,0-3.809,3.64-11,1.088c0,0-14.012-15.689-17.129-19.021
			c0,0,12.15,21.425,13.197,31.643c0,0,11.592-6.091,14.213-9.233c0,0,21.145-1.156,9.561-27.571l-17.943-86.445l-3.863-19.842
			c0,0-1.902-16.765-16.506-25.477l-27.633-12.113c0,0-3.539-2.752-4.65-5.83C259.213,204.093,259.945,208.81,262.285,210.25"/>
		<path fill="#052F3F" d="M260.277,216.93c0,0-14.186,18.988-56.773-2.688c0,0-13.5-1.471-8.004,6.109
			c0,0,10.789,11.839,22.68,10.102c0,0-31.814,3.076-14.676,10.494c0,0,10.832,10.439,7.502,18.751c0,0,4.865-9.837,18.447-14.908
			c0,0,22.227-2.191,8.867-8.937C238.32,235.854,278.305,217.322,260.277,216.93"/>
		<path fill="#052F3F" d="M260.277,195.123c0,0,0.244-0.589-7.223,1.769c0,0-21.225,4.255-40.082-0.918l-6.385-1.572
			c0,0,12.258,9.431,36.795,6.157c0,0,12.619-1.405,15.83-2.732C259.213,197.825,260.559,197.809,260.277,195.123"/>
		<path fill="#052F3F" d="M259.736,198.954c0,0-10.119,7.956-38.605,3.929C221.131,202.883,245.199,205.044,259.736,198.954"/>
		<path fill="#052F3F" d="M210.066,198.561c0,0,8.707,7.915,28.943,7.76c0,0-20.146,1.866-32.422-7.368
			C206.588,198.954,204.992,197.776,210.066,198.561"/>
		<path fill="#052F3F" d="M259.213,204.095c0,0-4.879,6.252-35.33,4.683c0,0,21.119,4.519,36.434-2.61L259.213,204.095z"/>
		<path fill="#052F3F" d="M289.721,355.634c0,0,13.318,11.747,17.951,35.951l-13.1,3.698c0,0-7.723-28.059-17.744-32.773
			C276.828,362.509,283.219,356.538,289.721,355.634"/>
		<path fill="none" stroke="#052F3F" stroke-width="0.5" stroke-miterlimit="10" d="M289.721,355.634
			c0,0,13.318,11.747,17.951,35.951l-13.1,3.698c0,0-7.723-28.059-17.744-32.773C276.828,362.509,283.219,356.538,289.721,355.634z"
			/>
		<path fill="#052F3F" d="M96.574,313.099c0,0,9.723,13.167,5.598,37.182l-7.582-0.473c0,0,2.572-24.333-7.84-35.529L96.574,313.099
			z"/>
		<path fill="none" stroke="#052F3F" stroke-width="0.5" stroke-miterlimit="10" d="M96.574,313.099c0,0,9.723,13.167,5.598,37.182
			l-7.582-0.473c0,0,2.572-24.333-7.84-35.529L96.574,313.099z"/>
		<path fill="none" stroke="#052F3F" stroke-miterlimit="10" d="M187.424,241.775c0,0-7.662,3.797-17.082,13.667"/>
		<path fill="#282828" d="M200.822,26.027l-52.787,57.409c0,0-7.85,42.892,23.396,63.547c0,0-4.416-3.479-4.213-7.76
			c0,0,2.895,6.155,9.979,8.833c0,0-2.49-3.405-1.451-5.719c0,0,2.594,5.677,12.789,8.907L200.822,26.027z"/>
		<path fill="none" stroke="#000000" stroke-miterlimit="10" d="M200.822,26.027l-52.787,57.409c0,0-7.85,42.892,23.396,63.547
			c0,0-4.416-3.479-4.213-7.76c0,0,2.895,6.155,9.979,8.833c0,0-2.49-3.405-1.451-5.719c0,0,2.594,5.677,12.789,8.907
			L200.822,26.027z"/>
		<path fill="#EABA96" d="M182.27,111.381c0,0,1.34,17.272,5.299,35.523c0,0,5.139,16.003,19.723,29.984
			c0,0,6.891,11.24,18.332,11.039c0,0,12.105,2.007,22.51-11.039c0,0,20.881-12.623,25.059-37.932l4.813-35.312l-4.012-30.518
			l-12.646-24.284l-2.406-10.038l-24.285,6.825l-39.939,15.855l-13.813,15.254L182.27,111.381z"/>
		<path fill="none" stroke="#E0AA86" stroke-miterlimit="10" d="M182.27,111.381c0,0,1.34,17.272,5.299,35.523
			c0,0,5.139,16.003,19.723,29.984c0,0,6.891,11.24,18.332,11.039c0,0,12.105,2.007,22.51-11.039c0,0,20.881-12.623,25.059-37.932
			l4.813-35.312l-4.012-30.518l-12.646-24.284l-2.406-10.038l-24.285,6.825l-39.939,15.855l-13.813,15.254L182.27,111.381z"/>
		<path fill="#EABA96" d="M269.764,151.184c-1.174,1.034,6.436-11.425,7.641-23.869c0,0,4.074,6.751,8.539,0
			c0,0,9.926-14.722,6.848-26.294c0,0-5.154-14.647-9.668-7.156l-5.119,9.78"/>
		<path fill="none" stroke="#E0AA86" stroke-width="0.5" stroke-miterlimit="10" d="M269.764,151.184
			c-1.174,1.034,6.436-11.425,7.641-23.869c0,0,4.074,6.751,8.539,0c0,0,9.926-14.722,6.848-26.294c0,0-5.154-14.647-9.668-7.156
			l-5.119,9.78"/>
		<path fill="#B7896A" d="M285.432,105.546c0,0,1.471,11.392-2.41,15.91c0,0-3.479,0.24-2.672-3.24c0,0,0.709-1.488,1.225-1.279
			C281.574,116.938,285.299,114.835,285.432,105.546"/>
		<path fill="#282828" d="M178.258,52.252c0,0,12.846-14.851,28.098-17.259c0,0-19.27,10.034-19.27,26.09
			c0,0-16.188,20.472-2.004,50.979c0,0-11.24-29.706,25.688-41.345c0,0,33.318,0,42.951-21.275c0,0-1.203,9.232,7.625,8.831
			c0,0-4.014,19.268,10.438,23.683c0,0,12.041,19.667,0,38.936c0,0,7.225-4.416,10.436-22.879c0,0,9.285-8.331,8.982,10.367
			c0,0,0.102,20.841-10.625,22.046c0,0-0.363,4.515-4.377,9.332c0,0,4.014,0.804,2.006,4.818c0,0,6.021-2.007,6.826-6.825
			c0,0,2.408,3.613,1.604,6.825c0,0,4.816-4.416,2.811-13.649c0,0,2.811,2.008,2.006,9.233c0,0,4.014-6.421,4.014-14.452
			c-2.578,10.271-0.221,11.703-3.41,18.867c0,0,25.488,3.21,26.693-42.147c0,0-6.824-65.832-57.402-69.043
			c0,0-4.816-43.753-70.645-5.218C190.701,28.168,178.258,37.802,178.258,52.252"/>
		<path fill="none" stroke="#000000" stroke-miterlimit="10" d="M178.258,52.252c0,0,12.846-14.851,28.098-17.259
			c0,0-19.27,10.034-19.27,26.09c0,0-16.188,20.472-2.004,50.979c0,0-11.24-29.706,25.688-41.345c0,0,33.318,0,42.951-21.275
			c0,0-1.203,9.232,7.625,8.831c0,0-4.014,19.268,10.438,23.683c0,0,12.041,19.667,0,38.936c0,0,7.225-4.416,10.436-22.879
			c0,0,9.285-8.331,8.982,10.367c0,0,0.102,20.841-10.625,22.046c0,0-0.363,4.515-4.377,9.332c0,0,4.014,0.804,2.006,4.818
			c0,0,6.021-2.007,6.826-6.825c0,0,2.408,3.613,1.604,6.825c0,0,4.816-4.416,2.811-13.649c0,0,2.811,2.008,2.006,9.233
			c0,0,4.014-6.421,4.014-14.452c-2.578,10.271-0.221,11.703-3.41,18.867c0,0,25.488,3.21,26.693-42.147
			c0,0-6.824-65.832-57.402-69.043c0,0-4.816-43.753-70.645-5.218C190.701,28.168,178.258,37.802,178.258,52.252z"/>
		<path d="M190.699,28.168c0,0-65.025,30.91-34.52,92.322c0,0-2.008-10.435,5.621-22.88c0,0-3.078,35.459,27.617,43.621
			c0,0-8.633-6.145-8.219-16.859c0,0-5.752-9.349-4.889-20.587c0,0,0.887-2.764,1.945-6.174c0,0,3.213,14.451,6.826,14.451
			c0,0-14.252-24.085,2.004-50.978c0,0-2.205-13.447,19.27-26.09c0,0-16.26,2.609-28.1,17.259
			C178.256,52.252,176.049,41.817,190.699,28.168"/>
		<path fill="none" stroke="#000000" stroke-miterlimit="10" d="M190.699,28.168c0,0-65.025,30.91-34.52,92.322
			c0,0-2.008-10.435,5.621-22.88c0,0-3.078,35.459,27.617,43.621c0,0-8.633-6.145-8.219-16.859c0,0-5.752-9.349-4.889-20.587
			c0,0,0.887-2.764,1.945-6.174c0,0,3.213,14.451,6.826,14.451c0,0-14.252-24.085,2.004-50.978c0,0-2.205-13.447,19.27-26.09
			c0,0-16.26,2.609-28.1,17.259C178.256,52.252,176.049,41.817,190.699,28.168z"/>
		<path d="M261.346,33.387c0,0,47.367-0.001,57.402,69.042c0,0,1.004,40.14-26.691,42.145c0,0,3.975-6.634,3.408-18.864
			c0,0,7.428,1.203,8.631,7.826C304.096,133.536,335.605,73.327,261.346,33.387"/>
		<path fill="none" stroke="#000000" stroke-miterlimit="10" d="M261.346,33.387c0,0,47.367-0.001,57.402,69.042
			c0,0,1.004,40.14-26.691,42.145c0,0,3.975-6.634,3.408-18.864c0,0,7.428,1.203,8.631,7.826
			C304.096,133.536,335.605,73.327,261.346,33.387z"/>
		<path d="M277.703,128.168c0,0,0.771,4.31-4.08,16.206c0,0,6.727-3.679,4.582,0.201c0,0,5.889-2.34,6.826-6.823
			c0,0,3.143,2.943,1.604,6.823c0,0,4.945-5.421,2.811-13.646c0,0,3.611,1.872,2.006,9.23c0,0,5.686-10.502,3.881-17.594
			c0,0-0.65,3.305-2.139,4.347c-1.492,1.046-3.814-0.167-3.143-3.544c0,0,2.594-18.667,0.865-22.277c0,0,1.252,6.765-0.014,13.754
			C289.184,124.334,284.178,134.236,277.703,128.168"/>
		<path fill="none" stroke="#000000" stroke-miterlimit="10" d="M277.703,128.168c0,0,0.771,4.31-4.08,16.206
			c0,0,6.727-3.679,4.582,0.201c0,0,5.889-2.34,6.826-6.823c0,0,3.143,2.943,1.604,6.823c0,0,4.945-5.421,2.811-13.646
			c0,0,3.611,1.872,2.006,9.23c0,0,5.686-10.502,3.881-17.594c0,0-0.65,3.305-2.139,4.347c-1.492,1.046-3.814-0.167-3.143-3.544
			c0,0,2.594-18.667,0.865-22.277c0,0,1.252,6.765-0.014,13.754C289.184,124.334,284.178,134.236,277.703,128.168z"/>
		<path fill="#C1A578" d="M232.982,105.037c0,0,1.939-10.369,12.309-13.046c0,0,11.91-2.943,14.984,7.294l-0.668,2.437
			c0,0-4.416-5.248-11.975-4.927C247.633,96.794,236.059,98.949,232.982,105.037"/>
		<path d="M233.918,106.041l-0.936,0.619v-1.623c0,0,6.057-8.175,14.65-8.24c0,0,7.492-0.458,11.709,4.293
			c0,0,1.402,0.536,2.943-1.271c0,0-0.939,3.212-3.346,3.144L233.918,106.041z"/>
		
			<path fill="none" stroke="#000000" stroke-width="0.25" stroke-linecap="round" stroke-linejoin="round" stroke-miterlimit="10" d="
			M233.918,106.041l-0.936,0.619v-1.623c0,0,6.057-8.175,14.65-8.24c0,0,7.492-0.458,11.709,4.293c0,0,1.402,0.536,2.943-1.271
			c0,0-0.939,3.212-3.346,3.144L233.918,106.041z"/>
		<path fill="#FFFFFF" d="M233.918,106.041c0,0-0.535,7.092,11.373,9.098c0,0,10.303,2.931,13.648-12.176
			C258.939,102.963,249.705,89.852,233.918,106.041"/>
		
			<path fill="none" stroke="#000000" stroke-width="0.25" stroke-linecap="round" stroke-linejoin="round" stroke-miterlimit="10" d="
			M233.918,106.041c0,0-0.535,7.092,11.373,9.098c0,0,10.303,2.931,13.648-12.176C258.939,102.963,249.705,89.852,233.918,106.041z"
			/>
		<path fill="#70582D" d="M251.992,106.592c0,2.963-2.402,5.365-5.363,5.365c-2.963,0-5.361-2.401-5.361-5.365
			c0-2.962,2.398-5.362,5.361-5.362C249.59,101.23,251.992,103.63,251.992,106.592"/>
		<path d="M250.25,107.379c0,1.835-1.486,3.322-3.322,3.322c-1.834,0-3.32-1.487-3.32-3.322c0-1.833,1.486-3.32,3.32-3.32
			C248.764,104.059,250.25,105.546,250.25,107.379"/>
		<path fill="#FFFFFF" d="M245.381,105.705c0,0.643-0.52,1.163-1.164,1.163c-0.641,0-1.162-0.52-1.162-1.163
			c0-0.641,0.521-1.161,1.162-1.161C244.861,104.543,245.381,105.063,245.381,105.705"/>
		<path fill="#FFFFFF" d="M243.385,103.8c0,0.41-0.334,0.746-0.746,0.746s-0.746-0.336-0.746-0.746c0-0.412,0.334-0.747,0.746-0.747
			S243.385,103.389,243.385,103.8"/>
		<path d="M232.982,93.329v-2.942c0,0,12.977-13.78,29.303-2.529C262.285,87.857,245.291,80.885,232.982,93.329"/>
		<path fill="none" stroke="#000000" stroke-linecap="round" stroke-linejoin="round" stroke-miterlimit="10" d="M232.982,93.329
			v-2.942c0,0,12.977-13.78,29.303-2.529C262.285,87.857,245.291,80.885,232.982,93.329z"/>
		<path fill="#C1A578" d="M212.973,104.896c0,0-1.789-9.558-11.348-12.024c0,0-10.977-2.714-13.811,6.722l0.617,2.247
			c0,0,4.068-4.838,11.035-4.541C199.467,97.3,210.135,99.285,212.973,104.896"/>
		<path d="M212.111,105.823l0.861,0.569v-1.496c0,0-5.58-7.535-13.506-7.597c0,0-6.902-0.419-10.791,3.959
			c0,0-1.293,0.492-2.713-1.17c0,0,0.863,2.958,3.084,2.897L212.111,105.823z"/>
		
			<path fill="none" stroke="#000000" stroke-width="0.25" stroke-linecap="round" stroke-linejoin="round" stroke-miterlimit="10" d="
			M212.111,105.823l0.861,0.569v-1.496c0,0-5.58-7.535-13.506-7.597c0,0-6.902-0.419-10.791,3.959c0,0-1.293,0.492-2.713-1.17
			c0,0,0.863,2.958,3.084,2.897L212.111,105.823z"/>
		<path fill="#FFFFFF" d="M212.111,105.823c0,0,0.494,6.536-10.482,8.385c0,0-9.498,2.699-12.582-11.223
			C189.047,102.986,197.557,90.899,212.111,105.823"/>
		
			<path fill="none" stroke="#000000" stroke-width="0.25" stroke-linecap="round" stroke-linejoin="round" stroke-miterlimit="10" d="
			M212.111,105.823c0,0,0.494,6.536-10.482,8.385c0,0-9.498,2.699-12.582-11.223C189.047,102.986,197.557,90.899,212.111,105.823z"
			/>
		<path fill="#70582D" d="M195.498,106.317c0,2.73,2.215,4.944,4.943,4.944c2.73,0,4.943-2.214,4.943-4.944
			c0-2.731-2.213-4.943-4.943-4.943C197.713,101.374,195.498,103.586,195.498,106.317"/>
		<path d="M197.381,106.845c0,1.689,1.369,3.062,3.061,3.062s3.063-1.373,3.063-3.062c0-1.691-1.371-3.061-3.063-3.061
			S197.381,105.154,197.381,106.845"/>
		<path fill="#FFFFFF" d="M197.049,105.193c0,0.527,0.43,0.955,0.955,0.955c0.531,0,0.955-0.428,0.955-0.955
			c0-0.528-0.424-0.957-0.955-0.957C197.479,104.236,197.049,104.665,197.049,105.193"/>
		<path fill="#FFFFFF" d="M196.006,103.392c0,0.338,0.273,0.613,0.609,0.613c0.342,0,0.615-0.274,0.615-0.613
			s-0.273-0.614-0.615-0.614C196.279,102.778,196.006,103.053,196.006,103.392"/>
		<path d="M214.154,91.599v-2.943c0,0-12-13.782-27.096-2.528C187.059,86.128,202.771,79.155,214.154,91.599"/>
		<path fill="none" stroke="#000000" stroke-linecap="round" stroke-linejoin="round" stroke-miterlimit="10" d="M214.154,91.599
			v-2.943c0,0-12-13.782-27.096-2.528C187.059,86.128,202.771,79.155,214.154,91.599z"/>
		<path fill="none" stroke="#D8A27D" stroke-width="0.75" stroke-miterlimit="10" d="M217.727,101.02c0,0,2.678,21.746-2.406,29.371
			c0,0-3.076,10.438,13.514,5.22"/>
		<path fill="#561409" d="M212.648,152.778l-2.322,1.345c0,0-1.227,5.085,1.643,7.178c2.867,2.096,13.803,3.738,25.828-3.739
			s2.598-4.487,2.598-4.487s-16.127-2.84-16.537-2.691"/>
		<path fill="#FFFFFF" d="M211.561,153.376c0,0-1.348,3.065,0.15,3.663c1.494,0.598,18.541,0.449,21.756-0.449
			s3.289-2.915,3.289-2.915l-19.662-1.72"/>
		<path fill="#BA2A13" d="M233.016,161.254c0,0-1.541-2.822-7.299-2.073c-5.756,0.747-7.521,2.09-8.494,4.181"/>
		<path fill="#9E3025" d="M210.814,153.75c0,0-0.068,6.585,4.715,7.708c9.709,2.274,13.646,0.526,24.057-6.5
			c1.363-0.92,5.518-2.879,4.238-1.633c-0.604,0.585-5.816,11.579-14.691,14.182c-8.879,2.604-13.58,0.537-16.898-2.854
			c-3.516-3.589-2.4-10.735-2.4-10.735"/>
		<path fill="none" stroke="#4C2311" stroke-width="0.25" stroke-miterlimit="10" d="M210.814,153.75c0,0-0.068,6.585,4.715,7.708
			c9.709,2.274,13.646,0.526,24.057-6.5c1.363-0.92,5.518-2.879,4.238-1.633c-0.604,0.585-5.816,11.579-14.691,14.182
			c-8.879,2.604-13.58,0.537-16.898-2.854c-3.516-3.589-2.4-10.735-2.4-10.735"/>
		<path fill="#871D08" d="M246.275,152.162c1.547-0.038-7.395,4.609-13.398,2.484c-11.412-4.037-24.217,1.666-26.447,0.375
			c-2.225-1.29,5.35-0.904,10.063-7.613c0.51-0.723,1.17-1.237,2.941-0.394c1.773,0.843,1.879,1.168,3.006,1.198
			c1.127,0.028,2.77-2.125,3.896-2.094C227.461,146.144,230.418,152.553,246.275,152.162"/>
		<path fill="none" stroke="#4C2311" stroke-width="0.25" stroke-miterlimit="10" d="M246.275,152.162
			c1.547-0.038-7.395,4.609-13.398,2.484c-11.412-4.037-24.217,1.666-26.447,0.375c-2.225-1.29,5.35-0.904,10.063-7.613
			c0.51-0.723,1.17-1.237,2.941-0.394c1.773,0.843,1.879,1.168,3.006,1.198c1.127,0.028,2.77-2.125,3.896-2.094
			C227.461,146.144,230.418,152.553,246.275,152.162z"/>
		<path fill="#DDAC8A" d="M218.18,174.958c0,0,5.039,5.179,9.965,0.438C228.145,175.396,224.482,176.617,218.18,174.958"/>
		<path fill="#A5ABAD" d="M284.227,127.535c-0.059-1.497-1.322-2.666-2.82-2.607c-1.5,0.058-2.666,1.32-2.611,2.819
			c0.063,1.499,1.324,2.667,2.82,2.609C283.119,130.298,284.283,129.036,284.227,127.535"/>
		<path fill="none" stroke="#959DA0" stroke-width="0.5" stroke-miterlimit="10" d="M284.227,127.535
			c-0.059-1.497-1.322-2.666-2.82-2.607c-1.5,0.058-2.666,1.32-2.611,2.819c0.063,1.499,1.324,2.667,2.82,2.609
			C283.119,130.298,284.283,129.036,284.227,127.535z"/>
		<path fill="#B1BABC" d="M281.615,126.037c0,0-1.898,0.555-1.471,2.921c0,0-1.01-1.474-0.178-2.706
			C279.967,126.252,280.449,125.464,281.615,126.037"/>
		<g>
			<g>
				<path fill="#272A3F" d="M239.064,268.892l-0.008-2.774c0.725-0.002,1.459-0.027,2.197-0.072l0.168,2.77
					C240.631,268.862,239.84,268.889,239.064,268.892z M236.674,268.806c-0.83-0.063-1.637-0.166-2.408-0.311l0.514-2.726
					c0.674,0.126,1.381,0.215,2.109,0.271L236.674,268.806z M243.758,268.616l-0.299-2.758c0.744-0.081,1.484-0.178,2.209-0.285
					l0.402,2.745C245.313,268.429,244.539,268.53,243.758,268.616z M248.365,267.94l-0.494-2.73c0.764-0.138,1.5-0.284,2.197-0.432
					l0.576,2.713C249.922,267.644,249.156,267.795,248.365,267.94z M252.906,266.98l-0.652-2.696
					c0.836-0.201,1.572-0.392,2.178-0.555l0.719,2.68C254.527,266.576,253.768,266.772,252.906,266.98z"/>
			</g>
			<g>
				<path fill="#272A3F" d="M242.936,295.63c-0.682-0.002-1.35-0.059-1.99-0.166l0.463-2.736c0.492,0.083,1.008,0.126,1.531,0.128
					l0.434-0.005l0.059,2.774L242.936,295.63z M245.82,295.435l-0.391-2.747c0.691-0.099,1.352-0.244,1.967-0.432l0.813,2.652
					C247.459,295.138,246.656,295.316,245.82,295.435z M238.506,294.764c-0.77-0.32-1.516-0.731-2.215-1.223l1.592-2.27
					c0.537,0.375,1.104,0.689,1.686,0.931L238.506,294.764z M250.516,293.96l-1.299-2.45c0.576-0.306,1.117-0.669,1.605-1.081
					l1.787,2.123C251.971,293.09,251.266,293.564,250.516,293.96z M234.395,291.912c-0.545-0.567-1.068-1.204-1.549-1.893
					l2.27-1.593c0.402,0.571,0.832,1.098,1.279,1.564L234.395,291.912z M254.352,290.744l-2.182-1.715
					c0.395-0.502,0.76-1.063,1.078-1.666l2.451,1.303C255.299,289.413,254.848,290.113,254.352,290.744z M231.598,287.965
					c-0.371-0.692-0.705-1.415-1.006-2.157l2.568-1.045c0.268,0.652,0.561,1.289,0.883,1.897L231.598,287.965z M256.684,286.449
					l-2.605-0.952c0.23-0.635,0.436-1.303,0.609-1.999l2.689,0.677C257.178,284.967,256.949,285.726,256.684,286.449z
					 M229.801,283.59c-0.232-0.745-0.434-1.5-0.609-2.259l2.703-0.627c0.158,0.694,0.344,1.384,0.555,2.064L229.801,283.59z
					 M257.854,281.876l-2.736-0.458c0.115-0.688,0.209-1.397,0.283-2.128l2.762,0.281
					C258.08,280.364,257.977,281.132,257.854,281.876z M228.746,279.043c-0.125-0.778-0.223-1.551-0.295-2.309l2.762-0.263
					c0.066,0.701,0.158,1.414,0.273,2.132L228.746,279.043z M258.34,277.277l-2.77-0.151c0.041-0.712,0.063-1.439,0.076-2.184
					l2.773,0.047C258.408,275.768,258.381,276.531,258.34,277.277z M228.309,274.403l-0.012-0.825c0-0.522,0.014-1.03,0.041-1.519
					l2.77,0.151c-0.023,0.44-0.035,0.897-0.035,1.367l0.01,0.761L228.309,274.403z M255.648,272.751
					c-0.01-0.725-0.029-1.459-0.057-2.204l2.773-0.101c0.027,0.767,0.047,1.521,0.057,2.265L255.648,272.751z M231.324,270.131
					l-2.74-0.441c0.15-0.937,0.361-1.758,0.623-2.44l2.59,0.996C231.604,268.75,231.443,269.383,231.324,270.131z M255.488,268.342
					c-0.041-0.73-0.09-1.471-0.139-2.218l2.766-0.185c0.053,0.756,0.102,1.504,0.143,2.244L255.488,268.342z"/>
			</g>
			<g>
				<path fill="#272A3F" d="M256.402,266.06l-0.246-0.848l-0.871,0.078l-0.053-0.605l0.75-0.074l-0.354-1.216l0.559-0.168
					c0.396-0.128,0.834-0.069,1.186,0.161c0.352,0.229,0.578,0.605,0.621,1.021l0.055,0.634l-1.24,0.11l0.229,0.715L256.402,266.06z
					"/>
			</g>
			<g>
				<path fill="#272A3F" d="M231.631,267.764c-0.225-0.087-0.451-0.181-0.666-0.28l0.355-0.762l-1.313-0.938
					c0.25-0.311,0.523-0.559,0.814-0.738c0.396-0.247,0.889-0.276,1.314-0.076c0.16,0.074,0.328,0.143,0.498,0.209l-0.668,1.721
					l0.313,0.507l-0.398-0.285L231.631,267.764z"/>
			</g>
			<g>
				<polygon fill-rule="evenodd" clip-rule="evenodd" fill="#FFFFFF" points="238.008,278.706 243.146,278.554 240.537,284.458 
					239.85,283.809 241.514,280.06 241.555,279.954 241.574,279.855 241.551,279.739 241.516,279.676 241.469,279.626 
					241.361,279.572 241.225,279.548 238.072,279.64 				"/>
				<path fill-rule="evenodd" clip-rule="evenodd" fill="#FFFFFF" d="M243.256,273.17c0.664-0.019,1.248,0.567,1.295,1.306
					c0.053,0.737-0.445,1.358-1.109,1.378c-0.662,0.019-1.244-0.566-1.299-1.307C242.096,273.807,242.594,273.191,243.256,273.17"/>
				<polygon fill-rule="evenodd" clip-rule="evenodd" fill="#FFFFFF" points="243.672,279.518 241.213,284.939 241.994,285.328 
					243.605,281.8 243.656,281.721 243.732,281.671 243.836,281.648 243.953,281.666 244.029,281.718 244.088,281.787 
					246.197,285.203 246.938,284.737 				"/>
				<polygon fill-rule="evenodd" clip-rule="evenodd" fill="#FFFFFF" points="244.033,278.518 249.232,278.365 249.295,279.288 
					246.117,279.382 246.025,279.419 245.934,279.471 245.865,279.563 245.838,279.673 245.846,279.772 245.877,279.874 
					248.1,283.56 247.529,284.224 				"/>
				<path fill-rule="evenodd" clip-rule="evenodd" fill="#FFFFFF" d="M239.178,277.629v0.004c0,0.023-0.004,0.038-0.004,0.05
					c0.004,0.07,0.047,0.118,0.117,0.152c0.076,0.03,0.188,0.044,0.336,0.04c0.111-0.003,0.201-0.021,0.266-0.05
					c0.059-0.028,0.09-0.069,0.088-0.116c-0.006-0.074-0.139-0.13-0.393-0.168c-0.031-0.004-0.057-0.007-0.068-0.011
					c-0.02-0.003-0.041-0.005-0.074-0.011c-0.408-0.063-0.676-0.133-0.797-0.216c-0.059-0.04-0.102-0.087-0.139-0.144
					c-0.031-0.056-0.051-0.122-0.053-0.191c-0.016-0.178,0.068-0.313,0.254-0.409c0.172-0.097,0.441-0.149,0.803-0.161
					c0.354-0.012,0.615,0.025,0.793,0.105c0.174,0.082,0.271,0.212,0.283,0.39l0.004,0.02l-0.672,0.021l-0.004-0.008
					c0-0.061-0.039-0.108-0.109-0.139c-0.07-0.029-0.168-0.042-0.301-0.039c-0.1,0.003-0.178,0.018-0.23,0.04
					c-0.053,0.026-0.08,0.059-0.076,0.101c0.006,0.075,0.154,0.134,0.451,0.176c0.055,0.009,0.1,0.015,0.133,0.019
					c0.211,0.034,0.363,0.063,0.451,0.089c0.09,0.022,0.168,0.055,0.236,0.089c0.074,0.042,0.133,0.096,0.176,0.16
					c0.043,0.066,0.068,0.137,0.076,0.215c0.012,0.18-0.082,0.323-0.275,0.425c-0.199,0.104-0.486,0.164-0.865,0.175
					c-0.377,0.01-0.65-0.03-0.822-0.118c-0.182-0.088-0.275-0.237-0.285-0.443l-0.006-0.025L239.178,277.629z M241.055,278.161
					l-0.125-1.776l1.908-0.056l0.027,0.383l-1.193,0.035l0.02,0.282l1.105-0.032l0.023,0.378l-1.102,0.034l0.023,0.345l1.238-0.038
					l0.027,0.389L241.055,278.161z M243.311,278.096l-0.127-1.778l0.906-0.027l1.055,1.164l-0.082-1.191l0.686-0.021l0.125,1.778
					l-0.941,0.027l-1.023-1.168l0.086,1.194L243.311,278.096z M247.678,277.255l-0.393-0.634l-0.314,0.654L247.678,277.255z
					 M246.635,277.998l-0.719,0.021l0.984-1.812l0.795-0.023l1.182,1.747l-0.797,0.023l-0.182-0.317l-1.113,0.034L246.635,277.998z"
					/>
			</g>
		</g>
	</g>
</g>
</svg>
