<?xml version="1.0" encoding="utf-8"?>
<!-- Generator: Adobe Illustrator 16.0.0, SVG Export Plug-In . SVG Version: 6.00 Build 0)  -->
<!DOCTYPE svg PUBLIC "-//W3C//DTD SVG 1.1//EN" "http://www.w3.org/Graphics/SVG/1.1/DTD/svg11.dtd">
<svg version="1.1" id="Capa_1" xmlns="http://www.w3.org/2000/svg" xmlns:xlink="http://www.w3.org/1999/xlink" x="0px" y="0px"
	 width="235px" height="374.938px" viewBox="0 0 235 374.938" enable-background="new 0 0 235 374.938" xml:space="preserve">
<g>
	<image overflow="visible" width="235" height="88" xlink:href="6A7D8389.png"  transform="matrix(1 0 0 1 0 286.9385)">
	</image>
	<path fill="#50565B" d="M72.426,221.829l1.203-2.213c0,0-6.543,1.828-6.591-2.213c-0.049-4.042-0.241-36.566-0.241-36.566
		l-2.31-0.288l0.241,39.836l1.251,2.453l3.199-0.24L72.426,221.829"/>
	<path fill="none" stroke="#656C70" stroke-miterlimit="10" d="M72.426,221.829l1.203-2.213c0,0-6.543,1.828-6.591-2.213
		c-0.049-4.042-0.241-36.566-0.241-36.566l-2.31-0.288l0.241,39.836l1.251,2.453l3.199-0.24L72.426,221.829"/>
	<path fill="#808589" d="M72.426,221.829c0,0-6.832,0.933-6.832-3.287v-37.993h-5.58v37.993c0,0-0.754,8.223,5.869,8.242l6.623,0.02
		L72.426,221.829z"/>
	<path fill="none" stroke="#656C70" stroke-miterlimit="10" d="M72.426,221.829c0,0-6.832,0.933-6.832-3.287v-37.993h-5.58v37.993
		c0,0-0.754,8.223,5.869,8.242l6.623,0.02L72.426,221.829z"/>
	<rect x="107.259" y="270.256" fill="#808589" width="6.255" height="28.456"/>
	<rect x="107.259" y="270.256" fill="none" stroke="#656C70" stroke-miterlimit="10" width="6.255" height="28.456"/>
	<path fill="#252728" d="M114.374,270.896h-8.169c-1.08,0-1.969-0.848-2.021-1.928l-1.447-30.396h15.106l-1.447,30.396
		C116.344,270.048,115.454,270.896,114.374,270.896"/>
	<path fill="none" stroke="#000000" stroke-miterlimit="10" d="M114.374,270.896h-8.169c-1.08,0-1.969-0.848-2.021-1.928
		l-1.447-30.396h15.106l-1.447,30.396C116.344,270.048,115.454,270.896,114.374,270.896z"/>
	<path fill="#1A1B1C" d="M118.25,328.032c0,4.343-3.521,7.863-7.864,7.863s-7.864-3.521-7.864-7.863
		c0-4.344,3.521-7.863,7.864-7.863S118.25,323.688,118.25,328.032"/>
	<circle fill="none" stroke="#000000" stroke-miterlimit="10" cx="110.386" cy="328.032" r="7.864"/>
	<path fill="#1A1B1C" d="M141.017,326.493c0,4.145-3.359,7.504-7.505,7.504c-4.144,0-7.504-3.359-7.504-7.504
		c0-4.146,3.36-7.506,7.504-7.506C137.657,318.987,141.017,322.348,141.017,326.493"/>
	<circle fill="none" stroke="#000000" stroke-miterlimit="10" cx="133.512" cy="326.493" r="7.504"/>
	<path fill="#1A1B1C" d="M94.777,326.493c0,4.145-3.359,7.504-7.505,7.504s-7.505-3.359-7.505-7.504
		c0-4.146,3.359-7.506,7.505-7.506S94.777,322.348,94.777,326.493"/>
	<circle fill="none" stroke="#000000" stroke-miterlimit="10" cx="87.272" cy="326.493" r="7.505"/>
	<path fill="#A0A6AA" d="M115.884,328.032c0,3.037-2.462,5.498-5.498,5.498c-3.037,0-5.498-2.461-5.498-5.498
		s2.461-5.498,5.498-5.498C113.422,322.534,115.884,324.995,115.884,328.032"/>
	<path fill="#A0A6AA" d="M138.393,326.493c0,2.694-2.186,4.879-4.881,4.879c-2.694,0-4.88-2.185-4.88-4.879
		c0-2.696,2.186-4.881,4.88-4.881C136.207,321.612,138.393,323.797,138.393,326.493"/>
	<path fill="#A0A6AA" d="M92.153,326.493c0,2.694-2.187,4.879-4.881,4.879c-2.695,0-4.88-2.185-4.88-4.879
		c0-2.696,2.185-4.881,4.88-4.881C89.967,321.612,92.153,323.797,92.153,326.493"/>
	<path fill="#1A1B1C" d="M115.06,327.225c0,2.591-2.1,4.69-4.691,4.69c-2.59,0-4.689-2.1-4.689-4.69s2.1-4.69,4.689-4.69
		C112.96,322.534,115.06,324.634,115.06,327.225"/>
	<circle fill="none" stroke="#000000" stroke-miterlimit="10" cx="110.369" cy="327.225" r="4.69"/>
	<path fill="#1A1B1C" d="M137.601,325.984c0,2.259-1.83,4.089-4.089,4.089c-2.258,0-4.088-1.83-4.088-4.089s1.83-4.089,4.088-4.089
		C135.771,321.896,137.601,323.726,137.601,325.984"/>
	<circle fill="none" stroke="#000000" stroke-miterlimit="10" cx="133.512" cy="325.984" r="4.088"/>
	<path fill="#1A1B1C" d="M91.23,325.984c0,2.187-1.771,3.96-3.958,3.96s-3.959-1.773-3.959-3.96s1.772-3.958,3.959-3.958
		S91.23,323.798,91.23,325.984"/>
	<circle fill="none" stroke="#000000" stroke-miterlimit="10" cx="87.272" cy="325.984" r="3.958"/>
	<path fill="#A0A6AA" d="M113.096,272.745c0,0-4.762-1.843-4.466,2.969v20.848c0,0-0.803,1.146,3.76,1.648h-4.553l-0.21-26.922
		h5.518L113.096,272.745z"/>
	<path fill="#808589" d="M137.601,309.199c-1.154-6.03-12.765-5.966-12.765-5.966h-6.704v-3.344c0-0.65-0.527-1.179-1.179-1.179
		h-13.326c-0.652,0-1.18,0.528-1.18,1.179v3.344h-9.814c-10.328,0-9.262,7.57-9.262,7.57v9.461c0,1.253,1.016,2.27,2.27,2.27h3.175
		c1.254,0,2.27-1.017,2.27-2.27v-0.859v-3.534c0-7.57,5.012-7.12,5.012-7.12l10.337-0.047v12.414c0,0.782,0.633,1.416,1.414,1.416
		h4.884c0.782,0,1.415-0.634,1.415-1.416v-12.449l10.561-0.047c3.947,0,4.677,3.553,4.787,5.457v6.879
		c0,0.871,0.705,1.576,1.575,1.576h4.563c0.87,0,1.574-0.705,1.574-1.576v-11.402c0-0.02-0.004-0.039-0.005-0.059L137.601,309.199z"
		/>
	<path fill="none" stroke="#656C70" stroke-miterlimit="10" d="M137.601,309.199c-1.154-6.03-12.765-5.966-12.765-5.966h-6.704
		v-3.344c0-0.65-0.527-1.179-1.179-1.179h-13.326c-0.652,0-1.18,0.528-1.18,1.179v3.344h-9.814c-10.328,0-9.262,7.57-9.262,7.57
		v9.461c0,1.253,1.016,2.27,2.27,2.27h3.175c1.254,0,2.27-1.017,2.27-2.27v-0.859v-3.534c0-7.57,5.012-7.12,5.012-7.12l10.337-0.047
		v12.414c0,0.782,0.633,1.416,1.414,1.416h4.884c0.782,0,1.415-0.634,1.415-1.416v-12.449l10.561-0.047
		c3.947,0,4.677,3.553,4.787,5.457v6.879c0,0.871,0.705,1.576,1.575,1.576h4.563c0.87,0,1.574-0.705,1.574-1.576v-11.402
		c0-0.02-0.004-0.039-0.005-0.059L137.601,309.199z"/>
	<path fill="#A0A6AA" d="M110.471,305.255c0,0-3.789-0.338-3.645,3.127l-0.005,11.834c0,0-0.478,2.271,2.266,1.811
		c0,0-0.866,0.067-1.3-2.099l-0.096-11.595C107.691,308.333,108.149,305.928,110.471,305.255"/>
	<path fill="#A0A6AA" d="M110.386,299.144h-5.918c0,0-2.068-0.48-1.587,2.021l-0.072,2.502l1.947-3.32L110.386,299.144z"/>
	<path fill="#A0A6AA" d="M89.217,304.052c0,0-5.581,0.528-5.341,7.602l-0.007,7.938c0,0-0.907,2.743,3.375,2.406
		c0,0-1.876-0.625-1.685-4.522l0.097-7.891C85.656,309.584,85.512,306.745,89.217,304.052"/>
	<path fill="#262C35" d="M86.327,99.589c0,0-2.581-6.913-21.198-6.54c0,0-19.644-5.321-21.691,37.856v38.695
		c0,0-1.538,26.699,20.666,25.953c0,0,23.571,1.779,23.229-18.902L86.327,99.589"/>
	<path fill="none" stroke="#161A1E" stroke-miterlimit="10" d="M86.327,99.589c0,0-2.581-6.913-21.198-6.54
		c0,0-19.644-5.321-21.691,37.856v38.695c0,0-1.538,26.699,20.666,25.953c0,0,23.571,1.779,23.229-18.902L86.327,99.589"/>
	<path fill="#181D23" d="M75.035,97.018c0,0-17.251-7.404-21.181,32.777l-2.391,44.066c0,0-0.684,16.465,13.665,16.84
		c14.348,0.373,0.683,0.979,0.683,0.979s18.789,1.26,19.728-16.852l4.015-61.426C89.554,113.402,87.332,96.691,75.035,97.018"/>
	<path fill="#50565B" d="M125.17,241.903H93.293c-1.528,0-2.777-1.25-2.777-2.776v-7.637c0-1.026,0.841-1.867,1.867-1.867h33.696
		c1.026,0,1.868,0.841,1.868,1.867v7.637C127.947,240.653,126.697,241.903,125.17,241.903"/>
	<path fill="none" stroke="#656C70" stroke-miterlimit="10" d="M125.17,241.903H93.293c-1.528,0-2.777-1.25-2.777-2.776v-7.637
		c0-1.026,0.841-1.867,1.867-1.867h33.696c1.026,0,1.868,0.841,1.868,1.867v7.637C127.947,240.653,126.697,241.903,125.17,241.903z"
		/>
	<path fill="#262C35" stroke="#0F1C3F" stroke-miterlimit="10" d="M132.926,233.761c3.148-0.137-8.533,1.193-26.082,1.539
		c-6.991,0.139-20.586-0.77-20.586-0.77c-3.263,0-15.693-1.924-15.693-8.66v-4.041c0-7.377,12.431-9.43,15.693-9.43
		c0,0,13.444-0.223,20.382,0c14.915,0.477,34.44,1.539,34.44,1.539c3.264,0,8.356,4.038,8.356,7.12v4.812
		C149.01,230.489,136.19,233.761,132.926,233.761"/>
	<path fill="none" stroke="#161A1E" stroke-miterlimit="10" d="M132.926,233.761c3.148-0.137-8.533,1.193-26.082,1.539
		c-6.991,0.139-20.586-0.77-20.586-0.77c-3.263,0-15.693-1.924-15.693-8.66v-4.041c0-7.377,12.431-9.43,15.693-9.43
		c0,0,13.444-0.223,20.382,0c14.915,0.477,34.44,1.539,34.44,1.539c3.264,0,8.356,4.038,8.356,7.12v4.812
		C149.01,230.489,136.19,233.761,132.926,233.761z"/>
	<path fill="#181D23" d="M70.649,220.849c0,0,39.858,8.156,78.128-1.879c38.269-10.035,0,0,0,0s-0.864,9.402-16.863,11.52
		c0,0-37.605,3.271-52.382,0c0,0-0.202,2.666,6.218,4.027c6.419,1.361,0,0,0,0s-12.875-0.234-15.101-7.712s0,0,0,0V220.849"/>
	<path fill="#EABA96" d="M145.081,289.245c0,0-2.539,9.385-5.704,15.225l-1.687,2.939l2.654,4.326l4.677,3.463l4.426,4.102
		c0,0,4.167,4.332,4.313,4.451c0.146,0.119,6.52,3.725,6.52,3.725l4.322-0.285c0,0,1.385-1.871,1.482-2.078
		c0.097-0.207,0.097-3.48,0.097-3.48s-5.178-7.186-10.813-12.563c0,0-4.246-3.461-4.167-5.366l3.839-8.156"/>
	<path fill="none" stroke="#E0AA86" stroke-miterlimit="10" d="M145.081,289.245c0,0-2.539,9.385-5.704,15.225l-1.687,2.939
		l2.654,4.326l4.677,3.463l4.426,4.102c0,0,4.167,4.332,4.313,4.451c0.146,0.119,6.52,3.725,6.52,3.725l4.322-0.285
		c0,0,1.385-1.871,1.482-2.078c0.097-0.207,0.097-3.48,0.097-3.48s-5.178-7.186-10.813-12.563c0,0-4.246-3.461-4.167-5.366
		l3.839-8.156"/>
	<path fill="#EABA96" d="M144.95,301.847c0,0-2.317,1.279-1.016,3.658"/>
	<path fill="none" stroke="#E0AA86" stroke-miterlimit="10" d="M144.95,301.847c0,0-2.317,1.279-1.016,3.658"/>
	<path fill="#E0AA86" d="M143.45,300.692c0,0-2.691,3.378-2.814,6.486c0,0,0.282,3.579,5.439,6.408c0,0,4.576,2.42,5.049,4.726
		l-3.111-0.851l-7.206-3.678l-2.712-3.546l0.812-5.558c0,0,2.833-5.314,3.841-8.553"/>
	<path d="M136.828,308.622c0.476,5.375,5.474,7.384,5.474,7.384c5.459,3.034,7.402,7.505,7.402,7.505l2.013,2.585
		c5.869,6.118,13.152,5.538,13.152,5.538c2.356,0.063,3.537-0.689,4.114-1.598l0.013,0.029l-0.855,1.816
		c0,0-3.249,3.105-12.568-1.477c0,0-2.889-1.508-5.477-4.705c-0.415-0.514-1.431-2.279-1.99-3.19
		c-0.963-1.569-2.931-4.033-6.504-5.81c0,0-5.335-1.852-5.457-6.625L136.828,308.622z"/>
	
		<path fill="none" stroke="#000000" stroke-width="0.75" stroke-linecap="square" stroke-linejoin="bevel" stroke-miterlimit="10" d="
		M136.828,308.622c0.476,5.375,5.474,7.384,5.474,7.384c5.459,3.034,7.402,7.505,7.402,7.505l2.013,2.585
		c5.869,6.118,13.152,5.538,13.152,5.538c2.356,0.063,3.537-0.689,4.114-1.598l0.013,0.029l-0.855,1.816
		c0,0-3.249,3.105-12.568-1.477c0,0-2.889-1.508-5.477-4.705c-0.415-0.514-1.431-2.279-1.99-3.19
		c-0.963-1.569-2.931-4.033-6.504-5.81c0,0-5.335-1.852-5.457-6.625L136.828,308.622z"/>
	<path fill="#0F1C3F" d="M166.182,321.632c0,0,2.815,3.188,3.207,5.483c0,0,1.213,4.674-4.52,4.519c0,0-7.283,0.58-13.152-5.539
		l-2.013-2.584c0,0-1.618-4.815-7.897-7.711c0,0-5.532-2.369-4.858-7.121l1.958-3.998c0,0-1.568,5.371,6.809,9.583
		c0,0,3.529,1.661,6.354,6.085c0,0,5.069,7.263,12.105,4.962C166.376,324.591,166.182,321.632,166.182,321.632"/>
	<path fill="none" stroke="#182951" stroke-miterlimit="10" d="M166.182,321.632c0,0,2.815,3.188,3.207,5.483
		c0,0,1.213,4.674-4.52,4.519c0,0-7.283,0.58-13.152-5.539l-2.013-2.584c0,0-1.618-4.815-7.897-7.711c0,0-5.532-2.369-4.858-7.121
		l1.958-3.998c0,0-1.568,5.371,6.809,9.583c0,0,3.529,1.661,6.354,6.085c0,0,5.069,7.263,12.105,4.962
		C166.376,324.591,166.182,321.632,166.182,321.632z"/>
	<path fill="#132354" d="M82.241,183.019c0,0-10.072,21.296,5.196,30.279c0,0,30.919,8.467,64.533,12.188l4.232,1.025
		c0,0-9.542,44.109-13.248,66.023c0,0,1.041,4.553,11.723,6.425c0,0,29.052-58.206,30.848-63.595c0,0,12.203-20.854,2.497-27.712
		c0,0,18.987-26.942,21.168-33.358c0,0,11.804-18.988-1.539-21.811c0,0-8.596-4.747-31.946,4.491l-39.836,16.55
		C135.869,173.525,99.883,170.831,82.241,183.019"/>
	<path fill="none" stroke="#0F1C3F" stroke-miterlimit="10" d="M82.241,183.019c0,0-10.072,21.296,5.196,30.279
		c0,0,30.919,8.467,64.533,12.188l4.232,1.025c0,0-9.542,44.109-13.248,66.023c0,0,1.041,4.553,11.723,6.425
		c0,0,29.052-58.206,30.848-63.595c0,0,12.203-20.854,2.497-27.712c0,0,18.987-26.942,21.168-33.358c0,0,11.804-18.988-1.539-21.811
		c0,0-8.596-4.747-31.946,4.491l-39.836,16.55C135.869,173.525,99.883,170.831,82.241,183.019"/>
	<path fill="#0F1C3F" d="M188.149,208.293c0,0,8.027,6.217-2.817,26.687c0,0-27.418,59.754-30.945,63.731
		c0,0-8.269-1.281-11.431-6.177c0,0,3.539-15.34,7.423-37.129l30.972-37.875L188.149,208.293z"/>
	<path fill="#0F1C3F" d="M176.988,156.911c0,0,6.479,1.282,12.829,0c0,0,2.887,0.192,2.76,3.72c0,0-0.514,3.144,2.244,3.144
		c0,0,4.555,1.154,7.12-1.155c0,0,5.582-3.464,8.275,2.822c0,0,1.21,2.903,1.022,4.98l4.126-8.541l-2.478-7.602l-11.314-1.539
		l-13.68-1.155L176.988,156.911z"/>
	<path fill="#0F1C3F" d="M136.911,173.589c0,0-0.8,8.595,15.083,10.263c0,0,15.276,0.653,18.532-2.078c3.254-2.733,0,0,0,0
		s-2.601,2.912-5.511,13.818c0,0-14.136-6.352-29.114-9.751l-14.081-6.031L136.911,173.589z"/>
	<path fill="#0F1C3F" d="M95.392,182.666c0,0-9.109,16.39,4.746,21.779c0,0,32.532,15.053,59.059,4.672l-5.944,16.123
		c0,0-47.663-6.482-61.71-10.916c-3.058-0.965-6.286-1.539-9.169-5.294c-3.245-4.225-5.425-12.937-0.132-26.01c9.727-24.027,0,0,0,0
		L95.392,182.666z"/>
	
		<line fill="none" stroke="#3F6093" stroke-width="0.75" stroke-miterlimit="10" x1="125.477" y1="177.951" x2="136.284" y2="173.352"/>
	<path fill="none" stroke="#0F1C3F" stroke-miterlimit="10" d="M138.483,186.708c0,0,19.563,5.396,26.532,9.385"/>
	<path fill="#EABA96" d="M150.123,233.884c0,0-4.281,8.727-8.503,13.856l-2.218,2.563l1.781,4.754l3.93,4.291l3.563,4.871
		c0,0,3.263,5.047,3.384,5.193c0.119,0.144,5.689,4.899,5.689,4.899l4.297,0.544c0,0,1.717-1.572,1.853-1.756
		c0.134-0.184,0.759-3.398,0.759-3.398s-3.712-8.04-8.22-14.395c0,0-3.506-4.209-3.064-6.063l5.324-7.274"/>
	<path fill="none" stroke="#E0AA86" stroke-miterlimit="10" d="M150.123,233.884c0,0-4.281,8.727-8.503,13.856l-2.218,2.563
		l1.781,4.754l3.93,4.291l3.563,4.871c0,0,3.263,5.047,3.384,5.193c0.119,0.144,5.689,4.899,5.689,4.899l4.297,0.544
		c0,0,1.717-1.572,1.853-1.756c0.134-0.184,0.759-3.398,0.759-3.398s-3.712-8.04-8.22-14.395c0,0-3.506-4.209-3.064-6.063
		l5.324-7.274"/>
	<path fill="#EABA96" d="M147.592,246.229c0,0-2.52,0.813-1.695,3.397"/>
	<path fill="none" stroke="#E0AA86" stroke-miterlimit="10" d="M147.592,246.229c0,0-2.52,0.813-1.695,3.397"/>
	<path fill="#E0AA86" d="M148.371,239.825c0,0-5.319,7.787-6.033,10.814c0,0-0.405,3.567,4.117,7.33c0,0,4.029,3.247,4.055,5.602
		l-2.893-1.43l-6.371-4.985l-1.985-3.999l1.857-5.3c0,0,4.866-6.299,6.474-9.286"/>
	<path d="M138.326,251.33c-0.56,5.366,3.964,8.293,3.964,8.293c4.779,4.021,5.834,8.779,5.834,8.779l1.483,2.921
		c4.592,7.126,11.853,7.946,11.853,7.946c2.3,0.513,3.604-0.001,4.343-0.782l0.008,0.029l-1.187,1.622c0,0-3.78,2.427-12.057-3.849
		c0,0-2.547-2.031-4.478-5.664c-0.309-0.582-0.969-2.51-1.344-3.511c-0.647-1.726-2.108-4.519-5.275-6.944
		c0,0-4.885-2.836-4.094-7.545L138.326,251.33z"/>
	
		<path fill="none" stroke="#000000" stroke-width="0.75" stroke-linecap="square" stroke-linejoin="bevel" stroke-miterlimit="10" d="
		M138.326,251.33c-0.56,5.366,3.964,8.293,3.964,8.293c4.779,4.021,5.834,8.779,5.834,8.779l1.483,2.921
		c4.592,7.126,11.853,7.946,11.853,7.946c2.3,0.513,3.604-0.001,4.343-0.782l0.008,0.029l-1.187,1.622c0,0-3.78,2.427-12.057-3.849
		c0,0-2.547-2.031-4.478-5.664c-0.309-0.582-0.969-2.51-1.344-3.511c-0.647-1.726-2.108-4.519-5.275-6.944
		c0,0-4.885-2.836-4.094-7.545L138.326,251.33z"/>
	<path fill="#0F1C3F" d="M164.657,269.702c0,0,2.155,3.666,2.102,5.994c0,0,0.299,4.819-5.299,3.572c0,0-7.261-0.819-11.853-7.945
		l-1.483-2.921c0,0-0.671-5.036-6.281-9.075c0,0-4.978-3.382-3.411-7.918l2.687-3.553c0,0-2.564,4.974,4.854,10.707
		c0,0,3.147,2.305,5.076,7.186c0,0,3.592,8.098,10.938,7.182C164.283,272.644,164.657,269.702,164.657,269.702"/>
	<path fill="none" stroke="#182951" stroke-miterlimit="10" d="M164.657,269.702c0,0,2.155,3.666,2.102,5.994
		c0,0,0.299,4.819-5.299,3.572c0,0-7.261-0.819-11.853-7.945l-1.483-2.921c0,0-0.671-5.036-6.281-9.075c0,0-4.978-3.382-3.411-7.918
		l2.687-3.553c0,0-2.564,4.974,4.854,10.707c0,0,3.147,2.305,5.076,7.186c0,0,3.592,8.098,10.938,7.182
		C164.283,272.644,164.657,269.702,164.657,269.702z"/>
	<path fill="#132354" d="M186.738,162.62c0,0-16.422,12.573-20.784,30.663c0,0-16.308,38.652-18.618,44.169
		c0,0,1.765,4.443,10.225,6.757c0,0,30.205-35.786,31.103-37.326"/>
	<path fill="none" stroke="#0F1C3F" stroke-miterlimit="10" d="M186.738,162.62c0,0-16.422,12.573-20.784,30.663
		c0,0-16.308,38.652-18.618,44.169c0,0,1.765,4.443,10.225,6.757c0,0,30.205-35.786,31.103-37.326"/>
	<path fill="#EABA96" d="M103.856,72.657c0,0,1.246,12.979,1.339,17.642c0,0,18.347,9.574,22.118,14.082
		c0,0,1.428-5.844,0.622-12.932c0,0-3.253-6.064-1.806-12.374c1.448-6.31,0,0,0,0L103.856,72.657"/>
	<path fill="none" stroke="#E0AA86" stroke-miterlimit="10" d="M103.856,72.657c0,0,1.246,12.979,1.339,17.642
		c0,0,18.347,9.574,22.118,14.082c0,0,1.428-5.844,0.622-12.932c0,0-3.253-6.064-1.806-12.374c1.448-6.31,0,0,0,0L103.856,72.657"/>
	<path fill="#DBA682" d="M125.93,84.226c0,0-8.372-3.067-20.734,4.58l-1.025-15.979l22.396,4.726
		C126.566,77.553,125.496,81.214,125.93,84.226"/>
	<path fill="#EABA96" d="M139.878,113.386c0,0,2.157-6.543,10.72-6.639c0,0,21.283,29.461,24.651,35.619
		c0,0,12.255-1.074,23.325,3.543c0,0-10.425,2.214-7.602,8.436c0,0-11.098,1.797-15.909,1.797c0,0-5.003,0.192-6.928-4.105
		L139.878,113.386z"/>
	<path fill="none" stroke="#E0AA86" stroke-miterlimit="10" d="M139.878,113.386c0,0,2.157-6.543,10.72-6.639
		c0,0,21.283,29.461,24.651,35.619c0,0,12.255-1.074,23.325,3.543c0,0-10.425,2.214-7.602,8.436c0,0-11.098,1.797-15.909,1.797
		c0,0-5.003,0.192-6.928-4.105L139.878,113.386z"/>
	<path fill="#EABA96" d="M190.973,154.344c0,0,2.405,2.101,2.742,3.881c0,0,0.626,4.138,0.24,6.64c0,0-2.588,4.764,0.126,5.918
		c0,0,3.002,1.636,3.771-4.522c0,0,0.096-3.271,1.635-5.533c0,0,1.444-4.474,7.121-1.299l4.715,3.513l0.962,3.561l-0.722,7.168
		c0,0-1.01,2.982,0.722,3.368c0,0,2.262,1.203,2.791-2.695c0,0,0.289,2.791,2.55,1.925c0,0,1.54-0.241,0.481-4.474l-0.529-1.876
		c0,0,1.106-1.203,1.106-3.704c0,0,2.117-1.54,2.31-3.85v-4.378c0,0,0-2.983-2.357-5.244c0,0-4.812-6.807-19.822-6.784
		C198.814,145.957,187.997,148.455,190.973,154.344"/>
	<path fill="none" stroke="#E0AA86" stroke-miterlimit="10" d="M190.973,154.344c0,0,2.405,2.101,2.742,3.881
		c0,0,0.626,4.138,0.24,6.64c0,0-2.588,4.764,0.126,5.918c0,0,3.002,1.636,3.771-4.522c0,0,0.096-3.271,1.635-5.533
		c0,0,1.444-4.474,7.121-1.299l4.715,3.513l0.962,3.561l-0.722,7.168c0,0-1.01,2.982,0.722,3.368c0,0,2.262,1.203,2.791-2.695
		c0,0,0.289,2.791,2.55,1.925c0,0,1.54-0.241,0.481-4.474l-0.529-1.876c0,0,1.106-1.203,1.106-3.704c0,0,2.117-1.54,2.31-3.85
		v-4.378c0,0,0-2.983-2.357-5.244c0,0-4.812-6.807-19.822-6.784C198.814,145.957,187.997,148.455,190.973,154.344z"/>
	<path fill="none" stroke="#E0AA86" stroke-miterlimit="10" d="M200.82,158.959c0,0,1.266-1.101,1.506-2.817"/>
	<path fill="none" stroke="#E0AA86" stroke-linejoin="bevel" stroke-miterlimit="10" d="M217.578,169.917l-2.213-8.034
		c0,0,0.048-1.636-2.118-3.609l-5.052-3.994"/>
	<path fill="#09547A" stroke="#052F3F" stroke-miterlimit="10" d="M148.813,103.327c0,0,1.519,1.853,3.268,4.264
		c5.678,7.822,18.317,25.385,23.343,33.549c0,0,1.096-0.091,3.468,0c0,0-2.851,8.094-0.33,15.001c0,0-3.047,1.523-8.251-0.577
		c0,0-2.927,0.65-23.008-29.344l-9.399-14.932"/>
	<path fill="none" stroke="#052F3F" stroke-miterlimit="10" d="M148.813,103.327c0,0,1.519,1.853,3.268,4.264
		c5.678,7.822,18.317,25.385,23.343,33.549c0,0,1.096-0.091,3.468,0c0,0-2.851,8.094-0.33,15.001c0,0-3.047,1.523-8.251-0.577
		c0,0-2.927,0.65-23.008-29.344l-9.399-14.932"/>
	<path fill="#09547A" stroke="#052F3F" stroke-miterlimit="10" d="M150.904,105.97c0,0-5.927-7.563-9.197-11.284
		c0,0-1.589-2.614-9.287-3.094l-3.467-2.551c0.832-2.727-1.336-2.619-1.336-2.619c2.191-2.104,0-1.675,0-1.675
		c-15.093,3.768-23.67,0.235-23.67,0.235c-2.285-0.683-0.918,2.16-0.918,2.16c-1.148,1.285,0.25,2.556,0.25,2.556
		c-0.926,1.654-2.069,2.37-2.069,2.371l-12.17,5.247c0,0-6.671,3.08-8.274,11.868l-1.635,8.464l-0.546,2.827
		c0,0,5.553,5.563,15.459,3.334c0,0-1.22,6.672,2.245,11.419l3.015,13.343c0,0-1.539,1.091-0.514,2.438
		c0,0-14.946,21.49-16.549,32.01c0,0,21.36-1.219,33.678-2.374c0,0,14.562-4.862,19.95-7.121c0,0-0.321-10.008-1.091-11.868
		c0,0,2.565-2.758,0.835-3.785c0,0,4.361-15.765,3.848-18.652c0,0,9.579-4.196,8.753-18.041c0,0-0.155-5.719-5.133-9.611"/>
	<path fill="none" stroke="#052F3F" stroke-miterlimit="10" d="M150.904,105.97c0,0-5.927-7.563-9.197-11.284
		c0,0-1.589-2.614-9.287-3.094l-3.467-2.551c0.832-2.727-1.336-2.619-1.336-2.619c2.191-2.104,0-1.675,0-1.675
		c-15.093,3.768-23.67,0.235-23.67,0.235c-2.285-0.683-0.918,2.16-0.918,2.16c-1.148,1.285,0.25,2.556,0.25,2.556
		c-0.926,1.654-2.069,2.37-2.069,2.371l-12.17,5.247c0,0-6.671,3.08-8.274,11.868l-1.635,8.464l-0.546,2.827
		c0,0,5.553,5.563,15.459,3.334c0,0-1.22,6.672,2.245,11.419l3.015,13.343c0,0-1.539,1.091-0.514,2.438
		c0,0-14.946,21.49-16.549,32.01c0,0,21.36-1.219,33.678-2.374c0,0,14.562-4.862,19.95-7.121c0,0-0.321-10.008-1.091-11.868
		c0,0,2.565-2.758,0.835-3.785c0,0,4.361-15.765,3.848-18.652c0,0,9.579-4.196,8.753-18.041c0,0-0.155-5.719-5.133-9.611"/>
	<path fill="#052F3F" d="M114.932,137.104c0,0,9.109-0.129,12.766-6.03c0,0,7.121,8.917,15.544,3.702l-4.511,4.445
		c0,0-5.501,1.956-6.223,6.671c0,0-2.741,2.117-2.934-3.415c0,0-3.321-6.158-8.517-1.973
		C121.058,140.503,111.563,144.448,114.932,137.104"/>
	<path fill="#052F3F" d="M138.46,107.94c0,0,6.442,1.948,9.424,8.034c0,0,2.921,5.234,2.313,10.529l19.778,26.474
		c0,0,3.718,2.301,8.036,1.302l0.55,1.862c0,0-2.013,1.644-8.251-0.578c0,0-2.709-1.229-13.085-15.024l-8.976-13.549
		C148.25,126.99,151.383,114.085,138.46,107.94"/>
	<path fill="#052F3F" d="M98.117,117.62c0,0-4.264,4.387-4.041,8.756c0,0-0.288,4.522,2.213,8.853l3.271,13.472
		c0,0-1.78,0.865-0.481,2.357l-6.601,10.076c0,0-9.564,16.048-10.014,21.534l17.769-1.123l17.177-1.284l18.138-6.976
		c0,0-20.11-2.862-27.038-6.063c0,0-7.41-3.561-2.742-8.323l-2.791-7.361c0,0-1.348-1.443,0.241-2.357l-0.479-9.653
		C102.738,139.527,89.554,131.444,98.117,117.62"/>
	<path fill="#EABA96" d="M146.951,196.089c3.127,2.117,4.522,1.155,4.522,1.155c1.347-1.444-0.337-2.405-0.337-2.405l-3.369-1.781
		c-2.693-0.961-5.772-2.693-5.772-2.693l-3.512-3.656c0,0-2.358-5.1-13.568-8.854c0,0-6.687-1.587-12.365-4.859
		c0,0-18.041-9.981-29.202-13.589c0,0,5.746-18.92,9.596-34.75c0,0-6.404,1.783-13.846-3.477c0,0-6.188,29.123-7.343,38.618
		c0,0-3.978,10.776,0.77,9.494c4.748-1.283,0.77,0.105,0.77,0.105s6.975,8.554,45.319,15.804c0,0,0.962,3.912,8.756,6.703
		c0,0,0.157,0.064,0.448,0.129c1.12,3.98,3.833,6.27,3.833,6.27c1.107,3.32,3.945,5.629,3.945,5.629
		c2.021,3.225,3.609,1.973,3.609,1.973c0.962-1.25-1.012-3.175-1.012-3.175c-2.982-3.271-3.656-5.388-3.656-5.388l-1.619-6.135
		c0,0-0.003-0.001,0.001-0.003l-0.001,0.003l1.151,4.36c0.399,1.511,2.012,2.88,2.012,2.88l5.24,4.619
		c2.743,3.031,4.233,1.684,4.233,1.684c1.252-1.25-0.865-2.982-0.865-2.982c-1.389-1.728-3.709-3.869-5.22-5.318
		c-0.847-0.811-1.466-1.535-1.466-1.535c-0.007-0.067,0.022,0.102-0.001-0.005l0.001,0.005l1.466,1.535l6.711,4.02
		c2.935,2.598,4.33,1.347,4.33,1.347c1.251-1.684-1.54-3.14-1.54-3.14l-3.56-2.249c-2.257-1.146-3.856-2.563-4.576-3.265
		c-0.277-0.271-0.427-0.439-0.427-0.439l-2.849-5.01l3.275,5.449l1.931,0.955L146.951,196.089z"/>
	<path fill="none" stroke="#E0AA86" stroke-miterlimit="10" d="M146.951,196.089c3.127,2.117,4.522,1.155,4.522,1.155
		c1.347-1.444-0.337-2.405-0.337-2.405l-3.369-1.781c-2.693-0.961-5.772-2.693-5.772-2.693l-3.512-3.656c0,0-2.358-5.1-13.568-8.854
		c0,0-6.687-1.587-12.365-4.859c0,0-18.041-9.981-29.202-13.589c0,0,5.746-18.92,9.596-34.75c0,0-6.404,1.783-13.846-3.477
		c0,0-6.188,29.123-7.343,38.618c0,0-3.978,10.776,0.77,9.494c4.748-1.283,0.77,0.105,0.77,0.105s6.975,8.554,45.319,15.804
		c0,0,0.962,3.912,8.756,6.703c0,0,0.157,0.064,0.448,0.129c1.12,3.98,3.833,6.27,3.833,6.27c1.107,3.32,3.945,5.629,3.945,5.629
		c2.021,3.225,3.609,1.973,3.609,1.973c0.962-1.25-1.012-3.175-1.012-3.175c-2.982-3.271-3.656-5.388-3.656-5.388l-1.619-6.135
		c0,0-0.003-0.001,0.001-0.003l-0.001,0.003l1.151,4.36c0.399,1.511,2.012,2.88,2.012,2.88l5.24,4.619
		c2.743,3.031,4.233,1.684,4.233,1.684c1.252-1.25-0.865-2.982-0.865-2.982c-1.389-1.728-3.709-3.869-5.22-5.318
		c-0.847-0.811-1.466-1.535-1.466-1.535c-0.007-0.067,0.022,0.102-0.001-0.005l0.001,0.005l1.466,1.535l6.711,4.02
		c2.935,2.598,4.33,1.347,4.33,1.347c1.251-1.684-1.54-3.14-1.54-3.14l-3.56-2.249c-2.257-1.146-3.856-2.563-4.576-3.265
		c-0.277-0.271-0.427-0.439-0.427-0.439l-2.849-5.01l3.275,5.449l1.931,0.955L146.951,196.089z"/>
	<path fill="none" stroke="#E0AA86" stroke-miterlimit="10" d="M135.901,189.435c0,0,1.555,4.768,2.02,5.324"/>
	<path fill="#09547A" stroke="#052F3F" stroke-miterlimit="10" d="M79.13,117.648l-8.565,41.312c0,0-3.383,7.873-0.369,10.957
		c0,0,2.504,2.226,4.961,2.423c0,0,2.799,2.487,6.816,3.948c0,0,4.219-12.621,8.276-15.284l-5.478-2.044l9.305-32.584
		c0,0-0.78-3.657,4.041-8.756"/>
	<path fill="none" stroke="#052F3F" stroke-miterlimit="10" d="M79.13,117.648l-8.565,41.312c0,0-3.383,7.873-0.369,10.957
		c0,0,2.504,2.226,4.961,2.423c0,0,2.799,2.487,6.816,3.948c0,0,4.219-12.621,8.276-15.284l-5.478-2.044l9.305-32.584
		c0,0-0.78-3.657,4.041-8.756"/>
	<path fill="#052F3F" stroke="#052F3F" stroke-miterlimit="10" d="M102.302,92.482l-8.982,5.539c0,0-9.034,5.461-9.034,12.285
		l-10.656,48.905c0,0-5.764,7.875,1.405,10.705c0,0,1.77,1.691,5.111,0.506c0,0,6.511-7.291,7.959-8.838
		c0,0-5.646,9.956-6.132,14.704c0,0-5.387-2.831-6.604-4.291c0,0-9.825-0.537-4.442-12.811l8.338-40.168l1.795-9.22
		c0,0,0.884-7.79,7.67-11.838l12.84-5.629c0,0,1.645-1.279,2.161-2.709C103.729,89.622,103.389,91.813,102.302,92.482"/>
	<path fill="#052F3F" d="M103.234,95.586c0,0,6.592,8.823,26.381-1.249c0,0,6.273-0.684,3.72,2.839c0,0-5.014,5.501-10.539,4.694
		c0,0,14.783,1.429,6.819,4.876c0,0-5.033,4.851-3.485,8.713c0,0-2.261-4.571-8.572-6.928c0,0-10.328-1.018-4.12-4.152
		C113.438,104.38,94.858,95.769,103.234,95.586"/>
	<path fill="#052F3F" d="M103.234,85.453c0,0-0.113-0.274,3.356,0.822c0,0,9.862,1.977,18.625-0.427l2.967-0.73
		c0,0-5.696,4.382-17.098,2.861c0,0-5.863-0.653-7.355-1.27C103.729,86.709,103.104,86.701,103.234,85.453"/>
	<path fill="#052F3F" d="M103.486,87.233c0,0,4.702,3.697,17.938,1.826C121.425,89.059,110.241,90.063,103.486,87.233"/>
	<path fill="#052F3F" d="M126.566,87.051c0,0-4.046,3.678-13.449,3.606c0,0,9.361,0.867,15.065-3.423
		C128.183,87.233,128.924,86.686,126.566,87.051"/>
	<path fill="#052F3F" d="M103.729,89.623c0,0,2.267,2.905,16.417,2.176c0,0-9.813,2.1-16.93-1.213L103.729,89.623z"/>
	<path fill="#052F3F" d="M89.554,160.038c0,0-6.189,5.458-8.342,16.706l6.087,1.718c0,0,3.589-13.038,8.245-15.229
		C95.544,163.232,92.574,160.458,89.554,160.038"/>
	<path fill="none" stroke="#052F3F" stroke-width="0.5" stroke-miterlimit="10" d="M89.554,160.038c0,0-6.189,5.458-8.342,16.706
		l6.087,1.718c0,0,3.589-13.038,8.245-15.229C95.544,163.232,92.574,160.458,89.554,160.038z"/>
	<path fill="#052F3F" d="M179.303,140.273c0,0-4.518,6.118-2.602,17.277l3.523-0.22c0,0-1.195-11.307,3.643-16.509L179.303,140.273z
		"/>
	<path fill="none" stroke="#052F3F" stroke-width="0.5" stroke-miterlimit="10" d="M179.303,140.273c0,0-4.518,6.118-2.602,17.277
		l3.523-0.22c0,0-1.195-11.307,3.643-16.509L179.303,140.273z"/>
	<path fill="none" stroke="#052F3F" stroke-miterlimit="10" d="M137.088,107.131c0,0,3.56,1.764,7.938,6.351"/>
	<path fill="#282828" d="M130.861,6.88l24.529,26.676c0,0,3.647,19.931-10.872,29.528c0,0,2.052-1.617,1.958-3.606
		c0,0-1.346,2.86-4.637,4.104c0,0,1.157-1.582,0.674-2.657c0,0-1.205,2.638-5.942,4.139L130.861,6.88z"/>
	<path fill="none" stroke="#000000" stroke-miterlimit="10" d="M130.861,6.88l24.529,26.676c0,0,3.647,19.931-10.872,29.528
		c0,0,2.052-1.617,1.958-3.606c0,0-1.346,2.86-4.637,4.104c0,0,1.157-1.582,0.674-2.657c0,0-1.205,2.638-5.942,4.139L130.861,6.88z"
		/>
	<path fill="#EABA96" d="M139.482,46.541c0,0-0.622,8.026-2.462,16.506c0,0-2.388,7.436-9.165,13.933c0,0-3.201,5.223-8.518,5.129
		c0,0-5.625,0.933-10.46-5.129c0,0-9.703-5.865-11.644-17.626l-2.236-16.408l1.864-14.181l5.876-11.284l1.118-4.664l11.284,3.171
		l18.559,7.368l6.419,7.088L139.482,46.541z"/>
	<path fill="none" stroke="#E0AA86" stroke-miterlimit="10" d="M139.482,46.541c0,0-0.622,8.026-2.462,16.506
		c0,0-2.388,7.436-9.165,13.933c0,0-3.201,5.223-8.518,5.129c0,0-5.625,0.933-10.46-5.129c0,0-9.703-5.865-11.644-17.626
		l-2.236-16.408l1.864-14.181l5.876-11.284l1.118-4.664l11.284,3.171l18.559,7.368l6.419,7.088L139.482,46.541z"/>
	<path fill="#EABA96" d="M98.827,65.036c0.545,0.48-2.991-5.309-3.551-11.091c0,0-1.894,3.137-3.968,0c0,0-4.612-6.841-3.182-12.218
		c0,0,2.395-6.806,4.492-3.325l2.379,4.544"/>
	<path fill="none" stroke="#E0AA86" stroke-width="0.5" stroke-miterlimit="10" d="M98.827,65.036
		c0.545,0.48-2.991-5.309-3.551-11.091c0,0-1.894,3.137-3.968,0c0,0-4.612-6.841-3.182-12.218c0,0,2.395-6.806,4.492-3.325
		l2.379,4.544"/>
	<path fill="#B7896A" d="M91.546,43.83c0,0-0.683,5.293,1.12,7.393c0,0,1.616,0.111,1.242-1.505c0,0-0.33-0.691-0.569-0.594
		C93.339,49.123,91.608,48.146,91.546,43.83"/>
	<path fill="#282828" d="M141.347,19.066c0,0-5.969-6.901-13.056-8.02c0,0,8.953,4.663,8.953,12.124c0,0,7.522,9.513,0.932,23.688
		c0,0,5.223-13.803-11.937-19.212c0,0-15.481,0-19.958-9.886c0,0,0.56,4.29-3.543,4.104c0,0,1.865,8.953-4.85,11.005
		c0,0-5.596,9.139,0,18.092c0,0-3.357-2.052-4.85-10.631c0,0-4.314-3.871-4.174,4.817c0,0-0.047,9.684,4.938,10.244
		c0,0,0.169,2.098,2.033,4.336c0,0-1.864,0.374-0.932,2.239c0,0-2.798-0.933-3.172-3.171c0,0-1.119,1.679-0.745,3.171
		c0,0-2.238-2.052-1.306-6.342c0,0-1.307,0.933-0.933,4.291c0,0-1.865-2.984-1.865-6.715c1.198,4.772,0.103,5.438,1.585,8.767
		c0,0-11.844,1.492-12.403-19.584c0,0,3.171-30.59,26.673-32.082c0,0,2.238-20.331,32.826-2.425
		C135.564,7.875,141.347,12.351,141.347,19.066"/>
	<path fill="none" stroke="#000000" stroke-miterlimit="10" d="M141.347,19.066c0,0-5.969-6.901-13.056-8.02
		c0,0,8.953,4.663,8.953,12.124c0,0,7.522,9.513,0.932,23.688c0,0,5.223-13.803-11.937-19.212c0,0-15.481,0-19.958-9.886
		c0,0,0.56,4.29-3.543,4.104c0,0,1.865,8.953-4.85,11.005c0,0-5.596,9.139,0,18.092c0,0-3.357-2.052-4.85-10.631
		c0,0-4.314-3.871-4.174,4.817c0,0-0.047,9.684,4.938,10.244c0,0,0.169,2.098,2.033,4.336c0,0-1.864,0.374-0.932,2.239
		c0,0-2.798-0.933-3.172-3.171c0,0-1.119,1.679-0.745,3.171c0,0-2.238-2.052-1.306-6.342c0,0-1.307,0.933-0.933,4.291
		c0,0-1.865-2.984-1.865-6.715c1.198,4.772,0.103,5.438,1.585,8.767c0,0-11.844,1.492-12.403-19.584c0,0,3.171-30.59,26.673-32.082
		c0,0,2.238-20.331,32.826-2.425C135.564,7.875,141.347,12.351,141.347,19.066z"/>
	<path d="M135.565,7.875c0,0,30.216,14.363,16.04,42.899c0,0,0.934-4.849-2.611-10.632c0,0,1.43,16.477-12.833,20.269
		c0,0,4.011-2.855,3.818-7.834c0,0,2.673-4.344,2.272-9.566c0,0-0.412-1.284-0.904-2.869c0,0-1.493,6.715-3.172,6.715
		c0,0,6.622-11.191-0.932-23.688c0,0,1.025-6.249-8.953-12.124c0,0,7.555,1.212,13.057,8.02
		C141.348,19.066,142.373,14.217,135.565,7.875"/>
	<path fill="none" stroke="#000000" stroke-miterlimit="10" d="M135.565,7.875c0,0,30.216,14.363,16.04,42.899
		c0,0,0.934-4.849-2.611-10.632c0,0,1.43,16.477-12.833,20.269c0,0,4.011-2.855,3.818-7.834c0,0,2.673-4.344,2.272-9.566
		c0,0-0.412-1.284-0.904-2.869c0,0-1.493,6.715-3.172,6.715c0,0,6.622-11.191-0.932-23.688c0,0,1.025-6.249-8.953-12.124
		c0,0,7.555,1.212,13.057,8.02C141.348,19.066,142.373,14.217,135.565,7.875z"/>
	<path d="M102.738,10.3c0,0-22.01,0-26.673,32.082c0,0-0.467,18.652,12.402,19.583c0,0-1.847-3.083-1.584-8.766
		c0,0-3.451,0.559-4.01,3.637C82.874,56.836,68.232,28.858,102.738,10.3"/>
	<path fill="none" stroke="#000000" stroke-miterlimit="10" d="M102.738,10.3c0,0-22.01,0-26.673,32.082
		c0,0-0.467,18.652,12.402,19.583c0,0-1.847-3.083-1.584-8.766c0,0-3.451,0.559-4.01,3.637
		C82.874,56.836,68.232,28.858,102.738,10.3z"/>
	<path d="M95.138,54.341c0,0-0.358,2.003,1.896,7.53c0,0-3.125-1.709-2.129,0.093c0,0-2.736-1.087-3.172-3.17
		c0,0-1.46,1.368-0.745,3.17c0,0-2.298-2.519-1.306-6.341c0,0-1.679,0.87-0.933,4.289c0,0-2.642-4.88-1.803-8.175
		c0,0,0.302,1.536,0.993,2.02c0.693,0.486,1.772-0.078,1.461-1.647c0,0-1.206-8.674-0.402-10.352c0,0-0.582,3.144,0.006,6.391
		C89.803,52.56,92.129,57.161,95.138,54.341"/>
	<path fill="none" stroke="#000000" stroke-miterlimit="10" d="M95.138,54.341c0,0-0.358,2.003,1.896,7.53
		c0,0-3.125-1.709-2.129,0.093c0,0-2.736-1.087-3.172-3.17c0,0-1.46,1.368-0.745,3.17c0,0-2.298-2.519-1.306-6.341
		c0,0-1.679,0.87-0.933,4.289c0,0-2.642-4.88-1.803-8.175c0,0,0.302,1.536,0.993,2.02c0.693,0.486,1.772-0.078,1.461-1.647
		c0,0-1.206-8.674-0.402-10.352c0,0-0.582,3.144,0.006,6.391C89.803,52.56,92.129,57.161,95.138,54.341z"/>
	<path fill="#C1A578" d="M115.918,43.593c0,0-0.901-4.818-5.72-6.062c0,0-5.534-1.368-6.963,3.389l0.311,1.132
		c0,0,2.052-2.438,5.564-2.29C109.11,39.763,114.488,40.764,115.918,43.593"/>
	<path d="M115.483,44.06l0.435,0.288v-0.754c0,0-2.814-3.799-6.808-3.829c0,0-3.481-0.212-5.44,1.995c0,0-0.652,0.249-1.368-0.591
		c0,0,0.437,1.493,1.555,1.461L115.483,44.06z"/>
	
		<path fill="none" stroke="#000000" stroke-width="0.25" stroke-linecap="round" stroke-linejoin="round" stroke-miterlimit="10" d="
		M115.483,44.06l0.435,0.288v-0.754c0,0-2.814-3.799-6.808-3.829c0,0-3.481-0.212-5.44,1.995c0,0-0.652,0.249-1.368-0.591
		c0,0,0.437,1.493,1.555,1.461L115.483,44.06z"/>
	<path fill="#FFFFFF" d="M115.483,44.06c0,0,0.248,3.295-5.285,4.228c0,0-4.787,1.362-6.342-5.658
		C103.856,42.629,108.147,36.537,115.483,44.06"/>
	
		<path fill="none" stroke="#000000" stroke-width="0.25" stroke-linecap="round" stroke-linejoin="round" stroke-miterlimit="10" d="
		M115.483,44.06c0,0,0.248,3.295-5.285,4.228c0,0-4.787,1.362-6.342-5.658C103.856,42.629,108.147,36.537,115.483,44.06z"/>
	<path fill="#70582D" d="M107.085,44.316c0,1.377,1.116,2.493,2.492,2.493s2.491-1.116,2.491-2.493c0-1.376-1.115-2.492-2.491-2.492
		S107.085,42.939,107.085,44.316"/>
	<path d="M107.895,44.682c0,0.853,0.69,1.543,1.543,1.543s1.543-0.691,1.543-1.543c0-0.852-0.69-1.543-1.543-1.543
		S107.895,43.83,107.895,44.682"/>
	<path fill="#FFFFFF" d="M110.156,43.903c0,0.299,0.242,0.541,0.541,0.541c0.298,0,0.54-0.242,0.54-0.541
		c0-0.298-0.242-0.54-0.54-0.54C110.398,43.364,110.156,43.605,110.156,43.903"/>
	<path fill="#FFFFFF" d="M111.084,43.019c0,0.19,0.155,0.347,0.347,0.347s0.347-0.156,0.347-0.347c0-0.191-0.155-0.347-0.347-0.347
		S111.084,42.827,111.084,43.019"/>
	<path d="M115.918,38.153v-1.367c0,0-6.03-6.403-13.616-1.175C102.302,35.61,110.198,32.371,115.918,38.153"/>
	<path fill="none" stroke="#000000" stroke-linecap="round" stroke-linejoin="round" stroke-miterlimit="10" d="M115.918,38.153
		v-1.367c0,0-6.03-6.403-13.616-1.175C102.302,35.61,110.198,32.371,115.918,38.153z"/>
	<path fill="#C1A578" d="M125.216,43.528c0,0,0.831-4.441,5.272-5.587c0,0,5.101-1.261,6.418,3.124l-0.287,1.044
		c0,0-1.891-2.248-5.128-2.11C131.491,39.998,126.534,40.92,125.216,43.528"/>
	<path d="M125.616,43.958l-0.4,0.265v-0.695c0,0,2.593-3.501,6.275-3.53c0,0,3.208-0.195,5.015,1.84c0,0,0.601,0.229,1.261-0.544
		c0,0-0.401,1.375-1.434,1.346L125.616,43.958z"/>
	
		<path fill="none" stroke="#000000" stroke-width="0.25" stroke-linecap="round" stroke-linejoin="round" stroke-miterlimit="10" d="
		M125.616,43.958l-0.4,0.265v-0.695c0,0,2.593-3.501,6.275-3.53c0,0,3.208-0.195,5.015,1.84c0,0,0.601,0.229,1.261-0.544
		c0,0-0.401,1.375-1.434,1.346L125.616,43.958z"/>
	<path fill="#FFFFFF" d="M125.616,43.958c0,0-0.229,3.037,4.871,3.896c0,0,4.413,1.254,5.846-5.215
		C136.333,42.64,132.379,37.024,125.616,43.958"/>
	
		<path fill="none" stroke="#000000" stroke-width="0.25" stroke-linecap="round" stroke-linejoin="round" stroke-miterlimit="10" d="
		M125.616,43.958c0,0-0.229,3.037,4.871,3.896c0,0,4.413,1.254,5.846-5.215C136.333,42.64,132.379,37.024,125.616,43.958z"/>
	<path fill="#70582D" d="M133.336,44.188c0,1.269-1.029,2.297-2.297,2.297c-1.27,0-2.298-1.029-2.298-2.297
		c0-1.269,1.028-2.297,2.298-2.297C132.307,41.891,133.336,42.919,133.336,44.188"/>
	<path d="M132.461,44.433c0,0.785-0.637,1.423-1.422,1.423c-0.786,0-1.424-0.638-1.424-1.423c0-0.786,0.638-1.422,1.424-1.422
		C131.824,43.011,132.461,43.647,132.461,44.433"/>
	<path fill="#FFFFFF" d="M132.615,43.666c0,0.245-0.2,0.444-0.444,0.444c-0.246,0-0.443-0.199-0.443-0.444s0.197-0.444,0.443-0.444
		C132.415,43.221,132.615,43.42,132.615,43.666"/>
	<path fill="#FFFFFF" d="M133.1,42.829c0,0.157-0.127,0.285-0.283,0.285c-0.158,0-0.286-0.127-0.286-0.285s0.128-0.285,0.286-0.285
		C132.973,42.543,133.1,42.671,133.1,42.829"/>
	<path d="M124.667,37.349v-1.368c0,0,5.576-6.404,12.59-1.175C137.257,34.807,129.956,31.566,124.667,37.349"/>
	<path fill="none" stroke="#000000" stroke-linecap="round" stroke-linejoin="round" stroke-miterlimit="10" d="M124.667,37.349
		v-1.368c0,0,5.576-6.404,12.59-1.175C137.257,34.807,129.956,31.566,124.667,37.349z"/>
	<path fill="none" stroke="#D8A27D" stroke-width="0.75" stroke-miterlimit="10" d="M123.007,41.727c0,0-1.244,10.104,1.118,13.648
		c0,0,1.43,4.85-6.279,2.425"/>
	<path fill="#561409" d="M125.366,65.777l1.079,0.625c0,0,0.57,2.363-0.763,3.335c-1.333,0.974-6.414,1.737-12.002-1.737
		s-1.207-2.085-1.207-2.085s7.494-1.32,7.685-1.25"/>
	<path fill="#FFFFFF" d="M125.872,66.055c0,0,0.626,1.424-0.07,1.702c-0.694,0.278-8.615,0.208-10.109-0.208
		c-1.493-0.417-1.528-1.354-1.528-1.354l9.137-0.799"/>
	<path fill="#BA2A13" d="M115.902,69.715c0,0,0.716-1.311,3.392-0.963c2.675,0.347,3.495,0.971,3.947,1.943"/>
	<path fill="#9E3025" d="M126.219,66.229c0,0,0.031,3.06-2.191,3.582c-4.511,1.057-6.341,0.245-11.178-3.021
		c-0.634-0.428-2.564-1.338-1.97-0.759c0.28,0.272,2.703,5.38,6.827,6.59c4.125,1.21,6.31,0.25,7.852-1.326
		c1.634-1.668,1.115-4.988,1.115-4.988"/>
	<path fill="none" stroke="#4C2311" stroke-width="0.25" stroke-miterlimit="10" d="M126.219,66.229c0,0,0.031,3.06-2.191,3.582
		c-4.511,1.057-6.341,0.245-11.178-3.021c-0.634-0.428-2.564-1.338-1.97-0.759c0.28,0.272,2.703,5.38,6.827,6.59
		c4.125,1.21,6.31,0.25,7.852-1.326c1.634-1.668,1.115-4.988,1.115-4.988"/>
	<path fill="#871D08" d="M109.741,65.491c-0.719-0.018,3.436,2.142,6.226,1.154c5.303-1.876,11.253,0.774,12.289,0.174
		c1.034-0.599-2.485-0.42-4.676-3.538c-0.236-0.336-0.543-0.575-1.366-0.183c-0.824,0.392-0.873,0.543-1.397,0.557
		c-0.523,0.013-1.286-0.987-1.811-0.973C118.483,62.694,117.109,65.672,109.741,65.491"/>
	<path fill="none" stroke="#4C2311" stroke-width="0.25" stroke-miterlimit="10" d="M109.741,65.491
		c-0.719-0.018,3.436,2.142,6.226,1.154c5.303-1.876,11.253,0.774,12.289,0.174c1.034-0.599-2.485-0.42-4.676-3.538
		c-0.236-0.336-0.543-0.575-1.366-0.183c-0.824,0.392-0.873,0.543-1.397,0.557c-0.523,0.013-1.286-0.987-1.811-0.973
		C118.483,62.694,117.109,65.672,109.741,65.491z"/>
	<path fill="#DDAC8A" d="M122.796,76.083c0,0-2.341,2.407-4.63,0.204C118.166,76.287,119.867,76.854,122.796,76.083"/>
	<path fill="#A5ABAD" d="M92.106,54.047c0.027-0.695,0.614-1.239,1.311-1.211c0.697,0.027,1.238,0.613,1.213,1.31
		c-0.028,0.696-0.615,1.239-1.311,1.212C92.621,55.331,92.08,54.745,92.106,54.047"/>
	<circle fill="none" stroke="#959DA0" stroke-width="0.5" stroke-miterlimit="10" cx="93.368" cy="54.097" r="1.263"/>
	<path fill="#B1BABC" d="M93.319,53.351c0,0,0.883,0.258,0.684,1.357c0,0,0.47-0.685,0.083-1.257
		C94.086,53.451,93.861,53.085,93.319,53.351"/>
	<g>
		<g>
			<path fill="#272A3F" d="M135.092,118.324l-0.004-1.289c0.337-0.001,0.679-0.013,1.021-0.034l0.078,1.287
				C135.819,118.311,135.452,118.323,135.092,118.324z M133.981,118.285c-0.386-0.03-0.761-0.077-1.119-0.145l0.238-1.267
				c0.313,0.059,0.642,0.1,0.98,0.126L133.981,118.285z M137.272,118.196l-0.139-1.281c0.346-0.038,0.689-0.083,1.026-0.132
				l0.188,1.275C137.995,118.109,137.636,118.156,137.272,118.196z M139.414,117.882l-0.23-1.269
				c0.355-0.064,0.697-0.132,1.021-0.201l0.268,1.261C140.137,117.745,139.781,117.815,139.414,117.882z M141.523,117.436
				l-0.303-1.253c0.389-0.094,0.73-0.182,1.012-0.258l0.334,1.245C142.277,117.248,141.924,117.339,141.523,117.436z"/>
		</g>
		<g>
			<path fill="#272A3F" d="M136.891,130.749c-0.316-0.001-0.627-0.027-0.925-0.077l0.215-1.271c0.229,0.039,0.469,0.059,0.712,0.06
				l0.201-0.002l0.027,1.289L136.891,130.749z M138.231,130.658l-0.182-1.276c0.321-0.046,0.628-0.113,0.914-0.201l0.377,1.232
				C138.992,130.52,138.619,130.603,138.231,130.658z M134.832,130.346c-0.357-0.148-0.704-0.34-1.029-0.568l0.74-1.055
				c0.249,0.174,0.513,0.32,0.783,0.433L134.832,130.346z M140.413,129.973l-0.604-1.139c0.268-0.142,0.519-0.311,0.746-0.502
				l0.83,0.986C141.089,129.568,140.762,129.789,140.413,129.973z M132.922,129.021c-0.253-0.264-0.496-0.56-0.72-0.879l1.055-0.74
				c0.187,0.266,0.387,0.51,0.595,0.727L132.922,129.021z M142.195,128.478l-1.014-0.797c0.184-0.233,0.353-0.494,0.501-0.774
				l1.139,0.605C142.636,127.86,142.426,128.185,142.195,128.478z M131.622,127.187c-0.172-0.322-0.327-0.657-0.467-1.002
				l1.193-0.485c0.124,0.303,0.26,0.599,0.41,0.881L131.622,127.187z M143.279,126.482l-1.211-0.442
				c0.107-0.295,0.202-0.605,0.283-0.929l1.25,0.314C143.509,125.794,143.402,126.146,143.279,126.482z M130.787,125.154
				c-0.107-0.346-0.201-0.697-0.283-1.05l1.256-0.291c0.074,0.322,0.16,0.643,0.258,0.959L130.787,125.154z M143.822,124.358
				l-1.271-0.213c0.054-0.319,0.098-0.649,0.132-0.989l1.283,0.131C143.928,123.655,143.88,124.012,143.822,124.358z
				 M130.297,123.042c-0.058-0.362-0.104-0.721-0.137-1.073l1.283-0.122c0.031,0.326,0.073,0.657,0.127,0.991L130.297,123.042z
				 M144.049,122.221l-1.287-0.07c0.019-0.331,0.029-0.669,0.035-1.015l1.289,0.021C144.08,121.52,144.067,121.874,144.049,122.221z
				 M130.094,120.885l-0.005-0.384c0-0.243,0.006-0.479,0.019-0.706l1.287,0.07c-0.011,0.205-0.017,0.417-0.017,0.635l0.005,0.354
				L130.094,120.885z M142.798,120.118c-0.005-0.336-0.014-0.678-0.026-1.024l1.289-0.047c0.013,0.356,0.021,0.707,0.026,1.052
				L142.798,120.118z M131.495,118.9l-1.273-0.205c0.07-0.436,0.168-0.817,0.29-1.134l1.203,0.463
				C131.625,118.258,131.551,118.553,131.495,118.9z M142.724,118.069c-0.02-0.339-0.042-0.683-0.064-1.03l1.285-0.086
				c0.024,0.351,0.047,0.699,0.066,1.043L142.724,118.069z"/>
		</g>
		<g>
			<path fill="#272A3F" d="M143.148,117.008l-0.114-0.394l-0.405,0.036l-0.024-0.281l0.349-0.035l-0.164-0.565l0.26-0.078
				c0.184-0.059,0.387-0.032,0.551,0.075c0.163,0.106,0.269,0.281,0.288,0.475l0.025,0.294l-0.576,0.051l0.106,0.332
				L143.148,117.008z"/>
		</g>
		<g>
			<path fill="#272A3F" d="M131.638,117.8c-0.104-0.041-0.21-0.084-0.31-0.13l0.165-0.354l-0.609-0.436
				c0.116-0.144,0.243-0.259,0.378-0.343c0.185-0.115,0.413-0.128,0.611-0.036c0.074,0.035,0.152,0.066,0.231,0.097l-0.311,0.8
				l0.146,0.235l-0.186-0.132L131.638,117.8z"/>
		</g>
		<g>
			<polygon fill-rule="evenodd" clip-rule="evenodd" fill="#FFFFFF" points="134.601,122.884 136.988,122.814 135.776,125.558 
				135.457,125.256 136.229,123.514 136.249,123.464 136.258,123.418 136.247,123.365 136.23,123.335 136.209,123.313 
				136.159,123.287 136.096,123.276 134.631,123.319 			"/>
			<path fill-rule="evenodd" clip-rule="evenodd" fill="#FFFFFF" d="M137.039,120.313c0.309-0.009,0.58,0.264,0.603,0.606
				c0.024,0.343-0.207,0.631-0.516,0.641c-0.308,0.008-0.578-0.263-0.604-0.607C136.5,120.608,136.731,120.322,137.039,120.313"/>
			<polygon fill-rule="evenodd" clip-rule="evenodd" fill="#FFFFFF" points="137.232,123.262 136.09,125.781 136.453,125.961 
				137.202,124.322 137.226,124.286 137.261,124.263 137.309,124.251 137.363,124.26 137.398,124.284 137.426,124.316 
				138.406,125.903 138.75,125.687 			"/>
			<polygon fill-rule="evenodd" clip-rule="evenodd" fill="#FFFFFF" points="137.4,122.797 139.816,122.726 139.846,123.155 
				138.369,123.199 138.326,123.216 138.284,123.24 138.252,123.283 138.239,123.334 138.243,123.38 138.258,123.427 139.29,125.14 
				139.025,125.449 			"/>
			<path fill-rule="evenodd" clip-rule="evenodd" fill="#FFFFFF" d="M135.145,122.384v0.002c0,0.011-0.002,0.018-0.002,0.023
				c0.002,0.033,0.021,0.055,0.055,0.071c0.035,0.014,0.087,0.021,0.156,0.019c0.052-0.001,0.093-0.009,0.123-0.023
				c0.027-0.013,0.042-0.032,0.041-0.054c-0.003-0.034-0.064-0.06-0.183-0.078c-0.015-0.002-0.026-0.003-0.031-0.005
				c-0.01-0.001-0.02-0.002-0.035-0.005c-0.189-0.029-0.313-0.062-0.37-0.1c-0.027-0.019-0.047-0.041-0.064-0.067
				c-0.015-0.026-0.023-0.057-0.024-0.089c-0.007-0.083,0.032-0.146,0.118-0.19c0.08-0.045,0.205-0.07,0.373-0.075
				c0.164-0.005,0.286,0.012,0.368,0.049c0.081,0.038,0.126,0.098,0.132,0.181l0.002,0.009l-0.313,0.01l-0.002-0.003
				c0-0.028-0.018-0.05-0.051-0.064c-0.032-0.014-0.078-0.02-0.14-0.018c-0.046,0.001-0.083,0.008-0.107,0.019
				c-0.024,0.012-0.037,0.027-0.035,0.047c0.003,0.035,0.072,0.062,0.21,0.082c0.025,0.004,0.046,0.007,0.062,0.009
				c0.098,0.016,0.169,0.029,0.21,0.041c0.041,0.011,0.078,0.025,0.109,0.042c0.034,0.02,0.062,0.044,0.082,0.074
				c0.02,0.031,0.031,0.063,0.035,0.1c0.006,0.083-0.038,0.15-0.128,0.197c-0.093,0.048-0.226,0.076-0.402,0.081
				c-0.175,0.005-0.302-0.014-0.382-0.055c-0.084-0.041-0.128-0.11-0.133-0.206l-0.002-0.012L135.145,122.384z M136.017,122.631
				l-0.058-0.826l0.887-0.026l0.013,0.178l-0.555,0.016l0.009,0.131l0.514-0.015l0.011,0.176l-0.512,0.016l0.011,0.16l0.575-0.018
				l0.013,0.181L136.017,122.631z M137.064,122.601l-0.059-0.826l0.421-0.013l0.49,0.541l-0.038-0.554l0.318-0.009l0.059,0.826
				l-0.438,0.013l-0.476-0.543l0.04,0.555L137.064,122.601z M139.094,122.21l-0.182-0.294l-0.146,0.304L139.094,122.21z
				 M138.609,122.556l-0.334,0.01l0.458-0.842l0.369-0.011l0.549,0.812l-0.37,0.011l-0.085-0.147l-0.517,0.016L138.609,122.556z"/>
		</g>
	</g>
</g>
</svg>
