<?xml version="1.0" encoding="utf-8"?>
<!-- Generator: Adobe Illustrator 16.0.0, SVG Export Plug-In . SVG Version: 6.00 Build 0)  -->
<!DOCTYPE svg PUBLIC "-//W3C//DTD SVG 1.1//EN" "http://www.w3.org/Graphics/SVG/1.1/DTD/svg11.dtd">
<svg version="1.1" id="Capa_1" xmlns="http://www.w3.org/2000/svg" xmlns:xlink="http://www.w3.org/1999/xlink" x="0px" y="0px"
	 width="154.914px" height="74.254px" viewBox="0 0 154.914 74.254" enable-background="new 0 0 154.914 74.254"
	 xml:space="preserve">
<g opacity="0.5">
	<g>
		<g>
			<g>
				<g>
					<defs>
						<rect id="SVGID_1_" width="154.914" height="74.254"/>
					</defs>
					<clipPath id="SVGID_2_">
						<use xlink:href="#SVGID_1_"  overflow="visible"/>
					</clipPath>
					<g clip-path="url(#SVGID_2_)">
						<rect fill="#FFFFFF" width="154.914" height="74.254"/>
					</g>
				</g>
			</g>
		</g>
	</g>
</g>
<g>
	<rect fill="#F5941A" width="154.914" height="48.154"/>
</g>
<g enable-background="new    ">
	<path d="M18.748,65.331v-7.874h2.379l1.429,5.371l1.413-5.371h2.385v7.874h-1.477v-6.198l-1.563,6.198h-1.531l-1.558-6.198v6.198
		H18.748z"/>
	<path d="M35.033,65.331h-1.729l-0.688-1.789h-3.147l-0.65,1.789h-1.687l3.067-7.874h1.681L35.033,65.331z M32.106,62.216
		l-1.085-2.922l-1.063,2.922H32.106z"/>
</g>
<g enable-background="new    ">
	<path d="M35.876,65.331v-7.874h2.551c0.967,0,1.597,0.039,1.891,0.118c0.451,0.118,0.829,0.375,1.133,0.771
		c0.304,0.396,0.457,0.907,0.457,1.534c0,0.481-0.088,0.89-0.263,1.22c-0.175,0.328-0.398,0.588-0.668,0.775
		c-0.271,0.188-0.545,0.313-0.825,0.373c-0.379,0.075-0.929,0.111-1.649,0.111h-1.037v2.972H35.876z M37.466,58.789v2.234h0.87
		c0.626,0,1.045-0.041,1.257-0.125c0.211-0.082,0.377-0.211,0.497-0.387c0.12-0.175,0.18-0.379,0.18-0.611
		c0-0.286-0.084-0.522-0.252-0.709s-0.381-0.303-0.639-0.35c-0.19-0.035-0.571-0.054-1.144-0.054L37.466,58.789L37.466,58.789z"/>
</g>
<g enable-background="new    ">
	<path d="M49.5,65.331h-1.729l-0.688-1.789h-3.147l-0.65,1.789h-1.687l3.067-7.874h1.681L49.5,65.331z M46.573,62.216l-1.085-2.922
		l-1.063,2.922H46.573z"/>
</g>
<g enable-background="new    ">
	<path d="M52.987,57.457h2.906c0.655,0,1.155,0.05,1.499,0.15c0.462,0.136,0.857,0.377,1.187,0.726
		c0.33,0.347,0.58,0.772,0.752,1.274c0.172,0.504,0.258,1.123,0.258,1.861c0,0.647-0.081,1.206-0.242,1.676
		c-0.197,0.572-0.478,1.037-0.843,1.392c-0.276,0.269-0.648,0.479-1.117,0.629c-0.351,0.11-0.82,0.166-1.407,0.166h-2.992
		L52.987,57.457L52.987,57.457z M54.577,58.789v5.216h1.187c0.444,0,0.765-0.024,0.961-0.075c0.258-0.064,0.472-0.174,0.642-0.328
		c0.17-0.153,0.309-0.406,0.417-0.76c0.108-0.353,0.161-0.834,0.161-1.441c0-0.608-0.054-1.076-0.161-1.402
		c-0.107-0.325-0.258-0.58-0.451-0.762c-0.193-0.185-0.438-0.307-0.736-0.371c-0.222-0.051-0.657-0.075-1.305-0.075L54.577,58.789
		L54.577,58.789z"/>
	<path d="M60.937,65.331v-7.874h5.838v1.332h-4.249v1.745h3.953v1.327h-3.953v2.144h4.399v1.326H60.937z"/>
	<path d="M76.368,62.438l1.542,0.487c-0.236,0.859-0.629,1.498-1.179,1.915c-0.55,0.417-1.247,0.626-2.092,0.626
		c-1.045,0-1.905-0.356-2.578-1.071s-1.01-1.69-1.01-2.931c0-1.312,0.338-2.328,1.015-3.054c0.677-0.725,1.566-1.087,2.669-1.087
		c0.963,0,1.746,0.284,2.347,0.854c0.358,0.337,0.626,0.82,0.806,1.45l-1.574,0.376c-0.093-0.407-0.288-0.729-0.583-0.967
		c-0.296-0.236-0.655-0.354-1.077-0.354c-0.583,0-1.057,0.211-1.421,0.629c-0.363,0.42-0.545,1.098-0.545,2.035
		c0,0.995,0.179,1.704,0.537,2.127c0.358,0.424,0.824,0.635,1.396,0.635c0.422,0,0.786-0.135,1.09-0.402
		C76.017,63.436,76.235,63.014,76.368,62.438z"/>
	<path d="M78.951,61.441c0-0.801,0.119-1.476,0.359-2.02c0.18-0.4,0.424-0.761,0.733-1.08c0.31-0.318,0.647-0.555,1.019-0.709
		c0.489-0.207,1.056-0.311,1.696-0.311c1.16,0,2.089,0.359,2.785,1.078c0.694,0.721,1.044,1.722,1.044,3.004
		c0,1.271-0.346,2.266-1.036,2.982c-0.69,0.719-1.614,1.077-2.771,1.077c-1.172,0-2.104-0.356-2.793-1.071
		C79.297,63.68,78.951,62.695,78.951,61.441z M80.59,61.389c0,0.893,0.205,1.567,0.617,2.027s0.936,0.689,1.568,0.689
		s1.154-0.229,1.561-0.685c0.406-0.457,0.609-1.142,0.609-2.055c0-0.902-0.197-1.575-0.594-2.021
		c-0.396-0.443-0.922-0.666-1.576-0.666c-0.655,0-1.185,0.225-1.584,0.674C80.79,59.805,80.59,60.482,80.59,61.389z"/>
	<path d="M87.846,65.331v-7.874h1.547l3.224,5.259v-5.259h1.477v7.874h-1.595l-3.175-5.136v5.136H87.846z"/>
	<path d="M97.546,65.331v-6.542h-2.337v-1.332h6.258v1.332h-2.33v6.542H97.546z"/>
	<path d="M102.492,65.331v-7.874h5.839v1.332h-4.249v1.745h3.953v1.327h-3.953v2.144h4.398v1.326H102.492z"/>
	<path d="M109.846,65.331v-7.874h1.547l3.224,5.259v-5.259h1.477v7.874h-1.595l-3.175-5.136v5.136H109.846z"/>
	<path d="M117.725,65.331v-7.874h1.59v7.874H117.725z"/>
	<path d="M120.824,57.457h2.906c0.653,0,1.153,0.05,1.498,0.15c0.461,0.136,0.856,0.377,1.188,0.726
		c0.329,0.347,0.58,0.772,0.752,1.274c0.172,0.504,0.258,1.123,0.258,1.861c0,0.647-0.08,1.206-0.242,1.676
		c-0.197,0.572-0.479,1.037-0.844,1.392c-0.275,0.269-0.646,0.479-1.117,0.629c-0.351,0.11-0.818,0.166-1.406,0.166h-2.991
		L120.824,57.457L120.824,57.457z M122.414,58.789v5.216h1.188c0.443,0,0.765-0.024,0.961-0.075
		c0.258-0.064,0.473-0.174,0.643-0.328c0.171-0.153,0.311-0.406,0.417-0.76c0.106-0.353,0.16-0.834,0.16-1.441
		c0-0.608-0.054-1.076-0.16-1.402c-0.106-0.325-0.259-0.58-0.451-0.762c-0.192-0.185-0.438-0.307-0.735-0.371
		c-0.224-0.051-0.658-0.075-1.306-0.075L122.414,58.789L122.414,58.789z"/>
	<path d="M128.451,61.441c0-0.801,0.119-1.476,0.359-2.02c0.18-0.4,0.424-0.761,0.733-1.08c0.31-0.318,0.647-0.555,1.019-0.709
		c0.489-0.207,1.056-0.311,1.696-0.311c1.16,0,2.089,0.359,2.785,1.078c0.695,0.721,1.044,1.722,1.044,3.004
		c0,1.271-0.346,2.266-1.035,2.982c-0.691,0.719-1.615,1.077-2.771,1.077c-1.172,0-2.104-0.356-2.793-1.071
		C128.797,63.68,128.451,62.695,128.451,61.441z M130.09,61.389c0,0.893,0.205,1.567,0.617,2.027s0.936,0.689,1.568,0.689
		s1.154-0.229,1.561-0.685c0.406-0.457,0.609-1.142,0.609-2.055c0-0.902-0.197-1.575-0.594-2.021
		c-0.396-0.443-0.922-0.666-1.576-0.666c-0.655,0-1.185,0.225-1.584,0.674C130.29,59.805,130.09,60.482,130.09,61.389z"/>
</g>
<g>
	<path fill="#FFFFFF" d="M73.677,7.621v10.152c0,0.622,0.503,1.125,1.125,1.125h3.95v3.055H63.66c-0.621,0-1.125,0.503-1.125,1.125
		v4.015h-3.95c-0.622,0-1.125,0.503-1.125,1.125v10.153c0,0.621,0.503,1.125,1.125,1.125h10.152c0.621,0,1.124-0.504,1.124-1.125
		V28.218c0-0.622-0.503-1.125-1.124-1.125h-3.961v-2.899h13.966v2.899h-3.95c-0.622,0-1.125,0.503-1.125,1.125v10.153
		c0,0.621,0.503,1.125,1.125,1.125h10.151c0.623,0,1.125-0.504,1.125-1.125V28.218c0-0.622-0.502-1.125-1.125-1.125h-3.951v-2.899
		H94.96v2.899h-3.951c-0.62,0-1.125,0.503-1.125,1.125v10.153c0,0.621,0.505,1.125,1.125,1.125h10.151
		c0.622,0,1.125-0.504,1.125-1.125V28.218c0-0.622-0.503-1.125-1.125-1.125h-3.95v-4.015c0-0.622-0.503-1.125-1.125-1.125H80.992
		v-3.055h3.951c0.623,0,1.125-0.503,1.125-1.125V7.621c0-0.623-0.502-1.125-1.125-1.125H74.792
		C74.18,6.496,73.677,6.998,73.677,7.621 M67.613,37.236h-7.902v-7.911h7.902V37.236z M83.82,37.236h-7.912v-7.911h7.912V37.236z
		 M100.027,37.236h-7.903v-7.911h7.912v7.911H100.027z M75.917,8.737h7.911v7.911h-7.911V8.737z"/>
</g>
</svg>
