<?xml version="1.0" encoding="utf-8"?>
<!-- Generator: Adobe Illustrator 16.0.0, SVG Export Plug-In . SVG Version: 6.00 Build 0)  -->
<!DOCTYPE svg PUBLIC "-//W3C//DTD SVG 1.1//EN" "http://www.w3.org/Graphics/SVG/1.1/DTD/svg11.dtd">
<svg version="1.1" id="Capa_1" xmlns="http://www.w3.org/2000/svg" xmlns:xlink="http://www.w3.org/1999/xlink" x="0px" y="0px"
	 width="154.914px" height="74.254px" viewBox="0 0 154.914 74.254" enable-background="new 0 0 154.914 74.254"
	 xml:space="preserve">
<g opacity="0.5">
	<g>
		<g>
			<g>
				<g>
					<defs>
						<rect id="SVGID_1_" x="-0.341" y="-0.298" width="154.92" height="74.253"/>
					</defs>
					<clipPath id="SVGID_2_">
						<use xlink:href="#SVGID_1_"  overflow="visible"/>
					</clipPath>
					<g clip-path="url(#SVGID_2_)">
						<rect x="-0.34" y="-0.298" fill="#FFFFFF" width="154.914" height="74.253"/>
					</g>
				</g>
			</g>
		</g>
	</g>
</g>
<g>
	<rect x="-0.34" y="-0.298" fill="#F5941A" width="154.914" height="48.153"/>
</g>
<g enable-background="new    ">
	<path d="M18.418,57.159h2.906c0.655,0,1.155,0.05,1.499,0.149c0.462,0.137,0.857,0.379,1.187,0.727
		c0.33,0.347,0.58,0.771,0.752,1.275c0.172,0.502,0.258,1.123,0.258,1.86c0,0.647-0.081,1.206-0.242,1.677
		c-0.197,0.571-0.478,1.035-0.843,1.391c-0.276,0.269-0.648,0.479-1.117,0.629c-0.351,0.109-0.82,0.166-1.407,0.166h-2.992
		L18.418,57.159L18.418,57.159z M20.008,58.491v5.216h1.187c0.444,0,0.765-0.025,0.961-0.076c0.258-0.064,0.472-0.173,0.642-0.326
		c0.17-0.154,0.309-0.408,0.417-0.761c0.108-0.353,0.161-0.834,0.161-1.442c0-0.607-0.054-1.076-0.161-1.401
		s-0.258-0.58-0.451-0.763c-0.193-0.184-0.438-0.307-0.736-0.371c-0.222-0.049-0.657-0.074-1.305-0.074L20.008,58.491L20.008,58.491
		z"/>
	<path d="M26.368,65.033v-7.874h5.838v1.332h-4.249v1.745h3.953v1.326h-3.953v2.145h4.399v1.326H26.368z"/>
	<path d="M33.302,62.471l1.547-0.15c0.093,0.521,0.282,0.902,0.566,1.146c0.285,0.243,0.669,0.365,1.152,0.365
		c0.512,0,0.898-0.108,1.157-0.325c0.26-0.217,0.39-0.47,0.39-0.76c0-0.188-0.055-0.346-0.164-0.477
		c-0.109-0.131-0.3-0.244-0.572-0.34c-0.186-0.064-0.61-0.18-1.273-0.345c-0.852-0.211-1.45-0.471-1.794-0.778
		c-0.483-0.434-0.725-0.961-0.725-1.584c0-0.402,0.114-0.777,0.341-1.125c0.227-0.351,0.555-0.615,0.982-0.799
		c0.428-0.183,0.945-0.273,1.55-0.273c0.988,0,1.732,0.217,2.231,0.649c0.5,0.435,0.762,1.013,0.787,1.735l-1.59,0.068
		c-0.068-0.403-0.214-0.694-0.438-0.873c-0.224-0.176-0.56-0.266-1.007-0.266c-0.462,0-0.824,0.096-1.085,0.284
		c-0.168,0.122-0.252,0.285-0.252,0.489c0,0.187,0.079,0.346,0.236,0.478c0.201,0.169,0.688,0.345,1.461,0.527
		c0.773,0.182,1.346,0.371,1.716,0.565c0.371,0.195,0.661,0.463,0.87,0.801c0.21,0.339,0.314,0.757,0.314,1.255
		c0,0.45-0.125,0.872-0.376,1.268c-0.25,0.394-0.605,0.687-1.063,0.878s-1.029,0.287-1.713,0.287c-0.996,0-1.76-0.23-2.293-0.689
		C33.724,64.021,33.406,63.352,33.302,62.471z"/>
	<path d="M46.08,62.139l1.542,0.488c-0.236,0.859-0.629,1.498-1.179,1.915c-0.55,0.417-1.247,0.626-2.092,0.626
		c-1.045,0-1.905-0.357-2.578-1.072c-0.673-0.714-1.01-1.689-1.01-2.93c0-1.311,0.338-2.328,1.015-3.055
		c0.677-0.725,1.566-1.086,2.669-1.086c0.963,0,1.746,0.283,2.347,0.854c0.358,0.337,0.626,0.82,0.806,1.45l-1.574,0.376
		c-0.093-0.408-0.288-0.73-0.583-0.967c-0.296-0.236-0.655-0.354-1.077-0.354c-0.583,0-1.057,0.21-1.421,0.628
		c-0.363,0.42-0.545,1.098-0.545,2.036c0,0.995,0.179,1.704,0.537,2.127s0.824,0.634,1.396,0.634c0.422,0,0.786-0.135,1.09-0.401
		C45.729,63.137,45.947,62.715,46.08,62.139z"/>
	<path d="M56.086,65.033h-1.729l-0.688-1.789h-3.147l-0.65,1.789h-1.687l3.067-7.874h1.681L56.086,65.033z M53.159,61.918
		l-1.085-2.922l-1.063,2.922H53.159z"/>
	<path d="M56.935,65.033v-7.874h3.346c0.841,0,1.453,0.069,1.834,0.212c0.381,0.143,0.687,0.395,0.916,0.755
		c0.229,0.36,0.344,0.774,0.344,1.241c0,0.59-0.174,1.078-0.521,1.463s-0.867,0.628-1.558,0.729c0.344,0.2,0.627,0.42,0.852,0.66
		c0.224,0.24,0.525,0.666,0.905,1.278l0.961,1.536h-1.901l-1.149-1.713c-0.408-0.613-0.688-1-0.838-1.158
		c-0.15-0.159-0.31-0.27-0.478-0.327c-0.168-0.06-0.435-0.089-0.8-0.089h-0.322v3.287H56.935L56.935,65.033z M58.524,60.489H59.7
		c0.763,0,1.239-0.032,1.429-0.097c0.19-0.065,0.338-0.177,0.446-0.334c0.108-0.156,0.161-0.354,0.161-0.591
		c0-0.265-0.071-0.479-0.212-0.642c-0.142-0.163-0.341-0.268-0.599-0.311c-0.129-0.018-0.516-0.025-1.16-0.025h-1.241V60.489z"/>
	<path d="M68.536,62.139v-1.326h3.427v3.137c-0.333,0.322-0.815,0.605-1.448,0.852c-0.632,0.245-1.272,0.368-1.92,0.368
		c-0.824,0-1.542-0.173-2.154-0.519c-0.612-0.346-1.072-0.84-1.38-1.482s-0.462-1.342-0.462-2.098c0-0.82,0.172-1.549,0.516-2.188
		c0.344-0.637,0.847-1.126,1.509-1.466c0.505-0.263,1.133-0.392,1.885-0.392c0.978,0,1.741,0.203,2.291,0.613
		c0.549,0.41,0.903,0.978,1.061,1.7l-1.579,0.295c-0.111-0.387-0.319-0.69-0.626-0.915c-0.306-0.224-0.688-0.336-1.146-0.336
		c-0.695,0-1.247,0.221-1.657,0.661c-0.41,0.438-0.615,1.095-0.615,1.96c0,0.936,0.208,1.637,0.623,2.104
		c0.416,0.468,0.959,0.701,1.633,0.701c0.333,0,0.667-0.065,1.001-0.197c0.335-0.131,0.623-0.288,0.862-0.476v-0.997H68.536
		L68.536,62.139z"/>
	<path d="M80.529,65.033H78.8l-0.688-1.789h-3.147l-0.65,1.789h-1.687l3.067-7.874h1.681L80.529,65.033z M77.603,61.918
		l-1.085-2.922l-1.063,2.922H77.603z"/>
	<path d="M81.379,65.033v-7.874h3.346c0.842,0,1.453,0.069,1.834,0.212s0.688,0.395,0.916,0.755c0.229,0.36,0.344,0.774,0.344,1.241
		c0,0.59-0.174,1.078-0.521,1.463s-0.866,0.628-1.557,0.729c0.344,0.2,0.627,0.42,0.852,0.66c0.224,0.24,0.525,0.666,0.904,1.278
		l0.961,1.536h-1.899l-1.15-1.713c-0.408-0.613-0.688-1-0.838-1.158c-0.15-0.159-0.31-0.27-0.479-0.327
		c-0.169-0.06-0.435-0.089-0.8-0.089h-0.321v3.287H81.379L81.379,65.033z M82.969,60.489h1.176c0.764,0,1.238-0.032,1.43-0.097
		c0.191-0.065,0.339-0.177,0.445-0.334c0.107-0.156,0.16-0.354,0.16-0.591c0-0.265-0.07-0.479-0.211-0.642
		c-0.143-0.163-0.342-0.268-0.6-0.311c-0.129-0.018-0.516-0.025-1.16-0.025h-1.24V60.489L82.969,60.489z"/>
	<path d="M92.051,61.145c0-0.802,0.12-1.476,0.359-2.02c0.18-0.4,0.424-0.761,0.734-1.08c0.309-0.318,0.647-0.555,1.018-0.709
		c0.49-0.207,1.056-0.311,1.697-0.311c1.16,0,2.088,0.358,2.785,1.078c0.694,0.721,1.043,1.722,1.043,3.004
		c0,1.271-0.346,2.266-1.035,2.982c-0.691,0.719-1.615,1.077-2.771,1.077c-1.172,0-2.104-0.356-2.793-1.071
		C92.396,63.382,92.051,62.396,92.051,61.145z M93.689,61.091c0,0.892,0.205,1.567,0.617,2.027c0.411,0.46,0.935,0.69,1.567,0.69
		s1.153-0.229,1.562-0.686c0.405-0.457,0.608-1.143,0.608-2.055c0-0.902-0.196-1.575-0.594-2.021
		c-0.396-0.444-0.921-0.666-1.576-0.666s-1.185,0.226-1.584,0.675C93.891,59.507,93.689,60.186,93.689,61.091z"/>
	<path d="M100.936,57.159h3.146c0.623,0,1.088,0.026,1.395,0.077c0.307,0.053,0.58,0.16,0.821,0.326
		c0.241,0.164,0.442,0.383,0.604,0.656c0.16,0.274,0.24,0.581,0.24,0.922c0,0.368-0.1,0.707-0.297,1.016
		c-0.199,0.308-0.47,0.539-0.81,0.693c0.479,0.139,0.849,0.377,1.106,0.713c0.256,0.338,0.387,0.732,0.387,1.188
		c0,0.357-0.084,0.707-0.25,1.045c-0.166,0.339-0.395,0.609-0.682,0.813c-0.289,0.203-0.645,0.326-1.066,0.373
		c-0.266,0.027-0.904,0.047-1.918,0.054h-2.68v-7.875H100.936z M102.523,58.471v1.82h1.043c0.619,0,1.004-0.01,1.154-0.027
		c0.271-0.031,0.485-0.125,0.643-0.281c0.154-0.155,0.232-0.36,0.232-0.614c0-0.244-0.066-0.441-0.201-0.595
		c-0.135-0.151-0.334-0.244-0.599-0.276c-0.157-0.019-0.61-0.026-1.358-0.026H102.523L102.523,58.471z M102.523,61.602v2.105h1.473
		c0.572,0,0.938-0.018,1.09-0.049c0.236-0.043,0.43-0.147,0.578-0.314c0.148-0.166,0.223-0.389,0.223-0.668
		c0-0.236-0.057-0.438-0.172-0.602c-0.115-0.165-0.279-0.285-0.497-0.36c-0.216-0.075-0.687-0.112-1.409-0.112H102.523z"/>
	<path d="M111.715,57.159h1.584v4.983c0,0.651-0.057,1.153-0.172,1.504c-0.154,0.459-0.434,0.826-0.838,1.104
		s-0.938,0.417-1.602,0.417c-0.775,0-1.375-0.218-1.793-0.652c-0.42-0.436-0.631-1.074-0.635-1.916l1.499-0.172
		c0.019,0.451,0.084,0.771,0.198,0.957c0.172,0.282,0.434,0.424,0.784,0.424c0.354,0,0.604-0.102,0.752-0.304
		s0.221-0.622,0.221-1.259L111.715,57.159L111.715,57.159z"/>
	<path d="M114.99,65.033v-7.874h5.839v1.332h-4.249v1.745h3.953v1.326h-3.953v2.145h4.398v1.326H114.99z"/>
</g>
<g enable-background="new    ">
	<path d="M124.1,65.033v-6.542h-2.336v-1.332h6.256v1.332h-2.33v6.542H124.1z"/>
</g>
<g enable-background="new    ">
	<path d="M128.525,61.145c0-0.802,0.121-1.476,0.359-2.02c0.18-0.4,0.424-0.761,0.733-1.08c0.31-0.318,0.647-0.555,1.019-0.709
		c0.489-0.207,1.057-0.311,1.696-0.311c1.16,0,2.088,0.358,2.785,1.078c0.696,0.721,1.045,1.722,1.045,3.004
		c0,1.271-0.347,2.266-1.037,2.982s-1.614,1.077-2.771,1.077c-1.172,0-2.103-0.356-2.793-1.071
		C128.871,63.382,128.525,62.396,128.525,61.145z M130.164,61.091c0,0.892,0.206,1.567,0.617,2.027
		c0.412,0.46,0.936,0.69,1.568,0.69c0.635,0,1.153-0.229,1.561-0.686c0.406-0.457,0.609-1.143,0.609-2.055
		c0-0.902-0.197-1.575-0.594-2.021c-0.396-0.444-0.921-0.666-1.576-0.666c-0.654,0-1.185,0.226-1.584,0.675
		C130.365,59.505,130.164,60.186,130.164,61.091z"/>
</g>
<g>
	<path fill="#FEFEFE" d="M88.311,29.232c-1.168,0-1.943,0.972-1.943,1.945v2.921H68.071v-2.921c0-0.973-0.977-1.945-1.954-1.945
		c-1.16,0-1.939,0.972-1.939,1.945v4.869c0,1.166,0.779,1.943,1.939,1.943h22.193c0.972,0,1.75-0.777,1.75-1.943v-4.869
		C90.061,30.204,89.279,29.232,88.311,29.232 M76.635,31.372c0.19,0.199,0.772,0.199,1.163,0l6.624-6.808
		c0.188-0.197,0.188-0.392,0.188-0.784c-0.188-0.194-0.381-0.388-0.576-0.388h-3.313v-12.26c0-0.973-0.578-1.561-1.363-1.561h-4.286
		c-0.967,0-1.556,0.588-1.556,1.561v12.26h-3.108c-0.389,0-0.588,0.194-0.78,0.388c0,0.392,0,0.587,0.192,0.784L76.635,31.372z"/>
</g>
</svg>
