<?xml version="1.0" encoding="utf-8"?>
<!-- Generator: Adobe Illustrator 16.0.0, SVG Export Plug-In . SVG Version: 6.00 Build 0)  -->
<!DOCTYPE svg PUBLIC "-//W3C//DTD SVG 1.1//EN" "http://www.w3.org/Graphics/SVG/1.1/DTD/svg11.dtd">
<svg version="1.1" id="Capa_1" xmlns="http://www.w3.org/2000/svg" xmlns:xlink="http://www.w3.org/1999/xlink" x="0px" y="0px"
	 width="292.958px" height="218.691px" viewBox="0 0 292.958 218.691" enable-background="new 0 0 292.958 218.691"
	 xml:space="preserve">
<polygon fill="#DDDDDD" points="19.666,9.278 22.291,212.719 292.958,210.119 289.997,6.954 "/>
<polygon fill="#B2B2B2" points="19.666,9.278 22.291,212.719 292.958,210.119 289.997,6.954 "/>
<polygon fill="#AEAEAE" points="16.936,12.794 19.561,216.234 290.227,213.635 287.267,10.47 "/>
<polygon fill="#CECECE" points="16.072,13.688 18.697,217.128 289.364,214.528 286.403,11.363 "/>
<polygon fill="#DFDFDF" points="14.349,15.251 16.974,218.691 287.641,216.092 284.68,12.927 "/>
<g>
	<image overflow="visible" opacity="0.2" width="81" height="76" xlink:href="89B1D95.png" >
	</image>
	<g>
		<linearGradient id="SVGID_1_" gradientUnits="userSpaceOnUse" x1="62.1328" y1="50.7139" x2="17.4899" y2="22.4286">
			<stop  offset="0" style="stop-color:#FFFFFF"/>
			<stop  offset="1" style="stop-color:#A8A8A8"/>
		</linearGradient>
		<polygon fill="url(#SVGID_1_)" points="14.349,54.622 59.191,54.043 58.678,14.341 		"/>
	</g>
</g>
<g>
	<g>
		<g>
			<g>
				
					<rect x="107.624" y="87.791" transform="matrix(-0.9999 0.0123 -0.0123 -0.9999 217.9451 296.4908)" fill="#4A4A4C" width="0.873" height="122.25"/>
			</g>
			<g>
				
					<rect x="192.609" y="86.696" transform="matrix(-0.9999 0.0134 -0.0134 -0.9999 388.0584 293.0363)" fill="#4A4A4C" width="0.873" height="122.248"/>
			</g>
		</g>
		<g>
			<g>
				
					<rect x="114.341" y="177.615" transform="matrix(0.9999 -0.0129 0.0129 0.9999 -2.2776 1.9623)" fill="#4A4A4C" width="73.785" height="0.436"/>
			</g>
			<g>
				
					<rect x="148.341" y="53.931" transform="matrix(0.022 0.9998 -0.9998 0.022 237.3538 -59.9956)" fill="#4A4A4C" width="2" height="74.769"/>
			</g>
			<g>
				
					<rect x="148.341" y="58.998" transform="matrix(0.022 0.9998 -0.9998 0.022 242.4195 -55.04)" fill="#4A4A4C" width="2" height="74.769"/>
			</g>
			<g>
				
					<rect x="148.341" y="64.526" transform="matrix(0.022 0.9998 -0.9998 0.022 247.946 -49.6336)" fill="#4A4A4C" width="2" height="74.769"/>
			</g>
			<g>
				
					<rect x="148.341" y="70.054" transform="matrix(0.022 0.9998 -0.9998 0.022 253.4725 -44.2272)" fill="#4A4A4C" width="2" height="74.769"/>
			</g>
			<g>
				
					<rect x="148.341" y="75.581" transform="matrix(0.022 0.9998 -0.9998 0.022 258.999 -38.8208)" fill="#4A4A4C" width="2" height="74.769"/>
			</g>
			<g>
				
					<rect x="148.341" y="81.109" transform="matrix(0.022 0.9998 -0.9998 0.022 264.5255 -33.4144)" fill="#4A4A4C" width="2" height="74.769"/>
			</g>
			<g>
				
					<rect x="148.341" y="86.637" transform="matrix(0.022 0.9998 -0.9998 0.022 270.052 -28.008)" fill="#4A4A4C" width="2" height="74.769"/>
			</g>
			<g>
				
					<rect x="148.341" y="92.165" transform="matrix(0.022 0.9998 -0.9998 0.022 275.5785 -22.6016)" fill="#4A4A4C" width="2" height="74.769"/>
			</g>
			<g>
				
					<rect x="148.341" y="97.693" transform="matrix(0.022 0.9998 -0.9998 0.022 281.105 -17.1952)" fill="#4A4A4C" width="2" height="74.769"/>
			</g>
			<g>
				
					<rect x="148.341" y="103.221" transform="matrix(0.022 0.9998 -0.9998 0.022 286.6315 -11.7888)" fill="#4A4A4C" width="2" height="74.769"/>
			</g>
			<g>
				
					<rect x="148.341" y="108.748" transform="matrix(0.022 0.9998 -0.9998 0.022 292.158 -6.3824)" fill="#4A4A4C" width="2" height="74.769"/>
			</g>
			<g>
				
					<rect x="148.341" y="114.276" transform="matrix(0.022 0.9998 -0.9998 0.022 297.6844 -0.976)" fill="#4A4A4C" width="2" height="74.769"/>
			</g>
			<g>
				
					<rect x="148.341" y="119.804" transform="matrix(0.022 0.9998 -0.9998 0.022 303.211 4.4304)" fill="#4A4A4C" width="2" height="74.769"/>
			</g>
			<g>
				
					<rect x="148.341" y="125.332" transform="matrix(0.022 0.9998 -0.9998 0.022 308.7375 9.8368)" fill="#4A4A4C" width="2" height="74.769"/>
			</g>
			<g>
				
					<rect x="148.341" y="130.86" transform="matrix(0.022 0.9998 -0.9998 0.022 314.264 15.2432)" fill="#4A4A4C" width="2" height="74.769"/>
			</g>
			<g>
				
					<rect x="148.341" y="136.388" transform="matrix(0.022 0.9998 -0.9998 0.022 319.7905 20.6496)" fill="#4A4A4C" width="2" height="74.769"/>
			</g>
			<g>
				
					<rect x="147.97" y="157.354" transform="matrix(0.022 0.9998 -0.9998 0.022 340.3888 41.5264)" fill="#4A4A4C" width="2" height="74.769"/>
			</g>
			<g>
				
					<rect x="148.341" y="164.341" transform="matrix(0.022 0.9998 -0.9998 0.022 347.7373 47.9892)" fill="#4A4A4C" width="2" height="74.769"/>
			</g>
		</g>
	</g>
	<g>
		<g>
			<path fill="#4A4A4C" d="M31.468,96.036c-0.32,0.165-0.962,0.335-1.788,0.346c-1.912,0.024-3.367-1.165-3.396-3.39
				c-0.028-2.125,1.393-3.583,3.497-3.61c0.846-0.011,1.381,0.164,1.613,0.282l-0.201,0.717c-0.334-0.157-0.809-0.272-1.373-0.265
				c-1.59,0.021-2.635,1.052-2.611,2.833c0.021,1.662,0.992,2.716,2.643,2.694c0.533-0.006,1.076-0.125,1.426-0.299L31.468,96.036z"
				/>
			<path fill="#4A4A4C" d="M36.479,94.864c0.007,0.504,0.023,0.945,0.058,1.328l-0.784,0.01l-0.061-0.795H35.67
				c-0.227,0.396-0.732,0.916-1.599,0.927c-0.765,0.009-1.686-0.401-1.708-2.112l-0.037-2.85l0.886-0.011l0.034,2.698
				c0.013,0.926,0.303,1.547,1.107,1.536c0.594-0.008,1.002-0.426,1.158-0.821c0.048-0.131,0.076-0.292,0.074-0.453l-0.038-2.99
				l0.886-0.012L36.479,94.864z"/>
			<path fill="#4A4A4C" d="M37.836,95.27c0.264,0.167,0.729,0.343,1.172,0.337c0.645-0.009,0.942-0.335,0.937-0.738
				c-0.005-0.422-0.26-0.651-0.917-0.884c-0.88-0.301-1.299-0.779-1.307-1.362c-0.01-0.785,0.615-1.438,1.663-1.452
				c0.493-0.006,0.928,0.129,1.202,0.287l-0.214,0.647c-0.192-0.119-0.548-0.275-1-0.27c-0.523,0.007-0.812,0.313-0.808,0.676
				c0.006,0.403,0.3,0.58,0.938,0.813c0.85,0.311,1.288,0.728,1.297,1.453c0.012,0.855-0.645,1.468-1.803,1.483
				c-0.533,0.007-1.028-0.117-1.373-0.314L37.836,95.27z"/>
			<path fill="#4A4A4C" d="M42.942,89.837l0.019,1.399l1.268-0.016l0.008,0.675l-1.268,0.016l0.034,2.628
				c0.007,0.604,0.183,0.944,0.677,0.937c0.231-0.002,0.401-0.035,0.512-0.067l0.05,0.665c-0.171,0.073-0.441,0.126-0.784,0.131
				c-0.412,0.005-0.747-0.121-0.961-0.36c-0.256-0.259-0.352-0.69-0.358-1.264l-0.034-2.658l-0.756,0.01l-0.008-0.675l0.755-0.01
				L42.08,90.08L42.942,89.837z"/>
			<path fill="#4A4A4C" d="M49.606,93.547c0.023,1.802-1.216,2.603-2.394,2.618c-1.318,0.017-2.348-0.937-2.367-2.477
				c-0.021-1.631,1.034-2.601,2.383-2.618C48.627,91.052,49.587,92.057,49.606,93.547z M45.741,93.647
				c0.015,1.067,0.638,1.864,1.503,1.853c0.847-0.01,1.471-0.814,1.456-1.911c-0.011-0.826-0.437-1.868-1.483-1.854
				C46.169,91.748,45.729,92.721,45.741,93.647z"/>
			<path fill="#4A4A4C" d="M50.712,92.455c-0.007-0.503-0.022-0.916-0.058-1.318l0.775-0.01l0.051,0.784h0.029
				c0.267-0.467,0.714-0.905,1.52-0.916c0.664-0.009,1.172,0.387,1.391,0.958h0.021c0.147-0.273,0.336-0.488,0.536-0.642
				c0.289-0.225,0.609-0.35,1.072-0.356c0.645-0.008,1.605,0.402,1.628,2.094l0.037,2.869l-0.866,0.011l-0.035-2.758
				c-0.013-0.937-0.361-1.495-1.076-1.486c-0.504,0.006-0.892,0.384-1.037,0.819c-0.038,0.122-0.066,0.283-0.064,0.444l0.039,3.01
				l-0.865,0.012l-0.038-2.919c-0.011-0.775-0.359-1.334-1.034-1.326c-0.554,0.007-0.951,0.455-1.086,0.899
				c-0.049,0.132-0.066,0.283-0.064,0.434l0.038,2.94l-0.866,0.011L50.712,92.455z"/>
			<path fill="#4A4A4C" d="M59.621,93.619c0.035,1.198,0.807,1.682,1.692,1.67c0.634-0.008,1.015-0.124,1.345-0.27l0.16,0.632
				c-0.311,0.146-0.842,0.313-1.617,0.323c-1.499,0.02-2.408-0.956-2.428-2.425c-0.019-1.47,0.833-2.639,2.252-2.657
				c1.591-0.021,2.031,1.373,2.043,2.27c0.002,0.181-0.017,0.322-0.025,0.413L59.621,93.619z M62.209,92.952
				c0.003-0.564-0.25-1.437-1.246-1.424c-0.896,0.012-1.277,0.842-1.34,1.458L62.209,92.952z"/>
			<path fill="#4A4A4C" d="M64.158,92.483c-0.008-0.574-0.023-1.067-0.059-1.521l0.773-0.01l0.043,0.956l0.041,0
				c0.213-0.657,0.74-1.077,1.335-1.084c0.101-0.001,0.171,0.008,0.252,0.027l0.011,0.835c-0.091-0.019-0.182-0.027-0.303-0.026
				c-0.624,0.008-1.061,0.486-1.173,1.153c-0.019,0.121-0.037,0.262-0.035,0.414l0.034,2.597l-0.876,0.012L64.158,92.483z"/>
			<path fill="#4A4A4C" d="M69.498,94.861c0.264,0.168,0.729,0.343,1.172,0.337c0.645-0.008,0.942-0.334,0.938-0.737
				c-0.006-0.423-0.261-0.651-0.918-0.885c-0.881-0.301-1.299-0.779-1.307-1.362c-0.01-0.786,0.616-1.438,1.663-1.451
				c0.493-0.006,0.928,0.129,1.201,0.287l-0.213,0.647c-0.192-0.119-0.547-0.275-1.001-0.27c-0.522,0.006-0.811,0.313-0.807,0.675
				c0.006,0.403,0.3,0.58,0.938,0.813c0.85,0.312,1.288,0.728,1.297,1.453c0.012,0.856-0.645,1.468-1.803,1.483
				c-0.533,0.007-1.029-0.117-1.373-0.315L69.498,94.861z"/>
			<path fill="#4A4A4C" d="M74.082,93.433c0.035,1.197,0.807,1.68,1.693,1.669c0.634-0.008,1.015-0.124,1.346-0.269l0.158,0.631
				c-0.31,0.146-0.842,0.313-1.616,0.324c-1.501,0.019-2.409-0.956-2.428-2.425s0.831-2.639,2.251-2.657
				c1.591-0.021,2.031,1.373,2.042,2.27c0.003,0.181-0.015,0.322-0.024,0.413L74.082,93.433z M76.671,92.765
				c0.003-0.563-0.251-1.437-1.247-1.424c-0.896,0.012-1.277,0.842-1.34,1.457L76.671,92.765z"/>
			<path fill="#4A4A4C" d="M78.62,92.296c-0.008-0.573-0.024-1.066-0.06-1.52l0.774-0.01l0.043,0.957l0.04,0
				c0.213-0.657,0.742-1.077,1.336-1.084c0.1-0.001,0.17,0.007,0.251,0.027l0.011,0.835c-0.09-0.019-0.182-0.028-0.303-0.026
				c-0.623,0.008-1.061,0.486-1.172,1.153c-0.02,0.12-0.037,0.261-0.035,0.412l0.033,2.598l-0.875,0.011L78.62,92.296z"/>
			<path fill="#4A4A4C" d="M82.487,90.726l0.991,2.726c0.167,0.441,0.303,0.842,0.409,1.243l0.03,0
				c0.105-0.404,0.241-0.808,0.396-1.254l0.911-2.75l0.926-0.012l-1.85,4.897l-0.845,0.011l-1.916-4.849L82.487,90.726z"/>
			<path fill="#4A4A4C" d="M87.959,89.287c0.013,0.302-0.205,0.546-0.558,0.55c-0.312,0.004-0.537-0.235-0.54-0.537
				c-0.004-0.312,0.224-0.556,0.546-0.561C87.739,88.736,87.955,88.975,87.959,89.287z M87.052,95.541l-0.063-4.873l0.886-0.011
				l0.063,4.873L87.052,95.541z"/>
			<path fill="#4A4A4C" d="M92.879,95.285c-0.23,0.123-0.741,0.291-1.396,0.299c-1.47,0.02-2.438-0.965-2.458-2.455
				c-0.02-1.5,0.993-2.601,2.584-2.621c0.523-0.007,0.987,0.118,1.231,0.236l-0.193,0.687c-0.212-0.118-0.546-0.224-1.029-0.218
				c-1.117,0.015-1.711,0.848-1.697,1.865c0.015,1.127,0.748,1.813,1.714,1.8c0.504-0.007,0.834-0.142,1.085-0.256L92.879,95.285z"
				/>
			<path fill="#4A4A4C" d="M94.323,93.171c0.036,1.198,0.808,1.681,1.693,1.67c0.634-0.008,1.015-0.125,1.345-0.269l0.16,0.632
				c-0.311,0.145-0.842,0.313-1.616,0.323c-1.501,0.02-2.409-0.955-2.429-2.425c-0.02-1.469,0.832-2.639,2.252-2.657
				c1.59-0.021,2.031,1.372,2.042,2.269c0.003,0.182-0.015,0.323-0.024,0.414L94.323,93.171z M96.912,92.504
				c0.003-0.564-0.25-1.437-1.246-1.424c-0.896,0.011-1.277,0.842-1.34,1.457L96.912,92.504z"/>
		</g>
		<g>
			
				<rect x="26.567" y="102.384" transform="matrix(-0.9999 0.0129 -0.0129 -0.9999 127.9655 204.5182)" fill="#4A4A4C" width="73.514" height="0.575"/>
		</g>
		<g>
			
				<rect x="26.793" y="104.958" transform="matrix(0.9999 -0.0129 0.0129 0.9999 -1.8163 0.8297)" fill="#4A4A4C" width="73.349" height="72.766"/>
		</g>
		<g>
			<path fill="#F1F2F2" d="M56.701,110.496c0,0-10.51,1.498-17.556,9.821c0,0,5.437-5.801,8.802-5.844l0.752,0.319
				c0,0-0.102,0.278-0.207,0.39c-0.105,0.116-0.527,0.687-0.526,0.832c0.002,0.142,0.046,0.607,0.046,0.607l-0.246,0.36
				c0,0-0.251,0.112-0.319,0.219c-0.073,0.107-0.213,0.147-0.209,0.395c0.003,0.252,0.078,0.573,0.078,0.573l0.04,0.61l-0.173,0.359
				l-0.458,0.292c0,0-0.543,0.113-0.753,0.009c-0.219-0.105-0.295-0.533-0.295-0.533l0.6-0.398c0,0,0.077-0.111-0.111-0.214
				c-0.173-0.108-0.14-0.466-0.466-0.391c-0.32,0.075-0.816,0.512-0.816,0.512l-0.529,0.365c0,0-0.245,0.646-0.139,0.645
				c0.109-0.001,0.395,0.177,0.395,0.177s0.074,0.177,0.078,0.353c0.001,0.183-0.172,0.543-0.172,0.543s-0.104,0.181-0.463,0.114
				c-0.361-0.071-0.683-0.137-0.892-0.205c-0.22-0.067-0.438-0.168-0.653-0.1c-0.209,0.074-0.281,0.148-0.316,0.252
				c-0.035,0.113-0.78,0.554-0.78,0.554s-0.252,0.109-0.249,0.25c0,0.141-0.203,0.685-0.203,0.685s-0.247,0.251-0.713,0.367
				c-0.463,0.112-0.566,0.26-0.566,0.26l-0.243,0.541c0,0-0.355,0.251-0.603,0.578c-0.248,0.323-0.99,0.869-1.098,0.907
				s-0.391,0.366-0.492,0.649c-0.104,0.284-0.064,0.717-0.164,0.861c-0.111,0.148-0.242,0.544-0.283,0.822
				c-0.027,0.291-0.202,0.652-0.344,0.762c-0.145,0.109-0.352,0.324-0.461,0.365c-0.105,0.037-0.758,0.258-0.961,0.404
				c-0.213,0.146-0.317,0.501-0.314,0.612c0.001,0.106,0.327,0.356,0.432,0.356c0.101,0,0.431,0.098,0.431,0.098
				s0.042,0.569,0.044,0.682c0.002,0.104-0.201,0.643,0.009,0.64c0.217-0.003,0.541,0.068,0.541,0.068l0.573,0.137l0.504,0.313
				l0.293,0.21c0,0-0.068,0.326-0.142,0.432c-0.068,0.112-0.21,0.359-0.315,0.33c-0.107-0.033-0.073-0.034-0.18-0.287
				c-0.115-0.248-0.078-0.359-0.332-0.426c-0.249-0.063-0.502,0.188-0.61,0.114c-0.104-0.069-0.282-0.066-0.466-0.241
				c-0.18-0.175-0.221,0.145-0.18-0.175c0.031-0.323,0.171-0.474,0.099-0.613c-0.073-0.144-0.292-0.463-0.433-0.46
				c-0.146,0.002,0.074,0.285-0.146,0.002s-0.361-0.39-0.471-0.349c-0.107,0.033-0.246,0.071-0.248-0.104
				c-0.002-0.18,0.097-0.544,0.094-0.72c-0.001-0.179,0.1-0.464,0.099-0.609c-0.004-0.142,0.136-1.005,0.136-1.005
				s-0.928,1.888-1.244,3.321c0,0,0.369-0.053,0.374,0.183c0.004,0.239,0.108,0.481,0.063,0.718
				c-0.051,0.239-0.051,0.195-0.041,0.958c0.01,0.754,0.213,0.949,0.117,1.189c-0.099,0.242-0.232,0.574-0.271,0.865
				c-0.051,0.284,0.193,0.994,0.298,1.136c0.103,0.146,0.102,0.191,0.241,0.333c0.145,0.145-0.227,0.721,0.145,0.145
				c0.373-0.581,0.512-0.822,0.512-0.822l0.237-0.287c0,0-0.003-0.379,0.472-0.296c0.48,0.092,0.527-0.007,0.67,0.183
				c0.151,0.189-0.182,0.672,0.059,0.715c0.242,0.044,0.951-0.296,1.146-0.246c0.184,0.042,0.427,0.081,0.524,0.418
				c0.103,0.33,0.253,0.808,0.442,0.9c0.195,0.095,0.153,0.52,0.248,0.814c0.1,0.279,0.773,0.462,0.914,0.461
				c0.145-0.003,0.812,0.084,1.008,0.174c0.191,0.098,0.006,0.436,0.383,0.523c0.387,0.094,0.495,0.854,0.495,0.854
				s0.146,0.665,0.058,0.856c-0.098,0.194-0.041,0.525,0.196,0.573c0.24,0.043,0.86,0.127,0.86,0.127s-0.332,0.483,0.198,0.668
				c0.527,0.186,1.052,0.366,1.198,0.461s-0.325,0.531,0.291,0.473c0.625-0.054,1.197-0.152,1.482,0.075
				c0.294,0.232,0.055,0.575,0.822,0.995c0.771,0.416,1.008,0.555,1.207,0.654c0.188,0.088,0.571,0.036,0.479,0.613
				c-0.083,0.57-0.171,0.957-0.454,1.195c-0.288,0.244-0.659,1.014-0.846,1.251c-0.19,0.241-0.374,0.677-0.181,1.055
				c0.199,0.38,0.439,0.804,0.443,1.04c0.003,0.238,0.109,0.957-0.031,1.246c-0.14,0.289-0.42,0.816-0.42,0.816
				s0.53,0.422,0.156,0.808c-0.377,0.389-0.941,0.824-1.227,0.922c-0.291,0.099-0.85,0.631-0.85,0.631s0.055,1.19,0.018,1.429
				c-0.041,0.244-1.123,2.163-0.735,2.595c0.392,0.422,0.444,0.896,0.349,1.187c-0.09,0.281-0.235,0.239-0.327,0.478
				c-0.093,0.245-0.81,0.058-0.373,0.724c0.439,0.658,0.683,0.8,0.88,1.178c0.193,0.379,0.152,0.525,0.436,0.904
				c0.291,0.375,0.437,0.756,0.777,1.039c0.34,0.278,0.724,0.466,0.729,0.803c0.006,0.328,0.729,1.086-0.136,0.522
				c-0.866-0.562-0.099-0.041-1.204-0.933c-1.114-0.896-1.385-0.51-1.878-1.077c-0.485-0.566,0.261,1.429-0.679-0.943
				c-0.936-2.379-1.174-2.087-1.42-2.608c-0.242-0.526-0.049,0.049-0.728-1.137c-0.686-1.185-0.097-0.424-0.686-1.185
				c-0.581-0.757-0.618,0.297-0.921-1.085c-0.305-1.379-0.338-0.473-0.742-2.039c-0.4-1.573,0.266-1.629-0.6-2.381
				c-0.868-0.75-0.816-0.372-1.113-0.889c-0.291-0.525,0.098-0.05-0.683-1.38c-0.784-1.325-1.833-1.835-1.825-4.132
				c0.023-2.285,0.018-2.666,0.018-2.666s-1.154-0.895-0.791-2.233c0.361-1.343,0.519-0.916,0.361-1.343
				c-0.146-0.424-0.289-0.328-0.675-0.852c-0.394-0.518-0.441-0.469-0.532-0.801c-0.104-0.331-0.254-1.047-0.254-1.047l-0.288,0.241
				c0,0-2.661,30.192,27.451,34.24c0,0-6.96-1.409-7.552-2.764c0,0-0.161-1.282,0.127-1.287c0.283-0.004,0.723,0.202,1.145-0.163
				c0.426-0.359,0.922-0.795,0.922-0.795l0.072,0.568c0,0-0.422,0.079,0.934-0.152c1.352-0.234,1.354-0.092,1.855-0.309
				c0.5-0.225,1.062-1.303,1.352-0.662c0.291,0.641-0.349,0.36,0.291,0.641c0.65,0.275,1.865-0.169,1.865-0.169
				s2.074,0.119,2.29-0.103c0.207-0.219,0.202-0.576,0.564-0.512c0.36,0.074,0.577,0.639,0.577,0.639l-1.133,0.66l-1.063,0.805
				c0,0-0.505,0.145-0.067,0.357c0.436,0.206,0.646,0.134,1.15,0.197c0.502,0.064,1.724,0.982,2.005,0.405
				c0.276-0.578,0.345-0.649,0.562-1.007c0.208-0.363,0.13-0.793,0.641-0.798c0.49-0.009,0.994,0.13,0.994,0.13l-0.414,0.936
				c0,0,0.854-0.083,1.215-0.086c0.356-0.007,0.436,0.563,0.933,0.059c0.491-0.507,0.568-0.508,1.063-0.589
				c0.502-0.075,1.218-0.297,1.429-0.232c0.216,0.072,0.646,0.135,0.861,0.133c0.217-0.002,1.3,0.771,1.511,0.626
				c0.212-0.147,1.502-0.092,1.502-0.092s-3.469,3.268-10.899,3.503c0,0,16.652,0.554,25.795-15.79
				c9.146-16.346,2.383-37.061-19.082-44.037c0,0,16.061,5.708,20.477,20.968l-0.131,0.293c-0.442-0.426-0.439-0.214-0.803-0.921
				c-0.368-0.714-0.081-0.573-0.371-1.073c-0.293-0.497-0.218-0.14-0.578-0.633c-0.367-0.502-0.441-0.424-0.728-0.707
				c-0.286-0.28-0.589-1.208-0.806-1.495c-0.222-0.282-0.865-0.349-1.152-0.414c-0.289-0.066-0.15-0.423-0.289-0.066
				c-0.132,0.357,0.439,0.924,0.439,0.924l0.017,1.146c0,0,0.445,1.067,0.449,1.356c0.004,0.284-0.345,1.076-0.345,1.076
				s-0.133,0.863-0.418,1.009c-0.282,0.143-1.923,0.45-1.923,0.45s-0.511-0.561-0.805-1.058c-0.292-0.499-1.223-0.635-1.369-0.843
				c-0.147-0.213,0.206-0.651-0.235-1.215c-0.43-0.572-0.004-0.431-0.58-0.922c-0.58-0.492-0.58-0.492-0.58-0.492
				s-1.293-0.417-0.852,0.297c0.436,0.706-0.05,1.501,0.305,1.567c0.359,0.067,0.568-0.223,0.866,0.419
				c0.293,0.641,0.367,0.927,0.585,1.139c0.219,0.213,0.299,1.139,0.586,1.212c0.291,0.064,1.074-0.013,1.008,0.343
				c-0.064,0.357-0.49,0.861,0.013,0.999s0.577,0.349,0.864,0.276c0.281-0.075,0.145,0.066,0.64-0.151
				c0.499-0.221,1.073-0.229,1.073-0.229s0.651,0.489,0.654,0.705c0.003,0.218-0.199,1.436-0.199,1.436l-0.627,1.226
				c0,0,0.101,2.146-0.261,2.15c-0.354,0.005-0.773,0.94-0.984,1.086c-0.212,0.146-0.272,1.58-0.272,1.58l-0.633,0.796
				c0,0-0.056,1.068,0.018,1.36c0.08,0.279,0.238,1.424,0.103,2c-0.14,0.576-0.914,1.156-0.914,1.156s1.085,0.991,0.511,1.14
				c-0.57,0.149-1.129,1.013-1.27,1.231c-0.142,0.22-0.063,0.65-0.42,0.725c-0.359,0.071-1,0.156-1,0.369
				c0.005,0.217,0.017,1.074,0.017,1.074l-1.122,1.661l-1.353,1.164c0,0,0.158,0.787-0.274,0.859
				c-0.424,0.077-1.848,0.672-2.064,0.889c-0.205,0.218-1.277,0.725-1.633,0.73c-0.357,0.005,0.228,1.003-0.357,0.005
				c-0.582-0.986-0.148-0.357-0.662-1.492c-0.517-1.138-0.506-0.275-0.517-1.138c-0.013-0.856,0.067-0.069-0.013-0.856
				c-0.08-0.788,0.214-0.215-0.228-1.141c-0.438-0.93-0.368-0.643-0.944-1.209c-0.584-0.56-1.003,0.013-0.655-0.923
				c0.347-0.933,0.14-0.001,0.347-0.933c0.199-0.936-0.087-1.072,0.479-1.511c0.567-0.441,1.067-0.514,0.983-1.087
				c-0.077-0.571-0.08-0.783-0.23-1.142c-0.145-0.358-0.724-0.92-0.797-1.138c-0.081-0.206-0.078-0.067-0.509-0.706
				c-0.444-0.642-0.729-0.995-0.729-0.995s-0.166-1.498-0.172-2.066c-0.01-0.576-0.212,0.355-0.01-0.576
				c0.204-0.93,0.268-1.504,0.268-1.504s-1.08-0.709-1.512-0.627c-0.428,0.077-0.342,0.723-0.996,0.229
				c-0.65-0.491-0.513-0.854-0.729-0.994c-0.221-0.141-0.65-0.207-1,0.084c-0.355,0.291-1.143,0.301-1.79,0.597
				c-0.638,0.298-0.849,0.226-1.71,0.236c-0.857,0.011-1.854,0.31-2.506-0.038c-0.645-0.349-0.713,0.155-1.007-0.561
				c-0.297-0.713-0.009-0.643-0.659-0.995c-0.65-0.351-0.787-0.062-0.865-0.704c-0.081-0.639,0.278-0.503-0.227-1.072
				c-0.514-0.564,0.287,0.285-0.514-0.564c-0.795-0.85-1.075-0.129-0.795-0.85c0.275-0.716,0.496-0.29,0.482-1.151
				c-0.01-0.856,1.294,0.345,0.482-1.362c-0.803-1.712-0.945-1.349-0.247-2.647c0.7-1.301,1.625-1.741,1.765-2.026
				c0.139-0.285,0.418-1.006,0.7-1.227c0.284-0.219,0.067-0.431,0.71-0.365c0.646,0.063,1.357-0.232,1.783-0.67
				c0.422-0.434,0.988-1.085,1.273-1.165c0.284-0.076,0.146,0.074,0.785-0.084c0.643-0.145,0.783-0.219,1.22-0.225
				c0.423-0.005-0.437,0.149,0.78-0.082c1.214-0.227,0.927-0.223,1.214-0.227c0.284-0.004,0.141,0.066,0.646,0.13
				c0.499,0.065,0.415-1.004,0.499,0.065c0.086,1.074-0.404,1.581,0.454,1.646c0.858,0.057,0.003,0.069,0.858,0.057
				c0.856-0.009,0.645,0.138,1.076,0.344c0.436,0.21,0.65,0.492,1.299,0.483c0.642-0.009-0.273,0.934,0.642-0.009
				c0.916-0.938-0.731-1.063,0.916-0.938c1.65,0.123,1.868,0.477,2.155,0.329c0.283-0.146,0.355,0.14,1.073-0.228
				c0.704-0.368,0.774-0.369,1.063-0.232c0.296,0.141,0.304,0.782,0.581,0.139c0.279-0.65,0.849-0.442-0.013-0.859
				c-0.868-0.418-1.143,0.084-1.294-0.489c-0.15-0.564,0.705-0.436-0.15-0.564c-0.861-0.135-0.722-0.136-1.363-0.339
				c-0.647-0.213-1.281,0.657-1.506,0.02c-0.223-0.644-1.423,0.444-0.223-0.644s0.695-1.514,1.485-1.308
				c0.788,0.206,0.587,0.924,1.08,0.486c0.497-0.438,1.423-0.735,0.485-1.366c-0.941-0.632-0.287-0.354-1.232-0.766
				c-0.934-0.426-1.758,1.663-2.199,1.38c-0.431-0.277-0.646-0.49-0.933-0.344c-0.284,0.144-0.274,0.934-0.337,1.508
				c-0.068,0.575,0.509,0.707-0.427,0.295c-0.934-0.422,0.999-0.229-1.091-0.99c-2.085-0.762-2.797-0.535-3.078-0.252
				c-0.28,0.295-0.711,0.227-0.926,0.444c-0.209,0.22,0.656,0.706-0.209,0.22c-0.869-0.49-1.72,0.305-1.72,0.305
				s-0.281-0.137-0.637,0.156c-0.356,0.287-1.071,0.516-1.5,0.376c-0.436-0.136-1.355,0.161-0.581-0.849
				c0.775-1.014,0.205-0.435,1.418-0.955c1.21-0.513,2.998-0.607,1.42-0.945c-1.578-0.336,0.854-0.367-1.236-1.346
				c-2.088-0.977-2.141,0.391-2.088-0.977c0.053-1.359-0.162-1.428-0.589-1.35c-0.427,0.076-1.713,0.383-2.214,0.46
				c-0.496,0.077,0.077,0.496-0.854-0.06c-0.945-0.565-1.286,0.297-0.945-0.565c0.347-0.862,0.419-1.008,0.987-1.513
				c0.565-0.51,0.4-2.367,1.84-1.672c1.438,0.696,0.863,0.491,2.012,0.545c1.141,0.061,1.643-0.167,1.641-0.379
				c-0.003-0.215-1.303-0.839-1.303-0.839s-0.424,0.15-0.283-0.067c0.137-0.221,0.422-0.654,0.422-0.654l-0.436-0.352
				C61.707,110.217,57.702,110.268,56.701,110.496z"/>
		</g>
	</g>
	<g>
		<g>
			<path fill="#4A4A4C" d="M81.519,53.729l-14.512,0.188L66.588,21.3l13.955-0.18l0.076,5.982l-8.504,0.11l0.093,7.256l7.914-0.102
				l0.077,5.959l-7.914,0.103l0.096,7.46l9.062-0.117L81.519,53.729z"/>
			<path fill="#4A4A4C" d="M112.314,53.332l-5.315,0.068l-0.171-13.283c-0.043-3.381-0.988-5.061-2.833-5.037
				c-0.878,0.012-1.585,0.529-2.123,1.552c-0.539,1.023-0.798,2.293-0.778,3.81l0.167,13.033l-5.332,0.069l-0.172-13.419
				c-0.043-3.291-0.97-4.924-2.78-4.901c-0.911,0.012-1.633,0.507-2.167,1.484c-0.532,0.978-0.788,2.3-0.767,3.968l0.166,12.942
				l-5.332,0.068l-0.3-23.291l5.332-0.069l0.047,3.639l0.067-0.001c0.535-1.25,1.297-2.272,2.282-3.066
				c0.984-0.794,2.067-1.198,3.249-1.213c2.441-0.032,4.131,1.395,5.068,4.279c1.278-2.914,3.194-4.387,5.748-4.419
				c3.758-0.048,5.677,3.051,5.757,9.298L112.314,53.332z"/>
			<path fill="#4A4A4C" d="M121.898,50.5l-0.068,0l0.173,13.42l-5.332,0.069l-0.438-34.004l5.332-0.069l0.046,3.502l0.067,0
				c1.28-2.731,3.114-4.112,5.499-4.143c2.238-0.029,3.98,0.983,5.229,3.038c1.247,2.054,1.894,4.863,1.939,8.427
				c0.05,3.882-0.622,7.007-2.014,9.375c-1.394,2.37-3.271,3.568-5.633,3.599C124.617,53.741,123.018,52.67,121.898,50.5z
				 M121.623,40.95l0.023,1.864c0.021,1.608,0.353,2.915,0.996,3.923s1.477,1.505,2.5,1.492c1.215-0.016,2.148-0.661,2.802-1.936
				c0.653-1.274,0.966-3.072,0.936-5.392c-0.053-4.094-1.261-6.126-3.624-6.096c-1.09,0.014-1.975,0.583-2.651,1.707
				C121.926,37.635,121.6,39.115,121.623,40.95z"/>
			<path fill="#4A4A4C" d="M143.296,52.932L137.964,53l-0.443-34.482l5.332-0.069L143.296,52.932z"/>
			<path fill="#4A4A4C" d="M156.026,53.336c-2.88,0.037-5.158-1.021-6.834-3.177c-1.675-2.154-2.537-5.097-2.585-8.827
				c-0.05-3.852,0.766-6.876,2.447-9.075c1.683-2.197,3.98-3.315,6.895-3.354c2.867-0.037,5.132,1.022,6.791,3.177
				c1.66,2.155,2.512,5.022,2.558,8.601c0.049,3.867-0.751,6.933-2.404,9.199S158.951,53.298,156.026,53.336z M155.918,34.41
				c-1.26,0.016-2.23,0.613-2.914,1.79c-0.682,1.176-1.01,2.833-0.982,4.972c0.058,4.473,1.426,6.693,4.104,6.658
				c2.554-0.033,3.8-2.347,3.74-6.941C159.81,36.536,158.494,34.376,155.918,34.41z"/>
			<path fill="#4A4A4C" d="M185.064,29.097l-6.696,25.247c-1.609,6.072-4.113,9.13-7.511,9.174c-1.294,0.017-2.359-0.167-3.197-0.55
				l-0.073-5.732c0.716,0.552,1.49,0.822,2.323,0.812c1.372-0.018,2.317-0.902,2.835-2.652l0.873-2.9L166.3,29.339l5.907-0.076
				l3.404,14.129c0.214,0.877,0.385,1.914,0.512,3.11l0.068-0.001c0.09-0.88,0.262-1.906,0.518-3.078l3.074-14.258L185.064,29.097z"
				/>
			<path fill="#4A4A4C" d="M214.944,52.006l-5.315,0.069l-0.171-13.283c-0.044-3.381-0.988-5.061-2.833-5.037
				c-0.878,0.011-1.586,0.529-2.123,1.552c-0.539,1.023-0.798,2.293-0.778,3.809l0.168,13.033l-5.333,0.069l-0.172-13.42
				c-0.043-3.291-0.97-4.924-2.78-4.901c-0.911,0.012-1.633,0.507-2.167,1.484c-0.533,0.978-0.789,2.3-0.768,3.968l0.167,12.942
				l-5.332,0.069l-0.3-23.292L192.539,29l0.047,3.639l0.067-0.001c0.535-1.25,1.296-2.272,2.282-3.066
				c0.984-0.793,2.067-1.198,3.249-1.213c2.441-0.032,4.131,1.395,5.067,4.279c1.279-2.913,3.195-4.386,5.749-4.419
				c3.758-0.049,5.677,3.051,5.757,9.298L214.944,52.006z"/>
			<path fill="#4A4A4C" d="M234.564,42.153l-11.273,0.146c0.225,3.379,1.827,5.05,4.809,5.011c1.899-0.024,3.563-0.652,4.987-1.884
				l0.067,5.186c-1.583,1.174-3.651,1.776-6.204,1.809c-2.791,0.036-4.97-0.979-6.537-3.043c-1.568-2.064-2.376-4.962-2.424-8.693
				c-0.05-3.867,0.743-6.94,2.379-9.221c1.636-2.281,3.669-3.438,6.099-3.469c2.52-0.032,4.481,0.951,5.885,2.95
				c1.405,1.999,2.129,4.727,2.174,8.185L234.564,42.153z M229.563,37.805c-0.043-3.336-1.064-4.992-3.067-4.966
				c-0.854,0.011-1.589,0.499-2.2,1.462c-0.612,0.963-0.977,2.159-1.094,3.586L229.563,37.805z"/>
			<path fill="#4A4A4C" d="M254.549,51.495l-5.316,0.069l-0.166-12.942c-0.047-3.609-1.026-5.401-2.938-5.377
				c-0.923,0.012-1.675,0.5-2.259,1.463c-0.585,0.963-0.867,2.18-0.848,3.651l0.171,13.283l-5.333,0.069l-0.3-23.292l5.333-0.069
				l0.047,3.685l0.068-0.001c1.234-2.851,3.066-4.293,5.496-4.324c3.825-0.05,5.779,3.125,5.861,9.524L254.549,51.495z"/>
			<path fill="#4A4A4C" d="M269.209,51.033c-0.779,0.571-1.963,0.867-3.549,0.887c-3.758,0.048-5.671-2.558-5.738-7.82
				l-0.137-10.667l-2.801,0.037l-0.068-5.3l2.801-0.037l-0.064-5.026l5.289-2.116l0.091,7.074l3.881-0.05l0.067,5.3l-3.881,0.05
				l0.121,9.417c0.031,2.426,0.762,3.63,2.191,3.611c0.563-0.007,1.138-0.234,1.729-0.682L269.209,51.033z"/>
		</g>
		<g>
			
				<rect x="97.967" y="64.401" transform="matrix(0.9999 -0.0129 0.0129 0.9999 -0.8784 2.4137)" fill="#4A4A4C" width="177.499" height="9.826"/>
		</g>
		<g>
			
				<rect x="98.063" y="76.071" transform="matrix(0.9999 -0.0129 0.0129 0.9999 -0.9732 2.415)" fill="#4A4A4C" width="177.497" height="1.227"/>
		</g>
		<g>
			<path fill="#E6E7E8" d="M101.643,68.254l0.742-0.01l0.065,5.125l2.456-0.031l0.008,0.623l-3.197,0.041L101.643,68.254z"/>
			<path fill="#E6E7E8" d="M109.303,71.805c0.02,1.526-1.029,2.205-2.027,2.218c-1.116,0.015-1.988-0.793-2.005-2.097
				c-0.019-1.382,0.875-2.203,2.019-2.218C108.475,69.692,109.286,70.543,109.303,71.805z M106.029,71.891
				c0.012,0.903,0.541,1.579,1.273,1.568c0.716-0.008,1.244-0.689,1.232-1.618c-0.009-0.7-0.369-1.583-1.257-1.571
				C106.393,70.282,106.019,71.105,106.029,71.891z"/>
			<path fill="#E6E7E8" d="M113.982,71.745c0.02,1.526-1.029,2.205-2.027,2.217c-1.117,0.015-1.988-0.792-2.006-2.097
				c-0.018-1.381,0.877-2.204,2.019-2.218C113.153,69.632,113.966,70.483,113.982,71.745z M110.709,71.83
				c0.011,0.903,0.54,1.579,1.272,1.569c0.717-0.009,1.245-0.69,1.233-1.619c-0.01-0.7-0.37-1.583-1.257-1.571
				C111.072,70.222,110.697,71.045,110.709,71.83z"/>
			<path fill="#E6E7E8" d="M115.667,71.587h0.017c0.101-0.146,0.243-0.327,0.361-0.474l1.192-1.44l0.903-0.011l-1.572,1.717
				l1.848,2.406l-0.912,0.012l-1.45-1.959l-0.378,0.43l0.02,1.552l-0.741,0.009l-0.077-6.054l0.74-0.009L115.667,71.587z"/>
			<path fill="#E6E7E8" d="M119.864,68.479c0.012,0.256-0.174,0.462-0.472,0.466c-0.265,0.003-0.454-0.198-0.457-0.455
				c-0.004-0.264,0.189-0.471,0.462-0.475C119.679,68.013,119.86,68.215,119.864,68.479z M119.097,73.776l-0.053-4.126l0.75-0.01
				l0.053,4.126L119.097,73.776z"/>
			<path fill="#E6E7E8" d="M121.053,70.741c-0.006-0.426-0.02-0.775-0.049-1.116l0.666-0.009l0.051,0.682h0.017
				c0.2-0.396,0.673-0.785,1.354-0.794c0.571-0.008,1.463,0.322,1.48,1.737l0.031,2.464l-0.75,0.01l-0.03-2.378
				c-0.009-0.665-0.263-1.216-0.971-1.208c-0.494,0.007-0.874,0.361-0.996,0.781c-0.033,0.094-0.049,0.222-0.047,0.351l0.032,2.48
				l-0.751,0.01L121.053,70.741z"/>
			<path fill="#E6E7E8" d="M129.324,69.518c-0.014,0.298-0.025,0.631-0.02,1.134l0.031,2.395c0.013,0.947-0.168,1.53-0.564,1.894
				c-0.396,0.38-0.974,0.507-1.494,0.514c-0.494,0.007-1.042-0.106-1.377-0.324l0.18-0.574c0.275,0.167,0.704,0.315,1.215,0.309
				c0.768-0.01,1.325-0.418,1.313-1.458l-0.007-0.46h-0.017c-0.226,0.386-0.664,0.699-1.305,0.707
				c-1.022,0.014-1.768-0.847-1.782-1.988c-0.018-1.399,0.885-2.203,1.831-2.216c0.716-0.009,1.113,0.361,1.297,0.7l0.018-0.001
				l0.025-0.622L129.324,69.518z M128.569,71.156c-0.002-0.128-0.012-0.239-0.047-0.341c-0.142-0.434-0.513-0.787-1.06-0.779
				c-0.716,0.009-1.22,0.622-1.207,1.577c0.01,0.809,0.428,1.478,1.238,1.467c0.461-0.006,0.875-0.302,1.03-0.781
				c0.041-0.128,0.056-0.273,0.055-0.4L128.569,71.156z"/>
			<path fill="#E6E7E8" d="M132.47,73.604l-0.045-3.556l-0.58,0.007l-0.007-0.571l0.58-0.007l-0.003-0.196
				c-0.009-0.58,0.113-1.111,0.458-1.447c0.278-0.276,0.652-0.393,1.002-0.397c0.265-0.003,0.495,0.054,0.641,0.112l-0.095,0.581
				c-0.111-0.05-0.265-0.091-0.479-0.088c-0.64,0.008-0.794,0.573-0.786,1.204l0.003,0.222l0.998-0.013l0.007,0.571l-0.997,0.012
				l0.045,3.556L132.47,73.604z"/>
			<path fill="#E6E7E8" d="M138.479,71.429c0.021,1.526-1.028,2.205-2.026,2.218c-1.117,0.014-1.989-0.793-2.006-2.097
				c-0.018-1.382,0.875-2.203,2.019-2.219C137.65,69.316,138.464,70.167,138.479,71.429z M135.205,71.514
				c0.013,0.903,0.541,1.579,1.274,1.569c0.717-0.009,1.245-0.689,1.233-1.618c-0.01-0.699-0.37-1.582-1.258-1.57
				C135.569,69.905,135.195,70.729,135.205,71.514z"/>
			<path fill="#E6E7E8" d="M139.415,70.675c-0.007-0.485-0.021-0.904-0.051-1.287l0.657-0.008l0.035,0.81l0.034-0.001
				c0.181-0.557,0.628-0.912,1.131-0.918c0.086,0,0.146,0.006,0.214,0.022l0.01,0.708c-0.078-0.016-0.154-0.024-0.257-0.023
				c-0.529,0.007-0.898,0.413-0.993,0.977c-0.017,0.103-0.031,0.222-0.03,0.35l0.028,2.2l-0.742,0.01L139.415,70.675z"/>
			<path fill="#E6E7E8" d="M146.331,73.425l-0.065-0.52l-0.026,0.001c-0.226,0.327-0.666,0.623-1.254,0.63
				c-0.836,0.012-1.271-0.571-1.277-1.168c-0.013-0.997,0.866-1.554,2.462-1.566l-0.002-0.085c-0.004-0.341-0.105-0.954-0.95-0.943
				c-0.384,0.004-0.783,0.129-1.07,0.32l-0.177-0.492c0.338-0.227,0.831-0.377,1.352-0.384c1.262-0.017,1.579,0.841,1.59,1.668
				l0.02,1.543c0.005,0.358,0.027,0.708,0.082,0.988L146.331,73.425z M146.193,71.32c-0.818-0.006-1.746,0.151-1.736,0.952
				c0.006,0.486,0.334,0.712,0.717,0.708c0.537-0.007,0.874-0.352,0.989-0.704c0.024-0.077,0.041-0.163,0.039-0.239L146.193,71.32z"
				/>
			<path fill="#E6E7E8" d="M148.971,74.585c0.341-0.03,0.638-0.128,0.814-0.326c0.201-0.241,0.274-0.567,0.262-1.556l-0.045-3.453
				l0.75-0.01l0.049,3.743c0.01,0.802-0.111,1.323-0.473,1.704c-0.328,0.337-0.872,0.48-1.273,0.485L148.971,74.585z M150.822,68.08
				c0.012,0.247-0.165,0.462-0.463,0.466c-0.281,0.003-0.463-0.207-0.466-0.455c-0.004-0.264,0.189-0.471,0.471-0.475
				C150.638,67.613,150.819,67.815,150.822,68.08z"/>
			<path fill="#E6E7E8" d="M155.74,71.206c0.02,1.526-1.029,2.205-2.026,2.218c-1.117,0.015-1.989-0.793-2.006-2.097
				c-0.018-1.382,0.876-2.204,2.019-2.218C154.912,69.094,155.724,69.944,155.74,71.206z M152.467,71.291
				c0.012,0.903,0.541,1.579,1.273,1.57c0.717-0.009,1.245-0.69,1.232-1.619c-0.008-0.7-0.369-1.582-1.256-1.571
				S152.456,70.507,152.467,71.291z"/>
			<path fill="#E6E7E8" d="M156.678,73.292c0.014-0.282,0.025-0.7,0.021-1.067l-0.064-4.988l0.742-0.009l0.033,2.592l0.016,0
				c0.26-0.464,0.733-0.768,1.397-0.777c1.024-0.013,1.76,0.83,1.768,2.083c0.019,1.476-0.901,2.221-1.822,2.232
				c-0.597,0.008-1.077-0.216-1.392-0.758l-0.025,0.001l-0.025,0.682L156.678,73.292z M157.434,71.627
				c0.001,0.094,0.019,0.187,0.037,0.272c0.151,0.519,0.592,0.872,1.137,0.864c0.784-0.01,1.245-0.656,1.233-1.602
				c-0.011-0.827-0.446-1.529-1.248-1.519c-0.512,0.006-0.984,0.362-1.13,0.935c-0.017,0.085-0.041,0.188-0.039,0.308
				L157.434,71.627z"/>
			<path fill="#E6E7E8" d="M162.121,71.593l-0.02-0.221c-0.058-0.46,0.089-0.965,0.509-1.482c0.378-0.457,0.587-0.793,0.582-1.176
				c-0.006-0.435-0.282-0.721-0.819-0.723c-0.307,0.004-0.646,0.111-0.857,0.275l-0.212-0.535c0.278-0.209,0.763-0.351,1.214-0.357
				c0.981-0.012,1.433,0.588,1.441,1.236c0.008,0.579-0.312,1.002-0.715,1.493c-0.369,0.448-0.501,0.825-0.47,1.26l0.011,0.221
				L162.121,71.593z M161.949,72.789c-0.005-0.315,0.206-0.541,0.504-0.544c0.299-0.004,0.506,0.215,0.51,0.531
				c0.005,0.298-0.189,0.531-0.505,0.535C162.16,73.315,161.952,73.087,161.949,72.789z"/>
			<path fill="#E6E7E8" d="M164.551,74.239c0.182-0.505,0.399-1.421,0.484-2.044l0.836-0.097c-0.188,0.728-0.55,1.679-0.784,2.083
				L164.551,74.239z"/>
		</g>
		<g>
			<path fill="#E6E7E8" d="M235.458,67.601h-0.014l-0.738,0.411l-0.117-0.439l0.928-0.513l0.493-0.006l0.056,4.278l-0.56,0.007
				L235.458,67.601z"/>
			<path fill="#E6E7E8" d="M238.834,67.557l-0.013,0.001l-0.738,0.41l-0.118-0.439l0.928-0.513l0.494-0.006l0.056,4.278l-0.56,0.007
				L238.834,67.557z"/>
			<path fill="#E6E7E8" d="M241.014,68.609c-0.003-0.244,0.16-0.417,0.39-0.42c0.23-0.003,0.384,0.166,0.395,0.41
				c0.003,0.23-0.146,0.41-0.391,0.413C241.178,69.015,241.017,68.839,241.014,68.609z M241.044,70.933
				c-0.003-0.244,0.159-0.417,0.39-0.42c0.23-0.003,0.384,0.166,0.395,0.409c0.002,0.23-0.146,0.41-0.391,0.413
				C241.207,71.338,241.047,71.163,241.044,70.933z"/>
			<path fill="#E6E7E8" d="M243.573,67.496h-0.013l-0.738,0.411l-0.118-0.439l0.928-0.513l0.494-0.006l0.056,4.278l-0.561,0.007
				L243.573,67.496z"/>
			<path fill="#E6E7E8" d="M245.741,71.208l-0.005-0.355l0.449-0.447c1.079-1.054,1.565-1.613,1.563-2.259
				c-0.005-0.434-0.222-0.833-0.859-0.825c-0.388,0.005-0.708,0.207-0.903,0.374l-0.189-0.405c0.293-0.254,0.712-0.444,1.205-0.451
				c0.922-0.012,1.318,0.616,1.326,1.229c0.01,0.789-0.555,1.436-1.445,2.315l-0.338,0.32v0.013l1.922-0.025l0.006,0.48
				L245.741,71.208z"/>
			<path fill="#E6E7E8" d="M249.13,68.504c-0.003-0.244,0.159-0.417,0.39-0.419c0.23-0.003,0.385,0.166,0.394,0.41
				c0.003,0.23-0.146,0.41-0.39,0.413C249.293,68.91,249.133,68.734,249.13,68.504z M249.16,70.827
				c-0.003-0.243,0.158-0.417,0.39-0.419c0.23-0.003,0.384,0.166,0.394,0.409c0.003,0.23-0.146,0.41-0.39,0.413
				C249.322,71.233,249.163,71.058,249.16,70.827z"/>
			<path fill="#E6E7E8" d="M250.48,71.146l-0.005-0.355l0.448-0.447c1.08-1.054,1.566-1.613,1.564-2.259
				c-0.006-0.434-0.222-0.833-0.859-0.824c-0.389,0.004-0.709,0.206-0.904,0.373l-0.189-0.405c0.293-0.254,0.712-0.444,1.205-0.451
				c0.922-0.012,1.318,0.616,1.326,1.228c0.01,0.79-0.555,1.436-1.444,2.315l-0.339,0.32v0.014l1.923-0.025l0.006,0.48
				L250.48,71.146z"/>
			<path fill="#E6E7E8" d="M256.673,68.881c0.019,1.454-0.511,2.265-1.459,2.277c-0.835,0.01-1.411-0.766-1.443-2.181
				c-0.019-1.435,0.59-2.233,1.459-2.244C256.131,66.722,256.655,67.518,256.673,68.881z M254.35,68.977
				c0.016,1.113,0.365,1.74,0.892,1.732c0.593-0.007,0.866-0.702,0.853-1.794c-0.014-1.054-0.293-1.741-0.892-1.733
				C254.695,67.188,254.335,67.812,254.35,68.977z"/>
			<path fill="#E6E7E8" d="M258.442,67.304l-0.013,0.001l-0.738,0.41l-0.118-0.439l0.929-0.513l0.494-0.006l0.055,4.278l-0.56,0.007
				L258.442,67.304z"/>
			<path fill="#E6E7E8" d="M262.401,70.992l-0.015-1.165l-1.988,0.025l-0.005-0.381l1.874-2.757l0.625-0.008l0.034,2.659
				l0.599-0.007l0.007,0.454l-0.6,0.007l0.016,1.165L262.401,70.992z M262.381,69.374l-0.019-1.429
				c-0.003-0.224,0-0.448,0.011-0.672l-0.02,0c-0.129,0.251-0.231,0.437-0.348,0.636l-1.027,1.468v0.013L262.381,69.374z"/>
		</g>
		<g>
			<rect x="229.937" y="64.992" fill="#E6E7E8" width="0.384" height="7.983"/>
		</g>
	</g>
	<g>
		
			<rect x="235.55" y="127.157" transform="matrix(0.0225 0.9997 -0.9997 0.0225 395.7385 -75.644)" fill="#4A4A4C" width="2.001" height="74.769"/>
	</g>
	<g>
		
			<rect x="235.55" y="133.491" transform="matrix(0.0225 0.9997 -0.9997 0.0225 402.0714 -69.4517)" fill="#4A4A4C" width="2.001" height="74.769"/>
	</g>
	<g>
		
			<rect x="235.55" y="139.826" transform="matrix(0.0225 0.9997 -0.9997 0.0225 408.4042 -63.2595)" fill="#4A4A4C" width="2.001" height="74.769"/>
	</g>
	<g>
		
			<rect x="235.55" y="146.16" transform="matrix(0.0225 0.9997 -0.9997 0.0225 414.7371 -57.0673)" fill="#4A4A4C" width="2.001" height="74.769"/>
	</g>
	<g>
		
			<rect x="235.55" y="152.495" transform="matrix(0.0225 0.9997 -0.9997 0.0225 421.07 -50.875)" fill="#4A4A4C" width="2.001" height="74.769"/>
	</g>
	<g>
		
			<rect x="235.55" y="158.829" transform="matrix(0.0225 0.9997 -0.9997 0.0225 427.4029 -44.6828)" fill="#4A4A4C" width="2.001" height="74.769"/>
	</g>
	<g>
		
			<rect x="199.352" y="102.394" transform="matrix(0.9999 -0.0129 0.0129 0.9999 -1.6613 3.0624)" fill="#4A4A4C" width="75.316" height="56.322"/>
	</g>
	<g>
		<g>
			<g>
				<path fill="#F1F2F2" d="M232.6,114.838c-10.674,0.137-19.212,8.901-19.074,19.575c0.137,10.671,8.898,19.213,19.569,19.075
					c10.674-0.139,19.217-8.902,19.077-19.574C252.036,123.24,243.271,114.701,232.6,114.838z M233.031,148.479
					c-7.904,0.102-14.396-6.225-14.498-14.131c-0.103-7.908,6.223-14.398,14.129-14.499c7.906-0.103,14.398,6.222,14.502,14.131
					C247.266,141.885,240.937,148.375,233.031,148.479z"/>
			</g>
			<g>
				<path fill="#F1F2F2" d="M232.729,125.037c-5.039,0.064-9.071,4.203-9.006,9.244c0.063,5.039,4.203,9.072,9.242,9.008
					c5.04-0.066,9.073-4.205,9.006-9.243C241.908,129.006,237.771,124.973,232.729,125.037z M232.896,138.01
					c-2.123,0.026-3.868-1.674-3.896-3.797c-0.027-2.128,1.675-3.871,3.799-3.898c2.123-0.025,3.87,1.672,3.896,3.799
					C236.724,136.236,235.021,137.982,232.896,138.01z"/>
			</g>
		</g>
		<g>
			<g>
				<polygon fill="#F1F2F2" points="246.918,119.58 245.371,114.188 253.272,106.083 254.818,111.475 				"/>
			</g>
			<g>
				<polygon fill="#F1F2F2" points="246.904,119.569 252.333,120.973 260.235,112.867 254.805,111.463 				"/>
			</g>
		</g>
		<g>
			
				<rect x="240.543" y="109.463" transform="matrix(0.7166 0.6975 -0.6975 0.7166 155.3123 -133.9432)" fill="#F1F2F2" width="3.849" height="29.343"/>
		</g>
	</g>
	<g>
		<path fill="#4A4A4C" d="M115.648,182.264l0.875-0.011l0.059,4.539c0.023,1.803-0.855,2.367-2.023,2.382
			c-0.322,0.005-0.715-0.061-0.938-0.149l0.122-0.716c0.183,0.068,0.444,0.125,0.736,0.121c0.786-0.01,1.244-0.368,1.227-1.697
			L115.648,182.264z"/>
		<path fill="#4A4A4C" d="M122.419,186.484c0.023,1.803-1.215,2.604-2.393,2.619c-1.319,0.017-2.348-0.936-2.368-2.477
			c-0.021-1.63,1.034-2.601,2.383-2.617C121.44,183.991,122.4,184.995,122.419,186.484z M118.555,186.585
			c0.014,1.067,0.638,1.864,1.504,1.854c0.846-0.012,1.469-0.815,1.454-1.912c-0.011-0.826-0.437-1.867-1.482-1.854
			C118.983,184.688,118.543,185.658,118.555,186.585z"/>
		<path fill="#4A4A4C" d="M123.53,188.947c0.017-0.332,0.03-0.825,0.024-1.259l-0.076-5.888l0.876-0.012l0.04,3.061l0.02-0.001
			c0.305-0.547,0.864-0.907,1.649-0.917c1.208-0.016,2.077,0.979,2.085,2.459c0.023,1.742-1.063,2.622-2.15,2.636
			c-0.705,0.009-1.271-0.255-1.643-0.896l-0.029,0.001l-0.03,0.806L123.53,188.947z M124.422,186.983
			c0.001,0.11,0.022,0.221,0.045,0.321c0.179,0.611,0.697,1.028,1.342,1.02c0.926-0.012,1.47-0.774,1.455-1.893
			c-0.013-0.977-0.527-1.804-1.473-1.791c-0.604,0.007-1.162,0.426-1.335,1.104c-0.019,0.102-0.048,0.223-0.046,0.363
			L124.422,186.983z"/>
		<path fill="#4A4A4C" d="M131.715,183.97l0.992,2.725c0.167,0.441,0.303,0.842,0.408,1.243h0.03
			c0.106-0.404,0.241-0.809,0.396-1.254l0.911-2.75l0.926-0.012l-1.85,4.896l-0.846,0.012l-1.915-4.849L131.715,183.97z"/>
		<path fill="#4A4A4C" d="M138.937,188.749l-0.077-0.614l-0.031,0.001c-0.267,0.386-0.786,0.735-1.48,0.744
			c-0.986,0.013-1.498-0.675-1.507-1.38c-0.016-1.178,1.022-1.836,2.905-1.85l-0.001-0.101c-0.005-0.403-0.126-1.126-1.122-1.113
			c-0.453,0.006-0.925,0.153-1.264,0.379l-0.209-0.581c0.399-0.268,0.98-0.445,1.595-0.453c1.49-0.02,1.866,0.992,1.878,1.969
			l0.023,1.821c0.006,0.424,0.031,0.836,0.096,1.167L138.937,188.749z M138.774,186.264c-0.967-0.008-2.062,0.178-2.05,1.124
			c0.008,0.574,0.394,0.841,0.847,0.835c0.634-0.008,1.031-0.416,1.167-0.831c0.029-0.091,0.048-0.191,0.047-0.282L138.774,186.264z
			"/>
		<path fill="#4A4A4C" d="M144.563,188.496c-0.229,0.123-0.74,0.29-1.395,0.299c-1.471,0.019-2.439-0.965-2.459-2.455
			c-0.02-1.5,0.994-2.6,2.585-2.621c0.522-0.006,0.987,0.119,1.23,0.236l-0.192,0.688c-0.212-0.119-0.546-0.225-1.029-0.219
			c-1.117,0.015-1.711,0.848-1.698,1.864c0.016,1.128,0.748,1.813,1.715,1.801c0.504-0.007,0.834-0.142,1.084-0.257L144.563,188.496
			z"/>
		<path fill="#4A4A4C" d="M148.303,188.628l-0.079-0.613h-0.03c-0.266,0.387-0.785,0.735-1.479,0.744
			c-0.986,0.013-1.499-0.675-1.508-1.38c-0.016-1.178,1.023-1.836,2.905-1.85l-0.001-0.101c-0.005-0.403-0.125-1.126-1.122-1.112
			c-0.452,0.006-0.924,0.152-1.263,0.378l-0.209-0.581c0.399-0.268,0.98-0.445,1.595-0.453c1.489-0.02,1.865,0.992,1.877,1.969
			l0.024,1.821c0.005,0.424,0.03,0.836,0.095,1.168L148.303,188.628z M148.141,186.144c-0.967-0.008-2.063,0.178-2.05,1.124
			c0.007,0.574,0.394,0.84,0.846,0.834c0.635-0.008,1.032-0.416,1.168-0.83c0.028-0.092,0.048-0.191,0.046-0.282L148.141,186.144z"
			/>
		<path fill="#4A4A4C" d="M150.414,185.047c-0.007-0.502-0.022-0.915-0.059-1.318l0.785-0.01l0.062,0.805h0.021
			c0.235-0.466,0.793-0.927,1.598-0.937c0.675-0.01,1.728,0.38,1.749,2.051l0.037,2.909l-0.886,0.012l-0.036-2.81
			c-0.01-0.785-0.311-1.435-1.146-1.425c-0.583,0.009-1.03,0.426-1.175,0.922c-0.04,0.111-0.058,0.262-0.056,0.413l0.037,2.93
			l-0.886,0.012L150.414,185.047z"/>
		<path fill="#4A4A4C" d="M159.52,188.303c-0.23,0.123-0.742,0.291-1.396,0.299c-1.47,0.02-2.438-0.965-2.457-2.455
			c-0.02-1.5,0.992-2.6,2.583-2.62c0.524-0.007,0.988,0.118,1.231,0.236l-0.192,0.687c-0.213-0.117-0.546-0.225-1.03-0.219
			c-1.117,0.016-1.71,0.848-1.697,1.865c0.015,1.127,0.749,1.813,1.715,1.8c0.504-0.007,0.834-0.142,1.084-0.256L159.52,188.303z"/>
		<path fill="#4A4A4C" d="M161,183.592l1.104,2.864c0.114,0.321,0.241,0.702,0.325,0.993h0.02c0.087-0.293,0.184-0.668,0.299-1.021
			l0.93-2.871l0.937-0.012l-1.284,3.49c-0.612,1.679-1.034,2.54-1.631,3.072c-0.429,0.388-0.859,0.544-1.08,0.587l-0.231-0.742
			c0.22-0.073,0.511-0.218,0.77-0.442c0.239-0.194,0.537-0.541,0.732-0.996c0.039-0.092,0.068-0.162,0.067-0.213
			s-0.021-0.12-0.063-0.23l-1.86-4.467L161,183.592z"/>
	</g>
	<g>
		<path fill="#4A4A4C" d="M201.87,90.263l-2.063,0.026l-0.01-0.745l5.023-0.064l0.009,0.745l-2.073,0.027l0.078,6.04l-0.886,0.011
			L201.87,90.263z"/>
		<path fill="#4A4A4C" d="M205.139,92.908c-0.008-0.573-0.024-1.066-0.061-1.519l0.775-0.01l0.042,0.955l0.04-0.001
			c0.214-0.656,0.742-1.076,1.336-1.083c0.101-0.001,0.171,0.008,0.252,0.027l0.011,0.835c-0.091-0.019-0.183-0.027-0.302-0.026
			c-0.625,0.008-1.062,0.486-1.174,1.152c-0.019,0.121-0.037,0.262-0.035,0.413l0.034,2.598l-0.876,0.011L205.139,92.908z"/>
		<path fill="#4A4A4C" d="M211.122,96.185l-0.078-0.614l-0.03,0c-0.268,0.386-0.786,0.735-1.48,0.744
			c-0.987,0.013-1.499-0.675-1.509-1.38c-0.015-1.178,1.024-1.835,2.907-1.85l-0.002-0.101c-0.005-0.403-0.125-1.125-1.122-1.113
			c-0.453,0.006-0.925,0.153-1.264,0.379l-0.208-0.581c0.398-0.267,0.98-0.446,1.595-0.453c1.489-0.02,1.864,0.992,1.878,1.969
			l0.022,1.821c0.006,0.424,0.031,0.835,0.097,1.167L211.122,96.185z M210.959,93.699c-0.967-0.007-2.062,0.178-2.05,1.124
			c0.008,0.574,0.394,0.841,0.847,0.835c0.635-0.008,1.031-0.416,1.168-0.831c0.029-0.09,0.048-0.191,0.046-0.282L210.959,93.699z"
			/>
		<path fill="#4A4A4C" d="M214.184,89.903c0.015,0.302-0.204,0.546-0.556,0.55c-0.313,0.004-0.537-0.235-0.541-0.537
			c-0.005-0.312,0.225-0.556,0.547-0.561C213.966,89.352,214.18,89.591,214.184,89.903z M213.278,96.156l-0.063-4.872l0.886-0.011
			l0.063,4.873L213.278,96.156z"/>
		<path fill="#4A4A4C" d="M215.589,92.572c-0.007-0.502-0.022-0.915-0.058-1.318l0.785-0.01l0.061,0.805l0.021,0
			c0.235-0.466,0.793-0.926,1.599-0.937c0.675-0.009,1.727,0.38,1.748,2.051l0.037,2.91l-0.885,0.011l-0.037-2.809
			c-0.01-0.786-0.31-1.436-1.146-1.425c-0.584,0.008-1.031,0.426-1.177,0.921c-0.038,0.111-0.057,0.262-0.055,0.414l0.038,2.929
			l-0.886,0.011L215.589,92.572z"/>
		<path fill="#4A4A4C" d="M222.13,89.801c0.015,0.302-0.204,0.546-0.557,0.551c-0.313,0.004-0.537-0.235-0.541-0.537
			c-0.004-0.312,0.225-0.556,0.547-0.561C221.912,89.25,222.126,89.489,222.13,89.801z M221.224,96.054l-0.063-4.872l0.886-0.011
			l0.063,4.872L221.224,96.054z"/>
		<path fill="#4A4A4C" d="M223.534,92.47c-0.007-0.502-0.021-0.915-0.058-1.318l0.786-0.01l0.061,0.805l0.02,0
			c0.235-0.466,0.794-0.926,1.599-0.937c0.676-0.009,1.727,0.38,1.748,2.051l0.038,2.91l-0.886,0.011l-0.037-2.809
			c-0.01-0.786-0.309-1.435-1.145-1.425c-0.584,0.008-1.031,0.426-1.177,0.921c-0.038,0.111-0.058,0.262-0.056,0.414l0.039,2.929
			l-0.887,0.011L223.534,92.47z"/>
		<path fill="#4A4A4C" d="M233.304,91.025c-0.015,0.353-0.03,0.746-0.022,1.339l0.037,2.829c0.014,1.118-0.199,1.806-0.667,2.234
			c-0.467,0.449-1.149,0.598-1.764,0.606c-0.583,0.008-1.229-0.125-1.626-0.381l0.213-0.678c0.325,0.197,0.831,0.371,1.435,0.364
			c0.905-0.012,1.564-0.493,1.548-1.722l-0.006-0.543l-0.021,0c-0.267,0.456-0.785,0.825-1.54,0.835
			c-1.208,0.015-2.087-1-2.104-2.35c-0.021-1.65,1.043-2.601,2.16-2.615c0.846-0.01,1.314,0.427,1.531,0.827l0.02,0l0.031-0.736
			L233.304,91.025z M232.413,92.959c-0.002-0.151-0.014-0.281-0.056-0.402c-0.168-0.511-0.605-0.927-1.25-0.919
			c-0.846,0.012-1.44,0.733-1.426,1.86c0.012,0.956,0.506,1.745,1.462,1.732c0.544-0.006,1.032-0.355,1.217-0.921
			c0.048-0.152,0.066-0.323,0.064-0.475L232.413,92.959z"/>
		<path fill="#4A4A4C" d="M240.404,95.625c-0.23,0.124-0.741,0.292-1.396,0.299c-1.47,0.02-2.438-0.965-2.458-2.455
			c-0.02-1.5,0.993-2.6,2.583-2.62c0.524-0.007,0.989,0.118,1.232,0.236l-0.192,0.688c-0.213-0.119-0.547-0.225-1.03-0.218
			c-1.117,0.014-1.71,0.847-1.697,1.863c0.015,1.128,0.749,1.813,1.714,1.801c0.504-0.007,0.834-0.142,1.085-0.256L240.404,95.625z"
			/>
		<path fill="#4A4A4C" d="M245.763,93.261c0.023,1.802-1.216,2.603-2.394,2.618c-1.318,0.017-2.348-0.937-2.367-2.477
			c-0.021-1.63,1.034-2.601,2.383-2.618C244.783,90.767,245.743,91.771,245.763,93.261z M241.897,93.361
			c0.014,1.066,0.638,1.864,1.504,1.853c0.846-0.011,1.47-0.814,1.455-1.911c-0.011-0.826-0.437-1.867-1.483-1.854
			S241.886,92.435,241.897,93.361z"/>
		<path fill="#4A4A4C" d="M250.975,94.341c0.006,0.504,0.021,0.946,0.057,1.329l-0.785,0.01l-0.061-0.794l-0.021,0
			c-0.226,0.396-0.733,0.915-1.599,0.926c-0.766,0.01-1.687-0.4-1.708-2.112l-0.038-2.849l0.887-0.012l0.035,2.698
			c0.012,0.927,0.301,1.547,1.106,1.537c0.594-0.008,1.002-0.426,1.157-0.82c0.049-0.131,0.077-0.293,0.075-0.454l-0.039-2.99
			l0.886-0.011L250.975,94.341z"/>
		<path fill="#4A4A4C" d="M252.42,92.299c-0.008-0.574-0.024-1.066-0.061-1.52l0.775-0.01l0.043,0.956l0.04,0
			c0.213-0.656,0.741-1.077,1.335-1.084c0.101-0.001,0.172,0.007,0.252,0.027l0.012,0.835c-0.092-0.019-0.183-0.028-0.303-0.026
			c-0.625,0.008-1.061,0.485-1.174,1.152c-0.018,0.12-0.036,0.262-0.034,0.413l0.033,2.597l-0.876,0.011L252.42,92.299z"/>
		<path fill="#4A4A4C" d="M255.623,94.704c0.265,0.168,0.729,0.343,1.173,0.337c0.645-0.008,0.942-0.334,0.937-0.737
			c-0.005-0.422-0.26-0.651-0.917-0.884c-0.88-0.301-1.3-0.779-1.307-1.363c-0.01-0.785,0.616-1.438,1.663-1.451
			c0.492-0.007,0.928,0.129,1.201,0.287l-0.213,0.647c-0.192-0.119-0.547-0.275-1-0.27c-0.523,0.007-0.812,0.312-0.807,0.675
			c0.005,0.402,0.299,0.58,0.937,0.813c0.849,0.312,1.288,0.728,1.297,1.453c0.012,0.856-0.646,1.468-1.803,1.483
			c-0.533,0.007-1.028-0.117-1.373-0.315L255.623,94.704z"/>
		<path fill="#4A4A4C" d="M260.208,93.276c0.035,1.197,0.808,1.681,1.692,1.669c0.635-0.008,1.016-0.124,1.346-0.269l0.159,0.631
			c-0.31,0.146-0.842,0.313-1.616,0.324c-1.5,0.019-2.409-0.956-2.428-2.425c-0.02-1.47,0.832-2.639,2.251-2.656
			c1.591-0.021,2.031,1.372,2.043,2.269c0.003,0.181-0.016,0.322-0.024,0.414L260.208,93.276z M262.797,92.608
			c0.003-0.564-0.25-1.437-1.246-1.424c-0.896,0.012-1.278,0.841-1.341,1.457L262.797,92.608z"/>
		<path fill="#4A4A4C" d="M264.656,94.588c0.265,0.167,0.73,0.343,1.173,0.337c0.644-0.008,0.942-0.334,0.937-0.737
			c-0.005-0.422-0.26-0.651-0.918-0.884c-0.879-0.301-1.298-0.778-1.306-1.362c-0.01-0.785,0.616-1.438,1.663-1.451
			c0.493-0.007,0.928,0.129,1.202,0.287l-0.214,0.647c-0.192-0.119-0.547-0.275-1-0.27c-0.523,0.007-0.811,0.313-0.807,0.675
			c0.005,0.403,0.299,0.581,0.937,0.813c0.85,0.312,1.288,0.729,1.298,1.453c0.011,0.856-0.646,1.469-1.804,1.484
			c-0.533,0.006-1.028-0.117-1.373-0.315L264.656,94.588z"/>
	</g>
	<g>
		
			<rect x="63.099" y="145.623" transform="matrix(0.022 0.9998 -0.9998 0.022 245.6544 114.9032)" fill="#4A4A4C" width="2" height="74.769"/>
	</g>
	<g>
		
			<rect x="62.467" y="151.303" transform="matrix(0.022 0.9998 -0.9998 0.022 250.7148 121.0908)" fill="#4A4A4C" width="2" height="74.769"/>
	</g>
	<g>
		
			<rect x="63.099" y="156.973" transform="matrix(0.022 0.9998 -0.9998 0.022 257.0013 126.0045)" fill="#4A4A4C" width="2" height="74.769"/>
	</g>
	<g>
		
			<rect x="63.73" y="162.643" transform="matrix(0.022 0.9998 -0.9998 0.022 263.2878 130.9182)" fill="#4A4A4C" width="2" height="74.769"/>
	</g>
</g>
</svg>
