<?xml version="1.0" encoding="utf-8"?>
<!-- Generator: Adobe Illustrator 16.0.0, SVG Export Plug-In . SVG Version: 6.00 Build 0)  -->
<!DOCTYPE svg PUBLIC "-//W3C//DTD SVG 1.1//EN" "http://www.w3.org/Graphics/SVG/1.1/DTD/svg11.dtd">
<svg version="1.1" id="Capa_1" xmlns="http://www.w3.org/2000/svg" xmlns:xlink="http://www.w3.org/1999/xlink" x="0px" y="0px"
	 width="222.692px" height="268.625px" viewBox="0 0 222.692 268.625" enable-background="new 0 0 222.692 268.625"
	 xml:space="preserve">
<g>
	<defs>
		<path id="SVGID_1_" d="M222.692,259.949c0,4.792-3.885,8.676-8.677,8.676H8.676c-4.792,0-8.676-3.884-8.676-8.676V8.677
			C0,3.885,3.885,0,8.676,0h205.339c4.792,0,8.677,3.885,8.677,8.677V259.949z"/>
	</defs>
	<clipPath id="SVGID_2_">
		<use xlink:href="#SVGID_1_"  overflow="visible"/>
	</clipPath>
	<g clip-path="url(#SVGID_2_)">
		<defs>
			<rect id="SVGID_3_" x="-94.537" y="-8.314" width="381.31" height="423.949"/>
		</defs>
		<clipPath id="SVGID_4_">
			<use xlink:href="#SVGID_3_"  overflow="visible"/>
		</clipPath>
		<path clip-path="url(#SVGID_4_)" fill="#3986B3" d="M222.692,259.949c0,4.792-3.885,8.676-8.677,8.676H8.676
			c-4.792,0-8.676-3.884-8.676-8.676V8.677C0,3.885,3.885,0,8.676,0h205.339c4.792,0,8.677,3.885,8.677,8.677V259.949z"/>
		<g clip-path="url(#SVGID_4_)">
			<path fill="#E8BAA3" d="M-27.833,284.427c0,0-9.722-8.857-15.734-10.352c-6.015-1.495-10.985-2.854-13.65-6.681
				c-2.667-3.828-12.444-15.487-13.693-18.641c-1.251-3.155,1.261-14.85,1.904-17.667c0.646-2.815,4.725,1.684,4,5.742
				c-0.728,4.056-0.291,10.816,0.729,12.048c1.02,1.231,4.926,6.271,8.504,7.33c3.579,1.058,8.204,1.24,12.663,0.503
				c4.458-0.738,14.136-4.119,18.958,2.467c4.824,6.585,3.075,8.855,7.851,12.29C-11.526,274.905-27.833,284.427-27.833,284.427"/>
			
				<path fill="none" stroke="#724437" stroke-width="0.941" stroke-linecap="round" stroke-linejoin="round" stroke-miterlimit="10" d="
				M-27.833,284.427c0,0-9.722-8.857-15.734-10.352c-6.015-1.495-10.985-2.854-13.65-6.681
				c-2.667-3.828-12.444-15.487-13.693-18.641c-1.251-3.155,1.261-14.85,1.904-17.667c0.646-2.815,4.725,1.684,4,5.742
				c-0.728,4.056-0.291,10.816,0.729,12.048c1.02,1.231,4.926,6.271,8.504,7.33c3.579,1.058,8.204,1.24,12.663,0.503
				c4.458-0.738,14.136-4.119,18.958,2.467c4.824,6.585,3.075,8.855,7.851,12.29C-11.526,274.905-27.833,284.427-27.833,284.427z"/>
			<path fill="#E8BAA3" d="M-17.583,271.606c0,0-3.345-5.483-4.02-9.514c-0.675-4.028-6.328-6.253-8.446-9.745
				c-3.193-5.266-2.624-7.432-3.134-13.682c-0.322-3.949-5.757,0.331-6.166,4.167c-0.455,4.276,0.275,9.118,1.671,11.463
				c1.395,2.344-4.954,2.359-4.954,2.359"/>
			
				<path fill="none" stroke="#724437" stroke-width="0.941" stroke-linecap="round" stroke-linejoin="round" stroke-miterlimit="10" d="
				M-17.583,271.606c0,0-3.345-5.483-4.02-9.514c-0.675-4.028-6.328-6.253-8.446-9.745c-3.193-5.266-2.624-7.432-3.134-13.682
				c-0.322-3.949-5.757,0.331-6.166,4.167c-0.455,4.276,0.275,9.118,1.671,11.463c1.395,2.344-4.954,2.359-4.954,2.359"/>
			<path fill="#E8BAA3" d="M-55.626,268.692c-4.688-6.179-9.593-11.945-9.42-15.334c0.172-3.39,6.216-14.354,7.698-16.833
				c1.485-2.478,3.974,3.063,2.028,6.697c-1.945,3.634-3.553,10.55-3.137,12.094c0.416,1.544,4.625,6.026,5.957,9.235"/>
			
				<path fill="none" stroke="#724437" stroke-width="0.941" stroke-linecap="round" stroke-linejoin="round" stroke-miterlimit="10" d="
				M-55.626,268.692c-4.688-6.179-9.593-11.945-9.42-15.334c0.172-3.39,6.216-14.354,7.698-16.833
				c1.485-2.478,3.974,3.063,2.028,6.697c-1.945,3.634-3.553,10.55-3.137,12.094c0.416,1.544,4.625,6.026,5.957,9.235"/>
			<path fill="#E8BAA3" d="M-54.528,270.22c-2.677-2.568-5.554-6.958-6.528-10.208c-0.979-3.25,7.693-15.845,9.455-18.134
				c1.764-2.287,3.588,3.505,1.23,6.886c-2.355,3.381-4.786,9.704-4.376,11.249c1.116,1.063,5.78,5.124,8.141,7.186"/>
			
				<path fill="none" stroke="#724437" stroke-width="0.941" stroke-linecap="round" stroke-linejoin="round" stroke-miterlimit="10" d="
				M-54.528,270.22c-2.677-2.568-5.554-6.958-6.528-10.208c-0.979-3.25,7.693-15.845,9.455-18.134
				c1.764-2.287,3.588,3.505,1.23,6.886c-2.355,3.381-4.786,9.704-4.376,11.249c1.116,1.063,5.78,5.124,8.141,7.186"/>
			<path fill="#E8BAA3" d="M-53.07,270.126c-1.358-0.421-2.881-1.39-2.711-4.662c0.199-3.781-0.754-7.575-0.372-9.327
				c0.616-2.801,7.151-9.036,8.934-10.704c1.781-1.669,2.515,3.411,0.089,5.911c-2.426,2.501-3.505,4.449-3.374,5.794
				c0.062,0.636,0.919,5.234,1.343,7.324c3.765,0.714,8.267-0.014,11.581,3.844"/>
			
				<path fill="none" stroke="#724437" stroke-width="0.941" stroke-linecap="round" stroke-linejoin="round" stroke-miterlimit="10" d="
				M-53.07,270.126c-1.358-0.421-2.881-1.39-2.711-4.662c0.199-3.781-0.754-7.575-0.372-9.327c0.616-2.801,7.151-9.036,8.934-10.704
				c1.781-1.669,2.515,3.411,0.089,5.911c-2.426,2.501-3.505,4.449-3.374,5.794c0.062,0.636,0.919,5.234,1.343,7.324
				c3.765,0.714,8.267-0.014,11.581,3.844"/>
			<path fill="#D3B15A" d="M-29.771,283.463c0,0-0.867-7.056,5.221-11.009c6.086-3.955,7.024-4.299,9.118-3.508
				c2.09,0.787,6.577,6.97,6.577,6.97l-11.806,15.814C-20.661,291.73-28.634,286.446-29.771,283.463"/>
			<path fill="none" stroke="#8E7338" stroke-width="0.957" stroke-miterlimit="10" d="M-29.771,283.463
				c0,0-0.867-7.056,5.221-11.009c6.086-3.955,7.024-4.299,9.118-3.508c2.09,0.787,6.577,6.97,6.577,6.97l-11.806,15.814
				C-20.661,291.73-28.634,286.446-29.771,283.463z"/>
			<path fill="#C19D4E" d="M-19.666,290.397l-0.996,1.333c0,0-7.973-5.284-9.111-8.267c0,0-0.65-5.332,3.182-9.324
				C-28.236,280.699-26.612,286.89-19.666,290.397"/>
			<path fill="#F2CF91" d="M-11.924,280.025c-2.529-4.611-5.479-7.777-9.257-9.702c3.183-1.912,4.124-1.991,5.749-1.377
				c2.09,0.787,6.577,6.97,6.577,6.97L-11.924,280.025z"/>
			<path fill="#FFDF99" d="M39.406,346.988c2.752-2.997,4.983-6.471,6.77-10.121c2.139-4.368,3.354-8.601,2.286-13.474
				c-0.781-3.565-2.001-6.945-3.389-10.315c-0.01-0.028-0.011-0.053-0.024-0.081c-0.569-0.335-1.149-0.661-1.744-0.973
				c-20.098-10.615-52.161-36.109-52.161-36.109s-4.316-2.373-9.293,3.538c-4.978,5.907-2.512,12.277-2.512,12.277
				c17.15,18.794,34.072,35.407,51.575,51.216C32.2,344.734,38.757,347.698,39.406,346.988"/>
			<path fill="none" stroke="#8E7338" stroke-width="0.957" stroke-miterlimit="10" d="M39.406,346.988
				c2.752-2.997,4.983-6.471,6.77-10.121c2.139-4.368,3.354-8.601,2.286-13.474c-0.781-3.565-2.001-6.945-3.389-10.315
				c-0.01-0.028-0.011-0.053-0.024-0.081c-0.569-0.335-1.149-0.661-1.744-0.973c-20.098-10.615-52.161-36.109-52.161-36.109
				s-4.316-2.373-9.293,3.538c-4.978,5.907-2.512,12.277-2.512,12.277c17.15,18.794,34.072,35.407,51.575,51.216
				C32.2,344.734,38.757,347.698,39.406,346.988z"/>
			<path fill="#FCE7BE" d="M48.095,321.935c-0.771-3.031-1.827-5.95-3.022-8.855c-0.01-0.028-0.011-0.054-0.024-0.082
				c-0.569-0.335-1.151-0.659-1.744-0.973c-20.098-10.617-52.161-36.109-52.161-36.109s-3.447-0.896-5.121,0.518
				c16.337,12.77,30.429,26.556,48.855,38.445C38.596,317.651,43.958,319.42,48.095,321.935"/>
			<path fill="#EFC97B" d="M-20.61,288.889c0.076,2.035-0.051,2.841-0.051,2.841c14.095,15.447,32.403,33.525,48.195,48.255
				c-2.188-3.602-3.895-7.528-5.153-11.39C8.354,314.827-5.39,301.41-20.61,288.889"/>
			<path fill="#FFDF99" d="M30.364,342.56c3.155,3.077,8,5.209,12.3,5.923c2.409,0.396,8.048-3.399,8.453-5.34
				c5.258-25.127,16.945-70.702,14.023-90.569c3.81-13.611,10.375-29.021,18.698-45.577c0,0-25.125,5.843-35.058,5.259
				c-9.933-0.584-18.158,9.934-16.988,16.361c1.169,6.427,0.584,35.642-1.752,47.913c-1.418,7.447-1.003,21.777-1.891,35.811"/>
			<path fill="none" stroke="#8E7338" stroke-width="0.957" stroke-miterlimit="10" d="M30.364,342.56
				c3.155,3.077,8,5.209,12.3,5.923c2.409,0.396,8.048-3.399,8.453-5.34c5.258-25.127,16.945-70.702,14.023-90.569
				c3.81-13.611,10.375-29.021,18.698-45.577c0,0-25.125,5.843-35.058,5.259c-9.933-0.584-18.158,9.934-16.988,16.361
				c1.169,6.427,0.584,35.642-1.752,47.913c-1.418,7.447-1.003,21.777-1.891,35.811"/>
			<path fill="#EFC97B" d="M63.273,239.231c-5.165-2.424-6.098-0.616-11.59,2.605c7.325,7.05,7.938,10.904,4.93,23.113
				c-0.863,26.368-3.203,58.343-12.294,82.406c1.628,0.25,5.803-1.858,6.233-3.795c11.338-50.797,12.099-79.326,10.324-99.328
				L63.273,239.231z"/>
			<path fill="#FCE7BE" d="M48.78,212.255c-9.933-0.584-18.158,9.934-16.987,16.361c1.168,6.427,0.582,35.642-1.754,47.913
				c-1.569,8.229-0.897,24.862-2.223,40.214c0.448,2.35,1.072,4.698,1.782,7.045c7.988-33.334-0.46-62,7.108-96.606
				c0-2.206,1.103-5.514,3.309-6.618c14.655-1.953,27.586-5.634,41.846-8.75l1.976-4.817
				C83.838,206.997,58.713,212.84,48.78,212.255"/>
			<path fill="#BC7A55" d="M130.556,798.539c-2.309-4.386-5.06-17.022-5.651-40.108c-0.593-23.084,2.958-52.747,2.958-63.929
				c0-59.783-6.191-70.581-9.997-92.661c-3.809-22.082-6.601-70.558-6.854-92.385c-0.254-21.825-6.09-61.674-6.09-61.674
				l-23.603-95.938l-22.934-3.326c-4.643,28.36-28.995,44.711-26.784,107.358C33.813,518.526,69.84,582.65,75,624.661
				c5.159,42.012,29.024,158.669,29.342,159.973c0.726,7.319,0.741,15.89-2.213,20.504c-6.68,10.438-20.81,30.456-27.41,34.01
				c-6.599,3.553-2.539,9.645,8.122,8.63c10.66-1.016,14.722,4.568,25.379-10.659c10.66-15.229,14.215-17.768,18.783-21.828
				C131.57,811.229,135.629,808.186,130.556,798.539"/>
			
				<path fill="none" stroke="#724437" stroke-width="0.941" stroke-linecap="round" stroke-linejoin="round" stroke-miterlimit="10" d="
				M130.556,798.539c-2.309-4.386-5.06-17.022-5.651-40.108c-0.593-23.084,2.958-52.747,2.958-63.929
				c0-59.783-6.191-70.581-9.997-92.661c-3.809-22.082-6.601-70.558-6.854-92.385c-0.254-21.825-6.09-61.674-6.09-61.674
				l-23.603-95.938l-22.934-3.326c-4.643,28.36-28.995,44.711-26.784,107.358C33.813,518.526,69.84,582.65,75,624.661
				c5.159,42.012,29.024,158.669,29.342,159.973c0.726,7.319,0.741,15.89-2.213,20.504c-6.68,10.438-20.81,30.456-27.41,34.01
				c-6.599,3.553-2.539,9.645,8.122,8.63c10.66-1.016,14.722,4.568,25.379-10.659c10.66-15.229,14.215-17.768,18.783-21.828
				C131.57,811.229,135.629,808.186,130.556,798.539z"/>
			<path fill="#BC7A55" d="M224.706,832.287c-6.049-4.84-9.232-17.151-14.688-28.322c-3.265-6.694-5.877-17.251-7.491-24.916
				c-0.456-1.55-1.839-5.404-4.799-29.239c-2.975-23.976-4.737-114.382-12.181-146.867c-7.446-32.488-10.152-50.762-8.8-124.534
				c1.203-65.56-23.249-97.445-33.934-124.632l-0.53-1.38c-1.106-2.929-2.043-5.809-2.759-8.674
				c-0.146,0.133-0.288,0.259-0.432,0.39l-0.048-0.125c-12.416,9.406-51.296,8.872-56.373,7.857
				c-5.077-1.016-6.092-0.678-7.444,2.705c-1.354,3.385-0.678,6.094-2.032,12.521c-1.075,5.111,3.625,7.224,9.508,8.048
				c-0.065,1.503-0.032,2.443-0.032,2.443l-1.353,14.212c-1.354,14.215,5.414,37.227,13.536,40.609l8.46,11.422
				c1.692,4.651,2.37,8.884,2.37,8.884c2.706,33.84,10.151,79.862,16.919,101.521c6.77,21.657,19.627,55.498,20.982,85.954
				c1.354,30.456,6.767,53.469,14.213,73.095c7.444,19.628,18.869,60.285,22.62,70.521c2.517,5.78,5.626,12.657,3.704,19.477
				c-3.054,10.84,1.706,13.043,7.196,16.162c5.49,3.121,7.371,10.029,12.933,21.521c3.934,8.13,21.549,8.421,28.06-0.523
				C234.007,838.087,228.639,835.434,224.706,832.287"/>
			
				<path fill="none" stroke="#724437" stroke-width="0.941" stroke-linecap="round" stroke-linejoin="round" stroke-miterlimit="10" d="
				M224.706,832.287c-6.049-4.84-9.232-17.151-14.688-28.322c-3.265-6.694-5.877-17.251-7.491-24.916
				c-0.456-1.55-1.839-5.404-4.799-29.239c-2.975-23.976-4.737-114.382-12.181-146.867c-7.446-32.488-10.152-50.762-8.8-124.534
				c1.203-65.56-23.249-97.445-33.934-124.632l-0.53-1.38c-1.106-2.929-2.043-5.809-2.759-8.674
				c-0.146,0.133-0.288,0.259-0.432,0.39l-0.048-0.125c-12.416,9.406-51.296,8.872-56.373,7.857
				c-5.077-1.016-6.092-0.678-7.444,2.705c-1.354,3.385-0.678,6.094-2.032,12.521c-1.075,5.111,3.625,7.224,9.508,8.048
				c-0.065,1.503-0.032,2.443-0.032,2.443l-1.353,14.212c-1.354,14.215,5.414,37.227,13.536,40.609l8.46,11.422
				c1.692,4.651,2.37,8.884,2.37,8.884c2.706,33.84,10.151,79.862,16.919,101.521c6.77,21.657,19.627,55.498,20.982,85.954
				c1.354,30.456,6.767,53.469,14.213,73.095c7.444,19.628,18.869,60.285,22.62,70.521c2.517,5.78,5.626,12.657,3.704,19.477
				c-3.054,10.84,1.706,13.043,7.196,16.162c5.49,3.121,7.371,10.029,12.933,21.521c3.934,8.13,21.549,8.421,28.06-0.523
				C234.007,838.087,228.639,835.434,224.706,832.287z"/>
			<path fill="#D39479" d="M86.091,606.261c-0.956-14.352-6.986-26.17-13.603-38.437c-4.237,0.599-8.478,1.251-12.731,1.993
				c7.131,20.529,13.324,39.218,15.242,54.844c5.16,42.012,29.024,158.669,29.343,159.973c0.726,7.319,0.741,15.89-2.211,20.504
				c-5.152,8.049-14.734,21.791-21.877,29.293c4.33-2.33,3.518,0.21,12.338-7.133c8.823-7.342,19.29-28.775,17.296-37.75
				C96.285,728.336,90.423,668.021,86.091,606.261"/>
			<path fill="#A06047" d="M127.863,694.502c0-59.783-6.191-70.581-9.997-92.661c-1.631-9.456-3.073-23.753-4.213-38.723
				c-3.191,0.337-1.988,1.999-5.168,2.331c0.025,22.942,4.856,42.907,10.471,65.372c11.919,47.673,0.89,97.096,4.142,144.769
				c0.63,9.468,0.438,12.789,5.639,17.902c-1.758-6.516-3.392-17.896-3.834-35.062C124.311,735.347,127.863,705.684,127.863,694.502
				"/>
			<path fill="#A06047" d="M151.463,675.606c-4.101-42.286-4.688-70.432-21.671-113.77c-3.235,0.424-1.517-0.352-4.729,0.021
				c7.025,21.487,17.317,51.232,18.522,78.307c1.354,30.458,6.768,53.469,14.211,73.097c7.445,19.626,18.872,60.283,22.622,70.519
				c2.517,5.779,5.626,12.657,3.704,19.476c-2.248,7.987-0.253,11.281,3.146,13.713c2.401-8.333-0.434-18.081-2.857-27.171
				C176.826,755.125,154.746,709.47,151.463,675.606"/>
			<path fill="#A06047" d="M202.526,779.049c-0.456-1.55-1.839-5.404-4.799-29.24c-2.975-23.975-4.737-114.381-12.181-146.868
				c-3.938-17.18-6.55-30.388-7.937-49.927c-2.128,0.435-4.271,0.866-6.404,1.301c7.262,39.046,14.779,80.288,17.94,120.333
				c2.167,34.671,3.489,70.534,10.22,103.186c5.415,15.17,7.867,27.95,15.453,43.12c1.083,2.167,3.461,4.179,4.544,6.346
				c0.877,0.627,1.725,1.298,2.551,1.985c-4.371-5.905-7.346-16.002-11.896-25.319C206.753,797.271,204.141,786.714,202.526,779.049
				"/>
			<path fill="#3986B3" d="M67.66,603.137c12.352,4.428,26.133,5.325,39.087,5.274c4.979-0.02,14.761-0.431,14.761-0.431
				l14.137-1.396c0,0,20.745-4.119,30.87-8.613c6.382-2.835,12.556-6.059,18.669-9.396c-5.201-25.649-6.87-47.908-5.727-110.118
				c0.953-52.11-13.876-82.757-25.796-107.381c-3.119-6.45-6.066-12.541-8.32-18.274l-0.524-1.362
				c-1.141-3.02-2.012-5.759-2.665-8.374l-1.105-4.422l-2.664,2.447l-0.973,0.737c-7.63,5.779-27.633,7.839-43.809,7.839
				c-5.871,0-9.435-0.287-10.399-0.479c-2.42-0.483-3.749-0.623-4.934-0.524l-19.882-2.381l-0.638,2.581
				c-2.288,9.228-6.725,16.836-11.094,26.107c-8.293,17.588-19.233,39.245-17.758,81c1.318,37.365,14.475,75.082,26.084,108.359
				C59.731,577.954,64.315,591.108,67.66,603.137"/>
			<path fill="#196B93" d="M135.645,606.584c0,0,20.747-4.118,30.869-8.612c6.382-2.835,12.557-6.059,18.672-9.398
				c-5.204-25.647-6.872-47.904-5.729-110.116c0.954-52.107-13.876-82.757-25.793-107.382c-0.938-1.938-1.855-3.841-2.75-5.715
				c-16.962,15.754-0.026,24.556-2.286,39.236c-3.856,25.072-9.444,32.636-54.951,43.473
				c-45.508,10.832,15.884,53.767,28.927,106.142c13.042,52.373-39.625,30.347-15.856,54.2c4.979-0.02,14.761-0.429,14.761-0.429
				L135.645,606.584z"/>
			<path fill="#AF6822" d="M131.209,836.296c0.734,2.266-1.77,3.247-5.901,2.064c-4.133-1.179-4.725-3.541-4.725-3.541l0.295-17.121
				l13.516-5.303C134.394,812.396,127.963,826.259,131.209,836.296"/>
			<path fill="none" stroke="#89501B" stroke-width="0.521" stroke-miterlimit="10" d="M131.209,836.296
				c0.734,2.266-1.77,3.247-5.901,2.064c-4.133-1.179-4.725-3.541-4.725-3.541l0.295-17.121l13.516-5.303
				C134.394,812.396,127.963,826.259,131.209,836.296z"/>
			<path fill="#AF6822" d="M128.655,794.51c-2.232,1.573-11.815,14.317-15.693,28.129c-3.88,13.813-14.932,16.37-18.327,16.68
				c-3.392,0.306-9.58-5.341-15.287-5.495c-5.706-0.154-10.655,5.43-12.659,8.358c-2.004,2.934-0.185,7.186,0.895,8.265
				c1.079,1.078,24.522,4.936,33.778-0.462c9.252-5.399,13.717-19.474,19.094-23.662c5.376-4.188,13.213-6.788,13.938-13.927
				C135.12,805.255,131.968,792.179,128.655,794.51"/>
			<path fill="none" stroke="#89501B" stroke-width="0.521" stroke-miterlimit="10" d="M128.655,794.51
				c-2.232,1.573-11.815,14.317-15.693,28.129c-3.88,13.813-14.932,16.37-18.327,16.68c-3.392,0.306-9.58-5.341-15.287-5.495
				c-5.706-0.154-10.655,5.43-12.659,8.358c-2.004,2.934-0.185,7.186,0.895,8.265c1.079,1.078,24.522,4.936,33.778-0.462
				c9.252-5.399,13.717-19.474,19.094-23.662c5.376-4.188,13.213-6.788,13.938-13.927
				C135.12,805.255,131.968,792.179,128.655,794.51z"/>
			<path fill="#AF6822" d="M184.046,835.473c-0.904,2.286,1.612,3.466,5.952,2.518c4.339-0.945,5.104-3.341,5.104-3.341
				l-1.279-17.676l-12.387-2.258C181.436,814.716,188.052,825.336,184.046,835.473"/>
			<path fill="none" stroke="#89501B" stroke-width="0.539" stroke-miterlimit="10" d="M184.046,835.473
				c-0.904,2.286,1.612,3.466,5.952,2.518c4.339-0.945,5.104-3.341,5.104-3.341l-1.279-17.676l-12.387-2.258
				C181.436,814.716,188.052,825.336,184.046,835.473z"/>
			<path fill="#AF6822" d="M184.321,796.621c2.812-0.827,3.145,4.721,9.701,18.62c3.147,9.439,9.179,20.979,19.669,24.437
				c3.614,0.563,11.234-6.531,16.991-4.42c3.271,1.2,7.714,8.092,7.359,11.818c-0.361,3.792-3.533,4.435-5.018,5.097
				c-1.498,0.667-15.726,3.618-25.275-2.789c-9.553-6.407-10.102-20.69-15.579-25.54c-5.479-4.85-10.07-5.09-11.812-12.59
				C179.336,806.849,179.86,797.934,184.321,796.621"/>
			<path fill="none" stroke="#89501B" stroke-width="0.56" stroke-miterlimit="10" d="M184.321,796.621
				c2.812-0.827,3.145,4.721,9.701,18.62c3.147,9.439,9.179,20.979,19.669,24.437c3.614,0.563,11.234-6.531,16.991-4.42
				c3.271,1.2,7.714,8.092,7.359,11.818c-0.361,3.792-3.533,4.435-5.018,5.097c-1.498,0.667-15.726,3.618-25.275-2.789
				c-9.553-6.407-10.102-20.69-15.579-25.54c-5.479-4.85-10.07-5.09-11.812-12.59C179.336,806.849,179.86,797.934,184.321,796.621z"
				/>
			<path fill="#65BBE5" d="M48.167,510.911C36.25,490.325,46,465.404,49.252,441.566c6.041-32.218,12.077-62.566,15.511-94.52
				l-6.377-0.763l-0.638,2.58c-2.288,9.228-6.725,16.836-11.094,26.107c-8.293,17.588-19.233,39.243-17.758,81.001
				c1.318,37.363,14.475,75.081,26.084,108.359c4.752,13.622,9.336,26.776,12.68,38.805c7.075,2.536,14.616,3.91,22.202,4.616
				c-0.352-4.471-0.86-8.941-1.603-13.409C81.757,562.922,64.418,539.083,48.167,510.911"/>
			<path fill="#FFDF99" d="M110.55,201.405c0,0-25.727,5.29-31.499,7.934c-5.77,2.645-12.743,22.842-16.349,34.382
				c-3.606,11.541,101.464,7.695,104.829,2.645c3.365-5.048,6.492-29.093-4.326-34.142
				C152.385,207.176,125.698,200.684,110.55,201.405"/>
			<path fill="#A0654B" d="M214.068,485.332c0.051,3.705,0.477,12.331-0.104,14.964c-0.579,2.633-7.432,9.215-9.109,10.782
				c-1.675,1.567-2.36-3.21-0.078-5.557c2.28-2.349,4.999-6.992,4.876-8.257c-0.122-1.266-0.451-6.318-2.337-8.605"/>
			<path fill="none" stroke="#724437" stroke-width="0.941" stroke-miterlimit="10" d="M214.068,485.332
				c0.051,3.705,0.477,12.331-0.104,14.964c-0.579,2.633-7.432,9.215-9.109,10.782c-1.675,1.567-2.36-3.21-0.078-5.557
				c2.28-2.349,4.999-6.992,4.876-8.257c-0.122-1.266-0.451-6.318-2.337-8.605"/>
			<path fill="#A0654B" d="M218.048,489.227c-0.268,4.375,0.032,12.698-0.887,15.75c-0.92,3.056-9.594,10.208-11.712,11.907
				c-2.116,1.7-2.498-3.996,0.405-6.563c2.901-2.566,6.521-7.802,6.492-9.305c-0.034-1.503,0.028-7.494-1.992-10.364"/>
			<path fill="none" stroke="#724437" stroke-width="0.941" stroke-miterlimit="10" d="M218.048,489.227
				c-0.268,4.375,0.032,12.698-0.887,15.75c-0.92,3.056-9.594,10.208-11.712,11.907c-2.116,1.7-2.498-3.996,0.405-6.563
				c2.901-2.566,6.521-7.802,6.492-9.305c-0.034-1.503,0.028-7.494-1.992-10.364"/>
			<path fill="#A0654B" d="M220.787,492.949c-0.566,4.347-1.034,15.586-2.16,18.568c-1.126,2.985-10.267,9.527-12.497,11.078
				c-2.228,1.552-2.22-4.157,0.852-6.519c3.07-2.362,7.041-7.338,7.112-8.839c0.071-1.502,0.542-7.476-1.275-10.476"/>
			<path fill="none" stroke="#724437" stroke-width="0.941" stroke-miterlimit="10" d="M220.787,492.949
				c-0.566,4.347-1.034,15.586-2.16,18.568c-1.126,2.985-10.267,9.527-12.497,11.078c-2.228,1.552-2.22-4.157,0.852-6.519
				c3.07-2.362,7.041-7.338,7.112-8.839c0.071-1.502,0.542-7.476-1.275-10.476"/>
			<path fill="#BC7A55" d="M210.966,463.544c0,0,2.297,12.146,5.971,16.666c3.673,4.519,6.641,8.349,6.481,12.729
				c-0.159,4.383,0.599,18.665-0.244,21.74c-0.843,3.076-9.336,10.442-11.412,12.194c-2.071,1.754-2.596-3.932,0.242-6.57
				c2.838-2.637,6.327-7.961,6.257-9.463c-0.07-1.503-0.156-7.493-2.247-10.311c-2.09-2.818-5.462-5.566-9.229-7.532
				c-3.765-1.963-12.946-4.891-12.85-12.564c0.098-7.671,2.696-8.388,1.048-13.667C193.332,461.484,210.966,463.544,210.966,463.544
				"/>
			
				<path fill="none" stroke="#724437" stroke-width="0.941" stroke-linecap="round" stroke-linejoin="round" stroke-miterlimit="10" d="
				M210.966,463.544c0,0,2.297,12.146,5.971,16.666c3.673,4.519,6.641,8.349,6.481,12.729c-0.159,4.383,0.599,18.665-0.244,21.74
				c-0.843,3.076-9.336,10.442-11.412,12.194c-2.071,1.754-2.596-3.932,0.242-6.57c2.838-2.637,6.327-7.961,6.257-9.463
				c-0.07-1.503-0.156-7.493-2.247-10.311c-2.09-2.818-5.462-5.566-9.229-7.532c-3.765-1.963-12.946-4.891-12.85-12.564
				c0.098-7.671,2.696-8.388,1.048-13.667C193.332,461.484,210.966,463.544,210.966,463.544z"/>
			<path fill="#BC7A55" d="M196.021,467.385c0,0-0.583,6.012-2.354,9.417c-1.767,3.409,1.223,8.272,0.84,12.093
				c-0.576,5.761-2.227,7.066-5.373,12.049c-1.99,3.15,4.512,3.005,6.982,0.353c2.76-2.955,4.947-7.007,5.223-9.556
				c0.275-2.548,5.056,1.026,5.056,1.026"/>
			
				<path fill="none" stroke="#724437" stroke-width="0.941" stroke-linecap="round" stroke-linejoin="round" stroke-miterlimit="10" d="
				M196.021,467.385c0,0-0.583,6.012-2.354,9.417c-1.767,3.409,1.223,8.272,0.84,12.093c-0.576,5.761-2.227,7.066-5.373,12.049
				c-1.99,3.15,4.512,3.005,6.982,0.353c2.76-2.955,4.947-7.007,5.223-9.556c0.275-2.548,5.056,1.026,5.056,1.026"/>
			<path fill="#CCA756" d="M190.28,449.757c0,0,3.235,15.413,4.376,17.221c1.143,1.81,16.8,0.189,16.61-2.381
				c-0.191-2.568-1.101-18.837-1.101-18.837L190.28,449.757z"/>
			<path fill="#B2904B" d="M211.267,464.597c-0.192-2.568-1.102-18.837-1.102-18.837l-5.679,1.145
				c1.573,0.426,0.81,3.188,2.809,3.188c-0.954,5.73-1.904,11.458,0.851,16.448C210.03,466.014,211.321,465.347,211.267,464.597"/>
			<path fill="#B2904B" d="M190.28,449.757c0,0,3.235,15.413,4.376,17.221l2.631,0.728c1.943-5.787-4.839-12.24-2.993-18.697
				L190.28,449.757z"/>
			<path fill="#FFDF99" d="M146.968,206.33c0,0,38.577,7.445,37.225,14.89s0.118,12.336,0.677,16.244
				c1.353,9.476,9.474,67.003,10.831,98.815c1.352,31.809,10.828,32.486,11.505,50.083c0.677,17.598,2.03,54.146,4.06,60.913
				c2.029,6.767-17.742,7.178-20.981,6.09c-3.238-1.086-7.443-33.163-16.243-48.051c-8.798-14.892-7.444-41.964-10.827-54.823
				c-3.386-12.859-13.538-46.699-12.86-66.328"/>
			<path fill="#EFC97B" d="M175.873,383.998c-9.752-26.004-8.668-52.009-14.086-80.18c-3.249-14.086-4.334-30.339,8.669-40.09
				c-6.738,4.815-16.038,4.48-21.067-1.735l0.963,22.171c-0.677,19.624,9.476,53.469,12.861,66.326
				c3.381,12.86,2.028,39.932,10.827,54.823c8.801,14.888,13.005,46.965,16.243,48.051c0.704,0.237,2.193,0.402,4.068,0.448
				c0.248-4.491-0.729-8.98-2.226-13.473C187.791,420.838,182.374,402.418,175.873,383.998"/>
			<path fill="#EFC97B" d="M178.04,222.554c2.167,1.084-1.084,4.333-4.334,5.418c3.25,5.417,6.501,11.918,7.586,18.42
				c10.834,46.589-3.252,93.182,19.502,136.523c11.242,20.613-5.055,48.515,5.041,69.699c3.635-0.988,6.232-2.667,5.432-5.34
				c-2.032-6.768-3.385-43.315-4.062-60.913c-0.677-17.597-10.153-18.274-11.507-50.085c-1.355-31.809-9.477-89.337-10.828-98.813
				c-0.56-3.908-2.03-8.799-0.678-16.244L178.04,222.554z"/>
			<path fill="#FCE7BE" d="M184.192,221.22c1.353-7.445-37.225-14.89-37.225-14.89l0.179,4.113
				c10.516,3.849,21.516,5.546,30.894,12.111"/>
			<path fill="#FFDF99" d="M153.104,239.943c-2.518,11.212,7.247,24.284,5.252,39.043c-1.995,14.762-12.478,20.8-14.074,27.183
				c-1.596,6.384-3.744,44.11,9.063,62.034c0,4.388-28.839,23.051-56.575,20.639c-7.84,0-12.784-19.214-12.784-19.214
				s-11.554,15.905-15.555,17.404c-4.001,1.5-22.189-10.248-20.5-14.47c7.234-18.09,12.95-33.394,13.468-42.866
				c0.412-7.559,2.351-24.034-9.219-33.61c-11.57-9.574-13.565-23.139-5.585-38.299c7.978-15.161,20.745-20.746,20.745-27.926"/>
			<path fill="none" stroke="#8E7338" stroke-width="0.957" stroke-miterlimit="10" d="M153.104,239.943
				c-2.518,11.212,7.247,24.284,5.252,39.043c-1.995,14.762-12.478,20.8-14.074,27.183c-1.596,6.384-3.744,44.11,9.063,62.034
				c0,4.388-28.839,23.051-56.575,20.639c-7.84,0-12.784-19.214-12.784-19.214s-11.554,15.905-15.555,17.404
				c-4.001,1.5-22.189-10.248-20.5-14.47c7.234-18.09,12.95-33.394,13.468-42.866c0.412-7.559,2.351-24.034-9.219-33.61
				c-11.57-9.574-13.565-23.139-5.585-38.299c7.978-15.161,20.745-20.746,20.745-27.926"/>
			<path fill="#EFC97B" d="M157.628,282.647c-6.003,8.68-14.652,15.444-25.095,16.837c-30.309,5.225-72.708,10.438-90.26-19.346
				c1.158,6.031,4.456,11.438,9.906,15.948c11.57,9.575,10.293,24.705,9.47,32.228c-1.882,17.193-9.985,36.625-13.93,45.551
				c9.422-10.828,22.446-51.511,16.551-67.881c19.503,14.086,54.177-8.669,70.43,5.417c11.72,10.747,1.426,29.411-14.21,39.337
				c6.121,12.762,30.837,9.471,23.57,25.548c4.934-2.451,7.648-5.17,9.119-8.032c-13.35-23.342-10.49-55.701-8.897-62.085
				C145.739,300.346,154.572,294.785,157.628,282.647"/>
			<path fill="none" stroke="#8E7338" stroke-width="0.957" stroke-miterlimit="10" d="M84.232,369.641
				c-0.96-10.719-1.838-23.61-1.95-28.87c-0.159-7.452,3.59-25.533-0.398-32.316c-3.989-6.782-9.178-20.747-6.783-29.921
				c2.392-9.176,17.555-26.73,19.149-35.507"/>
			<path fill="#3D4447" d="M87.369,97.991l-17.761,0.066c0,0-0.264,6.764-0.396,8.406c-0.131,1.643,7.027-2.43,7.945-3.677
				c0.921-1.249,7.753-2.563,8.867-2.628C86.506,99.039,87.369,97.991,87.369,97.991"/>
			<path fill="#470E02" d="M135.124,202.607c0,0,23.857-1.016,24.365-11.168c0.507-10.153-12.184-17.766-7.105-17.766
				c5.075,0,14.212,1.016,11.674-8.63c-2.539-9.644-17.259-13.196-1.017-18.273c16.244-5.077,40.103-3.045,38.579-42.64
				c-0.854-22.249-29.601-87.004-71.571-87.503c-42.64-0.508-35.026,13.197-47.208,22.334c-12.182,9.137-24.96,12.559-13.197,39.185
				c14.568,32.978-1.017,72.178,4.06,82.329c5.077,10.152,13.705,8.629,8.121,22.843c-5.583,14.214,7.615,28.933,17.26,21.828
				C108.729,198.039,135.124,202.607,135.124,202.607"/>
			<path fill="#E8BAA3" d="M93.479,166.782c0,0,6.972,21.879-0.723,37.509c-9.791,19.888-2.885,15.387-1.442,24.042
				c1.442,8.656,2.936,14.692,2.936,14.692s13.893-22.146,18.701-25.512c4.81-3.366,18.756-19.475,18.756-19.475
				c-9.534-9.504-8.819-22.523-0.963-37.988L93.479,166.782z"/>
			
				<path fill="none" stroke="#724437" stroke-width="0.941" stroke-linecap="round" stroke-linejoin="round" stroke-miterlimit="10" d="
				M93.479,166.782c0,0,6.972,21.879-0.723,37.509c-9.791,19.888-2.885,15.387-1.442,24.042c1.442,8.656,2.936,14.692,2.936,14.692
				s13.893-22.146,18.701-25.512c4.81-3.366,18.756-19.475,18.756-19.475c-9.534-9.504-8.819-22.523-0.963-37.988L93.479,166.782z"
				/>
			<path fill="#CC9881" d="M103.4,184.66c3.893,0.25,13.889-6.551,23.634-15.974c0.959-2.784,2.203-5.665,3.711-8.635l-37.266,6.731
				c0,0,1.615,5.087,2.432,12.1C98.625,182.401,101.152,184.515,103.4,184.66"/>
			<path fill="#470E02" d="M83.854,42.457c0,0-14.72-0.761-20.048,15.736c-5.33,16.497,2.792,33.501,11.421,36.8
				C83.854,98.293,83.854,42.457,83.854,42.457"/>
			<path fill="#E8BAA3" d="M115.834,36.112c-27.757,0-45.177,9.645-43.907,31.471c1.269,21.828,7.36,22.589,2.792,36.04
				c-4.57,13.452-7.616,20.381-1.27,35.025c10.814,24.954,22.081,39.085,29.951,39.593c7.866,0.509,40.606-21.318,45.938-41.877
				c5.329-20.558,13.196-52.03,7.614-70.303C151.368,47.787,142.738,36.112,115.834,36.112"/>
			
				<path fill="none" stroke="#724437" stroke-width="0.941" stroke-linecap="round" stroke-linejoin="round" stroke-miterlimit="10" d="
				M115.834,36.112c-27.757,0-45.177,9.645-43.907,31.471c1.269,21.828,7.36,22.589,2.792,36.04
				c-4.57,13.452-7.616,20.381-1.27,35.025c10.814,24.954,22.081,39.085,29.951,39.593c7.866,0.509,40.606-21.318,45.938-41.877
				c5.329-20.558,13.196-52.03,7.614-70.303C151.368,47.787,142.738,36.112,115.834,36.112z"/>
			<path fill="#E8BAA3" d="M98.491,100.408c0.424,4.316,0.168,18.782-6.684,23.352c-6.852,4.568,0.169,6.175,3.977,6.599
				c3.807,0.422,9.813-0.254,11.168-1.524"/>
			
				<path fill="none" stroke="#724437" stroke-width="0.941" stroke-linecap="round" stroke-linejoin="round" stroke-miterlimit="10" d="
				M98.491,100.408c0.424,4.316,0.168,18.782-6.684,23.352c-6.852,4.568,0.169,6.175,3.977,6.599
				c3.807,0.422,9.813-0.254,11.168-1.524"/>
			<path fill="#A53D3D" d="M100.985,151.827c-3.626-0.175-9.248-3.27-9.543-6.285l20.07-0.396
				C111.511,145.146,109.599,152.246,100.985,151.827"/>
			<path fill="#7F0A0A" d="M113.952,144c0.552-0.13-1.508,3.223-14.339,2.56c-12.828-0.662-12.492-3.219-12.492-3.219
				s2.991,0.969,5.445-0.453c2.364-1.369,5.856-1.24,10.09-0.636C106.888,142.857,109.704,145.006,113.952,144"/>
			<path fill="#571B01" d="M136.204,106.766c0,0-3.595-7.458-10.522-6.392c-6.925,1.063-11.965,7-11.777,7.857
				c0.189,0.859,1.854,4.13,11.145,3.331C134.342,110.762,135.539,108.23,136.204,106.766"/>
			<path fill="#FFFFFF" d="M136.204,106.766c0,0-5.195-4.527-12.12-3.461c-6.927,1.064-10.367,4.07-10.179,4.926
				c0.189,0.859,1.854,4.13,11.145,3.331C134.342,110.762,135.539,108.23,136.204,106.766"/>
			<g>
				<defs>
					<path id="SVGID_5_" d="M124.084,103.304c-6.927,1.064-10.368,4.07-10.179,4.926c0.189,0.859,1.854,4.13,11.145,3.331
						c9.292-0.8,10.491-3.331,11.156-4.796c0,0-4.162-3.622-9.997-3.622C125.521,103.144,124.813,103.193,124.084,103.304"/>
				</defs>
				<clipPath id="SVGID_6_">
					<use xlink:href="#SVGID_5_"  overflow="visible"/>
				</clipPath>
				<path clip-path="url(#SVGID_6_)" fill="#BC682A" d="M121.155,106.78c0,3.383,2.743,6.126,6.126,6.126
					c3.384,0,6.127-2.743,6.127-6.126c0-3.384-2.744-6.127-6.127-6.127C123.897,100.653,121.155,103.396,121.155,106.78"/>
				<path clip-path="url(#SVGID_6_)" fill="#713213" d="M123.961,106.78c0,1.833,1.485,3.32,3.32,3.32s3.32-1.486,3.32-3.32
					c0-1.835-1.486-3.32-3.32-3.32S123.961,104.945,123.961,106.78"/>
				<path clip-path="url(#SVGID_6_)" fill="#FFFFFF" d="M128.505,105.434c0,0.81,0.657,1.464,1.466,1.464s1.464-0.655,1.464-1.464
					s-0.655-1.464-1.464-1.464S128.505,104.625,128.505,105.434"/>
			</g>
			<path fill="#571B01" d="M75.263,105.835c0,0,3.33-6.901,9.738-5.916c6.407,0.984,11.07,6.478,10.896,7.271
				c-0.175,0.794-1.716,3.821-10.312,3.082C76.987,109.531,75.88,107.19,75.263,105.835"/>
			<path fill="#FFFFFF" d="M75.263,105.835c0,0,4.807-4.188,11.215-3.204c6.41,0.986,9.593,3.766,9.419,4.559
				c-0.175,0.794-1.716,3.821-10.312,3.082C76.987,109.531,75.88,107.19,75.263,105.835"/>
			<g>
				<defs>
					<path id="SVGID_7_" d="M75.263,105.835c0.617,1.355,1.726,3.696,10.323,4.437c8.596,0.74,10.136-2.288,10.312-3.082
						c0.174-0.793-3.009-3.573-9.419-4.559c-0.674-0.104-1.331-0.149-1.964-0.149C79.112,102.482,75.263,105.835,75.263,105.835"/>
				</defs>
				<clipPath id="SVGID_8_">
					<use xlink:href="#SVGID_7_"  overflow="visible"/>
				</clipPath>
				<path clip-path="url(#SVGID_8_)" fill="#BC682A" d="M82.206,105.847c0,3.13,2.539,5.669,5.67,5.669s5.668-2.539,5.668-5.669
					c0-3.132-2.538-5.67-5.668-5.67S82.206,102.715,82.206,105.847"/>
				<path clip-path="url(#SVGID_8_)" fill="#713213" d="M84.805,105.847c0,1.696,1.374,3.071,3.071,3.071s3.071-1.375,3.071-3.071
					c0-1.698-1.374-3.073-3.071-3.073S84.805,104.149,84.805,105.847"/>
				<path clip-path="url(#SVGID_8_)" fill="#FFFFFF" d="M89.01,104.602c0,0.748,0.606,1.356,1.354,1.356
					c0.75,0,1.357-0.608,1.357-1.356c0-0.749-0.607-1.356-1.357-1.356C89.616,103.246,89.01,103.854,89.01,104.602"/>
			</g>
			<path fill="#470E02" d="M141.554,94.697c-1.144-1.619-4.813-6.365-10.829-5.784c-6.016,0.579-11.567,2.308-11.649,4.24
				c-0.082,1.931,3.077,0.965,6.835,0c3.762-0.966,9.476-1.739,11.883-0.195C140.201,94.505,142.697,96.318,141.554,94.697"/>
			<path fill="#CC9881" d="M149.146,128.288c-1.903,24.896-41.896,51.288-49.678,47.48c-0.517-0.251-1.165-0.154-1.771-0.334
				c2.097,1.45,4.06,2.251,5.831,2.365c7.867,0.507,40.608-21.319,45.939-41.877L149.146,128.288z"/>
			<path fill="#CC9881" d="M113.805,54.19c-5.075,4.061-6.092-3.046-9.137-4.061c-16.414-4.828-27.313,13.296-30.96,28.183
				c4.408-3.27,8.625-8.387,8.625-8.387l10.885-11.833c4.149-1.325,8.594-1.049,9.926,1.173c3.405,5.674,11.167,7.612,21.321-0.51
				c10.151-8.121,15.736,1.758,12.69,11.91c-3.046,10.154-0.507,12.926,5.582,13.941c6.092,1.016,13.2,17.493,10.154,23.584
				c0,0,1.316,1.357,7.324-4.994c-1.827-19.325-12.545-26.619-16.97-44.947C139.183,45.053,124.972,46.069,113.805,54.19"/>
			<path fill="#CC9881" d="M77.509,140.679c-10.405-25.126-2.886-24.196-0.551-39.496c2.141-14.042,0.296-9.742-0.97-31.569
				c-0.213-3.628,0.104-6.913,0.887-9.879c-1.436,0.985-3.033,1.735-4.832,2.183c-0.188,1.79-0.23,3.677-0.116,5.666
				c1.269,21.828,7.359,22.589,2.791,36.04c-4.568,13.452-7.614,20.381-1.267,35.025c10.026,23.141,20.442,36.964,28.178,39.259
				C94.401,172.914,85.576,160.152,77.509,140.679"/>
			<path fill="#470E02" d="M93.429,95.332c2.132,1.31,3.609-1.407,1.202-3.146c-2.405-1.738-7.521-2.308-10.979-2.114
				c-3.458,0.192-6.917,2.693-7.671,4.432c-0.751,1.739,1.123-0.489,2.557-0.965C82.899,92.091,88.163,92.104,93.429,95.332"/>
			<path fill="#470E02" d="M82.84,34.627c0,0-26.903,12.827-19.038,34.4c7.87,21.573,18.53-3.3,18.53-3.3l11.674-12.69L82.84,34.627
				z"/>
			<path fill="#4F1911" d="M103.144,55.068c3.405,5.675,11.167,7.614,21.32-0.507c10.152-8.122,15.738-4.744,12.691,5.409
				c-3.046,10.151-0.507,17.259,5.582,18.272c6.092,1.015,13.2,21.829,10.154,27.918c-3.046,6.091-1.017,11.676-1.017,11.676
				s3.554-15.738,13.199-20.305c9.643-4.567,3.553-34.01-6.094-36.04c-9.642-2.03,11.169,1.698,3.555-16.067
				c-7.614-17.767-14.719-28.935-35.531-31.472c-20.813-2.538-43.149,8.122-44.163,22.842c-1.014,14.721,4.061,19.797,8.629,17.767
				C96.038,52.53,101.622,52.53,103.144,55.068"/>
			<path fill="#C19D4E" d="M127.623,189.027c0,0,20.482,14.631,20.14,20.622c-0.346,5.991-2.5,19.813-10.083,22.792
				c-5.813,2.283-5.928-15.288-15.103-11.696c-9.176,3.59-25.19,17.683-28.382,22.87c0,0,18.806-36.835,29.976-40.824
				c2.467-0.57,8.117-3.839,6.068-6.279C128.706,194.687,127.843,191.008,127.623,189.027"/>
			<path fill="#C19D4E" d="M95.642,196c-0.24,12.021-10.156,16.814-2.189,30.329c0,0,2.338,11.382,0.743,17.764
				c0,0-3.535-14.971-9.919-17.764c-6.381-2.792-12.768,7.58-12.768,7.58s1.199-26.331,10.773-33.511
				C91.857,193.216,95.642,196,95.642,196"/>
			<path fill="#C6C6C6" d="M95.642,192.749c-0.24,12.022-10.156,16.813-2.189,30.329c0,0,2.394,13.564,0.798,19.948
				c0,0-3.59-17.155-9.974-19.948c-6.381-2.792-12.768,7.579-12.768,7.579s1.199-26.328,10.773-33.511
				C91.857,189.964,95.642,192.749,95.642,192.749"/>
			
				<path fill="none" stroke="#575A5B" stroke-width="0.957" stroke-linecap="round" stroke-linejoin="round" stroke-miterlimit="10" d="
				M95.642,192.749c-0.24,12.022-10.156,16.813-2.189,30.329c0,0,2.394,13.564,0.798,19.948c0,0-3.59-17.155-9.974-19.948
				c-6.381-2.792-12.768,7.579-12.768,7.579s1.199-26.328,10.773-33.511C91.857,189.964,95.642,192.749,95.642,192.749z"/>
			<path fill="#DEE0E2" d="M95.333,192.587c-1.056-0.474-5.002-1.477-13.051,4.56c-9.574,7.181-10.773,33.512-10.773,33.512
				s5.697-9.248,11.707-7.921C82.443,211.815,87.371,200.73,95.333,192.587"/>
			<path fill="#C6C6C6" d="M95.333,192.587c-7.963,8.143-12.89,19.228-12.118,30.151c0.353,0.077,0.708,0.185,1.062,0.34
				c6.383,2.792,9.973,19.948,9.973,19.948c1.596-6.383-0.798-19.948-0.798-19.948c-7.966-13.516,1.949-18.307,2.189-30.329
				C95.642,192.749,95.533,192.676,95.333,192.587"/>
			<path fill="#C6C6C6" d="M125.457,185.777c0,0,22.198,8.569,21.854,14.561c-0.343,5.993-4.786,25.933-10.374,28.726
				c-5.584,2.792-5.186-15.16-14.36-11.57c-9.176,3.59-25.135,20.347-28.327,25.533c0,0,18.75-39.496,29.922-43.485
				c2.465-0.57,5.948-3.839,3.897-6.278C126.54,191.438,125.675,187.758,125.457,185.777"/>
			
				<path fill="none" stroke="#575A5B" stroke-width="0.957" stroke-linecap="round" stroke-linejoin="round" stroke-miterlimit="10" d="
				M125.457,185.777c0,0,22.198,8.569,21.854,14.561c-0.343,5.993-4.786,25.933-10.374,28.726c-5.584,2.792-5.186-15.16-14.36-11.57
				c-9.176,3.59-25.135,20.347-28.327,25.533c0,0,18.75-39.496,29.922-43.485c2.465-0.57,5.948-3.839,3.897-6.278
				C126.54,191.438,125.675,187.758,125.457,185.777z"/>
			<path fill="#DEE0E2" d="M125.637,186.172c0.216,1.945,1.062,5.557,2.569,7.35c0.539,0.644,0.679,1.348,0.561,2.043
				c0.88,2.033,1.543,4.525,0.627,5.442c-5.753,4.601-6.215,10.139-5.259,15.936c7.652-1.364,7.578,14.331,12.775,11.731
				c5.485-2.742,9.849-22.321,10.186-28.205C147.433,194.587,125.637,186.172,125.637,186.172"/>
			<path fill="#C6C6C6" d="M129.282,200.884c0.934-0.933,0.259-3.471-0.64-5.542c-0.331,1.923-2.669,3.78-4.469,4.199
				c-11.172,3.989-29.922,43.485-29.922,43.485c3.191-5.187,19.15-21.942,28.327-25.533c0.476-0.187,0.92-0.302,1.349-0.378
				C122.953,211.212,123.423,205.572,129.282,200.884"/>
			<g opacity="0.3">
				<g>
					<defs>
						<rect id="SVGID_9_" x="141.802" y="102.325" width="18.158" height="8.857"/>
					</defs>
					<clipPath id="SVGID_10_">
						<use xlink:href="#SVGID_9_"  overflow="visible"/>
					</clipPath>
					<path clip-path="url(#SVGID_10_)" d="M159.964,102.325l-17.761,0.067c0,0-0.263,6.764-0.396,8.406
						c-0.13,1.643,7.028-2.431,7.946-3.677c0.919-1.248,7.751-2.563,8.867-2.628C159.102,103.372,159.964,102.325,159.964,102.325"
						/>
				</g>
			</g>
			<g opacity="0.3">
				<g>
					<defs>
						<rect id="SVGID_11_" x="71.936" y="97.216" width="70.591" height="19.257"/>
					</defs>
					<clipPath id="SVGID_12_">
						<use xlink:href="#SVGID_11_"  overflow="visible"/>
					</clipPath>
					<path clip-path="url(#SVGID_12_)" fill="none" stroke="#000000" stroke-width="0.957" stroke-miterlimit="10" d="
						M75.551,97.766c6.658-0.052,13.421,0.412,20.297,1.458c0.95,0.054,1.669,1.005,1.605,2.125
						c0.134,3.019-0.764,6.155-1.429,9.953c-0.067,1.17-0.96,2.05-1.949,1.917c-8.005,0.198-15.337-0.706-21.984-2.727"/>
					<path clip-path="url(#SVGID_12_)" fill="none" stroke="#000000" stroke-width="0.957" stroke-miterlimit="10" d="
						M111.637,114.39c8.394,1.168,20.877,2.312,28.039,0.84c0.908-0.016,1.662-0.861,1.726-1.93
						c0.338-2.368,0.622-7.118,0.583-10.262c0.062-1.119-0.655-2.072-1.605-2.126c-7.798-1.187-20.638-0.937-28.912-0.628
						c-0.952-0.056-1.773,0.809-1.835,1.929c-0.479,2.983,0.059,6.202,0.288,10.049C109.855,113.433,110.642,114.408,111.637,114.39
						z"/>
					<path clip-path="url(#SVGID_12_)" fill="none" stroke="#000000" stroke-width="0.957" stroke-miterlimit="10" d="
						M97.535,102.413c0,0,0.734-2.686,5.146-2.69c4.412-0.003,6.669,6.09,6.669,6.09"/>
				</g>
			</g>
			<path fill="#4D585E" d="M159.964,101.243l-17.761,0.065c0,0-0.263,6.765-0.396,8.405c-0.13,1.643,7.028-2.43,7.946-3.676
				c0.919-1.249,7.751-2.563,8.867-2.628C159.102,102.288,159.964,101.243,159.964,101.243"/>
			<g opacity="0.24">
				<g>
					<defs>
						<rect id="SVGID_13_" x="69.432" y="97.069" width="72.551" height="18.158"/>
					</defs>
					<clipPath id="SVGID_14_">
						<use xlink:href="#SVGID_13_"  overflow="visible"/>
					</clipPath>
					<path clip-path="url(#SVGID_14_)" fill="#F2F2F2" d="M94.078,112.523c-8.472,0.209-16.188-0.814-23.133-3.088
						c-0.902-0.121-1.555-1.044-1.495-2.115c-0.068-2.39,0.075-5.113,0.469-8.235c0.063-1.119,0.885-1.983,1.837-1.928
						c7.881-0.293,15.905,0.127,24.091,1.372c0.952,0.054,1.667,1.005,1.605,2.126c0.134,3.019-0.764,6.155-1.429,9.95
						C95.957,111.777,95.064,112.654,94.078,112.523"/>
					<path clip-path="url(#SVGID_14_)" fill="#F2F2F2" d="M111.637,113.694c8.394,1.169,20.877,2.313,28.039,0.842
						c0.908-0.018,1.662-0.862,1.726-1.932c0.338-2.367,0.622-7.119,0.583-10.263c0.062-1.119-0.655-2.069-1.605-2.124
						c-7.798-1.188-20.638-0.937-28.912-0.628c-0.952-0.055-1.773,0.807-1.835,1.928c-0.479,2.984,0.059,6.203,0.288,10.05
						C109.855,112.738,110.642,113.713,111.637,113.694"/>
				</g>
			</g>
			<path fill="none" stroke="#4D585E" stroke-width="0.957" stroke-miterlimit="10" d="M94.078,112.523
				c-8.472,0.209-16.188-0.814-23.133-3.088c-0.902-0.121-1.555-1.044-1.495-2.115c-0.068-2.39,0.075-5.113,0.469-8.235
				c0.063-1.119,0.885-1.983,1.837-1.928c7.881-0.293,15.905,0.127,24.091,1.372c0.952,0.054,1.667,1.005,1.605,2.126
				c0.134,3.019-0.764,6.155-1.429,9.95C95.957,111.777,95.064,112.654,94.078,112.523z"/>
			<path fill="none" stroke="#4D585E" stroke-width="0.957" stroke-miterlimit="10" d="M111.637,113.694
				c8.394,1.169,20.877,2.313,28.039,0.842c0.908-0.018,1.662-0.862,1.726-1.932c0.338-2.367,0.622-7.119,0.583-10.263
				c0.062-1.119-0.655-2.069-1.605-2.124c-7.798-1.188-20.638-0.937-28.912-0.628c-0.952-0.055-1.773,0.807-1.835,1.928
				c-0.479,2.984,0.059,6.203,0.288,10.05C109.855,112.738,110.642,113.713,111.637,113.694z"/>
			<path fill="none" stroke="#4D585E" stroke-width="0.957" stroke-miterlimit="10" d="M97.535,101.719c0,0,0.734-2.687,5.146-2.69
				c4.412-0.003,6.669,6.089,6.669,6.089"/>
			<path fill="#E8BAA3" d="M154.768,108.496c1.601-2.857,9.026-13.86,12.798-7.115c3.773,6.747,2.522,22.437-4.223,24.953
				c-6.745,2.514-2.401,7.203-6.286,11.089c-3.89,3.888-7.154-0.267-7.725-3.355"/>
			
				<path fill="none" stroke="#724437" stroke-width="0.941" stroke-linecap="round" stroke-linejoin="round" stroke-miterlimit="10" d="
				M154.768,108.496c1.601-2.857,9.026-13.86,12.798-7.115c3.773,6.747,2.522,22.437-4.223,24.953
				c-6.745,2.514-2.401,7.203-6.286,11.089c-3.89,3.888-7.154-0.267-7.725-3.355"/>
			<path fill="#E8BAA3" d="M160.153,111.406c6.224-2.731,6.826,8.392-0.759,10.018c-4.252,0.911-7.739,4.705-7.589,8.499"/>
			
				<path fill="none" stroke="#724437" stroke-width="0.941" stroke-linecap="round" stroke-linejoin="round" stroke-miterlimit="10" d="
				M160.153,111.406c6.224-2.731,6.826,8.392-0.759,10.018c-4.252,0.911-7.739,4.705-7.589,8.499"/>
		</g>
	</g>
</g>
</svg>
