<?xml version="1.0" encoding="utf-8"?>
<!-- Generator: Adobe Illustrator 16.0.0, SVG Export Plug-In . SVG Version: 6.00 Build 0)  -->
<!DOCTYPE svg PUBLIC "-//W3C//DTD SVG 1.1//EN" "http://www.w3.org/Graphics/SVG/1.1/DTD/svg11.dtd">
<svg version="1.1" id="Capa_1" xmlns="http://www.w3.org/2000/svg" xmlns:xlink="http://www.w3.org/1999/xlink" x="0px" y="0px"
	 width="527.38px" height="586.354px" viewBox="0 0 527.38 586.354" enable-background="new 0 0 527.38 586.354"
	 xml:space="preserve">
<g>
	<defs>
		<rect id="SVGID_1_" width="527.38" height="586.354"/>
	</defs>
	<clipPath id="SVGID_2_">
		<use xlink:href="#SVGID_1_"  overflow="visible"/>
	</clipPath>
	<g clip-path="url(#SVGID_2_)">
		<path fill="#E8BAA3" d="M92.256,404.883c0,0-13.445-12.25-21.762-14.317c-8.318-2.068-15.193-3.948-18.879-9.24
			c-3.688-5.294-17.211-21.419-18.938-25.782c-1.73-4.364,1.743-20.539,2.634-24.434c0.893-3.894,6.535,2.329,5.531,7.941
			c-1.006,5.61-0.401,14.959,1.008,16.664c1.41,1.703,6.813,8.673,11.762,10.138c4.949,1.464,11.346,1.716,17.514,0.696
			c6.166-1.021,19.551-5.696,26.221,3.412c6.672,9.108,4.252,12.247,10.857,16.998C114.811,391.714,92.256,404.883,92.256,404.883"
			/>
		
			<path fill="none" stroke="#724437" stroke-width="0.941" stroke-linecap="round" stroke-linejoin="round" stroke-miterlimit="10" d="
			M92.256,404.883c0,0-13.445-12.25-21.762-14.317c-8.318-2.068-15.193-3.948-18.879-9.24c-3.688-5.294-17.211-21.419-18.938-25.782
			c-1.73-4.364,1.743-20.539,2.634-24.434c0.893-3.894,6.535,2.329,5.531,7.941c-1.006,5.61-0.401,14.959,1.008,16.664
			c1.41,1.703,6.813,8.673,11.762,10.138c4.949,1.464,11.346,1.716,17.514,0.696c6.166-1.021,19.551-5.696,26.221,3.412
			c6.672,9.108,4.252,12.247,10.857,16.998C114.811,391.714,92.256,404.883,92.256,404.883z"/>
		<path fill="#E8BAA3" d="M106.434,387.152c0,0-4.627-7.584-5.561-13.158c-0.934-5.571-8.752-8.648-11.682-13.478
			c-4.416-7.283-3.629-10.279-4.334-18.923c-0.445-5.462-7.963,0.458-8.527,5.763c-0.629,5.914,0.381,12.611,2.311,15.854
			c1.93,3.241-6.852,3.263-6.852,3.263"/>
		
			<path fill="none" stroke="#724437" stroke-width="0.941" stroke-linecap="round" stroke-linejoin="round" stroke-miterlimit="10" d="
			M106.434,387.152c0,0-4.627-7.584-5.561-13.158c-0.934-5.571-8.752-8.648-11.682-13.478c-4.416-7.283-3.629-10.279-4.334-18.923
			c-0.445-5.462-7.963,0.458-8.527,5.763c-0.629,5.914,0.381,12.611,2.311,15.854c1.93,3.241-6.852,3.263-6.852,3.263"/>
		<path fill="#E8BAA3" d="M53.816,383.122c-6.484-8.546-13.269-16.521-13.029-21.209c0.238-4.688,8.598-19.852,10.646-23.28
			c2.055-3.427,5.496,4.237,2.805,9.262c-2.689,5.026-4.914,14.592-4.338,16.728c0.574,2.136,6.396,8.334,8.238,12.772"/>
		
			<path fill="none" stroke="#724437" stroke-width="0.941" stroke-linecap="round" stroke-linejoin="round" stroke-miterlimit="10" d="
			M53.816,383.122c-6.484-8.546-13.269-16.521-13.029-21.209c0.238-4.688,8.598-19.852,10.646-23.28
			c2.055-3.427,5.496,4.237,2.805,9.262c-2.689,5.026-4.914,14.592-4.338,16.728c0.574,2.136,6.396,8.334,8.238,12.772"/>
		<path fill="#E8BAA3" d="M55.336,385.235c-3.703-3.553-7.682-9.624-9.029-14.118c-1.354-4.495,10.641-21.915,13.076-25.081
			c2.439-3.163,4.963,4.848,1.701,9.524c-3.258,4.677-6.619,13.421-6.053,15.558c1.543,1.47,7.994,7.087,11.26,9.938"/>
		
			<path fill="none" stroke="#724437" stroke-width="0.941" stroke-linecap="round" stroke-linejoin="round" stroke-miterlimit="10" d="
			M55.336,385.235c-3.703-3.553-7.682-9.624-9.029-14.118c-1.354-4.495,10.641-21.915,13.076-25.081
			c2.439-3.163,4.963,4.848,1.701,9.524c-3.258,4.677-6.619,13.421-6.053,15.558c1.543,1.47,7.994,7.087,11.26,9.938"/>
		<path fill="#E8BAA3" d="M57.352,385.105c-1.879-0.582-3.984-1.923-3.75-6.447c0.275-5.229-1.043-10.478-0.514-12.899
			c0.852-3.874,9.891-12.498,12.355-14.805c2.463-2.309,3.479,4.718,0.123,8.175c-3.355,3.459-4.848,6.153-4.666,8.014
			c0.086,0.88,1.271,7.239,1.857,10.13c5.207,0.987,11.434-0.02,16.018,5.316"/>
		
			<path fill="none" stroke="#724437" stroke-width="0.941" stroke-linecap="round" stroke-linejoin="round" stroke-miterlimit="10" d="
			M57.352,385.105c-1.879-0.582-3.984-1.923-3.75-6.447c0.275-5.229-1.043-10.478-0.514-12.899
			c0.852-3.874,9.891-12.498,12.355-14.805c2.463-2.309,3.479,4.718,0.123,8.175c-3.355,3.459-4.848,6.153-4.666,8.014
			c0.086,0.88,1.271,7.239,1.857,10.13c5.207,0.987,11.434-0.02,16.018,5.316"/>
		<path fill="#D3B15A" d="M89.576,403.55c0,0-1.199-9.759,7.221-15.227c8.418-5.47,9.715-5.946,12.611-4.853
			c2.891,1.089,9.096,9.641,9.096,9.641l-16.328,21.872C102.176,414.984,91.148,407.676,89.576,403.55"/>
		<path fill="none" stroke="#8E7338" stroke-width="0.957" stroke-miterlimit="10" d="M89.576,403.55c0,0-1.199-9.759,7.221-15.227
			c8.418-5.47,9.715-5.946,12.611-4.853c2.891,1.089,9.096,9.641,9.096,9.641l-16.328,21.872
			C102.176,414.984,91.148,407.676,89.576,403.55z"/>
		<path fill="#C19D4E" d="M103.553,413.141l-1.377,1.843c0,0-11.027-7.308-12.602-11.434c0,0-0.898-7.375,4.4-12.896
			C91.699,399.727,93.945,408.291,103.553,413.141"/>
		<path fill="#F2CF91" d="M114.26,398.795c-3.498-6.378-7.578-10.756-12.803-13.419c4.402-2.645,5.703-2.754,7.951-1.905
			c2.891,1.089,9.096,9.641,9.096,9.641L114.26,398.795z"/>
		<path fill="#FFDF99" d="M185.254,491.41c3.807-4.144,6.893-8.948,9.363-13.998c2.959-6.041,4.639-11.894,3.162-18.635
			c-1.08-4.931-2.768-9.604-4.688-14.267c-0.014-0.04-0.016-0.073-0.033-0.111c-0.787-0.464-1.59-0.914-2.412-1.347
			c-27.797-14.682-72.143-49.94-72.143-49.94s-5.969-3.281-12.854,4.893c-6.885,8.17-3.475,16.979-3.475,16.979
			c23.721,25.995,47.125,48.972,71.332,70.836C175.287,488.292,184.355,492.392,185.254,491.41"/>
		<path fill="none" stroke="#8E7338" stroke-width="0.957" stroke-miterlimit="10" d="M185.254,491.41
			c3.807-4.144,6.893-8.948,9.363-13.998c2.959-6.041,4.639-11.894,3.162-18.635c-1.08-4.931-2.768-9.604-4.688-14.267
			c-0.014-0.04-0.016-0.073-0.033-0.111c-0.787-0.464-1.59-0.914-2.412-1.347c-27.797-14.682-72.143-49.94-72.143-49.94
			s-5.969-3.281-12.854,4.893c-6.885,8.17-3.475,16.979-3.475,16.979c23.721,25.995,47.125,48.972,71.332,70.836
			C175.287,488.292,184.355,492.392,185.254,491.41z"/>
		<path fill="#FCE7BE" d="M197.271,456.76c-1.066-4.193-2.527-8.23-4.18-12.248c-0.014-0.039-0.016-0.075-0.033-0.113
			c-0.787-0.463-1.592-0.912-2.412-1.347c-27.797-14.683-72.143-49.94-72.143-49.94s-4.768-1.239-7.082,0.716
			c22.596,17.662,42.086,36.729,67.57,53.172C184.133,450.836,191.549,453.281,197.271,456.76"/>
		<path fill="#EFC97B" d="M102.246,411.055c0.105,2.814-0.07,3.929-0.07,3.929c19.494,21.363,44.816,46.368,66.658,66.741
			c-3.027-4.98-5.387-10.412-7.127-15.752C142.307,446.93,123.297,428.373,102.246,411.055"/>
		<path fill="#FFDF99" d="M172.748,485.285c4.363,4.256,11.064,7.206,17.012,8.191c3.332,0.55,11.131-4.7,11.691-7.384
			c7.271-34.753,23.436-97.787,19.395-125.265c5.27-18.825,14.35-40.139,25.861-63.036c0,0-34.75,8.082-48.488,7.273
			c-13.738-0.808-25.113,13.739-23.496,22.629c1.617,8.889,0.809,49.296-2.424,66.268c-1.961,10.3-1.387,30.119-2.615,49.529"/>
		<path fill="none" stroke="#8E7338" stroke-width="0.957" stroke-miterlimit="10" d="M172.748,485.285
			c4.363,4.256,11.064,7.206,17.012,8.191c3.332,0.55,11.131-4.7,11.691-7.384c7.271-34.753,23.436-97.787,19.395-125.265
			c5.27-18.825,14.35-40.139,25.861-63.036c0,0-34.75,8.082-48.488,7.273c-13.738-0.808-25.113,13.739-23.496,22.629
			c1.617,8.889,0.809,49.296-2.424,66.268c-1.961,10.3-1.387,30.119-2.615,49.529"/>
		<path fill="#EFC97B" d="M218.264,342.375c-7.143-3.353-8.434-0.852-16.029,3.604c10.131,9.751,10.979,15.082,6.818,31.967
			c-1.193,36.47-4.43,80.694-17.004,113.973c2.252,0.347,8.025-2.569,8.621-5.247c15.682-70.256,16.734-109.715,14.279-137.379
			L218.264,342.375z"/>
		<path fill="#FCE7BE" d="M198.219,305.065c-13.738-0.808-25.113,13.739-23.494,22.629c1.615,8.889,0.805,49.296-2.426,66.268
			c-2.17,11.381-1.24,34.387-3.074,55.619c0.619,3.249,1.482,6.497,2.465,9.743c11.049-46.104-0.637-85.751,9.832-133.613
			c0-3.051,1.525-7.626,4.576-9.153c20.27-2.701,38.154-7.793,57.877-12.103l2.732-6.663
			C246.707,297.792,211.957,305.874,198.219,305.065"/>
		<path fill="#BC7A55" d="M311.32,1115.94c-3.193-6.066-6.998-23.543-7.816-55.473c-0.82-31.928,4.092-72.953,4.092-88.418
			c0-82.686-8.563-97.619-13.826-128.16c-5.268-30.539-9.129-97.584-9.479-127.773c-0.352-30.188-8.424-85.301-8.424-85.301
			l-32.645-132.689l-31.719-4.599c-6.422,39.224-40.102,61.837-37.045,148.485c3.059,86.648,52.887,175.338,60.023,233.441
			c7.135,58.105,40.143,219.451,40.582,221.254c1.004,10.123,1.025,21.977-3.061,28.359c-9.238,14.436-28.781,42.121-37.91,47.037
			c-9.127,4.914-3.512,13.34,11.232,11.936c14.744-1.406,20.361,6.318,35.102-14.742c14.744-21.064,19.66-24.574,25.979-30.191
			C312.723,1133.491,318.338,1129.28,311.32,1115.94"/>
		
			<path fill="none" stroke="#724437" stroke-width="0.941" stroke-linecap="round" stroke-linejoin="round" stroke-miterlimit="10" d="
			M311.32,1115.94c-3.193-6.066-6.998-23.543-7.816-55.473c-0.82-31.928,4.092-72.953,4.092-88.418
			c0-82.686-8.563-97.619-13.826-128.16c-5.268-30.539-9.129-97.584-9.479-127.773c-0.352-30.188-8.424-85.301-8.424-85.301
			l-32.645-132.689l-31.719-4.599c-6.422,39.224-40.102,61.837-37.045,148.485c3.059,86.648,52.887,175.338,60.023,233.441
			c7.135,58.105,40.143,219.451,40.582,221.254c1.004,10.123,1.025,21.977-3.061,28.359c-9.238,14.436-28.781,42.121-37.91,47.037
			c-9.127,4.914-3.512,13.34,11.232,11.936c14.744-1.406,20.361,6.318,35.102-14.742c14.744-21.064,19.66-24.574,25.979-30.191
			C312.723,1133.491,318.338,1129.28,311.32,1115.94z"/>
		<path fill="#BC7A55" d="M441.537,1162.614c-8.365-6.691-12.77-23.719-20.314-39.172c-4.516-9.256-8.129-23.857-10.361-34.461
			c-0.631-2.141-2.543-7.475-6.637-40.438c-4.115-33.16-6.553-158.201-16.848-203.131c-10.299-44.934-14.041-70.207-12.17-172.24
			c1.664-90.674-32.156-134.772-46.934-172.375l-0.732-1.908c-1.529-4.05-2.826-8.032-3.816-11.996
			c-0.201,0.184-0.398,0.358-0.598,0.539l-0.066-0.173c-17.172,13.009-70.947,12.271-77.969,10.866
			c-7.021-1.404-8.426-0.937-10.295,3.743c-1.873,4.681-0.938,8.427-2.811,17.318c-1.486,7.067,5.014,9.99,13.15,11.13
			c-0.09,2.079-0.045,3.379-0.045,3.379l-1.871,19.657c-1.873,19.661,7.488,51.485,18.721,56.165l11.701,15.797
			c2.34,6.436,3.277,12.287,3.277,12.287c3.742,46.803,14.039,110.457,23.4,140.412c9.363,29.955,27.146,76.758,29.02,118.883
			c1.873,42.123,9.359,73.949,19.658,101.096c10.297,27.146,26.098,83.379,31.285,97.533c3.48,7.994,7.781,17.506,5.123,26.938
			c-4.223,14.992,2.359,18.039,9.953,22.355s10.195,13.869,17.887,29.766c5.441,11.242,29.805,11.645,38.809-0.727
			C454.4,1170.636,446.977,1166.968,441.537,1162.614"/>
		
			<path fill="none" stroke="#724437" stroke-width="0.941" stroke-linecap="round" stroke-linejoin="round" stroke-miterlimit="10" d="
			M441.537,1162.614c-8.365-6.691-12.77-23.719-20.314-39.172c-4.516-9.256-8.129-23.857-10.361-34.461
			c-0.631-2.141-2.543-7.475-6.637-40.438c-4.115-33.16-6.553-158.201-16.848-203.131c-10.299-44.934-14.041-70.207-12.17-172.24
			c1.664-90.674-32.156-134.772-46.934-172.375l-0.732-1.908c-1.529-4.05-2.826-8.032-3.816-11.996
			c-0.201,0.184-0.398,0.358-0.598,0.539l-0.066-0.173c-17.172,13.009-70.947,12.271-77.969,10.866
			c-7.021-1.404-8.426-0.937-10.295,3.743c-1.873,4.681-0.938,8.427-2.811,17.318c-1.486,7.067,5.014,9.99,13.15,11.13
			c-0.09,2.079-0.045,3.379-0.045,3.379l-1.871,19.657c-1.873,19.661,7.488,51.485,18.721,56.165l11.701,15.797
			c2.34,6.436,3.277,12.287,3.277,12.287c3.742,46.803,14.039,110.457,23.4,140.412c9.363,29.955,27.146,76.758,29.02,118.883
			c1.873,42.123,9.359,73.949,19.658,101.096c10.297,27.146,26.098,83.379,31.285,97.533c3.48,7.994,7.781,17.506,5.123,26.938
			c-4.223,14.992,2.359,18.039,9.953,22.355s10.195,13.869,17.887,29.766c5.441,11.242,29.805,11.645,38.809-0.727
			C454.4,1170.636,446.977,1166.968,441.537,1162.614z"/>
		<path fill="#D39479" d="M249.822,850.005c-1.322-19.85-9.662-36.195-18.814-53.162c-5.859,0.828-11.725,1.732-17.607,2.756
			c9.863,28.396,18.428,54.244,21.08,75.855c7.137,58.105,40.143,219.451,40.584,221.254c1.004,10.123,1.025,21.977-3.059,28.359
			c-7.125,11.131-20.379,30.139-30.258,40.512c5.988-3.223,4.865,0.291,17.064-9.865c12.203-10.154,26.68-39.799,23.922-52.209
			C263.922,1018.845,255.814,935.425,249.822,850.005"/>
		<path fill="#A06047" d="M307.596,972.05c0-82.686-8.563-97.619-13.826-128.16c-2.256-13.078-4.25-32.852-5.826-53.555
			c-4.414,0.465-2.75,2.766-7.148,3.225c0.035,31.73,6.717,59.344,14.482,90.412c16.484,65.938,1.23,134.291,5.729,200.229
			c0.871,13.094,0.605,17.686,7.799,24.758c-2.432-9.01-4.691-24.748-5.303-48.49C302.684,1028.54,307.596,987.515,307.596,972.05"
			/>
		<path fill="#A06047" d="M340.236,945.913c-5.672-58.482-6.484-97.41-29.973-157.352c-4.475,0.588-2.098-0.486-6.541,0.031
			c9.717,29.719,23.951,70.857,25.617,108.305c1.873,42.123,9.361,73.949,19.656,101.096c10.297,27.145,26.102,83.379,31.287,97.533
			c3.48,7.994,7.781,17.506,5.123,26.938c-3.109,11.045-0.35,15.602,4.352,18.967c3.322-11.525-0.6-25.01-3.951-37.58
			C375.316,1055.894,344.777,992.749,340.236,945.913"/>
		<path fill="#A06047" d="M410.861,1088.981c-0.631-2.141-2.543-7.473-6.637-40.439c-4.115-33.158-6.553-158.199-16.848-203.131
			c-5.445-23.76-9.059-42.027-10.977-69.051c-2.943,0.6-5.906,1.197-8.857,1.799c10.043,54.004,20.441,111.045,24.813,166.428
			c2.998,47.955,4.826,97.557,14.135,142.715c7.49,20.982,10.881,38.656,21.373,59.637c1.498,2.998,4.787,5.779,6.285,8.777
			c1.213,0.867,2.385,1.795,3.527,2.748c-6.045-8.168-10.16-22.133-16.453-35.021
			C416.707,1114.187,413.094,1099.585,410.861,1088.981"/>
		<path fill="#3986B3" d="M224.33,845.685c17.084,6.121,36.145,7.363,54.061,7.293c6.887-0.025,20.416-0.596,20.416-0.596
			l19.553-1.928c0,0,28.691-5.699,42.695-11.914c8.826-3.92,17.365-8.379,25.82-12.998c-7.193-35.475-9.502-66.258-7.92-152.301
			c1.318-72.07-19.191-114.458-35.678-148.515c-4.314-8.921-8.391-17.346-11.508-25.274l-0.725-1.885
			c-1.578-4.177-2.783-7.966-3.686-11.583l-1.529-6.115l-3.684,3.385l-1.346,1.021c-10.553,7.993-38.219,10.842-60.592,10.842
			c-8.119,0-13.049-0.396-14.383-0.663c-3.348-0.668-5.186-0.86-6.824-0.724l-27.498-3.293l-0.883,3.57
			c-3.164,12.762-9.301,23.284-15.344,36.107c-11.471,24.326-26.602,54.28-24.561,112.028c1.822,51.68,20.02,103.846,36.076,149.871
			C213.365,810.854,219.705,829.048,224.33,845.685"/>
		<path fill="#196B93" d="M318.359,850.452c0,0,28.693-5.695,42.693-11.912c8.826-3.92,17.367-8.379,25.824-13
			c-7.197-35.471-9.504-66.254-7.924-152.299c1.32-72.066-19.191-114.458-35.674-148.516c-1.297-2.681-2.566-5.313-3.803-7.904
			c-23.461,21.788-0.037,33.963-3.162,54.268c-5.334,34.674-13.063,45.137-76.002,60.123
			c-62.941,14.984,21.969,74.365,40.008,146.803s-54.805,41.973-21.93,74.965c6.887-0.029,20.416-0.594,20.416-0.594
			L318.359,850.452z"/>
		<path fill="#AF6822" d="M312.225,1168.159c1.016,3.133-2.447,4.492-8.162,2.857c-5.717-1.633-6.535-4.898-6.535-4.898l0.408-23.68
			l18.693-7.336C316.629,1135.103,307.734,1154.276,312.225,1168.159"/>
		<path fill="none" stroke="#89501B" stroke-width="0.521" stroke-miterlimit="10" d="M312.225,1168.159
			c1.016,3.133-2.447,4.492-8.162,2.857c-5.717-1.633-6.535-4.898-6.535-4.898l0.408-23.68l18.693-7.336
			C316.629,1135.103,307.734,1154.276,312.225,1168.159z"/>
		<path fill="#AF6822" d="M308.691,1110.368c-3.088,2.174-16.342,19.799-21.705,38.902c-5.367,19.104-20.652,22.643-25.348,23.068
			c-4.691,0.426-13.25-7.387-21.143-7.598c-7.891-0.215-14.736,7.51-17.508,11.561c-2.771,4.055-0.256,9.936,1.238,11.43
			c1.492,1.492,33.916,6.824,46.717-0.639c12.797-7.469,18.973-26.934,26.408-32.727s18.275-9.389,19.277-19.264
			C317.633,1125.229,313.273,1107.142,308.691,1110.368"/>
		<path fill="none" stroke="#89501B" stroke-width="0.521" stroke-miterlimit="10" d="M308.691,1110.368
			c-3.088,2.174-16.342,19.799-21.705,38.902c-5.367,19.104-20.652,22.643-25.348,23.068c-4.691,0.426-13.25-7.387-21.143-7.598
			c-7.891-0.215-14.736,7.51-17.508,11.561c-2.771,4.055-0.256,9.936,1.238,11.43c1.492,1.492,33.916,6.824,46.717-0.639
			c12.797-7.469,18.973-26.934,26.408-32.727s18.275-9.389,19.277-19.264C317.633,1125.229,313.273,1107.142,308.691,1110.368z"/>
		<path fill="#AF6822" d="M385.301,1167.022c-1.25,3.162,2.23,4.793,8.232,3.482s7.059-4.623,7.059-4.623l-1.77-24.447
			l-17.131-3.121C381.691,1138.313,390.842,1153.001,385.301,1167.022"/>
		<path fill="none" stroke="#89501B" stroke-width="0.539" stroke-miterlimit="10" d="M385.301,1167.022
			c-1.25,3.162,2.23,4.793,8.232,3.482s7.059-4.623,7.059-4.623l-1.77-24.447l-17.131-3.121
			C381.691,1138.313,390.842,1153.001,385.301,1167.022z"/>
		<path fill="#AF6822" d="M385.682,1113.286c3.889-1.143,4.35,6.531,13.418,25.752c4.354,13.059,12.695,29.018,27.203,33.801
			c5,0.775,15.539-9.035,23.5-6.113c4.525,1.66,10.67,11.189,10.18,16.346c-0.5,5.244-4.887,6.131-6.939,7.049
			c-2.072,0.922-21.75,5.002-34.959-3.859c-13.211-8.861-13.971-28.615-21.547-35.322c-7.578-6.707-13.928-7.041-16.336-17.414
			C378.787,1127.433,379.512,1115.101,385.682,1113.286"/>
		<path fill="none" stroke="#89501B" stroke-width="0.56" stroke-miterlimit="10" d="M385.682,1113.286
			c3.889-1.143,4.35,6.531,13.418,25.752c4.354,13.059,12.695,29.018,27.203,33.801c5,0.775,15.539-9.035,23.5-6.113
			c4.525,1.66,10.67,11.189,10.18,16.346c-0.5,5.244-4.887,6.131-6.939,7.049c-2.072,0.922-21.75,5.002-34.959-3.859
			c-13.211-8.861-13.971-28.615-21.547-35.322c-7.578-6.707-13.928-7.041-16.336-17.414
			C378.787,1127.433,379.512,1115.101,385.682,1113.286z"/>
		<path fill="#65BBE5" d="M197.371,718.128c-16.482-28.473-2.998-62.939,1.5-95.908c8.355-44.561,16.703-86.535,21.453-130.727
			l-8.82-1.056l-0.883,3.568c-3.164,12.763-9.301,23.285-15.344,36.108c-11.471,24.326-26.602,54.278-24.561,112.03
			c1.822,51.676,20.02,103.844,36.076,149.871c6.572,18.84,12.912,37.033,17.537,53.67c9.785,3.506,20.215,5.408,30.707,6.383
			c-0.486-6.184-1.189-12.365-2.217-18.547C243.828,790.062,219.848,757.093,197.371,718.128"/>
		<path fill="#FFDF99" d="M283.65,290.058c0,0-35.582,7.316-43.564,10.974c-7.98,3.658-17.625,31.592-22.611,47.554
			c-4.988,15.961,140.332,10.642,144.986,3.657c4.654-6.981,8.979-40.237-5.984-47.221
			C341.512,298.04,304.602,289.06,283.65,290.058"/>
		<path fill="#A0654B" d="M426.824,682.751c0.07,5.123,0.66,17.053-0.143,20.695c-0.801,3.641-10.279,12.744-12.6,14.914
			c-2.316,2.166-3.264-4.439-0.107-7.688c3.154-3.248,6.914-9.668,6.744-11.418s-0.625-8.74-3.232-11.904"/>
		<path fill="none" stroke="#724437" stroke-width="0.941" stroke-miterlimit="10" d="M426.824,682.751
			c0.07,5.123,0.66,17.053-0.143,20.695c-0.801,3.641-10.279,12.744-12.6,14.914c-2.316,2.166-3.264-4.439-0.107-7.688
			c3.154-3.248,6.914-9.668,6.744-11.418s-0.625-8.74-3.232-11.904"/>
		<path fill="#A0654B" d="M432.328,688.138c-0.369,6.049,0.045,17.561-1.227,21.783c-1.271,4.227-13.268,14.117-16.197,16.469
			c-2.928,2.352-3.455-5.527,0.561-9.076c4.012-3.549,9.02-10.793,8.979-12.869c-0.047-2.08,0.039-10.365-2.756-14.334"/>
		<path fill="none" stroke="#724437" stroke-width="0.941" stroke-miterlimit="10" d="M432.328,688.138
			c-0.369,6.049,0.045,17.561-1.227,21.783c-1.271,4.227-13.268,14.117-16.197,16.469c-2.928,2.352-3.455-5.527,0.561-9.076
			c4.012-3.549,9.02-10.793,8.979-12.869c-0.047-2.08,0.039-10.365-2.756-14.334"/>
		<path fill="#A0654B" d="M436.117,693.286c-0.783,6.012-1.43,21.557-2.988,25.682c-1.557,4.129-14.199,13.178-17.283,15.322
			c-3.082,2.146-3.07-5.75,1.178-9.018c4.246-3.268,9.738-10.146,9.836-12.225c0.1-2.078,0.75-10.338-1.764-14.488"/>
		<path fill="none" stroke="#724437" stroke-width="0.941" stroke-miterlimit="10" d="M436.117,693.286
			c-0.783,6.012-1.43,21.557-2.988,25.682c-1.557,4.129-14.199,13.178-17.283,15.322c-3.082,2.146-3.07-5.75,1.178-9.018
			c4.246-3.268,9.738-10.146,9.836-12.225c0.1-2.078,0.75-10.338-1.764-14.488"/>
		<path fill="#BC7A55" d="M422.533,652.616c0,0,3.178,16.799,8.258,23.051c5.08,6.248,9.186,11.547,8.965,17.605
			s0.828,25.814-0.338,30.066c-1.166,4.256-12.912,14.443-15.783,16.867c-2.865,2.424-3.59-5.439,0.334-9.088
			c3.926-3.646,8.752-11.012,8.654-13.088c-0.098-2.078-0.217-10.365-3.107-14.262s-7.555-7.697-12.766-10.416
			c-5.207-2.717-17.906-6.764-17.771-17.377c0.135-10.609,3.729-11.604,1.449-18.904
			C398.145,649.769,422.533,652.616,422.533,652.616"/>
		
			<path fill="none" stroke="#724437" stroke-width="0.941" stroke-linecap="round" stroke-linejoin="round" stroke-miterlimit="10" d="
			M422.533,652.616c0,0,3.178,16.799,8.258,23.051c5.08,6.248,9.186,11.547,8.965,17.605s0.828,25.814-0.338,30.066
			c-1.166,4.256-12.912,14.443-15.783,16.867c-2.865,2.424-3.59-5.439,0.334-9.088c3.926-3.646,8.752-11.012,8.654-13.088
			c-0.098-2.078-0.217-10.365-3.107-14.262s-7.555-7.697-12.766-10.416c-5.207-2.717-17.906-6.764-17.771-17.377
			c0.135-10.609,3.729-11.604,1.449-18.904C398.145,649.769,422.533,652.616,422.533,652.616z"/>
		<path fill="#BC7A55" d="M401.863,657.929c0,0-0.807,8.313-3.256,13.025c-2.443,4.713,1.691,11.441,1.162,16.725
			c-0.797,7.967-3.08,9.773-7.432,16.664c-2.752,4.355,6.24,4.154,9.658,0.488c3.816-4.09,6.842-9.691,7.223-13.217
			s6.992,1.42,6.992,1.42"/>
		
			<path fill="none" stroke="#724437" stroke-width="0.941" stroke-linecap="round" stroke-linejoin="round" stroke-miterlimit="10" d="
			M401.863,657.929c0,0-0.807,8.313-3.256,13.025c-2.443,4.713,1.691,11.441,1.162,16.725c-0.797,7.967-3.08,9.773-7.432,16.664
			c-2.752,4.355,6.24,4.154,9.658,0.488c3.816-4.09,6.842-9.691,7.223-13.217s6.992,1.42,6.992,1.42"/>
		<path fill="#CCA756" d="M393.924,633.548c0,0,4.475,21.318,6.053,23.818c1.58,2.502,23.234,0.262,22.973-3.293
			c-0.264-3.553-1.521-26.053-1.521-26.053L393.924,633.548z"/>
		<path fill="#B2904B" d="M422.949,654.073c-0.266-3.553-1.523-26.053-1.523-26.053l-7.854,1.582
			c2.176,0.59,1.119,4.408,3.885,4.408c-1.32,7.926-2.635,15.85,1.176,22.75C421.24,656.03,423.025,655.11,422.949,654.073"/>
		<path fill="#B2904B" d="M393.924,633.548c0,0,4.475,21.318,6.053,23.818l3.639,1.006c2.688-8.006-6.693-16.93-4.141-25.859
			L393.924,633.548z"/>
		<path fill="#FFDF99" d="M334.02,296.87c0,0,53.355,10.298,51.484,20.594s0.164,17.062,0.936,22.466
			c1.871,13.105,13.104,92.671,14.98,136.668c1.869,43.995,14.977,44.932,15.912,69.27c0.936,24.337,2.809,74.888,5.615,84.248
			s-24.539,9.928-29.02,8.424c-4.479-1.504-10.295-45.867-22.465-66.461c-12.168-20.595-10.297-58.038-14.975-75.823
			c-4.684-17.786-18.725-64.589-17.787-91.736"/>
		<path fill="#EFC97B" d="M373.998,542.598c-13.488-35.965-11.988-71.932-19.482-110.895c-4.494-19.482-5.994-41.961,11.99-55.448
			c-9.32,6.659-22.182,6.196-29.139-2.399l1.332,30.664c-0.936,27.143,13.105,73.95,17.789,91.734
			c4.676,17.786,2.805,55.229,14.975,75.823c12.172,20.594,17.986,64.957,22.465,66.461c0.975,0.328,3.033,0.557,5.627,0.617
			c0.344-6.209-1.008-12.42-3.078-18.631C390.48,593.552,382.988,568.073,373.998,542.598"/>
		<path fill="#EFC97B" d="M376.994,319.309c2.998,1.499-1.498,5.993-5.994,7.493c4.496,7.493,8.992,16.484,10.492,25.477
			c14.984,64.437-4.498,128.878,26.973,188.821c15.549,28.51-6.99,67.1,6.973,96.401c5.027-1.369,8.619-3.691,7.512-7.387
			c-2.811-9.359-4.682-59.91-5.617-84.248c-0.936-24.338-14.043-25.274-15.914-69.271c-1.875-43.995-13.107-123.562-14.977-136.667
			c-0.773-5.404-2.809-12.17-0.938-22.466L376.994,319.309z"/>
		<path fill="#FCE7BE" d="M385.504,317.463c1.871-10.297-51.484-20.594-51.484-20.594l0.248,5.689
			c14.545,5.322,29.758,7.671,42.729,16.75"/>
		<path fill="#FFDF99" d="M342.506,343.359c-3.482,15.507,10.023,33.586,7.264,54c-2.76,20.416-17.258,28.769-19.465,37.597
			s-5.178,61.008,12.535,85.796c0,6.069-39.887,31.881-78.248,28.545c-10.844,0-17.682-26.573-17.682-26.573
			s-15.98,21.997-21.514,24.072c-5.533,2.073-30.689-14.175-28.354-20.015c10.006-25.02,17.91-46.185,18.627-59.286
			c0.57-10.454,3.252-33.24-12.75-46.484c-16.002-13.242-18.762-32.004-7.725-52.971c11.033-20.969,28.691-28.693,28.691-38.624"/>
		<path fill="none" stroke="#8E7338" stroke-width="0.957" stroke-miterlimit="10" d="M342.506,343.359
			c-3.482,15.507,10.023,33.586,7.264,54c-2.76,20.416-17.258,28.769-19.465,37.597s-5.178,61.008,12.535,85.796
			c0,6.069-39.887,31.881-78.248,28.545c-10.844,0-17.682-26.573-17.682-26.573s-15.98,21.997-21.514,24.072
			c-5.533,2.073-30.689-14.175-28.354-20.015c10.006-25.02,17.91-46.185,18.627-59.286c0.57-10.454,3.252-33.24-12.75-46.484
			c-16.002-13.242-18.762-32.004-7.725-52.971c11.033-20.969,28.691-28.693,28.691-38.624"/>
		<path fill="#EFC97B" d="M348.764,402.422c-8.303,12.005-20.266,21.361-34.709,23.286c-41.92,7.228-100.561,14.438-124.836-26.756
			c1.602,8.342,6.162,15.819,13.701,22.057c16.002,13.243,14.236,34.168,13.098,44.575c-2.604,23.778-13.811,50.653-19.266,63
			c13.031-14.977,31.045-71.244,22.891-93.885c26.975,19.482,74.932-11.99,97.41,7.492c16.209,14.862,1.973,40.677-19.654,54.405
			c8.465,17.651,42.65,13.099,32.6,35.334c6.824-3.391,10.578-7.149,12.611-11.109c-18.463-32.282-14.508-77.038-12.305-85.867
			C332.32,426.9,344.537,419.209,348.764,402.422"/>
		<path fill="none" stroke="#8E7338" stroke-width="0.957" stroke-miterlimit="10" d="M247.252,522.741
			c-1.328-14.825-2.543-32.655-2.697-39.93c-0.221-10.308,4.965-35.314-0.551-44.696c-5.518-9.38-12.693-28.694-9.381-41.383
			c3.309-12.69,24.279-36.97,26.484-49.109"/>
		<path fill="#3D4447" d="M251.59,147.029l-24.564,0.092c0,0-0.365,9.355-0.547,11.627s9.719-3.361,10.988-5.086
			c1.273-1.728,10.723-3.545,12.264-3.635C250.396,148.478,251.59,147.029,251.59,147.029"/>
		<path fill="#470E02" d="M317.639,291.721c0,0,32.996-1.405,33.699-15.446c0.701-14.042-16.852-24.571-9.828-24.571
			c7.02,0,19.656,1.405,16.146-11.936c-3.512-13.338-23.871-18.252-1.406-25.273c22.467-7.021,55.465-4.212,53.357-58.975
			c-1.182-30.771-40.939-120.333-98.988-121.023c-58.975-0.703-48.443,18.253-65.293,30.89
			c-16.848,12.638-34.521,17.37-18.252,54.195c20.148,45.611-1.406,99.827,5.615,113.867c7.021,14.041,18.955,11.936,11.232,31.594
			c-7.723,19.659,10.531,40.017,23.871,30.189C281.133,285.403,317.639,291.721,317.639,291.721"/>
		<path fill="#E8BAA3" d="M260.041,242.172c0,0,9.643,30.261-1,51.877c-13.541,27.507-3.99,21.282-1.994,33.253
			c1.994,11.972,4.061,20.32,4.061,20.32s19.215-30.629,25.865-35.285c6.652-4.655,25.941-26.935,25.941-26.935
			c-13.186-13.146-12.197-31.151-1.332-52.541L260.041,242.172z"/>
		
			<path fill="none" stroke="#724437" stroke-width="0.941" stroke-linecap="round" stroke-linejoin="round" stroke-miterlimit="10" d="
			M260.041,242.172c0,0,9.643,30.261-1,51.877c-13.541,27.507-3.99,21.282-1.994,33.253c1.994,11.972,4.061,20.32,4.061,20.32
			s19.215-30.629,25.865-35.285c6.652-4.655,25.941-26.935,25.941-26.935c-13.186-13.146-12.197-31.151-1.332-52.541
			L260.041,242.172z"/>
		<path fill="#CC9881" d="M273.762,266.898c5.385,0.347,19.209-9.061,32.688-22.094c1.326-3.85,3.047-7.834,5.133-11.942
			l-51.541,9.311c0,0,2.234,7.035,3.363,16.734C267.158,263.774,270.652,266.698,273.762,266.898"/>
		<path fill="#470E02" d="M246.729,70.221c0,0-20.359-1.053-27.729,21.765c-7.371,22.815,3.861,46.335,15.797,50.897
			C246.729,147.447,246.729,70.221,246.729,70.221"/>
		<path fill="#E8BAA3" d="M290.959,61.446c-38.391,0-62.482,13.339-60.727,43.526c1.754,30.189,10.18,31.242,3.861,49.846
			c-6.32,18.605-10.533,28.189-1.756,48.443c14.957,34.513,30.539,54.058,41.424,54.76c10.879,0.703,56.162-29.485,63.535-57.92
			c7.371-28.434,18.252-71.961,10.531-97.234C340.105,77.592,328.17,61.446,290.959,61.446"/>
		
			<path fill="none" stroke="#724437" stroke-width="0.941" stroke-linecap="round" stroke-linejoin="round" stroke-miterlimit="10" d="
			M290.959,61.446c-38.391,0-62.482,13.339-60.727,43.526c1.754,30.189,10.18,31.242,3.861,49.846
			c-6.32,18.605-10.533,28.189-1.756,48.443c14.957,34.513,30.539,54.058,41.424,54.76c10.879,0.703,56.162-29.485,63.535-57.92
			c7.371-28.434,18.252-71.961,10.531-97.234C340.105,77.592,328.17,61.446,290.959,61.446z"/>
		<path fill="#E8BAA3" d="M266.973,150.372c0.586,5.97,0.232,25.978-9.244,32.297c-9.477,6.318,0.234,8.541,5.5,9.127
			c5.266,0.584,13.572-0.352,15.447-2.108"/>
		
			<path fill="none" stroke="#724437" stroke-width="0.941" stroke-linecap="round" stroke-linejoin="round" stroke-miterlimit="10" d="
			M266.973,150.372c0.586,5.97,0.232,25.978-9.244,32.297c-9.477,6.318,0.234,8.541,5.5,9.127
			c5.266,0.584,13.572-0.352,15.447-2.108"/>
		<path fill="#A53D3D" d="M270.422,221.488c-5.016-0.242-12.791-4.522-13.199-8.692l27.758-0.548
			C284.98,212.248,282.336,222.067,270.422,221.488"/>
		<path fill="#7F0A0A" d="M288.355,210.662c0.764-0.18-2.086,4.458-19.832,3.541c-17.742-0.915-17.277-4.452-17.277-4.452
			s4.137,1.34,7.531-0.626c3.27-1.894,8.1-1.715,13.955-0.88C278.586,209.082,282.48,212.054,288.355,210.662"/>
		<path fill="#571B01" d="M319.133,159.165c0,0-4.973-10.314-14.553-8.841c-9.578,1.47-16.549,9.683-16.289,10.867
			c0.262,1.188,2.564,5.712,15.414,4.606C316.557,164.692,318.213,161.191,319.133,159.165"/>
		<path fill="#FFFFFF" d="M319.133,159.165c0,0-7.186-6.261-16.764-4.787c-9.58,1.472-14.338,5.629-14.078,6.813
			c0.262,1.188,2.564,5.712,15.414,4.606C316.557,164.692,318.213,161.191,319.133,159.165"/>
		<g>
			<defs>
				<path id="SVGID_3_" d="M302.369,154.377c-9.58,1.472-14.34,5.629-14.078,6.813c0.262,1.188,2.564,5.711,15.414,4.606
					c12.852-1.106,14.51-4.606,15.43-6.633c0,0-5.756-5.01-13.826-5.01C304.357,154.155,303.377,154.223,302.369,154.377"/>
			</defs>
			<clipPath id="SVGID_4_">
				<use xlink:href="#SVGID_3_"  overflow="visible"/>
			</clipPath>
			<path clip-path="url(#SVGID_4_)" fill="#BC682A" d="M298.318,159.184c0,4.679,3.793,8.473,8.473,8.473s8.475-3.794,8.475-8.473
				c0-4.68-3.795-8.474-8.475-8.474S298.318,154.504,298.318,159.184"/>
			<path clip-path="url(#SVGID_4_)" fill="#713213" d="M302.199,159.184c0,2.536,2.055,4.592,4.592,4.592s4.592-2.056,4.592-4.592
				c0-2.538-2.055-4.592-4.592-4.592S302.199,156.646,302.199,159.184"/>
			<path clip-path="url(#SVGID_4_)" fill="#FFFFFF" d="M308.484,157.323c0,1.12,0.908,2.025,2.027,2.025s2.025-0.905,2.025-2.025
				c0-1.119-0.906-2.025-2.025-2.025S308.484,156.204,308.484,157.323"/>
		</g>
		<path fill="#571B01" d="M234.846,157.877c0,0,4.605-9.545,13.469-8.183c8.861,1.361,15.311,8.96,15.07,10.057
			c-0.242,1.099-2.373,5.285-14.262,4.262C237.23,162.99,235.699,159.751,234.846,157.877"/>
		<path fill="#FFFFFF" d="M234.846,157.877c0,0,6.648-5.793,15.512-4.432c8.865,1.363,13.268,5.209,13.027,6.306
			c-0.242,1.099-2.373,5.285-14.262,4.262C237.23,162.99,235.699,159.751,234.846,157.877"/>
		<g>
			<defs>
				<path id="SVGID_5_" d="M234.846,157.877c0.854,1.874,2.387,5.112,14.277,6.136c11.889,1.023,14.02-3.164,14.262-4.262
					c0.24-1.097-4.162-4.942-13.027-6.305c-0.932-0.144-1.84-0.207-2.717-0.207C240.17,153.24,234.846,157.877,234.846,157.877"/>
			</defs>
			<clipPath id="SVGID_6_">
				<use xlink:href="#SVGID_5_"  overflow="visible"/>
			</clipPath>
			<path clip-path="url(#SVGID_6_)" fill="#BC682A" d="M244.449,157.894c0,4.329,3.512,7.841,7.842,7.841s7.84-3.512,7.84-7.841
				c0-4.332-3.51-7.842-7.84-7.842S244.449,153.562,244.449,157.894"/>
			<path clip-path="url(#SVGID_6_)" fill="#713213" d="M248.043,157.894c0,2.347,1.9,4.248,4.248,4.248s4.248-1.901,4.248-4.248
				c0-2.348-1.9-4.25-4.248-4.25S248.043,155.546,248.043,157.894"/>
			<path clip-path="url(#SVGID_6_)" fill="#FFFFFF" d="M253.859,156.172c0,1.034,0.838,1.876,1.873,1.876
				c1.037,0,1.877-0.842,1.877-1.876c0-1.035-0.84-1.876-1.877-1.876C254.697,154.296,253.859,155.137,253.859,156.172"/>
		</g>
		<path fill="#470E02" d="M326.531,142.473c-1.582-2.239-6.656-8.803-14.977-8c-8.32,0.801-15.998,3.191-16.111,5.864
			c-0.113,2.671,4.256,1.334,9.453,0c5.203-1.337,13.105-2.405,16.436-0.27C324.66,142.208,328.113,144.714,326.531,142.473"/>
		<path fill="#CC9881" d="M337.033,188.931c-2.633,34.433-57.945,70.936-68.709,65.669c-0.715-0.348-1.611-0.213-2.449-0.462
			c2.9,2.006,5.615,3.113,8.064,3.271c10.881,0.702,56.164-29.486,63.537-57.919L337.033,188.931z"/>
		<path fill="#CC9881" d="M288.152,86.449c-7.02,5.616-8.426-4.214-12.637-5.616c-22.701-6.677-37.775,18.39-42.82,38.979
			c6.096-4.522,11.93-11.6,11.93-11.6l15.055-16.365c5.738-1.832,11.887-1.451,13.729,1.623c4.709,7.848,15.445,10.528,29.488-0.705
			c14.039-11.232,21.764,2.432,17.551,16.473c-4.213,14.043-0.701,17.877,7.721,19.281c8.426,1.404,18.256,24.193,14.043,32.618
			c0,0,1.82,1.877,10.131-6.907c-2.527-26.728-17.352-36.815-23.471-62.165C323.252,73.811,303.598,75.216,288.152,86.449"/>
		<path fill="#CC9881" d="M237.953,206.069c-14.391-34.751-3.992-33.465-0.762-54.626c2.961-19.422,0.41-13.474-1.342-43.662
			c-0.295-5.019,0.145-9.561,1.227-13.664c-1.986,1.363-4.195,2.4-6.684,3.02c-0.26,2.476-0.318,5.085-0.16,7.836
			c1.754,30.189,10.178,31.242,3.859,49.846c-6.318,18.605-10.531,28.189-1.752,48.443c13.867,32.006,28.273,51.125,38.973,54.298
			C261.316,250.652,249.109,233.002,237.953,206.069"/>
		<path fill="#470E02" d="M259.971,143.351c2.949,1.812,4.992-1.946,1.662-4.351c-3.326-2.403-10.402-3.191-15.186-2.923
			c-4.783,0.265-9.566,3.725-10.609,6.129c-1.039,2.405,1.553-0.677,3.537-1.335C245.408,138.869,252.688,138.887,259.971,143.351"
			/>
		<path fill="#470E02" d="M245.326,59.392c0,0-37.209,17.741-26.33,47.578c10.885,29.838,25.629-4.563,25.629-4.563l16.146-17.552
			L245.326,59.392z"/>
		<path fill="#4F1911" d="M273.408,87.664c4.709,7.849,15.445,10.53,29.486-0.702s21.768-6.561,17.553,7.481
			c-4.213,14.04-0.701,23.87,7.721,25.272c8.426,1.404,18.256,30.191,14.043,38.613c-4.213,8.425-1.406,16.149-1.406,16.149
			s4.916-21.766,18.256-28.083c13.336-6.317,4.914-47.038-8.428-49.846c-13.336-2.809,15.447,2.348,4.916-22.223
			c-10.531-24.573-20.357-40.019-49.143-43.528c-28.785-3.511-59.678,11.232-61.08,31.592c-1.402,20.36,5.617,27.381,11.936,24.572
			S271.303,84.153,273.408,87.664"/>
		<path fill="#C19D4E" d="M307.264,272.939c0,0,28.328,20.235,27.855,28.521c-0.479,8.286-3.457,27.402-13.945,31.522
			c-8.039,3.158-8.199-21.144-20.889-16.177c-12.691,4.965-34.84,24.457-39.254,31.631c0,0,26.01-50.945,41.459-56.462
			c3.412-0.789,11.227-5.31,8.393-8.685C308.762,280.766,307.568,275.678,307.264,272.939"/>
		<path fill="#C19D4E" d="M263.031,282.583c-0.332,16.625-14.047,23.255-3.027,41.947c0,0,3.234,15.742,1.027,24.569
			c0,0-4.889-20.706-13.719-24.569c-8.826-3.862-17.658,10.483-17.658,10.483s1.658-36.417,14.9-46.349
			C257.797,278.732,263.031,282.583,263.031,282.583"/>
		<path fill="#C6C6C6" d="M263.031,278.086c-0.332,16.627-14.047,23.254-3.027,41.947c0,0,3.311,18.76,1.104,27.59
			c0,0-4.965-23.727-13.795-27.59c-8.826-3.861-17.658,10.482-17.658,10.482s1.658-36.414,14.9-46.348
			S263.031,278.086,263.031,278.086"/>
		
			<path fill="none" stroke="#575A5B" stroke-width="0.957" stroke-linecap="round" stroke-linejoin="round" stroke-miterlimit="10" d="
			M263.031,278.086c-0.332,16.627-14.047,23.254-3.027,41.947c0,0,3.311,18.76,1.104,27.59c0,0-4.965-23.727-13.795-27.59
			c-8.826-3.861-17.658,10.482-17.658,10.482s1.658-36.414,14.9-46.348S263.031,278.086,263.031,278.086z"/>
		<path fill="#DEE0E2" d="M262.605,277.862c-1.461-0.655-6.918-2.043-18.051,6.307c-13.242,9.932-14.9,46.35-14.9,46.35
			s7.879-12.791,16.191-10.955C244.777,304.456,251.592,289.125,262.605,277.862"/>
		<path fill="#C6C6C6" d="M262.605,277.862c-11.014,11.263-17.828,26.594-16.76,41.701c0.488,0.106,0.979,0.256,1.469,0.471
			c8.828,3.861,13.793,27.589,13.793,27.589c2.207-8.829-1.104-27.589-1.104-27.589c-11.018-18.693,2.695-25.32,3.027-41.947
			C263.031,278.086,262.881,277.985,262.605,277.862"/>
		<path fill="#C6C6C6" d="M304.268,268.443c0,0,30.701,11.853,30.227,20.139c-0.475,8.289-6.619,35.867-14.348,39.729
			c-7.723,3.861-7.172-20.968-19.861-16.002c-12.691,4.966-34.764,28.142-39.178,35.313c0,0,25.934-54.626,41.385-60.143
			c3.41-0.789,8.227-5.31,5.391-8.684C305.766,276.272,304.57,271.183,304.268,268.443"/>
		
			<path fill="none" stroke="#575A5B" stroke-width="0.957" stroke-linecap="round" stroke-linejoin="round" stroke-miterlimit="10" d="
			M304.268,268.443c0,0,30.701,11.853,30.227,20.139c-0.475,8.289-6.619,35.867-14.348,39.729
			c-7.723,3.861-7.172-20.968-19.861-16.002c-12.691,4.966-34.764,28.142-39.178,35.313c0,0,25.934-54.626,41.385-60.143
			c3.41-0.789,8.227-5.31,5.391-8.684C305.766,276.272,304.57,271.183,304.268,268.443z"/>
		<path fill="#DEE0E2" d="M304.518,268.99c0.299,2.69,1.469,7.686,3.553,10.165c0.746,0.891,0.939,1.863,0.775,2.825
			c1.217,2.812,2.135,6.259,0.867,7.526c-7.957,6.364-8.596,14.023-7.273,22.041c10.584-1.887,10.48,19.82,17.67,16.225
			c7.586-3.792,13.621-30.871,14.088-39.009C334.662,280.628,304.518,268.99,304.518,268.99"/>
		<path fill="#C6C6C6" d="M309.559,289.337c1.291-1.291,0.357-4.801-0.885-7.665c-0.457,2.659-3.691,5.229-6.182,5.808
			c-15.451,5.517-41.385,60.143-41.385,60.143c4.414-7.173,26.486-30.348,39.178-35.313c0.658-0.259,1.273-0.417,1.865-0.522
			C300.805,303.622,301.455,295.822,309.559,289.337"/>
		<g opacity="0.3">
			<g>
				<defs>
					<rect id="SVGID_7_" x="326.875" y="153.023" width="25.113" height="12.251"/>
				</defs>
				<clipPath id="SVGID_8_">
					<use xlink:href="#SVGID_7_"  overflow="visible"/>
				</clipPath>
				<path clip-path="url(#SVGID_8_)" d="M351.994,153.023l-24.564,0.093c0,0-0.363,9.355-0.547,11.626
					c-0.18,2.272,9.721-3.362,10.99-5.086c1.271-1.727,10.721-3.545,12.264-3.635C350.801,154.471,351.994,153.023,351.994,153.023"
					/>
			</g>
		</g>
		<g opacity="0.3">
			<g>
				<defs>
					<rect id="SVGID_9_" x="230.244" y="145.957" width="97.633" height="26.634"/>
				</defs>
				<clipPath id="SVGID_10_">
					<use xlink:href="#SVGID_9_"  overflow="visible"/>
				</clipPath>
				<path clip-path="url(#SVGID_10_)" fill="none" stroke="#000000" stroke-width="0.957" stroke-miterlimit="10" d="
					M235.244,146.717c9.209-0.072,18.563,0.569,28.072,2.017c1.314,0.075,2.309,1.391,2.221,2.938
					c0.186,4.176-1.057,8.513-1.977,13.766c-0.094,1.618-1.328,2.835-2.695,2.651c-11.072,0.273-21.213-0.977-30.406-3.771"/>
				<path clip-path="url(#SVGID_10_)" fill="none" stroke="#000000" stroke-width="0.957" stroke-miterlimit="10" d="
					M285.154,169.709c11.609,1.615,28.875,3.197,38.779,1.162c1.256-0.022,2.299-1.191,2.387-2.67
					c0.467-3.275,0.859-9.845,0.807-14.193c0.086-1.548-0.906-2.865-2.221-2.94c-10.785-1.642-28.543-1.295-39.986-0.868
					c-1.316-0.077-2.453,1.118-2.539,2.668c-0.662,4.126,0.082,8.578,0.398,13.898C282.689,168.386,283.777,169.735,285.154,169.709
					z"/>
				<path clip-path="url(#SVGID_10_)" fill="none" stroke="#000000" stroke-width="0.957" stroke-miterlimit="10" d="
					M265.65,153.145c0,0,1.016-3.715,7.117-3.722c6.102-0.004,9.225,8.423,9.225,8.423"/>
			</g>
		</g>
		<path fill="#4D585E" d="M351.994,151.526l-24.564,0.091c0,0-0.363,9.356-0.547,11.625c-0.18,2.272,9.721-3.36,10.99-5.084
			c1.271-1.727,10.721-3.545,12.264-3.635C350.801,152.971,351.994,151.526,351.994,151.526"/>
		<g opacity="0.24">
			<g>
				<defs>
					<rect id="SVGID_11_" x="226.781" y="145.753" width="100.344" height="25.114"/>
				</defs>
				<clipPath id="SVGID_12_">
					<use xlink:href="#SVGID_11_"  overflow="visible"/>
				</clipPath>
				<path clip-path="url(#SVGID_12_)" fill="#F2F2F2" d="M260.869,167.127c-11.717,0.29-22.389-1.126-31.994-4.271
					c-1.248-0.167-2.15-1.444-2.068-2.925c-0.094-3.306,0.104-7.072,0.648-11.39c0.088-1.548,1.225-2.742,2.541-2.667
					c10.9-0.405,21.998,0.177,33.32,1.897c1.316,0.074,2.307,1.391,2.221,2.94c0.186,4.175-1.057,8.513-1.977,13.761
					C263.467,166.095,262.232,167.309,260.869,167.127"/>
				<path clip-path="url(#SVGID_12_)" fill="#F2F2F2" d="M285.154,168.748c11.609,1.617,28.875,3.198,38.779,1.164
					c1.256-0.024,2.299-1.192,2.387-2.672c0.467-3.274,0.859-9.846,0.807-14.194c0.086-1.547-0.906-2.862-2.221-2.938
					c-10.785-1.644-28.543-1.296-39.986-0.869c-1.316-0.076-2.453,1.116-2.539,2.666c-0.662,4.127,0.082,8.579,0.398,13.899
					C282.689,167.424,283.777,168.773,285.154,168.748"/>
			</g>
		</g>
		<path fill="none" stroke="#4D585E" stroke-width="0.957" stroke-miterlimit="10" d="M260.869,167.127
			c-11.717,0.29-22.389-1.126-31.994-4.271c-1.248-0.167-2.15-1.444-2.068-2.925c-0.094-3.306,0.104-7.072,0.648-11.39
			c0.088-1.548,1.225-2.742,2.541-2.667c10.9-0.405,21.998,0.177,33.32,1.897c1.316,0.074,2.307,1.391,2.221,2.94
			c0.186,4.175-1.057,8.513-1.977,13.761C263.467,166.095,262.232,167.309,260.869,167.127z"/>
		<path fill="none" stroke="#4D585E" stroke-width="0.957" stroke-miterlimit="10" d="M285.154,168.748
			c11.609,1.617,28.875,3.198,38.779,1.164c1.256-0.024,2.299-1.192,2.387-2.672c0.467-3.274,0.859-9.846,0.807-14.194
			c0.086-1.547-0.906-2.862-2.221-2.938c-10.785-1.644-28.543-1.296-39.986-0.869c-1.316-0.076-2.453,1.116-2.539,2.666
			c-0.662,4.127,0.082,8.579,0.398,13.899C282.689,167.424,283.777,168.773,285.154,168.748z"/>
		<path fill="none" stroke="#4D585E" stroke-width="0.957" stroke-miterlimit="10" d="M265.65,152.184c0,0,1.016-3.715,7.117-3.721
			c6.102-0.005,9.225,8.422,9.225,8.422"/>
		<path fill="#E8BAA3" d="M344.807,161.557c2.215-3.951,12.484-19.17,17.701-9.841c5.219,9.331,3.488,31.032-5.84,34.511
			c-9.33,3.477-3.322,9.962-8.695,15.337c-5.379,5.377-9.895-0.369-10.684-4.641"/>
		
			<path fill="none" stroke="#724437" stroke-width="0.941" stroke-linecap="round" stroke-linejoin="round" stroke-miterlimit="10" d="
			M344.807,161.557c2.215-3.951,12.484-19.17,17.701-9.841c5.219,9.331,3.488,31.032-5.84,34.511
			c-9.33,3.477-3.322,9.962-8.695,15.337c-5.379,5.377-9.895-0.369-10.684-4.641"/>
		<path fill="#E8BAA3" d="M352.256,165.583c8.607-3.777,9.441,11.606-1.049,13.854c-5.881,1.26-10.705,6.507-10.496,11.755"/>
		
			<path fill="none" stroke="#724437" stroke-width="0.941" stroke-linecap="round" stroke-linejoin="round" stroke-miterlimit="10" d="
			M352.256,165.583c8.607-3.777,9.441,11.606-1.049,13.854c-5.881,1.26-10.705,6.507-10.496,11.755"/>
	</g>
</g>
</svg>
