<?xml version="1.0" encoding="utf-8"?>
<!-- Generator: Adobe Illustrator 16.0.0, SVG Export Plug-In . SVG Version: 6.00 Build 0)  -->
<!DOCTYPE svg PUBLIC "-//W3C//DTD SVG 1.1//EN" "http://www.w3.org/Graphics/SVG/1.1/DTD/svg11.dtd">
<svg version="1.1" id="Capa_1" xmlns="http://www.w3.org/2000/svg" xmlns:xlink="http://www.w3.org/1999/xlink" x="0px" y="0px"
	 width="235px" height="376.087px" viewBox="0 0 235 376.087" enable-background="new 0 0 235 376.087" xml:space="preserve">
<g>
	<image overflow="visible" width="235" height="88" xlink:href="8636622E.png"  transform="matrix(1 0 0 1 0 288.0874)">
	</image>
	<path fill="#1E2133" d="M124.244,92.142c0,2.986,3.632,5.407,8.112,5.407s9.46-5.884,9.46-8.871c0-2.987-6.635-1.615-11.115-1.615
		S124.244,89.154,124.244,92.142"/>
	<path fill="none" stroke="#52586D" stroke-width="1.208" stroke-miterlimit="10" d="M124.244,92.142
		c0,2.986,3.632,5.407,8.112,5.407s9.46-5.884,9.46-8.871c0-2.987-6.635-1.615-11.115-1.615S124.244,89.154,124.244,92.142z"/>
	<path fill="#C1716B" d="M97.311,85.308c0,0.966,0.822,1.748,1.837,1.748c1.017,0,1.839-0.782,1.839-1.748
		c0-0.965-0.822-1.748-1.839-1.748C98.133,83.56,97.311,84.342,97.311,85.308"/>
	
		<ellipse fill="none" stroke="#BA645D" stroke-width="1.208" stroke-miterlimit="10" cx="99.148" cy="85.308" rx="1.838" ry="1.748"/>
	<path fill="#FFC691" d="M84.838,101.525c0,0-12.585,25.824-13.148,27.29c-0.564,1.466-7.556,17.287-8.232,18.848
		c-0.676,1.562-13.072,6.531-16.32,19.396c0.338,1.812,6.623,3.366,7.073,2.915c0.451-0.451,8.319-1.374,8.319-1.374
		s7.355-6.262,7.694-11.184c0.811-3.875,2.479-5.259,2.932-5.598c0.451-0.338,10.601-14.997,13.08-17.929
		c2.481-2.933,5.802-17.592,6.228-18.043c0.425-0.451,3.133-10.825,3.246-11.163c0.112-0.339-1.459-3.158-1.459-3.158H84.838z"/>
	<path fill="none" stroke="#F1B486" stroke-width="1.208" stroke-miterlimit="10" d="M84.838,101.525
		c0,0-12.585,25.824-13.148,27.29c-0.564,1.466-7.556,17.287-8.232,18.848c-0.676,1.562-13.072,6.531-16.32,19.396
		c0.338,1.812,6.623,3.366,7.073,2.915c0.451-0.451,8.319-1.374,8.319-1.374s7.355-6.262,7.694-11.184
		c0.811-3.875,2.479-5.259,2.932-5.598c0.451-0.338,10.601-14.997,13.08-17.929c2.481-2.933,5.802-17.592,6.228-18.043
		c0.425-0.451,3.133-10.825,3.246-11.163c0.112-0.339-1.459-3.158-1.459-3.158H84.838z"/>
	<path fill="#6D6E71" d="M84.442,173.509c0,0-2.058,1.742-2.903,0.317c-0.843-1.425-0.479-3.641,0.737-5.54
		c1.217-1.899,2.481-4.327,2.641-4.484c0.159-0.159,1.108-3.693,1.108-3.693l1.952-2.691c0,0,0.728,3.058,0.603,3.218
		c-0.146,0.187-1.998,10.917-3.563,12.322L84.442,173.509z"/>
	<path fill="#FFC691" d="M134.302,63.927c0,0-6.108,23.742-4.37,26.317c1.742,2.574-3.231,22.069-8.582,22.621
		c-5.355,0.552-17.424-7.602-17.861-10.9c-0.438-3.299,1.914-8.811,3.146-10.217c1.233-1.405,4.077-12.406,4.364-14.403
		c0.286-1.997,0.741-9.026,1.061-9.747C112.377,66.875,132.826,56.309,134.302,63.927"/>
	<path fill="none" stroke="#F1B486" stroke-width="1.208" stroke-miterlimit="10" d="M134.302,63.927c0,0-6.108,23.742-4.37,26.317
		c1.742,2.574-3.231,22.069-8.582,22.621c-5.355,0.552-17.424-7.602-17.861-10.9c-0.438-3.299,1.914-8.811,3.146-10.217
		c1.233-1.405,4.077-12.406,4.364-14.403c0.286-1.997,0.741-9.026,1.061-9.747C112.377,66.875,132.826,56.309,134.302,63.927z"/>
	<path fill="#F1B486" d="M129.884,69.05c0,0-3.376,13.798-4.599,15.798s-2.408,2.234-2.674,5.01
		c-0.263,2.774,0.592,13.193-3.641,14.807c-4.229,1.615-11.189,6.29-11.189,6.29s16.258,1.27,18.049-0.553
		c1.792-1.822,6.66-16.075,6.66-16.075s-3.252-5.345-2.701-8.495c0.549-3.15,3.336-17.117,3.336-17.117l0.408-3.514L129.884,69.05z"
		/>
	<path fill="#F1B486" d="M79.514,112.04l-0.777,2.042c0,0,6.496,1.32,7.582,1.553c1.087,0.233,0,8.753,0,8.995
		c0,0.242-3.553,9.082-5.152,11.143c-1.6,2.061-10.204,15.1-10.715,15.333c-0.51,0.233,0.044,1.164,0,1.474
		c-0.043,0.311-0.276,3.803-1.441,6.287c-1.164,2.483-4.941,6.891-5.717,7.074c-0.777,0.182,0.544,1.839,0.544,1.839
		s5.49-6.427,5.918-8.201c0.427-1.773,0.852-3.896,1.265-4.763c0.413-0.865,2.136-2.998,2.136-2.998s6.229-8.623,6.597-9.138
		c0.368-0.517,5.508-8.077,6.483-8.792s2.938-6.456,3.916-8.397c0.979-1.941,1.587-9.089,2.312-9.646
		c0.726-0.557,1.456-2.307,1.456-2.307l-5.325-0.802l-7.354-0.585L79.514,112.04z"/>
	<rect x="127.703" y="266.884" fill="#808589" width="6.764" height="30.777"/>
	
		<rect x="127.703" y="266.884" fill="none" stroke="#656C70" stroke-width="1.133" stroke-miterlimit="10" width="6.764" height="30.777"/>
	<path fill="#252728" d="M135.4,267.576h-8.837c-1.169,0-2.13-0.917-2.187-2.084l-1.564-32.879h16.34l-1.566,32.879
		C137.53,266.659,136.569,267.576,135.4,267.576"/>
	<path fill="none" stroke="#000000" stroke-width="1.133" stroke-miterlimit="10" d="M135.4,267.576h-8.837
		c-1.169,0-2.13-0.917-2.187-2.084l-1.564-32.879h16.34l-1.566,32.879C137.53,266.659,136.569,267.576,135.4,267.576z"/>
	<path fill="#1A1B1C" d="M139.592,329.376c0,4.697-3.808,8.505-8.506,8.505c-4.697,0-8.506-3.808-8.506-8.505
		s3.809-8.506,8.506-8.506C135.784,320.871,139.592,324.679,139.592,329.376"/>
	<circle fill="none" stroke="#000000" stroke-width="1.133" stroke-miterlimit="10" cx="131.086" cy="329.376" r="8.506"/>
	<path fill="#1A1B1C" d="M164.217,327.71c0,4.484-3.634,8.117-8.117,8.117c-4.482,0-8.115-3.633-8.115-8.117
		c0-4.482,3.633-8.117,8.115-8.117C160.583,319.593,164.217,323.228,164.217,327.71"/>
	<circle fill="none" stroke="#000000" stroke-width="1.133" stroke-miterlimit="10" cx="156.101" cy="327.71" r="8.116"/>
	<path fill="#1A1B1C" d="M114.203,327.71c0,4.484-3.635,8.117-8.116,8.117c-4.485,0-8.118-3.633-8.118-8.117
		c0-4.482,3.633-8.117,8.118-8.117C110.568,319.593,114.203,323.228,114.203,327.71"/>
	<circle fill="none" stroke="#000000" stroke-width="1.133" stroke-miterlimit="10" cx="106.086" cy="327.71" r="8.117"/>
	<path fill="#A0A6AA" d="M137.031,329.376c0,3.284-2.66,5.947-5.945,5.947c-3.284,0-5.949-2.663-5.949-5.947
		c0-3.285,2.665-5.947,5.949-5.947C134.371,323.429,137.031,326.091,137.031,329.376"/>
	<path fill="#A0A6AA" d="M161.379,327.71c0,2.916-2.363,5.279-5.279,5.279c-2.914,0-5.278-2.363-5.278-5.279
		c0-2.914,2.364-5.278,5.278-5.278C159.016,322.432,161.379,324.796,161.379,327.71"/>
	<path fill="#A0A6AA" d="M111.365,327.71c0,2.916-2.365,5.279-5.278,5.279c-2.917,0-5.28-2.363-5.28-5.279
		c0-2.914,2.363-5.278,5.28-5.278C109,322.432,111.365,324.796,111.365,327.71"/>
	<path fill="#1A1B1C" d="M136.142,328.501c0,2.804-2.272,5.075-5.073,5.075c-2.803,0-5.074-2.271-5.074-5.075
		c0-2.801,2.271-5.072,5.074-5.072C133.869,323.429,136.142,325.701,136.142,328.501"/>
	<circle fill="none" stroke="#000000" stroke-width="1.133" stroke-miterlimit="10" cx="131.068" cy="328.501" r="5.074"/>
	<path fill="#1A1B1C" d="M160.523,327.162c0,2.441-1.98,4.422-4.424,4.422c-2.441,0-4.421-1.98-4.421-4.422
		c0-2.443,1.979-4.422,4.421-4.422C158.543,322.74,160.523,324.718,160.523,327.162"/>
	<circle fill="none" stroke="#000000" stroke-width="1.133" stroke-miterlimit="10" cx="156.101" cy="327.162" r="4.422"/>
	<path fill="#1A1B1C" d="M110.367,327.162c0,2.365-1.917,4.281-4.28,4.281c-2.366,0-4.282-1.916-4.282-4.281
		s1.916-4.283,4.282-4.283C108.45,322.878,110.367,324.796,110.367,327.162"/>
	<circle fill="none" stroke="#000000" stroke-width="1.133" stroke-miterlimit="10" cx="106.086" cy="327.162" r="4.281"/>
	<path fill="#A0A6AA" d="M134.018,269.576c0,0-5.151-1.992-4.831,3.211v22.55c0,0-0.867,1.239,4.066,1.782h-4.926L128.102,268h5.967
		L134.018,269.576z"/>
	<path fill="#808589" d="M160.523,309.005c-1.249-6.521-13.81-6.452-13.81-6.452h-7.249v-3.616c0-0.705-0.571-1.275-1.276-1.275
		h-14.414c-0.704,0-1.274,0.57-1.274,1.275v3.616h-10.616c-11.171,0-10.019,8.188-10.019,8.188v10.232
		c0,1.355,1.1,2.455,2.455,2.455h3.436c1.355,0,2.453-1.1,2.453-2.455v-0.93v-3.823c0-8.187,5.421-7.7,5.421-7.7l11.18-0.051v13.428
		c0,0.846,0.687,1.531,1.532,1.531h5.281c0.844,0,1.53-0.686,1.53-1.531v-13.465l11.424-0.052c4.269,0,5.058,3.843,5.177,5.903
		v7.439c0,0.941,0.764,1.705,1.705,1.705h4.935c0.942,0,1.704-0.764,1.704-1.705v-12.332c0-0.021-0.006-0.043-0.008-0.064
		L160.523,309.005z"/>
	<path fill="none" stroke="#656C70" stroke-width="1.133" stroke-miterlimit="10" d="M160.523,309.005
		c-1.249-6.521-13.81-6.452-13.81-6.452h-7.249v-3.616c0-0.705-0.571-1.275-1.276-1.275h-14.414c-0.704,0-1.274,0.57-1.274,1.275
		v3.616h-10.616c-11.171,0-10.019,8.188-10.019,8.188v10.232c0,1.355,1.1,2.455,2.455,2.455h3.436c1.355,0,2.453-1.1,2.453-2.455
		v-0.93v-3.823c0-8.187,5.421-7.7,5.421-7.7l11.18-0.051v13.428c0,0.846,0.687,1.531,1.532,1.531h5.281
		c0.844,0,1.53-0.686,1.53-1.531v-13.465l11.424-0.052c4.269,0,5.058,3.843,5.177,5.903v7.439c0,0.941,0.764,1.705,1.705,1.705
		h4.935c0.942,0,1.704-0.764,1.704-1.705v-12.332c0-0.021-0.006-0.043-0.008-0.064L160.523,309.005z"/>
	<path fill="#A0A6AA" d="M131.178,304.739c0,0-4.1-0.364-3.943,3.382l-0.003,12.803c0,0-0.517,2.455,2.448,1.955
		c0,0-0.936,0.074-1.403-2.268l-0.104-12.541C128.172,308.07,128.667,305.468,131.178,304.739"/>
	<path fill="#A0A6AA" d="M131.086,298.13h-6.4c0,0-2.238-0.521-1.719,2.186l-0.078,2.706l2.108-3.591L131.086,298.13z"/>
	<path fill="#A0A6AA" d="M108.188,303.437c0,0-6.037,0.573-5.776,8.223l-0.009,8.586c0,0-0.979,2.968,3.651,2.604
		c0,0-2.029-0.678-1.82-4.893l0.104-8.534C104.338,309.422,104.182,306.352,108.188,303.437"/>
	<path fill="#231F20" d="M113.68,231.275v4.148c0,0,0.443,3.406,5.629,3.852c5.186,0.443,20-1.482,20-1.482s6.668,1.631,7.407-5.037
		c0.74-6.666-1.776-8.738-1.776-8.738s-18.815-0.742-19.558-0.594c-0.739,0.147-13.331,1.629-13.331,1.629L113.68,231.275z"/>
	<path fill="#939598" d="M159.604,204.46c0,0,4.594-1.482,6.52-6.963c1.925-5.48,0.89-24.295,0.89-26.518s-0.036-6.124,0.278-6.173
		c0.314-0.049,9.35-0.938,9.35,4.544c0,5.48,1.926,25.629,0.741,28.741c-1.185,3.109,1.333,7.85-3.407,9.777
		C169.234,209.794,159.604,204.46,159.604,204.46"/>
	<path fill="none" stroke="#6D6E71" stroke-width="1.208" stroke-miterlimit="10" d="M159.604,204.46c0,0,4.594-1.482,6.52-6.963
		c1.925-5.48,0.89-24.295,0.89-26.518s-0.036-6.124,0.278-6.173c0.314-0.049,9.35-0.938,9.35,4.544
		c0,5.48,1.926,25.629,0.741,28.741c-1.185,3.109,1.333,7.85-3.407,9.777C169.234,209.794,159.604,204.46,159.604,204.46z"/>
	<path fill="#2B3990" d="M158.271,203.869c0,0,13.777-0.741,17.037,5.48c3.258,6.223,0.296,17.036-20,18.814
		c-20.296,1.777-51.703,3.26-54.814-1.037c-3.111-4.296-2.519-13.333-2.073-13.926c0.444-0.593,17.333-11.406,17.926-11.703
		c0.592-0.297,21.48,0.592,22.519,0C139.902,200.906,158.271,203.869,158.271,203.869"/>
	<path fill="none" stroke="#1C75BC" stroke-width="1.208" stroke-miterlimit="10" d="M158.271,203.869c0,0,13.777-0.741,17.037,5.48
		c3.258,6.223,0.296,17.036-20,18.814c-20.296,1.777-51.703,3.26-54.814-1.037c-3.111-4.296-2.519-13.333-2.073-13.926
		c0.444-0.593,17.333-11.406,17.926-11.703c0.592-0.297,21.48,0.592,22.519,0C139.902,200.906,158.271,203.869,158.271,203.869z"/>
	<path fill="#262262" d="M178.982,109.481c0,0,11.436,1.002,13.659,7.029c2.222,6.026,2.073,23.907,2.222,27.782
		c0.148,3.874,0.148,14.083-0.889,16.535c-1.036,2.45-2.33,5.837-7.832,7.477s-16.02,1.751-16.02,1.751s4.147-16.667,4.74-17.279
		c0.594-0.61,5.63-29.167,5.63-29.167l-3.851-9.699L178.982,109.481z"/>
	<path fill="#2B3990" d="M148.197,108.695c0,0,29.185-1.27,33.332,1.693c4.148,2.963,4.741,12.147,4.592,20.148
		c-0.146,8-1.332,29.656-3.703,32.532c-2.369,2.875-5.629,5.838-11.555,6.579c-5.926,0.74-31.11,0.573-35.851-1.343
		c-4.741-1.916-8.889-36.601-5.63-41.924C132.643,121.055,135.457,108.963,148.197,108.695"/>
	<path fill="none" stroke="#1C75BC" stroke-width="1.208" stroke-miterlimit="10" d="M148.197,108.695c0,0,29.185-1.27,33.332,1.693
		c4.148,2.963,4.741,12.147,4.592,20.148c-0.146,8-1.332,29.656-3.703,32.532c-2.369,2.875-5.629,5.838-11.555,6.579
		c-5.926,0.74-31.11,0.573-35.851-1.343c-4.741-1.916-8.889-36.601-5.63-41.924C132.643,121.055,135.457,108.963,148.197,108.695z"
		/>
	<path fill="#FFC691" d="M54.067,156.285c0,0-1.038,1.769-2.199,1.54c-3.151-0.621-6.212,1.19-7.025,2.05
		c-0.814,0.86-3.708,6.363-3.889,6.77c-0.181,0.408,0.543,2.985,0.543,2.985l12.396,6.877c0,0,7.374-8.019,7.963-8.782
		c0.586-0.764,1.491-0.808,0.542-2.347c-0.95-1.538-1.585-2.397-1.946-2.85"/>
	<path fill="none" stroke="#F1B486" stroke-width="0.697" stroke-miterlimit="10" d="M54.067,156.285c0,0-1.038,1.769-2.199,1.54
		c-3.151-0.621-6.212,1.19-7.025,2.05c-0.814,0.86-3.708,6.363-3.889,6.77c-0.181,0.408,0.543,2.985,0.543,2.985l12.396,6.877
		c0,0,7.374-8.019,7.963-8.782c0.586-0.764,1.491-0.808,0.542-2.347c-0.95-1.538-1.585-2.397-1.946-2.85"/>
	<path fill="#262262" d="M98.461,218.363c0,0,0.443-0.856,1.771-1.242c3.335,0.264,8.278-0.299,8.64-1.066
		c0.52-1.118,6.914-4.488,9.297-4.488c2.386,0,15.977-1.585,17.989-1.436c2.013,0.148,12.067-1.441,12.292-1.524
		c0.224-0.082,4.174-1.425,4.248-1.647c0.074-0.224,3.852-2.166,0.512-3.625c-0.273-0.119-22.35,3.625-24.511,3.848
		c-2.162,0.225-12.671,2.268-13.565,1.953c-0.894-0.313-8.342,0.358-9.5,1.104c-1.156,0.745-7.264,6.584-7.264,6.584L98.461,218.363
		z"/>
	<path fill="#444444" stroke="#262626" stroke-miterlimit="10" d="M152.342,180.169c-1.284-1.381-3.258-3.274-5.073-4.97
		c-2.354-2.197-5.44-3.329-5.44-3.329l-20.888-3.27l-27.024,1.454c0,0-1.714,1.817-32.709,11.318
		c-30.994,9.502-42.676,21.494-43.61,36.291s20.56,31.617,20.56,31.617s6.938,3.562,10.832,7.145
		c3.895,3.582,15.802-4.652,16.58-5.119c0.78-0.467,24.766-11.994,26.013-11.965c0.344,0.008-0.128-1.592-0.577-2.047
		c-4.073-4.125-3.844-10.676,0.055-15.103c3.4-3.862,18.457-10.895,19.212-11.226c3.892-1.713,12.304-2.648,16.665-2.68
		s20.266-1.525,23.438-2.928c3.174-1.402,6.368-7.305,6.167-12.381C156.322,187.471,155.293,183.339,152.342,180.169"/>
	<path fill="none" stroke="#262626" stroke-width="1.208" stroke-miterlimit="10" d="M152.342,180.169
		c-1.284-1.381-3.258-3.274-5.073-4.97c-2.354-2.197-5.44-3.329-5.44-3.329l-20.888-3.27l-27.024,1.454
		c0,0-1.714,1.817-32.709,11.318c-30.994,9.502-42.676,21.494-43.61,36.291s20.56,31.617,20.56,31.617s6.938,3.562,10.832,7.145
		c3.895,3.582,15.802-4.652,16.58-5.119c0.78-0.467,24.766-11.994,26.013-11.965c0.344,0.008-0.128-1.592-0.577-2.047
		c-4.073-4.125-3.844-10.676,0.055-15.103c3.4-3.862,18.457-10.895,19.212-11.226c3.892-1.713,12.304-2.648,16.665-2.68
		s20.266-1.525,23.438-2.928c3.174-1.402,6.368-7.305,6.167-12.381C156.322,187.471,155.293,183.339,152.342,180.169z"/>
	<path fill="#09547A" stroke="#052F3F" stroke-miterlimit="10" d="M130.865,89.352c0,0,2.209-3.228,6.163-4.896
		c2.26-0.954,6.307-0.84,7.763-0.732c3.999,0.296,19.423,27.645,19.423,27.645s-13.374,3.105-16.36,9.833l-2.588-4.444
		c0,0-5.957,12.438-8.018,15.709c-2.059,3.271-2.213,14.018-1.902,17.133c0.313,3.115,5.296,21.026,8.723,22.74
		c3.426,1.713,7.01,3.115,6.543,4.673c-0.469,1.557,0.311,0.934-2.494,0c-2.803-0.935-6.541-4.984-19.001-5.607
		c-12.46-0.623-30.373,0.935-35.668,1.246c-5.296,0.312-6.074,0.624-6.074,0.624s4.983-14.486,4.828-21.65
		c-0.155-7.165-2.49-14.017-2.337-14.797c0.156-0.778-15.182-14.356,2.807-25.827l-13.396-1.519c0,0,7.008-19.848,12.148-21.873
		s7.873-1.446,10.748,0.312c2.891,1.769,5.527,1.942,5.243,2.643c-3.506,5.607,0.043,13.696,1.696,15.919
		c1.425,1.911,4.585,2.308,9.881-0.028C124.287,104.119,125.976,91.995,130.865,89.352"/>
	<path fill="none" stroke="#052F3F" stroke-width="1.208" stroke-miterlimit="10" d="M130.865,89.352c0,0,2.209-3.228,6.163-4.896
		c2.26-0.954,6.307-0.84,7.763-0.732c3.999,0.296,19.423,27.645,19.423,27.645s-13.374,3.105-16.36,9.833l-2.588-4.444
		c0,0-5.957,12.438-8.018,15.709c-2.059,3.271-2.213,14.018-1.902,17.133c0.313,3.115,5.296,21.026,8.723,22.74
		c3.426,1.713,7.01,3.115,6.543,4.673c-0.469,1.557,0.311,0.934-2.494,0c-2.803-0.935-6.541-4.984-19.001-5.607
		c-12.46-0.623-30.373,0.935-35.668,1.246c-5.296,0.312-6.074,0.624-6.074,0.624s4.983-14.486,4.828-21.65
		c-0.155-7.165-2.49-14.017-2.337-14.797c0.156-0.778-15.182-14.356,2.807-25.827l-13.396-1.519c0,0,7.008-19.848,12.148-21.873
		s7.873-1.446,10.748,0.312c2.891,1.769,5.527,1.942,5.243,2.643c-3.506,5.607,0.043,13.696,1.696,15.919
		c1.425,1.911,4.585,2.308,9.881-0.028C124.287,104.119,125.976,91.995,130.865,89.352z"/>
	<path fill="none" stroke="#262626" stroke-width="1.208" stroke-miterlimit="10" d="M89.707,182.021
		c0,0-69.35,22.545-60.577,52.127"/>
	<path fill="#052F3F" d="M142.091,110.877c0,0-0.614,2.999-0.527,4.835c0.088,1.838-1.405,7.587-2.985,9.761
		s-4.478,5.335-5.707,8.848c-1.229,3.512,0.176,7.638-0.79,10.272c-0.966,2.634-1.932,4.302-3.074,5.883
		c-1.14,1.58,2.195,7.648,2.548,9.18c0.352,1.531,0.49,5.696,1.897,7.209c1.406,1.513,7.497,4.595,7.585,5.121
		c0.088,0.528,5.136,2.316,5.202,2.475c0.065,0.16,3.402,1.677,3.402,1.677s0.306-0.314-1.034-1.133
		c-0.55-0.334-1.359-0.742-2.271-1.188c-1.317-0.646-2.898-1.282-3.456-2.081c-0.295-0.426-0.875-1.158-1.46-2.271
		c-1.273-2.422-2.83-6.161-3.407-9.02c-0.84-4.175-3.376-9.574-3.115-14.901c0.263-5.328,0.698-9.463,1.278-11.373
		c0.256-0.847,1.309-2.726,2.511-4.991c1.244-2.346,2.649-5.101,3.722-7.255c2.109-4.232,2.818-5.854,2.818-5.854L142.091,110.877z"
		/>
	<path fill="#D1D3D4" d="M105.293,190.384l-43.074,1.467c0,0-3.047,0-3.047-2.029c0-2.031,5.639-3.496,7.219-3.496
		c1.578,0,15.336,0.452,16.35,0c1.016-0.452,13.532,0.452,14.209,0c0.676-0.452,4.063-0.147,4.794-0.13
		C102.473,186.212,106.873,188.581,105.293,190.384"/>
	<path fill="#E6E7E8" d="M81.08,166.64c0,0,18.35,13.37,19.702,15.063c1.354,1.691,2.82,4.736,4.286,5.187
		c1.467,0.451,2.594,1.241,0.789,2.03c-1.806,0.789-43.979,0.789-43.979,0.789s-3.158,0.902-1.467,2.029
		c1.691,1.128,0.564,1.24,0.564,1.24s-16.689-13.192-20.861-16.012c-4.173-2.819-7.218-5.413-8.909-6.992
		c-1.691-1.578-4.285-2.723-4.172-3.334c0.112-0.612,3.045-1.314,7.218-0.738c4.171,0.577,13.982,0.448,14.996,0.738
		c1.016,0.29,13.871-0.403,19.734,0C74.848,167.043,81.08,166.64,81.08,166.64"/>
	<path fill="#58595B" d="M116.453,285.541c0,0,7.168,4.795,7.837,6.199c0.669,1.4,5.344,5.234,6.278,6.263
		c0.936,1.028,3.203,2.735,4.301,4.487c1.097,1.752,3.307,8.922,3.178,10.486c-0.127,1.564,0.664,9.188,0.006,11.037
		c-0.659,1.849-3.09,9.142-3.651,9.889c-0.561,0.748,1.309,4.768,5.982,4.02c4.677-0.748,9.911-3.365,13.649-8.32
		c3.741-4.955,4.676-11.312,3.459-18.885c0,0-4.58-7.291-4.58-8.787s-0.562-13.744-1.029-15.24
		c-0.466-1.494-2.805-5.795-8.692-7.383c-5.892-1.59-8.321-0.375-11.595-2.713c-3.271-2.336-7.417-5.505-7.417-5.505
		s-2.301,7.71-4.438,9.34c-2.137,1.631-4.019,4.054-4.019,4.054L116.453,285.541z"/>
	<path fill="none" stroke="#231F20" stroke-width="1.208" stroke-miterlimit="10" d="M116.453,285.541c0,0,7.168,4.795,7.837,6.199
		c0.669,1.4,5.344,5.234,6.278,6.263c0.936,1.028,3.203,2.735,4.301,4.487c1.097,1.752,3.307,8.922,3.178,10.486
		c-0.127,1.564,0.664,9.188,0.006,11.037c-0.659,1.849-3.09,9.142-3.651,9.889c-0.561,0.748,1.309,4.768,5.982,4.02
		c4.677-0.748,9.911-3.365,13.649-8.32c3.741-4.955,4.676-11.312,3.459-18.885c0,0-4.58-7.291-4.58-8.787s-0.562-13.744-1.029-15.24
		c-0.466-1.494-2.805-5.795-8.692-7.383c-5.892-1.59-8.321-0.375-11.595-2.713c-3.271-2.336-7.417-5.505-7.417-5.505
		s-2.301,7.71-4.438,9.34c-2.137,1.631-4.019,4.054-4.019,4.054L116.453,285.541z"/>
	
		<path fill="none" stroke="#231F20" stroke-width="1.208" stroke-linecap="round" stroke-linejoin="round" stroke-miterlimit="10" d="
		M126.549,282.671c0,0-3.647,6.543-4.862,7.104c0,0,5.61-6.17,9.536-5.982c3.928,0.188,0.654,2.057,0,3.365s-5.142,6.17-5.234,7.105
		c-0.095,0.934,0.865,0.307,0.978,0.409c0.109,0.103,5.975-6.058,7.529-5.945c1.554,0.113,2.898,1.048,1.497,1.89
		c-1.404,0.842-7.949,5.703-7.48,6.543c0.469,0.842,1.59,1.217,2.057,0.842c0.469-0.373,4.582-6.45,7.479-5.142
		c2.897,1.31,4.401,1.763,2.897,2.618c-1.502,0.855-9.341,2.344-8.598,4.211c0.746,1.865,0.863,1.715,1.645,1.649
		c0.783-0.063,1.438-4.271,6.673-3.243c5.236,1.029,2.243,3.277,2.243,3.277s-7.852-1.78-8.039,1.117
		c-0.187,2.897-0.084,2.627,0.94,2.063c1.024-0.566,3.827-3.184,6.445-1.875c2.617,1.309,3.833,2.244,3.18,3.178
		c-0.656,0.936-7.616,0.095-8.576,2.338c-0.962,2.242,0.909,1.869,1.189,1.869s2.711-2.857,6.73-2.504
		c4.021,0.354,4.769,2.316,4.769,3.252c0,0.934-8.285-1.79-11.529,1.536c0,0-0.955,2.411,0.848,2.167
		c1.8-0.244,2.36-2.176,4.979-1.537s4.955,3.693,5.049,4.736c0.094,1.045-5.051-1.92-8.041,0.356"/>
	
		<path fill="none" stroke="#231F20" stroke-width="1.208" stroke-linecap="round" stroke-linejoin="round" stroke-miterlimit="10" d="
		M150.856,328.701c0,0-7.53-5.896-11.991-3.199"/>
	<path fill="#383133" d="M146.336,334.984c0,0,4.799-3.111,6.576-9.482c1.777-6.37,1.59-13.102,0-17.309s-3.085-7.759-3.365-10.752
		c-0.28-2.991-0.188-7.666-0.561-10.096c-0.375-2.432-3.939-7.604-5.796-8.039c0,0,6.076,1.961,7.665,4.58
		c1.59,2.617,2.247,8.434,1.777,11.509c-0.469,3.075,0.456,7.571,1.301,9.157c0.848,1.584,3.547,5.404,3.759,7.553
		c0.214,2.148-0.243,12.411-2.183,15.199c-1.814,2.609-3.973,6.397-7.703,7.891C147.248,335.417,146.734,334.951,146.336,334.984"/>
	<path fill="#58595B" d="M65.127,281.83c0,0,3.365,7.104,4.206,9.068c0.843,1.962,2.525,4.207,3.366,8.039
		c0.841,3.834,1.777,4.768,0.655,8.975c-1.124,4.207-3.087,11.569-4.301,13.73c-1.216,2.163-0.841,5.061-2.149,6.369
		c-1.311,1.309-6.826,5.33-8.509,5.89c-1.683,0.562-0.467,3.273,3.554,4.487c4.02,1.217,11.218,3.273,18.137,0
		c6.917-3.271,5.235-9.908,7.291-15.611c2.058-5.703,1.215-8.32,4.301-10.564s6.357-5.796,7.292-9.255
		c0.936-3.46,0.718-7.292-2.679-10.565c-3.397-3.271-15.364-13.274-16.205-14.77c-0.842-1.496-3.181-3.273-3.181-3.273
		S71.578,282.763,65.127,281.83"/>
	<path fill="none" stroke="#231F20" stroke-width="1.208" stroke-miterlimit="10" d="M65.127,281.83c0,0,3.365,7.104,4.206,9.068
		c0.843,1.962,2.525,4.207,3.366,8.039c0.841,3.834,1.777,4.768,0.655,8.975c-1.124,4.207-3.087,11.569-4.301,13.73
		c-1.216,2.163-0.841,5.061-2.149,6.369c-1.311,1.309-6.826,5.33-8.509,5.89c-1.683,0.562-0.467,3.273,3.554,4.487
		c4.02,1.217,11.218,3.273,18.137,0c6.917-3.271,5.235-9.908,7.291-15.611c2.058-5.703,1.215-8.32,4.301-10.564
		s6.357-5.796,7.292-9.255c0.936-3.46,0.718-7.292-2.679-10.565c-3.397-3.271-15.364-13.274-16.205-14.77
		c-0.842-1.496-3.181-3.273-3.181-3.273S71.578,282.763,65.127,281.83z"/>
	
		<path fill="none" stroke="#231F20" stroke-width="1.208" stroke-linecap="round" stroke-linejoin="round" stroke-miterlimit="10" d="
		M68.398,284.541c0.281-0.188,6.638-0.335,7.573,1c0.936,1.336-2.403,0.297-4.769,2.271c-2.363,1.975-1.87,3.086-1.87,3.086
		s-0.374,2.242,1.402,1.028c1.777-1.216,5.632-3.874,7.818-3.573s2.839,1.609,1.438,1.797c-1.401,0.187-9.198,3.178-8.454,5.198
		c0.748,2.019,0.788,1.458,2.283,0c1.498-1.46,5.704-4.638,8.321-2.581c2.618,2.057,1.87,3.553,0,3.271
		c-1.869-0.279-9.279-0.064-9.594,2.259c-0.315,2.322,0.713,3.131,2.302,2.072c1.59-1.059,4.675-4.05,7.292-2.368
		c2.618,1.684,2.338,3.461,1.309,3.461c-1.028,0-8.765-0.946-9.759,1.443c-0.992,2.389-0.523,2.118,1.906,1.646
		c2.432-0.473,4.861-2.998,6.73-1.221s3.365,4.661,2.244,3.92c-1.122-0.742-7.859-4.349-11.082,0.119
		c-3.223,4.467,1.933,1.103,3.189,1.008c1.256-0.092,5.742,0.842,6.304,3.086s-2.337-0.935-3.833-0.748
		c-1.496,0.188-6.545,0.071-7.174,2.26c-0.627,2.189,2.966-1.479,5.584,0c2.617,1.48,4.581,5.979,3.832,6.113
		c-0.746,0.135-4.674-6.877-8.974-4.354c-4.302,2.525-0.936,3.333-0.936,3.333s5.144-1.825,6.171,1.021
		c1.029,2.846,0.899,3.688,0.899,3.688s-5.761-4.758-7.725-3.688c-1.963,1.07-2.431,2.553-2.431,2.553"/>
	
		<path fill="none" stroke="#231F20" stroke-width="1.208" stroke-linecap="round" stroke-linejoin="round" stroke-miterlimit="10" d="
		M66.131,328.701c0,0,8.545-1.249,10.549,6.51"/>
	<path fill="#383133" d="M64.809,339.193c0,0,8.623-1.199,14.809-5.01c6.188-3.813,4.793-10.775,5.342-12.541
		c0.549-1.764,0.549-7.84,4.287-11.674c3.74-3.832,6.639-6.637,5.983-11.125c-0.654-4.486-3.46-10.093-3.46-10.093
		s3.627,2.31,5.762,5.243c0.882,1.211,1.313,2.609,1.537,4.054c0.313,2.052-0.06,3.505-0.553,5.278
		c-0.557,1.999-1.71,3.573-2.864,4.76c-0.633,0.65-1.411,1.563-2.362,2.414c-1.091,0.978-2.368,1.922-3.227,3.07
		c-0.965,1.298-1.016,3.072-1.273,4.13c-0.328,1.337-1.361,3.96-2.088,6.995c-0.805,3.348-1.336,7.147-2.33,9.229
		c-0.242,0.508-0.797,1.475-1.121,1.861c-2.084,2.5-3.966,3.33-7.413,3.993C71.729,340.57,64.809,339.193,64.809,339.193"/>
	<path fill="#444444" d="M36.688,249.675c0,0,25.074,29.536,25.262,29.816c0.186,0.281,0.094,3.093,5.703,2.248
		c5.608-0.846,11.333-8.137,10.901-10.193c-0.433-2.059-12.491-12.154-12.959-12.996s-6.078-6.543-6.265-7.012
		c-0.119-0.297-21.014-21.294-27.645-21.936C27.884,229.236,33.762,246.869,36.688,249.675"/>
	<path fill="none" stroke="#262626" stroke-width="1.208" stroke-miterlimit="10" d="M36.688,249.675
		c0,0,25.074,29.536,25.262,29.816c0.186,0.281,0.094,3.093,5.703,2.248c5.608-0.846,11.333-8.137,10.901-10.193
		c-0.433-2.059-12.491-12.154-12.959-12.996s-6.078-6.543-6.265-7.012c-0.119-0.297-21.014-21.294-27.645-21.936
		C27.884,229.236,33.762,246.869,36.688,249.675z"/>
	<path fill="#FFC691" d="M83.939,156.819c0.051-1.108,0.906-2.296,2.081-3.388c0.943-0.875,2.257-3.547,4.161-3.547
		c1.905,0,10.288,0.382,10.288,0.382l-1.524-0.382c-1.525-0.381-5.143-4.382-5.525-5.144c-0.38-0.762,1.905-1.524,4.641,0.19
		c2.736,1.714,9.457-0.38,12.695,0.572c3.24,0.953,4.574,3.811,5.337,6.097c0.761,2.286,2.095,3.048,5.905,2.586
		c3.811-0.462,13.348-4.586,18.099-6.234c4.751-1.647,18.669-6.64,18.669-6.64l-10.262-20.701c0,0,2.83-3.018,6.9-5.35
		c1.578-0.905,7.126-3.58,7.238-3.308c4.115,10.001,12.08,31.701,12.496,35.59c0.526,4.952-2.005,4.281-10.659,8.661
		c-8.653,4.379-47.009,8.02-48.591,7.808c-1.585-0.21-1.479-0.21-5.173,2.005c-3.692,2.216-9.495-0.316-9.603,0.316
		c-0.104,0.633-4.801,2.267-4.801,2.267s5.962,2.166,5.813,3.459c-0.148,1.295-3.491,1.238-6.235,0.816
		c-0.745-0.114-2.237-0.588-2.804-0.916c-1.514-0.877-1.521-1.986-1.521-1.986s-0.021,1.238-1.002,3.852
		c-0.982,2.613-3.008,2.216-3.008,2.216s0.423-10.13,0.316-9.972c-0.037,0.055,0.157-3.541-0.529-3.324
		c-1.688,5.487-3.874,4.713-4.22,4.748c-0.527,0.054,0.173-2.839,0.279-3.843C83.507,162.649,83.887,157.927,83.939,156.819"/>
	<path fill="none" stroke="#F1B486" stroke-width="1.208" stroke-miterlimit="10" d="M83.939,156.819
		c0.051-1.108,0.906-2.296,2.081-3.388c0.943-0.875,2.257-3.547,4.161-3.547c1.905,0,10.288,0.382,10.288,0.382l-1.524-0.382
		c-1.525-0.381-5.143-4.382-5.525-5.144c-0.38-0.762,1.905-1.524,4.641,0.19c2.736,1.714,9.457-0.38,12.695,0.572
		c3.24,0.953,4.574,3.811,5.337,6.097c0.761,2.286,2.095,3.048,5.905,2.586c3.811-0.462,13.348-4.586,18.099-6.234
		c4.751-1.647,18.669-6.64,18.669-6.64l-10.262-20.701c0,0,2.83-3.018,6.9-5.35c1.578-0.905,7.126-3.58,7.238-3.308
		c4.115,10.001,12.08,31.701,12.496,35.59c0.526,4.952-2.005,4.281-10.659,8.661c-8.653,4.379-47.009,8.02-48.591,7.808
		c-1.585-0.21-1.479-0.21-5.173,2.005c-3.692,2.216-9.495-0.316-9.603,0.316c-0.104,0.633-4.801,2.267-4.801,2.267
		s5.962,2.166,5.813,3.459c-0.148,1.295-3.491,1.238-6.235,0.816c-0.745-0.114-2.237-0.588-2.804-0.916
		c-1.514-0.877-1.521-1.986-1.521-1.986s-0.021,1.238-1.002,3.852c-0.982,2.613-3.008,2.216-3.008,2.216s0.423-10.13,0.316-9.972
		c-0.037,0.055,0.157-3.541-0.529-3.324c-1.688,5.487-3.874,4.713-4.22,4.748c-0.527,0.054,0.173-2.839,0.279-3.843
		C83.507,162.649,83.887,157.927,83.939,156.819z"/>
	<path fill="none" stroke="#F1B486" stroke-width="1.208" stroke-miterlimit="10" d="M158.623,141.02
		c0.143,0.291-0.076,1.632,0.189,2.635"/>
	
		<path fill="none" stroke="#F1B486" stroke-width="1.208" stroke-linecap="round" stroke-linejoin="round" stroke-miterlimit="10" d="
		M98.771,161.759c0.012-0.269,0.202-1.473-0.504-1.898c-0.705-0.426,0.332-1.333-0.39-2.557c-0.721-1.225-2.342-0.657-2.701-1.615
		c-0.359-0.959,0.559-1.581-0.352-2.295c-0.908-0.715-1.53-0.248-2.259-0.83c-0.73-0.582-1.696-2.441-2.858-2.309"/>
	
		<path fill="none" stroke="#F1B486" stroke-width="1.208" stroke-linecap="round" stroke-linejoin="round" stroke-miterlimit="10" d="
		M92.672,159.58c-0.157,0-4.01,2.216-4.432,3.377c-0.422,1.16-0.607,3.683-0.607,3.683"/>
	<path fill="#F1B486" d="M97.527,162.746c0,0-4.273,2.375-4.855,3.271c-0.488,0.756-1.121,1.448-1.07,2.984
		c0.006,0.136,0.176,0.616,0.293,0.921c0.074,0.195-0.605,0.121-0.656,0.097c-0.051-0.024,0.141-0.353,0.022-0.815
		c-0.188-0.752-0.342-1.93-0.276-2.976c0.105-1.688,0.844-2.216,1.055-2.427c0.141-0.141,2.549-1.192,4.127-1.927
		c0.794-0.369,1.38,0.65,1.363,0.596"/>
	<path fill="#F1B486" d="M164.214,115.866c0,0-3.844,1.25-5.56,3.081c-1.717,1.83-5.984,4.194-6.268,4.292
		c-0.286,0.099,2.655,5.439,2.655,5.439l4.585,10.561c0,0,2.624,1.829,2.72,2.829c0,0-2.478-0.602-3.315-0.747
		s-9.557-18.755-9.557-18.755s3.707-5.466,8.034-6.394c4.327-0.927,6.147-1.66,6.147-1.66L164.214,115.866z"/>
	<path fill="#F1B486" d="M87.897,162.777c-0.265-1.173-0.267-1.668-0.136-2.67c0.133-1.002,3.538-4.537,3.697-4.43l-1.306-1.742
		c0,0-3.074,4.063-3.126,4.643c-0.053,0.565-0.481,2.899,0.026,3.922c0.015,0.027-0.185,0.668,0.065,0.522
		C87.119,163.022,87.876,162.969,87.897,162.777"/>
	<path fill="#6D6E71" d="M82.276,168.286c0.067-0.106,0.251-0.406,0.388-0.622c0.988,0.937,2.715-0.448,2.78-0.427
		c0.501,0.161,1.08,0.182,1.646,0.096c-0.632,2.554-1.381,5.002-2.074,5.625l-0.573,0.551l-2.532,1.049c0,0-0.931-2.5-0.736-3.555
		C81.336,170.102,81.716,169.16,82.276,168.286"/>
	<path fill="#231F20" d="M84.691,173.051l0.065,0.156l0.259-0.249c0,0,0.283-0.233,0.258-0.308c-0.416-1.199-1.642-3.025-3.816-2.7
		c-0.061,0.009-0.117,0.38-0.117,0.38l-0.109,0.392l0.175-0.076C83.817,170.166,84.657,172.934,84.691,173.051"/>
	<path fill="#052F3F" d="M163.935,111.422c0,0,0.454,1.346,1.223,1.736c0.77,0.39-4.625,2.013-6.175,2.777
		c-1.547,0.762-10.053,6.819-10.283,7.053c-0.331-0.136-0.731-1.318-1.111-1.628c-0.092-0.083,2.956-3.461,6.563-5.808
		C157.502,113.373,162.988,111.507,163.935,111.422"/>
	<path fill="none" stroke="#052F3F" stroke-width="1.208" stroke-miterlimit="10" d="M163.935,111.422c0,0,0.454,1.346,1.223,1.736
		c0.77,0.39-4.625,2.013-6.175,2.777c-1.547,0.762-10.053,6.819-10.283,7.053c-0.331-0.136-0.731-1.318-1.111-1.628
		c-0.092-0.083,2.956-3.461,6.563-5.808C157.502,113.373,162.988,111.507,163.935,111.422z"/>
	<path fill="#444444" d="M119.901,261.745c0,0,5.195,6.968,5.321,8.095c0.126,1.129-1.271,3.895-2.66,6.699
		c-1.391,2.803-2.014,6.541-6.841,7.943c-4.828,1.4-11.703,1.713-14.34-0.936c-2.639-2.648-6.531-3.115-11.204-4.205
		s-10.435-1.557-14.018-3.738c-3.582-2.18-0.87-7.854-5.852-8.32c-4.984-0.467-34.551-17.525-39.465-27.942
		c-3.483-7.386-3.088-17.357,3.813-21.251c6.898-3.895,26.707,12.106,28.422,11.836c1.712-0.27,16.508,1.449,16.977,1.447
		c0.466-0.003,11.992,8.719,11.992,8.719s10.985,5.918,13.436,9.813c2.451,3.895,4.143,5.14,6.568,6.387
		C114.475,257.537,119.901,261.745,119.901,261.745"/>
	<path fill="none" stroke="#262626" stroke-width="1.208" stroke-miterlimit="10" d="M119.901,261.745c0,0,5.195,6.968,5.321,8.095
		c0.126,1.129-1.271,3.895-2.66,6.699c-1.391,2.803-2.014,6.541-6.841,7.943c-4.828,1.4-11.703,1.713-14.34-0.936
		c-2.639-2.648-6.531-3.115-11.204-4.205s-10.435-1.557-14.018-3.738c-3.582-2.18-0.87-7.854-5.852-8.32
		c-4.984-0.467-34.551-17.525-39.465-27.942c-3.483-7.386-3.088-17.357,3.813-21.251c6.898-3.895,26.707,12.106,28.422,11.836
		c1.712-0.27,16.508,1.449,16.977,1.447c0.466-0.003,11.992,8.719,11.992,8.719s10.985,5.918,13.436,9.813
		c2.451,3.895,4.143,5.14,6.568,6.387C114.475,257.537,119.901,261.745,119.901,261.745z"/>
	<path fill="#444444" d="M58.897,213.599l23.837,14.387l2.258,7.584l-14.301,0.79c0,0-11.854-1.013-12.136-0.79
		c-0.282,0.226-11.007,3.33-11.007,3.33l-7.903,2.164l-2.811-0.433c0,0-10.308-9.478-8.505-15.19
		c0.914-4.313,4.43-9.246,9.187-10.994C46.523,211.139,58.897,213.599,58.897,213.599"/>
	<path fill="#262626" d="M88.547,233.255c-0.516-1.757-0.628-4.373-0.343-5.928c-1.848-3.331-4.339-2.887-7.083-3.85
		c-3.605-1.263-7.148-0.651-10.605-0.549c-0.434,0.07-2.477,0.052-2.903,0.131c4.858,1.451,15.203,3.893,16.929,6.865
		c0,0,1.724,3.312,0.141,3.666c-3.019,0.677-10.503-1.223-11.834,0.057c-2.031,1.951-0.338,1.611,2.029,1.951
		c0.895,0.127-0.523,0.639-2.744,1.646c0.025,0.291,14.07-1.908,16.184,3.143c1.78-0.775,6.641,1.512,6.897,1.519
		C92.516,239.535,89.526,236.582,88.547,233.255"/>
	<path fill="#262626" d="M149.779,178.061c-0.465-0.168,0.006,2.933,0.267,6.522c0.26,3.59-2.368,11.165-10.824,11.747
		c-8.457,0.58-28.036,11.559-32.435,12.037s-12.314,2.408-15.697,5.452c-3.381,3.046-9.678,3.706-9.678,3.706
		s5.889,4.727,8.492,6.203c2.654-3.691,7.01-5.863,8.156-6.838c0.594-0.504,6.136-0.371,7.848-1.427
		c1.714-1.056,0.469-2.993,4.362-4.708c3.892-1.713,12.304-2.646,16.665-2.678s17.123-1.146,20.411-2.253
		c5.235-0.362,8.008-4.405,8.852-12.847C156.203,186.252,152.006,179.308,149.779,178.061"/>
	<path fill="#262626" d="M119.347,281.896c0,0-7.835,3.181-11.042,1.839c-3.205-1.343-7.902-3.952-10.36-4.325
		c-2.462-0.373-13.423-2.162-14.911-2.684c-1.492-0.521-7.826-2.632-8.579-4.06c-0.751-1.427-1.897-6.269-4.952-6.435
		c-3.057-0.168-7.764-2.838-9.701-4.389c-1.937-1.55-7.667-8.488-11.555-10.021c-3.889-1.531-14.294-11.109-14.343-11.659
		c-0.029-0.332,0.253,2.921,2.816,6.43c1.674,2.291,5.225,4.803,7.172,6.111c3.604,2.42,9.898,7.189,10.576,7.592
		c1.724,1.023,8.776,5.529,8.776,5.529s4.179,1.939,4.627,2.042c0.452,0.103,1.841,0.454,2.446,1.042
		c0.604,0.586,2.812,5.055,3.556,5.725c0.743,0.668,5.287,3.041,10.131,3.498s14.028,3.26,14.217,3.34
		c0.188,0.08,3.105,2.189,3.784,2.593s3.088,1.663,6.226,1.476s7.012-0.19,9.807-2.08
		C120.83,281.572,119.347,281.896,119.347,281.896"/>
	<path fill="#262626" d="M64.727,261.353c0,0-3.615-0.444-3.226-5.363c0,0,7.884,1.994,7.393,4.927
		c-0.491,2.931,1.242,6.099,3.933,7.679c2.692,1.578-1.328,0-1.328,0L64.727,261.353z"/>
	<path fill="#262626" d="M95.715,279.058c0.129,0.021,7.969-1.84,9.768-6.238c1.797-4.4,3.397,0.666,3.197,2.232
		c-0.2,1.564-5.074,7.727-6.937,6.844C99.884,281.016,95.715,279.058,95.715,279.058"/>
	<path fill="#052F3F" d="M89.678,113.058c-0.127-0.212-3.153-0.742-4.877-0.843c-1.723-0.102-6.489,0.102-5.932-0.558
		s0.71-1.999,0.71-1.999l11.132,1.12l1.961,0.223"/>
	<path fill="none" stroke="#052F3F" stroke-width="1.208" stroke-miterlimit="10" d="M89.678,113.058
		c-0.127-0.212-3.153-0.742-4.877-0.843c-1.723-0.102-6.489,0.102-5.932-0.558s0.71-1.999,0.71-1.999l11.132,1.12l1.961,0.223"/>
	<path fill="#052F3F" stroke="#052F3F" stroke-miterlimit="10" d="M95.992,105.253c0,0-3.732,5.358-4.104,5.316
		c-0.369-0.042,1.758,0.213,1.758,0.213L95.992,105.253z"/>
	<path fill="#E5865C" d="M101.814,172.374c-0.057-0.365,0.007-0.477-0.418-0.713c-0.424-0.234-1.77,0.434-1.77,0.434l0.322,0.585
		C100.032,172.731,101.853,172.8,101.814,172.374"/>
	<path fill="none" stroke="#F1B486" stroke-width="1.208" stroke-miterlimit="10" d="M101.814,172.374
		c-0.057-0.365,0.007-0.477-0.418-0.713c-0.424-0.234-1.77,0.434-1.77,0.434l0.322,0.585
		C100.032,172.731,101.853,172.8,101.814,172.374z"/>
	<path fill="#E5865C" d="M87.84,175.695c0.366,0.051,0.455,0.144,0.803-0.196c0.346-0.339,0.092-1.819,0.092-1.819l-0.652,0.141
		C88.007,173.885,87.421,175.609,87.84,175.695"/>
	<path fill="none" stroke="#F1B486" stroke-width="1.208" stroke-miterlimit="10" d="M87.84,175.695
		c0.366,0.051,0.455,0.144,0.803-0.196c0.346-0.339,0.092-1.819,0.092-1.819l-0.652,0.141
		C88.007,173.885,87.421,175.609,87.84,175.695z"/>
	<path fill="#E5865C" d="M83.253,167.399c0.37-0.015,0.475,0.061,0.757-0.335c0.279-0.396-0.234-1.807-0.234-1.807l-0.619,0.255
		C83.096,165.588,82.825,167.389,83.253,167.399"/>
	<path fill="none" stroke="#F1B486" stroke-width="1.208" stroke-miterlimit="10" d="M83.253,167.399
		c0.37-0.015,0.475,0.061,0.757-0.335c0.279-0.396-0.234-1.807-0.234-1.807l-0.619,0.255
		C83.096,165.588,82.825,167.389,83.253,167.399z"/>
	<path fill="#E5865C" d="M93.691,144.247c-0.012,0.37-0.096,0.467,0.28,0.776c0.376,0.307,1.819-0.107,1.819-0.107l-0.212-0.633
		C95.508,144.216,93.729,143.82,93.691,144.247"/>
	<path fill="none" stroke="#F1B486" stroke-width="1.208" stroke-miterlimit="10" d="M93.691,144.247
		c-0.012,0.37-0.096,0.467,0.28,0.776c0.376,0.307,1.819-0.107,1.819-0.107l-0.212-0.633
		C95.508,144.216,93.729,143.82,93.691,144.247z"/>
	<path fill="#6D6E71" d="M97.59,139.385c-0.146-0.226-3.122-1.972-4.326,1.646c-0.942,2.834-2.011,6.994-2.398,8.523
		c0.895,0.006,2.389,0.126,3.289,0.099c0.52-2.513,1.193-5.204,1.8-5.942C97.169,142.234,98.487,140.757,97.59,139.385"/>
	<path fill="#414042" d="M39.591,168.79c0.638,0.208,0.886,0.555,1.256,1.105c0.395,0.592,0.533,1.102,1.26,1.471
		c0.389,0.199,0.886,0.208,1.29,0.385c0.682,0.301,1.178,0.807,1.712,1.307c0.367,0.38,0.764,0.728,1.188,1.043
		c0.42,0.153,0.84,0.307,1.261,0.459c0.137,0.083,0.303,0.045,0.446,0.191c0.431,0.438,0.294,1.027,0.847,1.41
		c0.357,0.247,0.717,0.181,1.064,0.562c0.727,0.794,1.323,1.599,2.17,2.321c0.567,0.484,1.822,2.507,2.595,2.097
		c0.149-0.079,0.438-0.029,0.497,0.152c0.588,1.802,2.139,2.809,3.27,4.236c0.424,0.534,0.679,0.713,1.228,1.044
		c0.169,0.103,1.042,1.014,0.951,1.011c0.419,0.014,0.425,0.521,0,0.507c-0.565-0.02-0.503-0.27-0.877-0.61
		c-0.501-0.457-0.924-0.452-1.363-0.945c-1.267-1.421-3.021-3-3.739-4.813c-1.363,0.357-2.119-1.534-3.039-2.32
		c-0.8-0.683-1.367-1.348-2.063-2.104c-0.467-0.508-1.18-0.521-1.595-1.054c-0.452-0.581,0.02-0.659-0.864-1.156
		c-0.167-0.095-0.413-0.078-0.596-0.186c-0.885-0.526-1.537-1.251-2.308-1.911c-0.927-0.793-2.12-0.813-3.009-1.557
		c-0.77-0.643-0.874-1.867-1.923-2.208C38.831,169.092,39.266,168.684,39.591,168.79"/>
	<path fill="#414042" d="M51.927,170.839c1.083,1.793,2.339,3.465,3.817,4.956c1.314,1.327,2.767,2.402,3.99,3.839
		c1.494,1.757,2.992,4.312,5.055,5.368c1.261,0.647,2.13,1.326,2.738,2.65c0.148,0.324-0.518,0.43-0.654,0.135
		c-0.885-1.932-2.768-2.072-4.064-3.5c-1.406-1.549-2.651-3.25-4.025-4.827c-1.104-1.268-2.45-2.222-3.625-3.409
		c-1.477-1.493-2.731-3.161-3.815-4.956C51.14,170.76,51.762,170.565,51.927,170.839"/>
	<path fill="#414042" d="M62.118,175.124c0.397,0.156,0.405,0.166,0.64,0.551c0.25,0.415,0.26,0.812,0.57,1.246
		c0.426,0.6,0.861,0.844,1.508,1.175c1.256,0.647,1.984,1.202,2.778,2.403c0.688,1.038,1.706,1.719,2.412,2.691
		c0.921,1.266,2.472,2.276,4.02,2.519c0.439,0.068,0.198,0.548-0.179,0.49c-1.466-0.23-2.26-0.97-3.476-1.71
		c-0.263-0.159-0.59-0.241-0.809-0.451c-0.116-0.113-0.103-0.323-0.182-0.445c-0.671-1.038-0.446-0.813-1.231-1.462
		c-0.539-0.446-0.883-1.014-1.273-1.586c-0.666-0.972-1.348-1.472-2.403-2.009c-0.591-0.303-1.212-0.588-1.659-1.101
		c-0.382-0.438-0.578-1.684-1.058-1.873C61.365,175.4,61.796,174.998,62.118,175.124"/>
	<path fill="#414042" d="M68.438,174.172c1.482,1.104,2.779,2.403,3.811,3.942c0.422,0.628,0.752,1.288,1.108,1.95
		c0.658,1.217,1.62,1.654,2.8,2.268c0.547,0.285,1.094,0.578,1.563,0.985c0.826,0.719,0.904,1.327,2.034,1.782
		c1.254,0.506,2.085,1.024,2.418,2.452c0.083,0.353-0.578,0.449-0.652,0.135c-0.48-2.053-2.494-1.613-3.499-3.024
		c-0.988-1.384-2.282-1.823-3.688-2.667c-1.295-0.777-1.605-1.925-2.373-3.168c-1.043-1.69-2.41-3.113-3.999-4.298
		C67.623,174.279,68.177,173.977,68.438,174.172"/>
	<path fill="#414042" d="M73.432,170.827c0.946,1.458,2.527,2.31,3.692,3.579c0.604,0.659,1.139,1.379,1.596,2.147
		c0.466,0.781,0.748,1.985,1.515,2.438c0.403,0.24,0.854,0.248,1.242,0.522c0.561,0.394,0.863,1.227,1.205,1.769
		c1.1,1.739,2.742,3.673,4.727,4.403c0.414,0.152-0.017,0.558-0.342,0.438c-1.506-0.555-2.784-1.794-3.809-3
		c-0.634-0.743-1.116-1.545-1.623-2.372c-0.551-0.898-1.25-0.815-1.998-1.335c-0.422-0.292-0.584-0.802-0.805-1.236
		c-0.527-1.029-1.039-2.008-1.769-2.909c-1.26-1.553-3.125-2.508-4.216-4.188C72.633,170.754,73.258,170.559,73.432,170.827"/>
	<path fill="#414042" d="M78.985,170.111c0.28,0.466,0.565,0.93,0.837,1.4c0.214,0.368,0.353,1.044,0.637,1.323
		c0.275,0.271,0.651,0.462,0.939,0.735c0.344,0.33,0.668,0.685,0.997,1.031c0.263,0.277-0.367,0.484-0.586,0.256
		c-0.386-0.407-0.761-0.844-1.19-1.204c-0.272-0.228-0.648-0.39-0.879-0.661c-0.217-0.253-0.256-0.584-0.375-0.889
		c-0.238-0.612-0.627-1.173-0.965-1.736C78.199,170.031,78.82,169.836,78.985,170.111"/>
	<path fill="#F1B486" d="M115.246,163.781c0,0-1.123-0.737-1.965-0.671c-0.843,0.065-3.521,2.528-5.615,2.097
		c-2.096-0.433-4.818,0.431-5.445,0.259c-0.625-0.173-1.49,0.073-1.662,0.458c-0.174,0.385-1.49,1.379-2.744,1.529
		c-1.252,0.151-2.443,1.147-2.443,1.147l3.242-0.953l3.201-1.49l3.223,0.673c0,0,5.293-0.214,5.825-0.717
		c0.532-0.503,2.677-1.771,2.677-1.771L115.246,163.781z"/>
	<path fill="#FFC691" d="M101.197,11.815c0,0-0.775,25.453-2.122,28.888c-1.348,3.435-3.302,4.761-3.215,10.895
		c0.076,5.575,1.831,18.464,7.29,20.282c5.457,1.818,16.986,1.576,26.733-2.829c9.749-4.406,12.093-11.365,15.839-17.915
		c3.745-6.551,2.39-29.6,2.201-31.42c-0.186-1.819-9.906-10.333-11.392-11.543c-1.484-1.211-19.183,1.978-19.183,1.978
		S102.107,6.544,101.197,11.815"/>
	<path fill="none" stroke="#F1B486" stroke-width="1.208" stroke-miterlimit="10" d="M101.197,11.815c0,0-0.775,25.453-2.122,28.888
		c-1.348,3.435-3.302,4.761-3.215,10.895c0.076,5.575,1.831,18.464,7.29,20.282c5.457,1.818,16.986,1.576,26.733-2.829
		c9.749-4.406,12.093-11.365,15.839-17.915c3.745-6.551,2.39-29.6,2.201-31.42c-0.186-1.819-9.906-10.333-11.392-11.543
		c-1.484-1.211-19.183,1.978-19.183,1.978S102.107,6.544,101.197,11.815z"/>
	<path fill="#F1B486" d="M106.854,23.953c-0.024,0.252,0.267,7.484,7.815,11.556c5.949,2.852,9.553,1.349,9.553,1.349
		s-4.339-5.85-5.613-8.711l18.961,9.332c0,0-3.211-3.548-5.207-5.172c-1.997-1.623-3.337-4.926-3.337-4.926s6.702,4.6,7.421,5.883
		c0.718,1.285,2.959,4.006,3.081,6.633c0.122,2.627-0.171,4.466-0.171,4.466s3.857-4.991,3.515-6.806
		c-0.346-1.816,4.841,6.547-3.58,19.223c-8.423,12.675-31.077,16.455-33.61,16.145c0,0,10.409,0.606,16.748-1.395
		c6.34-2.002,13.161-5.472,15.381-6.532c2.219-1.06,7.3-7.904,7.851-8.376c0.55-0.473,3.63-18.175,3.63-18.175l-1.36-7.553
		c0,0-2.575-4.805-2.696-5.184c-0.122-0.379-4.534-3.666-4.534-3.666l-13.542-4.425c0,0-4.172-3.644-4.418-3.619
		c-0.247,0.025-5.494,0.732-5.841,0.602c-0.346-0.131-4.938,1.091-4.938,1.091l-5.758-0.012l-6.286,16.978l7.098,0.345
		L106.854,23.953z"/>
	<path fill="#E2AC7F" d="M116.473,39.648c0,0,1.833-3.001,6.783-1.573c4.949,1.428,4.57,3.774,4.699,4.046
		c0.127,0.272-2.848-2.57-4.168-2.873c-1.322-0.302-7.344,0.731-7.344,0.731L116.473,39.648z"/>
	<path fill="#FFFFFF" d="M116.465,39.992c0,0-0.859,4.871,3.754,6.085c4.616,1.214,6.756-2.35,7.218-3.962s-4.799-3.679-7.474-3.051
		C117.289,39.689,116.465,39.992,116.465,39.992"/>
	<path fill="#3C2415" d="M129.524,43.245c0,0-1.635,0.07-2.384-0.354c0,0,0.678-1.094-0.085-1.694
		c-0.763-0.602-4.263-2.1-6.164-1.886c-1.903,0.213-3.414,0.578-4.427,0.681l-0.549-0.26c0,0,1.119-0.492,2.403-0.829
		c1.285-0.335,3.571-0.568,6.38,0.239c2.813,0.806,3.506,2.871,3.506,2.871S128.49,43.118,129.524,43.245"/>
	<path fill="#178EC3" d="M116.799,40.474c-0.563,1.183-0.035,2.9,1.314,3.544c1.354,0.646,2.906,0.209,3.47-0.974
		c0.563-1.182,0.551-2.264-0.802-2.908C118.752,39.15,117.342,39.833,116.799,40.474"/>
	<path fill="#001523" d="M120.665,42.098c-0.245,0.826-0.992,1.333-1.667,1.131c-0.676-0.201-1.022-1.033-0.777-1.859
		c0.246-0.826,0.992-1.332,1.668-1.13C120.563,40.439,120.912,41.271,120.665,42.098"/>
	<path fill="#FFFFFF" d="M117.346,41.387c-0.103,0.341,0.004,0.674,0.236,0.742c0.229,0.07,0.5-0.151,0.601-0.493
		c0.103-0.342-0.002-0.674-0.233-0.743C117.717,40.824,117.448,41.045,117.346,41.387"/>
	<path fill="#FFFFFF" d="M121.229,42.79c-0.162,0.537-0.63,0.872-1.048,0.748c-0.418-0.125-0.627-0.661-0.467-1.199
		c0.16-0.536,0.629-0.872,1.046-0.746C121.18,41.716,121.389,42.252,121.229,42.79"/>
	<path fill="#3C2415" d="M119.986,32.099c-0.037,0.747,0.748,1.532,2.268,1.586c2.041,0.071,5.203,0.722,7.519,3.602
		c0,0-1.116-4.186-5.589-6.191c-0.611-0.274-1.464-0.389-2.122-0.355C120.689,30.81,120.018,31.439,119.986,32.099"/>
	<path fill="#FFFFFF" d="M109.092,38.916c0,0-0.563,4.288-4.731,4.087c-4.168-0.202-5.015-3.735-4.978-5.201
		c0.038-1.467,4.618-1.628,6.685-0.403C108.133,38.625,109.092,38.916,109.092,38.916"/>
	<path fill="#E2AC7F" d="M109.177,38.628c0,0-0.739-2.985-5.243-3.096c-4.502-0.11-4.805,1.944-4.984,2.139
		c-0.176,0.193,3.052-1.396,4.232-1.3c1.182,0.096,5.932,2.542,5.932,2.542L109.177,38.628z"/>
	<path fill="#178EC3" d="M104.703,38.465c0.158,1.134-0.732,2.428-2.029,2.609c-1.297,0.182-2.479-0.59-2.639-1.724
		c-0.158-1.135,0.138-2.034,1.434-2.215C103.452,36.996,104.418,37.788,104.703,38.465"/>
	<path fill="#3C2415" d="M97.346,38.195c0,0,1.345,0.488,2.082,0.331c0,0,0.207-0.604,0.887-1.112
		c1.001-0.747,3.617-0.764,5.146-0.085c1.527,0.679,2.9,1.783,3.631,1.587l0.526-0.073c0,0-0.874-0.396-1.856-1.013
		c-0.983-0.617-2.757-1.721-5.313-1.788c-2.556-0.067-3.678,1.473-3.678,1.473S98.242,38.361,97.346,38.195"/>
	<path fill="#001523" d="M101.05,38.802c-0.012,0.753,0.478,1.372,1.095,1.383c0.615,0.01,1.124-0.593,1.136-1.347
		c0.013-0.753-0.478-1.371-1.094-1.382C101.57,37.446,101.061,38.049,101.05,38.802"/>
	<path fill="#FFFFFF" d="M104.006,39.083c-0.005,0.312-0.18,0.561-0.39,0.558c-0.212-0.003-0.38-0.258-0.374-0.571
		c0.005-0.311,0.18-0.562,0.391-0.558C103.844,38.516,104.01,38.772,104.006,39.083"/>
	<path fill="#FFFFFF" d="M100.4,39.231c-0.008,0.49,0.293,0.892,0.675,0.899c0.382,0.006,0.696-0.386,0.705-0.877
		c0.008-0.49-0.296-0.892-0.677-0.897C100.722,38.349,100.406,38.741,100.4,39.231"/>
	<path fill="#3C2415" d="M108.895,31.483c-0.113,0.646-0.934,1.163-2.241,0.915c-1.754-0.334-4.575-0.39-7.108,1.62
		c0,0,1.761-3.354,5.965-4.201c0.573-0.116,1.323-0.049,1.876,0.107C108.543,30.249,108.994,30.916,108.895,31.483"/>
	<path fill="#FFC691" d="M108.999,36.9c0.174-0.006,1.295,1.897,1.31,2.029c0.014,0.132-1.226,3.558-1.239,3.69
		c-0.018,0.131-2.092,1.067-2.092,1.067s-0.104-1.265-0.049-1.42c0.058-0.157,0.833-4.542,0.84-5.223s0.007-0.823,0.007-0.823
		L108.999,36.9z"/>
	<path fill="none" stroke="#F1B486" stroke-width="1.208" stroke-miterlimit="10" d="M107.769,35.919c0,0,0.499,6.76-1.968,8.78
		c-2.473,2.022-3.52,4.014-2.695,5.296c1.342,2.088,4.342,2.028,5.12,1.071c0.78-0.958,4.894,1.489,3.597-1.155"/>
	<path fill="#FFC691" d="M138.233,54.636c0,0,1.81,1.07,2.702,0.502c0.893-0.568,1.447-3.75,2.33-5.064
		c0.885-1.313,3.111-4.735,2.087-6.125c-1.026-1.39-3.745-3.985-4.761-2.001"/>
	<path fill="none" stroke="#F1B486" stroke-width="1.208" stroke-miterlimit="10" d="M138.233,54.636c0,0,1.81,1.07,2.702,0.502
		c0.893-0.568,1.447-3.75,2.33-5.064c0.885-1.313,3.111-4.735,2.087-6.125c-1.026-1.39-3.745-3.985-4.761-2.001"/>
	<path fill="#F1B486" d="M141.35,49.728c0,0,0.425-1.606,1.222-2.436c0.798-0.83,2.191-2.74,0.421-3.304
		c0,0-0.729,0.076-0.953,0.778"/>
	<path fill="#96AA00" d="M139.721,54.036c0.037,0.346,0.346,0.597,0.692,0.563c0.345-0.036,0.596-0.345,0.56-0.69
		c-0.034-0.346-0.344-0.598-0.689-0.562C139.938,53.382,139.686,53.691,139.721,54.036"/>
	<path fill="#C1716B" d="M105.221,87.75c0,0.966,0.823,1.748,1.84,1.748c1.015,0,1.836-0.782,1.836-1.748
		c0-0.965-0.821-1.748-1.836-1.748C106.044,86.002,105.221,86.785,105.221,87.75"/>
	
		<ellipse fill="none" stroke="#BA645D" stroke-width="1.208" stroke-miterlimit="10" cx="107.059" cy="87.75" rx="1.838" ry="1.748"/>
	<path fill="#052F3F" d="M106.123,90.088c-0.921,0.872-2.267,1.946-3.453,2.115c-2.043,0.291-6.287,0.63-6.624,2.302
		c-0.013,0.874,0.718,1.421,0.792,2.14c0.93,0.699,2.478,0.939,2.478,0.939s-0.582,0.445-0.776,0.445
		c-0.192,0-4.012,1.036-4.659-0.582c-0.649-1.621,0.015-4.589,0.614-5.184c0.6-0.595,2.501-3.434,3.298-3.542
		c0.796-0.11,3.999-0.716,4.39-0.972c0.387-0.256,1.926,1.398,2,1.584S105.81,89.782,106.123,90.088"/>
	<polygon fill="#D39C76" points="108.584,86.133 107.746,88.331 107.285,87.062 	"/>
	<path fill="#603913" d="M110.225,83.696c0,0.133-6.004,7.104-10.352,7.729c-5.34,0.767-5.155,4.165-4.393,4.897
		c0.76,0.732-1.789,0.597-2.486-0.498c-0.695-1.093-0.464-5.037,0.794-5.931c1.262-0.896,3.192-3.146,5.392-3.761
		c2.198-0.613,3.722-2.768,4.32-2.866C104.096,83.167,110.225,83.696,110.225,83.696"/>
	<path fill="none" stroke="#3C2415" stroke-width="1.163" stroke-miterlimit="10" d="M110.225,83.696
		c0,0.133-6.004,7.104-10.352,7.729c-5.34,0.767-5.155,4.165-4.393,4.897c0.76,0.732-1.789,0.597-2.486-0.498
		c-0.695-1.093-0.464-5.037,0.794-5.931c1.262-0.896,3.192-3.146,5.392-3.761c2.198-0.613,3.722-2.768,4.32-2.866
		C104.096,83.167,110.225,83.696,110.225,83.696z"/>
	<path fill="#3C2415" d="M90.727,98.112c-0.336-6.418,8.533-11.26,10.948-13.209c2.414-1.948-1.038-3.87-0.335-6.938
		c0.354-1.54,2.396-3.419,4.313-4.705c1.229,0.085,4.576,0.168,5.4,0.111c-0.127,2.201,1.221,5.389,1.221,5.389
		s2.307,3.981-1.575,5.688c-3.882,1.707-9.9,3.924-13.442,6.457c-0.706,0.505-1.887,1.706-2.48,2.822
		c-0.691,1.3-0.734,2.523-0.605,2.99c1.098,3.572,7.023,3.122,7.023,3.122s-2.115,1.896-4.623,2.089
		c0.181,0.161,1.445,0.359,1.445,0.359l-3.075,1.519C94.94,103.805,90.571,102.2,90.727,98.112"/>
	<path fill="#603913" d="M94.236,102.992c0,0-3.208-2.205-2.699-5.669c0.508-3.463,3.387-6.295,7.146-8.047
		c0,0-5.322,3.375-5.219,7.168c0.102,3.791,5.516,4.11,5.516,4.11l-2.602,0.852c0,0-3.002-1.152-3.461-3.738
		c0,0-0.346,3.156,3.285,4.829L94.236,102.992z"/>
	<g>
		<defs>
			<path id="SVGID_1_" d="M107.17,75.852c-0.139,2.859-0.678,5.442-2.209,7.891c-1.743,2.785-4.143,4.729-6.657,6.747
				c-1.655,1.328-3.831,2.967-4.127,5.262c-0.254,1.944,1.007,3.298,2.745,3.854c1.227,0.391,2.593,0.502,3.883,0.404
				c-0.481,0.41-0.967,0.878-1.52,1.153c-0.838,0.416-1.846,0.574-2.762,0.728c-0.09,0.015-0.103,0.154-0.004,0.17
				c0.27,0.045,0.537,0.09,0.807,0.135c0.2,0.034,0.401,0.072,0.604,0.102c0.308,0.046,0.045,0.015-0.164,0.102
				c-0.598,0.252-1.156,0.624-1.764,0.875c-0.271,0.112-0.734,0.397-1.033,0.391c-0.48-0.01-1.284-0.63-1.658-0.9
				c-0.5-0.364-0.943-0.809-1.298-1.32c-0.636-0.918-0.942-2.022-0.96-3.137c-0.092-6.124,6.339-8.859,10.149-12.347
				c2.098-1.921,3.868-4.458,3.868-7.432c0-0.033-0.049-0.028-0.051,0.005c-0.054,6.619-7.405,9.274-11.286,13.306
				c-2.614,2.716-4.247,7.614-1.064,10.595c0.538,0.504,1.686,1.45,2.44,1.353c0.422-0.055,0.902-0.334,1.291-0.504
				c0.624-0.273,1.23-0.581,1.796-0.966c0.059-0.042,0.032-0.141-0.037-0.152c-0.368-0.063-0.739-0.125-1.108-0.189
				c0.782-0.135,1.6-0.306,2.297-0.648c0.652-0.321,1.212-0.902,1.779-1.356c0.066-0.053,0.029-0.169-0.061-0.161
				c-2.807,0.283-7.735-0.599-6.599-4.589c0.681-2.394,3.21-4.006,5.032-5.456c2.265-1.799,4.282-3.708,5.789-6.227
				c1.426-2.385,1.953-4.92,2.031-7.682c0-0.044-0.037-0.066-0.076-0.066C107.209,75.791,107.174,75.81,107.17,75.852"/>
		</defs>
		<clipPath id="SVGID_2_">
			<use xlink:href="#SVGID_1_"  overflow="visible"/>
		</clipPath>
		
			<linearGradient id="SVGID_3_" gradientUnits="userSpaceOnUse" x1="-1529.9844" y1="1037.8179" x2="-1529.424" y2="1037.8179" gradientTransform="matrix(6.7765 65.7349 65.7349 -6.7765 -57755.0117 107690.75)">
			<stop  offset="0" style="stop-color:#180403"/>
			<stop  offset="0.0159" style="stop-color:#180403"/>
			<stop  offset="0.508" style="stop-color:#401611"/>
			<stop  offset="1" style="stop-color:#63261D"/>
		</linearGradient>
		<polygon clip-path="url(#SVGID_2_)" fill="url(#SVGID_3_)" points="107.133,73.971 110.186,103.588 89.675,105.704 86.621,76.087 
					"/>
	</g>
	<path fill="#E78277" d="M110.823,84.527c0,0-5.831-4.276-11.338-2.95c0,0-2.962,1.265-1.725,3.431c0,0,10.272,0.111,10.697,4.132
		C108.458,89.14,112.177,88.343,110.823,84.527"/>
	<path fill="none" stroke="#BA645D" stroke-width="1.208" stroke-miterlimit="10" d="M110.823,84.527c0,0-5.831-4.276-11.338-2.95
		c0,0-2.962,1.265-1.725,3.431c0,0,10.272,0.111,10.697,4.132C108.458,89.14,112.177,88.343,110.823,84.527z"/>
	<path fill="#2D304F" d="M130.449,87.14c0,0,2.361,1.308-0.264,4.593c0,0,1.727,1.216,2.75,0.312
		c1.021-0.904,8.202-5.844,8.202-5.844l-5.247,0.627L130.449,87.14z"/>
	
		<path fill="none" stroke="#52586D" stroke-width="1.208" stroke-linecap="round" stroke-linejoin="round" stroke-miterlimit="10" d="
		M130.449,87.14c0,0,2.361,1.308-0.264,4.593c0,0,1.727,1.216,2.75,0.312c1.021-0.904,8.202-5.844,8.202-5.844l-5.247,0.627
		L130.449,87.14z"/>
	<path fill="#603913" d="M134.532,21.297c0.341,0.638,3.694,11.58,6.411,18.888c0.443,1.189,1.266,0.744,2.882,2.029
		c0.399,0.317,1.337,2.406,1.194,3.131c-1.691,8.567-10.909,22.075-10.909,22.075s-2.033,8.172-2.923,13.343
		c2.164-0.013,16.965-0.337,23.139-9.826c5.152-11.027,11.681-22.247,10.273-40.31c-1.269-16.303-15.77-26.608-22.4-28.515
		c-14.68-4.221-31.302,1.758-31.302,1.758l18.462,12.119C129.359,15.989,129.076,11.075,134.532,21.297"/>
	<path fill="none" stroke="#3C2415" stroke-width="1.208" stroke-miterlimit="10" d="M134.532,21.297
		c0.341,0.638,3.694,11.58,6.411,18.888c0.443,1.189,1.266,0.744,2.882,2.029c0.399,0.317,1.337,2.406,1.194,3.131
		c-1.691,8.567-10.909,22.075-10.909,22.075s-2.033,8.172-2.923,13.343c2.164-0.013,16.965-0.337,23.139-9.826
		c5.152-11.027,11.681-22.247,10.273-40.31c-1.269-16.303-15.77-26.608-22.4-28.515c-14.68-4.221-31.302,1.758-31.302,1.758
		l18.462,12.119C129.359,15.989,129.076,11.075,134.532,21.297z"/>
	<path fill="#603913" d="M110.897,3.87c0,0-8.176,0.113-12.109,5.928c-3.933,5.815-3.809,8.434-4.672,9.984
		c-0.862,1.552-1.55,9.079-0.692,10.307c0.858,1.227,1.729,1.762,4.724,1.852c2.996,0.091,8.364,0.308,8.364,0.308
		s-3.563-12.23,1.427-16.306c0,0-4.4,18.659,14.23,20.686c0,0-9.083-12.953-6.597-18.619c0,0,1.684,16.347,19.797,19.013
		c0,0-11.58-10.21-10.008-16.22c0,0,4.936,9.579,9.424,10.579c4.49,1,6.011,7.239,6.011,7.239s4.065-15.88-3.953-25.581"/>
	<path fill="none" stroke="#3C2415" stroke-width="1.208" stroke-miterlimit="10" d="M110.897,3.87c0,0-8.176,0.113-12.109,5.928
		c-3.933,5.815-3.809,8.434-4.672,9.984c-0.862,1.552-1.55,9.079-0.692,10.307c0.858,1.227,1.729,1.762,4.724,1.852
		c2.996,0.091,8.364,0.308,8.364,0.308s-3.563-12.23,1.427-16.306c0,0-4.4,18.659,14.23,20.686c0,0-9.083-12.953-6.597-18.619
		c0,0,1.684,16.347,19.797,19.013c0,0-11.58-10.21-10.008-16.22c0,0,4.936,9.579,9.424,10.579c4.49,1,6.011,7.239,6.011,7.239
		s4.065-15.88-3.953-25.581"/>
	<path fill="#052F3F" d="M141.404,84.958c0,0-0.143-0.321-2.902,0.392c-2.758,0.713-4.589,2.069-4.589,2.069l-2.688,2.117
		l-0.88,0.594c0,0-0.762,0.713-1,0.833s-0.285,0.999-0.285,0.999s6.064-0.071,6.172-0.143c0.106-0.072,4.626-2.474,4.912-2.592
		c0.284-0.12,2.066-2.236,2.139-2.332C142.355,86.801,141.404,84.958,141.404,84.958"/>
	<path fill="#052F3F" d="M151.906,92.064c0,0-3.985-6.37-6.611-7.815c-1.024-0.559-3.866-0.232-3.866-0.232
		c-6.774,0.454-7.472,4.406-8.399,6.3c-0.926,1.893,2.349,4.802,2.349,4.802c-0.406-1.556-0.339-4.599-0.339-4.599
		c0.313-3.977,3.12-5.368,5.441-5.833c1.706-0.343,4.641,1.094,6.44,2.694C148.656,88.925,150.676,90.774,151.906,92.064"/>
	<path fill="#FFC691" d="M144.662,45.39c-0.577-0.146-0.61-2.147-1.186-1.969l-2.812-1.653c1.015-1.984,3.734,0.612,4.761,2.001
		C145.738,44.521,144.928,44.657,144.662,45.39"/>
	<path fill="#F1B486" d="M145.264,44.57c0.02-1.042-1.125-1.778-1.586-2.171c-0.699-0.6-1.457-1.055-2.018-1.009
		c-0.193,0.029-0.503,0.205-0.732,0.651l-0.564-0.426c0.353-0.688,0.87-0.89,1.24-0.899c0.811-0.066,1.733,0.499,2.515,1.17
		c0.701,0.602,1.289,1.289,1.581,1.685C145.898,43.84,145.426,44.579,145.264,44.57"/>
	
		<path fill="none" stroke="#3C2415" stroke-width="1.208" stroke-linecap="round" stroke-linejoin="round" stroke-miterlimit="10" d="
		M145.029,45.265c0.056-0.675,2.414-3.557,1.488-9.206"/>
	<path fill="#9D0227" d="M99.278,55.767c0,0-0.063,5.603,4.702,6.859c5.645,1.482,9.647-3.853,9.647-3.853s-5.976-0.009-8.524-0.596
		C102.552,57.59,99.278,55.767,99.278,55.767"/>
	<path fill="#DE0227" d="M101.004,60.131c-0.309,2.196,0.582,3.29,4.137,3.583c4.758,0.395,8.716-5.139,8.716-5.139
		s-3.04-0.324-6.573-0.815C103.75,57.27,101.312,57.935,101.004,60.131"/>
	<path fill="#FFFFFF" d="M99.522,55.898c0,0,0.274,1.906,3.731,3.126c3.754,1.33,9.725-0.046,9.725-0.046s-5.519-0.869-8.553-1.853
		C100.307,55.784,99.522,55.898,99.522,55.898"/>
	<path fill="#F3573F" d="M101.46,55.308c0.521,0.001,0.972,0.562,1.646,0.862c1.294,0.563,3.304-0.333,4.597,0.062
		c3.662,1.121,5.779,2.422,6.153,2.344c-1.7,1.363-4.82-0.667-6.632-0.434c-1.194,0.154-3.332-0.428-4.518-0.712
		c-0.836-0.195-1.398-0.652-2.079-0.899c-1.097-0.402-1.011-0.287-1.35-0.765c0.011,0.018,0.618,0.114,0.93-0.004
		C100.572,55.626,100.909,55.31,101.46,55.308"/>
	<path fill="#C1636D" d="M99.271,55.801c-0.004,0.01-0.004,0.023-0.009,0.038C99.266,55.826,99.268,55.813,99.271,55.801"/>
	<path fill="#EF967B" d="M100.431,62.176c-0.002-0.002-0.004-0.005-0.005-0.008c-1.613-3.193-1.244-5.859-1.163-6.329
		c-0.02,0.141-0.016,0.336,0.003,0.557c-0.003-0.293-0.001-0.52,0.006-0.599c0,0,0,0.002,0,0.003c0-0.001,0-0.002,0-0.003
		c0.002-0.021,0.004-0.033,0.007-0.03c0.085-0.174-0.356,4.637,4.223,6.329c5.991,2.223,10.378-3.569,10.355-3.521
		c0.244-0.115-2.865,7.558-9.97,6.032c-1.951-0.42-2.916-1.346-3.454-2.428v0.001C100.432,62.178,100.432,62.177,100.431,62.176"/>
	<path fill="#7F532E" d="M162.957,35.486c0,0-1.618-17.906-11.646-25.01c-10.028-7.105-21.825-7.178-21.825-7.178
		s16.789,4.196,20.298,9.792C153.29,18.685,161.907,25.961,162.957,35.486"/>
	<path fill="#7F532E" d="M133.773,11.371c0,0,6.032,8.391,5.871,16.205l-0.031,3.982c0,0-0.883-2.502-3.264-3.518
		c-2.377-1.016,1.719-3.429-0.043-7.126C134.547,17.216,133.773,11.371,133.773,11.371"/>
	<path fill="#7F532E" d="M111.079,7.143c0,0-14.218,3.399-16.478,18.661C94.602,25.804,94.376,7.709,111.079,7.143"/>
	<path fill="#7F532E" d="M111.732,13.479c0,0-0.813,14.179,5.866,19.417c0,0-6.917-0.675-8.344-7.178S111.732,13.479,111.732,13.479
		"/>
	<path fill="#3C2415" d="M148.031,47.539c0,0-5.781,17.01-13.921,19.881l-1.726,7.386C132.385,74.806,141.023,70.452,148.031,47.539
		"/>
	<path fill="#3C2415" d="M131.232,80.503c0,0,1.349,0.412,6.819-0.277c5.474-0.689,11.156-4.256,13.769-6.304
		c2.611-2.05,3.24-4.542,3.49-5.063c0.248-0.521-5.648,5.445-8.307,6.662s-15.08,3.495-15.426,3.128L131.232,80.503z"/>
	<path fill="#3C2415" d="M159.378,37.593c0,0,1.45,17.355-7.522,25.72c0,0,2.748-9.379,3.266-13.408
		c0.52-4.029,2.277-13.356,0.654-20.945C157.176,28.3,159.378,37.593,159.378,37.593"/>
	
		<path fill="none" stroke="#F1B486" stroke-width="1.208" stroke-linecap="round" stroke-linejoin="round" stroke-miterlimit="10" d="
		M106.287,67.765c0,0-3.296-2.587-4.746-1.923c-1.449,0.666-1.277,1.149-1.277,1.149"/>
	<g>
		<g>
			<path fill="#272A3F" d="M123.057,118.589l-0.004-1.289c0.337-0.001,0.679-0.013,1.021-0.034l0.078,1.287
				C123.784,118.576,123.417,118.588,123.057,118.589z M121.946,118.55c-0.386-0.03-0.761-0.077-1.119-0.145l0.238-1.267
				c0.313,0.059,0.642,0.1,0.98,0.126L121.946,118.55z M125.237,118.461l-0.139-1.281c0.346-0.038,0.689-0.083,1.026-0.132
				l0.188,1.275C125.96,118.375,125.601,118.421,125.237,118.461z M127.379,118.147l-0.23-1.269
				c0.355-0.064,0.697-0.132,1.021-0.201l0.268,1.261C128.102,118.01,127.746,118.08,127.379,118.147z M129.488,117.701
				l-0.303-1.253c0.389-0.094,0.73-0.182,1.012-0.258l0.334,1.245C130.242,117.513,129.889,117.604,129.488,117.701z"/>
		</g>
		<g>
			<path fill="#272A3F" d="M124.855,131.014c-0.316-0.001-0.627-0.027-0.925-0.077l0.215-1.271c0.229,0.039,0.469,0.059,0.712,0.06
				l0.201-0.002l0.027,1.289L124.855,131.014z M126.196,130.923l-0.182-1.276c0.321-0.046,0.628-0.113,0.914-0.201l0.377,1.232
				C126.957,130.785,126.584,130.868,126.196,130.923z M122.797,130.611c-0.357-0.148-0.704-0.34-1.029-0.568l0.74-1.055
				c0.249,0.174,0.513,0.32,0.783,0.433L122.797,130.611z M128.378,130.238l-0.604-1.139c0.268-0.142,0.519-0.311,0.746-0.502
				l0.83,0.986C129.054,129.833,128.727,130.054,128.378,130.238z M120.887,129.286c-0.253-0.264-0.496-0.56-0.72-0.879l1.055-0.74
				c0.187,0.266,0.387,0.51,0.595,0.727L120.887,129.286z M130.16,128.743l-1.014-0.797c0.184-0.233,0.353-0.494,0.501-0.774
				l1.139,0.605C130.601,128.125,130.391,128.45,130.16,128.743z M119.587,127.452c-0.172-0.322-0.327-0.657-0.467-1.002
				l1.193-0.485c0.124,0.303,0.26,0.599,0.41,0.881L119.587,127.452z M131.244,126.748l-1.211-0.442
				c0.107-0.295,0.202-0.605,0.283-0.929l1.25,0.314C131.474,126.059,131.367,126.412,131.244,126.748z M118.752,125.419
				c-0.107-0.346-0.201-0.697-0.283-1.05l1.256-0.291c0.074,0.322,0.16,0.643,0.258,0.959L118.752,125.419z M131.787,124.623
				l-1.271-0.213c0.054-0.319,0.098-0.649,0.132-0.989l1.283,0.131C131.893,123.92,131.845,124.277,131.787,124.623z
				 M118.262,123.307c-0.058-0.362-0.104-0.721-0.137-1.073l1.283-0.122c0.031,0.326,0.073,0.657,0.127,0.991L118.262,123.307z
				 M132.014,122.486l-1.287-0.07c0.019-0.331,0.029-0.669,0.035-1.015l1.289,0.021
				C132.045,121.785,132.032,122.139,132.014,122.486z M118.059,121.15l-0.005-0.384c0-0.243,0.006-0.479,0.019-0.706l1.287,0.07
				c-0.011,0.205-0.017,0.417-0.017,0.635l0.005,0.354L118.059,121.15z M130.763,120.383c-0.005-0.336-0.014-0.678-0.026-1.024
				l1.289-0.047c0.013,0.356,0.021,0.707,0.026,1.052L130.763,120.383z M119.46,119.166l-1.273-0.205
				c0.07-0.436,0.168-0.817,0.29-1.134l1.203,0.463C119.59,118.523,119.516,118.818,119.46,119.166z M130.688,118.334
				c-0.02-0.339-0.042-0.683-0.064-1.03l1.285-0.086c0.024,0.351,0.047,0.699,0.066,1.043L130.688,118.334z"/>
		</g>
		<g>
			<path fill="#272A3F" d="M131.113,117.273l-0.114-0.394l-0.405,0.036l-0.024-0.281l0.349-0.035l-0.164-0.565l0.26-0.078
				c0.184-0.059,0.387-0.032,0.551,0.075c0.163,0.106,0.269,0.281,0.288,0.475l0.025,0.294l-0.576,0.051l0.106,0.332
				L131.113,117.273z"/>
		</g>
		<g>
			<path fill="#272A3F" d="M119.603,118.065c-0.104-0.041-0.21-0.084-0.31-0.13l0.165-0.354l-0.609-0.436
				c0.116-0.144,0.243-0.259,0.378-0.343c0.185-0.115,0.413-0.128,0.611-0.036c0.074,0.035,0.152,0.066,0.231,0.097l-0.311,0.8
				l0.146,0.235l-0.186-0.132L119.603,118.065z"/>
		</g>
		<g>
			<polygon fill-rule="evenodd" clip-rule="evenodd" fill="#FFFFFF" points="122.565,123.149 124.953,123.079 123.741,125.823 
				123.422,125.521 124.194,123.779 124.214,123.729 124.223,123.684 124.212,123.63 124.195,123.601 124.174,123.578 
				124.124,123.552 124.061,123.541 122.596,123.584 			"/>
			<path fill-rule="evenodd" clip-rule="evenodd" fill="#FFFFFF" d="M125.004,120.578c0.309-0.009,0.58,0.264,0.603,0.606
				c0.024,0.343-0.207,0.631-0.516,0.641c-0.308,0.008-0.578-0.263-0.604-0.607C124.465,120.874,124.696,120.587,125.004,120.578"/>
			<polygon fill-rule="evenodd" clip-rule="evenodd" fill="#FFFFFF" points="125.197,123.527 124.055,126.046 124.418,126.227 
				125.167,124.587 125.19,124.551 125.226,124.528 125.273,124.517 125.328,124.525 125.363,124.549 125.391,124.581 
				126.371,126.168 126.715,125.952 			"/>
			<polygon fill-rule="evenodd" clip-rule="evenodd" fill="#FFFFFF" points="125.365,123.063 127.781,122.991 127.811,123.42 
				126.334,123.464 126.291,123.481 126.249,123.505 126.217,123.548 126.204,123.599 126.208,123.645 126.223,123.692 
				127.255,125.405 126.99,125.714 			"/>
			<path fill-rule="evenodd" clip-rule="evenodd" fill="#FFFFFF" d="M123.109,122.649v0.002c0,0.011-0.002,0.018-0.002,0.023
				c0.002,0.033,0.021,0.055,0.055,0.071c0.035,0.014,0.087,0.021,0.156,0.019c0.052-0.001,0.093-0.009,0.123-0.023
				c0.027-0.013,0.042-0.032,0.041-0.054c-0.003-0.034-0.064-0.06-0.183-0.078c-0.015-0.002-0.026-0.003-0.031-0.005
				c-0.01-0.001-0.02-0.002-0.035-0.005c-0.189-0.029-0.313-0.062-0.37-0.1c-0.027-0.019-0.047-0.041-0.064-0.067
				c-0.015-0.026-0.023-0.057-0.024-0.089c-0.007-0.083,0.032-0.146,0.118-0.19c0.08-0.045,0.205-0.07,0.373-0.075
				c0.164-0.005,0.286,0.012,0.368,0.049c0.081,0.038,0.126,0.098,0.132,0.181l0.002,0.009l-0.313,0.01l-0.002-0.003
				c0-0.028-0.018-0.05-0.051-0.064c-0.032-0.014-0.078-0.02-0.14-0.018c-0.046,0.001-0.083,0.008-0.107,0.019
				c-0.024,0.012-0.037,0.027-0.035,0.047c0.003,0.035,0.072,0.062,0.21,0.082c0.025,0.004,0.046,0.007,0.062,0.009
				c0.098,0.016,0.169,0.029,0.21,0.041c0.041,0.011,0.078,0.025,0.109,0.042c0.034,0.02,0.062,0.044,0.082,0.074
				c0.02,0.031,0.031,0.063,0.035,0.1c0.006,0.083-0.038,0.15-0.128,0.197c-0.093,0.048-0.226,0.076-0.402,0.081
				c-0.175,0.005-0.302-0.014-0.382-0.055c-0.084-0.041-0.128-0.11-0.133-0.206l-0.002-0.012L123.109,122.649z M123.981,122.896
				l-0.058-0.826l0.887-0.026l0.013,0.178l-0.555,0.016l0.009,0.131l0.514-0.015l0.011,0.176l-0.512,0.016l0.011,0.16l0.575-0.018
				l0.013,0.181L123.981,122.896z M125.029,122.866l-0.059-0.826l0.421-0.013l0.49,0.541l-0.038-0.554l0.318-0.009l0.059,0.826
				l-0.438,0.013l-0.476-0.543l0.04,0.555L125.029,122.866z M127.059,122.476l-0.182-0.294l-0.146,0.304L127.059,122.476z
				 M126.574,122.821l-0.334,0.01l0.458-0.842l0.369-0.011l0.549,0.812l-0.37,0.011l-0.085-0.147l-0.517,0.016L126.574,122.821z"/>
		</g>
	</g>
	<path d="M143.182,110.699l14.104-10.981l-1.439-1.789l-14.453,11.088C141.393,109.017,142.142,111.563,143.182,110.699"/>
	<path fill="#808285" d="M164.482,106.523c0.107,0.381-2.781,2.014-3.196,1.191c-0.417-0.821-2.739-6.02-5.676-9.534
		c-2.935-3.516-3.827-3.6-2.631-4.412c1.194-0.814,2.333-1.451,2.333-1.451s2.281,2.299,4.691,5.688
		C161.775,100.5,163.674,103.665,164.482,106.523"/>
	<path fill="#FFFFFF" d="M161.563,106.385c0,0-2.104-4.679-4.133-7.17c-2.029-2.492-4.178-4.899-4.178-4.899
		s-0.241-0.071,0.328-0.349c0.571-0.277,2.108-1.256,2.108-1.256s3.466,3.943,4.737,5.897c2.03,2.762,3.479,6.124,3.745,6.945
		c0.269,0.822-2.419,1.246-2.419,1.246S161.549,106.644,161.563,106.385"/>
	<path fill="#414042" d="M161.828,105.511l-0.336-0.654c0,0,1.515-0.613,1.705-0.891l0.316,0.763L161.828,105.511z"/>
	<path fill="#414042" d="M161.074,103.999l-0.345-0.599c0,0,0.761-0.427,1.001-0.581l0.258,0.681L161.074,103.999z"/>
	<polygon fill="#414042" points="156.756,97.273 156.155,96.52 157.755,95.138 158.35,95.864 	"/>
	<path fill="#414042" d="M155.168,95.233l-0.621-0.733l1.637-1.269l0.592,0.74C156.775,93.972,155.111,95.18,155.168,95.233"/>
	<polygon fill="#F1B486" points="107.986,55.796 107.437,55.227 106.018,55.086 106.125,55.796 	"/>
	<polygon fill="#F1B486" points="103.702,55.027 103.154,54.89 102.593,55.454 103.211,55.761 	"/>
	<path fill="#EF967B" d="M109.365,57.484c0,0-1.637-0.707-2.389-0.798c-0.752-0.09-1.467,0.331-1.467,0.331s1.107-0.238,1.553-0.13
		C107.603,57.017,109.371,57.668,109.365,57.484"/>
	<path fill="#EF967B" d="M102.776,56.404c0,0-0.642-0.647-0.911-0.604c-0.27,0.043-1.227-0.016-1.607,0.208
		c0,0,1.056,0.056,1.52,0.067c0.3,0.007,0.535,0.499,0.741,0.467C102.725,56.511,102.926,56.518,102.776,56.404"/>
	<path fill="#F4D5CE" d="M103.115,62.954c0,0-1.515-0.711-1.908-1.106c-0.381-0.379-0.56-0.026-0.4,0.113
		c0.119,0.104,1.246,1.148,1.955,1.277C103.47,63.365,103.524,63.187,103.115,62.954"/>
	<path fill="#BA7261" d="M109.929,63.542c0,0-2.593,1.149-3.796,1.158c-1.405,0.008-2.136,0.012-4.297-0.9
		c0,0,1.588,1.234,4.344,1.089C108.934,64.744,109.929,63.542,109.929,63.542"/>
	<path fill="#FFC691" d="M41.326,166.241c0,0,1.285-0.3,1.885,0c0.601,0.3,2.379,1.114,4.189,0.6
		c1.81-0.514,4.468-0.284,4.468-0.284s1.112,0.155,1.97-0.659c0.856-0.814,1.886-1.114,1.972-2.228c0.086-1.114,0.172-2.914,0-3.557
		"/>
	<path fill="none" stroke="#F1B486" stroke-width="0.66" stroke-miterlimit="10" d="M41.326,166.241c0,0,1.285-0.3,1.885,0
		c0.601,0.3,2.379,1.114,4.189,0.6c1.81-0.514,4.468-0.284,4.468-0.284s1.112,0.155,1.97-0.659c0.856-0.814,1.886-1.114,1.972-2.228
		c0.086-1.114,0.172-2.914,0-3.557"/>
	<path fill="#FFC691" d="M44.154,163.008c0,0,1.028,1.605,1.929,1.862c0,0,0.813,1.542,0.985,2.442
		c0.17,0.901,1.199,3.942,3.299,5.443c2.101,1.499,3.257,0.942,3.643,0.513c0.386-0.428,1.027-1.071,0.429-3.212
		c-0.601-2.144-0.856-3.128-1.285-3.814c-0.429-0.686-0.771-0.643-0.986-1.372c-0.214-0.729-0.343-1.243-0.299-1.542
		c0.042-0.3-0.172-1.5-0.172-1.5"/>
	<path fill="none" stroke="#F1B486" stroke-width="0.66" stroke-miterlimit="10" d="M44.154,163.008c0,0,1.028,1.605,1.929,1.862
		c0,0,0.813,1.542,0.985,2.442c0.17,0.901,1.199,3.942,3.299,5.443c2.101,1.499,3.257,0.942,3.643,0.513
		c0.386-0.428,1.027-1.071,0.429-3.212c-0.601-2.144-0.856-3.128-1.285-3.814c-0.429-0.686-0.771-0.643-0.986-1.372
		c-0.214-0.729-0.343-1.243-0.299-1.542c0.042-0.3-0.172-1.5-0.172-1.5"/>
	<path fill="#F1B486" d="M43.683,165.03c0,0,1.636,1.064,2.179,1.161c0.576,0.103,0.658-0.236,0.658-0.236l-0.437-1.085
		c0,0-1.795-1.11-2.043-1.741C43.683,163.449,43.683,165.03,43.683,165.03"/>
	<path fill="#E5865C" d="M52.724,170.423c0,0-2.183,0.103-2.478,1.034c0.39,1.385,0.895,2.014,1.646,1.87
		c0.749-0.145,1.244-0.385,1.574-0.746C53.797,172.219,52.853,170.766,52.724,170.423"/>
	<path fill="none" stroke="#F1B486" stroke-width="0.66" stroke-miterlimit="10" d="M52.724,170.423c0,0-2.183,0.103-2.478,1.034
		c0.39,1.385,0.895,2.014,1.646,1.87c0.749-0.145,1.244-0.385,1.574-0.746C53.797,172.219,52.853,170.766,52.724,170.423z"/>
	<path fill="#262262" d="M97.888,219.953c0,0,32.774,0.936,42.32-0.057c9.543-0.992,35.903-4.881,35.342-10.762
		c0,0,6.512,11.264-10.397,17.408c-6.326,2.362-23.964,3.383-38.489,3.623c-14.23,0.525-22.242-0.749-23.839-1.365
		C99.227,228.091,98.518,224.153,97.888,219.953"/>
</g>
</svg>
