<?xml version="1.0" encoding="utf-8"?>
<!-- Generator: Adobe Illustrator 16.0.0, SVG Export Plug-In . SVG Version: 6.00 Build 0)  -->
<!DOCTYPE svg PUBLIC "-//W3C//DTD SVG 1.1//EN" "http://www.w3.org/Graphics/SVG/1.1/DTD/svg11.dtd">
<svg version="1.1" id="Capa_1" xmlns="http://www.w3.org/2000/svg" xmlns:xlink="http://www.w3.org/1999/xlink" x="0px" y="0px"
	 width="97.244px" height="33.689px" viewBox="0 0 97.244 33.689" enable-background="new 0 0 97.244 33.689" xml:space="preserve">
<g>
	
		<linearGradient id="SVGID_1_" gradientUnits="userSpaceOnUse" x1="-5.3164" y1="-131.8743" x2="-5.3164" y2="-164.5662" gradientTransform="matrix(1 0 0 -1 54 -131.311)">
		<stop  offset="0" style="stop-color:#EC6421"/>
		<stop  offset="0.4099" style="stop-color:#EA6122"/>
		<stop  offset="0.6575" style="stop-color:#E45926"/>
		<stop  offset="0.8613" style="stop-color:#D94B2E"/>
		<stop  offset="1" style="stop-color:#CE3C35"/>
	</linearGradient>
	<path fill="url(#SVGID_1_)" stroke="#280707" stroke-miterlimit="10" d="M96.806,25.299c0,4.395-3.279,7.956-7.324,7.956H7.883
		c-4.044,0-7.322-3.562-7.322-7.956V8.519c0-4.396,3.278-7.956,7.322-7.956h81.599c4.045,0,7.324,3.561,7.324,7.955V25.299z"/>
</g>
<g enable-background="new    ">
	<path fill="#280707" d="M53.93,10.077c-0.459-0.027-0.944,0-1.593,0.054c-3.644,0.297-5.264,2.159-5.723,4.211h0.081
		c0.864-0.891,2.079-1.403,3.726-1.403c2.941,0,5.425,2.078,5.425,5.722c0,3.482-2.672,6.344-6.478,6.344
		c-4.67,0-6.965-3.482-6.965-7.666c0-3.293,1.215-6.046,3.104-7.801c1.754-1.593,4.022-2.456,6.774-2.592
		c0.756-0.054,1.242-0.054,1.647-0.026V10.077z M51.688,18.877c0-1.62-0.863-3.023-2.618-3.023c-1.107,0-2.024,0.675-2.429,1.565
		c-0.108,0.216-0.162,0.54-0.162,1.025c0.081,1.863,0.972,3.536,2.834,3.536C50.771,21.98,51.688,20.658,51.688,18.877z"/>
</g>
</svg>
