<?xml version="1.0" encoding="utf-8"?>
<!-- Generator: Adobe Illustrator 16.0.0, SVG Export Plug-In . SVG Version: 6.00 Build 0)  -->
<!DOCTYPE svg PUBLIC "-//W3C//DTD SVG 1.1//EN" "http://www.w3.org/Graphics/SVG/1.1/DTD/svg11.dtd">
<svg version="1.1" id="Capa_1" xmlns="http://www.w3.org/2000/svg" xmlns:xlink="http://www.w3.org/1999/xlink" x="0px" y="0px"
	 width="97.244px" height="33.691px" viewBox="0 0 97.244 33.691" enable-background="new 0 0 97.244 33.691" xml:space="preserve">
<g>
	
		<linearGradient id="SVGID_1_" gradientUnits="userSpaceOnUse" x1="-5.3862" y1="-131.8606" x2="-5.3862" y2="-164.5544" gradientTransform="matrix(1 0 0 -1 54 -131.3091)">
		<stop  offset="0" style="stop-color:#EC6421"/>
		<stop  offset="0.4099" style="stop-color:#EA6122"/>
		<stop  offset="0.6575" style="stop-color:#E45926"/>
		<stop  offset="0.8613" style="stop-color:#D94B2E"/>
		<stop  offset="1" style="stop-color:#CE3C35"/>
	</linearGradient>
	<path fill="url(#SVGID_1_)" stroke="#280707" stroke-miterlimit="10" d="M96.735,25.289c0,4.395-3.278,7.956-7.323,7.956H7.813
		c-4.044,0-7.322-3.562-7.322-7.956V8.508c0-4.395,3.278-7.956,7.322-7.956h81.599c4.045,0,7.323,3.562,7.323,7.955V25.289z"/>
</g>
<text transform="matrix(1 0 0 1 450 139.9998)" font-family="'MyriadPro-Regular'" font-size="12">280707</text>
<text transform="matrix(1 0 0 1 450 139.9998)" font-family="'MyriadPro-Regular'" font-size="12">280707</text>
<g enable-background="new    ">
	<path fill="#280707" d="M39.273,24.656v-2.483l2.267-2.052c3.833-3.428,5.696-5.398,5.75-7.449c0-1.431-0.864-2.564-2.888-2.564
		c-1.511,0-2.834,0.756-3.752,1.457l-1.161-2.942c1.323-0.998,3.374-1.808,5.75-1.808c3.968,0,6.154,2.321,6.154,5.506
		c0,2.942-2.132,5.291-4.67,7.559l-1.619,1.35v0.054h6.612v3.374H39.273z"/>
</g>
</svg>
