<?xml version="1.0" encoding="utf-8"?>
<!-- Generator: Adobe Illustrator 16.0.0, SVG Export Plug-In . SVG Version: 6.00 Build 0)  -->
<!DOCTYPE svg PUBLIC "-//W3C//DTD SVG 1.1//EN" "http://www.w3.org/Graphics/SVG/1.1/DTD/svg11.dtd">
<svg version="1.1" id="Capa_1" xmlns="http://www.w3.org/2000/svg" xmlns:xlink="http://www.w3.org/1999/xlink" x="0px" y="0px"
	 width="97.244px" height="33.689px" viewBox="0 0 97.244 33.689" enable-background="new 0 0 97.244 33.689" xml:space="preserve">
<g>
	<text transform="matrix(1 0 0 1 13 20.8787)" fill="#280707" font-family="'Arial-BoldMT'" font-size="14">Information  </text>
	
		<linearGradient id="SVGID_1_" gradientUnits="userSpaceOnUse" x1="-5.2896" y1="-131.8743" x2="-5.2896" y2="-164.5662" gradientTransform="matrix(1 0 0 -1 54 -131.311)">
		<stop  offset="0" style="stop-color:#EC6421"/>
		<stop  offset="0.4099" style="stop-color:#EA6122"/>
		<stop  offset="0.6575" style="stop-color:#E45926"/>
		<stop  offset="0.8613" style="stop-color:#D94B2E"/>
		<stop  offset="1" style="stop-color:#CE3C35"/>
	</linearGradient>
	<path fill="url(#SVGID_1_)" stroke="#280707" stroke-miterlimit="10" d="M96.832,25.299c0,4.395-3.278,7.956-7.323,7.956H7.91
		c-4.044,0-7.322-3.562-7.322-7.956V8.519c0-4.396,3.278-7.956,7.322-7.956h81.599c4.045,0,7.323,3.561,7.323,7.955V25.299z"/>
</g>
<g enable-background="new    ">
	<path fill="#280707" d="M46.973,24.707v-4.184h-7.774V17.85L45.84,7.162h5.021v10.284h2.105v3.077H50.86v4.184H46.973z
		 M46.973,17.446v-3.888c0-1.053,0.054-2.132,0.135-3.266H47c-0.567,1.134-1.026,2.159-1.62,3.266l-2.349,3.833v0.055H46.973z"/>
</g>
</svg>
