<?xml version="1.0" encoding="utf-8"?>
<!-- Generator: Adobe Illustrator 16.0.0, SVG Export Plug-In . SVG Version: 6.00 Build 0)  -->
<!DOCTYPE svg PUBLIC "-//W3C//DTD SVG 1.1//EN" "http://www.w3.org/Graphics/SVG/1.1/DTD/svg11.dtd">
<svg version="1.1" id="Capa_1" xmlns="http://www.w3.org/2000/svg" xmlns:xlink="http://www.w3.org/1999/xlink" x="0px" y="0px"
	 width="505.509px" height="153.673px" viewBox="0 0 505.509 153.673" enable-background="new 0 0 505.509 153.673"
	 xml:space="preserve">
<g>
	<g>
		<rect x="503.509" fill="#FFFFFF" width="2" height="153.673"/>
	</g>
	<g>
		<path fill="#FFFFFF" d="M30.167,67.614c-0.669,1.558-1.588,2.921-2.756,4.089c-1.169,1.168-2.532,2.087-4.09,2.757
			c-1.558,0.669-3.226,1.004-5.002,1.004h-3.724c-1.777,0-3.45-0.335-5.021-1.004c-1.569-0.67-2.938-1.589-4.107-2.757
			c-1.168-1.168-2.087-2.531-2.757-4.089c-0.669-1.558-1.004-3.226-1.004-5.002V22.376h4.71v40.235c0,1.168,0.22,2.258,0.657,3.268
			c0.438,1.01,1.041,1.898,1.808,2.665s1.655,1.369,2.665,1.808c1.01,0.438,2.1,0.657,3.268,0.657h3.286
			c1.168,0,2.258-0.22,3.268-0.657c1.01-0.438,1.893-1.041,2.647-1.808c0.754-0.767,1.351-1.655,1.789-2.665
			c0.438-1.01,0.657-2.1,0.657-3.268V22.376h4.71v40.235C31.172,64.388,30.837,66.056,30.167,67.614z"/>
		<path fill="#FFFFFF" d="M69.397,74.733L47.564,36.616l-0.438-2.264v40.381h-4.71V22.376h2.446L66.696,60.53l0.475,2.228V22.376
			h4.71v52.356H69.397z"/>
		<path fill="#FFFFFF" d="M112.316,66.883c-0.67,1.558-1.589,2.921-2.757,4.089c-1.169,1.169-2.538,2.088-4.107,2.757
			c-1.57,0.67-3.244,1.004-5.021,1.004H83.855V22.376h16.576c1.776,0,3.45,0.335,5.021,1.004c1.569,0.67,2.938,1.589,4.107,2.757
			c1.168,1.168,2.087,2.537,2.757,4.107c0.669,1.57,1.004,3.244,1.004,5.021v26.616C113.32,63.659,112.985,65.326,112.316,66.883z
			 M108.61,35.265c0-1.169-0.22-2.258-0.657-3.268c-0.438-1.01-1.041-1.898-1.808-2.666c-0.767-0.767-1.655-1.369-2.665-1.807
			c-1.011-0.438-2.1-0.657-3.268-0.657H88.565v43.374h11.647c1.168,0,2.257-0.219,3.268-0.657c1.01-0.438,1.898-1.034,2.665-1.789
			c0.767-0.754,1.369-1.636,1.808-2.646c0.438-1.01,0.657-2.1,0.657-3.268V35.265z"/>
		<path fill="#FFFFFF" d="M124.528,74.733V22.376h29.465v4.491h-24.755v19.46h20.045v4.491h-20.045v19.423h24.755v4.491H124.528z"/>
		<path fill="#FFFFFF" d="M187.582,74.733L173.38,52.388h-6.463v22.345h-4.71V22.376h16.612c1.776,0,3.444,0.335,5.002,1.004
			c1.558,0.67,2.921,1.589,4.09,2.757c1.168,1.168,2.087,2.537,2.756,4.107c0.67,1.57,1.005,3.244,1.005,5.021V39.5
			c0,1.776-0.335,3.45-1.005,5.02c-0.669,1.57-1.588,2.939-2.756,4.107c-1.169,1.169-2.532,2.088-4.09,2.757
			c-1.558,0.67-3.226,1.004-5.002,1.004l14.203,22.345H187.582z M186.962,35.265c0-1.169-0.22-2.258-0.657-3.268
			c-0.438-1.01-1.035-1.898-1.789-2.666c-0.755-0.767-1.638-1.369-2.647-1.807c-1.01-0.438-2.1-0.657-3.268-0.657h-11.684v21.03
			h11.684c1.168,0,2.258-0.22,3.268-0.657c1.01-0.438,1.893-1.041,2.647-1.808c0.754-0.767,1.351-1.655,1.789-2.665
			c0.438-1.01,0.657-2.1,0.657-3.268V35.265z"/>
		<path fill="#FFFFFF" d="M230.702,62.612c0,1.776-0.359,3.444-1.077,5.002c-0.719,1.558-1.68,2.921-2.885,4.089
			s-2.604,2.087-4.198,2.757c-1.595,0.669-3.28,1.004-5.058,1.004h-3.76c-1.777,0-3.463-0.335-5.057-1.004
			c-1.595-0.67-2.994-1.589-4.199-2.757s-2.167-2.531-2.884-4.089c-0.719-1.558-1.077-3.226-1.077-5.002V60.53l4.709-0.767v2.849
			c0,1.168,0.238,2.258,0.713,3.268s1.113,1.898,1.916,2.665c0.804,0.767,1.734,1.369,2.793,1.808
			c1.06,0.438,2.173,0.657,3.341,0.657h3.286c1.169,0,2.275-0.22,3.322-0.657c1.047-0.438,1.972-1.041,2.775-1.808
			c0.803-0.767,1.442-1.655,1.917-2.665s0.712-2.1,0.712-3.268v-1.57c0-1.801-0.354-3.298-1.06-4.491
			c-0.706-1.192-1.643-2.209-2.811-3.048c-1.169-0.84-2.489-1.552-3.962-2.137c-1.473-0.584-2.988-1.168-4.546-1.752
			s-3.072-1.229-4.545-1.936c-1.474-0.705-2.793-1.588-3.962-2.646c-1.168-1.059-2.105-2.355-2.811-3.889
			c-0.707-1.533-1.06-3.419-1.06-5.659v-0.985c0-1.776,0.335-3.444,1.004-5.002c0.67-1.558,1.589-2.921,2.757-4.09
			c1.169-1.168,2.538-2.087,4.107-2.756c1.57-0.67,3.243-1.005,5.021-1.005h3.358c1.777,0,3.444,0.335,5.002,1.005
			c1.558,0.669,2.921,1.588,4.09,2.756c1.168,1.169,2.087,2.532,2.757,4.09c0.669,1.558,1.004,3.226,1.004,5.002v1.351l-4.71,0.767
			v-2.117c0-1.169-0.22-2.258-0.657-3.268c-0.438-1.01-1.035-1.893-1.789-2.647c-0.755-0.754-1.638-1.351-2.647-1.789
			s-2.099-0.657-3.268-0.657h-2.921c-1.168,0-2.258,0.219-3.268,0.657s-1.898,1.035-2.665,1.789
			c-0.767,0.755-1.369,1.638-1.808,2.647c-0.438,1.01-0.657,2.099-0.657,3.268v0.985c0,1.68,0.353,3.092,1.059,4.235
			c0.706,1.145,1.644,2.124,2.812,2.939c1.169,0.815,2.488,1.521,3.962,2.117c1.472,0.597,2.987,1.205,4.545,1.825
			c1.558,0.621,3.073,1.303,4.546,2.045c1.473,0.743,2.793,1.655,3.962,2.738c1.168,1.083,2.104,2.404,2.811,3.962
			s1.06,3.456,1.06,5.695V62.612z"/>
		<path fill="#FFFFFF" d="M253.521,26.868v47.865h-4.71V26.868h-12.486v-4.491h29.683v4.491H253.521z"/>
		<path fill="#FFFFFF" d="M293.135,62.539h-16.576l-3.432,12.194h-4.893l15.334-52.356h2.483l15.407,52.356h-4.856L293.135,62.539z
			 M277.836,58.047h14.057l-6.9-24.134l-0.146-1.935l-0.146,1.935L277.836,58.047z"/>
		<path fill="#FFFFFF" d="M335.158,74.733l-21.833-38.117l-0.438-2.264v40.381h-4.71V22.376h2.446l21.834,38.153l0.475,2.228V22.376
			h4.71v52.356H335.158z"/>
		<path fill="#FFFFFF" d="M378.077,66.883c-0.67,1.558-1.589,2.921-2.757,4.089c-1.169,1.169-2.538,2.088-4.107,2.757
			c-1.57,0.67-3.244,1.004-5.021,1.004h-16.576V22.376h16.576c1.776,0,3.45,0.335,5.021,1.004c1.569,0.67,2.938,1.589,4.107,2.757
			c1.168,1.168,2.087,2.537,2.757,4.107c0.669,1.57,1.004,3.244,1.004,5.021v26.616C379.081,63.659,378.746,65.326,378.077,66.883z
			 M374.371,35.265c0-1.169-0.22-2.258-0.657-3.268c-0.438-1.01-1.041-1.898-1.808-2.666c-0.767-0.767-1.655-1.369-2.665-1.807
			c-1.011-0.438-2.1-0.657-3.268-0.657h-11.647v43.374h11.647c1.168,0,2.257-0.219,3.268-0.657c1.01-0.438,1.898-1.034,2.665-1.789
			c0.767-0.754,1.369-1.636,1.808-2.646c0.438-1.01,0.657-2.1,0.657-3.268V35.265z"/>
		<path fill="#FFFFFF" d="M390.289,74.733V22.376h4.71v52.356H390.289z"/>
		<path fill="#FFFFFF" d="M433.956,74.733l-21.833-38.117l-0.438-2.264v40.381h-4.71V22.376h2.446l21.834,38.153l0.475,2.228V22.376
			h4.71v52.356H433.956z"/>
		<path fill="#FFFFFF" d="M477.112,74.733h-1.497l-2.738-4.198c-1.145,1.509-2.532,2.708-4.162,3.596
			c-1.632,0.889-3.445,1.333-5.44,1.333h-2.738c-1.777,0-3.45-0.335-5.021-1.004c-1.569-0.67-2.938-1.589-4.107-2.757
			c-1.168-1.168-2.087-2.531-2.757-4.089c-0.669-1.558-1.004-3.226-1.004-5.002V34.499c0-1.776,0.335-3.444,1.004-5.002
			c0.67-1.558,1.589-2.921,2.757-4.09c1.169-1.168,2.538-2.087,4.107-2.756c1.57-0.67,3.243-1.005,5.021-1.005h3.724
			c1.776,0,3.444,0.335,5.002,1.005c1.558,0.669,2.921,1.588,4.09,2.756c1.168,1.169,2.087,2.532,2.756,4.09
			c0.67,1.558,1.005,3.226,1.005,5.002v2.117l-4.71,0.73v-2.848c0-1.169-0.22-2.258-0.657-3.268
			c-0.438-1.01-1.035-1.893-1.789-2.647c-0.755-0.754-1.638-1.351-2.647-1.789s-2.1-0.657-3.268-0.657h-3.286
			c-1.168,0-2.258,0.219-3.268,0.657s-1.898,1.035-2.665,1.789c-0.767,0.755-1.369,1.638-1.808,2.647
			c-0.438,1.01-0.657,2.099-0.657,3.268v28.113c0,1.168,0.22,2.258,0.657,3.268c0.438,1.01,1.041,1.898,1.808,2.665
			s1.655,1.369,2.665,1.808c1.01,0.438,2.1,0.657,3.268,0.657h3.286c1.168,0,2.258-0.22,3.268-0.657
			c1.01-0.438,1.893-1.041,2.647-1.808c0.754-0.767,1.351-1.655,1.789-2.665c0.438-1.01,0.657-2.1,0.657-3.268V51.695h-8.361v-4.491
			h13.071V74.733z"/>
	</g>
	<g>
		<path fill="#FFFFFF" d="M16.703,121.82c-0.393,0.914-0.932,1.714-1.618,2.399c-0.686,0.686-1.488,1.225-2.41,1.618
			c-0.921,0.393-1.903,0.589-2.946,0.589H0V95.699h9.729c1.043,0,2.025,0.197,2.946,0.59c0.922,0.393,1.725,0.932,2.41,1.617
			c0.687,0.687,1.226,1.489,1.618,2.411c0.393,0.921,0.589,1.903,0.589,2.946v0.3c0,0.729-0.096,1.425-0.289,2.089
			c-0.192,0.665-0.468,1.282-0.824,1.854c-0.357,0.572-0.779,1.09-1.265,1.554c-0.486,0.465-1.028,0.854-1.629,1.168
			c0.601,0.314,1.143,0.704,1.629,1.168c0.485,0.464,0.907,0.985,1.265,1.564c0.356,0.578,0.632,1.199,0.824,1.864
			c0.193,0.664,0.289,1.36,0.289,2.089v1.971C17.292,119.926,17.096,120.906,16.703,121.82z M14.528,103.263
			c0-0.686-0.129-1.325-0.386-1.918s-0.61-1.114-1.061-1.564c-0.45-0.449-0.972-0.803-1.564-1.061
			c-0.593-0.257-1.231-0.386-1.918-0.386H2.765v10.586H9.6c0.687,0,1.325-0.129,1.918-0.386c0.593-0.258,1.114-0.611,1.564-1.062
			c0.45-0.449,0.804-0.971,1.061-1.563s0.386-1.232,0.386-1.918V103.263z M14.528,116.462c0-0.686-0.129-1.325-0.386-1.918
			s-0.61-1.11-1.061-1.554c-0.45-0.442-0.972-0.792-1.564-1.05c-0.593-0.257-1.231-0.386-1.918-0.386H2.765v12.235H9.6
			c0.687,0,1.325-0.128,1.918-0.386c0.593-0.257,1.114-0.606,1.564-1.05c0.45-0.442,0.804-0.961,1.061-1.554
			s0.386-1.231,0.386-1.918V116.462z"/>
		<path fill="#FFFFFF" d="M34.092,119.269h-9.728l-2.015,7.157h-2.871l8.999-30.728h1.457l9.043,30.728h-2.85L34.092,119.269z
			 M25.114,116.634h8.249l-4.05-14.164l-0.086-1.136l-0.085,1.136L25.114,116.634z"/>
		<path fill="#FFFFFF" d="M59.763,119.312c0,1.043-0.211,2.021-0.633,2.936c-0.421,0.915-0.985,1.715-1.692,2.4
			s-1.528,1.225-2.464,1.617c-0.937,0.394-1.926,0.59-2.968,0.59h-2.207c-1.043,0-2.032-0.196-2.968-0.59
			c-0.936-0.393-1.757-0.932-2.464-1.617c-0.708-0.686-1.272-1.485-1.693-2.4c-0.422-0.914-0.632-1.893-0.632-2.936v-1.221
			l2.764-0.45v1.671c0,0.686,0.14,1.325,0.418,1.918s0.653,1.114,1.125,1.564s1.018,0.804,1.64,1.061
			c0.621,0.257,1.274,0.386,1.96,0.386h1.929c0.686,0,1.336-0.129,1.95-0.386s1.157-0.61,1.628-1.061
			c0.472-0.45,0.847-0.972,1.125-1.564c0.279-0.593,0.418-1.232,0.418-1.918v-0.921c0-1.058-0.207-1.936-0.621-2.636
			c-0.415-0.7-0.964-1.296-1.65-1.789c-0.686-0.493-1.46-0.911-2.324-1.254c-0.865-0.343-1.754-0.686-2.668-1.028
			s-1.804-0.721-2.668-1.136c-0.864-0.414-1.639-0.932-2.324-1.554c-0.687-0.621-1.236-1.382-1.65-2.281
			c-0.414-0.9-0.621-2.007-0.621-3.321v-0.579c0-1.042,0.196-2.021,0.589-2.936s0.933-1.714,1.618-2.399
			c0.686-0.687,1.489-1.225,2.41-1.618c0.922-0.393,1.903-0.589,2.946-0.589h1.972c1.042,0,2.021,0.196,2.936,0.589
			c0.914,0.394,1.714,0.932,2.399,1.618c0.686,0.686,1.225,1.485,1.618,2.399c0.393,0.914,0.589,1.894,0.589,2.936v0.793
			l-2.764,0.45v-1.243c0-0.686-0.129-1.324-0.386-1.918c-0.257-0.592-0.607-1.11-1.05-1.553c-0.443-0.443-0.961-0.793-1.554-1.051
			c-0.593-0.257-1.232-0.386-1.918-0.386h-1.714c-0.686,0-1.325,0.129-1.918,0.386c-0.593,0.258-1.114,0.607-1.564,1.051
			c-0.45,0.442-0.804,0.961-1.061,1.553c-0.257,0.594-0.386,1.232-0.386,1.918v0.579c0,0.985,0.207,1.813,0.621,2.485
			c0.415,0.672,0.965,1.246,1.65,1.725s1.46,0.893,2.325,1.243c0.864,0.35,1.753,0.707,2.667,1.071s1.804,0.765,2.668,1.2
			s1.64,0.972,2.325,1.606c0.686,0.636,1.235,1.411,1.649,2.325s0.622,2.028,0.622,3.343V119.312z"/>
		<path fill="#FFFFFF" d="M65.697,126.426V95.699h2.765v30.728H65.697z"/>
		<path fill="#FFFFFF" d="M91.742,122.248c-0.393,0.915-0.932,1.715-1.617,2.4s-1.486,1.225-2.4,1.617
			c-0.914,0.394-1.893,0.59-2.936,0.59h-2.186c-1.043,0-2.024-0.196-2.946-0.59c-0.921-0.393-1.725-0.932-2.41-1.617
			s-1.226-1.485-1.618-2.4c-0.393-0.914-0.589-1.893-0.589-2.936v-16.499c0-1.042,0.196-2.021,0.589-2.936s0.933-1.714,1.618-2.399
			c0.686-0.687,1.489-1.225,2.41-1.618c0.922-0.393,1.903-0.589,2.946-0.589h2.186c1.043,0,2.021,0.196,2.936,0.589
			c0.914,0.394,1.715,0.932,2.4,1.618c0.686,0.686,1.225,1.485,1.617,2.399s0.59,1.894,0.59,2.936v1.243l-2.765,0.429v-1.672
			c0-0.686-0.128-1.324-0.386-1.918c-0.257-0.592-0.607-1.11-1.05-1.553c-0.442-0.443-0.961-0.793-1.554-1.051
			c-0.593-0.257-1.231-0.386-1.917-0.386h-1.929c-0.686,0-1.325,0.129-1.918,0.386c-0.593,0.258-1.114,0.607-1.564,1.051
			c-0.45,0.442-0.804,0.961-1.061,1.553c-0.257,0.594-0.386,1.232-0.386,1.918v16.499c0,0.686,0.129,1.325,0.386,1.918
			s0.61,1.114,1.061,1.564s0.972,0.804,1.564,1.061s1.232,0.386,1.918,0.386h1.929c0.686,0,1.324-0.129,1.917-0.386
			s1.111-0.61,1.554-1.061s0.793-0.972,1.05-1.564c0.258-0.593,0.386-1.232,0.386-1.918v-1.671l2.765,0.45v1.221
			C92.332,120.355,92.135,121.333,91.742,122.248z"/>
		<path fill="#F6E42F" d="M116.031,98.334v28.092h-2.764V98.334h-7.328v-2.636h17.42v2.636H116.031z"/>
		<path fill="#F6E42F" d="M127.752,126.426V95.699h17.292v2.636h-14.527v11.421h11.764v2.636h-11.764v11.399h14.527v2.636H127.752z"
			/>
		<path fill="#F6E42F" d="M166.568,122.248c-0.393,0.915-0.932,1.715-1.617,2.4s-1.486,1.225-2.4,1.617
			c-0.914,0.394-1.893,0.59-2.936,0.59h-2.186c-1.043,0-2.024-0.196-2.946-0.59c-0.921-0.393-1.725-0.932-2.41-1.617
			s-1.226-1.485-1.618-2.4c-0.393-0.914-0.589-1.893-0.589-2.936v-16.499c0-1.042,0.196-2.021,0.589-2.936s0.933-1.714,1.618-2.399
			c0.686-0.687,1.489-1.225,2.41-1.618c0.922-0.393,1.903-0.589,2.946-0.589h2.186c1.043,0,2.021,0.196,2.936,0.589
			c0.914,0.394,1.715,0.932,2.4,1.618c0.686,0.686,1.225,1.485,1.617,2.399s0.59,1.894,0.59,2.936v1.243l-2.765,0.429v-1.672
			c0-0.686-0.128-1.324-0.386-1.918c-0.257-0.592-0.607-1.11-1.05-1.553c-0.442-0.443-0.961-0.793-1.554-1.051
			c-0.593-0.257-1.231-0.386-1.917-0.386h-1.929c-0.686,0-1.325,0.129-1.918,0.386c-0.593,0.258-1.114,0.607-1.564,1.051
			c-0.45,0.442-0.804,0.961-1.061,1.553c-0.257,0.594-0.386,1.232-0.386,1.918v16.499c0,0.686,0.129,1.325,0.386,1.918
			s0.61,1.114,1.061,1.564s0.972,0.804,1.564,1.061s1.232,0.386,1.918,0.386h1.929c0.686,0,1.324-0.129,1.917-0.386
			s1.111-0.61,1.554-1.061s0.793-0.972,1.05-1.564c0.258-0.593,0.386-1.232,0.386-1.918v-1.671l2.765,0.45v1.221
			C167.158,120.355,166.961,121.333,166.568,122.248z"/>
		<path fill="#F6E42F" d="M187.836,126.426v-14.035h-11.764v14.035h-2.765V95.699h2.765v14.057h11.764V95.699h2.764v30.728H187.836z
			"/>
		<path fill="#F6E42F" d="M213.463,126.426l-12.813-22.37l-0.257-1.329v23.699h-2.765V95.699h1.437l12.813,22.393l0.278,1.307
			V95.699h2.764v30.728H213.463z"/>
		<path fill="#F6E42F" d="M221.948,126.426V95.699h2.765v30.728H221.948z"/>
		<path fill="#F6E42F" d="M247.993,122.248c-0.393,0.915-0.932,1.715-1.617,2.4s-1.486,1.225-2.4,1.617
			c-0.914,0.394-1.893,0.59-2.936,0.59h-2.186c-1.043,0-2.024-0.196-2.946-0.59c-0.921-0.393-1.725-0.932-2.41-1.617
			s-1.226-1.485-1.618-2.4c-0.393-0.914-0.589-1.893-0.589-2.936v-16.499c0-1.042,0.196-2.021,0.589-2.936s0.933-1.714,1.618-2.399
			c0.686-0.687,1.489-1.225,2.41-1.618c0.922-0.393,1.903-0.589,2.946-0.589h2.186c1.043,0,2.021,0.196,2.936,0.589
			c0.914,0.394,1.715,0.932,2.4,1.618c0.686,0.686,1.225,1.485,1.617,2.399s0.59,1.894,0.59,2.936v1.243l-2.765,0.429v-1.672
			c0-0.686-0.128-1.324-0.386-1.918c-0.257-0.592-0.607-1.11-1.05-1.553c-0.442-0.443-0.961-0.793-1.554-1.051
			c-0.593-0.257-1.231-0.386-1.917-0.386h-1.929c-0.686,0-1.325,0.129-1.918,0.386c-0.593,0.258-1.114,0.607-1.564,1.051
			c-0.45,0.442-0.804,0.961-1.061,1.553c-0.257,0.594-0.386,1.232-0.386,1.918v16.499c0,0.686,0.129,1.325,0.386,1.918
			s0.61,1.114,1.061,1.564s0.972,0.804,1.564,1.061s1.232,0.386,1.918,0.386h1.929c0.686,0,1.324-0.129,1.917-0.386
			s1.111-0.61,1.554-1.061s0.793-0.972,1.05-1.564c0.258-0.593,0.386-1.232,0.386-1.918v-1.671l2.765,0.45v1.221
			C248.583,120.355,248.386,121.333,247.993,122.248z"/>
		<path fill="#F6E42F" d="M266.261,119.269h-9.728l-2.015,7.157h-2.871l8.999-30.728h1.457l9.043,30.728h-2.85L266.261,119.269z
			 M257.283,116.634h8.249l-4.05-14.164l-0.086-1.136l-0.085,1.136L257.283,116.634z"/>
		<path fill="#F6E42F" d="M274.64,126.426V95.699h2.764v28.092h11.764v2.636H274.64z"/>
		<path fill="#FFFFFF" d="M303.203,126.426V95.699h2.764v28.092h11.764v2.636H303.203z"/>
		<path fill="#FFFFFF" d="M333.651,119.269h-9.728l-2.015,7.157h-2.871l8.999-30.728h1.457l9.043,30.728h-2.85L333.651,119.269z
			 M324.674,116.634h8.249l-4.05-14.164l-0.086-1.136l-0.085,1.136L324.674,116.634z"/>
		<path fill="#FFFFFF" d="M358.314,126.426l-12.813-22.37l-0.257-1.329v23.699h-2.765V95.699h1.437l12.813,22.393l0.278,1.307
			V95.699h2.764v30.728H358.314z"/>
		<path fill="#FFFFFF" d="M383.643,126.426h-0.879l-1.607-2.464c-0.671,0.886-1.485,1.589-2.442,2.11s-2.021,0.782-3.192,0.782
			h-1.607c-1.043,0-2.024-0.196-2.946-0.59c-0.921-0.393-1.725-0.932-2.41-1.617s-1.226-1.485-1.618-2.4
			c-0.393-0.914-0.589-1.893-0.589-2.936v-16.499c0-1.042,0.196-2.021,0.589-2.936s0.933-1.714,1.618-2.399
			c0.686-0.687,1.489-1.225,2.41-1.618c0.922-0.393,1.903-0.589,2.946-0.589h2.186c1.043,0,2.021,0.196,2.936,0.589
			c0.914,0.394,1.715,0.932,2.4,1.618c0.686,0.686,1.225,1.485,1.617,2.399s0.59,1.894,0.59,2.936v1.243l-2.765,0.429v-1.672
			c0-0.686-0.128-1.324-0.386-1.918c-0.257-0.592-0.607-1.11-1.05-1.553c-0.442-0.443-0.961-0.793-1.554-1.051
			c-0.593-0.257-1.231-0.386-1.917-0.386h-1.929c-0.686,0-1.325,0.129-1.918,0.386c-0.593,0.258-1.114,0.607-1.564,1.051
			c-0.45,0.442-0.804,0.961-1.061,1.553c-0.257,0.594-0.386,1.232-0.386,1.918v16.499c0,0.686,0.129,1.325,0.386,1.918
			s0.61,1.114,1.061,1.564s0.972,0.804,1.564,1.061s1.232,0.386,1.918,0.386h1.929c0.686,0,1.324-0.129,1.917-0.386
			s1.111-0.61,1.554-1.061s0.793-0.972,1.05-1.564c0.258-0.593,0.386-1.232,0.386-1.918v-6.406h-4.906v-2.636h7.671V126.426z"/>
		<path fill="#FFFFFF" d="M406.494,122.248c-0.393,0.915-0.932,1.715-1.617,2.4s-1.486,1.225-2.4,1.617
			c-0.914,0.394-1.893,0.59-2.936,0.59h-2.186c-1.043,0-2.024-0.196-2.946-0.59c-0.921-0.393-1.725-0.932-2.41-1.617
			s-1.226-1.485-1.618-2.4c-0.393-0.914-0.589-1.893-0.589-2.936V95.699h2.764v23.613c0,0.686,0.129,1.325,0.386,1.918
			s0.61,1.114,1.061,1.564s0.972,0.804,1.564,1.061s1.232,0.386,1.918,0.386h1.929c0.686,0,1.324-0.129,1.917-0.386
			s1.111-0.61,1.554-1.061s0.793-0.972,1.05-1.564c0.258-0.593,0.386-1.232,0.386-1.918V95.699h2.765v23.613
			C407.084,120.355,406.887,121.333,406.494,122.248z"/>
		<path fill="#FFFFFF" d="M425.211,119.269h-9.728l-2.015,7.157h-2.871l8.999-30.728h1.457l9.043,30.728h-2.85L425.211,119.269z
			 M416.233,116.634h8.249l-4.05-14.164l-0.086-1.136l-0.085,1.136L416.233,116.634z"/>
		<path fill="#FFFFFF" d="M450.882,126.426h-0.879l-1.607-2.464c-0.671,0.886-1.485,1.589-2.442,2.11s-2.021,0.782-3.192,0.782
			h-1.607c-1.043,0-2.024-0.196-2.946-0.59c-0.921-0.393-1.725-0.932-2.41-1.617s-1.226-1.485-1.618-2.4
			c-0.393-0.914-0.589-1.893-0.589-2.936v-16.499c0-1.042,0.196-2.021,0.589-2.936s0.933-1.714,1.618-2.399
			c0.686-0.687,1.489-1.225,2.41-1.618c0.922-0.393,1.903-0.589,2.946-0.589h2.186c1.043,0,2.021,0.196,2.936,0.589
			c0.914,0.394,1.715,0.932,2.4,1.618c0.686,0.686,1.225,1.485,1.617,2.399s0.59,1.894,0.59,2.936v1.243l-2.765,0.429v-1.672
			c0-0.686-0.128-1.324-0.386-1.918c-0.257-0.592-0.607-1.11-1.05-1.553c-0.442-0.443-0.961-0.793-1.554-1.051
			c-0.593-0.257-1.231-0.386-1.917-0.386h-1.929c-0.686,0-1.325,0.129-1.918,0.386c-0.593,0.258-1.114,0.607-1.564,1.051
			c-0.45,0.442-0.804,0.961-1.061,1.553c-0.257,0.594-0.386,1.232-0.386,1.918v16.499c0,0.686,0.129,1.325,0.386,1.918
			s0.61,1.114,1.061,1.564s0.972,0.804,1.564,1.061s1.232,0.386,1.918,0.386h1.929c0.686,0,1.324-0.129,1.917-0.386
			s1.111-0.61,1.554-1.061s0.793-0.972,1.05-1.564c0.258-0.593,0.386-1.232,0.386-1.918v-6.406h-4.906v-2.636h7.671V126.426z"/>
		<path fill="#FFFFFF" d="M457.48,126.426V95.699h17.292v2.636h-14.527v11.421h11.764v2.636h-11.764v11.399h14.527v2.636H457.48z"/>
	</g>
</g>
</svg>
