<?xml version="1.0" encoding="utf-8"?>
<!-- Generator: Adobe Illustrator 16.0.0, SVG Export Plug-In . SVG Version: 6.00 Build 0)  -->
<!DOCTYPE svg PUBLIC "-//W3C//DTD SVG 1.1//EN" "http://www.w3.org/Graphics/SVG/1.1/DTD/svg11.dtd">
<svg version="1.1" id="Capa_1" xmlns="http://www.w3.org/2000/svg" xmlns:xlink="http://www.w3.org/1999/xlink" x="0px" y="0px"
	 width="97.244px" height="33.691px" viewBox="0 0 97.244 33.691" enable-background="new 0 0 97.244 33.691" xml:space="preserve">
<g>
	<linearGradient id="SVGID_1_" gradientUnits="userSpaceOnUse" x1="48.6221" y1="0.5" x2="48.6221" y2="33.1914">
		<stop  offset="0" style="stop-color:#EC6421"/>
		<stop  offset="0.4099" style="stop-color:#EA6122"/>
		<stop  offset="0.6575" style="stop-color:#E45926"/>
		<stop  offset="0.8613" style="stop-color:#D94B2E"/>
		<stop  offset="1" style="stop-color:#CE3C35"/>
	</linearGradient>
	<path fill="url(#SVGID_1_)" stroke="#280707" stroke-miterlimit="10" d="M96.744,25.236c0,4.394-3.278,7.956-7.323,7.956H7.822
		c-4.044,0-7.322-3.562-7.322-7.956V8.456C0.5,4.061,3.778,0.5,7.822,0.5h81.599c4.045,0,7.323,3.561,7.323,7.955V25.236z"/>
	<g>
		<path fill="#280707" d="M23.044,20.816V10.794h1.969l4.102,6.692v-6.692h1.88v10.021h-2.03l-4.04-6.535v6.535H23.044z"/>
		<path fill="#280707" d="M37.324,18.505l1.914,0.321c-0.246,0.702-0.635,1.236-1.166,1.603c-0.53,0.367-1.194,0.55-1.992,0.55
			c-1.263,0-2.196-0.413-2.803-1.237c-0.479-0.661-0.718-1.495-0.718-2.502c0-1.203,0.314-2.146,0.943-2.827
			s1.424-1.022,2.386-1.022c1.08,0,1.933,0.356,2.557,1.07s0.923,1.806,0.896,3.278h-4.813c0.014,0.57,0.169,1.013,0.465,1.33
			s0.665,0.475,1.107,0.475c0.301,0,0.554-0.082,0.759-0.246S37.22,18.87,37.324,18.505z M37.434,16.564
			c-0.014-0.556-0.157-0.979-0.431-1.268s-0.606-0.434-0.998-0.434c-0.419,0-0.766,0.153-1.039,0.458s-0.408,0.72-0.403,1.244
			H37.434z"/>
		<path fill="#280707" d="M44.235,13.556v1.531h-1.313v2.926c0,0.592,0.013,0.938,0.037,1.036c0.025,0.098,0.082,0.179,0.172,0.243
			c0.088,0.064,0.196,0.096,0.324,0.096c0.178,0,0.436-0.062,0.772-0.185l0.164,1.49c-0.446,0.191-0.952,0.287-1.518,0.287
			c-0.347,0-0.658-0.058-0.937-0.174s-0.482-0.267-0.611-0.451c-0.131-0.185-0.221-0.434-0.271-0.749
			c-0.041-0.223-0.062-0.674-0.062-1.354v-3.165h-0.882v-1.531h0.882v-1.442l1.928-1.121v2.563H44.235z"/>
		<path fill="#280707" d="M46.922,20.816l-2.297-7.26h1.866l1.36,4.758l1.251-4.758h1.853l1.21,4.758l1.388-4.758h1.894l-2.331,7.26
			H51.27l-1.251-4.669l-1.23,4.669H46.922z"/>
		<path fill="#280707" d="M56.014,17.083c0-0.638,0.157-1.255,0.472-1.853s0.76-1.053,1.337-1.367
			c0.576-0.314,1.22-0.472,1.931-0.472c1.099,0,1.998,0.356,2.7,1.07s1.053,1.614,1.053,2.704c0,1.098-0.354,2.009-1.063,2.731
			c-0.709,0.722-1.602,1.083-2.677,1.083c-0.665,0-1.3-0.15-1.903-0.451c-0.604-0.301-1.063-0.742-1.378-1.323
			S56.014,17.917,56.014,17.083z M57.982,17.186c0,0.72,0.171,1.271,0.513,1.654s0.764,0.574,1.265,0.574s0.922-0.191,1.262-0.574
			c0.339-0.383,0.509-0.939,0.509-1.668c0-0.711-0.17-1.258-0.509-1.641c-0.34-0.383-0.761-0.574-1.262-0.574
			s-0.923,0.191-1.265,0.574S57.982,16.466,57.982,17.186z"/>
		<path fill="#280707" d="M66.849,20.816h-1.921v-7.26h1.784v1.032c0.306-0.488,0.58-0.809,0.824-0.964
			c0.243-0.155,0.521-0.232,0.83-0.232c0.438,0,0.859,0.121,1.265,0.362l-0.595,1.675c-0.323-0.209-0.624-0.314-0.902-0.314
			c-0.269,0-0.497,0.074-0.684,0.222s-0.334,0.416-0.441,0.803c-0.106,0.387-0.16,1.199-0.16,2.434V20.816z"/>
		<path fill="#280707" d="M70.39,20.816V10.794h1.921v5.318l2.249-2.557h2.365l-2.481,2.652l2.659,4.607h-2.071l-1.825-3.261
			l-0.896,0.937v2.324H70.39z"/>
	</g>
</g>
</svg>
