<?xml version="1.0" encoding="utf-8"?>
<!-- Generator: Adobe Illustrator 16.0.0, SVG Export Plug-In . SVG Version: 6.00 Build 0)  -->
<!DOCTYPE svg PUBLIC "-//W3C//DTD SVG 1.1//EN" "http://www.w3.org/Graphics/SVG/1.1/DTD/svg11.dtd">
<svg version="1.1" id="Capa_1" xmlns="http://www.w3.org/2000/svg" xmlns:xlink="http://www.w3.org/1999/xlink" x="0px" y="0px"
	 width="97.244px" height="33.691px" viewBox="0 0 97.244 33.691" enable-background="new 0 0 97.244 33.691" xml:space="preserve">
<g>
	<linearGradient id="SVGID_1_" gradientUnits="userSpaceOnUse" x1="48.1221" y1="0.5117" x2="48.1221" y2="33.2031">
		<stop  offset="0" style="stop-color:#EC6421"/>
		<stop  offset="0.4099" style="stop-color:#EA6122"/>
		<stop  offset="0.6575" style="stop-color:#E45926"/>
		<stop  offset="0.8613" style="stop-color:#D94B2E"/>
		<stop  offset="1" style="stop-color:#CE3C35"/>
	</linearGradient>
	<path fill="url(#SVGID_1_)" stroke="#280707" stroke-miterlimit="10" d="M96.244,25.248c0,4.394-3.278,7.956-7.323,7.956H7.322
		C3.278,33.203,0,29.641,0,25.248V8.467c0-4.395,3.278-7.956,7.322-7.956h81.599c4.045,0,7.323,3.561,7.323,7.955V25.248z"/>
	<g>
		<path fill="#280707" d="M11.638,14.478V4.456h2.023v10.021H11.638z"/>
		<path fill="#280707" d="M22.179,14.478h-1.921v-3.705c0-0.784-0.041-1.291-0.123-1.521s-0.215-0.409-0.4-0.537
			c-0.184-0.127-0.406-0.191-0.666-0.191c-0.333,0-0.631,0.091-0.896,0.273s-0.445,0.424-0.544,0.725
			c-0.098,0.301-0.146,0.857-0.146,1.668v3.288h-1.921v-7.26h1.784v1.066c0.634-0.82,1.431-1.23,2.393-1.23
			c0.424,0,0.812,0.076,1.162,0.229s0.616,0.348,0.797,0.584c0.18,0.237,0.305,0.506,0.375,0.807
			c0.071,0.301,0.106,0.731,0.106,1.292V14.478z"/>
		<path fill="#280707" d="M23.286,7.218h1.066V6.671c0-0.611,0.064-1.066,0.195-1.367c0.129-0.301,0.369-0.546,0.717-0.735
			c0.35-0.189,0.79-0.284,1.323-0.284c0.547,0,1.082,0.082,1.606,0.246l-0.26,1.34c-0.306-0.073-0.6-0.109-0.882-0.109
			c-0.278,0-0.478,0.065-0.599,0.195c-0.12,0.13-0.181,0.379-0.181,0.749v0.513h1.436v1.511h-1.436v5.749h-1.921V8.729h-1.066V7.218
			z"/>
		<path fill="#280707" d="M28.345,10.745c0-0.638,0.157-1.255,0.472-1.853s0.76-1.053,1.337-1.367
			c0.576-0.314,1.22-0.472,1.931-0.472c1.099,0,1.998,0.356,2.7,1.07s1.053,1.614,1.053,2.704c0,1.098-0.354,2.009-1.063,2.731
			c-0.709,0.722-1.602,1.083-2.677,1.083c-0.665,0-1.3-0.15-1.903-0.451c-0.604-0.301-1.063-0.742-1.378-1.323
			S28.345,11.579,28.345,10.745z M30.313,10.848c0,0.72,0.171,1.271,0.513,1.654s0.764,0.574,1.265,0.574s0.922-0.191,1.262-0.574
			c0.339-0.383,0.509-0.939,0.509-1.668c0-0.711-0.17-1.258-0.509-1.641c-0.34-0.383-0.761-0.574-1.262-0.574
			s-0.923,0.191-1.265,0.574S30.313,10.127,30.313,10.848z"/>
		<path fill="#280707" d="M39.18,14.478h-1.921v-7.26h1.784V8.25c0.306-0.488,0.58-0.809,0.824-0.964
			c0.243-0.155,0.521-0.232,0.83-0.232c0.438,0,0.859,0.121,1.265,0.362l-0.595,1.675c-0.323-0.209-0.624-0.314-0.902-0.314
			c-0.269,0-0.497,0.074-0.684,0.222s-0.334,0.416-0.441,0.803c-0.106,0.387-0.16,1.199-0.16,2.434V14.478z"/>
		<path fill="#280707" d="M42.646,7.218h1.771v0.991c0.634-0.77,1.388-1.155,2.263-1.155c0.465,0,0.868,0.096,1.21,0.287
			s0.622,0.481,0.841,0.868c0.319-0.387,0.663-0.677,1.032-0.868s0.764-0.287,1.183-0.287c0.533,0,0.984,0.108,1.354,0.325
			s0.645,0.534,0.827,0.954c0.132,0.31,0.198,0.811,0.198,1.504v4.642h-1.921v-4.149c0-0.72-0.066-1.185-0.198-1.395
			c-0.178-0.273-0.451-0.41-0.82-0.41c-0.269,0-0.521,0.082-0.759,0.246s-0.408,0.404-0.513,0.721s-0.157,0.817-0.157,1.5v3.486
			h-1.921v-3.979c0-0.707-0.034-1.162-0.103-1.367s-0.175-0.358-0.317-0.458c-0.145-0.1-0.339-0.15-0.585-0.15
			c-0.296,0-0.563,0.08-0.8,0.239s-0.406,0.39-0.51,0.69c-0.102,0.301-0.153,0.8-0.153,1.497v3.527h-1.921V7.218z"/>
		<path fill="#280707" d="M56.673,9.433L54.93,9.118c0.196-0.702,0.533-1.221,1.012-1.559s1.189-0.506,2.133-0.506
			c0.856,0,1.495,0.102,1.914,0.304s0.715,0.46,0.885,0.772c0.172,0.312,0.257,0.885,0.257,1.719l-0.021,2.242
			c0,0.638,0.031,1.108,0.092,1.412c0.063,0.303,0.177,0.628,0.346,0.974h-1.9c-0.05-0.127-0.111-0.317-0.185-0.567
			c-0.032-0.114-0.055-0.189-0.068-0.226c-0.328,0.319-0.679,0.558-1.053,0.718s-0.772,0.239-1.196,0.239
			c-0.747,0-1.336-0.203-1.768-0.608c-0.43-0.406-0.646-0.918-0.646-1.538c0-0.41,0.098-0.776,0.294-1.097s0.471-0.567,0.824-0.738
			c0.353-0.171,0.862-0.32,1.527-0.448c0.897-0.168,1.52-0.326,1.866-0.472V9.549c0-0.369-0.091-0.632-0.273-0.79
			s-0.526-0.236-1.032-0.236c-0.342,0-0.608,0.067-0.8,0.202S56.791,9.095,56.673,9.433z M59.243,10.991
			c-0.246,0.082-0.636,0.18-1.169,0.294s-0.882,0.226-1.046,0.335c-0.251,0.178-0.376,0.403-0.376,0.677
			c0,0.269,0.101,0.501,0.301,0.697s0.456,0.294,0.766,0.294c0.347,0,0.677-0.114,0.991-0.342c0.232-0.173,0.385-0.385,0.458-0.636
			c0.05-0.164,0.075-0.476,0.075-0.937V10.991z"/>
		<path fill="#280707" d="M66.353,7.218v1.531H65.04v2.926c0,0.592,0.013,0.938,0.037,1.036c0.025,0.098,0.082,0.179,0.172,0.243
			c0.088,0.064,0.196,0.096,0.324,0.096c0.178,0,0.436-0.062,0.772-0.185l0.164,1.49c-0.446,0.191-0.952,0.287-1.518,0.287
			c-0.347,0-0.658-0.058-0.937-0.174s-0.482-0.267-0.611-0.451c-0.131-0.185-0.221-0.434-0.271-0.749
			c-0.041-0.223-0.062-0.674-0.062-1.354V8.749H62.23V7.218h0.882V5.775l1.928-1.121v2.563H66.353z"/>
		<path fill="#280707" d="M67.686,6.233V4.456h1.921v1.777H67.686z M67.686,14.478v-7.26h1.921v7.26H67.686z"/>
		<path fill="#280707" d="M71.131,10.745c0-0.638,0.157-1.255,0.472-1.853s0.76-1.053,1.337-1.367
			c0.576-0.314,1.22-0.472,1.931-0.472c1.099,0,1.998,0.356,2.7,1.07s1.053,1.614,1.053,2.704c0,1.098-0.354,2.009-1.063,2.731
			c-0.709,0.722-1.602,1.083-2.677,1.083c-0.665,0-1.3-0.15-1.903-0.451c-0.604-0.301-1.063-0.742-1.378-1.323
			S71.131,11.579,71.131,10.745z M73.1,10.848c0,0.72,0.171,1.271,0.513,1.654s0.764,0.574,1.265,0.574s0.922-0.191,1.262-0.574
			c0.339-0.383,0.509-0.939,0.509-1.668c0-0.711-0.17-1.258-0.509-1.641c-0.34-0.383-0.761-0.574-1.262-0.574
			s-0.923,0.191-1.265,0.574S73.1,10.127,73.1,10.848z"/>
		<path fill="#280707" d="M86.73,14.478H84.81v-3.705c0-0.784-0.041-1.291-0.123-1.521s-0.215-0.409-0.4-0.537
			c-0.184-0.127-0.406-0.191-0.666-0.191c-0.333,0-0.631,0.091-0.896,0.273s-0.445,0.424-0.544,0.725
			c-0.098,0.301-0.146,0.857-0.146,1.668v3.288h-1.921v-7.26h1.784v1.066c0.634-0.82,1.431-1.23,2.393-1.23
			c0.424,0,0.812,0.076,1.162,0.229s0.616,0.348,0.797,0.584c0.18,0.237,0.305,0.506,0.375,0.807
			c0.071,0.301,0.106,0.731,0.106,1.292V14.478z"/>
		<path fill="#280707" d="M25.378,25.206l1.928-0.294c0.082,0.374,0.248,0.657,0.499,0.851s0.602,0.291,1.053,0.291
			c0.497,0,0.87-0.091,1.121-0.273c0.169-0.127,0.253-0.298,0.253-0.513c0-0.146-0.046-0.267-0.137-0.362
			c-0.096-0.091-0.31-0.175-0.643-0.253c-1.55-0.342-2.531-0.654-2.946-0.937c-0.574-0.392-0.861-0.937-0.861-1.634
			c0-0.629,0.248-1.158,0.745-1.586s1.267-0.643,2.311-0.643c0.993,0,1.731,0.162,2.215,0.485s0.815,0.802,0.998,1.436l-1.812,0.335
			c-0.077-0.283-0.225-0.499-0.44-0.649c-0.217-0.15-0.525-0.226-0.927-0.226c-0.506,0-0.868,0.071-1.087,0.212
			c-0.146,0.1-0.219,0.23-0.219,0.39c0,0.137,0.063,0.253,0.191,0.349c0.173,0.127,0.771,0.308,1.795,0.54
			c1.022,0.232,1.737,0.517,2.143,0.854c0.401,0.342,0.602,0.818,0.602,1.429c0,0.666-0.278,1.237-0.834,1.716
			s-1.379,0.718-2.468,0.718c-0.989,0-1.771-0.201-2.349-0.602C25.933,26.439,25.556,25.894,25.378,25.206z"/>
		<path fill="#280707" d="M32.932,20.018h2.044l1.736,5.154l1.695-5.154h1.989l-2.563,6.986l-0.458,1.265
			c-0.169,0.424-0.329,0.748-0.482,0.971c-0.152,0.223-0.328,0.404-0.525,0.543c-0.199,0.139-0.442,0.247-0.732,0.325
			c-0.289,0.078-0.616,0.116-0.98,0.116c-0.369,0-0.731-0.039-1.087-0.116l-0.171-1.504c0.301,0.059,0.572,0.089,0.813,0.089
			c0.446,0,0.777-0.131,0.991-0.393s0.378-0.596,0.492-1.001L32.932,20.018z"/>
		<path fill="#280707" d="M40.95,25.206l1.928-0.294c0.082,0.374,0.248,0.657,0.499,0.851s0.602,0.291,1.053,0.291
			c0.497,0,0.87-0.091,1.121-0.273c0.169-0.127,0.253-0.298,0.253-0.513c0-0.146-0.046-0.267-0.137-0.362
			c-0.096-0.091-0.31-0.175-0.643-0.253c-1.55-0.342-2.531-0.654-2.946-0.937c-0.574-0.392-0.861-0.937-0.861-1.634
			c0-0.629,0.248-1.158,0.745-1.586s1.267-0.643,2.311-0.643c0.993,0,1.731,0.162,2.215,0.485s0.815,0.802,0.998,1.436l-1.812,0.335
			c-0.077-0.283-0.225-0.499-0.44-0.649c-0.217-0.15-0.525-0.226-0.927-0.226c-0.506,0-0.868,0.071-1.087,0.212
			c-0.146,0.1-0.219,0.23-0.219,0.39c0,0.137,0.063,0.253,0.191,0.349c0.173,0.127,0.771,0.308,1.795,0.54
			c1.022,0.232,1.737,0.517,2.143,0.854c0.401,0.342,0.602,0.818,0.602,1.429c0,0.666-0.278,1.237-0.834,1.716
			s-1.379,0.718-2.468,0.718c-0.989,0-1.771-0.201-2.349-0.602C41.505,26.439,41.128,25.894,40.95,25.206z"/>
		<path fill="#280707" d="M52.742,20.018v1.531H51.43v2.926c0,0.592,0.013,0.938,0.037,1.036c0.025,0.098,0.082,0.179,0.172,0.243
			c0.088,0.064,0.196,0.096,0.324,0.096c0.178,0,0.436-0.062,0.772-0.185l0.164,1.49c-0.446,0.191-0.952,0.287-1.518,0.287
			c-0.347,0-0.658-0.058-0.937-0.174S49.963,27,49.834,26.816c-0.131-0.185-0.221-0.434-0.271-0.749
			c-0.041-0.223-0.062-0.674-0.062-1.354v-3.165H48.62v-1.531h0.882v-1.442l1.928-1.121v2.563H52.742z"/>
		<path fill="#280707" d="M58.279,24.967l1.914,0.321c-0.246,0.702-0.635,1.236-1.166,1.603c-0.53,0.367-1.194,0.55-1.992,0.55
			c-1.263,0-2.196-0.413-2.803-1.237c-0.479-0.661-0.718-1.495-0.718-2.502c0-1.203,0.314-2.146,0.943-2.827
			s1.424-1.022,2.386-1.022c1.08,0,1.933,0.356,2.557,1.07s0.923,1.806,0.896,3.278h-4.813c0.014,0.57,0.169,1.013,0.465,1.33
			s0.665,0.475,1.107,0.475c0.301,0,0.554-0.082,0.759-0.246S58.175,25.332,58.279,24.967z M58.389,23.025
			c-0.014-0.556-0.157-0.979-0.431-1.268s-0.606-0.434-0.998-0.434c-0.419,0-0.766,0.153-1.039,0.458s-0.408,0.72-0.403,1.244
			H58.389z"/>
		<path fill="#280707" d="M61.718,20.018h1.771v0.991c0.634-0.77,1.388-1.155,2.263-1.155c0.465,0,0.868,0.096,1.21,0.287
			s0.622,0.481,0.841,0.868c0.319-0.387,0.663-0.677,1.032-0.868s0.764-0.287,1.183-0.287c0.533,0,0.984,0.108,1.354,0.325
			s0.645,0.534,0.827,0.954c0.132,0.31,0.198,0.811,0.198,1.504v4.642h-1.921v-4.149c0-0.72-0.066-1.185-0.198-1.395
			c-0.178-0.273-0.451-0.41-0.82-0.41c-0.269,0-0.521,0.082-0.759,0.246s-0.408,0.404-0.513,0.721s-0.157,0.817-0.157,1.5v3.486
			h-1.921v-3.979c0-0.707-0.034-1.162-0.103-1.367s-0.175-0.358-0.317-0.458c-0.145-0.1-0.339-0.15-0.585-0.15
			c-0.296,0-0.563,0.08-0.8,0.239s-0.406,0.39-0.51,0.69c-0.102,0.301-0.153,0.8-0.153,1.497v3.527h-1.921V20.018z"/>
	</g>
</g>
</svg>
