<?xml version="1.0" encoding="utf-8"?>
<!-- Generator: Adobe Illustrator 16.0.0, SVG Export Plug-In . SVG Version: 6.00 Build 0)  -->
<!DOCTYPE svg PUBLIC "-//W3C//DTD SVG 1.1//EN" "http://www.w3.org/Graphics/SVG/1.1/DTD/svg11.dtd">
<svg version="1.1" id="Capa_1" xmlns="http://www.w3.org/2000/svg" xmlns:xlink="http://www.w3.org/1999/xlink" x="0px" y="0px"
	 width="97.244px" height="33.691px" viewBox="0 0 97.244 33.691" enable-background="new 0 0 97.244 33.691" xml:space="preserve">
<g>
	<linearGradient id="SVGID_1_" gradientUnits="userSpaceOnUse" x1="48.1221" y1="0.5117" x2="48.1221" y2="33.2031">
		<stop  offset="0" style="stop-color:#EC6421"/>
		<stop  offset="0.4099" style="stop-color:#EA6122"/>
		<stop  offset="0.6575" style="stop-color:#E45926"/>
		<stop  offset="0.8613" style="stop-color:#D94B2E"/>
		<stop  offset="1" style="stop-color:#CE3C35"/>
	</linearGradient>
	<path fill="url(#SVGID_1_)" stroke="#280707" stroke-miterlimit="10" d="M96.244,25.248c0,4.394-3.278,7.956-7.323,7.956H7.322
		C3.278,33.203,0,29.641,0,25.248V8.467c0-4.395,3.278-7.956,7.322-7.956h81.599c4.045,0,7.323,3.561,7.323,7.955V25.248z"/>
	<g>
		<path fill="#280707" d="M23.19,17.567l1.969-0.191c0.118,0.661,0.359,1.146,0.721,1.456c0.363,0.31,0.852,0.465,1.467,0.465
			c0.651,0,1.143-0.138,1.473-0.414c0.331-0.276,0.496-0.598,0.496-0.967c0-0.237-0.069-0.438-0.209-0.605
			c-0.139-0.167-0.381-0.311-0.728-0.434c-0.237-0.082-0.777-0.228-1.62-0.438c-1.085-0.269-1.846-0.599-2.283-0.991
			c-0.615-0.551-0.923-1.224-0.923-2.017c0-0.51,0.145-0.988,0.435-1.432c0.289-0.444,0.706-0.783,1.25-1.015
			c0.545-0.232,1.202-0.349,1.973-0.349c1.258,0,2.205,0.276,2.84,0.827c0.637,0.551,0.97,1.288,1.002,2.208l-2.023,0.089
			c-0.087-0.515-0.272-0.885-0.557-1.111c-0.285-0.226-0.713-0.338-1.282-0.338c-0.588,0-1.048,0.121-1.381,0.362
			c-0.214,0.155-0.321,0.362-0.321,0.622c0,0.237,0.101,0.44,0.301,0.608c0.255,0.214,0.875,0.438,1.859,0.67
			s1.713,0.473,2.184,0.721c0.473,0.249,0.842,0.588,1.107,1.019c0.268,0.431,0.4,0.963,0.4,1.596c0,0.574-0.159,1.112-0.479,1.613
			s-0.771,0.874-1.354,1.118s-1.311,0.366-2.181,0.366c-1.267,0-2.24-0.293-2.919-0.878S23.322,18.688,23.19,17.567z"/>
		<path fill="#280707" d="M32.583,17.095c0-0.638,0.157-1.255,0.472-1.853s0.76-1.053,1.337-1.367
			c0.576-0.314,1.22-0.472,1.931-0.472c1.099,0,1.998,0.356,2.7,1.07s1.053,1.614,1.053,2.704c0,1.098-0.354,2.009-1.063,2.731
			c-0.709,0.722-1.602,1.083-2.677,1.083c-0.665,0-1.3-0.15-1.903-0.451c-0.604-0.301-1.063-0.742-1.378-1.323
			S32.583,17.929,32.583,17.095z M34.552,17.198c0,0.72,0.171,1.271,0.513,1.654s0.764,0.574,1.265,0.574s0.922-0.191,1.262-0.574
			c0.339-0.383,0.509-0.939,0.509-1.668c0-0.711-0.17-1.258-0.509-1.641c-0.34-0.383-0.761-0.574-1.262-0.574
			s-0.923,0.191-1.265,0.574S34.552,16.478,34.552,17.198z"/>
		<path fill="#280707" d="M41.579,20.828V10.806H43.5v10.021H41.579z"/>
		<path fill="#280707" d="M50.247,20.828v-1.087c-0.265,0.387-0.611,0.693-1.043,0.916c-0.43,0.223-0.885,0.335-1.363,0.335
			c-0.487,0-0.925-0.107-1.313-0.321s-0.668-0.515-0.841-0.902s-0.26-0.923-0.26-1.606v-4.594h1.921v3.336
			c0,1.021,0.035,1.646,0.105,1.876c0.071,0.23,0.2,0.413,0.387,0.547s0.424,0.202,0.711,0.202c0.328,0,0.622-0.09,0.882-0.27
			s0.438-0.403,0.533-0.67s0.144-0.919,0.144-1.958v-3.063h1.921v7.26H50.247z"/>
		<path fill="#280707" d="M57.35,13.568v1.531h-1.313v2.926c0,0.592,0.013,0.938,0.037,1.036c0.025,0.098,0.082,0.179,0.172,0.243
			c0.088,0.064,0.196,0.096,0.324,0.096c0.178,0,0.436-0.062,0.772-0.185l0.164,1.49c-0.446,0.191-0.952,0.287-1.518,0.287
			c-0.347,0-0.658-0.058-0.937-0.174s-0.482-0.267-0.611-0.451c-0.131-0.185-0.221-0.434-0.271-0.749
			c-0.041-0.223-0.062-0.674-0.062-1.354v-3.165h-0.882v-1.531h0.882v-1.442l1.928-1.121v2.563H57.35z"/>
		<path fill="#280707" d="M58.683,12.583v-1.777h1.921v1.777H58.683z M58.683,20.828v-7.26h1.921v7.26H58.683z"/>
		<path fill="#280707" d="M62.128,17.095c0-0.638,0.157-1.255,0.472-1.853s0.76-1.053,1.337-1.367
			c0.576-0.314,1.22-0.472,1.931-0.472c1.099,0,1.998,0.356,2.7,1.07s1.053,1.614,1.053,2.704c0,1.098-0.354,2.009-1.063,2.731
			c-0.709,0.722-1.602,1.083-2.677,1.083c-0.665,0-1.3-0.15-1.903-0.451c-0.604-0.301-1.063-0.742-1.378-1.323
			S62.128,17.929,62.128,17.095z M64.097,17.198c0,0.72,0.171,1.271,0.513,1.654s0.764,0.574,1.265,0.574s0.922-0.191,1.262-0.574
			c0.339-0.383,0.509-0.939,0.509-1.668c0-0.711-0.17-1.258-0.509-1.641c-0.34-0.383-0.761-0.574-1.262-0.574
			s-0.923,0.191-1.265,0.574S64.097,16.478,64.097,17.198z"/>
		<path fill="#280707" d="M77.728,20.828h-1.921v-3.705c0-0.784-0.041-1.291-0.123-1.521s-0.215-0.409-0.4-0.537
			c-0.184-0.127-0.406-0.191-0.666-0.191c-0.333,0-0.631,0.091-0.896,0.273s-0.445,0.424-0.544,0.725
			c-0.098,0.301-0.146,0.857-0.146,1.668v3.288H71.11v-7.26h1.784v1.066c0.634-0.82,1.431-1.23,2.393-1.23
			c0.424,0,0.812,0.076,1.162,0.229s0.616,0.348,0.797,0.584c0.18,0.237,0.305,0.506,0.375,0.807
			c0.071,0.301,0.106,0.731,0.106,1.292V20.828z"/>
	</g>
</g>
</svg>
