<?xml version="1.0" encoding="utf-8"?>
<!-- Generator: Adobe Illustrator 16.0.0, SVG Export Plug-In . SVG Version: 6.00 Build 0)  -->
<!DOCTYPE svg PUBLIC "-//W3C//DTD SVG 1.1//EN" "http://www.w3.org/Graphics/SVG/1.1/DTD/svg11.dtd">
<svg version="1.1" id="Capa_1" xmlns="http://www.w3.org/2000/svg" xmlns:xlink="http://www.w3.org/1999/xlink" x="0px" y="0px"
	 width="97.244px" height="33.689px" viewBox="0 0 97.244 33.689" enable-background="new 0 0 97.244 33.689" xml:space="preserve">
<g>
	<text transform="matrix(1 0 0 1 13 20.8789)" fill="#280707" font-family="'Arial-BoldMT'" font-size="14">Information  </text>
	<linearGradient id="SVGID_1_" gradientUnits="userSpaceOnUse" x1="48.71" y1="0.563" x2="48.71" y2="33.2544">
		<stop  offset="0" style="stop-color:#EC6421"/>
		<stop  offset="0.4099" style="stop-color:#EA6122"/>
		<stop  offset="0.6575" style="stop-color:#E45926"/>
		<stop  offset="0.8613" style="stop-color:#D94B2E"/>
		<stop  offset="1" style="stop-color:#CE3C35"/>
	</linearGradient>
	<path fill="url(#SVGID_1_)" stroke="#280707" stroke-miterlimit="10" d="M96.832,25.299c0,4.394-3.278,7.956-7.323,7.956H7.91
		c-4.044,0-7.322-3.562-7.322-7.956V8.519c0-4.395,3.278-7.956,7.322-7.956h81.599c4.045,0,7.323,3.561,7.323,7.955V25.299z"/>
	<g>
		<path fill="#280707" d="M7.077,20.879V10.857h4.259c1.071,0,1.849,0.09,2.335,0.27c0.484,0.18,0.873,0.5,1.165,0.96
			s0.438,0.987,0.438,1.579c0,0.752-0.221,1.373-0.663,1.863s-1.103,0.799-1.982,0.926c0.438,0.255,0.799,0.536,1.084,0.841
			c0.284,0.305,0.668,0.848,1.151,1.627l1.224,1.955h-2.42l-1.463-2.181c-0.52-0.779-0.875-1.271-1.066-1.473
			s-0.395-0.342-0.608-0.417s-0.554-0.113-1.019-0.113h-0.41v4.184H7.077z M9.101,15.096h1.497c0.971,0,1.577-0.041,1.818-0.123
			s0.431-0.223,0.567-0.424s0.205-0.451,0.205-0.752c0-0.337-0.09-0.609-0.27-0.817c-0.181-0.208-0.435-0.338-0.763-0.393
			c-0.164-0.023-0.656-0.034-1.477-0.034H9.101V15.096z"/>
		<path fill="#280707" d="M21.371,18.568l1.914,0.321c-0.246,0.702-0.635,1.236-1.166,1.603c-0.53,0.367-1.194,0.55-1.992,0.55
			c-1.263,0-2.196-0.413-2.803-1.237c-0.479-0.661-0.718-1.495-0.718-2.502c0-1.203,0.314-2.146,0.943-2.827
			s1.424-1.022,2.386-1.022c1.08,0,1.933,0.356,2.557,1.07s0.923,1.806,0.896,3.278h-4.813c0.014,0.57,0.169,1.013,0.465,1.33
			s0.665,0.475,1.107,0.475c0.301,0,0.554-0.082,0.759-0.246S21.267,18.933,21.371,18.568z M21.48,16.627
			c-0.014-0.556-0.157-0.979-0.431-1.268s-0.606-0.434-0.998-0.434c-0.419,0-0.766,0.153-1.039,0.458s-0.408,0.72-0.403,1.244H21.48
			z"/>
		<path fill="#280707" d="M29.697,23.641v-3.65c-0.251,0.324-0.563,0.58-0.937,0.769s-0.777,0.284-1.21,0.284
			c-0.825,0-1.504-0.31-2.037-0.93c-0.629-0.725-0.943-1.707-0.943-2.946c0-1.167,0.295-2.077,0.886-2.731
			c0.59-0.654,1.322-0.981,2.197-0.981c0.483,0,0.901,0.103,1.254,0.308c0.354,0.205,0.667,0.515,0.94,0.93v-1.073h1.771v10.021
			H29.697z M29.759,17.16c0-0.743-0.151-1.295-0.455-1.658c-0.303-0.362-0.682-0.543-1.138-0.543c-0.465,0-0.854,0.185-1.165,0.554
			c-0.313,0.369-0.469,0.955-0.469,1.757c0,0.797,0.15,1.373,0.451,1.726s0.672,0.53,1.114,0.53s0.829-0.198,1.162-0.595
			S29.759,17.944,29.759,17.16z"/>
		<path fill="#280707" d="M38.283,20.879v-1.087c-0.265,0.387-0.611,0.693-1.043,0.916c-0.43,0.223-0.885,0.335-1.363,0.335
			c-0.487,0-0.925-0.107-1.313-0.321s-0.668-0.515-0.841-0.902s-0.26-0.923-0.26-1.606v-4.594h1.921v3.336
			c0,1.021,0.035,1.646,0.105,1.876c0.071,0.23,0.2,0.413,0.387,0.547s0.424,0.202,0.711,0.202c0.328,0,0.622-0.09,0.882-0.27
			s0.438-0.403,0.533-0.67s0.144-0.919,0.144-1.958v-3.063h1.921v7.26H38.283z"/>
		<path fill="#280707" d="M42.057,12.635v-1.777h1.921v1.777H42.057z M42.057,20.879v-7.26h1.921v7.26H42.057z"/>
		<path fill="#280707" d="M47.785,20.879h-1.921v-7.26h1.784v1.032c0.306-0.488,0.58-0.809,0.824-0.964
			c0.243-0.155,0.521-0.232,0.83-0.232c0.438,0,0.859,0.121,1.265,0.362l-0.595,1.675c-0.323-0.209-0.624-0.314-0.902-0.314
			c-0.269,0-0.497,0.074-0.684,0.222s-0.334,0.416-0.441,0.803c-0.106,0.387-0.16,1.199-0.16,2.434V20.879z"/>
		<path fill="#280707" d="M55.599,18.568l1.914,0.321c-0.246,0.702-0.635,1.236-1.166,1.603c-0.53,0.367-1.194,0.55-1.992,0.55
			c-1.263,0-2.196-0.413-2.803-1.237c-0.479-0.661-0.718-1.495-0.718-2.502c0-1.203,0.314-2.146,0.943-2.827
			s1.424-1.022,2.386-1.022c1.08,0,1.933,0.356,2.557,1.07s0.923,1.806,0.896,3.278h-4.813c0.014,0.57,0.169,1.013,0.465,1.33
			s0.665,0.475,1.107,0.475c0.301,0,0.554-0.082,0.759-0.246S55.494,18.933,55.599,18.568z M55.708,16.627
			c-0.014-0.556-0.157-0.979-0.431-1.268s-0.606-0.434-0.998-0.434c-0.419,0-0.766,0.153-1.039,0.458s-0.408,0.72-0.403,1.244
			H55.708z"/>
		<path fill="#280707" d="M59.037,13.619h1.771v0.991c0.634-0.77,1.388-1.155,2.263-1.155c0.465,0,0.868,0.096,1.21,0.287
			s0.622,0.481,0.841,0.868c0.319-0.387,0.663-0.677,1.032-0.868s0.764-0.287,1.183-0.287c0.533,0,0.984,0.108,1.354,0.325
			s0.645,0.534,0.827,0.954c0.132,0.31,0.198,0.811,0.198,1.504v4.642h-1.921v-4.149c0-0.72-0.066-1.185-0.198-1.395
			c-0.178-0.273-0.451-0.41-0.82-0.41c-0.269,0-0.521,0.082-0.759,0.246s-0.408,0.404-0.513,0.721s-0.157,0.817-0.157,1.5v3.486
			h-1.921V16.9c0-0.707-0.034-1.162-0.103-1.367s-0.175-0.358-0.317-0.458c-0.145-0.1-0.339-0.15-0.585-0.15
			c-0.296,0-0.563,0.08-0.8,0.239s-0.406,0.39-0.51,0.69c-0.102,0.301-0.153,0.8-0.153,1.497v3.527h-1.921V13.619z"/>
		<path fill="#280707" d="M75.833,18.568l1.914,0.321c-0.246,0.702-0.635,1.236-1.166,1.603c-0.53,0.367-1.194,0.55-1.992,0.55
			c-1.263,0-2.196-0.413-2.803-1.237c-0.479-0.661-0.718-1.495-0.718-2.502c0-1.203,0.314-2.146,0.943-2.827
			s1.424-1.022,2.386-1.022c1.08,0,1.933,0.356,2.557,1.07s0.923,1.806,0.896,3.278h-4.813c0.014,0.57,0.169,1.013,0.465,1.33
			s0.665,0.475,1.107,0.475c0.301,0,0.554-0.082,0.759-0.246S75.729,18.933,75.833,18.568z M75.942,16.627
			c-0.014-0.556-0.157-0.979-0.431-1.268s-0.606-0.434-0.998-0.434c-0.419,0-0.766,0.153-1.039,0.458s-0.408,0.72-0.403,1.244
			H75.942z"/>
		<path fill="#280707" d="M86.019,20.879h-1.921v-3.705c0-0.784-0.041-1.291-0.123-1.521s-0.215-0.409-0.4-0.537
			c-0.184-0.127-0.406-0.191-0.666-0.191c-0.333,0-0.631,0.091-0.896,0.273s-0.445,0.424-0.544,0.725
			c-0.098,0.301-0.146,0.857-0.146,1.668v3.288h-1.921v-7.26h1.784v1.066c0.634-0.82,1.431-1.23,2.393-1.23
			c0.424,0,0.812,0.076,1.162,0.229s0.616,0.348,0.797,0.584c0.18,0.237,0.305,0.506,0.375,0.807
			c0.071,0.301,0.106,0.731,0.106,1.292V20.879z"/>
		<path fill="#280707" d="M91.296,13.619v1.531h-1.313v2.926c0,0.592,0.013,0.938,0.037,1.036c0.025,0.098,0.082,0.179,0.172,0.243
			c0.088,0.064,0.196,0.096,0.324,0.096c0.178,0,0.436-0.062,0.772-0.185l0.164,1.49c-0.446,0.191-0.952,0.287-1.518,0.287
			c-0.347,0-0.658-0.058-0.937-0.174s-0.482-0.267-0.611-0.451c-0.131-0.185-0.221-0.434-0.271-0.749
			c-0.041-0.223-0.062-0.674-0.062-1.354V15.15h-0.882v-1.531h0.882v-1.442l1.928-1.121v2.563H91.296z"/>
	</g>
</g>
</svg>
