<?xml version="1.0" encoding="utf-8"?>
<!-- Generator: Adobe Illustrator 16.0.0, SVG Export Plug-In . SVG Version: 6.00 Build 0)  -->
<!DOCTYPE svg PUBLIC "-//W3C//DTD SVG 1.1//EN" "http://www.w3.org/Graphics/SVG/1.1/DTD/svg11.dtd">
<svg version="1.1" id="Capa_1" xmlns="http://www.w3.org/2000/svg" xmlns:xlink="http://www.w3.org/1999/xlink" x="0px" y="0px"
	 width="97.244px" height="33.689px" viewBox="0 0 97.244 33.689" enable-background="new 0 0 97.244 33.689" xml:space="preserve">
<g>
	<linearGradient id="SVGID_1_" gradientUnits="userSpaceOnUse" x1="48.8164" y1="0.563" x2="48.8164" y2="33.2544">
		<stop  offset="0" style="stop-color:#EC6421"/>
		<stop  offset="0.4099" style="stop-color:#EA6122"/>
		<stop  offset="0.6575" style="stop-color:#E45926"/>
		<stop  offset="0.8613" style="stop-color:#D94B2E"/>
		<stop  offset="1" style="stop-color:#CE3C35"/>
	</linearGradient>
	<path fill="url(#SVGID_1_)" stroke="#280707" stroke-miterlimit="10" d="M96.938,25.299c0,4.394-3.278,7.956-7.323,7.956H8.017
		c-4.044,0-7.322-3.562-7.322-7.956V8.519c0-4.395,3.278-7.956,7.322-7.956h81.599c4.045,0,7.323,3.561,7.323,7.955V25.299z"/>
	<g>
		<path fill="#280707" d="M9.863,17.618l1.969-0.191c0.118,0.661,0.359,1.146,0.721,1.456c0.363,0.31,0.852,0.465,1.467,0.465
			c0.651,0,1.143-0.138,1.473-0.414c0.331-0.276,0.496-0.598,0.496-0.967c0-0.237-0.069-0.438-0.209-0.605
			c-0.139-0.167-0.381-0.311-0.728-0.434c-0.237-0.082-0.777-0.228-1.62-0.438c-1.085-0.269-1.846-0.599-2.283-0.991
			c-0.615-0.551-0.923-1.224-0.923-2.017c0-0.51,0.145-0.988,0.435-1.432c0.289-0.444,0.706-0.783,1.25-1.015
			c0.545-0.232,1.202-0.349,1.973-0.349c1.258,0,2.205,0.276,2.84,0.827c0.637,0.551,0.97,1.288,1.002,2.208l-2.023,0.089
			c-0.087-0.515-0.272-0.885-0.557-1.111c-0.285-0.226-0.713-0.338-1.282-0.338c-0.588,0-1.048,0.121-1.381,0.362
			c-0.214,0.155-0.321,0.362-0.321,0.622c0,0.237,0.101,0.44,0.301,0.608c0.255,0.214,0.875,0.438,1.859,0.67
			s1.713,0.473,2.184,0.721c0.473,0.249,0.842,0.588,1.107,1.019c0.268,0.431,0.4,0.963,0.4,1.596c0,0.574-0.159,1.112-0.479,1.613
			s-0.771,0.874-1.354,1.118s-1.311,0.366-2.181,0.366c-1.267,0-2.24-0.293-2.919-0.878S9.995,18.739,9.863,17.618z"/>
		<path fill="#280707" d="M23.029,13.619v1.531h-1.313v2.926c0,0.592,0.013,0.938,0.037,1.036c0.025,0.098,0.082,0.179,0.172,0.243
			c0.088,0.064,0.196,0.096,0.324,0.096c0.178,0,0.436-0.062,0.772-0.185l0.164,1.49c-0.446,0.191-0.952,0.287-1.518,0.287
			c-0.347,0-0.658-0.058-0.937-0.174s-0.482-0.267-0.611-0.451c-0.131-0.185-0.221-0.434-0.271-0.749
			c-0.041-0.223-0.062-0.674-0.062-1.354V15.15h-0.882v-1.531h0.882v-1.442l1.928-1.121v2.563H23.029z"/>
		<path fill="#280707" d="M25.798,15.834l-1.743-0.314c0.196-0.702,0.533-1.221,1.012-1.559s1.189-0.506,2.133-0.506
			c0.856,0,1.495,0.102,1.914,0.304s0.715,0.46,0.885,0.772c0.172,0.312,0.257,0.885,0.257,1.719l-0.021,2.242
			c0,0.638,0.031,1.108,0.092,1.412c0.063,0.303,0.177,0.628,0.346,0.974h-1.9c-0.05-0.127-0.111-0.317-0.185-0.567
			c-0.032-0.114-0.055-0.189-0.068-0.226c-0.328,0.319-0.679,0.558-1.053,0.718s-0.772,0.239-1.196,0.239
			c-0.747,0-1.336-0.203-1.768-0.608c-0.43-0.406-0.646-0.918-0.646-1.538c0-0.41,0.098-0.776,0.294-1.097s0.471-0.567,0.824-0.738
			c0.353-0.171,0.862-0.32,1.527-0.448c0.897-0.168,1.52-0.326,1.866-0.472V15.95c0-0.369-0.091-0.632-0.273-0.79
			s-0.526-0.236-1.032-0.236c-0.342,0-0.608,0.067-0.8,0.202S25.916,15.497,25.798,15.834z M28.368,17.393
			c-0.246,0.082-0.636,0.18-1.169,0.294s-0.882,0.226-1.046,0.335c-0.251,0.178-0.376,0.403-0.376,0.677
			c0,0.269,0.101,0.501,0.301,0.697s0.456,0.294,0.766,0.294c0.347,0,0.677-0.114,0.991-0.342c0.232-0.173,0.385-0.385,0.458-0.636
			c0.05-0.164,0.075-0.476,0.075-0.937V17.393z"/>
		<path fill="#280707" d="M32.08,20.879V10.857h1.921v5.318l2.249-2.557h2.365l-2.481,2.652l2.659,4.607h-2.071l-1.825-3.261
			l-0.896,0.937v2.324H32.08z"/>
		<path fill="#280707" d="M44.139,18.568l1.914,0.321c-0.246,0.702-0.635,1.236-1.166,1.603c-0.53,0.367-1.194,0.55-1.992,0.55
			c-1.263,0-2.196-0.413-2.803-1.237c-0.479-0.661-0.718-1.495-0.718-2.502c0-1.203,0.314-2.146,0.943-2.827
			s1.424-1.022,2.386-1.022c1.08,0,1.933,0.356,2.557,1.07s0.923,1.806,0.896,3.278h-4.813c0.014,0.57,0.169,1.013,0.465,1.33
			s0.665,0.475,1.107,0.475c0.301,0,0.554-0.082,0.759-0.246S44.034,18.933,44.139,18.568z M44.248,16.627
			c-0.014-0.556-0.157-0.979-0.431-1.268s-0.606-0.434-0.998-0.434c-0.419,0-0.766,0.153-1.039,0.458s-0.408,0.72-0.403,1.244
			H44.248z"/>
		<path fill="#280707" d="M49.635,10.857v3.685c0.62-0.725,1.36-1.087,2.222-1.087c0.442,0,0.841,0.082,1.196,0.246
			s0.623,0.374,0.804,0.629c0.18,0.255,0.303,0.538,0.369,0.848c0.065,0.31,0.099,0.791,0.099,1.442v4.259h-1.921v-3.835
			c0-0.761-0.036-1.244-0.109-1.449s-0.201-0.368-0.387-0.489c-0.184-0.121-0.415-0.181-0.693-0.181
			c-0.319,0-0.604,0.078-0.854,0.232s-0.435,0.389-0.55,0.701c-0.117,0.312-0.175,0.773-0.175,1.384v3.637h-1.921V10.857H49.635z"/>
		<path fill="#280707" d="M55.828,17.146c0-0.638,0.157-1.255,0.472-1.853s0.76-1.053,1.337-1.367
			c0.576-0.314,1.22-0.472,1.931-0.472c1.099,0,1.998,0.356,2.7,1.07s1.053,1.614,1.053,2.704c0,1.098-0.354,2.009-1.063,2.731
			c-0.709,0.722-1.602,1.083-2.677,1.083c-0.665,0-1.3-0.15-1.903-0.451c-0.604-0.301-1.063-0.742-1.378-1.323
			S55.828,17.98,55.828,17.146z M57.797,17.249c0,0.72,0.171,1.271,0.513,1.654s0.764,0.574,1.265,0.574s0.922-0.191,1.262-0.574
			c0.339-0.383,0.509-0.939,0.509-1.668c0-0.711-0.17-1.258-0.509-1.641c-0.34-0.383-0.761-0.574-1.262-0.574
			s-0.923,0.191-1.265,0.574S57.797,16.529,57.797,17.249z"/>
		<path fill="#280707" d="M64.824,20.879V10.857h1.921v10.021H64.824z"/>
		<path fill="#280707" d="M75.372,20.879h-1.784v-1.066c-0.296,0.415-0.646,0.724-1.049,0.926c-0.404,0.203-0.811,0.304-1.221,0.304
			c-0.834,0-1.549-0.336-2.143-1.008c-0.596-0.672-0.893-1.61-0.893-2.813c0-1.23,0.289-2.166,0.868-2.806s1.311-0.96,2.194-0.96
			c0.812,0,1.513,0.337,2.105,1.012v-3.609h1.921V20.879z M70.245,17.092c0,0.775,0.107,1.335,0.321,1.682
			c0.31,0.501,0.743,0.752,1.299,0.752c0.442,0,0.818-0.188,1.128-0.564s0.465-0.938,0.465-1.685c0-0.834-0.15-1.435-0.451-1.801
			s-0.686-0.55-1.155-0.55c-0.456,0-0.838,0.181-1.145,0.543C70.398,15.831,70.245,16.372,70.245,17.092z"/>
		<path fill="#280707" d="M81.47,18.568l1.914,0.321c-0.246,0.702-0.635,1.236-1.166,1.603c-0.53,0.367-1.194,0.55-1.992,0.55
			c-1.263,0-2.196-0.413-2.803-1.237c-0.479-0.661-0.718-1.495-0.718-2.502c0-1.203,0.314-2.146,0.943-2.827
			s1.424-1.022,2.386-1.022c1.08,0,1.933,0.356,2.557,1.07s0.923,1.806,0.896,3.278h-4.813c0.014,0.57,0.169,1.013,0.465,1.33
			s0.665,0.475,1.107,0.475c0.301,0,0.554-0.082,0.759-0.246S81.365,18.933,81.47,18.568z M81.579,16.627
			c-0.014-0.556-0.157-0.979-0.431-1.268s-0.606-0.434-0.998-0.434c-0.419,0-0.766,0.153-1.039,0.458s-0.408,0.72-0.403,1.244
			H81.579z"/>
		<path fill="#280707" d="M86.891,20.879H84.97v-7.26h1.784v1.032c0.306-0.488,0.58-0.809,0.824-0.964
			c0.243-0.155,0.521-0.232,0.83-0.232c0.438,0,0.859,0.121,1.265,0.362l-0.595,1.675c-0.323-0.209-0.624-0.314-0.902-0.314
			c-0.269,0-0.497,0.074-0.684,0.222s-0.334,0.416-0.441,0.803c-0.106,0.387-0.16,1.199-0.16,2.434V20.879z"/>
	</g>
</g>
</svg>
