<?xml version="1.0" encoding="utf-8"?>
<!-- Generator: Adobe Illustrator 16.0.0, SVG Export Plug-In . SVG Version: 6.00 Build 0)  -->
<!DOCTYPE svg PUBLIC "-//W3C//DTD SVG 1.1//EN" "http://www.w3.org/Graphics/SVG/1.1/DTD/svg11.dtd">
<svg version="1.1" id="Capa_1" xmlns="http://www.w3.org/2000/svg" xmlns:xlink="http://www.w3.org/1999/xlink" x="0px" y="0px"
	 width="97.244px" height="33.689px" viewBox="0 0 97.244 33.689" enable-background="new 0 0 97.244 33.689" xml:space="preserve">
<g>
	<linearGradient id="SVGID_1_" gradientUnits="userSpaceOnUse" x1="48.7012" y1="0.563" x2="48.7012" y2="33.2544">
		<stop  offset="0" style="stop-color:#EC6421"/>
		<stop  offset="0.4099" style="stop-color:#EA6122"/>
		<stop  offset="0.6575" style="stop-color:#E45926"/>
		<stop  offset="0.8613" style="stop-color:#D94B2E"/>
		<stop  offset="1" style="stop-color:#CE3C35"/>
	</linearGradient>
	<path fill="url(#SVGID_1_)" stroke="#280707" stroke-miterlimit="10" d="M96.823,25.299c0,4.394-3.278,7.956-7.323,7.956H7.901
		c-4.044,0-7.322-3.562-7.322-7.956V8.519c0-4.395,3.278-7.956,7.322-7.956H89.5c4.045,0,7.323,3.561,7.323,7.955V25.299z"/>
	<g>
		<path fill="#280707" d="M33.233,20.879V10.857h1.969l4.102,6.692v-6.692h1.88v10.021h-2.03l-4.04-6.535v6.535H33.233z"/>
		<path fill="#280707" d="M47.514,18.568l1.914,0.321c-0.246,0.702-0.635,1.236-1.166,1.603c-0.53,0.367-1.194,0.55-1.992,0.55
			c-1.263,0-2.196-0.413-2.803-1.237c-0.479-0.661-0.718-1.495-0.718-2.502c0-1.203,0.314-2.146,0.943-2.827
			s1.424-1.022,2.386-1.022c1.08,0,1.933,0.356,2.557,1.07s0.923,1.806,0.896,3.278h-4.813c0.014,0.57,0.169,1.013,0.465,1.33
			s0.665,0.475,1.107,0.475c0.301,0,0.554-0.082,0.759-0.246S47.409,18.933,47.514,18.568z M47.623,16.627
			c-0.014-0.556-0.157-0.979-0.431-1.268s-0.606-0.434-0.998-0.434c-0.419,0-0.766,0.153-1.039,0.458s-0.408,0.72-0.403,1.244
			H47.623z"/>
		<path fill="#280707" d="M55.3,18.568l1.914,0.321c-0.246,0.702-0.635,1.236-1.166,1.603c-0.53,0.367-1.194,0.55-1.992,0.55
			c-1.263,0-2.196-0.413-2.803-1.237c-0.479-0.661-0.718-1.495-0.718-2.502c0-1.203,0.314-2.146,0.943-2.827
			s1.424-1.022,2.386-1.022c1.08,0,1.933,0.356,2.557,1.07s0.923,1.806,0.896,3.278h-4.813c0.014,0.57,0.169,1.013,0.465,1.33
			s0.665,0.475,1.107,0.475c0.301,0,0.554-0.082,0.759-0.246S55.195,18.933,55.3,18.568z M55.409,16.627
			c-0.014-0.556-0.157-0.979-0.431-1.268s-0.606-0.434-0.998-0.434c-0.419,0-0.766,0.153-1.039,0.458s-0.408,0.72-0.403,1.244
			H55.409z"/>
		<path fill="#280707" d="M65.54,20.879h-1.784v-1.066c-0.296,0.415-0.646,0.724-1.049,0.926c-0.404,0.203-0.811,0.304-1.221,0.304
			c-0.834,0-1.549-0.336-2.143-1.008c-0.596-0.672-0.893-1.61-0.893-2.813c0-1.23,0.289-2.166,0.868-2.806s1.311-0.96,2.194-0.96
			c0.812,0,1.513,0.337,2.105,1.012v-3.609h1.921V20.879z M60.413,17.092c0,0.775,0.107,1.335,0.321,1.682
			c0.31,0.501,0.743,0.752,1.299,0.752c0.442,0,0.818-0.188,1.128-0.564s0.465-0.938,0.465-1.685c0-0.834-0.15-1.435-0.451-1.801
			s-0.686-0.55-1.155-0.55c-0.456,0-0.838,0.181-1.145,0.543C60.566,15.831,60.413,16.372,60.413,17.092z"/>
	</g>
</g>
</svg>
