<?xml version="1.0" encoding="utf-8"?>
<!-- Generator: Adobe Illustrator 16.0.0, SVG Export Plug-In . SVG Version: 6.00 Build 0)  -->
<!DOCTYPE svg PUBLIC "-//W3C//DTD SVG 1.1//EN" "http://www.w3.org/Graphics/SVG/1.1/DTD/svg11.dtd">
<svg version="1.1" id="Capa_1" xmlns="http://www.w3.org/2000/svg" xmlns:xlink="http://www.w3.org/1999/xlink" x="0px" y="0px"
	 width="97.244px" height="33.688px" viewBox="0 0 97.244 33.688" enable-background="new 0 0 97.244 33.688" xml:space="preserve">
<g>
	<linearGradient id="SVGID_1_" gradientUnits="userSpaceOnUse" x1="48.71" y1="0.5889" x2="48.71" y2="33.2803">
		<stop  offset="0" style="stop-color:#EC6421"/>
		<stop  offset="0.4099" style="stop-color:#EA6122"/>
		<stop  offset="0.6575" style="stop-color:#E45926"/>
		<stop  offset="0.8613" style="stop-color:#D94B2E"/>
		<stop  offset="1" style="stop-color:#CE3C35"/>
	</linearGradient>
	<path fill="url(#SVGID_1_)" stroke="#280707" stroke-miterlimit="10" d="M96.832,25.325c0,4.393-3.278,7.955-7.323,7.955H7.91
		c-4.044,0-7.322-3.563-7.322-7.955V8.544c0-4.395,3.278-7.955,7.322-7.955h81.599c4.045,0,7.323,3.561,7.323,7.955V25.325z"/>
	<g>
		<path fill="#280707" d="M13.509,13.951V4.646h1.777v9.306H13.509z"/>
		<path fill="#280707" d="M22.767,13.951h-1.688v-3.44c0-0.729-0.036-1.199-0.108-1.412c-0.071-0.214-0.188-0.38-0.351-0.498
			c-0.162-0.119-0.357-0.178-0.586-0.178c-0.292,0-0.554,0.084-0.786,0.254c-0.232,0.169-0.392,0.393-0.478,0.672
			s-0.129,0.796-0.129,1.549v3.054h-1.688V7.21h1.567V8.2c0.557-0.762,1.257-1.143,2.102-1.143c0.372,0,0.712,0.07,1.021,0.213
			c0.309,0.142,0.541,0.322,0.699,0.543c0.158,0.22,0.269,0.469,0.33,0.748c0.063,0.279,0.094,0.68,0.094,1.2V13.951z"/>
		<path fill="#280707" d="M23.739,7.21h0.937V6.702c0-0.566,0.057-0.99,0.171-1.27s0.324-0.507,0.63-0.683
			c0.307-0.175,0.693-0.263,1.162-0.263c0.48,0,0.95,0.076,1.411,0.229L27.821,5.96c-0.268-0.068-0.526-0.102-0.774-0.102
			c-0.244,0-0.419,0.06-0.525,0.181c-0.105,0.12-0.159,0.353-0.159,0.694V7.21h1.261v1.402h-1.261v5.339h-1.687V8.612h-0.937V7.21z"
			/>
		<path fill="#280707" d="M28.182,10.485c0-0.592,0.139-1.166,0.414-1.721c0.276-0.554,0.668-0.977,1.174-1.27
			c0.507-0.291,1.072-0.438,1.696-0.438c0.965,0,1.755,0.331,2.372,0.993c0.616,0.663,0.924,1.499,0.924,2.511
			c0,1.02-0.311,1.865-0.934,2.536c-0.622,0.671-1.405,1.006-2.351,1.006c-0.584,0-1.142-0.14-1.672-0.419s-0.934-0.688-1.21-1.229
			C28.32,11.917,28.182,11.26,28.182,10.485z M29.911,10.581c0,0.668,0.149,1.18,0.45,1.535c0.3,0.355,0.67,0.533,1.11,0.533
			s0.81-0.178,1.108-0.533c0.298-0.355,0.447-0.871,0.447-1.549c0-0.66-0.149-1.168-0.447-1.523
			c-0.299-0.355-0.668-0.533-1.108-0.533s-0.811,0.178-1.11,0.533C30.061,9.399,29.911,9.912,29.911,10.581z"/>
		<path fill="#280707" d="M37.698,13.951h-1.688V7.21h1.567v0.959c0.268-0.453,0.509-0.752,0.723-0.896
			c0.215-0.144,0.458-0.216,0.729-0.216c0.385,0,0.755,0.112,1.111,0.336l-0.522,1.556c-0.284-0.194-0.549-0.292-0.793-0.292
			c-0.235,0-0.436,0.068-0.6,0.206c-0.165,0.138-0.294,0.386-0.388,0.746s-0.141,1.112-0.141,2.26V13.951z"/>
		<path fill="#280707" d="M40.742,7.21h1.555v0.92c0.557-0.715,1.219-1.072,1.987-1.072c0.408,0,0.763,0.089,1.063,0.267
			c0.301,0.178,0.547,0.446,0.738,0.806c0.28-0.359,0.583-0.628,0.907-0.806s0.67-0.267,1.038-0.267
			c0.469,0,0.865,0.101,1.189,0.302c0.324,0.2,0.566,0.496,0.727,0.886c0.115,0.287,0.174,0.753,0.174,1.396v4.31h-1.688v-3.853
			c0-0.669-0.058-1.101-0.174-1.295c-0.156-0.254-0.396-0.381-0.721-0.381c-0.236,0-0.458,0.076-0.666,0.229
			s-0.358,0.375-0.45,0.669c-0.093,0.294-0.139,0.759-0.139,1.394v3.237h-1.687v-3.694c0-0.656-0.03-1.079-0.091-1.27
			c-0.06-0.19-0.152-0.332-0.278-0.426c-0.127-0.093-0.298-0.139-0.514-0.139c-0.261,0-0.494,0.074-0.702,0.222
			c-0.209,0.147-0.357,0.362-0.447,0.642c-0.091,0.279-0.136,0.742-0.136,1.39v3.275h-1.687V7.21z"/>
		<path fill="#280707" d="M53.063,9.267l-1.531-0.292C51.703,8.323,52,7.841,52.42,7.527s1.045-0.47,1.873-0.47
			c0.753,0,1.313,0.094,1.682,0.282c0.368,0.188,0.627,0.428,0.777,0.718c0.149,0.289,0.225,0.822,0.225,1.596l-0.018,2.082
			c0,0.593,0.027,1.029,0.081,1.312c0.054,0.281,0.155,0.583,0.303,0.904h-1.669c-0.044-0.118-0.098-0.294-0.162-0.526
			c-0.027-0.106-0.048-0.176-0.06-0.21c-0.288,0.296-0.597,0.519-0.925,0.667c-0.328,0.147-0.679,0.222-1.051,0.222
			c-0.656,0-1.174-0.188-1.552-0.565c-0.379-0.376-0.567-0.852-0.567-1.428c0-0.381,0.086-0.721,0.258-1.019
			c0.172-0.299,0.413-0.527,0.724-0.686c0.311-0.159,0.758-0.298,1.342-0.416c0.788-0.157,1.335-0.303,1.639-0.438V9.374
			c0-0.342-0.08-0.587-0.239-0.732c-0.16-0.146-0.463-0.219-0.907-0.219c-0.3,0-0.534,0.063-0.702,0.187
			C53.303,8.734,53.166,8.954,53.063,9.267z M55.319,10.714c-0.216,0.076-0.558,0.167-1.026,0.273
			c-0.468,0.105-0.774,0.209-0.918,0.311c-0.221,0.165-0.331,0.375-0.331,0.629c0,0.249,0.089,0.465,0.265,0.646
			c0.176,0.183,0.4,0.273,0.672,0.273c0.305,0,0.595-0.105,0.871-0.317c0.204-0.161,0.338-0.357,0.402-0.591
			c0.044-0.152,0.065-0.441,0.065-0.869V10.714z"/>
		<path fill="#280707" d="M61.563,7.21v1.422H60.41v2.717c0,0.551,0.012,0.871,0.033,0.962c0.022,0.091,0.072,0.166,0.15,0.226
			c0.078,0.059,0.173,0.088,0.285,0.088c0.156,0,0.382-0.057,0.679-0.171l0.144,1.384c-0.392,0.178-0.836,0.267-1.333,0.267
			c-0.304,0-0.578-0.054-0.822-0.162c-0.244-0.107-0.423-0.247-0.537-0.419c-0.114-0.171-0.193-0.402-0.237-0.695
			c-0.036-0.207-0.054-0.626-0.054-1.256V8.632h-0.774V7.21h0.774V5.87l1.692-1.041V7.21H61.563z"/>
		<path fill="#280707" d="M62.734,6.296v-1.65h1.687v1.65H62.734z M62.734,13.951V7.21h1.687v6.741H62.734z"/>
		<path fill="#280707" d="M65.761,10.485c0-0.592,0.139-1.166,0.414-1.721c0.276-0.554,0.668-0.977,1.174-1.27
			c0.507-0.291,1.072-0.438,1.696-0.438c0.965,0,1.755,0.331,2.372,0.993c0.616,0.663,0.924,1.499,0.924,2.511
			c0,1.02-0.311,1.865-0.934,2.536c-0.622,0.671-1.405,1.006-2.351,1.006c-0.584,0-1.142-0.14-1.672-0.419s-0.934-0.688-1.21-1.229
			C65.899,11.917,65.761,11.26,65.761,10.485z M67.49,10.581c0,0.668,0.149,1.18,0.45,1.535c0.3,0.355,0.67,0.533,1.11,0.533
			s0.81-0.178,1.108-0.533c0.298-0.355,0.447-0.871,0.447-1.549c0-0.66-0.149-1.168-0.447-1.523
			c-0.299-0.355-0.668-0.533-1.108-0.533s-0.811,0.178-1.11,0.533C67.64,9.399,67.49,9.912,67.49,10.581z"/>
		<path fill="#280707" d="M79.462,13.951h-1.688v-3.44c0-0.729-0.036-1.199-0.108-1.412c-0.071-0.214-0.188-0.38-0.351-0.498
			c-0.162-0.119-0.357-0.178-0.586-0.178c-0.292,0-0.554,0.084-0.786,0.254c-0.232,0.169-0.392,0.393-0.478,0.672
			s-0.129,0.796-0.129,1.549v3.054h-1.688V7.21h1.567V8.2c0.557-0.762,1.257-1.143,2.102-1.143c0.372,0,0.712,0.07,1.021,0.213
			c0.309,0.142,0.541,0.322,0.699,0.543c0.158,0.22,0.269,0.469,0.33,0.748c0.063,0.279,0.094,0.68,0.094,1.2V13.951z"/>
		<path fill="#280707" d="M7.938,18.81v1.422H6.784v2.717c0,0.551,0.012,0.871,0.033,0.963c0.022,0.09,0.072,0.166,0.15,0.225
			s0.173,0.089,0.285,0.089c0.156,0,0.382-0.058,0.679-0.171l0.144,1.383c-0.392,0.178-0.836,0.268-1.333,0.268
			c-0.304,0-0.578-0.055-0.822-0.162s-0.423-0.248-0.537-0.42c-0.114-0.17-0.193-0.402-0.237-0.694
			c-0.036-0.208-0.054-0.626-0.054-1.257v-2.939H4.317V18.81h0.774v-1.339l1.692-1.041v2.38H7.938z"/>
		<path fill="#280707" d="M12.801,23.405l1.681,0.299c-0.216,0.652-0.558,1.148-1.023,1.488c-0.467,0.341-1.05,0.512-1.75,0.512
			c-1.109,0-1.93-0.383-2.462-1.149c-0.42-0.614-0.63-1.388-0.63-2.323c0-1.117,0.275-1.992,0.828-2.625s1.251-0.949,2.096-0.949
			c0.948,0,1.696,0.332,2.245,0.994s0.811,1.677,0.786,3.043h-4.227c0.013,0.529,0.148,0.941,0.408,1.234
			c0.261,0.295,0.585,0.441,0.973,0.441c0.265,0,0.486-0.076,0.667-0.229C12.572,23.989,12.708,23.744,12.801,23.405z
			 M12.896,21.603c-0.012-0.516-0.138-0.908-0.378-1.178c-0.24-0.268-0.532-0.402-0.877-0.402c-0.368,0-0.672,0.142-0.912,0.426
			c-0.24,0.283-0.358,0.668-0.354,1.154H12.896z"/>
		<path fill="#280707" d="M21.507,20.804l-1.663,0.316c-0.057-0.351-0.184-0.615-0.382-0.793c-0.197-0.178-0.455-0.267-0.771-0.267
			c-0.42,0-0.755,0.153-1.005,0.46c-0.251,0.307-0.376,0.82-0.376,1.539c0,0.801,0.127,1.365,0.382,1.695
			c0.254,0.33,0.595,0.495,1.023,0.495c0.32,0,0.582-0.097,0.786-0.288c0.204-0.193,0.349-0.524,0.433-0.994l1.657,0.299
			c-0.172,0.804-0.503,1.41-0.991,1.821s-1.143,0.616-1.963,0.616c-0.933,0-1.676-0.312-2.23-0.934s-0.831-1.483-0.831-2.584
			c0-1.112,0.277-1.979,0.834-2.6c0.557-0.619,1.309-0.93,2.258-0.93c0.776,0,1.394,0.178,1.852,0.531
			C20.978,19.541,21.307,20.079,21.507,20.804z"/>
		<path fill="#280707" d="M24.466,16.245v3.422c0.545-0.673,1.195-1.01,1.951-1.01c0.389,0,0.739,0.076,1.051,0.229
			c0.313,0.152,0.548,0.348,0.706,0.584c0.157,0.237,0.266,0.5,0.324,0.787c0.058,0.288,0.087,0.734,0.087,1.34v3.955h-1.688V21.99
			c0-0.706-0.032-1.155-0.096-1.346c-0.064-0.19-0.178-0.342-0.34-0.454c-0.162-0.111-0.365-0.168-0.609-0.168
			c-0.28,0-0.53,0.072-0.75,0.216c-0.221,0.144-0.382,0.36-0.483,0.651c-0.103,0.289-0.153,0.718-0.153,1.285v3.377h-1.687v-9.307
			H24.466z"/>
		<path fill="#280707" d="M36.096,25.552h-1.688V22.11c0-0.728-0.036-1.198-0.108-1.412c-0.071-0.213-0.188-0.379-0.351-0.498
			s-0.357-0.178-0.586-0.178c-0.292,0-0.554,0.084-0.786,0.254s-0.392,0.394-0.478,0.673s-0.129,0.796-0.129,1.549v3.054h-1.688
			V18.81h1.567v0.99c0.557-0.762,1.257-1.143,2.102-1.143c0.372,0,0.712,0.071,1.021,0.213c0.309,0.143,0.541,0.322,0.699,0.543
			s0.269,0.47,0.33,0.749c0.063,0.279,0.094,0.679,0.094,1.2V25.552z"/>
		<path fill="#280707" d="M37.416,22.085c0-0.592,0.139-1.166,0.414-1.72c0.276-0.554,0.668-0.978,1.174-1.27
			c0.507-0.292,1.072-0.438,1.696-0.438c0.965,0,1.755,0.332,2.372,0.994c0.616,0.662,0.924,1.499,0.924,2.51
			c0,1.021-0.311,1.865-0.934,2.537c-0.622,0.67-1.405,1.006-2.351,1.006c-0.584,0-1.142-0.141-1.672-0.42s-0.934-0.688-1.21-1.229
			C37.555,23.517,37.416,22.86,37.416,22.085z M39.146,22.181c0,0.668,0.149,1.181,0.45,1.536c0.3,0.355,0.67,0.533,1.11,0.533
			s0.81-0.178,1.108-0.533c0.298-0.355,0.447-0.872,0.447-1.549c0-0.66-0.149-1.168-0.447-1.523
			c-0.299-0.355-0.668-0.533-1.108-0.533s-0.811,0.178-1.11,0.533C39.295,21,39.146,21.513,39.146,22.181z"/>
		<path fill="#280707" d="M45.317,25.552v-9.307h1.687v9.307H45.317z"/>
		<path fill="#280707" d="M48.344,22.085c0-0.592,0.139-1.166,0.414-1.72c0.276-0.554,0.668-0.978,1.174-1.27
			c0.507-0.292,1.072-0.438,1.696-0.438c0.965,0,1.755,0.332,2.372,0.994c0.616,0.662,0.924,1.499,0.924,2.51
			c0,1.021-0.311,1.865-0.934,2.537c-0.622,0.67-1.405,1.006-2.351,1.006c-0.584,0-1.142-0.141-1.672-0.42s-0.934-0.688-1.21-1.229
			C48.482,23.517,48.344,22.86,48.344,22.085z M50.073,22.181c0,0.668,0.149,1.181,0.45,1.536c0.3,0.355,0.67,0.533,1.11,0.533
			s0.81-0.178,1.108-0.533c0.298-0.355,0.447-0.872,0.447-1.549c0-0.66-0.149-1.168-0.447-1.523
			c-0.299-0.355-0.668-0.533-1.108-0.533s-0.811,0.178-1.11,0.533C50.223,21,50.073,21.513,50.073,22.181z"/>
		<path fill="#280707" d="M56.089,25.995l1.927,0.248c0.032,0.236,0.106,0.4,0.223,0.488c0.16,0.127,0.412,0.191,0.757,0.191
			c0.439,0,0.771-0.07,0.99-0.21c0.148-0.093,0.26-0.243,0.336-0.45c0.052-0.148,0.078-0.422,0.078-0.819V24.46
			c-0.504,0.728-1.141,1.092-1.909,1.092c-0.856,0-1.535-0.383-2.035-1.149c-0.393-0.604-0.589-1.358-0.589-2.26
			c0-1.13,0.258-1.993,0.771-2.59c0.515-0.597,1.154-0.896,1.919-0.896c0.788,0,1.438,0.367,1.951,1.099V18.81h1.579v6.05
			c0,0.796-0.063,1.39-0.187,1.784c-0.124,0.393-0.298,0.702-0.522,0.926c-0.224,0.225-0.523,0.4-0.897,0.527s-0.848,0.19-1.42,0.19
			c-1.08,0-1.847-0.196-2.3-0.587c-0.452-0.392-0.678-0.888-0.678-1.488C56.083,26.152,56.085,26.08,56.089,25.995z M57.596,22.041
			c0,0.716,0.131,1.239,0.394,1.571c0.262,0.332,0.585,0.498,0.97,0.498c0.412,0,0.76-0.17,1.044-0.512
			c0.284-0.34,0.427-0.845,0.427-1.514c0-0.697-0.136-1.217-0.408-1.555s-0.616-0.508-1.033-0.508c-0.404,0-0.737,0.166-0.999,0.498
			C57.727,20.853,57.596,21.36,57.596,22.041z"/>
		<path fill="#280707" d="M62.957,18.81h1.795l1.525,4.787l1.489-4.787h1.747l-2.252,6.488l-0.402,1.174
			c-0.147,0.394-0.289,0.693-0.423,0.901c-0.135,0.208-0.288,0.376-0.463,0.505c-0.174,0.129-0.388,0.229-0.642,0.301
			c-0.255,0.072-0.542,0.108-0.862,0.108c-0.324,0-0.642-0.036-0.954-0.108l-0.15-1.396c0.265,0.056,0.502,0.083,0.715,0.083
			c0.392,0,0.683-0.122,0.87-0.364c0.188-0.244,0.332-0.555,0.433-0.931L62.957,18.81z"/>
		<path fill="#280707" d="M76.809,28.287h-1.159c-0.612-0.978-1.078-1.993-1.398-3.047s-0.48-2.073-0.48-3.06
			c0-1.223,0.198-2.381,0.594-3.473c0.345-0.947,0.781-1.821,1.31-2.621h1.152c-0.548,1.282-0.926,2.373-1.132,3.271
			c-0.206,0.9-0.309,1.854-0.309,2.86c0,0.694,0.061,1.405,0.183,2.133s0.289,1.42,0.502,2.075
			C76.21,26.858,76.456,27.479,76.809,28.287z"/>
		<path fill="#280707" d="M78.063,25.552v-9.307h1.777v9.307H78.063z"/>
		<path fill="#280707" d="M83.515,25.552v-7.732h-2.611v-1.574h6.994v1.574h-2.605v7.732H83.515z"/>
		<path fill="#280707" d="M88.563,28.287c0.332-0.753,0.566-1.331,0.703-1.733c0.136-0.401,0.262-0.865,0.378-1.39
			s0.202-1.022,0.258-1.495c0.057-0.472,0.084-0.955,0.084-1.45c0-1.007-0.102-1.96-0.306-2.86
			c-0.204-0.898-0.581-1.989-1.129-3.271h1.146c0.604,0.91,1.074,1.875,1.408,2.895s0.501,2.055,0.501,3.104
			c0,0.885-0.132,1.833-0.396,2.844c-0.3,1.135-0.794,2.254-1.482,3.358H88.563z"/>
	</g>
</g>
</svg>
