<?xml version="1.0" encoding="utf-8"?>
<!-- Generator: Adobe Illustrator 16.0.0, SVG Export Plug-In . SVG Version: 6.00 Build 0)  -->
<!DOCTYPE svg PUBLIC "-//W3C//DTD SVG 1.1//EN" "http://www.w3.org/Graphics/SVG/1.1/DTD/svg11.dtd">
<svg version="1.1" id="Capa_1" xmlns="http://www.w3.org/2000/svg" xmlns:xlink="http://www.w3.org/1999/xlink" x="0px" y="0px"
	 width="97.244px" height="33.688px" viewBox="0 0 97.244 33.688" enable-background="new 0 0 97.244 33.688" xml:space="preserve">
<g>
	<linearGradient id="SVGID_1_" gradientUnits="userSpaceOnUse" x1="48.8164" y1="0.5889" x2="48.8164" y2="33.2803">
		<stop  offset="0" style="stop-color:#EC6421"/>
		<stop  offset="0.4099" style="stop-color:#EA6122"/>
		<stop  offset="0.6575" style="stop-color:#E45926"/>
		<stop  offset="0.8613" style="stop-color:#D94B2E"/>
		<stop  offset="1" style="stop-color:#CE3C35"/>
	</linearGradient>
	<path fill="url(#SVGID_1_)" stroke="#280707" stroke-miterlimit="10" d="M96.938,25.325c0,4.393-3.278,7.955-7.323,7.955H8.017
		c-4.044,0-7.322-3.563-7.322-7.955V8.544c0-4.395,3.278-7.955,7.322-7.955h81.599c4.045,0,7.323,3.561,7.323,7.955V25.325z"/>
	<g>
		<path fill="#280707" d="M6.866,20.905V10.884h3.247c1.23,0,2.032,0.05,2.406,0.15c0.574,0.15,1.055,0.477,1.442,0.98
			s0.581,1.154,0.581,1.951c0,0.615-0.111,1.133-0.335,1.553c-0.224,0.419-0.507,0.748-0.851,0.987
			c-0.345,0.239-0.694,0.397-1.05,0.476c-0.483,0.096-1.183,0.143-2.099,0.143H8.89v3.781H6.866z M8.89,12.579v2.844h1.107
			c0.798,0,1.331-0.053,1.6-0.158c0.269-0.104,0.479-0.269,0.632-0.492c0.153-0.223,0.229-0.482,0.229-0.779
			c0-0.364-0.107-0.665-0.321-0.902c-0.214-0.236-0.485-0.385-0.813-0.443c-0.241-0.046-0.727-0.068-1.456-0.068H8.89z"/>
		<path fill="#280707" d="M18.029,20.905h-1.921v-7.26h1.784v1.031c0.306-0.487,0.58-0.809,0.824-0.963
			c0.243-0.155,0.521-0.232,0.83-0.232c0.438,0,0.859,0.12,1.265,0.361l-0.595,1.676c-0.323-0.21-0.624-0.314-0.902-0.314
			c-0.269,0-0.497,0.074-0.684,0.222s-0.334,0.416-0.441,0.804c-0.106,0.387-0.16,1.198-0.16,2.434V20.905z"/>
		<path fill="#280707" d="M21.194,17.173c0-0.639,0.157-1.256,0.472-1.854c0.314-0.597,0.76-1.053,1.337-1.367
			c0.576-0.314,1.22-0.471,1.931-0.471c1.099,0,1.998,0.355,2.7,1.069s1.053,1.614,1.053,2.704c0,1.098-0.354,2.008-1.063,2.73
			c-0.709,0.723-1.602,1.084-2.677,1.084c-0.665,0-1.3-0.15-1.903-0.451c-0.604-0.301-1.063-0.742-1.378-1.323
			S21.194,18.007,21.194,17.173z M23.163,17.274c0,0.721,0.171,1.271,0.513,1.654s0.764,0.574,1.265,0.574s0.922-0.191,1.262-0.574
			c0.339-0.383,0.509-0.938,0.509-1.668c0-0.711-0.17-1.258-0.509-1.641c-0.34-0.383-0.761-0.574-1.262-0.574
			s-0.923,0.191-1.265,0.574S23.163,16.555,23.163,17.274z"/>
		<path fill="#280707" d="M36.521,15.792l-1.894,0.342c-0.063-0.379-0.209-0.664-0.434-0.855c-0.227-0.191-0.519-0.287-0.879-0.287
			c-0.479,0-0.86,0.166-1.145,0.496c-0.285,0.33-0.428,0.883-0.428,1.658c0,0.861,0.145,1.469,0.434,1.824
			c0.29,0.355,0.679,0.533,1.166,0.533c0.364,0,0.663-0.104,0.896-0.311s0.396-0.564,0.492-1.07l1.887,0.322
			c-0.196,0.865-0.572,1.52-1.128,1.961c-0.556,0.442-1.301,0.664-2.235,0.664c-1.062,0-1.908-0.336-2.54-1.006
			c-0.631-0.67-0.946-1.597-0.946-2.781c0-1.199,0.316-2.133,0.95-2.8s1.49-1.001,2.57-1.001c0.884,0,1.587,0.189,2.109,0.57
			C35.918,14.433,36.293,15.013,36.521,15.792z"/>
		<path fill="#280707" d="M42.181,18.595l1.914,0.32c-0.246,0.702-0.635,1.236-1.166,1.604c-0.53,0.367-1.194,0.551-1.992,0.551
			c-1.263,0-2.196-0.413-2.803-1.238c-0.479-0.66-0.718-1.494-0.718-2.502c0-1.203,0.314-2.145,0.943-2.826s1.424-1.021,2.386-1.021
			c1.08,0,1.933,0.355,2.557,1.069s0.923,1.806,0.896,3.278h-4.813c0.014,0.569,0.169,1.012,0.465,1.329s0.665,0.476,1.107,0.476
			c0.301,0,0.554-0.082,0.759-0.246S42.076,18.959,42.181,18.595z M42.29,16.653c-0.014-0.557-0.157-0.979-0.431-1.269
			s-0.606-0.435-0.998-0.435c-0.419,0-0.766,0.153-1.039,0.459c-0.273,0.305-0.408,0.72-0.403,1.244H42.29z"/>
		<path fill="#280707" d="M45.086,18.833l1.928-0.293c0.082,0.373,0.248,0.656,0.499,0.851s0.602,0.29,1.053,0.29
			c0.497,0,0.87-0.091,1.121-0.273c0.169-0.127,0.253-0.298,0.253-0.512c0-0.146-0.046-0.268-0.137-0.363
			c-0.096-0.091-0.31-0.175-0.643-0.252c-1.55-0.342-2.531-0.654-2.946-0.938c-0.574-0.392-0.861-0.936-0.861-1.633
			c0-0.629,0.248-1.158,0.745-1.586c0.497-0.429,1.267-0.643,2.311-0.643c0.993,0,1.731,0.161,2.215,0.484
			c0.483,0.324,0.815,0.803,0.998,1.436l-1.812,0.336c-0.077-0.283-0.225-0.5-0.44-0.65c-0.217-0.15-0.525-0.225-0.927-0.225
			c-0.506,0-0.868,0.07-1.087,0.211c-0.146,0.101-0.219,0.23-0.219,0.391c0,0.137,0.063,0.252,0.191,0.348
			c0.173,0.128,0.771,0.309,1.795,0.541c1.022,0.232,1.737,0.517,2.143,0.854c0.401,0.342,0.602,0.818,0.602,1.43
			c0,0.665-0.278,1.236-0.834,1.715s-1.379,0.719-2.468,0.719c-0.989,0-1.771-0.201-2.349-0.602
			C45.641,20.066,45.264,19.521,45.086,18.833z"/>
		<path fill="#280707" d="M52.872,18.833L54.8,18.54c0.082,0.373,0.248,0.656,0.499,0.851s0.602,0.29,1.053,0.29
			c0.497,0,0.87-0.091,1.121-0.273c0.169-0.127,0.253-0.298,0.253-0.512c0-0.146-0.046-0.268-0.137-0.363
			c-0.096-0.091-0.31-0.175-0.643-0.252c-1.55-0.342-2.531-0.654-2.946-0.938c-0.574-0.392-0.861-0.936-0.861-1.633
			c0-0.629,0.248-1.158,0.745-1.586c0.497-0.429,1.267-0.643,2.311-0.643c0.993,0,1.731,0.161,2.215,0.484
			c0.483,0.324,0.815,0.803,0.998,1.436l-1.812,0.336c-0.077-0.283-0.225-0.5-0.44-0.65c-0.217-0.15-0.525-0.225-0.927-0.225
			c-0.506,0-0.868,0.07-1.087,0.211c-0.146,0.101-0.219,0.23-0.219,0.391c0,0.137,0.063,0.252,0.191,0.348
			c0.173,0.128,0.771,0.309,1.795,0.541c1.022,0.232,1.737,0.517,2.143,0.854c0.401,0.342,0.602,0.818,0.602,1.43
			c0,0.665-0.278,1.236-0.834,1.715s-1.379,0.719-2.468,0.719c-0.989,0-1.771-0.201-2.349-0.602
			C53.427,20.066,53.05,19.521,52.872,18.833z"/>
		<path fill="#280707" d="M65.081,13.646h1.771v0.99c0.634-0.77,1.388-1.154,2.263-1.154c0.465,0,0.868,0.096,1.21,0.287
			s0.622,0.48,0.841,0.867c0.319-0.387,0.663-0.676,1.032-0.867s0.764-0.287,1.183-0.287c0.533,0,0.984,0.107,1.354,0.324
			s0.645,0.534,0.827,0.953c0.132,0.311,0.198,0.812,0.198,1.504v4.643h-1.921v-4.15c0-0.72-0.066-1.185-0.198-1.395
			c-0.178-0.273-0.451-0.41-0.82-0.41c-0.269,0-0.521,0.082-0.759,0.246s-0.408,0.404-0.513,0.722s-0.157,0.817-0.157,1.501v3.486
			H69.47v-3.979c0-0.707-0.034-1.162-0.103-1.367s-0.175-0.358-0.317-0.459c-0.145-0.1-0.339-0.15-0.585-0.15
			c-0.296,0-0.563,0.08-0.8,0.24c-0.237,0.159-0.406,0.389-0.51,0.689c-0.102,0.301-0.153,0.801-0.153,1.498v3.527h-1.921V13.646z"
			/>
		<path fill="#280707" d="M79.108,15.86l-1.743-0.314c0.196-0.702,0.533-1.222,1.012-1.559c0.479-0.338,1.189-0.506,2.133-0.506
			c0.856,0,1.495,0.102,1.914,0.304s0.715,0.46,0.885,0.772c0.172,0.313,0.257,0.885,0.257,1.719l-0.021,2.242
			c0,0.639,0.031,1.109,0.092,1.412c0.063,0.303,0.177,0.628,0.346,0.975h-1.9c-0.05-0.128-0.111-0.317-0.185-0.568
			c-0.032-0.113-0.055-0.188-0.068-0.225c-0.328,0.318-0.679,0.558-1.053,0.717c-0.374,0.16-0.772,0.24-1.196,0.24
			c-0.747,0-1.336-0.203-1.768-0.609c-0.43-0.405-0.646-0.918-0.646-1.537c0-0.41,0.098-0.776,0.294-1.098s0.471-0.567,0.824-0.738
			c0.353-0.171,0.862-0.32,1.527-0.447c0.897-0.169,1.52-0.326,1.866-0.473v-0.191c0-0.369-0.091-0.632-0.273-0.789
			s-0.526-0.236-1.032-0.236c-0.342,0-0.608,0.068-0.8,0.202S79.227,15.522,79.108,15.86z M81.679,17.419
			c-0.246,0.082-0.636,0.18-1.169,0.293c-0.533,0.114-0.882,0.227-1.046,0.336c-0.251,0.178-0.376,0.402-0.376,0.676
			c0,0.27,0.101,0.502,0.301,0.697c0.2,0.196,0.456,0.295,0.766,0.295c0.347,0,0.677-0.114,0.991-0.342
			c0.232-0.174,0.385-0.386,0.458-0.637c0.05-0.164,0.075-0.476,0.075-0.936V17.419z"/>
		<path fill="#280707" d="M85.404,13.646h1.791v1.066c0.232-0.365,0.547-0.661,0.943-0.889c0.396-0.229,0.836-0.342,1.319-0.342
			c0.843,0,1.559,0.33,2.146,0.99c0.588,0.661,0.882,1.582,0.882,2.762c0,1.213-0.296,2.154-0.889,2.827s-1.311,1.009-2.153,1.009
			c-0.401,0-0.765-0.08-1.09-0.24c-0.326-0.159-0.669-0.433-1.029-0.82v3.658h-1.921V13.646z M87.305,17.151
			c0,0.816,0.162,1.419,0.485,1.809s0.718,0.584,1.183,0.584c0.446,0,0.818-0.178,1.114-0.536s0.444-0.944,0.444-1.761
			c0-0.761-0.152-1.326-0.458-1.695s-0.684-0.553-1.135-0.553c-0.47,0-0.859,0.181-1.169,0.543S87.305,16.44,87.305,17.151z"/>
	</g>
</g>
</svg>
