<?xml version="1.0" encoding="utf-8"?>
<!-- Generator: Adobe Illustrator 16.0.0, SVG Export Plug-In . SVG Version: 6.00 Build 0)  -->
<!DOCTYPE svg PUBLIC "-//W3C//DTD SVG 1.1//EN" "http://www.w3.org/Graphics/SVG/1.1/DTD/svg11.dtd">
<svg version="1.1" id="Capa_1" xmlns="http://www.w3.org/2000/svg" xmlns:xlink="http://www.w3.org/1999/xlink" x="0px" y="0px"
	 width="97.244px" height="33.688px" viewBox="0 0 97.244 33.688" enable-background="new 0 0 97.244 33.688" xml:space="preserve">
<g>
	<linearGradient id="SVGID_1_" gradientUnits="userSpaceOnUse" x1="48.7012" y1="0.5889" x2="48.7012" y2="33.2803">
		<stop  offset="0" style="stop-color:#EC6421"/>
		<stop  offset="0.4099" style="stop-color:#EA6122"/>
		<stop  offset="0.6575" style="stop-color:#E45926"/>
		<stop  offset="0.8613" style="stop-color:#D94B2E"/>
		<stop  offset="1" style="stop-color:#CE3C35"/>
	</linearGradient>
	<path fill="url(#SVGID_1_)" stroke="#280707" stroke-miterlimit="10" d="M96.823,25.325c0,4.393-3.278,7.955-7.323,7.955H7.901
		c-4.044,0-7.322-3.563-7.322-7.955V8.544c0-4.395,3.278-7.955,7.322-7.955H89.5c4.045,0,7.323,3.561,7.323,7.955V25.325z"/>
	<g>
		<path fill="#280707" d="M35.349,11.22l1.962,0.623c-0.301,1.094-0.801,1.906-1.5,2.437c-0.7,0.53-1.588,0.796-2.663,0.796
			c-1.331,0-2.425-0.454-3.281-1.363s-1.285-2.152-1.285-3.729c0-1.668,0.431-2.964,1.292-3.887s1.994-1.385,3.397-1.385
			c1.226,0,2.222,0.363,2.987,1.088c0.456,0.428,0.798,1.043,1.025,1.846L35.28,8.124c-0.118-0.52-0.366-0.93-0.741-1.23
			c-0.377-0.301-0.833-0.451-1.371-0.451c-0.743,0-1.346,0.266-1.809,0.799c-0.462,0.533-0.693,1.397-0.693,2.592
			c0,1.267,0.228,2.169,0.684,2.707c0.456,0.537,1.048,0.807,1.777,0.807c0.538,0,1-0.172,1.388-0.514S35.18,11.954,35.349,11.22z"
			/>
		<path fill="#280707" d="M38.589,11.173c0-0.639,0.157-1.256,0.472-1.854c0.314-0.597,0.76-1.053,1.337-1.367
			c0.576-0.314,1.22-0.471,1.931-0.471c1.099,0,1.998,0.355,2.7,1.069s1.053,1.614,1.053,2.704c0,1.098-0.354,2.008-1.063,2.73
			c-0.709,0.723-1.602,1.084-2.677,1.084c-0.665,0-1.3-0.15-1.903-0.451c-0.604-0.301-1.063-0.742-1.378-1.323
			S38.589,12.007,38.589,11.173z M40.558,11.274c0,0.721,0.171,1.271,0.513,1.654s0.764,0.574,1.265,0.574s0.922-0.191,1.262-0.574
			c0.339-0.383,0.509-0.938,0.509-1.668c0-0.711-0.17-1.258-0.509-1.641c-0.34-0.383-0.761-0.574-1.262-0.574
			S41.412,9.237,41.07,9.62S40.558,10.555,40.558,11.274z"/>
		<path fill="#280707" d="M47.585,14.905V4.884h1.921v10.021H47.585z"/>
		<path fill="#280707" d="M51.475,14.905V4.884h1.921v10.021H51.475z"/>
		<path fill="#280707" d="M59.568,12.595l1.914,0.32c-0.246,0.702-0.635,1.236-1.166,1.604c-0.53,0.367-1.194,0.551-1.992,0.551
			c-1.263,0-2.196-0.413-2.803-1.238c-0.479-0.66-0.718-1.494-0.718-2.502c0-1.203,0.314-2.145,0.943-2.826s1.424-1.021,2.386-1.021
			c1.08,0,1.933,0.355,2.557,1.069s0.923,1.806,0.896,3.278h-4.813c0.014,0.569,0.169,1.012,0.465,1.329s0.665,0.476,1.107,0.476
			c0.301,0,0.554-0.082,0.759-0.246S59.464,12.959,59.568,12.595z M59.678,10.653c-0.014-0.557-0.157-0.979-0.431-1.269
			S58.641,8.95,58.249,8.95c-0.419,0-0.766,0.153-1.039,0.459c-0.273,0.305-0.408,0.72-0.403,1.244H59.678z"/>
		<path fill="#280707" d="M69.48,9.792l-1.894,0.342c-0.063-0.379-0.209-0.664-0.434-0.855c-0.227-0.191-0.519-0.287-0.879-0.287
			c-0.479,0-0.86,0.166-1.145,0.496c-0.285,0.33-0.428,0.883-0.428,1.658c0,0.861,0.145,1.469,0.434,1.824
			c0.29,0.355,0.679,0.533,1.166,0.533c0.364,0,0.663-0.104,0.896-0.311s0.396-0.564,0.492-1.07l1.887,0.322
			c-0.196,0.865-0.572,1.52-1.128,1.961c-0.556,0.442-1.301,0.664-2.235,0.664c-1.062,0-1.908-0.336-2.54-1.006
			c-0.631-0.67-0.946-1.597-0.946-2.781c0-1.199,0.316-2.133,0.95-2.8s1.49-1.001,2.57-1.001c0.884,0,1.587,0.189,2.109,0.57
			C68.878,8.433,69.253,9.013,69.48,9.792z"/>
		<path fill="#280707" d="M74.266,7.646v1.531h-1.313v2.926c0,0.592,0.013,0.938,0.037,1.035c0.025,0.098,0.082,0.179,0.172,0.242
			c0.088,0.064,0.196,0.096,0.324,0.096c0.178,0,0.436-0.061,0.772-0.184l0.164,1.49c-0.446,0.191-0.952,0.287-1.518,0.287
			c-0.347,0-0.658-0.059-0.937-0.175s-0.482-0.267-0.611-0.451c-0.131-0.185-0.221-0.435-0.271-0.749
			c-0.041-0.223-0.062-0.674-0.062-1.354V9.177h-0.882V7.646h0.882V6.202l1.928-1.121v2.564H74.266z"/>
		<path fill="#280707" d="M11.819,19.46v-1.777h1.921v1.777H11.819z M11.819,27.704v-7.26h1.921v7.26H11.819z"/>
		<path fill="#280707" d="M22.313,27.704h-1.921v-3.705c0-0.783-0.041-1.291-0.123-1.521s-0.215-0.409-0.4-0.536
			c-0.184-0.128-0.406-0.191-0.666-0.191c-0.333,0-0.631,0.091-0.896,0.273c-0.265,0.182-0.445,0.424-0.544,0.725
			c-0.098,0.301-0.146,0.856-0.146,1.668v3.287h-1.921v-7.26h1.784v1.066c0.634-0.82,1.431-1.23,2.393-1.23
			c0.424,0,0.812,0.076,1.162,0.229s0.616,0.348,0.797,0.585c0.18,0.236,0.305,0.506,0.375,0.807
			c0.071,0.301,0.106,0.73,0.106,1.291V27.704z"/>
		<path fill="#280707" d="M23.42,20.444h1.066v-0.547c0-0.61,0.064-1.066,0.195-1.367c0.129-0.301,0.369-0.545,0.717-0.734
			c0.35-0.189,0.79-0.283,1.323-0.283c0.547,0,1.082,0.082,1.606,0.246l-0.26,1.34c-0.306-0.073-0.6-0.109-0.882-0.109
			c-0.278,0-0.478,0.064-0.599,0.194c-0.12,0.13-0.181,0.38-0.181,0.749v0.512h1.436v1.512h-1.436v5.748h-1.921v-5.748H23.42V20.444
			z"/>
		<path fill="#280707" d="M28.479,23.972c0-0.638,0.157-1.255,0.472-1.852c0.314-0.598,0.76-1.053,1.337-1.367
			c0.576-0.314,1.22-0.473,1.931-0.473c1.099,0,1.998,0.357,2.7,1.07s1.053,1.614,1.053,2.703c0,1.099-0.354,2.01-1.063,2.731
			c-0.709,0.722-1.602,1.083-2.677,1.083c-0.665,0-1.3-0.15-1.903-0.451c-0.604-0.301-1.063-0.741-1.378-1.322
			S28.479,24.806,28.479,23.972z M30.447,24.075c0,0.72,0.171,1.271,0.513,1.654s0.764,0.574,1.265,0.574s0.922-0.191,1.262-0.574
			c0.339-0.383,0.509-0.939,0.509-1.668c0-0.711-0.17-1.258-0.509-1.641c-0.34-0.383-0.761-0.574-1.262-0.574
			s-0.923,0.191-1.265,0.574S30.447,23.354,30.447,24.075z"/>
		<path fill="#280707" d="M39.313,27.704h-1.921v-7.26h1.784v1.033c0.306-0.488,0.58-0.81,0.824-0.965
			c0.243-0.154,0.521-0.232,0.83-0.232c0.438,0,0.859,0.121,1.265,0.363l-0.595,1.674c-0.323-0.209-0.624-0.314-0.902-0.314
			c-0.269,0-0.497,0.074-0.684,0.223s-0.334,0.416-0.441,0.803c-0.106,0.388-0.16,1.199-0.16,2.434V27.704z"/>
		<path fill="#280707" d="M42.779,20.444h1.771v0.992c0.634-0.771,1.388-1.156,2.263-1.156c0.465,0,0.868,0.096,1.21,0.287
			s0.622,0.481,0.841,0.869c0.319-0.388,0.663-0.678,1.032-0.869s0.764-0.287,1.183-0.287c0.533,0,0.984,0.109,1.354,0.325
			s0.645,0.534,0.827,0.954c0.132,0.31,0.198,0.811,0.198,1.504v4.641h-1.921v-4.148c0-0.721-0.066-1.186-0.198-1.395
			c-0.178-0.273-0.451-0.41-0.82-0.41c-0.269,0-0.521,0.082-0.759,0.246s-0.408,0.404-0.513,0.721s-0.157,0.816-0.157,1.5v3.486
			h-1.921v-3.979c0-0.706-0.034-1.162-0.103-1.367s-0.175-0.357-0.317-0.457c-0.145-0.101-0.339-0.15-0.585-0.15
			c-0.296,0-0.563,0.079-0.8,0.238c-0.237,0.16-0.406,0.391-0.51,0.691c-0.102,0.301-0.153,0.799-0.153,1.496v3.527h-1.921V20.444z"
			/>
		<path fill="#280707" d="M56.807,22.659l-1.743-0.314c0.196-0.701,0.533-1.221,1.012-1.559c0.479-0.337,1.189-0.506,2.133-0.506
			c0.856,0,1.495,0.102,1.914,0.305s0.715,0.461,0.885,0.772c0.172,0.312,0.257,0.886,0.257,1.72l-0.021,2.242
			c0,0.638,0.031,1.107,0.092,1.411c0.063,0.304,0.177,0.628,0.346,0.974h-1.9c-0.05-0.127-0.111-0.316-0.185-0.566
			c-0.032-0.114-0.055-0.189-0.068-0.227c-0.328,0.319-0.679,0.559-1.053,0.719c-0.374,0.159-0.772,0.238-1.196,0.238
			c-0.747,0-1.336-0.202-1.768-0.607c-0.43-0.406-0.646-0.919-0.646-1.539c0-0.41,0.098-0.775,0.294-1.097s0.471-0.567,0.824-0.738
			c0.353-0.171,0.862-0.32,1.527-0.448c0.897-0.168,1.52-0.325,1.866-0.471v-0.191c0-0.369-0.091-0.633-0.273-0.79
			s-0.526-0.235-1.032-0.235c-0.342,0-0.608,0.066-0.8,0.201S56.925,22.322,56.807,22.659z M59.377,24.218
			c-0.246,0.082-0.636,0.181-1.169,0.295c-0.533,0.113-0.882,0.225-1.046,0.334c-0.251,0.178-0.376,0.404-0.376,0.678
			c0,0.269,0.101,0.501,0.301,0.697c0.2,0.195,0.456,0.293,0.766,0.293c0.347,0,0.677-0.113,0.991-0.342
			c0.232-0.173,0.385-0.385,0.458-0.635c0.05-0.164,0.075-0.477,0.075-0.938V24.218z"/>
		<path fill="#280707" d="M66.486,20.444v1.531h-1.313v2.926c0,0.593,0.013,0.938,0.037,1.036c0.025,0.099,0.082,0.179,0.172,0.243
			c0.088,0.063,0.196,0.096,0.324,0.096c0.178,0,0.436-0.063,0.772-0.186l0.164,1.49c-0.446,0.191-0.952,0.287-1.518,0.287
			c-0.347,0-0.658-0.058-0.937-0.174s-0.482-0.267-0.611-0.451c-0.131-0.185-0.221-0.434-0.271-0.748
			c-0.041-0.224-0.062-0.675-0.062-1.354v-3.166h-0.882v-1.531h0.882v-1.441l1.928-1.121v2.563H66.486z"/>
		<path fill="#280707" d="M67.819,19.46v-1.777h1.921v1.777H67.819z M67.819,27.704v-7.26h1.921v7.26H67.819z"/>
		<path fill="#280707" d="M71.265,23.972c0-0.638,0.157-1.255,0.472-1.852c0.314-0.598,0.76-1.053,1.337-1.367
			c0.576-0.314,1.22-0.473,1.931-0.473c1.099,0,1.998,0.357,2.7,1.07s1.053,1.614,1.053,2.703c0,1.099-0.354,2.01-1.063,2.731
			c-0.709,0.722-1.602,1.083-2.677,1.083c-0.665,0-1.3-0.15-1.903-0.451c-0.604-0.301-1.063-0.741-1.378-1.322
			S71.265,24.806,71.265,23.972z M73.233,24.075c0,0.72,0.171,1.271,0.513,1.654s0.764,0.574,1.265,0.574s0.922-0.191,1.262-0.574
			c0.339-0.383,0.509-0.939,0.509-1.668c0-0.711-0.17-1.258-0.509-1.641c-0.34-0.383-0.761-0.574-1.262-0.574
			s-0.923,0.191-1.265,0.574S73.233,23.354,73.233,24.075z"/>
		<path fill="#280707" d="M86.864,27.704h-1.921v-3.705c0-0.783-0.041-1.291-0.123-1.521s-0.215-0.409-0.4-0.536
			c-0.184-0.128-0.406-0.191-0.666-0.191c-0.333,0-0.631,0.091-0.896,0.273c-0.265,0.182-0.445,0.424-0.544,0.725
			c-0.098,0.301-0.146,0.856-0.146,1.668v3.287h-1.921v-7.26h1.784v1.066c0.634-0.82,1.431-1.23,2.393-1.23
			c0.424,0,0.812,0.076,1.162,0.229s0.616,0.348,0.797,0.585c0.18,0.236,0.305,0.506,0.375,0.807
			c0.071,0.301,0.106,0.73,0.106,1.291V27.704z"/>
	</g>
</g>
</svg>
