<?xml version="1.0" encoding="utf-8"?>
<!-- Generator: Adobe Illustrator 16.0.0, SVG Export Plug-In . SVG Version: 6.00 Build 0)  -->
<!DOCTYPE svg PUBLIC "-//W3C//DTD SVG 1.1//EN" "http://www.w3.org/Graphics/SVG/1.1/DTD/svg11.dtd">
<svg version="1.1" id="Capa_1" xmlns="http://www.w3.org/2000/svg" xmlns:xlink="http://www.w3.org/1999/xlink" x="0px" y="0px"
	 width="97.244px" height="33.688px" viewBox="0 0 97.244 33.688" enable-background="new 0 0 97.244 33.688" xml:space="preserve">
<g>
	<linearGradient id="SVGID_1_" gradientUnits="userSpaceOnUse" x1="48.71" y1="0.6807" x2="48.71" y2="33.3721">
		<stop  offset="0" style="stop-color:#EC6421"/>
		<stop  offset="0.4099" style="stop-color:#EA6122"/>
		<stop  offset="0.6575" style="stop-color:#E45926"/>
		<stop  offset="0.8613" style="stop-color:#D94B2E"/>
		<stop  offset="1" style="stop-color:#CE3C35"/>
	</linearGradient>
	<path fill="url(#SVGID_1_)" stroke="#280707" stroke-miterlimit="10" d="M96.832,25.417c0,4.393-3.278,7.955-7.323,7.955H7.91
		c-4.044,0-7.322-3.563-7.322-7.955V8.636c0-4.395,3.278-7.955,7.322-7.955h81.599c4.045,0,7.323,3.561,7.323,7.955V25.417z"/>
	<g>
		<path fill="#280707" d="M23.385,20.997V10.976h3.028l1.818,6.836l1.798-6.836h3.035v10.021h-1.88v-7.889l-1.989,7.889h-1.948
			l-1.982-7.889v7.889H23.385z"/>
		<path fill="#280707" d="M34.616,17.265c0-0.639,0.157-1.256,0.472-1.854c0.314-0.597,0.76-1.053,1.337-1.367
			c0.576-0.314,1.22-0.471,1.931-0.471c1.099,0,1.998,0.355,2.7,1.069s1.053,1.614,1.053,2.704c0,1.098-0.354,2.008-1.063,2.73
			c-0.709,0.723-1.602,1.084-2.677,1.084c-0.665,0-1.3-0.15-1.903-0.451c-0.604-0.301-1.063-0.742-1.378-1.323
			S34.616,18.099,34.616,17.265z M36.585,17.366c0,0.721,0.171,1.271,0.513,1.654s0.764,0.574,1.265,0.574s0.922-0.191,1.262-0.574
			c0.339-0.383,0.509-0.938,0.509-1.668c0-0.711-0.17-1.258-0.509-1.641c-0.34-0.383-0.761-0.574-1.262-0.574
			s-0.923,0.191-1.265,0.574S36.585,16.646,36.585,17.366z"/>
		<path fill="#280707" d="M49.942,15.884l-1.894,0.342c-0.063-0.379-0.209-0.664-0.434-0.855c-0.227-0.191-0.519-0.287-0.879-0.287
			c-0.479,0-0.86,0.166-1.145,0.496c-0.285,0.33-0.428,0.883-0.428,1.658c0,0.861,0.145,1.469,0.434,1.824
			c0.29,0.355,0.679,0.533,1.166,0.533c0.364,0,0.663-0.104,0.896-0.311s0.396-0.564,0.492-1.07l1.887,0.322
			c-0.196,0.865-0.572,1.52-1.128,1.961c-0.556,0.442-1.301,0.664-2.235,0.664c-1.062,0-1.908-0.336-2.54-1.006
			c-0.631-0.67-0.946-1.597-0.946-2.781c0-1.199,0.316-2.133,0.95-2.8s1.49-1.001,2.57-1.001c0.884,0,1.587,0.189,2.109,0.57
			C49.34,14.524,49.715,15.104,49.942,15.884z"/>
		<path fill="#280707" d="M51.33,20.997V10.976h1.921v5.318l2.249-2.557h2.365l-2.481,2.652l2.659,4.607h-2.071l-1.825-3.262
			l-0.896,0.938v2.324H51.33z"/>
		<path fill="#280707" d="M63.963,20.997v-1.088c-0.265,0.388-0.611,0.693-1.043,0.916c-0.43,0.224-0.885,0.336-1.363,0.336
			c-0.487,0-0.925-0.107-1.313-0.322c-0.388-0.214-0.668-0.515-0.841-0.902c-0.173-0.387-0.26-0.922-0.26-1.605v-4.594h1.921v3.336
			c0,1.021,0.035,1.646,0.105,1.876c0.071,0.229,0.2,0.413,0.387,0.547s0.424,0.202,0.711,0.202c0.328,0,0.622-0.09,0.882-0.271
			s0.438-0.403,0.533-0.67s0.144-0.919,0.144-1.958v-3.063h1.921v7.26H63.963z"/>
		<path fill="#280707" d="M67.682,13.737h1.791v1.066c0.232-0.365,0.547-0.661,0.943-0.889c0.396-0.229,0.836-0.342,1.319-0.342
			c0.843,0,1.559,0.33,2.146,0.99c0.588,0.661,0.882,1.582,0.882,2.762c0,1.213-0.296,2.154-0.889,2.827s-1.311,1.009-2.153,1.009
			c-0.401,0-0.765-0.08-1.09-0.24c-0.326-0.159-0.669-0.433-1.029-0.82v3.658h-1.921V13.737z M69.582,17.243
			c0,0.816,0.162,1.419,0.485,1.809s0.718,0.584,1.183,0.584c0.446,0,0.818-0.178,1.114-0.536s0.444-0.944,0.444-1.761
			c0-0.761-0.152-1.326-0.458-1.695s-0.684-0.553-1.135-0.553c-0.47,0-0.859,0.181-1.169,0.543S69.582,16.532,69.582,17.243z"/>
	</g>
</g>
</svg>
