<?xml version="1.0" encoding="utf-8"?>
<!-- Generator: Adobe Illustrator 16.0.0, SVG Export Plug-In . SVG Version: 6.00 Build 0)  -->
<!DOCTYPE svg PUBLIC "-//W3C//DTD SVG 1.1//EN" "http://www.w3.org/Graphics/SVG/1.1/DTD/svg11.dtd">
<svg version="1.1" id="Capa_1" xmlns="http://www.w3.org/2000/svg" xmlns:xlink="http://www.w3.org/1999/xlink" x="0px" y="0px"
	 width="97.244px" height="33.688px" viewBox="0 0 97.244 33.688" enable-background="new 0 0 97.244 33.688" xml:space="preserve">
<g>
	<linearGradient id="SVGID_1_" gradientUnits="userSpaceOnUse" x1="48.8164" y1="0.6807" x2="48.8164" y2="33.3721">
		<stop  offset="0" style="stop-color:#EC6421"/>
		<stop  offset="0.4099" style="stop-color:#EA6122"/>
		<stop  offset="0.6575" style="stop-color:#E45926"/>
		<stop  offset="0.8613" style="stop-color:#D94B2E"/>
		<stop  offset="1" style="stop-color:#CE3C35"/>
	</linearGradient>
	<path fill="url(#SVGID_1_)" stroke="#280707" stroke-miterlimit="10" d="M96.938,25.417c0,4.393-3.278,7.955-7.323,7.955H8.017
		c-4.044,0-7.322-3.563-7.322-7.955V8.636c0-4.395,3.278-7.955,7.322-7.955h81.599c4.045,0,7.323,3.561,7.323,7.955V25.417z"/>
	<g>
		<path fill="#280707" d="M24.384,15.997V5.976h3.247c1.23,0,2.032,0.05,2.406,0.15c0.574,0.15,1.055,0.477,1.442,0.98
			s0.581,1.154,0.581,1.951c0,0.615-0.111,1.133-0.335,1.553c-0.224,0.419-0.507,0.748-0.851,0.987
			c-0.345,0.239-0.694,0.397-1.05,0.476c-0.483,0.096-1.183,0.143-2.099,0.143h-1.319v3.781H24.384z M26.407,7.671v2.844h1.107
			c0.798,0,1.331-0.053,1.6-0.158c0.269-0.104,0.479-0.269,0.632-0.492c0.153-0.223,0.229-0.482,0.229-0.779
			c0-0.364-0.107-0.665-0.321-0.902c-0.214-0.236-0.485-0.385-0.813-0.443c-0.241-0.046-0.727-0.068-1.456-0.068H26.407z"/>
		<path fill="#280707" d="M35.547,15.997h-1.921v-7.26h1.784v1.031c0.306-0.487,0.58-0.809,0.824-0.963
			c0.243-0.155,0.521-0.232,0.83-0.232c0.438,0,0.859,0.12,1.265,0.361l-0.595,1.676c-0.323-0.21-0.624-0.314-0.902-0.314
			c-0.269,0-0.497,0.074-0.684,0.222s-0.334,0.416-0.441,0.804c-0.106,0.387-0.16,1.198-0.16,2.434V15.997z"/>
		<path fill="#280707" d="M38.712,12.265c0-0.639,0.157-1.256,0.472-1.854c0.314-0.597,0.76-1.053,1.337-1.367
			c0.576-0.314,1.22-0.471,1.931-0.471c1.099,0,1.998,0.355,2.7,1.069s1.053,1.614,1.053,2.704c0,1.098-0.354,2.008-1.063,2.73
			c-0.709,0.723-1.602,1.084-2.677,1.084c-0.665,0-1.3-0.15-1.903-0.451c-0.604-0.301-1.063-0.742-1.378-1.323
			S38.712,13.099,38.712,12.265z M40.681,12.366c0,0.721,0.171,1.271,0.513,1.654s0.764,0.574,1.265,0.574s0.922-0.191,1.262-0.574
			c0.339-0.383,0.509-0.938,0.509-1.668c0-0.711-0.17-1.258-0.509-1.641c-0.34-0.383-0.761-0.574-1.262-0.574
			s-0.923,0.191-1.265,0.574S40.681,11.646,40.681,12.366z"/>
		<path fill="#280707" d="M47.626,15.997V5.976h1.921v3.609c0.593-0.675,1.294-1.012,2.105-1.012c0.884,0,1.615,0.32,2.194,0.96
			s0.868,1.56,0.868,2.759c0,1.239-0.295,2.193-0.885,2.863c-0.591,0.67-1.308,1.006-2.15,1.006c-0.415,0-0.824-0.104-1.227-0.312
			c-0.404-0.208-0.751-0.514-1.043-0.919v1.066H47.626z M49.533,12.21c0,0.752,0.118,1.308,0.355,1.668
			c0.333,0.51,0.774,0.766,1.326,0.766c0.424,0,0.785-0.182,1.084-0.544c0.298-0.362,0.447-0.933,0.447-1.712
			c0-0.83-0.15-1.428-0.451-1.795s-0.686-0.551-1.155-0.551c-0.46,0-0.843,0.18-1.148,0.537S49.533,11.48,49.533,12.21z"/>
		<path fill="#280707" d="M56.26,15.997V5.976h1.921v10.021H56.26z"/>
		<path fill="#280707" d="M64.354,13.687l1.914,0.32c-0.246,0.702-0.635,1.236-1.166,1.604c-0.53,0.367-1.194,0.551-1.992,0.551
			c-1.263,0-2.196-0.413-2.803-1.238c-0.479-0.66-0.718-1.494-0.718-2.502c0-1.203,0.314-2.145,0.943-2.826s1.424-1.021,2.386-1.021
			c1.08,0,1.933,0.355,2.557,1.069s0.923,1.806,0.896,3.278h-4.813c0.014,0.569,0.169,1.012,0.465,1.329s0.665,0.476,1.107,0.476
			c0.301,0,0.554-0.082,0.759-0.246S64.249,14.051,64.354,13.687z M64.463,11.745c-0.014-0.557-0.157-0.979-0.431-1.269
			s-0.606-0.435-0.998-0.435c-0.419,0-0.766,0.153-1.039,0.459c-0.273,0.305-0.408,0.72-0.403,1.244H64.463z"/>
		<path fill="#280707" d="M67.792,8.737h1.771v0.99c0.634-0.77,1.388-1.154,2.263-1.154c0.465,0,0.868,0.096,1.21,0.287
			s0.622,0.48,0.841,0.867c0.319-0.387,0.663-0.676,1.032-0.867s0.764-0.287,1.183-0.287c0.533,0,0.984,0.107,1.354,0.324
			s0.645,0.534,0.827,0.953c0.132,0.311,0.198,0.812,0.198,1.504v4.643h-1.921v-4.15c0-0.72-0.066-1.185-0.198-1.395
			c-0.178-0.273-0.451-0.41-0.82-0.41c-0.269,0-0.521,0.082-0.759,0.246s-0.408,0.404-0.513,0.722s-0.157,0.817-0.157,1.501v3.486
			h-1.921v-3.979c0-0.707-0.034-1.162-0.103-1.367s-0.175-0.358-0.317-0.459c-0.145-0.1-0.339-0.15-0.585-0.15
			c-0.296,0-0.563,0.08-0.8,0.24c-0.237,0.159-0.406,0.389-0.51,0.689c-0.102,0.301-0.153,0.801-0.153,1.498v3.527h-1.921V8.737z"/>
		<path fill="#280707" d="M29.131,26.726l1.928-0.295c0.082,0.374,0.248,0.658,0.499,0.852s0.602,0.291,1.053,0.291
			c0.497,0,0.87-0.092,1.121-0.273c0.169-0.128,0.253-0.299,0.253-0.514c0-0.146-0.046-0.266-0.137-0.361
			c-0.096-0.092-0.31-0.176-0.643-0.254c-1.55-0.342-2.531-0.653-2.946-0.936c-0.574-0.393-0.861-0.938-0.861-1.635
			c0-0.629,0.248-1.157,0.745-1.586c0.497-0.428,1.267-0.643,2.311-0.643c0.993,0,1.731,0.162,2.215,0.486
			c0.483,0.323,0.815,0.802,0.998,1.436l-1.812,0.334c-0.077-0.282-0.225-0.498-0.44-0.648c-0.217-0.15-0.525-0.227-0.927-0.227
			c-0.506,0-0.868,0.071-1.087,0.213c-0.146,0.1-0.219,0.229-0.219,0.389c0,0.137,0.063,0.254,0.191,0.35
			c0.173,0.127,0.771,0.307,1.795,0.539c1.022,0.232,1.737,0.518,2.143,0.855c0.401,0.342,0.602,0.817,0.602,1.428
			c0,0.666-0.278,1.238-0.834,1.717s-1.379,0.717-2.468,0.717c-0.989,0-1.771-0.2-2.349-0.602
			C29.686,27.958,29.309,27.413,29.131,26.726z"/>
		<path fill="#280707" d="M37.149,25.063c0-0.638,0.157-1.255,0.472-1.852c0.314-0.598,0.76-1.053,1.337-1.367
			c0.576-0.314,1.22-0.473,1.931-0.473c1.099,0,1.998,0.357,2.7,1.07s1.053,1.614,1.053,2.703c0,1.099-0.354,2.01-1.063,2.731
			c-0.709,0.722-1.602,1.083-2.677,1.083c-0.665,0-1.3-0.15-1.903-0.451c-0.604-0.301-1.063-0.741-1.378-1.322
			S37.149,25.897,37.149,25.063z M39.118,25.167c0,0.72,0.171,1.271,0.513,1.654s0.764,0.574,1.265,0.574s0.922-0.191,1.262-0.574
			c0.339-0.383,0.509-0.939,0.509-1.668c0-0.711-0.17-1.258-0.509-1.641c-0.34-0.383-0.761-0.574-1.262-0.574
			s-0.923,0.191-1.265,0.574S39.118,24.446,39.118,25.167z"/>
		<path fill="#280707" d="M46.146,28.796V18.774h1.921v10.021H46.146z"/>
		<path fill="#280707" d="M52.031,28.796l-2.926-7.26h2.017l1.367,3.705l0.396,1.238c0.104-0.314,0.171-0.522,0.198-0.623
			c0.063-0.205,0.132-0.41,0.205-0.615l1.381-3.705h1.976l-2.885,7.26H52.031z"/>
		<path fill="#280707" d="M62.025,26.485l1.914,0.322c-0.246,0.701-0.635,1.236-1.166,1.603c-0.53,0.366-1.194,0.55-1.992,0.55
			c-1.263,0-2.196-0.412-2.803-1.236c-0.479-0.661-0.718-1.495-0.718-2.502c0-1.203,0.314-2.146,0.943-2.827
			s1.424-1.022,2.386-1.022c1.08,0,1.933,0.357,2.557,1.07s0.923,1.806,0.896,3.277h-4.813c0.014,0.57,0.169,1.014,0.465,1.33
			s0.665,0.475,1.107,0.475c0.301,0,0.554-0.082,0.759-0.246S61.921,26.851,62.025,26.485z M62.135,24.544
			c-0.014-0.556-0.157-0.979-0.431-1.268s-0.606-0.434-0.998-0.434c-0.419,0-0.766,0.152-1.039,0.457
			c-0.273,0.306-0.408,0.721-0.403,1.244H62.135z"/>
		<path fill="#280707" d="M67.446,28.796h-1.921v-7.26h1.784v1.033c0.306-0.488,0.58-0.81,0.824-0.965
			c0.243-0.154,0.521-0.232,0.83-0.232c0.438,0,0.859,0.121,1.265,0.363l-0.595,1.674c-0.323-0.209-0.624-0.314-0.902-0.314
			c-0.269,0-0.497,0.074-0.684,0.223s-0.334,0.416-0.441,0.803c-0.106,0.388-0.16,1.199-0.16,2.434V28.796z"/>
	</g>
</g>
</svg>
